<svg xmlns="http://www.w3.org/2000/svg" viewBox="0 0 5.89 9.27"><defs><style>.cls-1,.cls-2,.cls-3{fill:#f0f4f1;}.cls-1{opacity:0.5;}.cls-2{opacity:0.7;}.cls-3{opacity:0.3;}</style></defs><g id="Ebene_2" data-name="Ebene 2"><g id="Müllteppich"><path class="cls-1" d="M2.17,4.87a.53.53,0,0,1-.52.58.59.59,0,1,1,0-1.17A.54.54,0,0,1,2.17,4.87Z"/><path class="cls-2" d="M3.13,8.77a.45.45,0,0,1-.44.5.5.5,0,0,1,0-1A.45.45,0,0,1,3.13,8.77Z"/><path class="cls-2" d="M.93.49A.45.45,0,0,1,.49,1,.49.49,0,0,1,0,.49.49.49,0,0,1,.49,0,.44.44,0,0,1,.93.49Z"/><path class="cls-3" d="M5.89,2.53a.74.74,0,0,1-.72.81.81.81,0,1,1,0-1.61A.74.74,0,0,1,5.89,2.53Z"/></g></g></svg>