<svg xmlns="http://www.w3.org/2000/svg" viewBox="0 0 4.83 7.54"><defs><style>.cls-1,.cls-2,.cls-3{fill:#f0f4f1;}.cls-1{opacity:0.5;}.cls-2{opacity:0.7;}.cls-3{opacity:0.3;}</style></defs><g id="Ebene_2" data-name="Ebene 2"><g id="Müllteppich"><path class="cls-1" d="M1.11,3.13a.54.54,0,0,1-.52.59.59.59,0,1,1,0-1.17A.53.53,0,0,1,1.11,3.13Z"/><path class="cls-2" d="M2.07,7a.45.45,0,0,1-.44.5.5.5,0,0,1,0-1A.45.45,0,0,1,2.07,7Z"/><path class="cls-3" d="M4.83.8a.74.74,0,0,1-.72.81A.8.8,0,0,1,3.31.8a.8.8,0,0,1,.8-.8A.74.74,0,0,1,4.83.8Z"/></g></g></svg>