<?xml version="1.0" encoding="utf-8"?>
<!-- Generator: Adobe Illustrator 25.3.0, SVG Export Plug-In . SVG Version: 6.00 Build 0)  -->
<svg version="1.1" id="Ebene_1" xmlns="http://www.w3.org/2000/svg" xmlns:xlink="http://www.w3.org/1999/xlink" x="0px" y="0px"
	 viewBox="0 0 1395 449" style="enable-background:new 0 0 1395 449;" xml:space="preserve">
<style type="text/css">
	.st0{clip-path:url(#SVGID_2_);}
	.st1{fill:url(#SVGID_3_);}
	.st2{fill:#27182A;}
	.st3{fill:url(#SVGID_4_);}
	.st4{fill:url(#SVGID_5_);}
	.st5{fill:url(#SVGID_6_);}
	.st6{fill:url(#SVGID_7_);}
	.st7{fill:url(#SVGID_8_);}
	.st8{fill:url(#SVGID_9_);}
	.st9{fill:url(#SVGID_10_);}
	.st10{fill:url(#SVGID_11_);}
	.st11{fill:url(#SVGID_12_);}
	.st12{fill:url(#SVGID_13_);}
	.st13{fill:url(#SVGID_14_);}
	.st14{fill:url(#SVGID_15_);}
	.st15{fill:url(#SVGID_16_);}
	.st16{fill:url(#SVGID_17_);}
	.st17{fill:url(#SVGID_18_);}
	.st18{fill:url(#SVGID_19_);}
	.st19{fill:url(#SVGID_20_);}
	.st20{fill:url(#SVGID_21_);}
	.st21{fill:#F0F4F1;}
	.st22{fill:url(#SVGID_22_);}
	.st23{fill:url(#SVGID_23_);}
	.st24{fill:url(#SVGID_24_);}
	.st25{fill:url(#SVGID_25_);}
	.st26{fill:url(#SVGID_26_);}
</style>
<g>
	<defs>
		<rect id="SVGID_1_" x="-1.2" width="1395.4" height="449"/>
	</defs>
	<clipPath id="SVGID_2_">
		<use xlink:href="#SVGID_1_"  style="overflow:visible;"/>
	</clipPath>
	<g class="st0">
		<g>
			
				<linearGradient id="SVGID_3_" gradientUnits="userSpaceOnUse" x1="-364.1144" y1="835.6752" x2="-364.1144" y2="789.9279" gradientTransform="matrix(-1 0 0 1 -37.594 -486)">
				<stop  offset="0" style="stop-color:#27182A"/>
				<stop  offset="0.37" style="stop-color:#1E3131"/>
				<stop  offset="1" style="stop-color:#0B6640"/>
			</linearGradient>
			<path class="st1" d="M309.1,322.6c0,0-11.7-14.7,0-18.4s53.3,24.6,53.3,24.6s-35.6,23.2-43.7,20.6c-8.1-2.6-11.4-12.1-8.1-16.6
				l-19.9,6.3v-21.7L309.1,322.6z"/>
			<polygon class="st2" points="336.3,313.1 336.3,343.9 338.3,342.9 338.1,314.1 			"/>
			<circle class="st2" cx="344.7" cy="323.5" r="1.5"/>
		</g>
		<g>
			
				<linearGradient id="SVGID_4_" gradientUnits="userSpaceOnUse" x1="-736.6406" y1="896.9564" x2="-736.6406" y2="851.209" gradientTransform="matrix(1 0 0 1 1391.9879 -486)">
				<stop  offset="0" style="stop-color:#27182A"/>
				<stop  offset="0.37" style="stop-color:#1E3131"/>
				<stop  offset="1" style="stop-color:#0B6640"/>
			</linearGradient>
			<path class="st3" d="M691.2,378.8v21.7l-19.9-6.3c3.3,4.4,0,14-8.1,16.6s-43.7-20.6-43.7-20.6s41.5-28.3,53.3-24.6
				c11.7,3.7,0,18.4,0,18.4L691.2,378.8z"/>
			<polygon class="st2" points="643.7,375.4 643.6,404.2 645.5,405.2 645.5,374.4 			"/>
			<circle class="st2" cx="637.2" cy="384.8" r="1.5"/>
		</g>
		<g>
			
				<linearGradient id="SVGID_5_" gradientUnits="userSpaceOnUse" x1="37.4245" y1="0.5763" x2="37.4245" y2="-15.0257" gradientTransform="matrix(1 0 0 1 0 136)">
				<stop  offset="0" style="stop-color:#27182A"/>
				<stop  offset="0.37" style="stop-color:#1E3131"/>
				<stop  offset="1" style="stop-color:#0B6640"/>
			</linearGradient>
			<path class="st4" d="M13.2,121v15.6l11.7-6.6c5.6,4.3,12.5,6.6,19.6,6.6c6.3-0.2,12.3-2.5,17.1-6.6c0,0-6.2-8.3-16-8.3
				s-20.1,5.6-20.1,5.6L13.2,121z"/>
			<polygon class="st2" points="50.4,122.3 50.4,135.7 51.1,135.5 51.4,122.6 			"/>
			<ellipse class="st2" cx="54.6" cy="127.1" rx="0.9" ry="0.8"/>
		</g>
		<g>
			
				<linearGradient id="SVGID_6_" gradientUnits="userSpaceOnUse" x1="487.401" y1="277.1452" x2="487.401" y2="265.1495" gradientTransform="matrix(1 0 0 1 0 136)">
				<stop  offset="0" style="stop-color:#27182A"/>
				<stop  offset="0.37" style="stop-color:#1E3131"/>
				<stop  offset="1" style="stop-color:#0B6640"/>
			</linearGradient>
			<path class="st5" d="M468.8,401.1v12l9-5.1c4.3,3.3,9.6,5.1,15.1,5.1c4.8-0.2,9.5-2,13.1-5.1c0,0-4.8-6.4-12.3-6.4
				c-7.5,0-15.5,4.3-15.5,4.3L468.8,401.1z"/>
			<polygon class="st2" points="497.4,402.1 497.4,412.4 497.9,412.3 498.2,402.4 			"/>
			<ellipse class="st2" cx="500.6" cy="405.9" rx="0.7" ry="0.6"/>
		</g>
		<g>
			
				<linearGradient id="SVGID_7_" gradientUnits="userSpaceOnUse" x1="529.6332" y1="174.6747" x2="529.6332" y2="159.4687" gradientTransform="matrix(1 0 0 1 0 136)">
				<stop  offset="0" style="stop-color:#27182A"/>
				<stop  offset="0.37" style="stop-color:#1E3131"/>
				<stop  offset="1" style="stop-color:#0B6640"/>
			</linearGradient>
			<path class="st6" d="M506,295.5v15.2l11.4-6.5c5.5,4.2,12.2,6.5,19.1,6.5c6.1-0.2,12-2.5,16.7-6.5c0,0-6.1-8.1-15.6-8.1
				c-9.5,0-19.6,5.5-19.6,5.5L506,295.5z"/>
			<polygon class="st2" points="542.3,296.7 542.3,309.8 542.9,309.6 543.2,297 			"/>
			<ellipse class="st2" cx="546.3" cy="301.5" rx="0.8" ry="0.8"/>
		</g>
		<g>
			
				<linearGradient id="SVGID_8_" gradientUnits="userSpaceOnUse" x1="51.3845" y1="292.3333" x2="51.3845" y2="277.1272" gradientTransform="matrix(-1 0 0 1 78.7284 136)">
				<stop  offset="0" style="stop-color:#27182A"/>
				<stop  offset="0.37" style="stop-color:#1E3131"/>
				<stop  offset="1" style="stop-color:#0B6640"/>
			</linearGradient>
			<path class="st7" d="M38.9,419.2c0,0-10.1-5.5-19.6-5.5s-15.6,8.1-15.6,8.1c4.7,4,10.5,6.3,16.7,6.5c6.9,0,13.6-2.3,19.1-6.5
				l11.4,6.5v-15.2L38.9,419.2z"/>
			<polygon class="st2" points="13.7,414.7 14.1,427.3 14.7,427.4 14.7,414.4 			"/>
			<ellipse class="st2" cx="10.6" cy="419.1" rx="0.8" ry="0.8"/>
		</g>
		<g>
			
				<linearGradient id="SVGID_9_" gradientUnits="userSpaceOnUse" x1="42.8223" y1="223.1018" x2="42.8223" y2="213.1321" gradientTransform="matrix(1 0 0 1 0 136)">
				<stop  offset="0" style="stop-color:#27182A"/>
				<stop  offset="0.37" style="stop-color:#1E3131"/>
				<stop  offset="1" style="stop-color:#0B6640"/>
			</linearGradient>
			<path class="st8" d="M27.3,349.1v10l7.5-4.2c3.6,2.7,8,4.2,12.5,4.2c4-0.1,7.9-1.6,10.9-4.2c0,0-4-5.3-10.2-5.3
				s-12.9,3.6-12.9,3.6L27.3,349.1z"/>
			<polygon class="st2" points="51.1,350 51.1,358.5 51.5,358.4 51.7,350.2 			"/>
			<ellipse class="st2" cx="53.8" cy="353.1" rx="0.6" ry="0.5"/>
		</g>
		<g>
			
				<linearGradient id="SVGID_10_" gradientUnits="userSpaceOnUse" x1="388.7406" y1="305.4905" x2="388.7406" y2="295.5208" gradientTransform="matrix(1 0 0 1 0 136)">
				<stop  offset="0" style="stop-color:#27182A"/>
				<stop  offset="0.37" style="stop-color:#1E3131"/>
				<stop  offset="1" style="stop-color:#0B6640"/>
			</linearGradient>
			<path class="st9" d="M373.3,431.5v10l7.5-4.2c3.6,2.7,8,4.2,12.5,4.2c4-0.1,7.9-1.6,10.9-4.2c0,0-4-5.3-10.2-5.3
				s-12.9,3.6-12.9,3.6L373.3,431.5z"/>
			<polygon class="st2" points="397,432.3 397,440.9 397.4,440.8 397.7,432.5 			"/>
			<ellipse class="st2" cx="399.7" cy="435.4" rx="0.6" ry="0.5"/>
		</g>
		<g>
			
				<linearGradient id="SVGID_11_" gradientUnits="userSpaceOnUse" x1="3020.7678" y1="120.1753" x2="3020.7678" y2="105.1671" gradientTransform="matrix(-1 0 0 1 3040.906 136)">
				<stop  offset="0" style="stop-color:#27182A"/>
				<stop  offset="0.37" style="stop-color:#1E3131"/>
				<stop  offset="1" style="stop-color:#0B6640"/>
			</linearGradient>
			<path class="st10" d="M51,244.4v8.3l-7.3-3.5c-3.3,2.5-7.1,4.3-11.1,5.2c-4.5,1-9.1,1.6-13.8,1.7c-3.5-0.1-6.9-0.5-10.3-1.2
				c-6.7-0.7-13.2-2.6-19.2-5.7c5.4-3.9,11.7-6.4,18.3-7.3c3.7-0.6,7.4-0.9,11.2-0.9c4.5,0.2,8.9,0.7,13.3,1.7
				c3.9,0.9,7.6,2.2,11.1,4.1L51,244.4z"/>
			<polygon class="st2" points="3.1,242.6 3.1,254.3 2.6,254.1 2.2,242.8 			"/>
			<ellipse class="st2" cx="-0.5" cy="246.8" rx="0.7" ry="0.7"/>
		</g>
		<g>
			
				<linearGradient id="SVGID_12_" gradientUnits="userSpaceOnUse" x1="2863.3223" y1="260.2407" x2="2863.3223" y2="249.8409" gradientTransform="matrix(1 0 0 1 -2709.7788 136)">
				<stop  offset="0" style="stop-color:#27182A"/>
				<stop  offset="0.37" style="stop-color:#1E3131"/>
				<stop  offset="1" style="stop-color:#0B6640"/>
			</linearGradient>
			<path class="st11" d="M137.6,389.7c2.4-1.3,5-2.2,7.7-2.8c3-0.6,6.1-1,9.2-1.2c2.6,0,5.2,0.3,7.7,0.7c4.6,0.6,8.9,2.3,12.7,5
				c-4.1,2.2-8.7,3.5-13.3,4c-2.3,0.5-4.7,0.8-7.1,0.9c-3.2-0.1-6.4-0.5-9.5-1.2c-2.8-0.7-5.4-1.9-7.7-3.6l-5,2.4v-5.8L137.6,389.7z
				"/>
			<polygon class="st2" points="166,387 165.7,394.8 165.3,394.9 165.3,386.8 			"/>
			<ellipse class="st2" cx="167.8" cy="389.8" rx="0.5" ry="0.5"/>
		</g>
		<g>
			
				<linearGradient id="SVGID_13_" gradientUnits="userSpaceOnUse" x1="1376.3713" y1="59.914" x2="1376.3713" y2="42.6355" gradientTransform="matrix(-1 0 0 1 2743.7979 136)">
				<stop  offset="0" style="stop-color:#27182A"/>
				<stop  offset="0.37" style="stop-color:#1E3131"/>
				<stop  offset="1" style="stop-color:#0B6640"/>
			</linearGradient>
			<path class="st12" d="M1380.6,185.5c0,0-11.5-6.2-22.3-6.2s-17.7,9.2-17.7,9.2c5.3,4.5,12,7.1,18.9,7.3c7.9,0,15.5-2.6,21.7-7.3
				l13,7.3v-17.3L1380.6,185.5z"/>
			<polygon class="st2" points="1352,180.4 1352.4,194.7 1353.1,194.9 1353.1,180.1 			"/>
			<ellipse class="st2" cx="1348.4" cy="185.4" rx="1" ry="0.9"/>
		</g>
		<g>
			
				<linearGradient id="SVGID_14_" gradientUnits="userSpaceOnUse" x1="3846.4805" y1="-125.4996" x2="3846.4805" y2="-135.8994" gradientTransform="matrix(1 0 0 1 -2709.7788 136)">
				<stop  offset="0" style="stop-color:#27182A"/>
				<stop  offset="0.37" style="stop-color:#1E3131"/>
				<stop  offset="1" style="stop-color:#0B6640"/>
			</linearGradient>
			<path class="st13" d="M1120.8,4c2.4-1.3,5-2.2,7.7-2.8c3-0.6,6.1-1,9.2-1.2c2.6,0,5.2,0.3,7.7,0.7c4.6,0.6,8.9,2.3,12.7,5
				c-4.1,2.2-8.7,3.5-13.3,4c-2.3,0.5-4.7,0.8-7.1,0.9c-3.2-0.1-6.4-0.5-9.5-1.2c-2.8-0.7-5.4-1.9-7.7-3.6l-5,2.4V2.3L1120.8,4z"/>
			<polygon class="st2" points="1149.1,1.3 1148.9,9.1 1148.5,9.2 1148.5,1.1 			"/>
			<ellipse class="st2" cx="1151" cy="4" rx="0.5" ry="0.5"/>
		</g>
		<g>
			
				<linearGradient id="SVGID_15_" gradientUnits="userSpaceOnUse" x1="168.3139" y1="133.5388" x2="168.3139" y2="88.1062" gradientTransform="matrix(1 0 0 1 0 136)">
				<stop  offset="0" style="stop-color:#27182A"/>
				<stop  offset="0.37" style="stop-color:#1E3131"/>
				<stop  offset="1" style="stop-color:#0B6640"/>
			</linearGradient>
			<path class="st14" d="M128.9,225.2v38.2l22.2-14.1c0,0,7.7,21.6,28.4,20.1c12.3-1.1,23.1-8.8,28.1-20.1c0,0-7.4-25.3-26-25.3
				s-29.4,17.1-29.4,17.1L128.9,225.2z"/>
			<polygon class="st2" points="186.4,224.7 186.4,268.3 187.5,267.9 188,225.1 			"/>
			<circle class="st2" cx="195" cy="240.9" r="2.3"/>
		</g>
		<g>
			
				<linearGradient id="SVGID_16_" gradientUnits="userSpaceOnUse" x1="252.8557" y1="149.2225" x2="325.0921" y2="163.3935" gradientTransform="matrix(0.6313 -0.7756 0.7756 0.6313 -22.433 529.8065)">
				<stop  offset="0.2169" style="stop-color:#ECF2EF"/>
				<stop  offset="0.557" style="stop-color:#EAF1EE"/>
				<stop  offset="0.6795" style="stop-color:#E3EDEB"/>
				<stop  offset="0.7668" style="stop-color:#D8E7E5"/>
				<stop  offset="0.8375" style="stop-color:#C7DDDD"/>
				<stop  offset="0.8979" style="stop-color:#B1D1D3"/>
				<stop  offset="0.9505" style="stop-color:#96C2C7"/>
				<stop  offset="0.9978" style="stop-color:#77B1B8"/>
				<stop  offset="1" style="stop-color:#75B0B7"/>
			</linearGradient>
			<path class="st15" d="M308.1,443.5c8.9-2.8,22.7-16.7,22.7-16.7s-28.6-21.2-35.2-27.1c-6.6-5.9-30.4-33.1-31.8-34
				c-1.4-1-6.4-3.7-8-2.1c-1.5,1.6-2.4,2.3,0.3,8c2.8,5.7,13,15.5,13,15.5s-5.1,0.9-7.6,2c-4.3,2-6.7,6-6.7,6s-11.8-17.2-15.4-18.2
				c-3.6-1-5.9,3.6-6.2,5.5c-0.3,1.9,5.8,14.6,5.8,14.6s5.6,11.9,12.7,31.2c7.1,19.3,17.7,37.5,17.7,37.5
				C275.3,456.9,299.2,446.3,308.1,443.5z M256.2,367.3c-0.1-1.3,1.2-2.4,4.3-1.3c3.4,1.2,11.8,12.9,12.6,14.3c0,0-1.9,1.7-3.1,3.4
				C268.9,385.4,256.3,368.5,256.2,367.3z M237.6,383.1c0,0,0.5-1.1,1.5-0.2c3.1,3.1,9.9,11.4,10.7,13.2c0,0-2.6,0.9-4.1,2.8
				S237.6,383.1,237.6,383.1z"/>
			
				<linearGradient id="SVGID_17_" gradientUnits="userSpaceOnUse" x1="2836.3005" y1="-1652.2723" x2="2876.5259" y2="-1634.2821" gradientTransform="matrix(0.102 0.9948 -0.9948 0.102 -1639.066 -2266.375)">
				<stop  offset="0.5519" style="stop-color:#ECF2EF"/>
				<stop  offset="0.5725" style="stop-color:#E4EDED"/>
				<stop  offset="0.6042" style="stop-color:#CFDEE7"/>
				<stop  offset="0.643" style="stop-color:#ABC6DD"/>
				<stop  offset="0.6874" style="stop-color:#7BA5CF"/>
				<stop  offset="0.7359" style="stop-color:#3D7BBE"/>
				<stop  offset="0.756" style="stop-color:#2168B6"/>
			</linearGradient>
			<path class="st16" d="M326.3,431.1c0,0-66.1-26.2-76.5-34.9l-6.3-8.4l4.1-2.7l7.3,9.9c0,0,2.4-4.2,6.7-6
				c4.3-1.7,69.2,37.8,69.2,37.8L326.3,431.1z"/>
			
				<linearGradient id="SVGID_18_" gradientUnits="userSpaceOnUse" x1="2860.9846" y1="-1647.5265" x2="2893.3667" y2="-1635.4995" gradientTransform="matrix(0.102 0.9948 -0.9948 0.102 -1639.066 -2266.375)">
				<stop  offset="0.5146" style="stop-color:#ECF2EF"/>
				<stop  offset="0.5359" style="stop-color:#E4EDED"/>
				<stop  offset="0.5686" style="stop-color:#CFDEE7"/>
				<stop  offset="0.6087" style="stop-color:#ABC6DD"/>
				<stop  offset="0.6546" style="stop-color:#7BA5CF"/>
				<stop  offset="0.7048" style="stop-color:#3D7BBE"/>
				<stop  offset="0.7255" style="stop-color:#2168B6"/>
			</linearGradient>
			<path class="st17" d="M318.1,437.8c0,0-3.9,2.8-5.7,3.8c-1.9,1-54.1-28.8-54.1-28.8L318.1,437.8z"/>
			
				<linearGradient id="SVGID_19_" gradientUnits="userSpaceOnUse" x1="2832.1997" y1="-1642.3564" x2="2920.0215" y2="-1603.0792" gradientTransform="matrix(0.102 0.9948 -0.9948 0.102 -1639.066 -2266.375)">
				<stop  offset="0.5567" style="stop-color:#ECF2EF"/>
				<stop  offset="0.5751" style="stop-color:#E4EDED"/>
				<stop  offset="0.6033" style="stop-color:#CFDEE7"/>
				<stop  offset="0.6379" style="stop-color:#ABC6DD"/>
				<stop  offset="0.6775" style="stop-color:#7BA5CF"/>
				<stop  offset="0.7207" style="stop-color:#3D7BBE"/>
				<stop  offset="0.7386" style="stop-color:#2168B6"/>
			</linearGradient>
			<path class="st18" d="M295.2,448.7c0,0-10.6,5.1-14.1,7.4c-3.4,2.2-18.9-13.8-24.3-25.9c-5.4-12.1-11.2-31.2-11.2-31.2
				S278.9,441.6,295.2,448.7z"/>
			
				<linearGradient id="SVGID_20_" gradientUnits="userSpaceOnUse" x1="2818.3118" y1="-1611.495" x2="2848.8955" y2="-1597.8168" gradientTransform="matrix(0.102 0.9948 -0.9948 0.102 -1639.066 -2266.375)">
				<stop  offset="0" style="stop-color:#2168B6"/>
				<stop  offset="0.1411" style="stop-color:#6495C9"/>
				<stop  offset="0.2807" style="stop-color:#9EBDD9"/>
				<stop  offset="0.399" style="stop-color:#C8DAE5"/>
				<stop  offset="0.4914" style="stop-color:#E2EBEC"/>
				<stop  offset="0.5465" style="stop-color:#ECF2EF"/>
			</linearGradient>
			<path class="st19" d="M255.3,399.8c0,0-5.4-9.6-7-11.9c-3-4.7-4.6-6.6-7.5-8.7c-2-1.4-4.8,0.1-4,0.9c0.3,0.4,1.5-1.3,4.4,2.8
				c1.4,2,2.8,4,4,5.5c1.2,1.5,3.2,5.1,5,7.3C252.5,398.6,255.5,400,255.3,399.8z"/>
			
				<linearGradient id="SVGID_21_" gradientUnits="userSpaceOnUse" x1="4482.4097" y1="-3089.4824" x2="4516.8389" y2="-3074.0845" gradientTransform="matrix(0.105 0.348 -0.5401 0.1629 -1874.6471 -696.92)">
				<stop  offset="0" style="stop-color:#2168B6"/>
				<stop  offset="0.1411" style="stop-color:#6495C9"/>
				<stop  offset="0.2807" style="stop-color:#9EBDD9"/>
				<stop  offset="0.399" style="stop-color:#C8DAE5"/>
				<stop  offset="0.4914" style="stop-color:#E2EBEC"/>
				<stop  offset="0.5465" style="stop-color:#ECF2EF"/>
			</linearGradient>
			<path class="st20" d="M267.4,370.4c0,0-3-3.5-3.9-4.2c-1.9-1.3-2.8-1.8-4.6-2.2c-1.2-0.3-2.6,0.6-2.1,0.8
				c0.2,0.1,1.9-0.5,3.7,0.6c0.9,0.5,0.7,0.5,1.4,0.9c0.7,0.4,1.9,1.9,3,2.5C266.2,369.6,267.5,370.4,267.4,370.4z"/>
		</g>
		<g>
			<path class="st21" d="M95.9,295.5c0.1,0.1,0.1,0.3,0.1,0.5c0.4,3.3-5.3,5.1-9.6,6.6c0,0-10.4,2.9-11.8,0.2l11.6,22.6
				c0,0,3.2,0.8,9.1-1.5c3.3-1.3,7.3-4,7.3-4L95.9,295.5C95.9,295.6,95.9,295.5,95.9,295.5z"/>
			
				<radialGradient id="SVGID_22_" cx="83.0729" cy="295.519" r="12.9888" gradientTransform="matrix(0.9452 -0.3264 0.109 0.3158 -24.8822 234.8363)" gradientUnits="userSpaceOnUse">
				<stop  offset="0" style="stop-color:#2168B6"/>
				<stop  offset="0.1019" style="stop-color:#286DB8"/>
				<stop  offset="0.2488" style="stop-color:#3B7ABD"/>
				<stop  offset="0.4231" style="stop-color:#5A8FC6"/>
				<stop  offset="0.6182" style="stop-color:#86ACD3"/>
				<stop  offset="0.8281" style="stop-color:#BDD2E3"/>
				<stop  offset="1" style="stop-color:#F0F4F1"/>
			</radialGradient>
			<path class="st22" d="M90.3,293.8c-2.1,0.1-4.2,0.5-5.7,1c-0.9,0.3-2.2,0.8-3.4,1.3c-3.3,1.3-6.9,3.4-6.8,6.1
				c0,0.2,0.1,0.3,0.1,0.4c0,0,0,0.1,0,0.1l0,0.1c1.5,2.7,11.8-0.2,11.8-0.2c4.2-1.5,10-3.3,9.6-6.6c0-0.2-0.1-0.3-0.1-0.5
				C95.3,294,92.9,293.7,90.3,293.8z"/>
			
				<radialGradient id="SVGID_23_" cx="83.3115" cy="300.6623" r="11.9081" gradientTransform="matrix(0.9318 -0.3631 0.1511 0.3878 -35.2866 219.4955)" gradientUnits="userSpaceOnUse">
				<stop  offset="0" style="stop-color:#F0F4F1"/>
				<stop  offset="1" style="stop-color:#2168B6"/>
			</radialGradient>
			<path class="st23" d="M77,307.6c0,0,5.4,0.5,10.7-1.3c5.2-1.8,9.5-6,9.5-6l0.4,1.5c0,0-4.1,4.2-9.4,6c-5.5,1.9-10.4,1.4-10.4,1.4
				L77,307.6z"/>
		</g>
		<g>
			<path class="st21" d="M754.5,417.2l-14.4,31.7c0,0,3.8,3.6,11,7.4c5.7,3,12.2,3.5,12.2,3.5l16.3-32.8L754.5,417.2z"/>
			
				<radialGradient id="SVGID_24_" cx="760.1354" cy="263.7207" r="13.8955" gradientTransform="matrix(0.8875 0.4609 -0.2872 0.553 166.426 -70.0241)" gradientUnits="userSpaceOnUse">
				<stop  offset="0" style="stop-color:#2168B6"/>
				<stop  offset="0.1019" style="stop-color:#286DB8"/>
				<stop  offset="0.2488" style="stop-color:#3B7ABD"/>
				<stop  offset="0.4231" style="stop-color:#5A8FC6"/>
				<stop  offset="0.6182" style="stop-color:#86ACD3"/>
				<stop  offset="0.8281" style="stop-color:#BDD2E3"/>
				<stop  offset="1" style="stop-color:#F0F4F1"/>
			</radialGradient>
			<path class="st24" d="M779.8,426.8c1-2.6-3.9-6.9-10.9-9.5c-7-2.6-13.4-2.7-14.4-0.1c-1,2.6,3.9,6.9,10.9,9.5
				C772.3,429.3,778.8,429.4,779.8,426.8z"/>
			
				<radialGradient id="SVGID_25_" cx="1118.5273" cy="-637.5316" r="13.8955" gradientTransform="matrix(0.9984 -5.581338e-02 4.620013e-02 0.8265 -317.7574 1013.626)" gradientUnits="userSpaceOnUse">
				<stop  offset="9.147186e-04" style="stop-color:#2168B6"/>
				<stop  offset="0.1105" style="stop-color:#2F72BA"/>
				<stop  offset="0.3186" style="stop-color:#558BC5"/>
				<stop  offset="0.6033" style="stop-color:#91B4D6"/>
				<stop  offset="0.9505" style="stop-color:#E4ECED"/>
				<stop  offset="1" style="stop-color:#F0F4F1"/>
			</radialGradient>
			<path class="st25" d="M781.2,413.4c-0.5-2.7-6.8-3.9-14.2-2.6c-7.4,1.3-12.9,4.6-12.4,7.3s6.8,3.9,14.2,2.6
				C776.1,419.4,781.7,416.1,781.2,413.4z"/>
			
				<radialGradient id="SVGID_26_" cx="761.303" cy="280.3441" r="18.0785" gradientTransform="matrix(0.8875 0.4609 -0.3815 0.7346 189.9798 -115.3796)" gradientUnits="userSpaceOnUse">
				<stop  offset="0" style="stop-color:#F0F4F1"/>
				<stop  offset="0.1334" style="stop-color:#ECF1F0"/>
				<stop  offset="0.2629" style="stop-color:#E0E9ED"/>
				<stop  offset="0.391" style="stop-color:#CDDCE7"/>
				<stop  offset="0.5181" style="stop-color:#B1CADF"/>
				<stop  offset="0.6447" style="stop-color:#8EB2D5"/>
				<stop  offset="0.7707" style="stop-color:#6394C9"/>
				<stop  offset="0.8942" style="stop-color:#3072BA"/>
				<stop  offset="0.9282" style="stop-color:#2168B6"/>
			</radialGradient>
			<path class="st26" d="M749.1,429.2c0,0,4.5,5.1,11,7.7c6.5,2.5,13.9,1.6,13.9,1.6l-6,12c0,0-7.9-0.6-12.9-2.8
				c-6.9-3-10.8-8-10.8-8L749.1,429.2z"/>
		</g>
	</g>
</g>
</svg>
