<?xml version="1.0" encoding="utf-8"?>
<!-- Generator: Adobe Illustrator 25.3.0, SVG Export Plug-In . SVG Version: 6.00 Build 0)  -->
<svg version="1.1" id="Ebene_1" xmlns="http://www.w3.org/2000/svg" xmlns:xlink="http://www.w3.org/1999/xlink" x="0px" y="0px"
	 viewBox="0 0 1440 271" style="enable-background:new 0 0 1440 271;" xml:space="preserve">
<style type="text/css">
	.st0{clip-path:url(#SVGID_2_);fill:#27182A;}
	.st1{clip-path:url(#SVGID_2_);}
	.st2{opacity:0.2;fill:url(#SVGID_3_);}
	.st3{opacity:0.2;fill:url(#SVGID_4_);}
	.st4{opacity:0.5;fill:url(#SVGID_5_);}
	.st5{opacity:0.5;fill:url(#SVGID_6_);}
	.st6{opacity:0.5;fill:url(#SVGID_7_);}
	.st7{opacity:0.5;fill:url(#SVGID_8_);}
	.st8{opacity:0.5;fill:url(#SVGID_9_);}
	.st9{opacity:0.2;fill:url(#SVGID_10_);}
</style>
<g>
	<defs>
		<rect id="SVGID_1_" y="0.5" width="1440" height="270.1"/>
	</defs>
	<clipPath id="SVGID_2_">
		<use xlink:href="#SVGID_1_"  style="overflow:visible;"/>
	</clipPath>
	<polygon class="st0" points="739.3,399.6 739.3,414.3 739.7,414.2 739.9,399.8 	"/>
	<g id="Wolken" class="st1">
		<linearGradient id="SVGID_3_" gradientUnits="userSpaceOnUse" x1="-105.0854" y1="214.3376" x2="158.7437" y2="128.7093">
			<stop  offset="0" style="stop-color:#452E42;stop-opacity:0"/>
			<stop  offset="0.2714" style="stop-color:#857683;stop-opacity:0.19"/>
			<stop  offset="0.5227" style="stop-color:#B9B1B8;stop-opacity:0.3659"/>
			<stop  offset="0.7354" style="stop-color:#DFDBDF;stop-opacity:0.5148"/>
			<stop  offset="0.9013" style="stop-color:#F6F5F6;stop-opacity:0.6309"/>
			<stop  offset="1" style="stop-color:#FFFFFF;stop-opacity:0.7"/>
		</linearGradient>
		<path class="st2" d="M-5.4,140.1c0,0-9.6-33.6,15.9-40s40.7-5.8,53.9,9.4c0,0-2.9-39.1,59.5-29.5c39.4,5.6,39.4,34.1,39.4,34.1
			s29.1-10.3,42.8-9.6c30.9,1.4,42.4,35.1,42.4,49.3c0,14.2-15.6,37.5-59,35.9c-24.4-0.9-156.3,6.9-201.1-4.2
			c-18.9-4.6-20.7-26.2-12.9-35.8C-18,141.4-5.4,140.1-5.4,140.1z"/>
		
			<linearGradient id="SVGID_4_" gradientUnits="userSpaceOnUse" x1="732.6099" y1="287.6011" x2="800.8649" y2="68.8532" gradientTransform="matrix(-1 0 0 1 1475.302 0)">
			<stop  offset="0" style="stop-color:#452E42;stop-opacity:0"/>
			<stop  offset="0.2714" style="stop-color:#857683;stop-opacity:0.19"/>
			<stop  offset="0.5227" style="stop-color:#B9B1B8;stop-opacity:0.3659"/>
			<stop  offset="0.7354" style="stop-color:#DFDBDF;stop-opacity:0.5148"/>
			<stop  offset="0.9013" style="stop-color:#F6F5F6;stop-opacity:0.6309"/>
			<stop  offset="1" style="stop-color:#FFFFFF;stop-opacity:0.7"/>
		</linearGradient>
		<path class="st3" d="M873.4,97.2c0,0,15-52.7-25-62.7s-63.8-9.2-84.6,14.7c0,0,4.5-61.4-93.4-46.4c-61.9,8.7-61.8,53.5-61.8,53.5
			s-10.9-27.9-43.2-20.6c-49.1,11.1-37.8,48.6-37.8,48.6s-44.8-28.1-52.6,34.2c-2.8,22.1,24.5,58.8,92.7,56.3
			c38.2-1.4,245.5,10.8,315.7-6.5c29.6-7.3,32.5-41.1,20.3-56.1C893.1,99.3,873.4,97.2,873.4,97.2z"/>
		
			<linearGradient id="SVGID_5_" gradientUnits="userSpaceOnUse" x1="596.4144" y1="222.0025" x2="728.329" y2="179.1884" gradientTransform="matrix(-1 0 0 1 949.9152 0)">
			<stop  offset="0" style="stop-color:#452E42;stop-opacity:0"/>
			<stop  offset="0.2714" style="stop-color:#857683;stop-opacity:0.19"/>
			<stop  offset="0.5227" style="stop-color:#B9B1B8;stop-opacity:0.3659"/>
			<stop  offset="0.7354" style="stop-color:#DFDBDF;stop-opacity:0.5148"/>
			<stop  offset="0.9013" style="stop-color:#F6F5F6;stop-opacity:0.6309"/>
			<stop  offset="1" style="stop-color:#FFFFFF;stop-opacity:0.7"/>
		</linearGradient>
		<path class="st4" d="M303.7,184.9c0,0,4.8-16.8-8-20c-12.7-3.2-20.3-2.9-27,4.7c0,0,1.4-19.6-29.7-14.8c-19.7,2.8-19.7,17-19.7,17
			s-14.5-5.1-21.4-4.8c-15.5,0.7-21.2,17.5-21.2,24.6s7.8,18.7,29.5,17.9c12.2-0.4,78.2,3.4,100.6-2.1c9.4-2.3,10.4-13.1,6.5-17.9
			C309.9,185.5,303.7,184.9,303.7,184.9z"/>
		
			<linearGradient id="SVGID_6_" gradientUnits="userSpaceOnUse" x1="-132.0462" y1="259.117" x2="-77.8579" y2="131.2134" gradientTransform="matrix(-1 0 0 1 949.9152 0)">
			<stop  offset="0" style="stop-color:#452E42;stop-opacity:0"/>
			<stop  offset="2.543402e-02" style="stop-color:#523D4F;stop-opacity:1.780381e-02"/>
			<stop  offset="0.1114" style="stop-color:#7A6A78;stop-opacity:7.800040e-02"/>
			<stop  offset="0.2034" style="stop-color:#9E929D;stop-opacity:0.1424"/>
			<stop  offset="0.3" style="stop-color:#BCB4BB;stop-opacity:0.21"/>
			<stop  offset="0.4025" style="stop-color:#D5CFD4;stop-opacity:0.2818"/>
			<stop  offset="0.5133" style="stop-color:#E7E5E7;stop-opacity:0.3593"/>
			<stop  offset="0.636" style="stop-color:#F5F3F5;stop-opacity:0.4452"/>
			<stop  offset="0.7805" style="stop-color:#FDFCFD;stop-opacity:0.5463"/>
			<stop  offset="1" style="stop-color:#FFFFFF;stop-opacity:0.7"/>
		</linearGradient>
		<path class="st5" d="M1118.8,201.1c0,0,4.8-16.8-8-20c-12.7-3.2-20.3-2.9-27,4.7c0,0,1.4-19.6-29.7-14.8
			c-19.7,2.8-19.7,17-19.7,17s-14.5-5.1-21.4-4.8c-15.5,0.7-21.2,17.5-21.2,24.6c0,7.1,7.8,18.7,29.5,17.9
			c12.2-0.4,78.2,3.4,100.6-2.1c9.4-2.3,10.4-13.1,6.5-17.9C1125.1,201.8,1118.8,201.1,1118.8,201.1z"/>
		
			<linearGradient id="SVGID_7_" gradientUnits="userSpaceOnUse" x1="-643.3217" y1="197.56" x2="-618.9413" y2="140.0137" gradientTransform="matrix(-1 0 0 1 949.9152 0)">
			<stop  offset="0" style="stop-color:#452E42;stop-opacity:0"/>
			<stop  offset="2.543402e-02" style="stop-color:#523D4F;stop-opacity:1.780381e-02"/>
			<stop  offset="0.1114" style="stop-color:#7A6A78;stop-opacity:7.800040e-02"/>
			<stop  offset="0.2034" style="stop-color:#9E929D;stop-opacity:0.1424"/>
			<stop  offset="0.3" style="stop-color:#BCB4BB;stop-opacity:0.21"/>
			<stop  offset="0.4025" style="stop-color:#D5CFD4;stop-opacity:0.2818"/>
			<stop  offset="0.5133" style="stop-color:#E7E5E7;stop-opacity:0.3593"/>
			<stop  offset="0.636" style="stop-color:#F5F3F5;stop-opacity:0.4452"/>
			<stop  offset="0.7805" style="stop-color:#FDFCFD;stop-opacity:0.5463"/>
			<stop  offset="1" style="stop-color:#FFFFFF;stop-opacity:0.7"/>
		</linearGradient>
		<path class="st6" d="M1609.8,171.5c0,0,2.2-7.6-3.6-9c-5.7-1.4-9.1-1.3-12.1,2.1c0,0,0.6-8.8-13.4-6.6c-8.9,1.3-8.9,7.7-8.9,7.7
			s-6.5-2.3-9.6-2.2c-7,0.3-9.5,7.9-9.5,11.1s3.5,8.4,13.3,8.1c5.5-0.2,35.2,1.5,45.2-0.9c4.2-1,4.7-5.9,2.9-8
			C1612.6,171.8,1609.8,171.5,1609.8,171.5z"/>
		
			<linearGradient id="SVGID_8_" gradientUnits="userSpaceOnUse" x1="1247.7111" y1="285.0953" x2="1272.0914" y2="227.549" gradientTransform="matrix(-1 0 0 1 949.9152 0)">
			<stop  offset="0" style="stop-color:#452E42;stop-opacity:0"/>
			<stop  offset="2.543402e-02" style="stop-color:#523D4F;stop-opacity:1.780381e-02"/>
			<stop  offset="0.1114" style="stop-color:#7A6A78;stop-opacity:7.800040e-02"/>
			<stop  offset="0.2034" style="stop-color:#9E929D;stop-opacity:0.1424"/>
			<stop  offset="0.3" style="stop-color:#BCB4BB;stop-opacity:0.21"/>
			<stop  offset="0.4025" style="stop-color:#D5CFD4;stop-opacity:0.2818"/>
			<stop  offset="0.5133" style="stop-color:#E7E5E7;stop-opacity:0.3593"/>
			<stop  offset="0.636" style="stop-color:#F5F3F5;stop-opacity:0.4452"/>
			<stop  offset="0.7805" style="stop-color:#FDFCFD;stop-opacity:0.5463"/>
			<stop  offset="1" style="stop-color:#FFFFFF;stop-opacity:0.7"/>
		</linearGradient>
		<path class="st7" d="M-281.2,259c0,0,2.2-7.6-3.6-9c-5.7-1.4-9.1-1.3-12.1,2.1c0,0,0.6-8.8-13.4-6.6c-8.9,1.3-8.9,7.7-8.9,7.7
			s-6.5-2.3-9.6-2.2c-7,0.3-9.5,7.9-9.5,11.1c0,3.2,3.5,8.4,13.3,8.1c5.5-0.2,35.2,1.5,45.2-0.9c4.2-1,4.7-5.9,2.9-8
			C-278.4,259.3-281.2,259-281.2,259z"/>
		
			<linearGradient id="SVGID_9_" gradientUnits="userSpaceOnUse" x1="174.2814" y1="199.8104" x2="198.6618" y2="142.2641" gradientTransform="matrix(1 0 0 1 451.3329 0)">
			<stop  offset="0" style="stop-color:#452E42;stop-opacity:0"/>
			<stop  offset="2.543402e-02" style="stop-color:#523D4F;stop-opacity:1.780381e-02"/>
			<stop  offset="0.1114" style="stop-color:#7A6A78;stop-opacity:7.800040e-02"/>
			<stop  offset="0.2034" style="stop-color:#9E929D;stop-opacity:0.1424"/>
			<stop  offset="0.3" style="stop-color:#BCB4BB;stop-opacity:0.21"/>
			<stop  offset="0.4025" style="stop-color:#D5CFD4;stop-opacity:0.2818"/>
			<stop  offset="0.5133" style="stop-color:#E7E5E7;stop-opacity:0.3593"/>
			<stop  offset="0.636" style="stop-color:#F5F3F5;stop-opacity:0.4452"/>
			<stop  offset="0.7805" style="stop-color:#FDFCFD;stop-opacity:0.5463"/>
			<stop  offset="1" style="stop-color:#FFFFFF;stop-opacity:0.7"/>
		</linearGradient>
		<path class="st8" d="M609,173.7c0,0-2.2-7.6,3.6-9c5.7-1.4,9.1-1.3,12.1,2.1c0,0-0.6-8.8,13.4-6.6c8.9,1.3,8.9,7.7,8.9,7.7
			s6.5-2.3,9.6-2.2c7,0.3,9.5,7.9,9.5,11.1s-3.5,8.4-13.3,8.1c-5.5-0.2-35.2,1.5-45.2-0.9c-4.2-1-4.7-5.9-2.9-8
			C606.2,174,609,173.7,609,173.7z"/>
		<linearGradient id="SVGID_10_" gradientUnits="userSpaceOnUse" x1="1158.6825" y1="214.3376" x2="1422.5116" y2="128.7093">
			<stop  offset="0" style="stop-color:#452E42;stop-opacity:0"/>
			<stop  offset="0.2714" style="stop-color:#857683;stop-opacity:0.19"/>
			<stop  offset="0.5227" style="stop-color:#B9B1B8;stop-opacity:0.3659"/>
			<stop  offset="0.7354" style="stop-color:#DFDBDF;stop-opacity:0.5148"/>
			<stop  offset="0.9013" style="stop-color:#F6F5F6;stop-opacity:0.6309"/>
			<stop  offset="1" style="stop-color:#FFFFFF;stop-opacity:0.7"/>
		</linearGradient>
		<path class="st9" d="M1258.4,140.1c0,0-9.6-33.6,15.9-40s40.7-5.8,53.9,9.4c0,0-2.9-39.1,59.5-29.5c39.4,5.6,39.4,34.1,39.4,34.1
			s29.1-10.3,42.8-9.6c30.9,1.4,42.4,35.1,42.4,49.3s-15.6,37.5-59,35.9c-24.4-0.9-156.3,6.9-201.1-4.2
			c-18.9-4.6-20.7-26.2-12.9-35.8C1245.8,141.4,1258.4,140.1,1258.4,140.1z"/>
	</g>
</g>
</svg>
