<svg xmlns="http://www.w3.org/2000/svg" viewBox="0 0 332.56 203.27"><defs><style>.cls-1{isolation:isolate;}.cls-2{fill:#0b6640;}.cls-2,.cls-3{mix-blend-mode:multiply;}.cls-3{fill:#27182a;opacity:0.14;}</style></defs><g class="cls-1"><g id="Ebene_2" data-name="Ebene 2"><g id="Inseln"><path class="cls-2" d="M217.21,80.64H0a72.56,72.56,0,0,1,6.77-8.46C9.9,69,23.11,58.9,41.66,58.65c9.71-.14,19.18-18.51,34.21-18.51s20.55,14.67,29.32,14.67C109,54.81,125.2,0,141.5,0s31.43,51.31,35.95,51.31,5.84-22.69,18.5-22.69c10.35,0,15.93,27.93,21.26,27.93S231.28,9.55,254.44,9c12.27-.27,24.11,51.55,42.55,51.55s32.4,13.93,33.58,15.15,2,4.9,2,4.9Z"/><path class="cls-3" d="M0,80.32S14.78,123.19,44.32,126s74.38,77.23,102.82,77.23,58.91-54.72,79.23-54.16,23.6-29.26,38.92-29.26,67.27-39.53,67.27-39.53Z"/></g></g></g></svg>