<svg xmlns="http://www.w3.org/2000/svg" viewBox="0 0 191.42 113.38"><defs><style>.cls-1{isolation:isolate;}.cls-2{fill:#0b6640;}.cls-2,.cls-3{mix-blend-mode:multiply;}.cls-3{fill:#27182a;opacity:0.14;}</style></defs><g class="cls-1"><g id="Ebene_2" data-name="Ebene 2"><g id="Inseln"><path class="cls-2" d="M125,46.42H0a41.58,41.58,0,0,1,3.89-4.87A31.2,31.2,0,0,1,24,33.76c5.59-.08,11-10.65,19.69-10.65s11.83,8.44,16.88,8.44C62.75,31.55,72.07,0,81.45,0s18.09,29.54,20.69,29.54,3.36-13.06,10.65-13.06c6,0,9.17,16.07,12.24,16.07s8.1-27,21.43-27.35c7.06-.15,13.87,29.68,24.49,29.68s18.65,8,19.33,8.71a8.07,8.07,0,0,1,1.14,2.83Z"/><path class="cls-3" d="M0,46.1S37.3,85.62,55.31,85.62s22.45,28,40.4,27.76S121.59,92.2,133.84,92.2s18,6.48,27.37,5.76S191.42,46.1,191.42,46.1Z"/></g></g></g></svg>