<svg xmlns="http://www.w3.org/2000/svg" xmlns:xlink="http://www.w3.org/1999/xlink" viewBox="0 0 5.62 7.74"><defs><style>.cls-1{fill:#f0f4f1;}.cls-2{fill:url(#Unbenannter_Verlauf_152);}.cls-3{fill:url(#Unbenannter_Verlauf_155);}</style><radialGradient id="Unbenannter_Verlauf_152" cx="2.8" cy="1.56" r="3.24" gradientTransform="translate(0 1.04) scale(1 0.33)" gradientUnits="userSpaceOnUse"><stop offset="0" stop-color="#2168b6"/><stop offset="0.1" stop-color="#286db8"/><stop offset="0.25" stop-color="#3b7abd"/><stop offset="0.42" stop-color="#5a8fc6"/><stop offset="0.62" stop-color="#86acd3"/><stop offset="0.83" stop-color="#bdd2e3"/><stop offset="1" stop-color="#f0f4f1"/></radialGradient><radialGradient id="Unbenannter_Verlauf_155" cx="2.86" cy="2.84" r="2.97" gradientTransform="translate(-0.04 1.77) rotate(-2.24) scale(1 0.42)" gradientUnits="userSpaceOnUse"><stop offset="0" stop-color="#f0f4f1"/><stop offset="1" stop-color="#2168b6"/></radialGradient></defs><g id="Ebene_2" data-name="Ebene 2"><g id="Müllteppich"><path class="cls-1" d="M5.61,1.08a.24.24,0,0,1,0,.12C5.43,2,3.93,2,2.81,2c0,0-2.68-.16-2.81-.91L.9,7.34a4,4,0,0,0,2.27.39,11,11,0,0,0,2-.35l.41-6.29Z"/><path class="cls-2" d="M4.44.22A5.23,5.23,0,0,0,3,0c-.25,0-.57,0-.92,0C1.23.07.21.25,0,.9A.45.45,0,0,0,0,1v.06C.13,1.82,2.81,2,2.81,2c1.12,0,2.62,0,2.8-.78a.24.24,0,0,0,0-.12C5.6.68,5.07.39,4.44.22Z"/><path class="cls-3" d="M.18,2.4A7.2,7.2,0,0,0,2.81,3a7.42,7.42,0,0,0,2.73-.63l0,.38a6.87,6.87,0,0,1-2.7.65A6.5,6.5,0,0,1,.26,2.84Z"/></g></g></svg>