<svg xmlns="http://www.w3.org/2000/svg" xmlns:xlink="http://www.w3.org/1999/xlink" viewBox="0 0 21.94 24.48"><defs><style>.cls-1{fill:url(#Unbenannter_Verlauf_105);}.cls-2{fill:url(#Unbenannter_Verlauf_129);}.cls-3{fill:url(#Unbenannter_Verlauf_130);}.cls-4{fill:url(#Unbenannter_Verlauf_134);}.cls-5{fill:url(#Unbenannter_Verlauf_121);}.cls-6{fill:url(#Unbenannter_Verlauf_121-2);}</style><linearGradient id="Unbenannter_Verlauf_105" x1="-21.21" y1="9.86" x2="2.86" y2="14.58" gradientTransform="translate(-2.73 24.48) rotate(180)" gradientUnits="userSpaceOnUse"><stop offset="0.22" stop-color="#ecf2ef"/><stop offset="0.56" stop-color="#eaf1ee"/><stop offset="0.68" stop-color="#e3edeb"/><stop offset="0.77" stop-color="#d8e7e5"/><stop offset="0.84" stop-color="#c7dddd"/><stop offset="0.9" stop-color="#b1d1d3"/><stop offset="0.95" stop-color="#96c2c7"/><stop offset="1" stop-color="#77b1b8"/><stop offset="1" stop-color="#75b0b7"/></linearGradient><linearGradient id="Unbenannter_Verlauf_129" x1="208.52" y1="87.23" x2="218.05" y2="91.5" gradientTransform="translate(101.48 -202.11) rotate(90)" gradientUnits="userSpaceOnUse"><stop offset="0.55" stop-color="#ecf2ef"/><stop offset="0.57" stop-color="#e4eded"/><stop offset="0.6" stop-color="#cfdee7"/><stop offset="0.64" stop-color="#abc6dd"/><stop offset="0.69" stop-color="#7ba5cf"/><stop offset="0.74" stop-color="#3d7bbe"/><stop offset="0.76" stop-color="#2168b6"/></linearGradient><linearGradient id="Unbenannter_Verlauf_130" x1="214.37" y1="88.36" x2="222.04" y2="91.21" gradientTransform="translate(101.48 -202.11) rotate(90)" gradientUnits="userSpaceOnUse"><stop offset="0.51" stop-color="#ecf2ef"/><stop offset="0.54" stop-color="#e4eded"/><stop offset="0.57" stop-color="#cfdee7"/><stop offset="0.61" stop-color="#abc6dd"/><stop offset="0.65" stop-color="#7ba5cf"/><stop offset="0.7" stop-color="#3d7bbe"/><stop offset="0.73" stop-color="#2168b6"/></linearGradient><linearGradient id="Unbenannter_Verlauf_134" x1="207.55" y1="89.59" x2="228.36" y2="98.89" gradientTransform="translate(101.48 -202.11) rotate(90)" gradientUnits="userSpaceOnUse"><stop offset="0.56" stop-color="#ecf2ef"/><stop offset="0.58" stop-color="#e4eded"/><stop offset="0.6" stop-color="#cfdee7"/><stop offset="0.64" stop-color="#abc6dd"/><stop offset="0.68" stop-color="#7ba5cf"/><stop offset="0.72" stop-color="#3d7bbe"/><stop offset="0.74" stop-color="#2168b6"/></linearGradient><linearGradient id="Unbenannter_Verlauf_121" x1="204.25" y1="96.9" x2="211.5" y2="100.14" gradientTransform="translate(101.48 -202.11) rotate(90)" gradientUnits="userSpaceOnUse"><stop offset="0" stop-color="#2168b6"/><stop offset="0.14" stop-color="#6495c9"/><stop offset="0.28" stop-color="#9ebdd9"/><stop offset="0.4" stop-color="#c8dae5"/><stop offset="0.49" stop-color="#e2ebec"/><stop offset="0.55" stop-color="#ecf2ef"/></linearGradient><linearGradient id="Unbenannter_Verlauf_121-2" x1="950.31" y1="201.64" x2="958.47" y2="205.29" gradientTransform="matrix(0.07, 0.36, -0.55, 0.11, 54.12, -361.35)" xlink:href="#Unbenannter_Verlauf_121"/></defs><g id="Ebene_2" data-name="Ebene 2"><g id="Müllteppich"><path class="cls-1" d="M16.19,20.2c2.17-.45,5.75-3.39,5.75-3.39s-6.22-5.69-7.63-7.24S7.94,1,7.64.78s-1.43-1-1.82-.7S5.19.57,5.7,2a19.79,19.79,0,0,0,2.69,4,9.7,9.7,0,0,0-1.85.29A4,4,0,0,0,4.81,7.47S2.44,3.12,1.61,2.8.14,3.51,0,4A18.74,18.74,0,0,0,1,7.54s1,2.94,2.24,7.67a66.43,66.43,0,0,0,3.26,9.27C8.13,22.56,14,20.64,16.19,20.2ZM5.78,1c0-.3.34-.54,1-.2S9.28,4.09,9.45,4.43a5.42,5.42,0,0,0-.8.73C8.34,5.54,5.78,1.26,5.78,1ZM1,4.25s.15-.26.36,0A19.58,19.58,0,0,1,3.57,7.63a2.39,2.39,0,0,0-1,.55C2.13,8.59,1,4.25,1,4.25Z"/><path class="cls-2" d="M20.78,17.7S5.83,9.93,3.57,7.63L2.3,5.49l1-.53L4.81,7.47A3.59,3.59,0,0,1,6.54,6.23c1-.31,15.4,10.58,15.4,10.58Z"/><path class="cls-3" d="M18.69,19.09s-1,.57-1.45.76-12-8.1-12-8.1Z"/><path class="cls-4" d="M13,21.1s-2.63,1-3.5,1.4S5.4,18.78,4.42,15.8,2.54,8.18,2.54,8.18,9.36,19,13,21.1Z"/><path class="cls-5" d="M4.8,8.61s-1-2.39-1.35-3A6.48,6.48,0,0,0,1.88,3.39c-.43-.38-1.13-.1-1,.12s.39-.27,1,.77c.28.5.57,1,.8,1.39s.64,1.27,1,1.84A3.43,3.43,0,0,0,4.8,8.61Z"/><path class="cls-6" d="M8.35,2A11.31,11.31,0,0,0,7.53.88a2.57,2.57,0,0,0-1-.62C6.24.16,5.87.34,6,.4a1.34,1.34,0,0,1,.86.23,1.72,1.72,0,0,0,.3.23c.16.12.41.51.65.67A4.53,4.53,0,0,1,8.35,2Z"/></g></g></svg>