<svg xmlns="http://www.w3.org/2000/svg" xmlns:xlink="http://www.w3.org/1999/xlink" viewBox="0 0 13.49 3.26"><defs><style>.cls-1{fill:url(#Unbenannter_Verlauf_209);}.cls-2{fill:#27182a;}</style><linearGradient id="Unbenannter_Verlauf_209" x1="6.75" y1="3.26" x2="6.75" gradientUnits="userSpaceOnUse"><stop offset="0" stop-color="#27182a"/><stop offset="0.37" stop-color="#1e3131"/><stop offset="1" stop-color="#0b6640"/></linearGradient></defs><g id="Ebene_2" data-name="Ebene 2"><g id="Müllteppich"><path class="cls-1" d="M0,.69V2.5l1.66-.75A6.43,6.43,0,0,0,4.08,2.88a17.57,17.57,0,0,0,3,.38A13.87,13.87,0,0,0,9.32,3a11.83,11.83,0,0,0,4.17-1.24A8.53,8.53,0,0,0,9.52.2,19,19,0,0,0,7.09,0,16.9,16.9,0,0,0,4.21.36a10.48,10.48,0,0,0-2.43.89Z"/><polygon class="cls-2" points="10.42 0.31 10.42 2.84 10.53 2.82 10.6 0.35 10.42 0.31"/><ellipse class="cls-2" cx="11.19" cy="1.23" rx="0.16" ry="0.14"/></g></g></svg>