<svg xmlns="http://www.w3.org/2000/svg" xmlns:xlink="http://www.w3.org/1999/xlink" viewBox="0 0 25.49 4.07"><defs><style>.cls-1{fill:url(#Unbenannter_Verlauf_209);}.cls-2{fill:#27182a;}</style><linearGradient id="Unbenannter_Verlauf_209" x1="12.75" y1="4.07" x2="12.75" gradientUnits="userSpaceOnUse"><stop offset="0" stop-color="#27182a"/><stop offset="0.37" stop-color="#1e3131"/><stop offset="1" stop-color="#0b6640"/></linearGradient></defs><g id="Ebene_2" data-name="Ebene 2"><g id="Müllteppich"><path class="cls-1" d="M.11,0,3.36,1.9,0,3.74,5.66,2.35A6.43,6.43,0,0,0,8.08,3.48a25.39,25.39,0,0,0,6.39.59c1.07,0,6.65-.47,6.85-.48a11.83,11.83,0,0,0,4.17-1.24,8.53,8.53,0,0,0-4-1.55C21.32.8,16.17.58,15,.6c-1.3,0-6.6.31-6.82.36a10.48,10.48,0,0,0-2.43.89Z"/><polygon class="cls-2" points="22.42 0.91 22.42 3.45 22.53 3.42 22.6 0.96 22.42 0.91"/><ellipse class="cls-2" cx="23.19" cy="1.83" rx="0.16" ry="0.14"/></g></g></svg>