<svg xmlns="http://www.w3.org/2000/svg" xmlns:xlink="http://www.w3.org/1999/xlink" viewBox="0 0 13.49 2.79"><defs><style>.cls-1{fill:url(#Unbenannter_Verlauf_209);}.cls-2{fill:#27182a;}</style><linearGradient id="Unbenannter_Verlauf_209" x1="6.75" y1="2.79" x2="6.75" gradientUnits="userSpaceOnUse"><stop offset="0" stop-color="#27182a"/><stop offset="0.37" stop-color="#1e3131"/><stop offset="1" stop-color="#0b6640"/></linearGradient></defs><g id="Ebene_2" data-name="Ebene 2"><g id="Müllteppich"><path class="cls-1" d="M0,.49V2.3l1.66-.75A6.33,6.33,0,0,0,4.08,2.67c.38.09,4.8.13,5.24.11a11.69,11.69,0,0,0,4.17-1.23A8.53,8.53,0,0,0,9.52,0C9.08,0,4.63.06,4.21.16a10.48,10.48,0,0,0-2.43.89Z"/><polygon class="cls-2" points="10.42 0.11 10.42 2.64 10.53 2.62 10.6 0.15 10.42 0.11"/><ellipse class="cls-2" cx="11.19" cy="1.03" rx="0.16" ry="0.14"/></g></g></svg>