<svg xmlns="http://www.w3.org/2000/svg" xmlns:xlink="http://www.w3.org/1999/xlink" viewBox="0 0 73.94 69.45"><defs><style>.cls-1{isolation:isolate;}.cls-10,.cls-2,.cls-3,.cls-4,.cls-5,.cls-6,.cls-7,.cls-8,.cls-9{mix-blend-mode:screen;}.cls-2{fill:url(#Unbenannter_Verlauf_203);}.cls-3{fill:url(#Unbenannter_Verlauf_203-2);}.cls-4{fill:url(#Unbenannter_Verlauf_203-3);}.cls-5{fill:url(#Unbenannter_Verlauf_203-4);}.cls-10,.cls-6,.cls-7{opacity:0.2;}.cls-6{fill:url(#Unbenannter_Verlauf_203-5);}.cls-7{fill:url(#Unbenannter_Verlauf_203-6);}.cls-8{fill:url(#Unbenannter_Verlauf_203-7);}.cls-9{fill:url(#Unbenannter_Verlauf_203-8);}.cls-10{fill:url(#Unbenannter_Verlauf_203-9);}</style><linearGradient id="Unbenannter_Verlauf_203" x1="30.03" y1="62.42" x2="30.03" y2="26.18" gradientUnits="userSpaceOnUse"><stop offset="0" stop-color="#0b6640" stop-opacity="0"/><stop offset="0.15" stop-color="#0b6640" stop-opacity="0.24"/><stop offset="0.43" stop-color="#0b6640" stop-opacity="0.65"/><stop offset="0.66" stop-color="#0b6640" stop-opacity="0.91"/><stop offset="0.79" stop-color="#0b6640"/></linearGradient><linearGradient id="Unbenannter_Verlauf_203-2" x1="12.45" y1="66.36" x2="12.45" y2="30.12" xlink:href="#Unbenannter_Verlauf_203"/><linearGradient id="Unbenannter_Verlauf_203-3" x1="53.34" y1="64.36" x2="53.34" y2="44.3" xlink:href="#Unbenannter_Verlauf_203"/><linearGradient id="Unbenannter_Verlauf_203-4" x1="1.48" y1="64.36" x2="1.48" y2="44.3" xlink:href="#Unbenannter_Verlauf_203"/><linearGradient id="Unbenannter_Verlauf_203-5" x1="-364.45" y1="60.83" x2="-364.45" y2="40.77" gradientTransform="matrix(-1, 0, 0, 1, -341.68, 0)" xlink:href="#Unbenannter_Verlauf_203"/><linearGradient id="Unbenannter_Verlauf_203-6" x1="39.16" y1="69.45" x2="39.16" y2="17.08" xlink:href="#Unbenannter_Verlauf_203"/><linearGradient id="Unbenannter_Verlauf_203-7" x1="61.44" y1="52.37" x2="61.44" y2="0" xlink:href="#Unbenannter_Verlauf_203"/><linearGradient id="Unbenannter_Verlauf_203-8" x1="-337.58" y1="61.35" x2="-337.58" y2="20.2" gradientTransform="matrix(-1, 0, 0, 1, -291.21, 0)" xlink:href="#Unbenannter_Verlauf_203"/><linearGradient id="Unbenannter_Verlauf_203-9" x1="-363.05" y1="52.37" x2="-363.05" y2="11.22" gradientTransform="matrix(-1, 0, 0, 1, -291.21, 0)" xlink:href="#Unbenannter_Verlauf_203"/></defs><g class="cls-1"><g id="Ebene_2" data-name="Ebene 2"><g id="Boden"><path class="cls-2" d="M28.93,62.42A11.08,11.08,0,0,1,27.37,58c-.17-2.28,2.26-5.76,2.26-7.15s-2.2-4.91-2.27-7,2.1-3.47,2.27-5.2S27.49,34,27.85,31.46s2.1-4,2.82-5.28c0,0-.64,4.21-.35,5.56.33,1.6,2.44,5,2.08,7s-2.09,2.69-1.95,4.71,2.46,5.13,2.24,8S30.09,56.18,30.6,58a43.23,43.23,0,0,0,1.66,4.44Z"/><path class="cls-3" d="M11.36,66.36a11,11,0,0,1-1.57-4.44c-.17-2.28,2.26-5.76,2.26-7.15s-2.19-4.91-2.27-7,2.1-3.47,2.27-5.2-2.14-4.63-1.77-7.15,2.09-4,2.81-5.28c0,0-.63,4.21-.35,5.56.34,1.6,2.44,5,2.08,7s-2.09,2.69-1.94,4.72,2.45,5.12,2.23,8-2.6,4.73-2.09,6.52a45.92,45.92,0,0,0,1.66,4.44Z"/><path class="cls-4" d="M52.73,64.36a6.19,6.19,0,0,1-.87-2.46c-.09-1.27,1.25-3.19,1.25-4s-1.21-2.72-1.25-3.89,1.16-1.91,1.25-2.87-1.18-2.56-1-4,1.16-2.2,1.56-2.92a15.54,15.54,0,0,0-.2,3.08c.19.88,1.36,2.75,1.16,3.87s-1.16,1.49-1.08,2.6,1.36,2.84,1.24,4.44-1.44,2.61-1.16,3.61a24.89,24.89,0,0,0,.92,2.46Z"/><path class="cls-5" d="M.87,64.36A6.08,6.08,0,0,1,0,61.9c-.1-1.27,1.25-3.19,1.25-4S0,55.22,0,54.05s1.16-1.91,1.26-2.87-1.18-2.56-1-4A7.35,7.35,0,0,1,1.83,44.3a15,15,0,0,0-.19,3.08c.19.88,1.35,2.75,1.15,3.87s-1.16,1.49-1.08,2.6S3.07,56.69,3,58.29,1.51,60.9,1.79,61.9a24.89,24.89,0,0,0,.92,2.46Z"/><path class="cls-6" d="M23.37,60.83a6,6,0,0,0,.87-2.46c.09-1.26-1.25-3.19-1.25-4s1.21-2.71,1.25-3.88S23.08,48.61,23,47.65s1.18-2.56,1-4-1.16-2.2-1.56-2.92a15.54,15.54,0,0,1,.2,3.08c-.19.88-1.36,2.75-1.16,3.87s1.16,1.49,1.08,2.61-1.36,2.83-1.24,4.43,1.44,2.61,1.16,3.61a24.89,24.89,0,0,1-.92,2.46Z"/><path class="cls-7" d="M38.06,69.45A20.69,20.69,0,0,1,36.49,63c-.17-3.29,2.27-8.32,2.27-10.33s-2.2-7.09-2.28-10.14c-.08-3.24,2.1-5,2.28-7.52S36.62,28.35,37,24.7s2.1-5.74,2.82-7.62c0,0-.64,6.08-.36,8,.34,2.32,2.45,7.19,2.09,10.12s-2.09,3.88-2,6.8S42,49.43,41.82,53.61s-2.6,6.82-2.09,9.41,1.66,6.43,1.66,6.43Z"/><path class="cls-8" d="M60.34,52.37a20.69,20.69,0,0,1-1.57-6.43C58.6,42.65,61,37.62,61,35.61s-2.2-7.09-2.28-10.15c-.08-3.23,2.1-5,2.28-7.51S58.9,11.27,59.26,7.62,61.35,1.88,62.08,0c0,0-.64,6.08-.36,8,.34,2.32,2.45,7.19,2.09,10.11s-2.1,3.89-2,6.81,2.45,7.41,2.24,11.59-2.6,6.82-2.1,9.41,1.66,6.43,1.66,6.43Z"/><path class="cls-9" d="M47.22,61.35a16.4,16.4,0,0,0,1.24-5.05c.13-2.59-1.78-6.54-1.78-8.12s1.72-5.57,1.78-8-1.65-3.94-1.78-5.9,1.68-5.25,1.39-8.12-1.64-4.51-2.21-6a44.79,44.79,0,0,1,.28,6.31c-.27,1.81-1.92,5.64-1.64,7.94s1.64,3,1.53,5.35-1.93,5.82-1.76,9.1,2,5.36,1.65,7.4-1.31,5.05-1.31,5.05Z"/><path class="cls-10" d="M72.7,52.37a16.22,16.22,0,0,0,1.23-5c.14-2.59-1.78-6.54-1.78-8.12s1.73-5.57,1.79-8-1.65-3.94-1.79-5.91,1.68-5.24,1.4-8.11-1.65-4.51-2.21-6a43.64,43.64,0,0,1,.27,6.31c-.26,1.81-1.92,5.64-1.63,7.94s1.64,3.05,1.53,5.35-1.93,5.82-1.76,9.1,2,5.36,1.64,7.4-1.3,5-1.3,5Z"/></g></g></g></svg>