<?xml version="1.0" encoding="UTF-8"?>
<svg width="1920px" height="1024px" viewBox="0 0 1920 1024" version="1.1" xmlns="http://www.w3.org/2000/svg" xmlns:xlink="http://www.w3.org/1999/xlink">
    <!-- Generator: Sketch 59.1 (86144) - https://sketch.com -->
    <title>bottom-line</title>
    <desc>Created with Sketch.</desc>
    <g id="Page-1" stroke="none" stroke-width="1" fill="none" fill-rule="evenodd">
        <g id="bottom-line">
            <path d="M519.904577,466.019417 L518.694258,468.390791 L519.904577,466.019417 Z M1170.5742,509.292649 L1169.71273,511.811817 L1170.5742,509.292649 Z M1560.32621,912.732316 L1561.51123,910.350291 L1560.32621,912.732316 Z M0.722443273,5.25535423 C3.44012871,5.89382746 6.13886047,6.53771983 8.81883162,7.18695146 L10.0727834,2.01072732 C7.3807889,1.35859307 4.6700871,0.711849986 1.94053148,0.07058157 L0.722443273,5.25535423 Z M19.4388682,9.81217198 C24.6991623,11.1388494 29.8851595,12.486511 34.9980583,13.8546241 L36.3746796,8.70966325 C31.236749,7.33487933 26.0261193,5.98078669 20.7413259,4.64794452 L19.4388682,9.81217198 Z M45.2334424,16.6475451 C50.5961276,18.1396061 55.8761276,19.6545687 61.0751734,21.191767 L62.5853426,16.0844605 C57.3584688,14.5390069 52.0509071,13.0161087 46.6610596,11.5164716 L45.2334424,16.6475451 Z M71.3654147,24.2957226 C76.5323717,25.8855146 81.6169098,27.4976755 86.6204938,29.1315395 L88.2736644,24.0687046 C83.2407878,22.4252538 78.1272233,20.8039057 72.9316394,19.2051928 L71.3654147,24.2957226 Z M97.0428183,32.6056477 C102.194596,34.3585465 107.257964,36.1348793 112.234652,37.9339806 L114.045204,32.9252039 C109.03656,31.1146519 103.941503,29.3271345 98.7583024,27.5635839 L97.0428183,32.6056477 Z M122.231035,41.6215257 C127.422624,43.5757448 132.516882,45.5552621 137.515673,47.5588793 L139.496921,42.6153454 C134.46258,40.5974813 129.333703,38.6043828 124.107229,36.6371151 L122.231035,41.6215257 Z M147.387295,51.5982025 C152.452261,53.7140638 157.416033,55.8552233 162.281276,58.020749 L164.447601,53.1549736 C159.543745,50.9726713 154.542691,48.8152677 149.440444,46.683828 L147.387295,51.5982025 Z M172.131595,62.5001276 C177.039445,64.7800277 181.842108,67.0850929 186.543578,69.4141248 L188.908294,64.6418197 C184.165548,62.2926824 179.32294,59.9684438 174.376477,57.6700361 L172.131595,62.5001276 Z M196.306019,74.3600555 C201.114008,76.8501969 205.810153,79.3661692 210.399778,81.9062413 L212.978863,77.2463135 C208.34663,74.6822746 203.606546,72.1434008 198.75595,69.6308904 L196.306019,74.3600555 Z M219.87595,87.2726546 C224.596061,90.0075229 229.19767,92.7683551 233.684771,95.5536865 L236.494202,91.028638 C231.960499,88.2145465 227.312288,85.4258863 222.546907,82.6643883 L219.87595,87.2726546 Z M242.77215,101.328333 C247.363107,104.315118 251.828904,107.327867 256.173537,110.364316 L259.223967,105.998913 C254.831401,102.928377 250.316338,99.8826075 245.676117,96.864 L242.77215,101.328333 Z M264.8881,116.60405 C269.307295,119.845548 273.594674,123.112078 277.756893,126.401243 L281.058974,122.222646 C276.846158,118.893803 272.508183,115.58866 268.038391,112.309614 L264.8881,116.60405 Z M286.087989,133.152399 C290.291484,136.646214 294.360499,140.163994 298.301692,143.700416 L301.859417,139.73792 C297.867628,136.154896 293.748017,132.593442 289.491262,129.056488 L286.087989,133.152399 Z M306.218696,150.994286 C310.170541,154.731761 313.986574,158.489209 317.673454,162.263967 L321.484161,158.542469 C317.748017,154.718447 313.881387,150.910402 309.878946,147.124993 L306.218696,150.994286 Z M325.132427,170.109071 C328.817975,174.09154 332.367712,178.091318 335.790957,182.103079 L339.842663,178.646546 C336.374147,174.580194 332.776477,170.528488 329.041664,166.491429 L325.132427,170.109071 Z M342.705354,190.434175 C346.123273,194.666963 349.408044,198.911734 352.568988,203.164494 L356.843051,199.986241 C353.640832,195.67889 350.313454,191.378197 346.848932,187.088155 L342.705354,190.434175 Z M358.86025,211.863079 C361.998558,216.323551 365.009043,220.788017 367.903689,225.251151 L372.37215,222.355173 C369.442885,217.836117 366.395118,213.315728 363.215534,208.798003 L358.86025,211.863079 Z M373.617087,234.303911 C376.469126,238.944133 379.202663,243.579029 381.831012,248.205936 L386.461914,245.573592 C383.804272,240.89742 381.040111,236.209265 378.154785,231.514452 L373.617087,234.303911 Z M387.070402,257.658141 C389.658807,262.446158 392.143356,267.219528 394.538696,271.970264 L399.294757,269.572261 C396.878114,264.78025 394.369598,259.961609 391.755895,255.125659 L387.070402,257.658141 Z M399.301415,281.62086 C401.676782,286.538031 403.966935,291.42724 406.18785,296.280499 L411.030458,294.06491 C408.797559,289.182358 406.491429,284.25853 404.096089,279.304078 L399.301415,281.62086 Z M410.620361,306.122829 C412.837282,311.114563 414.990291,316.063689 417.099362,320.962219 L421.991234,318.857143 C419.876838,313.945298 417.715839,308.977531 415.488266,303.960499 L410.620361,306.122829 Z M421.353454,330.901748 C423.502469,335.946741 425.62086,340.938474 427.72061,345.848988 L432.617809,343.755895 C430.51939,338.846713 428.406325,333.869626 426.253315,328.813981 L421.353454,330.901748 Z M432.014646,355.81914 C434.208932,360.866796 436.403218,365.8319 438.624133,370.698474 L443.469404,368.488211 C441.265798,363.657587 439.084827,358.724438 436.89853,353.695423 L432.014646,355.81914 Z M443.20577,380.511512 C445.595784,385.499251 448.032399,390.373814 450.54491,395.120555 L455.251706,392.628017 C452.777809,387.955839 450.373148,383.146519 448.009764,378.210707 L443.20577,380.511512 Z M455.825576,404.688599 C458.592399,409.487268 461.465742,414.13681 464.481553,418.618585 L468.899417,415.646713 C465.962164,411.278114 463.152732,406.73509 460.439168,402.028294 L455.825576,404.688599 Z M470.870014,427.566158 C474.21337,431.970707 477.736477,436.183523 481.473953,440.185964 L485.365881,436.551012 C481.761553,432.69104 478.355617,428.618031 475.110791,424.345298 L470.870014,427.566158 Z M489.291096,447.94319 C493.322829,451.646047 497.59423,455.122552 502.138585,458.358058 L505.227628,454.018752 C500.86835,450.916394 496.76871,447.578363 492.891429,444.020638 L489.291096,447.94319 Z M511.371096,464.360388 C513.742469,465.763773 516.181748,467.108571 518.694258,468.390791 L521.116227,463.648044 C518.702247,462.41509 516.360166,461.124882 514.08466,459.77742 L511.371096,464.360388 Z M518.694258,468.390791 C521.098918,469.61975 523.50491,470.816755 525.90957,471.984466 L528.235673,467.193786 C525.862968,466.040721 523.488932,464.859695 521.116227,463.648044 L518.694258,468.390791 Z M535.525548,476.498197 C540.426741,478.719112 545.32527,480.818863 550.222469,482.804105 L552.223689,477.868294 C547.391734,475.911012 542.558447,473.837892 537.723828,471.647601 L535.525548,476.498197 Z M560.084771,486.6481 C565.123107,488.533481 570.160111,490.301692 575.195784,491.955395 L576.857476,486.895756 C571.89104,485.264688 566.921942,483.520444 561.952843,481.660361 L560.084771,486.6481 Z M585.347018,495.141637 C590.470569,496.674175 595.591456,498.093537 600.712344,499.405049 L602.034508,494.245548 C596.981526,492.951345 591.928544,491.550624 586.872899,490.038058 L585.347018,495.141637 Z M611.087268,501.920222 C616.294702,503.1119 621.500804,504.195728 626.702913,505.179695 L627.693537,499.946963 C622.554008,498.974979 617.41448,497.904466 612.274951,496.728766 L611.087268,501.920222 Z M637.184355,507.027795 C642.451706,507.890596 647.716394,508.654868 652.978419,509.327268 L653.65215,504.043939 C648.451373,503.379528 643.249265,502.624577 638.045825,501.772427 L637.184355,507.027795 Z M663.529098,510.554896 C668.829736,511.110125 674.127712,511.578807 679.423024,511.963606 L679.809154,506.650985 C674.568433,506.27018 669.327712,505.808155 664.085659,505.256921 L663.529098,510.554896 Z M690.032288,512.628017 C695.343578,512.906297 700.652205,513.107351 705.956838,513.237836 L706.087323,507.913232 C700.829293,507.784078 695.571262,507.585687 690.3119,507.308738 L690.032288,512.628017 Z M716.580749,513.404272 C721.89337,513.441553 727.201997,513.410929 732.509293,513.32172 L732.418752,507.995784 C727.152732,508.084993 721.885381,508.115617 716.619362,508.078336 L716.580749,513.404272 Z M743.121221,513.063412 C748.425853,512.895645 753.726491,512.673287 759.025798,512.401664 L758.752843,507.082386 C753.486824,507.352677 748.220804,507.573703 742.953454,507.740139 L743.121221,513.063412 Z M769.616422,511.794508 C774.907739,511.461637 780.197725,511.083495 785.485049,510.668072 L785.068294,505.359445 C779.804938,505.772205 774.542913,506.147684 769.280888,506.479223 L769.616422,511.794508 Z M796.04638,509.790624 C801.324383,509.329931 806.601054,508.83595 811.875062,508.31534 L811.351789,503.014702 C806.09509,503.533981 800.839723,504.025298 795.583024,504.485992 L796.04638,509.790624 Z M822.413759,507.242164 C827.679778,506.690929 832.943135,506.118391 838.20516,505.529875 L837.613981,500.237226 C832.362607,500.824411 827.111234,501.395617 821.85853,501.94552 L822.413759,507.242164 Z M848.725215,504.338197 C853.981914,503.733703 859.237282,503.119889 864.491318,502.50208 L863.869515,497.212094 C858.618141,497.829903 853.366768,498.443717 848.116727,499.046879 L848.725215,504.338197 Z M874.998058,501.262469 C880.250763,500.643329 885.502136,500.024189 890.750846,499.413037 L890.1357,494.123051 C884.881664,494.734202 879.626297,495.353343 874.373592,495.973814 L874.998058,501.262469 Z M901.253592,498.202718 C906.506297,497.603551 911.75767,497.016366 917.007712,496.449154 L916.435173,491.153842 C911.173148,491.723717 905.911123,492.310902 900.65043,492.910069 L901.253592,498.202718 Z M927.509126,495.341359 C932.767157,494.800777 938.022524,494.284161 943.275229,493.796838 L942.783911,488.493537 C937.511234,488.982191 932.237226,489.50147 926.964549,490.043384 L927.509126,495.341359 Z M953.789958,492.864799 C959.051983,492.421415 964.311345,492.011318 969.568044,491.643828 L969.19656,486.331207 C963.9119,486.701359 958.62724,487.111456 953.34258,487.557503 L953.789958,492.864799 Z M980.09742,490.966103 C985.36344,490.655867 990.629459,490.393564 995.892816,490.18319 L995.679778,484.861248 C990.380472,485.072954 985.082497,485.33792 979.784521,485.649487 L980.09742,490.966103 Z M1006.42485,489.835673 C1011.69354,489.699861 1016.96089,489.621304 1022.22691,489.607989 L1022.21359,484.282053 C1016.90363,484.295368 1011.59501,484.373925 1006.28771,484.512399 L1006.42485,489.835673 Z M1032.75761,489.669237 C1038.02097,489.745132 1043.28433,489.890264 1048.54502,490.11129 L1048.76871,484.79068 C1043.45609,484.56699 1038.1448,484.420527 1032.83484,484.343301 L1032.75761,489.669237 Z M1059.05043,490.655867 C1064.29515,490.980749 1069.53853,491.38552 1074.78191,491.878169 L1075.27856,486.574868 C1069.97792,486.078225 1064.67861,485.668128 1059.37931,485.340583 L1059.05043,490.655867 Z M1085.24338,492.976644 C1090.45215,493.5838 1095.65825,494.280166 1100.86569,495.075062 L1101.66857,489.809043 C1096.39723,489.006158 1091.12854,488.300472 1085.85986,487.686657 L1085.24338,492.976644 Z M1111.24594,496.788682 C1116.40011,497.706075 1121.55429,498.721997 1126.70713,499.844438 L1127.84022,494.639667 C1122.61947,493.50258 1117.39872,492.473343 1112.17931,491.545298 L1111.24594,496.788682 Z M1136.92494,502.210485 C1142.00455,503.458086 1147.08283,504.812205 1152.16244,506.279501 L1153.64039,501.162607 C1148.49154,499.67534 1143.34269,498.30258 1138.19517,497.03767 L1136.92494,502.210485 Z M1162.19118,509.327268 C1164.69836,510.126158 1167.20555,510.954341 1169.71273,511.811817 L1171.43567,506.773481 C1168.89387,505.902691 1166.35074,505.063856 1163.80893,504.252982 L1162.19118,509.327268 Z M1169.71273,511.811817 C1172.29714,512.695922 1174.85226,513.614646 1177.37675,514.565326 L1179.25415,509.581581 C1176.67906,508.610929 1174.07334,507.674896 1171.43567,506.773481 L1169.71273,511.811817 Z M1187.32161,518.546463 C1192.33465,520.672843 1197.22519,522.932372 1202.00255,525.318391 L1204.38325,520.554341 C1199.50868,518.119057 1194.51562,515.812926 1189.40139,513.642607 L1187.32161,518.546463 Z M1211.55595,530.338086 C1216.2987,532.957115 1220.92693,535.703967 1225.44732,538.56932 L1228.29936,534.071567 C1223.68976,531.14896 1218.96832,528.347517 1214.12971,525.67656 L1211.55595,530.338086 Z M1234.41487,544.506408 C1238.86469,547.578141 1243.20799,550.768377 1247.45409,554.069126 L1250.72288,549.8643 C1246.39956,546.503634 1241.97503,543.253481 1237.44133,540.123162 L1234.41487,544.506408 Z M1255.85176,560.842386 C1259.99135,564.304244 1264.03639,567.87129 1267.99623,571.535534 L1271.61387,567.626297 C1267.59146,563.903467 1263.4785,560.277836 1259.26835,556.757393 L1255.85176,560.842386 Z M1275.80272,578.991845 C1279.64671,582.777254 1283.40949,586.653204 1287.09903,590.613037 L1290.99495,586.98208 C1287.25614,582.970319 1283.44011,579.038447 1279.54019,575.197115 L1275.80272,578.991845 Z M1294.36094,598.615257 C1297.93465,602.654979 1301.44178,606.773259 1304.88899,610.958114 L1309.00061,607.57215 C1305.51479,603.342025 1301.96771,599.177143 1298.35007,595.086824 L1294.36094,598.615257 Z M1311.68488,619.387739 C1315.0309,623.627184 1318.32366,627.927878 1321.57115,632.283162 L1325.84122,629.099584 C1322.5671,624.70835 1319.24372,620.369043 1315.86574,616.088322 L1311.68488,619.387739 Z M1327.97692,641.021692 C1331.14053,645.407601 1334.26685,649.841442 1337.35589,654.313897 L1341.73648,651.287434 C1338.6208,646.787018 1335.4785,642.325215 1332.29626,637.906019 L1327.97692,641.021692 Z M1343.46741,663.278779 C1346.48988,667.771207 1349.49903,672.296921 1352.48155,676.847933 L1356.92871,673.930652 C1353.94619,669.36233 1350.92372,664.816644 1347.88793,660.301581 L1343.46741,663.278779 Z M1358.39334,685.956616 C1361.33592,690.516949 1364.25187,695.098585 1367.16782,699.692205 L1371.66824,696.837503 C1368.75229,692.235895 1365.82302,687.644938 1362.86713,683.069958 L1358.39334,685.956616 Z M1372.98641,708.882108 C1375.88904,713.481054 1378.77836,718.085326 1381.681,722.690929 L1386.19473,719.853537 C1383.29209,715.250596 1380.38946,710.64233 1377.48682,706.03939 L1372.98641,708.882108 Z M1387.48627,731.898141 C1390.40222,736.503745 1393.31817,741.104022 1396.24743,745.689653 L1400.73454,742.821637 C1397.80527,738.246657 1394.90264,733.654369 1391.98669,729.054092 L1387.48627,731.898141 Z M1402.13259,754.855589 C1405.1018,759.437226 1408.08433,764.000222 1411.09348,768.535257 L1415.52732,765.591345 C1412.53148,761.074951 1409.56227,756.530596 1406.60638,751.963606 L1402.13259,754.855589 Z M1417.16505,777.596006 C1420.22746,782.120388 1423.32982,786.614147 1426.47212,791.06663 L1430.82607,787.997559 C1427.7104,783.5757 1424.62136,779.108571 1421.57226,774.608155 L1417.16505,777.596006 Z M1432.8233,799.946297 C1436.04549,804.374813 1439.30763,808.756727 1442.62302,813.082718 L1446.84383,809.843218 C1443.56838,805.555839 1440.33287,801.209875 1437.13731,796.815978 L1432.8233,799.946297 Z M1449.34702,821.696089 C1452.76893,825.982136 1456.24411,830.206935 1459.78585,834.361165 L1463.83356,830.907295 C1460.33176,826.799667 1456.89653,822.620139 1453.51456,818.376699 L1449.34702,821.696089 Z M1466.97587,842.605714 C1470.63745,846.690707 1474.3656,850.698474 1478.17365,854.622358 L1481.99501,850.911512 C1478.24022,847.043551 1474.56533,843.087712 1470.94369,839.053315 L1466.97587,842.605714 Z M1485.92288,862.368932 C1489.86408,866.187628 1493.88516,869.914452 1497.99945,873.540083 L1501.51456,869.5443 C1497.46685,865.977254 1493.51234,862.309015 1489.63773,858.546241 L1485.92288,862.368932 Z M1506.34785,880.648877 C1510.58197,884.125381 1514.90929,887.495368 1519.34313,890.749515 L1522.48544,886.45681 C1518.13148,883.261248 1513.88405,879.951179 1509.72982,876.534591 L1506.34785,880.648877 Z M1528.33065,897.084716 C1532.8577,900.147129 1537.49126,903.089709 1542.24466,905.905798 L1544.96089,901.324161 C1540.30069,898.562663 1535.74702,895.677337 1531.31318,892.673509 L1528.33065,897.084716 Z M1551.77809,911.299639 C1554.20139,912.604494 1556.65132,913.876061 1559.12788,915.114341 L1561.51123,910.350291 C1559.08793,909.135978 1556.67795,907.889709 1554.30791,906.611484 L1551.77809,911.299639 Z M1559.12788,915.114341 C1561.61775,916.357947 1564.09431,917.586907 1566.53093,918.802552 L1568.90097,914.033176 C1566.46436,912.820194 1564.00111,911.591234 1561.51123,910.350291 L1559.12788,915.114341 Z M1576.1975,923.589237 C1581.17725,926.048488 1586.0638,928.449154 1590.87046,930.789903 L1593.20055,926.003218 C1588.40721,923.666463 1583.53398,921.269792 1578.55423,918.813204 L1576.1975,923.589237 Z M1600.60361,935.521997 C1605.58336,937.927989 1610.45659,940.270069 1615.23662,942.548239 L1617.52677,937.74025 C1612.76006,935.467406 1607.88682,933.12932 1602.92039,930.727323 L1600.60361,935.521997 Z M1625.11623,947.239057 C1630.14924,949.61043 1635.07573,951.909903 1639.88239,954.137476 L1642.11928,949.304189 C1637.32594,947.081942 1632.41276,944.789126 1627.39307,942.421748 L1625.11623,947.239057 Z M1649.70874,958.655201 C1654.78169,960.967989 1659.7215,963.200888 1664.55479,965.353897 L1666.7251,960.488655 C1661.90513,958.342302 1656.97864,956.117393 1651.919,953.809931 L1649.70874,958.655201 Z M1674.48766,969.738474 C1679.60055,971.974036 1684.58031,974.116394 1689.44022,976.172205 L1691.51734,971.267018 C1686.68405,969.220527 1681.71761,967.086158 1676.61803,964.858585 L1674.48766,969.738474 Z M1699.51956,980.385021 C1704.68571,982.516727 1709.71872,984.544577 1714.60527,986.473897 L1716.56255,981.519445 C1711.70264,979.600777 1706.69626,977.583578 1701.55673,975.461193 L1699.51956,980.385021 Z M1724.77781,990.41509 C1730.02386,992.408322 1735.11012,994.284383 1740.06325,996.048599 L1741.84743,991.031567 C1736.93426,989.280666 1731.88793,987.41792 1726.68183,985.436671 L1724.77781,990.41509 Z M1750.32899,999.619639 C1755.69487,1001.43445 1760.88766,1003.11345 1765.93398,1004.66863 L1767.50513,999.578363 C1762.49875,998.039168 1757.34591,996.374813 1752.03329,994.575978 L1750.32899,999.619639 Z M1776.38613,1007.76433 C1781.80527,1009.30485 1787.05132,1010.69759 1792.17753,1011.95983 L1793.45576,1006.78835 C1788.39612,1005.54208 1783.20333,1004.16533 1777.85076,1002.64211 L1776.38613,1007.76433 Z M1802.8294,1014.43107 C1808.28849,1015.62408 1813.62774,1016.66796 1818.8871,1017.58136 L1819.79251,1012.33531 C1814.62635,1011.4339 1809.35368,1010.40466 1803.96117,1009.22763 L1802.8294,1014.43107 Z M1829.67212,1019.29764 C1835.14452,1020.08721 1840.55035,1020.7423 1845.92954,1021.28555 L1846.46214,1015.98624 C1841.16283,1015.44965 1835.83689,1014.80388 1830.43107,1014.0263 L1829.67212,1019.29764 Z M1856.79445,1022.24155 C1862.21359,1022.64899 1867.63273,1022.95789 1873.11845,1023.19223 L1873.3448,1017.87162 C1867.91234,1017.63861 1862.54646,1017.33237 1857.1939,1016.93026 L1856.79445,1022.24155 Z M1884.00999,1023.56372 C1889.34924,1023.70352 1894.76838,1023.78874 1900.32067,1023.84067 L1900.36061,1018.51473 C1894.84827,1018.46413 1889.45576,1018.37892 1884.15645,1018.24044 L1884.00999,1023.56372 Z M1911.17226,1023.90191 C1913.86186,1023.90857 1916.57809,1023.91123 1919.33426,1023.91123 L1919.33426,1018.5853 C1916.57809,1018.5853 1913.87517,1018.58264 1911.18558,1018.57598 L1911.17226,1023.90191 Z" id="Shape" fill-opacity="0.42" fill="#2168B6" fill-rule="nonzero" style="mix-blend-mode: lighten;"></path>
            <g id="Button-fourth" transform="translate(1094.000000, 825.000000)">
                <ellipse id="Oval" fill="#C4C4C4" fill-rule="nonzero" cx="411.563184" cy="43.2732316" rx="18.6373148" ry="18.9736477"></ellipse>
                <ellipse id="Oval" fill="#FFFFFF" fill-rule="nonzero" cx="411.563184" cy="43.2732316" rx="18.6373148" ry="18.9736477"></ellipse>
                <ellipse id="Oval" fill-opacity="0.37" fill="#9DBCD9" fill-rule="nonzero" cx="411.563184" cy="43.2732316" rx="29.4272621" ry="29.9583911"></ellipse>
                <ellipse id="Oval" fill="#2168B6" fill-rule="nonzero" cx="411.564516" cy="43.2732316" rx="14.7135645" ry="14.9791956"></ellipse>
                <g id="Keine-Unternehmen-un" fill="#FFFFFF" font-family="Lato-Bold, Lato" font-size="16" font-weight="bold">
                    <text id="Keine-Unternehmen-unterstützen,">
                        <tspan x="11.0866625" y="19.1490985">Keine Unternehmen unterstützen,</tspan>
                    </text>
                    <text id="die-von-Tiefseebergbau-profitieren,">
                        <tspan x="0.245961454" y="44.4472954">die von Tiefseebergbau profitieren,</tspan>
                    </text>
                    <text id="oder-selbst-betreiben">
                        <tspan x="143.809961" y="69.7454924">oder selbst betreiben</tspan>
                    </text>
                </g>
            </g>
            <g id="Button-third" transform="translate(1315.000000, 555.000000)">
                <ellipse id="Oval" fill="#C4C4C4" fill-rule="nonzero" cx="30.1980583" cy="105.852982" rx="18.6373148" ry="18.9736477"></ellipse>
                <ellipse id="Oval" fill="#FFFFFF" fill-rule="nonzero" cx="30.1980583" cy="105.852982" rx="18.6373148" ry="18.9736477"></ellipse>
                <ellipse id="Oval" fill-opacity="0.37" fill="#9DBCD9" fill-rule="nonzero" cx="30.2113731" cy="105.852982" rx="29.4272621" ry="29.9583911"></ellipse>
                <ellipse id="Oval" fill="#2168B6" fill-rule="nonzero" cx="30.2113731" cy="105.852982" rx="14.7135645" ry="14.9791956"></ellipse>
                <g id="Keine-Unternehmen-un" transform="translate(79.889043, 0.000000)" fill="#FFFFFF" font-family="Lato-Bold, Lato" font-size="16" font-weight="bold">
                    <text id="Keine-Unternehmen-unterstützen,">
                        <tspan x="0" y="19.1490985">Keine Unternehmen unterstützen,</tspan>
                    </text>
                    <text id="die-von-Tiefseebergbau-profitieren,">
                        <tspan x="0" y="44.4472954">die von Tiefseebergbau profitieren,</tspan>
                    </text>
                    <text id="oder-selbst-betreiben">
                        <tspan x="0" y="69.7454924">oder selbst betreiben</tspan>
                    </text>
                </g>
            </g>
            <g id="Button-second" transform="translate(796.000000, 468.000000)">
                <ellipse id="Oval" fill="#C4C4C4" fill-rule="nonzero" cx="337.83939" cy="29.9583911" rx="18.6373148" ry="18.9736477"></ellipse>
                <ellipse id="Oval" fill="#FFFFFF" fill-rule="nonzero" cx="337.83939" cy="29.9583911" rx="18.6373148" ry="18.9736477"></ellipse>
                <ellipse id="Oval" fill-opacity="0.37" fill="#9DBCD9" fill-rule="nonzero" cx="337.83939" cy="29.9583911" rx="29.4272621" ry="29.9583911"></ellipse>
                <ellipse id="Oval" fill="#2168B6" fill-rule="nonzero" cx="337.83939" cy="29.9583911" rx="14.7135645" ry="14.9791956"></ellipse>
                <g id="Keine-Unternehmen-un" transform="translate(-0.000000, 29.000000)" fill="#FFFFFF" font-family="Lato-Bold, Lato" font-size="16" font-weight="bold">
                    <text id="Keine-Unternehmen-unterstützen,">
                        <tspan x="8.52651283e-14" y="16">Keine Unternehmen unterstützen,</tspan>
                    </text>
                    <text id="die-von-Tiefseebergbau-profitieren,">
                        <tspan x="0.239225392" y="35.6578947">die von Tiefseebergbau profitieren,</tspan>
                    </text>
                    <text id="oder-selbst-betreiben">
                        <tspan x="1.13686838e-13" y="55">oder selbst betreiben</tspan>
                    </text>
                </g>
            </g>
            <g id="Button-first" transform="translate(418.000000, 343.000000)">
                <ellipse id="Oval" fill="#C4C4C4" fill-rule="nonzero" cx="29.8718447" cy="29.9609883" rx="18.6373148" ry="18.9752926"></ellipse>
                <ellipse id="Oval" fill="#FFFFFF" fill-rule="nonzero" cx="29.8718447" cy="29.9609883" rx="18.6373148" ry="18.9752926"></ellipse>
                <ellipse id="Oval" fill-opacity="0.37" fill="#9DBCD9" fill-rule="nonzero" cx="29.8718447" cy="29.9609883" rx="29.4272621" ry="29.9609883"></ellipse>
                <ellipse id="Oval" fill="#2168B6" fill-rule="nonzero" cx="29.8718447" cy="29.9609883" rx="14.7135645" ry="14.9804941"></ellipse>
                <g id="Keine-Unternehmen-un" transform="translate(95.866852, 0.000000)" fill="#FFFFFF" font-family="Lato-Bold, Lato" font-size="16" font-weight="bold">
                    <text id="Keine-Unternehmen-unterstützen,">
                        <tspan x="0" y="19.1501951">Keine Unternehmen unterstützen,</tspan>
                    </text>
                    <text id="die-von-Tiefseebergbau-profitieren,">
                        <tspan x="0" y="44.4505852">die von Tiefseebergbau profitieren,</tspan>
                    </text>
                    <text id="oder-selbst-betreiben">
                        <tspan x="0" y="69.7509753">oder selbst betreiben</tspan>
                    </text>
                </g>
            </g>
        </g>
    </g>
</svg>