<?xml version="1.0" encoding="UTF-8"?>
<svg width="1442px" height="769px" viewBox="0 0 1442 769" version="1.1" xmlns="http://www.w3.org/2000/svg" xmlns:xlink="http://www.w3.org/1999/xlink">
    <g id="Page-1" stroke="none" stroke-width="1" fill="none" fill-rule="evenodd">
        <g id="bottom-line">
            <path d="M390.47,350 L389.561,351.781 L390.47,350 Z M879.15,382.5 L878.503,384.392 L879.15,382.5 Z M1171.87,685.5 L1172.76,683.711 L1171.87,685.5 Z M0.542585,3.94699 C2.58368,4.42651 4.61054,4.9101 6.62331,5.3977 L7.56508,1.51014 C5.54328,1.02036 3.50743,0.534629 1.45742,0.0530097 L0.542585,3.94699 Z M14.5994,7.36935 C18.5501,8.36574 22.445,9.37789 26.285,10.4054 L27.3189,6.54132 C23.4601,5.5088 19.5467,4.49182 15.5776,3.4908 L14.5994,7.36935 Z M33.9722,12.503 C37.9998,13.6236 41.9653,14.7614 45.87,15.9159 L47.0042,12.0801 C43.0786,10.9194 39.0924,9.77564 35.0444,8.64935 L33.9722,12.503 Z M53.5984,18.2471 C57.479,19.4411 61.2977,20.6519 65.0556,21.879 L66.2972,18.0766 C62.5173,16.8423 58.6768,15.6246 54.7747,14.4239 L53.5984,18.2471 Z M72.8832,24.4882 C76.7524,25.8047 80.5552,27.1388 84.2929,28.49 L85.6527,24.7282 C81.891,23.3684 78.0644,22.0259 74.1716,20.7014 L72.8832,24.4882 Z M91.8006,31.2595 C95.6997,32.7272 99.5257,34.2139 103.28,35.7187 L104.768,32.0059 C100.987,30.4904 97.135,28.9935 93.2097,27.516 L91.8006,31.2595 Z M110.694,38.7524 C114.498,40.3415 118.226,41.9496 121.88,43.576 L123.507,39.9216 C119.824,38.2826 116.068,36.6623 112.236,35.0615 L110.694,38.7524 Z M129.278,46.9402 C132.964,48.6525 136.571,50.3837 140.102,52.1329 L141.878,48.5487 C138.316,46.7844 134.679,45.0388 130.964,43.3126 L129.278,46.9402 Z M147.434,55.8475 C151.045,57.7177 154.572,59.6073 158.019,61.515 L159.956,58.0152 C156.477,56.0895 152.917,54.1827 149.274,52.2957 L147.434,55.8475 Z M165.136,65.5454 C168.681,67.5994 172.137,69.6729 175.507,71.7648 L177.617,68.3663 C174.212,66.2528 170.721,64.1584 167.142,62.0844 L165.136,65.5454 Z M182.332,76.1018 C185.78,78.345 189.134,80.6077 192.397,82.8882 L194.688,79.6096 C191.389,77.3035 187.998,75.016 184.513,72.7489 L182.332,76.1018 Z M198.942,87.5745 C202.261,90.009 205.481,92.4623 208.607,94.9326 L211.087,91.7943 C207.923,89.2942 204.665,86.8119 201.308,84.3492 L198.942,87.5745 Z M214.864,100.003 C218.021,102.627 221.077,105.269 224.037,107.925 L226.709,104.949 C223.711,102.258 220.617,99.5832 217.42,96.9268 L214.864,100.003 Z M229.983,113.403 C232.951,116.21 235.817,119.032 238.586,121.867 L241.448,119.072 C238.642,116.2 235.738,113.34 232.732,110.497 L229.983,113.403 Z M244.188,127.759 C246.956,130.75 249.622,133.754 252.193,136.767 L255.236,134.171 C252.631,131.117 249.929,128.074 247.124,125.042 L244.188,127.759 Z M257.386,143.024 C259.953,146.203 262.42,149.391 264.794,152.585 L268.004,150.198 C265.599,146.963 263.1,143.733 260.498,140.511 L257.386,143.024 Z M269.519,159.118 C271.876,162.468 274.137,165.821 276.311,169.173 L279.667,166.998 C277.467,163.604 275.178,160.209 272.79,156.816 L269.519,159.118 Z M280.602,175.972 C282.744,179.457 284.797,182.938 286.771,186.413 L290.249,184.436 C288.253,180.924 286.177,177.403 284.01,173.877 L280.602,175.972 Z M290.706,193.512 C292.65,197.108 294.516,200.693 296.315,204.261 L299.887,202.46 C298.072,198.861 296.188,195.242 294.225,191.61 L290.706,193.512 Z M299.892,211.509 C301.676,215.202 303.396,218.874 305.064,222.519 L308.701,220.855 C307.024,217.188 305.292,213.49 303.493,209.769 L299.892,211.509 Z M308.393,229.911 C310.058,233.66 311.675,237.377 313.259,241.056 L316.933,239.475 C315.345,235.786 313.722,232.055 312.049,228.287 L308.393,229.911 Z M316.454,248.521 C318.068,252.31 319.659,256.059 321.236,259.747 L324.914,258.175 C323.338,254.488 321.751,250.75 320.134,246.953 L316.454,248.521 Z M324.461,267.235 C326.109,271.026 327.757,274.755 329.425,278.41 L333.064,276.75 C331.409,273.122 329.771,269.417 328.129,265.64 L324.461,267.235 Z M332.866,285.78 C334.661,289.526 336.491,293.187 338.378,296.752 L341.913,294.88 C340.055,291.371 338.249,287.759 336.474,284.052 L332.866,285.78 Z M342.344,303.938 C344.422,307.542 346.58,311.034 348.845,314.4 L352.163,312.168 C349.957,308.887 347.847,305.475 345.809,301.94 L342.344,303.938 Z M353.643,321.12 C356.154,324.428 358.8,327.592 361.607,330.598 L364.53,327.868 C361.823,324.969 359.265,321.91 356.828,318.701 L353.643,321.12 Z M367.478,336.424 C370.506,339.205 373.714,341.816 377.127,344.246 L379.447,340.987 C376.173,338.657 373.094,336.15 370.182,333.478 L367.478,336.424 Z M384.061,348.754 C385.842,349.808 387.674,350.818 389.561,351.781 L391.38,348.219 C389.567,347.293 387.808,346.324 386.099,345.312 L384.061,348.754 Z M389.561,351.781 C391.367,352.704 393.174,353.603 394.98,354.48 L396.727,350.882 C394.945,350.016 393.162,349.129 391.38,348.219 L389.561,351.781 Z M402.202,357.87 C405.883,359.538 409.562,361.115 413.24,362.606 L414.743,358.899 C411.114,357.429 407.484,355.872 403.853,354.227 L402.202,357.87 Z M420.647,365.493 C424.431,366.909 428.214,368.237 431.996,369.479 L433.244,365.679 C429.514,364.454 425.782,363.144 422.05,361.747 L420.647,365.493 Z M439.62,371.872 C443.468,373.023 447.314,374.089 451.16,375.074 L452.153,371.199 C448.358,370.227 444.563,369.175 440.766,368.039 L439.62,371.872 Z M458.952,376.963 C462.863,377.858 466.773,378.672 470.68,379.411 L471.424,375.481 C467.564,374.751 463.704,373.947 459.844,373.064 L458.952,376.963 Z M478.552,380.799 C482.508,381.447 486.462,382.021 490.414,382.526 L490.92,378.558 C487.014,378.059 483.107,377.492 479.199,376.852 L478.552,380.799 Z M498.338,383.448 C502.319,383.865 506.298,384.217 510.275,384.506 L510.565,380.516 C506.629,380.23 502.693,379.883 498.756,379.469 L498.338,383.448 Z M518.243,385.005 C522.232,385.214 526.219,385.365 530.203,385.463 L530.301,381.464 C526.352,381.367 522.403,381.218 518.453,381.01 L518.243,385.005 Z M538.182,385.588 C542.172,385.616 546.159,385.593 550.145,385.526 L550.077,381.526 C546.122,381.593 542.166,381.616 538.211,381.588 L538.182,385.588 Z M558.115,385.332 C562.099,385.206 566.08,385.039 570.06,384.835 L569.855,380.84 C565.9,381.043 561.945,381.209 557.989,381.334 L558.115,385.332 Z M578.014,384.379 C581.988,384.129 585.961,383.845 589.932,383.533 L589.619,379.546 C585.666,379.856 581.714,380.138 577.762,380.387 L578.014,384.379 Z M597.864,382.874 C601.828,382.528 605.791,382.157 609.752,381.766 L609.359,377.785 C605.411,378.175 601.464,378.544 597.516,378.89 L597.864,382.874 Z M617.667,380.96 C621.622,380.546 625.575,380.116 629.527,379.674 L629.083,375.699 C625.139,376.14 621.195,376.569 617.25,376.982 L617.667,380.96 Z M637.428,378.779 C641.376,378.325 645.323,377.864 649.269,377.4 L648.802,373.427 C644.858,373.891 640.914,374.352 636.971,374.805 L637.428,378.779 Z M657.16,376.469 C661.105,376.004 665.049,375.539 668.991,375.08 L668.529,371.107 C664.583,371.566 660.636,372.031 656.691,372.497 L657.16,376.469 Z M676.879,374.171 C680.824,373.721 684.768,373.28 688.711,372.854 L688.281,368.877 C684.329,369.305 680.377,369.746 676.426,370.196 L676.879,374.171 Z M696.598,372.022 C700.547,371.616 704.494,371.228 708.439,370.862 L708.07,366.879 C704.11,367.246 700.149,367.636 696.189,368.043 L696.598,372.022 Z M716.336,370.162 C720.288,369.829 724.238,369.521 728.186,369.245 L727.907,365.255 C723.938,365.533 719.969,365.841 716,366.176 L716.336,370.162 Z M736.094,368.736 C740.049,368.503 744.004,368.306 747.957,368.148 L747.797,364.151 C743.817,364.31 739.838,364.509 735.859,364.743 L736.094,368.736 Z M755.867,367.887 C759.824,367.785 763.78,367.726 767.735,367.716 L767.725,363.716 C763.737,363.726 759.75,363.785 755.764,363.889 L755.867,367.887 Z M775.644,367.762 C779.597,367.819 783.55,367.928 787.501,368.094 L787.669,364.098 C783.679,363.93 779.69,363.82 775.702,363.762 L775.644,367.762 Z M795.391,368.503 C799.33,368.747 803.268,369.051 807.206,369.421 L807.579,365.438 C803.598,365.065 799.618,364.757 795.638,364.511 L795.391,368.503 Z M815.063,370.246 C818.975,370.702 822.885,371.225 826.796,371.822 L827.399,367.867 C823.44,367.264 819.483,366.734 815.526,366.273 L815.063,370.246 Z M834.592,373.109 C838.463,373.798 842.334,374.561 846.204,375.404 L847.055,371.495 C843.134,370.641 839.213,369.868 835.293,369.171 L834.592,373.109 Z M853.878,377.181 C857.693,378.118 861.507,379.135 865.322,380.237 L866.432,376.394 C862.565,375.277 858.698,374.246 854.832,373.296 L853.878,377.181 Z M872.854,382.526 C874.737,383.126 876.62,383.748 878.503,384.392 L879.797,380.608 C877.888,379.954 875.978,379.324 874.069,378.715 L872.854,382.526 Z M878.503,384.392 C880.444,385.056 882.363,385.746 884.259,386.46 L885.669,382.717 C883.735,381.988 881.778,381.285 879.797,380.608 L878.503,384.392 Z M891.728,389.45 C895.493,391.047 899.166,392.744 902.754,394.536 L904.542,390.958 C900.881,389.129 897.131,387.397 893.29,385.767 L891.728,389.45 Z M909.929,398.306 C913.491,400.273 916.967,402.336 920.362,404.488 L922.504,401.11 C919.042,398.915 915.496,396.811 911.862,394.805 L909.929,398.306 Z M927.097,408.947 C930.439,411.254 933.701,413.65 936.89,416.129 L939.345,412.971 C936.098,410.447 932.775,408.006 929.37,405.655 L927.097,408.947 Z M943.197,421.216 C946.306,423.816 949.344,426.495 952.318,429.247 L955.035,426.311 C952.014,423.515 948.925,420.792 945.763,418.148 L943.197,421.216 Z M958.181,434.847 C961.068,437.69 963.894,440.601 966.665,443.575 L969.591,440.848 C966.783,437.835 963.917,434.882 960.988,431.997 L958.181,434.847 Z M972.119,449.585 C974.803,452.619 977.437,455.712 980.026,458.855 L983.114,456.312 C980.496,453.135 977.832,450.007 975.115,446.935 L972.119,449.585 Z M985.13,465.186 C987.643,468.37 990.116,471.6 992.555,474.871 L995.762,472.48 C993.303,469.182 990.807,465.923 988.27,462.708 L985.13,465.186 Z M997.366,481.434 C999.742,484.728 1002.09,488.058 1004.41,491.417 L1007.7,489.144 C1005.36,485.764 1003,482.413 1000.61,479.094 L997.366,481.434 Z M1009,498.15 C1011.27,501.524 1013.53,504.923 1015.77,508.341 L1019.11,506.15 C1016.87,502.719 1014.6,499.305 1012.32,495.914 L1009,498.15 Z M1020.21,515.182 C1022.42,518.607 1024.61,522.048 1026.8,525.498 L1030.18,523.354 C1027.99,519.898 1025.79,516.45 1023.57,513.014 L1020.21,515.182 Z M1031.17,532.4 C1033.35,535.854 1035.52,539.312 1037.7,542.771 L1041.09,540.64 C1038.91,537.183 1036.73,533.722 1034.55,530.265 L1031.17,532.4 Z M1042.06,549.686 C1044.25,553.145 1046.44,556.6 1048.64,560.044 L1052.01,557.89 C1049.81,554.454 1047.63,551.005 1045.44,547.55 L1042.06,549.686 Z M1053.06,566.928 C1055.29,570.369 1057.53,573.796 1059.79,577.202 L1063.12,574.991 C1060.87,571.599 1058.64,568.186 1056.42,564.756 L1053.06,566.928 Z M1064.35,584.007 C1066.65,587.405 1068.98,590.78 1071.34,594.124 L1074.61,591.819 C1072.27,588.498 1069.95,585.143 1067.66,581.763 L1064.35,584.007 Z M1076.11,600.793 C1078.53,604.119 1080.98,607.41 1083.47,610.659 L1086.64,608.226 C1084.18,605.006 1081.75,601.742 1079.35,598.442 L1076.11,600.793 Z M1088.52,617.128 C1091.09,620.347 1093.7,623.52 1096.36,626.64 L1099.4,624.046 C1096.77,620.961 1094.19,617.822 1091.65,614.635 L1088.52,617.128 Z M1101.76,632.832 C1104.51,635.9 1107.31,638.91 1110.17,641.857 L1113.04,639.07 C1110.22,636.165 1107.46,633.194 1104.74,630.164 L1101.76,632.832 Z M1115.99,647.675 C1118.95,650.543 1121.97,653.342 1125.06,656.065 L1127.7,653.064 C1124.66,650.385 1121.69,647.63 1118.78,644.804 L1115.99,647.675 Z M1131.33,661.404 C1134.51,664.015 1137.76,666.546 1141.09,668.99 L1143.45,665.766 C1140.18,663.366 1136.99,660.88 1133.87,658.314 L1131.33,661.404 Z M1147.84,673.748 C1151.24,676.048 1154.72,678.258 1158.29,680.373 L1160.33,676.932 C1156.83,674.858 1153.41,672.691 1150.08,670.435 L1147.84,673.748 Z M1165.45,684.424 C1167.27,685.404 1169.11,686.359 1170.97,687.289 L1172.76,683.711 C1170.94,682.799 1169.13,681.863 1167.35,680.903 L1165.45,684.424 Z M1170.97,687.289 C1172.84,688.223 1174.7,689.146 1176.53,690.059 L1178.31,686.477 C1176.48,685.566 1174.63,684.643 1172.76,683.711 L1170.97,687.289 Z M1183.79,693.654 C1187.53,695.501 1191.2,697.304 1194.81,699.062 L1196.56,695.467 C1192.96,693.712 1189.3,691.912 1185.56,690.067 L1183.79,693.654 Z M1202.12,702.616 C1205.86,704.423 1209.52,706.182 1213.11,707.893 L1214.83,704.282 C1211.25,702.575 1207.59,700.819 1203.86,699.015 L1202.12,702.616 Z M1220.53,711.416 C1224.31,713.197 1228.01,714.924 1231.62,716.597 L1233.3,712.967 C1229.7,711.298 1226.01,709.576 1222.24,707.798 L1220.53,711.416 Z M1239,719.99 C1242.81,721.727 1246.52,723.404 1250.15,725.021 L1251.78,721.367 C1248.16,719.755 1244.46,718.084 1240.66,716.351 L1239,719.99 Z M1257.61,728.314 C1261.45,729.993 1265.19,731.602 1268.84,733.146 L1270.4,729.462 C1266.77,727.925 1263.04,726.322 1259.21,724.649 L1257.61,728.314 Z M1276.41,736.31 C1280.29,737.911 1284.07,739.434 1287.74,740.883 L1289.21,737.162 C1285.56,735.721 1281.8,734.206 1277.94,732.612 L1276.41,736.31 Z M1295.38,743.843 C1299.32,745.34 1303.14,746.749 1306.86,748.074 L1308.2,744.306 C1304.51,742.991 1300.72,741.592 1296.81,740.104 L1295.38,743.843 Z M1314.57,750.756 C1318.6,752.119 1322.5,753.38 1326.29,754.548 L1327.47,750.725 C1323.71,749.569 1319.84,748.319 1315.85,746.968 L1314.57,750.756 Z M1334.14,756.873 C1338.21,758.03 1342.15,759.076 1346,760.024 L1346.96,756.14 C1343.16,755.204 1339.26,754.17 1335.24,753.026 L1334.14,756.873 Z M1354,761.88 C1358.1,762.776 1362.11,763.56 1366.06,764.246 L1366.74,760.306 C1362.86,759.629 1358.9,758.856 1354.85,757.972 L1354,761.88 Z M1374.16,765.535 C1378.27,766.128 1382.33,766.62 1386.37,767.028 L1386.77,763.048 C1382.79,762.645 1378.79,762.16 1374.73,761.576 L1374.16,765.535 Z M1394.53,767.746 C1398.6,768.052 1402.67,768.284 1406.79,768.46 L1406.96,764.464 C1402.88,764.289 1398.85,764.059 1394.83,763.757 L1394.53,767.746 Z M1414.97,768.739 C1418.98,768.844 1423.05,768.908 1427.22,768.947 L1427.25,764.947 C1423.11,764.909 1419.06,764.845 1415.08,764.741 L1414.97,768.739 Z M1435.37,768.993 C1437.39,768.998 1439.43,769 1441.5,769 L1441.5,765 C1439.43,765 1437.4,764.998 1435.38,764.993 L1435.37,768.993 Z" id="Shape" fill-opacity="0.42" fill="#2168B6" fill-rule="nonzero" style="mix-blend-mode: lighten;"></path>
            <g id="Button-first" transform="translate(240.000000, 328.000000)">
                <ellipse id="Oval" fill="#C4C4C4" fill-rule="nonzero" cx="152.435" cy="22.5" rx="13.9974" ry="14.25"></ellipse>
                <ellipse id="Oval" fill="#FFFFFF" fill-rule="nonzero" cx="152.435" cy="22.5" rx="13.9974" ry="14.25"></ellipse>
                <ellipse id="Oval" fill="#2168B6" fill-rule="nonzero" cx="152.435" cy="22.5" rx="11.0505" ry="11.25"></ellipse>
                <ellipse id="Oval" fill-opacity="0.37" fill="#9DBCD9" fill-rule="nonzero" cx="152.435" cy="22.5" rx="22.1011" ry="22.5"></ellipse>
                <text id="Keine-Unternehmen-un" font-family="Lato-Bold, Lato" font-size="16" font-weight="bold" letter-spacing="0.727272727" fill="#FFFFFF">
                    <tspan x="0" y="87">Keine Unternehmen unterst端tzen, </tspan>
                    <tspan x="0" y="106">die von Tiefseebergbau profitieren, </tspan>
                    <tspan x="0" y="125">oder selbst betreiben</tspan>
                </text>
            </g>
            <g id="Button-second" transform="translate(670.000000, 261.000000)">
                <ellipse id="Oval" fill="#C4C4C4" fill-rule="nonzero" cx="74.087" cy="101.5" rx="13.9974" ry="14.25"></ellipse>
                <ellipse id="Oval" fill="#FFFFFF" fill-rule="nonzero" cx="74.087" cy="101.5" rx="13.9974" ry="14.25"></ellipse>
                <ellipse id="Oval" fill="#2168B6" fill-rule="nonzero" cx="74.088" cy="101.5" rx="11.0505" ry="11.25"></ellipse>
                <ellipse id="Oval" fill-opacity="0.37" fill="#9DBCD9" fill-rule="nonzero" cx="74.087" cy="101.5" rx="22.1011" ry="22.5"></ellipse>
                <text id="Keine-Unternehmen-un" font-family="Lato-Bold, Lato" font-size="16" font-weight="bold" letter-spacing="0.727272727" fill="#FFFFFF">
                    <tspan x="0" y="16">Keine Unternehmen unterst端tzen, </tspan>
                    <tspan x="0" y="35">die von Tiefseebergbau profitieren, </tspan>
                    <tspan x="0" y="54">oder selbst betreiben</tspan>
                </text>
            </g>
            <g id="Button-third" transform="translate(993.000000, 449.000000)">
                <ellipse id="Oval" fill="#C4C4C4" fill-rule="nonzero" cx="22.68" cy="56.5" rx="13.9974" ry="14.25"></ellipse>
                <ellipse id="Oval" fill="#FFFFFF" fill-rule="nonzero" cx="22.68" cy="56.5" rx="13.9974" ry="14.25"></ellipse>
                <ellipse id="Oval" fill="#2168B6" fill-rule="nonzero" cx="22.69" cy="56.5" rx="11.0505" ry="11.25"></ellipse>
                <ellipse id="Oval" fill-opacity="0.37" fill="#9DBCD9" fill-rule="nonzero" cx="22.69" cy="56.5" rx="22.1011" ry="22.5"></ellipse>
                <text id="Keine-Unternehmen-un" font-family="Lato-Bold, Lato" font-size="16" font-weight="bold" letter-spacing="0.727272727" fill="#FFFFFF">
                    <tspan x="67" y="16">Keine Unternehmen unterst端tzen, </tspan>
                    <tspan x="67" y="35">die von Tiefseebergbau profitieren, </tspan>
                    <tspan x="67" y="54">oder selbst betreiben</tspan>
                </text>
            </g>
            <g id="Button-fourth" transform="translate(884.000000, 673.000000)">
                <ellipse id="Oval" fill="#C4C4C4" fill-rule="nonzero" cx="304.57" cy="22.5" rx="13.9974" ry="14.25"></ellipse>
                <ellipse id="Oval" fill="#FFFFFF" fill-rule="nonzero" cx="304.57" cy="22.5" rx="13.9974" ry="14.25"></ellipse>
                <ellipse id="Oval" fill="#2168B6" fill-rule="nonzero" cx="304.57" cy="22.5" rx="11.0505" ry="11.25"></ellipse>
                <ellipse id="Oval" fill-opacity="0.37" fill="#9DBCD9" fill-rule="nonzero" cx="304.57" cy="22.5" rx="22.1011" ry="22.5"></ellipse>
                <text id="Keine-Unternehmen-un" font-family="Lato-Bold, Lato" font-size="16" font-weight="bold" letter-spacing="0.727272727" fill="#FFFFFF">
                    <tspan x="0" y="54">Keine Unternehmen unterst端tzen, </tspan>
                    <tspan x="0" y="73">die von Tiefseebergbau profitieren, </tspan>
                    <tspan x="0" y="92">oder selbst betreiben</tspan>
                </text>
            </g>
        </g>
    </g>
</svg>