<?xml version="1.0" encoding="utf-8"?>
<!-- Generator: Adobe Illustrator 25.3.0, SVG Export Plug-In . SVG Version: 6.00 Build 0)  -->
<svg version="1.1" id="Ebene_1" xmlns="http://www.w3.org/2000/svg" xmlns:xlink="http://www.w3.org/1999/xlink" x="0px" y="0px"
	 width="14.2px" height="14.2px" viewBox="0 0 14.2 14.2" style="enable-background:new 0 0 14.2 14.2;" xml:space="preserve">
<style type="text/css">
	.st0{fill:#E0C86F;}
	.st1{fill:#D19C4F;}
</style>
<circle class="st0" cx="7.1" cy="7.1" r="7.1"/>
<circle class="st1" cx="7.1" cy="7.1" r="6.2"/>
<path class="st0" d="M9.5,7.8L9.5,7.8c0-0.1-0.1-0.2-0.2-0.3C9.2,7.4,9.2,7.3,9.1,7.2C9,7.1,8.9,7,8.8,7C8.7,6.9,8.6,6.8,8.5,6.8
	L8.2,6.6L7.9,6.5L7.6,6.4L7,6.2L6.8,6.1C6.7,6,6.6,6,6.5,5.9c-0.1,0-0.1-0.1-0.1-0.2c0-0.1,0-0.2,0-0.2c0-0.1,0-0.3,0.1-0.4
	C6.8,4.9,7,4.8,7.3,4.9c0.4,0,0.8,0.2,1,0.5l0.1,0.2L9.6,5L9.3,4.7c-0.4-0.5-0.9-0.9-1.6-1V3.1H6.6v0.6c-0.2,0-0.3,0.1-0.5,0.2
	C5.8,4,5.5,4.2,5.3,4.5C5.1,4.8,5,5.2,5,5.6C5,5.8,5,6,5.1,6.2c0.1,0.2,0.2,0.3,0.3,0.5C5.5,6.9,5.7,7,5.8,7.1
	C6,7.2,6.1,7.3,6.3,7.3c0.1,0.1,0.3,0.1,0.5,0.2l0.6,0.2l0.3,0.1L8,8c0.1,0,0.1,0.1,0.2,0.2c0.1,0.2,0.1,0.4,0,0.5
	C8.1,8.8,8,9,7.9,9C7.7,9.2,7.5,9.3,7.2,9.3C6.9,9.3,6.6,9.2,6.3,9C6.1,8.8,5.9,8.5,5.8,8.3L4.6,8.8l0.1,0.2c0.2,0.4,0.5,0.8,0.8,1
	c0.3,0.2,0.7,0.4,1,0.4V11h1.1v-0.6c0.2,0,0.4-0.1,0.6-0.2c0.2-0.1,0.3-0.2,0.5-0.3c0.1-0.1,0.3-0.3,0.4-0.4C9.3,9.4,9.4,9.2,9.5,9
	c0.1-0.2,0.1-0.4,0.1-0.6C9.6,8.2,9.5,8,9.5,7.8z"/>
</svg>
