<?xml version="1.0" encoding="UTF-8"?>
<svg width="876px" height="558px" viewBox="0 0 876 558" version="1.1" xmlns="http://www.w3.org/2000/svg" xmlns:xlink="http://www.w3.org/1999/xlink">
    <!-- Generator: Sketch 59.1 (86144) - https://sketch.com -->
    <title>intro-background</title>
    <desc>Created with Sketch.</desc>
    <defs>
        <linearGradient x1="50%" y1="0%" x2="50%" y2="100%" id="linearGradient-1">
            <stop stop-color="#73ACB4" offset="0%"></stop>
            <stop stop-color="#27182A" offset="100%"></stop>
        </linearGradient>
        <linearGradient x1="44.7800628%" y1="61.5899094%" x2="71.1919081%" y2="13.0752848%" id="linearGradient-2">
            <stop stop-color="#75B0B7" offset="0%"></stop>
            <stop stop-color="#81B6BC" offset="14%"></stop>
            <stop stop-color="#BCD8D9" offset="55%"></stop>
            <stop stop-color="#B9DED7" offset="84%"></stop>
            <stop stop-color="#AEAEAE" offset="100%"></stop>
        </linearGradient>
    </defs>
    <g id="Page-1" stroke="none" stroke-width="1" fill="none" fill-rule="evenodd">
        <g id="intro-background" transform="translate(0.000000, 0.500000)" fill-rule="nonzero">
            <polygon id="Path" fill="#F0F4F1" points="2 15.5 245.5 0 876 10.5 873.5 283 874 547.5 660.5 557 0 544.5 4.5 114"></polygon>
            <g id="turtle-shape" opacity="0.27208252" transform="translate(315.000000, 314.500000)">
                <path d="M279.55472,150.519657 C275.022101,134.668874 297.891223,105.486637 320.451302,107.061218 C343.011381,108.635799 358.257463,141.597031 356.91828,166.685356 C355.579097,195.447705 332.400933,213.817818 314.373472,228.09402 C307.491371,233.080097 300.303564,237.557347 292.866012,241.505003 L250.19918,240.698701 C275.977261,219.209453 309.868318,186.885328 303.350968,170.149435 C299.436434,159.967144 282.954184,162.066585 279.55472,150.519657 Z" id="Combined-Shape" fill="url(#linearGradient-1)"></path>
                <path d="M476.495637,15.8436782 C486.292123,28.0951759 490.619301,43.8718808 488.453214,59.4404869 C484.101463,58.8246956 479.665478,59.328277 475.559827,60.9041688 C469.113133,63.2042402 457.467493,76.9001202 443.014422,89.6550619 C428.561351,102.410004 398.407462,108.996572 385.722033,111.505741 C364.032936,116.858437 343.562453,126.333556 325.414255,139.420244 C302.766239,154.505573 282.313848,172.063478 266.074961,183.65359 C255.007274,207.289555 234.195944,225.1169 215.186672,240.034987 L139.477251,238.601713 C147.138305,231.601109 154.60947,224.369251 161.413187,217.159482 C134.269825,219.686328 106.816695,219.32908 82.4795565,217.773103 C78.377831,221.330808 74.2430651,224.633213 70.3482443,227.743312 C65.8012191,231.063109 61.1212925,234.159847 56.3244745,237.027521 L11.2682827,236.175733 C19.4433185,229.112913 28.0878646,221.178834 35.7957206,213.144982 C14.4839056,210.297299 1,207.481449 1,207.481449 C1,207.481449 197.624153,17.4119087 291.205188,48.7765193 C302.538891,52.9584674 331.860949,66.0270552 357.023849,52.9584674 C379.067382,41.6672076 377.091782,22.0120516 400.902957,8.83891512 C422.530574,-2.97508822 457.77943,-5.06606226 476.495637,15.8436782 Z" id="Combined-Shape" fill="#27182A"></path>
                <path d="M324.923266,61.1343662 C323.360634,64.8824949 305.234104,55.8245172 291.691294,64.4660361 C278.148484,73.1075551 284.815713,90.2864783 272.939711,99.7609147 C257.521742,112.150562 235.436544,91.3276251 207.725871,96.4292447 C180.015199,101.530864 170.014354,134.951679 150.846069,158.273368 C92.2994594,229.487814 0,207.936074 0,207.936074 C0,207.936074 58.7549606,104.654305 153.033754,59.9891046 C235.749071,20.8419826 287.315925,36.1468415 298.358524,41.2484611 C309.401123,46.3500807 326.277547,57.3862375 324.923266,61.1343662 Z" id="Path" fill="url(#linearGradient-2)"></path>
            </g>
        </g>
    </g>
</svg>