<?xml version="1.0" encoding="UTF-8"?>
<svg width="857px" height="1229px" viewBox="0 0 857 1229" version="1.1" xmlns="http://www.w3.org/2000/svg" xmlns:xlink="http://www.w3.org/1999/xlink">
    <!-- Generator: Sketch 59.1 (86144) - https://sketch.com -->
    <title>mobile-bottom-info</title>
    <desc>Created with Sketch.</desc>
    <g id="Page-1" stroke="none" stroke-width="1" fill="none" fill-rule="evenodd">
        <g id="mobile-bottom-info" transform="translate(1.000000, 1.000000)">
            <rect id="Rectangle" stroke="#979797" x="0" y="0" width="855" height="1227"></rect>
            <path d="M319.352,482.316 L321.351,482.399 L319.352,482.316 Z M496.171,854.243 L494.186,854.488 L494.186,854.488 L496.171,854.243 Z M520.058,9.47749 C520.554,11.49697 521.035,13.50561 521.501,15.50349 L525.397,14.59524 C524.927,12.58165 524.442,10.55743 523.942,8.52251 L520.058,9.47749 Z M523.284,23.4379 C524.134,27.3766 524.925,31.2728 525.658,35.1272 L529.588,34.3804 C528.849,30.4929 528.051,26.5641 527.193,22.5932 L523.284,23.4379 Z M527.106,43.1345 C527.799,47.1712 528.426,51.1611 528.991,55.1051 L532.95,54.5384 C532.381,50.5573 531.747,46.5307 531.048,42.458 L527.106,43.1345 Z M530.036,62.932 C530.545,67.0392 530.984,71.0955 531.356,75.1021 L535.339,74.7323 C534.963,70.6846 534.519,66.5876 534.006,62.4404 L530.036,62.932 Z M532.012,83.0695 C532.304,87.1423 532.526,91.1626 532.68,95.1316 L536.677,94.9765 C536.522,90.9633 536.297,86.8991 536.002,82.7831 L532.012,83.0695 Z M532.901,103.1973 C532.966,107.2461 532.958,111.24 532.882,115.181 L536.881,115.259 C536.959,111.27 536.966,107.2291 536.901,103.1338 L532.901,103.1973 Z M532.625,123.295 C532.447,127.323 532.196,131.294 531.875,135.209 L535.861,135.536 C536.186,131.57 536.44,127.55 536.621,123.472 L532.625,123.295 Z M531.102,143.317 C530.666,147.33 530.155,151.285 529.573,155.181 L533.529,155.772 C534.119,151.823 534.637,147.815 535.079,143.749 L531.102,143.317 Z M528.264,163.188 C527.557,167.168 526.775,171.086 525.921,174.945 L529.827,175.808 C530.692,171.896 531.485,167.923 532.203,163.888 L528.264,163.188 Z M524.062,182.817 C523.077,186.735 522.019,190.591 520.891,194.385 L524.725,195.525 C525.869,191.676 526.943,187.766 527.942,183.792 L524.062,182.817 Z M518.476,202.099 C517.215,205.931 515.883,209.7 514.484,213.407 L518.227,214.819 C519.645,211.059 520.996,207.237 522.275,203.35 L518.476,202.099 Z M511.52,220.934 C509.988,224.667 508.389,228.337 506.727,231.945 L510.361,233.618 C512.045,229.959 513.667,226.239 515.221,222.453 L511.52,220.934 Z M503.248,239.233 C501.458,242.852 499.605,246.41 497.696,249.907 L501.207,251.824 C503.141,248.28 505.019,244.675 506.833,241.006 L503.248,239.233 Z M493.743,256.928 C491.714,260.424 489.629,263.859 487.494,267.236 L490.876,269.373 C493.036,265.955 495.147,262.477 497.202,258.936 L493.743,256.928 Z M483.116,273.981 C480.871,277.349 478.579,280.658 476.246,283.912 L479.496,286.243 C481.855,282.954 484.174,279.607 486.444,276.199 L483.116,273.981 Z M471.495,290.383 C469.062,293.625 466.589,296.811 464.084,299.944 L467.208,302.442 C469.738,299.279 472.235,296.061 474.694,292.785 L471.495,290.383 Z M459.008,306.169 C456.417,309.288 453.796,312.354 451.153,315.371 L454.161,318.007 C456.826,314.966 459.47,311.873 462.085,308.726 L459.008,306.169 Z M445.788,321.395 C443.072,324.396 440.339,327.348 437.594,330.255 L440.502,333.001 C443.265,330.075 446.018,327.102 448.754,324.079 L445.788,321.395 Z M431.992,336.112 C429.166,339.03 426.334,341.903 423.503,344.734 L426.331,347.562 C429.176,344.718 432.023,341.83 434.865,338.895 L431.992,336.112 Z M417.767,350.418 C414.857,353.277 411.954,356.094 409.066,358.874 L411.84,361.756 C414.736,358.969 417.649,356.141 420.571,353.271 L417.767,350.418 Z M403.258,364.439 C400.296,367.265 397.356,370.053 394.449,372.809 L397.2,375.712 C400.109,372.956 403.052,370.164 406.019,367.333 L403.258,364.439 Z M388.556,378.396 C385.582,381.217 382.65,384.006 379.771,386.769 L382.54,389.655 C385.412,386.9 388.338,384.116 391.309,381.297 L388.556,378.396 Z M373.938,392.401 C370.978,395.282 368.084,398.137 365.269,400.971 L368.107,403.79 C370.902,400.975 373.78,398.136 376.728,395.268 L373.938,392.401 Z M359.594,406.775 C356.72,409.765 353.944,412.738 351.283,415.701 L354.259,418.374 C356.886,415.45 359.63,412.51 362.478,409.547 L359.594,406.775 Z M345.926,421.842 C343.225,425.036 340.67,428.226 338.28,431.42 L341.483,433.816 C343.819,430.694 346.324,427.566 348.98,424.424 L345.926,421.842 Z M333.519,438.128 C331.174,441.625 329.043,445.138 327.152,448.678 L330.68,450.563 C332.501,447.154 334.562,443.756 336.841,440.355 L333.519,438.128 Z M323.565,456.108 C321.9,459.974 320.538,463.882 319.513,467.846 L323.386,468.847 C324.355,465.099 325.648,461.385 327.239,457.69 L323.565,456.108 Z M317.907,475.992 C317.626,478.056 317.441,480.136 317.354,482.234 L321.351,482.399 C321.432,480.428 321.607,478.473 321.87,476.53 L317.907,475.992 Z M317.354,482.234 C317.269,484.292 317.211,486.335 317.179,488.362 L321.179,488.425 C321.21,486.432 321.267,484.423 321.351,482.399 L317.354,482.234 Z M317.191,496.389 C317.269,500.498 317.455,504.543 317.746,508.527 L321.735,508.236 C321.45,504.324 321.266,500.351 321.19,496.314 L317.191,496.389 Z M318.482,516.577 C318.929,520.638 319.484,524.634 320.142,528.569 L324.087,527.91 C323.442,524.048 322.897,520.125 322.458,516.139 L318.482,516.577 Z M321.625,536.523 C322.448,540.519 323.376,544.452 324.403,548.326 L328.269,547.302 C327.262,543.499 326.35,539.638 325.543,535.716 L321.625,536.523 Z M326.614,556.091 C327.797,559.979 329.079,563.807 330.451,567.58 L334.21,566.213 C332.862,562.505 331.603,558.744 330.44,554.926 L326.614,556.091 Z M333.342,575.125 C334.856,578.884 336.458,582.589 338.139,586.244 L341.773,584.572 C340.117,580.973 338.541,577.328 337.053,573.631 L333.342,575.125 Z M341.622,593.521 C343.42,597.138 345.293,600.708 347.234,604.235 L350.739,602.307 C348.823,598.826 346.976,595.305 345.204,591.741 L341.622,593.521 Z M351.211,611.246 C353.243,614.726 355.337,618.166 357.485,621.572 L360.868,619.438 C358.743,616.068 356.672,612.667 354.665,609.229 L351.211,611.246 Z M361.85,628.335 C364.064,631.692 366.327,635.018 368.631,638.317 L371.911,636.027 C369.625,632.754 367.382,629.458 365.189,626.132 L361.85,628.335 Z M373.287,644.875 C375.635,648.132 378.019,651.366 380.43,654.581 L383.63,652.181 C381.232,648.984 378.863,645.77 376.531,642.535 L373.287,644.875 Z M385.28,660.979 C387.718,664.165 390.179,667.335 392.654,670.494 L395.803,668.028 C393.335,664.878 390.884,661.719 388.456,658.548 L385.28,660.979 Z M397.616,676.796 C400.104,679.939 402.6,683.075 405.097,686.207 L408.225,683.714 C405.729,680.583 403.236,677.451 400.753,674.314 L397.616,676.796 Z M410.091,692.471 C412.588,695.603 415.08,698.736 417.56,701.873 L420.698,699.392 C418.213,696.249 415.717,693.112 413.219,689.978 L410.091,692.471 Z M422.507,708.16 C424.973,711.312 427.422,714.471 429.846,717.643 L433.024,715.215 C430.589,712.028 428.131,708.856 425.657,705.695 L422.507,708.16 Z M434.667,724.016 C437.062,727.218 439.427,730.435 441.753,733.672 L445.001,731.338 C442.658,728.078 440.278,724.84 437.869,721.62 L434.667,724.016 Z M446.36,740.187 C448.639,743.464 450.875,746.765 453.058,750.094 L456.403,747.901 C454.198,744.539 451.942,741.208 449.644,737.903 L446.36,740.187 Z M457.359,756.801 C459.475,760.178 461.533,763.586 463.525,767.03 L466.987,765.027 C464.97,761.54 462.888,758.092 460.749,754.678 L457.359,756.801 Z M467.42,773.968 C469.319,777.458 471.148,780.987 472.897,784.561 L476.49,782.801 C474.713,779.174 472.858,775.594 470.933,772.056 L467.42,773.968 Z M476.285,791.757 C477.916,795.366 479.465,799.022 480.922,802.73 L484.645,801.266 C483.162,797.495 481.588,793.777 479.931,790.11 L476.285,791.757 Z M483.694,810.156 C485.009,813.875 486.231,817.648 487.352,821.477 L491.191,820.353 C490.048,816.451 488.804,812.609 487.466,808.823 L483.694,810.156 Z M489.444,829.148 C490.407,832.963 491.27,836.836 492.026,840.771 L495.954,840.016 C495.183,836.005 494.304,832.057 493.322,828.169 L489.444,829.148 Z M493.367,848.551 C493.667,850.514 493.94,852.493 494.186,854.488 L498.156,853.999 C497.906,851.965 497.627,849.948 497.321,847.947 L493.367,848.551 Z M494.186,854.488 C494.435,856.508 494.641,858.524 494.805,860.535 L498.791,860.211 C498.623,858.145 498.412,856.074 498.156,853.999 L494.186,854.488 Z M495.238,868.583 C495.346,872.635 495.288,876.671 495.075,880.692 L499.07,880.903 C499.288,876.779 499.347,872.637 499.237,868.477 L495.238,868.583 Z M494.443,888.749 C494.026,892.765 493.459,896.768 492.754,900.759 L496.693,901.455 C497.414,897.374 497.994,893.276 498.421,889.162 L494.443,888.749 Z M491.17,908.689 C490.295,912.624 489.291,916.547 488.167,920.461 L492.012,921.565 C493.157,917.577 494.181,913.575 495.075,909.558 L491.17,908.689 Z M485.785,928.216 C484.531,932.049 483.169,935.873 481.708,939.689 L485.444,941.118 C486.927,937.245 488.311,933.359 489.586,929.46 L485.785,928.216 Z M478.69,947.236 C477.136,950.963 475.495,954.682 473.774,958.396 L477.404,960.078 C479.145,956.32 480.807,952.553 482.382,948.775 L478.69,947.236 Z M470.271,965.731 C468.487,969.363 466.632,972.99 464.716,976.611 L468.252,978.482 C470.185,974.828 472.058,971.166 473.861,967.495 L470.271,965.731 Z M460.835,983.794 C458.877,987.346 456.865,990.894 454.808,994.439 L458.268,996.447 C460.338,992.879 462.365,989.305 464.338,985.725 L460.835,983.794 Z M450.676,1001.458 C448.592,1004.95 446.47,1008.44 444.317,1011.92 L447.721,1014.03 C449.883,1010.52 452.016,1007.019 454.111,1003.508 L450.676,1001.458 Z M439.994,1018.86 C437.825,1022.31 435.631,1025.76 433.421,1029.21 L436.788,1031.37 C439.004,1027.91 441.204,1024.45 443.38,1020.99 L439.994,1018.86 Z M428.996,1036.08 C426.777,1039.51 424.547,1042.94 422.313,1046.37 L425.665,1048.56 C427.9,1045.12 430.133,1041.69 432.355,1038.25 L428.996,1036.08 Z M417.845,1053.23 C415.61,1056.66 413.375,1060.09 411.15,1063.52 L414.507,1065.7 C416.729,1062.27 418.961,1058.84 421.196,1055.41 L417.845,1053.23 Z M406.704,1070.41 C404.484,1073.86 402.277,1077.31 400.092,1080.77 L403.474,1082.91 C405.652,1079.46 407.852,1076.02 410.068,1072.57 L406.704,1070.41 Z M395.739,1087.72 C393.568,1091.21 391.424,1094.71 389.316,1098.21 L392.743,1100.27 C394.84,1096.79 396.974,1093.31 399.136,1089.83 L395.739,1087.72 Z M385.12,1105.27 C383.034,1108.83 380.99,1112.39 378.997,1115.96 L382.489,1117.91 C384.467,1114.37 386.497,1110.83 388.57,1107.29 L385.12,1105.27 Z M375.05,1123.16 C373.095,1126.8 371.198,1130.45 369.368,1134.11 L372.945,1135.9 C374.756,1132.28 376.635,1128.67 378.574,1125.06 L375.05,1123.16 Z M365.766,1141.5 C363.995,1145.24 362.299,1149 360.688,1152.76 L364.365,1154.33 C365.955,1150.62 367.63,1146.91 369.382,1143.21 L365.766,1141.5 Z M357.549,1160.39 C356.027,1164.24 354.6,1168.11 353.279,1172 L357.065,1173.28 C358.365,1169.47 359.769,1165.66 361.27,1161.86 L357.549,1160.39 Z M350.76,1179.84 C349.564,1183.82 348.485,1187.8 347.533,1191.81 L351.425,1192.73 C352.357,1188.81 353.416,1184.9 354.591,1181 L350.76,1179.84 Z M345.793,1199.89 C345.009,1203.96 344.364,1208.05 343.868,1212.15 L347.84,1212.63 C348.323,1208.63 348.954,1204.63 349.721,1200.65 L345.793,1199.89 Z M343.08,1220.39 C342.934,1222.46 342.828,1224.53 342.763,1226.61 L346.761,1226.73 C346.825,1224.71 346.928,1222.69 347.07,1220.68 L343.08,1220.39 Z" id="Shape" fill="#1F3D5E" fill-rule="nonzero" style="mix-blend-mode: lighten;"></path>
            <g id="Button-fourth" transform="translate(156.000000, 934.000000)">
                <ellipse id="Oval" fill="#C4C4C4" fill-rule="nonzero" cx="319.1011" cy="32.5" rx="13.9974" ry="14.25"></ellipse>
                <ellipse id="Oval" fill="#FFFFFF" fill-rule="nonzero" cx="319.1011" cy="32.5" rx="13.9974" ry="14.25"></ellipse>
                <ellipse id="Oval" fill-opacity="0.37" fill="#9DBCD9" fill-rule="nonzero" cx="319.1011" cy="32.5" rx="22.1011" ry="22.5"></ellipse>
                <ellipse id="Oval" fill="#2168B6" fill-rule="nonzero" cx="319.1021" cy="32.5" rx="11.0505" ry="11.25"></ellipse>
                <text id="Keine-Unternehmen-un" font-family="Lato-Bold, Lato" font-size="16" font-weight="bold" letter-spacing="0.727272727" fill="#FFFFFF">
                    <tspan x="18.3265455" y="16">Keine Unternehmen unterst端tzen, </tspan>
                    <tspan x="10.1847273" y="35">die von Tiefseebergbau profitieren, </tspan>
                    <tspan x="118.007273" y="54">oder selbst betreiben</tspan>
                </text>
            </g>
            <g id="Button-third" transform="translate(475.000000, 779.000000)">
                <ellipse id="Oval" fill="#C4C4C4" fill-rule="nonzero" cx="22.68" cy="79.5" rx="13.9974" ry="14.25"></ellipse>
                <ellipse id="Oval" fill="#FFFFFF" fill-rule="nonzero" cx="22.68" cy="79.5" rx="13.9974" ry="14.25"></ellipse>
                <ellipse id="Oval" fill-opacity="0.37" fill="#9DBCD9" fill-rule="nonzero" cx="22.69" cy="79.5" rx="22.1011" ry="22.5"></ellipse>
                <ellipse id="Oval" fill="#2168B6" fill-rule="nonzero" cx="22.69" cy="79.5" rx="11.0505" ry="11.25"></ellipse>
                <text id="Keine-Unternehmen-un" font-family="Lato-Bold, Lato" font-size="16" font-weight="bold" letter-spacing="0.727272727" fill="#FFFFFF">
                    <tspan x="60" y="16">Keine Unternehmen unterst端tzen, </tspan>
                    <tspan x="60" y="35">die von Tiefseebergbau profitieren, </tspan>
                    <tspan x="60" y="54">oder selbst betreiben</tspan>
                </text>
            </g>
            <g id="Button-second" transform="translate(60.000000, 631.000000)">
                <ellipse id="Oval" fill="#C4C4C4" fill-rule="nonzero" cx="326.57" cy="22.5" rx="13.9974" ry="14.25"></ellipse>
                <ellipse id="Oval" fill="#FFFFFF" fill-rule="nonzero" cx="326.57" cy="22.5" rx="13.9974" ry="14.25"></ellipse>
                <ellipse id="Oval" fill-opacity="0.37" fill="#9DBCD9" fill-rule="nonzero" cx="326.57" cy="22.5" rx="22.1011" ry="22.5"></ellipse>
                <ellipse id="Oval" fill="#2168B6" fill-rule="nonzero" cx="326.57" cy="22.5" rx="11.0505" ry="11.25"></ellipse>
                <text id="Keine-Unternehmen-un" font-family="Lato-Bold, Lato" font-size="16" font-weight="bold" letter-spacing="0.727272727" fill="#FFFFFF">
                    <tspan x="18.3265455" y="50">Keine Unternehmen unterst端tzen, </tspan>
                    <tspan x="10.1847273" y="69">die von Tiefseebergbau profitieren, </tspan>
                    <tspan x="118.007273" y="88">oder selbst betreiben</tspan>
                </text>
            </g>
            <g id="Button-first" transform="translate(300.000000, 498.000000)">
                <ellipse id="Oval" fill="#C4C4C4" fill-rule="nonzero" cx="22.435" cy="22.5" rx="13.9974" ry="14.25"></ellipse>
                <ellipse id="Oval" fill="#FFFFFF" fill-rule="nonzero" cx="22.435" cy="22.5" rx="13.9974" ry="14.25"></ellipse>
                <ellipse id="Oval" fill-opacity="0.37" fill="#9DBCD9" fill-rule="nonzero" cx="22.435" cy="22.5" rx="22.1011" ry="22.5"></ellipse>
                <ellipse id="Oval" fill="#2168B6" fill-rule="nonzero" cx="22.435" cy="22.5" rx="11.0505" ry="11.25"></ellipse>
                <text id="Keine-Unternehmen-un" font-family="Lato-Bold, Lato" font-size="16" font-weight="bold" letter-spacing="0.727272727" fill="#FFFFFF">
                    <tspan x="72" y="16">Keine Unternehmen unterst端tzen, </tspan>
                    <tspan x="72" y="35">die von Tiefseebergbau profitieren, </tspan>
                    <tspan x="72" y="54">oder selbst betreiben</tspan>
                </text>
            </g>
        </g>
    </g>
</svg>