<?xml version="1.0" encoding="UTF-8"?>
<svg width="2623px" height="1339px" viewBox="0 0 2623 1339" version="1.1" xmlns="http://www.w3.org/2000/svg" xmlns:xlink="http://www.w3.org/1999/xlink">
    <g id="Page-1" stroke="none" stroke-width="1" fill="none" fill-rule="evenodd">
        <g id="svg-wave" fill="#1056A4" fill-rule="nonzero">
            <path d="M2264.98,1339 C2444.81,1339 2468.51,1252.54 2623.00001,1250.89 L2623.00001,1.48307e-05 L7.71186e-06,1.48307e-05 L7.71186e-06,1250.79 C98.9041,1250.79 149.582,1287.66 266.469,1287.66 C383.355,1287.66 483.077,1231.46 601.598,1231.46 C729.605,1231.46 776.519,1339 961.249,1339 C1145.98,1339 1179.49,1231.46 1320.08,1231.46 C1460.67,1231.46 1559.58,1339 1676.46,1339 C1793.35,1339 1854.65,1269.62 1971.54,1269.62 C2088.43,1269.62 2085.16,1339 2264.98,1339 Z" id="wave-path"></path>
        </g>
    </g>
</svg>