<?xml version="1.0" encoding="UTF-8"?>
<svg width="2623px" height="3069px" viewBox="0 0 2623 3069" version="1.1" xmlns="http://www.w3.org/2000/svg" xmlns:xlink="http://www.w3.org/1999/xlink">
    <!-- Generator: Sketch 59.1 (86144) - https://sketch.com -->
    <title>Path</title>
    <desc>Created with Sketch.</desc>
    <defs>
        <linearGradient x1="50%" y1="0%" x2="50%" y2="100%" id="linearGradient-1">
            <stop stop-color="#479DD3" offset="0%"></stop>
            <stop stop-color="#1056A4" offset="100%"></stop>
        </linearGradient>
    </defs>
    <g id="Page-1" stroke="none" stroke-width="1" fill="none" fill-rule="evenodd">
        <g id="Welle" fill="url(#linearGradient-1)" fill-rule="nonzero">
            <path d="M2264.98,3067 C2444.81,3067 2468.51,3070.77935 2623,3067 L2623,0 L0.00010934714,0 L0.00010934714,3067 C98.9040926,3067 253.584435,3067 370.471436,3067 C487.357436,3067 488.285383,3067 606.806383,3067 C734.813384,3067 865.233642,3067 1049.96364,3067 C1234.69464,3067 1170.91,3067 1311.5,3067 C1452.09,3067 1457.12761,3067 1574.00761,3067 C1690.89761,3067 1868.46462,3067 1985.35462,3067 C2102.24462,3067 2085.16,3067 2264.98,3067 Z" id="Path"></path>
        </g>
    </g>
</svg>