<?xml version="1.0" encoding="UTF-8"?>
<svg width="2623px" height="3067px" viewBox="0 0 2623 3067" version="1.1" xmlns="http://www.w3.org/2000/svg" xmlns:xlink="http://www.w3.org/1999/xlink">
    <!-- Generator: Sketch 59.1 (86144) - https://sketch.com -->
    <title>Path</title>
    <desc>Created with Sketch.</desc>
    <defs>
        <linearGradient x1="50%" y1="0%" x2="50%" y2="100%" id="linearGradient-1">
            <stop stop-color="#479DD3" offset="0%"></stop>
            <stop stop-color="#1056A4" offset="100%"></stop>
        </linearGradient>
    </defs>
    <g id="Page-1" stroke="none" stroke-width="1" fill="none" fill-rule="evenodd">
        <g id="Welle" fill="url(#linearGradient-1)" fill-rule="nonzero">
            <path d="M2264.98,3067 C2444.81,3067 2468.51,2868.96204 2623,2865.18269 L2623,0 L0,0 L0,2864.95364 C98.9040926,2864.95364 149.581993,2949.40494 266.468993,2949.40494 C383.354993,2949.40494 483.076994,2820.67798 601.597994,2820.67798 C729.604994,2820.67798 776.518995,3067 961.248995,3067 C1145.98,3067 1179.49,2820.67798 1320.08,2820.67798 C1460.67,2820.67798 1559.58,3067 1676.46,3067 C1793.35,3067 1854.65,2908.08405 1971.54,2908.08405 C2088.43,2908.08405 2085.16,3067 2264.98,3067 Z" id="Path"></path>
        </g>
    </g>
</svg>