<svg xmlns="http://www.w3.org/2000/svg" viewBox="0 0 232.57 138.55"><defs><style>.cls-1{isolation:isolate;}.cls-2{fill:#0b6640;}.cls-2,.cls-3{mix-blend-mode:multiply;}.cls-3{fill:#27182a;opacity:0.14;}</style></defs><g class="cls-1"><g id="Ebene_2" data-name="Ebene 2"><g id="Inseln"><path class="cls-2" d="M151.9,56.39H0a50.82,50.82,0,0,1,4.73-5.91c2.2-2.2,11.43-9.29,24.4-9.47,6.8-.09,13.42-12.94,23.93-12.94s14.37,10.26,20.5,10.26C76.24,38.33,87.56,0,99,0s22,35.89,25.15,35.89S128.18,20,137,20c7.25,0,11.15,19.53,14.87,19.53s9.84-32.87,26-33.23c8.58-.19,16.86,36.06,29.76,36.06S230.35,52.12,231.18,53s1.39,3.43,1.39,3.43Z"/><path class="cls-3" d="M0,56.07S6.25,97.32,23.76,96.46s27.34,42.09,41.56,42.09,9.85-35.23,26.26-36.76,39.38,23.6,59.07,23.07S178,81.67,192.22,81.67s40.35-25.6,40.35-25.6Z"/></g></g></g></svg>