<svg xmlns="http://www.w3.org/2000/svg" xmlns:xlink="http://www.w3.org/1999/xlink" width="2225.2" height="622.2" viewBox="0 0 2225.2 622.2"><defs><linearGradient id="a" x1="350.83" y1="-73.58" x2="318.17" y2="-204.21" gradientTransform="translate(0 244)" gradientUnits="userSpaceOnUse"><stop offset="0" stop-color="#452e42" stop-opacity="0"/><stop offset="1" stop-color="#27182a" stop-opacity="0.4"/></linearGradient><linearGradient id="b" x1="470.96" y1="-94.96" x2="450.17" y2="-178.11" xlink:href="#a"/><linearGradient id="c" x1="85.02" y1="-169.18" x2="63.6" y2="-254.86" xlink:href="#a"/><linearGradient id="d" x1="184.88" y1="-157.36" x2="172.64" y2="-206.33" xlink:href="#a"/><linearGradient id="e" x1="410.12" y1="-169.36" x2="398.24" y2="-216.88" xlink:href="#a"/><linearGradient id="f" x1="68.79" y1="-6.73" x2="47.37" y2="-92.42" xlink:href="#a"/><linearGradient id="g" x1="2063.24" y1="62.84" x2="2046.83" y2="-2.79" xlink:href="#a"/><linearGradient id="h" x1="2086.3" y1="242.49" x2="2064.88" y2="156.8" xlink:href="#a"/><linearGradient id="i" x1="2194.82" y1="300.04" x2="2173.4" y2="214.35" xlink:href="#a"/></defs><path d="M336.2,166.2c-.3.7-2.1,5.4-4.4,5.4-2.7,0-4.5-6.2-4.6-6.7-2.8-9.7,3.6-16.7-.2-20.9a6,6,0,0,0-4.4-2.1c-2.4.1-3,2.2-6,2.5-.6.1-2.7.3-3.8-1-1.6-1.7.6-4.2-.2-7.3-.8-2.7-3-2.8-8.1-6.5-4.2-3.1-8-5.9-8.8-10.2-.6-3.4.8-7.4,2.5-7.7s3.5,2.7,4.4,4.6c1.7,3.8.5,6.2,2.1,7.3,1.8,1.2,3.9-1.3,6.3-.2s1.8,4.6,4.6,6.1c1.9,1.1,4.9.9,5.6-.4.9-1.6-2.6-3.8-6.9-10.6-4.2-6.5-4.1-9.5-7.9-11.3-2.5-1.2-4.9-1-5.2-2.3s2.6-2,4-4.8c2.2-4.3-2.1-7.9,0-12.8,1.1-2.5,3.5-4.7,5-4.2,2.1.6,2.1,6.7,2.1,8.3,0,5.5-1.7,7.4-.6,11.7.3,1.3.9,3.3,2.5,4s3.2-.4,4.2.4c1.3,1-.2,3.2.4,6.9.1.8.9,4.9,4.2,6.7.4.2,2.8,1.5,4.2.6,1.9-1.3,1.3-6-.2-9.2a36.62,36.62,0,0,0-5.2-7.2c-1.6-1.8-2.6-2.8-2.3-3.8.4-1.4,2.7-.9,4.4-2.5,2.6-2.5,2.2-8.8-.5-12.8-1.9-2.9-4.3-3.7-4-5.1s3-.8,5.6-3c1.9-1.7,1.2-2.8,4.2-7.6a9.31,9.31,0,0,1,3.4-3.7c1.3-.8,3.7-1.7,4.6-.9,1.1,1.1-.4,4.2-1,5.6-2,4.3-4,4.5-5.7,8.4-.7,1.7-1.7,4-1.1,6.6s2.4,2.8,2.9,5.2c.6,2.8-1.5,3.5-2.2,7.8-.2,1-.9,5.8,1.7,8.7,1.6,1.7,2.8,1,3.7,2.3,2.3,3.3-3.6,8.7-1.4,12.9,1,2,3.7,3.2,5.3,2.6,2.6-.9,3.1-6,3.1-8.6,0-3.8-1.4-5.3-.4-6.4,1.4-1.6,4.6,1.2,7.7-.4,1.1-.6,1.8-1.5,4.7-8.6,2.6-6.2,2.4-6.2,3-6.9,3.9-4.8,13.5-5.8,16-2.4,1.3,1.8,1,5-.6,6.3-2.1,1.8-5-1-8,.8-2,1.1-1.2,2.5-4.3,6.7-2.4,3.2-3.5,3.3-3.8,5.2-.4,2.8,1.9,3.9,1.4,6.1s-3,2.1-6.7,4.5c-.4.2-9.1,5.9-8.8,12.1.1,2.4,1.5,2.9,1,4.8-.7,3.1-4.4,2.7-6.6,5.4C333.2,149.6,339.9,156.7,336.2,166.2Z" fill="url(#a)"/><path d="M461.5,146.4c-.2.5-1.3,3.4-2.8,3.4-1.7,0-2.9-4-2.9-4.3-1.8-6.2,2.3-10.6-.1-13.3a3.72,3.72,0,0,0-2.8-1.3c-1.5.1-2,1.4-3.8,1.6a2.85,2.85,0,0,1-2.4-.6c-1-1.1.4-2.7-.1-4.6-.5-1.7-1.9-1.8-5.1-4.2-2.7-2-5.1-3.8-5.6-6.5-.4-2.2.5-4.7,1.6-4.9s2.2,1.7,2.8,2.9c1.1,2.4.3,3.9,1.3,4.6s2.5-.8,4-.1,1.1,2.9,2.9,3.9c1.2.7,3.1.5,3.5-.2.6-1-1.6-2.4-4.4-6.7-2.6-4.1-2.6-6-5-7.2-1.6-.8-3.1-.7-3.3-1.5s1.6-1.3,2.6-3c1.4-2.7-1.4-5,0-8.2.7-1.6,2.2-3,3.2-2.7,1.4.4,1.3,4.3,1.3,5.3,0,3.5-1.1,4.7-.4,7.4a3.65,3.65,0,0,0,1.6,2.6c1.1.5,2-.3,2.7.2s-.1,2.1.2,4.4a6.11,6.11,0,0,0,2.7,4.3c.3.2,1.8,1,2.7.4,1.2-.8.8-3.8-.1-5.9a21.47,21.47,0,0,0-3.3-4.6c-1-1.2-1.6-1.8-1.5-2.4.2-.9,1.7-.6,2.8-1.6,1.7-1.6,1.4-5.6-.3-8.1-1.2-1.8-2.7-2.3-2.5-3.2s1.9-.5,3.5-1.9c1.2-1.1.7-1.8,2.7-4.8a6.89,6.89,0,0,1,2.1-2.4c.8-.5,2.3-1.1,2.9-.6s-.2,2.7-.6,3.6c-1.3,2.8-2.5,2.9-3.6,5.4a6.12,6.12,0,0,0-.7,4.2c.4,1.7,1.5,1.8,1.8,3.3.4,1.8-1,2.2-1.4,5-.1.6-.6,3.7,1.1,5.5,1,1.1,1.8.6,2.4,1.5,1.5,2.1-2.3,5.6-.9,8.2a3.37,3.37,0,0,0,3.4,1.7c1.6-.6,2-3.8,2-5.4,0-2.4-.9-3.4-.2-4.1.9-1,2.9.7,4.9-.2.7-.4,1.1-.9,3-5.4,1.6-4,1.5-4,1.9-4.4,2.5-3.1,8.6-3.7,10.2-1.5a3.31,3.31,0,0,1-.4,4c-1.3,1.1-3.2-.6-5.1.5-1.3.7-.8,1.6-2.8,4.2-1.5,2-2.3,2.1-2.4,3.3-.3,1.8,1.2,2.5.9,3.9s-1.9,1.4-4.3,2.8c-.2.2-5.8,3.7-5.6,7.7.1,1.5.9,1.9.6,3.1-.5,2-2.8,1.7-4.2,3.5C459.6,135.8,463.9,140.3,461.5,146.4Z" fill="url(#b)"/><path d="M75.4,72.1c-.2.5-1.4,3.6-2.9,3.5-1.8,0-2.9-4.1-3-4.4-1.8-6.4,2.3-10.9-.1-13.7a4.45,4.45,0,0,0-2.9-1.4c-1.5.1-2,1.5-3.9,1.6a3.11,3.11,0,0,1-2.6-.6c-1-1.1.4-2.8-.1-4.8-.5-1.8-2-1.8-5.3-4.3-2.8-2-5.3-3.9-5.8-6.7-.4-2.2.5-4.8,1.6-5s2.3,1.8,2.9,3c1.1,2.5.3,4.1,1.4,4.8s2.5-.9,4.2-.1,1.2,3,3,4c1.3.7,3.2.6,3.7-.2.6-1.1-1.7-2.5-4.5-6.9s-2.7-6.2-5.2-7.4c-1.7-.8-3.2-.7-3.4-1.5s1.7-1.3,2.7-3.1c1.5-2.8-1.4-5.2,0-8.4.7-1.6,2.3-3,3.3-2.8,1.4.4,1.4,4.4,1.4,5.4,0,3.6-1.1,4.8-.4,7.7a3.59,3.59,0,0,0,1.7,2.6c1.1.5,2.1-.3,2.8.2s-.2,2.1.3,4.5c.1.5.6,3.2,2.8,4.4.3.2,1.8,1,2.8.4,1.2-.8.8-3.9-.1-6A23.82,23.82,0,0,0,66.4,32c-1-1.2-1.7-1.8-1.5-2.5.3-.9,1.8-.6,2.9-1.6,1.7-1.6,1.4-5.8-.3-8.4-1.2-1.9-2.8-2.4-2.6-3.3s2-.5,3.7-2c1.3-1.1.8-1.8,2.8-5a6.36,6.36,0,0,1,2.2-2.4c.8-.5,2.4-1.2,3-.6S75.9,9,75.5,9.9c-1.3,2.8-2.6,2.9-3.7,5.5a6.4,6.4,0,0,0-.7,4.3c.4,1.8,1.6,1.8,1.9,3.4.4,1.8-1,2.3-1.5,5.1-.1.6-.6,3.8,1.1,5.7,1,1.1,1.8.6,2.4,1.5,1.5,2.2-2.3,5.7-.9,8.5a3.22,3.22,0,0,0,3.5,1.7c1.7-.6,2-3.9,2-5.6,0-2.5-.9-3.5-.2-4.2.9-1,3,.8,5-.2.8-.4,1.2-1,3.1-5.6,1.7-4.1,1.6-4.1,2-4.5C92,22.4,98.3,21.7,100,24a3.32,3.32,0,0,1-.4,4.1c-1.4,1.2-3.3-.6-5.3.5-1.3.7-.8,1.6-2.8,4.4-1.6,2.1-2.3,2.2-2.5,3.4-.3,1.8,1.2,2.6.9,4s-2,1.4-4.4,2.9c-.2.2-6,3.9-5.8,8,.1,1.5,1,1.9.7,3.2-.5,2-2.8,1.8-4.3,3.6C73.4,61.2,77.8,65.8,75.4,72.1Z" fill="url(#c)"/><path d="M179.4,85.1c-.1.3-.8,2-1.7,2s-1.7-2.3-1.7-2.5c-1-3.6,1.3-6.2-.1-7.8a2.14,2.14,0,0,0-1.7-.8c-.9,0-1.1.8-2.2.9a1.49,1.49,0,0,1-1.4-.4c-.6-.6.2-1.6-.1-2.7s-1.1-1.1-3-2.4c-1.6-1.2-3-2.2-3.3-3.8-.2-1.3.3-2.8.9-2.9s1.3,1,1.7,1.7c.6,1.4.2,2.3.8,2.7s1.4-.5,2.4-.1.7,1.7,1.7,2.3a1.93,1.93,0,0,0,2.1-.1c.3-.4-1-1.4-2.6-4s-1.6-3.6-2.9-4.2c-1-.5-1.8-.4-2-.9s1-.8,1.5-1.8c.8-1.6-.8-3,0-4.8.4-.9,1.3-1.7,1.9-1.6.8.2.8,2.5.8,3.1,0,2.1-.6,2.8-.2,4.4a2.14,2.14,0,0,0,.9,1.5c.6.3,1.2-.2,1.6.2s-.1,1.2.1,2.6a3.8,3.8,0,0,0,1.6,2.5c.2.1,1,.6,1.6.2s.5-2.2-.1-3.4a10.52,10.52,0,0,0-2-2.7c-.6-.7-1-1.1-.9-1.4.1-.5,1-.3,1.7-.9,1-.9.8-3.3-.2-4.8-.7-1.1-1.6-1.4-1.5-1.9s1.1-.3,2.1-1.1c.7-.6.4-1,1.6-2.8A4.07,4.07,0,0,1,178,48c.5-.3,1.4-.7,1.7-.3s-.1,1.6-.4,2.1c-.8,1.6-1.5,1.7-2.1,3.2a3.63,3.63,0,0,0-.4,2.5c.2,1,.9,1,1.1,2s-.6,1.3-.8,2.9a4.45,4.45,0,0,0,.6,3.2c.6.7,1,.4,1.4.9.9,1.2-1.3,3.3-.5,4.8a2,2,0,0,0,2,1c1-.3,1.2-2.2,1.2-3.2,0-1.4-.5-2-.1-2.4.5-.6,1.7.4,2.9-.1.4-.2.7-.5,1.8-3.2a20.29,20.29,0,0,1,1.1-2.6c1.5-1.8,5-2.2,6-.9a2,2,0,0,1-.2,2.4c-.8.7-1.9-.4-3,.3-.8.4-.4.9-1.6,2.5-.9,1.2-1.3,1.3-1.4,2-.2,1,.7,1.5.5,2.3s-1.1.8-2.5,1.7c-.1.1-3.4,2.2-3.3,4.6,0,.9.5,1.1.4,1.8-.3,1.2-1.6,1-2.5,2C178.3,78.8,180.8,81.5,179.4,85.1Z" fill="url(#d)"/><path d="M405,73.1c-.1.3-.8,2-1.6,2s-1.6-2.3-1.7-2.4c-1-3.5,1.3-6.1-.1-7.6a2.09,2.09,0,0,0-1.6-.8c-.8,0-1.1.8-2.2.9a1.74,1.74,0,0,1-1.4-.3c-.6-.6.2-1.5-.1-2.7s-1.1-1-2.9-2.4c-1.5-1.1-2.9-2.2-3.2-3.7-.2-1.2.3-2.7.9-2.8s1.3,1,1.6,1.7c.6,1.4.2,2.2.8,2.7s1.4-.5,2.3-.1.6,1.7,1.7,2.2c.7.4,1.8.3,2-.1s-.9-1.4-2.5-3.8-1.5-3.5-2.9-4.1c-.9-.5-1.8-.4-1.9-.8s.9-.7,1.5-1.8c.8-1.6-.8-2.9,0-4.7.4-.9,1.3-1.7,1.8-1.5.8.2.8,2.4.8,3,0,2-.6,2.7-.2,4.3a2.37,2.37,0,0,0,.9,1.5c.6.3,1.1-.2,1.5.1s-.1,1.2.1,2.5a3.27,3.27,0,0,0,1.5,2.4c.2.1,1,.6,1.5.2.7-.5.5-2.2-.1-3.3a16.47,16.47,0,0,0-1.9-2.7c-.6-.7-.9-1-.8-1.4s1-.3,1.6-.9c1-.9.8-3.2-.2-4.7-.7-1-1.6-1.3-1.4-1.8s1.1-.3,2-1.1c.7-.6.4-1,1.5-2.8a3.74,3.74,0,0,1,1.2-1.3c.5-.3,1.3-.6,1.7-.3s-.1,1.5-.4,2c-.7,1.6-1.4,1.6-2.1,3.1a4,4,0,0,0-.4,2.4c.2,1,.9,1,1,1.9s-.6,1.3-.8,2.8a4.54,4.54,0,0,0,.6,3.2c.6.6,1,.3,1.4.8.9,1.2-1.3,3.2-.5,4.7a1.89,1.89,0,0,0,1.9,1c.9-.3,1.1-2.2,1.1-3.1,0-1.4-.5-1.9-.1-2.3.5-.6,1.7.4,2.8-.1.4-.2.6-.5,1.7-3.1a11.18,11.18,0,0,1,1.1-2.5c1.4-1.7,4.9-2.1,5.8-.8a1.82,1.82,0,0,1-.2,2.3c-.8.6-1.8-.4-2.9.3-.7.4-.4.9-1.6,2.4-.9,1.2-1.3,1.2-1.4,1.9-.2,1,.7,1.4.5,2.2s-1.1.8-2.4,1.6c-.1.1-3.3,2.1-3.2,4.4,0,.9.5,1.1.4,1.8-.3,1.1-1.6,1-2.4,2C403.9,67,406.3,69.6,405,73.1Z" fill="url(#e)"/><path d="M59,234.6c-.2.5-1.4,3.6-2.9,3.5-1.8,0-2.9-4.1-3-4.4-1.8-6.4,2.3-10.9-.1-13.7a4.45,4.45,0,0,0-2.9-1.4c-1.5.1-2,1.4-3.9,1.6a3.17,3.17,0,0,1-2.5-.6c-1-1.1.4-2.8-.1-4.8-.5-1.8-2-1.9-5.3-4.3-2.8-2-5.3-3.9-5.8-6.7-.4-2.2.5-4.9,1.6-5s2.3,1.8,2.9,3c1.1,2.5.3,4.1,1.4,4.8s2.5-.9,4.2-.1,1.2,3,3,4c1.3.7,3.2.6,3.7-.2.6-1.1-1.7-2.5-4.5-6.9s-2.7-6.2-5.2-7.4c-1.7-.8-3.2-.7-3.4-1.5s1.7-1.3,2.7-3.1c1.5-2.8-1.4-5.2,0-8.4.7-1.6,2.3-3,3.3-2.8,1.4.4,1.4,4.4,1.4,5.4,0,3.6-1.1,4.8-.4,7.7a3.47,3.47,0,0,0,1.6,2.6c1.1.6,2.1-.3,2.8.2s-.2,2.1.2,4.5c.1.5.6,3.2,2.8,4.4.3.1,1.8,1,2.8.4,1.3-.8.8-3.9-.1-6a26.17,26.17,0,0,0-3.4-4.8c-1-1.2-1.7-1.8-1.5-2.5.3-.9,1.8-.6,2.9-1.6,1.7-1.6,1.4-5.8-.3-8.4-1.2-1.9-2.8-2.4-2.6-3.3s2-.5,3.7-1.9c1.3-1.1.8-1.8,2.8-5a6.36,6.36,0,0,1,2.2-2.4c.8-.5,2.4-1.1,3-.6s-.2,2.8-.7,3.7c-1.3,2.8-2.6,2.9-3.7,5.5a6.4,6.4,0,0,0-.7,4.3c.4,1.8,1.5,1.8,1.9,3.4.4,1.8-1,2.3-1.5,5.1-.1.6-.6,3.8,1.1,5.7,1,1.1,1.8.6,2.4,1.6,1.5,2.2-2.3,5.7-.9,8.4a3.22,3.22,0,0,0,3.5,1.7c1.7-.6,2-3.9,2-5.6,0-2.5-.9-3.5-.2-4.2.9-1,3,.8,5-.2.8-.4,1.2-1,3.1-5.6,1.7-4.1,1.6-4.1,2-4.6,2.6-3.1,8.8-3.8,10.5-1.5a3.32,3.32,0,0,1-.4,4.1c-1.4,1.2-3.3-.6-5.3.5-1.3.7-.8,1.6-2.8,4.4-1.6,2.1-2.3,2.2-2.5,3.4-.3,1.8,1.2,2.6.9,4s-2,1.4-4.4,2.9c-.3.2-6,3.9-5.8,8,.1,1.5.9,1.9.7,3.2-.5,2-2.9,1.8-4.3,3.6C57,223.6,61.4,228.3,59,234.6Z" fill="url(#f)"/><path d="M2055.7,304.8c-.1.4-1,2.7-2.2,2.7s-2.2-3.1-2.3-3.4c-1.4-4.9,1.8-8.4-.1-10.5a3.86,3.86,0,0,0-2.2-1.1c-1.2.1-1.5,1.1-3,1.3a2.51,2.51,0,0,1-1.9-.5c-.8-.9.3-2.1-.1-3.7-.4-1.3-1.5-1.4-4-3.3-2.1-1.6-4-3-4.4-5.1-.3-1.7.4-3.7,1.3-3.9s1.8,1.3,2.2,2.3c.9,1.9.2,3.1,1.1,3.7s2-.6,3.2-.1.9,2.3,2.3,3.1c1,.5,2.4.4,2.8-.2.5-.8-1.3-1.9-3.5-5.3s-2.1-4.8-4-5.7c-1.3-.6-2.4-.5-2.6-1.2s1.3-1,2-2.4c1.1-2.2-1.1-4,0-6.5.5-1.3,1.8-2.3,2.5-2.1,1.1.3,1.1,3.4,1.1,4.1,0,2.8-.9,3.7-.3,5.9a3,3,0,0,0,1.3,2c.9.4,1.6-.2,2.1.2s-.1,1.6.2,3.5a5.13,5.13,0,0,0,2.1,3.4c.2.1,1.4.8,2.1.3,1-.6.6-3-.1-4.6a19,19,0,0,0-2.6-3.7c-.8-.9-1.3-1.4-1.2-1.9.2-.7,1.4-.5,2.2-1.3,1.3-1.2,1.1-4.4-.2-6.4-1-1.4-2.2-1.8-2-2.5s1.5-.4,2.8-1.5c1-.8.6-1.4,2.1-3.8a6.14,6.14,0,0,1,1.7-1.9c.6-.4,1.8-.9,2.3-.4s-.2,2.1-.5,2.8c-1,2.2-2,2.3-2.9,4.2a4.81,4.81,0,0,0-.6,3.3c.3,1.4,1.2,1.4,1.4,2.6.3,1.4-.8,1.8-1.1,3.9-.1.5-.5,2.9.9,4.4.8.9,1.4.5,1.9,1.2,1.2,1.7-1.8,4.4-.7,6.5a2.48,2.48,0,0,0,2.7,1.3c1.3-.4,1.6-3,1.6-4.3,0-1.9-.7-2.7-.2-3.2.7-.8,2.3.6,3.9-.2.6-.3.9-.7,2.4-4.3,1.3-3.1,1.2-3.1,1.5-3.5,2-2.4,6.8-2.9,8-1.2a2.72,2.72,0,0,1-.3,3.2c-1,.9-2.5-.5-4,.4-1,.6-.6,1.2-2.2,3.4-1.2,1.6-1.8,1.7-1.9,2.6-.2,1.4.9,2,.7,3s-1.5,1.1-3.4,2.2c-.2.1-4.6,3-4.4,6.1.1,1.2.7,1.5.5,2.4-.4,1.5-2.2,1.4-3.3,2.7C2054.1,296.4,2057.5,300,2055.7,304.8Z" fill="url(#g)"/><path d="M2076.6,483.8c-.2.5-1.4,3.5-2.9,3.5-1.8,0-2.9-4.1-3-4.4-1.8-6.4,2.4-10.9-.1-13.7a4.45,4.45,0,0,0-2.9-1.4c-1.5.1-2,1.5-3.9,1.6a3.17,3.17,0,0,1-2.5-.6c-1-1.1.4-2.8-.1-4.8-.5-1.8-2-1.9-5.3-4.3-2.8-2-5.3-3.9-5.8-6.7-.4-2.2.5-4.9,1.6-5s2.3,1.8,2.9,3c1.1,2.5.3,4,1.4,4.8s2.5-.9,4.2-.1,1.2,3,3,4c1.3.7,3.2.6,3.6-.2.6-1-1.7-2.5-4.5-6.9s-2.7-6.2-5.2-7.4c-1.7-.8-3.2-.7-3.4-1.5s1.7-1.3,2.6-3.1c1.4-2.8-1.4-5.2,0-8.4.7-1.6,2.3-3.1,3.3-2.8,1.4.4,1.4,4.4,1.4,5.4,0,3.6-1.1,4.8-.4,7.7a3.47,3.47,0,0,0,1.6,2.6c1.1.5,2.1-.3,2.8.3s-.2,2.1.2,4.5c.1.5.6,3.2,2.8,4.4.3.1,1.8,1,2.8.4,1.2-.8.9-3.9-.1-6a26.17,26.17,0,0,0-3.4-4.8c-1-1.2-1.7-1.9-1.5-2.5.3-.9,1.8-.6,2.9-1.6,1.7-1.6,1.4-5.7-.3-8.4-1.2-1.9-2.8-2.4-2.6-3.3s2-.5,3.7-2c1.3-1.1.8-1.8,2.8-5a6.36,6.36,0,0,1,2.2-2.4c.8-.5,2.4-1.1,3-.6s-.2,2.8-.6,3.6c-1.3,2.8-2.6,3-3.7,5.5a6.4,6.4,0,0,0-.7,4.3c.4,1.8,1.6,1.8,1.9,3.4.4,1.8-1,2.3-1.5,5.1-.1.6-.6,3.8,1.1,5.7,1,1.1,1.8.6,2.4,1.5,1.5,2.2-2.4,5.7-.9,8.5a3.36,3.36,0,0,0,3.5,1.7c1.7-.6,2-3.9,2-5.6,0-2.5-.9-3.5-.2-4.2.9-1,3,.8,5-.2.7-.4,1.1-1,3.1-5.6,1.7-4.1,1.6-4.1,1.9-4.5,2.6-3.1,8.8-3.8,10.5-1.5a3.32,3.32,0,0,1-.4,4.1c-1.4,1.2-3.3-.6-5.3.5-1.3.7-.8,1.6-2.9,4.4-1.6,2.1-2.3,2.2-2.5,3.4-.3,1.8,1.2,2.6.9,4s-2,1.4-4.4,2.9c-.2.1-6,3.9-5.8,8,.1,1.5,1,1.9.6,3.2-.5,2-2.9,1.8-4.3,3.6C2074.6,472.8,2079,477.5,2076.6,483.8Z" fill="url(#h)"/><path d="M2185.1,541.3c-.2.5-1.4,3.5-2.9,3.5-1.7,0-2.9-4.1-3-4.4-1.8-6.4,2.4-10.9-.1-13.7a4.45,4.45,0,0,0-2.9-1.4c-1.5.1-2,1.5-3.9,1.6a3.17,3.17,0,0,1-2.5-.6c-1-1.1.4-2.8-.1-4.8-.5-1.8-2-1.8-5.3-4.3-2.8-2-5.3-3.9-5.8-6.7-.4-2.2.5-4.9,1.6-5s2.3,1.8,2.9,3c1.1,2.5.3,4.1,1.4,4.8s2.5-.9,4.2-.1,1.2,3,3,4c1.3.7,3.2.6,3.6-.2.6-1.1-1.7-2.5-4.5-6.9s-2.7-6.2-5.2-7.4c-1.7-.8-3.2-.7-3.4-1.5s1.7-1.3,2.6-3.1c1.5-2.8-1.4-5.2,0-8.4.7-1.6,2.3-3,3.3-2.8,1.4.4,1.4,4.4,1.4,5.4,0,3.6-1.1,4.8-.4,7.7a3.47,3.47,0,0,0,1.6,2.6c1.1.5,2.1-.3,2.8.2s-.2,2.1.2,4.5c.1.5.6,3.2,2.8,4.4.3.1,1.8,1,2.8.4,1.3-.8.9-3.9-.1-6a26.17,26.17,0,0,0-3.4-4.8c-1-1.2-1.7-1.8-1.5-2.5.3-.9,1.8-.6,2.9-1.6,1.7-1.6,1.4-5.8-.3-8.4-1.2-1.9-2.8-2.4-2.6-3.3s2-.5,3.7-2c1.3-1.1.8-1.8,2.8-5a6.36,6.36,0,0,1,2.2-2.4c.8-.5,2.4-1.1,3-.6s-.2,2.8-.6,3.7c-1.3,2.8-2.6,3-3.7,5.5a6.4,6.4,0,0,0-.7,4.3c.4,1.8,1.6,1.8,1.9,3.4.4,1.8-1,2.3-1.5,5.1-.1.6-.6,3.8,1.1,5.7,1,1.1,1.8.6,2.4,1.5,1.5,2.2-2.4,5.7-.9,8.4a3.36,3.36,0,0,0,3.5,1.7c1.7-.6,2-3.9,2-5.6,0-2.5-.9-3.5-.2-4.2.9-1,3,.8,5-.2.8-.4,1.1-1,3.1-5.6,1.7-4.1,1.6-4.1,1.9-4.5,2.6-3.1,8.8-3.8,10.5-1.5a3.32,3.32,0,0,1-.4,4.1c-1.4,1.2-3.3-.6-5.3.5-1.3.7-.8,1.6-2.8,4.4-1.6,2.1-2.3,2.2-2.5,3.4-.3,1.8,1.2,2.6.9,4s-2,1.4-4.4,2.9c-.2.2-6,3.9-5.8,8,.1,1.5.9,1.9.6,3.2-.5,2-2.9,1.8-4.3,3.6C2183.1,530.4,2187.5,535.1,2185.1,541.3Z" fill="url(#i)"/></svg>