<svg xmlns="http://www.w3.org/2000/svg" xmlns:xlink="http://www.w3.org/1999/xlink" width="2225.2" height="622.2" viewBox="0 0 2225.2 622.2"><defs><linearGradient id="a" x1="249.03" y1="-83.69" x2="279.47" y2="-175.22" gradientTransform="translate(0 244)" gradientUnits="userSpaceOnUse"><stop offset="0" stop-color="#452e42" stop-opacity="0"/><stop offset="0.65" stop-color="#c1b9c0" stop-opacity="0.46"/><stop offset="1" stop-color="#fff" stop-opacity="0.7"/></linearGradient><linearGradient id="b" x1="211.75" y1="171.32" x2="243.12" y2="76.99" xlink:href="#a"/><linearGradient id="c" x1="7028.83" y1="228.43" x2="7060.2" y2="134.1" gradientTransform="matrix(-1, 0, 0, 1, 7186.75, 244)" xlink:href="#a"/><linearGradient id="d" x1="51.57" y1="144.81" x2="82.94" y2="50.48" xlink:href="#a"/><linearGradient id="e" x1="347.59" y1="-139.42" x2="378.03" y2="-230.95" xlink:href="#a"/><linearGradient id="f" x1="150.64" y1="114.17" x2="182.02" y2="19.84" xlink:href="#a"/><linearGradient id="g" x1="266.76" y1="29.27" x2="286.89" y2="-31.27" xlink:href="#a"/><linearGradient id="h" x1="7280.45" y1="38.62" x2="7327.23" y2="-102.03" gradientTransform="matrix(-1, 0, 0, 1, 7468.25, 244)" xlink:href="#a"/><linearGradient id="i" x1="142.29" y1="-71.8" x2="173.66" y2="-166.13" xlink:href="#a"/><linearGradient id="j" x1="110.62" y1="-14.56" x2="128.21" y2="-67.44" xlink:href="#a"/><linearGradient id="k" x1="2021.41" y1="318.81" x2="2052.78" y2="224.48" xlink:href="#a"/><linearGradient id="l" x1="2021.44" y1="173.16" x2="2052.81" y2="78.83" xlink:href="#a"/><linearGradient id="m" x1="2120.65" y1="142.57" x2="2152.02" y2="48.24" xlink:href="#a"/><linearGradient id="n" x1="2127.13" y1="402.42" x2="2158.5" y2="308.09" xlink:href="#a"/><linearGradient id="o" x1="2089.38" y1="324.88" x2="2109.51" y2="264.34" xlink:href="#a"/><linearGradient id="p" x1="1870.74" y1="329.83" x2="1890.88" y2="269.29" xlink:href="#a"/><linearGradient id="q" x1="5322.32" y1="72.49" x2="5358.14" y2="-35.23" gradientTransform="matrix(-1, 0, 0, 1, 7468.25, 244)" xlink:href="#a"/><linearGradient id="r" x1="5449" y1="244.56" x2="5495.77" y2="103.92" gradientTransform="matrix(-1, 0, 0, 1, 7468.25, 244)" xlink:href="#a"/><linearGradient id="s" x1="2111.18" y1="-12.14" x2="2135.21" y2="-84.39" xlink:href="#a"/><linearGradient id="t" x1="2138.44" y1="255.48" x2="2169.82" y2="161.15" xlink:href="#a"/><linearGradient id="u" x1="2086.81" y1="31.65" x2="2100.28" y2="-8.85" xlink:href="#a"/></defs><path d="M264.6,136.6c1.7,1.1,7.3-4.3,7.9-4.9,5-5,5-7.6,8.3-8.7,2.7-.8,3.6.6,7.1-.5,1-.3,4.5-1.5,5.1-4.2.3-1.4-.1-3.2-1.1-3.5s-2.5,1.1-3.7,2.3-1.1,1.6-1.9,2.1c-1.5,1-4.2,1.2-5.5-.2s-.6-3.6-.5-4.1c.5-2,1.7-2.2,1.9-3.9s-.5-3.5-1.4-3.7c-1.2-.2-3.1,2.5-3.9,5.1s.1,3.3-.7,7.4c-.6,3.3-1.4,4.2-1.9,4.6a4.55,4.55,0,0,1-3.9.9c-2.7-1-3.8-6.2-3-10.2s3.4-6.6,8.6-11.7c5.4-5.2,8.1-6.3,9.4-10.2s.3-7.2,0-7.2-.2,5.1-3.3,6.8c-.6.3-1.7.7-2.3.3-1-.8,0-3.5.3-4.5.8-2.5,1.8-3.2,1.5-4.7a2.17,2.17,0,0,0-1.2-1.7c-.9-.3-2.1,1-2.4,1.2-1.7,2-1.1,4.2-1.8,10-.4,3.7-.9,4.7-1.8,5.3-1.1.7-2.8.8-3.5-.1-.9-1,.2-2.9,2.3-8.9,1.4-4.3,2-6.8,1.4-9.6-.2-.8-.6-2.5-1.6-2.7s-2.3,1.7-2.6,2.2c-2.5,4,0,7-1.2,12.6-1.1,5.4-4,5-4.2,9.5-.2,4.3,2.3,7.4.6,9.2a2.65,2.65,0,0,1-2.2.8c-.7-.3-.6-1.2-1.7-2.3-.1-.1-1.3-1.3-2-1s-.8,2.3-.5,3.7c.7,3.5,3.3,3.9,4.6,7.8.1.2,1.2,3.5.2,4.2s-4.1-1.9-5.8-4.4a12.25,12.25,0,0,1-2.4-6.9c0-2.6,1.1-3.1,3.4-8.3,3.2-7.1,2-7.7,4.3-10.4,1.6-1.9,3.4-2.9,3.8-5.4.2-1.2.1-2.8-.6-3.2s-1.5.3-2.1.7c-1.2.7-1.5,1.4-1.8,1.2s0-1.3-.5-2.9c-.1-.4-.7-2.1-1.7-2.3a2.31,2.31,0,0,0-2.1,1.4c-.8,1.7,1.1,3.1,1.7,6,.6,3.3-.9,7.1-2.3,7.3s-3.8-3.6-4-7.3c-.1-2.9,1.1-4.2.4-7.5-.2-.7-.7-3.2-1.9-3.3-1-.2-2,1.3-2.3,1.7-2.1,3.2-2.1,8.8.4,13.3,2.3,4.1,5.2,4.6,5.3,7.9.1,2-.8,4.4-2,4.6s-3.1-2-3.5-4.2.8-3.2,0-4.3c-.9-1.3-2.8-.2-4.2-1.6-1.2-1.3-.3-2.9-1.7-4a2.21,2.21,0,0,0-1.9-.6c-.9.3-1.3,1.6-1.2,2.6.2,1.5,1.5,1.9,1.3,2.9s-1.8,1-2,2.2a2.23,2.23,0,0,0,1.1,2.2c1.5.9,3.3-1,4.4-.2a2.15,2.15,0,0,1,.4,2.8c-1.2,1.5-4.7-1-7.5.8-1.3.8-2.2,2.6-1.8,3.7.5,1.4,3.2,1.7,4.7,1.6,3.1-.2,3.9-2.1,6.7-1.7.4,0,2.2.3,2.6,1.3s-.6,2.3-1.4,3.3c-1.2,1.6-1.9,1.7-1.9,2.4s.7,1.1,3.5,2.8c3.1,1.9,4.1,2.4,4.1,3.1s-.8,1.3-1.5,1.4c-1.6.4-2.4-1.5-4.4-1.4-1.4,0-3,1.1-3,2.2-.1,1.4,2.4,2.9,4.3,3.5,3.2,1,4.3-.5,7.4.3.4.1,4,1.2,5.4,4.2C264.9,134,263.6,136,264.6,136.6Z" opacity="0.3" fill="url(#a)" style="isolation:isolate"/><path d="M227.9,391c1.8,1.2,7.5-4.5,8.2-5.1,5.2-5.1,5.1-7.9,8.5-8.9,2.8-.9,3.7.7,7.3-.5,1-.4,4.6-1.6,5.3-4.4.3-1.5-.1-3.3-1.1-3.6s-2.6,1.2-3.8,2.4-1.2,1.6-2,2.2c-1.6,1-4.3,1.3-5.6-.2a4.44,4.44,0,0,1-.5-4.2c.5-2,1.8-2.2,2-4s-.5-3.6-1.5-3.8c-1.3-.2-3.2,2.6-4,5.3s.1,3.4-.7,7.6c-.6,3.4-1.4,4.3-2,4.7a4.45,4.45,0,0,1-4,.9c-2.8-1-3.9-6.4-3.1-10.5s3.5-6.8,8.9-12c5.6-5.4,8.4-6.5,9.6-10.5s.4-7.4,0-7.5-.3,5.2-3.4,7c-.7.4-1.8.8-2.4.3-1-.8-.1-3.6.3-4.6.8-2.5,1.9-3.3,1.5-4.9,0-.2-.3-1.5-1.2-1.7s-2.2,1-2.4,1.3c-1.8,2-1.1,4.3-1.9,10.3-.4,3.8-.9,4.9-1.9,5.4-1.1.7-2.9.8-3.6-.1-1-1.1.2-3,2.4-9.2,1.5-4.4,2.1-7,1.4-9.9-.2-.8-.6-2.6-1.6-2.8s-2.3,1.7-2.6,2.2c-2.6,4.2,0,7.2-1.2,12.9s-4.2,5.1-4.4,9.8c-.2,4.4,2.4,7.6.6,9.4a2.26,2.26,0,0,1-2.3.8c-.8-.3-.6-1.3-1.7-2.4-.1-.1-1.4-1.3-2.1-1s-.8,2.3-.5,3.9c.8,3.6,3.4,4,4.8,8,.1.2,1.2,3.6.2,4.3s-4.2-1.9-6-4.6a12.44,12.44,0,0,1-2.4-7.2c0-2.7,1.1-3.2,3.5-8.6,3.3-7.3,2-8,4.4-10.7,1.7-1.9,3.5-3,3.9-5.6.2-1.2.1-2.9-.6-3.3s-1.5.3-2.2.7c-1.2.7-1.5,1.4-1.9,1.3s0-1.4-.5-3c-.1-.5-.7-2.2-1.8-2.4a2.39,2.39,0,0,0-2.2,1.5c-.8,1.8,1.2,3.2,1.7,6.1.6,3.4-.9,7.4-2.4,7.5s-3.9-3.7-4.1-7.5c-.2-3,1.1-4.3.4-7.7-.2-.8-.7-3.2-2-3.4-1.1-.1-2.1,1.4-2.4,1.8-2.2,3.3-2.2,9,.4,13.7,2.4,4.2,5.3,4.7,5.5,8.1.1,2.1-.8,4.5-2.1,4.7s-3.2-2-3.6-4.3.8-3.3,0-4.4c-.9-1.3-2.9-.2-4.3-1.6-1.2-1.3-.3-2.9-1.8-4.1a2.42,2.42,0,0,0-2-.6c-.9.3-1.3,1.7-1.2,2.7.2,1.6,1.6,2,1.4,3s-1.8,1.1-2.1,2.2a2.32,2.32,0,0,0,1.1,2.2c1.6.9,3.4-1,4.6-.2a2.29,2.29,0,0,1,.4,2.9c-1.2,1.6-4.9-1.1-7.7.8-1.3.9-2.3,2.6-1.9,3.8.6,1.5,3.3,1.7,4.9,1.6,3.2-.2,4-2.1,6.9-1.8.4,0,2.3.3,2.7,1.4s-.6,2.4-1.4,3.4c-1.2,1.6-2,1.8-2,2.5s.7,1.2,3.6,2.9c3.2,1.9,4.2,2.5,4.2,3.2s-.8,1.3-1.6,1.5c-1.6.4-2.5-1.5-4.5-1.5-1.4,0-3,1.1-3.1,2.2-.1,1.5,2.5,3,4.4,3.6,3.3,1,4.4-.6,7.6.4.4.1,4.1,1.2,5.6,4.4C228.3,388.3,226.9,390.3,227.9,391Z" opacity="0.3" fill="url(#b)" style="isolation:isolate"/><path d="M141.9,448c-1.8,1.2-7.5-4.5-8.2-5.1-5.2-5.1-5.1-7.9-8.6-8.9-2.8-.9-3.7.7-7.3-.5-1-.4-4.6-1.6-5.3-4.4-.3-1.5.1-3.3,1.1-3.6s2.6,1.1,3.8,2.4,1.2,1.6,2,2.2c1.6,1,4.3,1.3,5.6-.2s.7-3.7.5-4.2c-.5-2-1.7-2.2-2-4s.5-3.6,1.5-3.8c1.3-.2,3.2,2.6,4,5.3s-.1,3.4.7,7.6c.6,3.4,1.4,4.3,2,4.7a4.45,4.45,0,0,0,4,.9c2.8-1,3.9-6.4,3.1-10.5s-3.5-6.8-8.9-12c-5.6-5.4-8.4-6.5-9.6-10.5s-.3-7.4,0-7.5.3,5.2,3.4,7c.7.4,1.8.8,2.3.3,1-.8.1-3.6-.3-4.6-.8-2.5-1.8-3.3-1.5-4.9,0-.2.3-1.5,1.2-1.7s2.2,1,2.4,1.3c1.8,2,1.1,4.3,1.9,10.3.4,3.8.9,4.8,1.9,5.4s2.9.8,3.6-.1c1-1.1-.2-3-2.4-9.2-1.5-4.4-2.1-7-1.4-9.9.2-.8.6-2.6,1.6-2.8s2.4,1.7,2.6,2.2c2.6,4.2,0,7.3,1.2,12.9s4.2,5.1,4.4,9.8c.2,4.4-2.4,7.6-.6,9.4a2.26,2.26,0,0,0,2.3.8c.8-.3.6-1.3,1.7-2.4.1-.1,1.3-1.3,2.1-1s.8,2.3.5,3.9c-.8,3.6-3.4,4-4.8,8-.1.2-1.2,3.6-.2,4.3s4.2-1.9,6-4.6a12.38,12.38,0,0,0,2.4-7.1c0-2.7-1.1-3.2-3.5-8.6-3.3-7.3-2.1-8-4.4-10.7-1.7-1.9-3.5-3-3.9-5.6-.2-1.2-.2-2.9.6-3.3.6-.3,1.5.3,2.2.7,1.2.7,1.5,1.4,1.9,1.3s0-1.4.5-3c.1-.5.7-2.2,1.8-2.4a2.29,2.29,0,0,1,2.2,1.5c.8,1.8-1.2,3.2-1.7,6.1-.6,3.4.9,7.4,2.4,7.5s3.9-3.7,4.1-7.5c.2-3-1.1-4.3-.4-7.7.2-.7.7-3.2,2-3.4,1-.1,2.1,1.4,2.4,1.8,2.2,3.3,2.2,9-.4,13.7-2.4,4.2-5.3,4.7-5.5,8.1-.1,2.1.8,4.5,2.1,4.7s3.2-2,3.6-4.3-.8-3.3,0-4.4c.9-1.3,2.9-.2,4.3-1.6,1.2-1.3.3-2.9,1.8-4.1a2.42,2.42,0,0,1,2-.6c.9.3,1.3,1.7,1.2,2.7-.2,1.6-1.6,2-1.4,3s1.8,1.1,2.1,2.2a2.32,2.32,0,0,1-1.1,2.2c-1.6.9-3.4-1-4.6-.2a2.29,2.29,0,0,0-.4,2.9c1.2,1.6,4.9-1.1,7.7.8,1.3.9,2.3,2.6,1.9,3.8-.6,1.5-3.3,1.8-4.9,1.6-3.2-.2-4.1-2.1-6.9-1.8-.4,0-2.3.3-2.7,1.4s.6,2.4,1.4,3.4c1.2,1.6,2,1.8,2,2.5s-.7,1.2-3.6,2.9c-3.2,1.9-4.2,2.4-4.2,3.2s.8,1.3,1.6,1.5c1.6.4,2.5-1.5,4.5-1.5,1.5,0,3.1,1.1,3.1,2.2.1,1.5-2.5,3-4.4,3.6-3.3,1-4.4-.6-7.6.4-.4.1-4.1,1.2-5.6,4.4C141.5,445.3,142.9,447.4,141.9,448Z" opacity="0.3" fill="url(#c)" style="isolation:isolate"/><path d="M67.6,364.5c1.8,1.2,7.5-4.5,8.2-5.1,5.2-5.1,5.1-7.9,8.6-8.9,2.8-.9,3.7.7,7.3-.5,1-.4,4.6-1.6,5.3-4.4.3-1.5-.1-3.3-1.1-3.6s-2.6,1.2-3.8,2.4-1.2,1.6-2,2.2c-1.6,1-4.3,1.3-5.6-.2s-.7-3.8-.6-4.2c.5-2,1.8-2.2,2-4s-.5-3.6-1.4-3.8c-1.3-.2-3.2,2.6-4,5.3s.1,3.4-.7,7.6c-.6,3.4-1.4,4.3-2,4.7a4.45,4.45,0,0,1-4,.9c-2.8-1-3.9-6.4-3.1-10.5s3.5-6.8,8.9-12c5.6-5.4,8.4-6.5,9.6-10.5s.4-7.4,0-7.5-.2,5.2-3.3,7c-.7.4-1.8.8-2.4.3-1-.8-.1-3.6.3-4.6.8-2.5,1.8-3.3,1.5-4.9,0-.2-.3-1.5-1.2-1.7s-2.2,1-2.4,1.3c-1.8,2-1.1,4.3-1.9,10.3-.4,3.8-.9,4.9-1.8,5.4-1.1.7-2.9.8-3.7-.1-1-1.1.2-3,2.4-9.2,1.5-4.4,2.1-7,1.4-9.9-.2-.8-.6-2.6-1.6-2.8s-2.3,1.7-2.7,2.2c-2.6,4.2,0,7.2-1.2,12.9-1.2,5.5-4.2,5.1-4.4,9.8-.2,4.4,2.4,7.6.6,9.4a2.26,2.26,0,0,1-2.3.8c-.8-.3-.6-1.3-1.7-2.4-.1-.1-1.3-1.3-2.1-1s-.8,2.3-.5,3.9c.8,3.6,3.4,4,4.8,8,.1.2,1.2,3.6.2,4.3s-4.2-1.9-6-4.6a12.38,12.38,0,0,1-2.4-7.1c0-2.7,1.1-3.2,3.5-8.6,3.3-7.3,2-8,4.4-10.7,1.7-1.9,3.5-3,3.9-5.6.2-1.2.2-2.9-.6-3.3-.6-.3-1.5.3-2.2.7-1.2.7-1.5,1.4-1.9,1.3s0-1.4-.5-3c-.1-.5-.7-2.2-1.8-2.4a2.29,2.29,0,0,0-2.2,1.5c-.8,1.8,1.2,3.2,1.7,6.1.6,3.4-.9,7.4-2.3,7.5s-4-3.7-4.2-7.5c-.2-3,1.1-4.3.4-7.7-.2-.8-.7-3.2-2-3.4-1-.2-2.1,1.4-2.4,1.8-2.2,3.3-2.2,9,.4,13.7,2.4,4.2,5.3,4.7,5.5,8.1.1,2.1-.8,4.5-2.1,4.7s-3.2-2-3.6-4.3.8-3.3,0-4.4c-1-1.3-2.9-.2-4.3-1.6s-.3-2.9-1.8-4.1a2.42,2.42,0,0,0-2-.6c-.9.3-1.3,1.7-1.2,2.7.2,1.6,1.5,2,1.3,3s-1.8,1.1-2.1,2.2a2.42,2.42,0,0,0,1.1,2.2c1.6.9,3.4-1,4.6-.2a2.3,2.3,0,0,1,.4,2.9c-1.2,1.6-4.9-1.1-7.7.8-1.3.9-2.3,2.6-1.9,3.8.6,1.5,3.3,1.7,4.9,1.6,3.2-.2,4.1-2.1,6.9-1.8.5,0,2.3.3,2.7,1.4s-.7,2.4-1.4,3.4c-1.2,1.6-2,1.8-2,2.5s.7,1.2,3.6,2.9c3.2,1.9,4.2,2.5,4.2,3.2s-.8,1.3-1.6,1.5c-1.7.4-2.5-1.5-4.5-1.5-1.5,0-3,1.1-3.1,2.2-.1,1.5,2.5,3,4.4,3.6,3.3,1,4.4-.6,7.7.4.4.1,4.1,1.2,5.6,4.4C68,361.7,66.6,363.8,67.6,364.5Z" opacity="0.3" fill="url(#d)" style="isolation:isolate"/><path d="M363.1,80.9c1.7,1.1,7.3-4.3,8-5,5-5,5-7.6,8.3-8.6,2.7-.8,3.6.6,7.1-.5,1-.3,4.5-1.5,5.1-4.2.3-1.4-.1-3.2-1.1-3.5s-2.5,1.1-3.7,2.3-1.1,1.6-1.9,2.1c-1.5,1-4.2,1.2-5.5-.2s-.6-3.6-.5-4.1c.5-2,1.7-2.2,1.9-3.9s-.5-3.5-1.4-3.7c-1.2-.2-3.1,2.5-3.9,5.1s.1,3.3-.7,7.4c-.6,3.3-1.4,4.2-1.9,4.6a4.55,4.55,0,0,1-3.9.9c-2.7-1-3.8-6.2-3-10.2s3.4-6.6,8.6-11.6c5.4-5.2,8.1-6.3,9.4-10.2s.3-7.2,0-7.2-.2,5.1-3.3,6.7a2.41,2.41,0,0,1-2.3.3c-1-.8,0-3.5.3-4.5.8-2.5,1.8-3.2,1.5-4.7a2.17,2.17,0,0,0-1.2-1.7c-.9-.3-2.1,1-2.4,1.2-1.7,2-1.1,4.2-1.8,10-.4,3.7-.9,4.7-1.8,5.3-1.1.7-2.8.8-3.5-.1-.9-1,.2-2.9,2.3-9,1.4-4.2,2-6.8,1.4-9.6-.2-.7-.6-2.5-1.6-2.7s-2.3,1.7-2.6,2.1c-2.5,4,0,7-1.2,12.6-1.1,5.4-4,5-4.2,9.5-.2,4.3,2.3,7.4.6,9.1a2.65,2.65,0,0,1-2.2.8c-.7-.3-.6-1.2-1.7-2.3-.1-.1-1.3-1.3-2-1s-.8,2.3-.5,3.8c.7,3.5,3.3,3.9,4.6,7.8.1.2,1.2,3.5.2,4.2s-4.1-1.9-5.8-4.4a12.25,12.25,0,0,1-2.4-6.9c0-2.6,1.1-3.1,3.4-8.3,3.2-7.1,2-7.7,4.3-10.4,1.6-1.9,3.4-2.9,3.8-5.4.2-1.1.1-2.8-.6-3.2s-1.5.3-2.1.7c-1.2.7-1.5,1.4-1.8,1.2s0-1.3-.5-2.9c-.1-.4-.7-2.1-1.7-2.3a2.25,2.25,0,0,0-2.2,1.6c-.8,1.7,1.1,3.1,1.7,6,.6,3.3-.9,7.1-2.3,7.3s-3.8-3.6-4-7.3c-.1-2.9,1.1-4.2.4-7.5-.2-.7-.7-3.1-1.9-3.3-1-.1-2,1.3-2.3,1.7-2.1,3.2-2.1,8.8.4,13.3,2.3,4.1,5.2,4.6,5.3,7.9.1,2-.8,4.4-2,4.6s-3.1-2-3.5-4.2.8-3.2,0-4.3c-.9-1.3-2.8-.2-4.2-1.6-1.2-1.2-.3-2.8-1.7-4a2.21,2.21,0,0,0-1.9-.6c-.9.3-1.3,1.6-1.2,2.6.2,1.5,1.5,1.9,1.3,2.9s-1.8,1-2,2.2a2.23,2.23,0,0,0,1.1,2.2c1.5.9,3.3-1,4.4-.2a2.15,2.15,0,0,1,.4,2.8c-1.2,1.5-4.7-1-7.5.8-1.3.8-2.2,2.5-1.8,3.7.5,1.4,3.2,1.7,4.7,1.6,3.1-.2,3.9-2.1,6.7-1.7.4,0,2.2.3,2.6,1.3s-.6,2.3-1.4,3.3c-1.2,1.6-2,1.7-1.9,2.4s.7,1.1,3.5,2.8c3.1,1.9,4.1,2.4,4.1,3.1s-.8,1.3-1.5,1.5c-1.6.4-2.4-1.5-4.4-1.5-1.4,0-3,1.1-3,2.2-.1,1.4,2.4,2.9,4.3,3.5,3.2,1,4.3-.6,7.4.3.4.1,4,1.2,5.4,4.2C363.5,78.3,362.1,80.3,363.1,80.9Z" opacity="0.3" fill="url(#e)" style="isolation:isolate"/><path d="M166.7,333.8c1.8,1.2,7.5-4.5,8.2-5.1,5.2-5.1,5.1-7.9,8.6-8.9,2.8-.9,3.7.7,7.3-.5,1-.4,4.6-1.6,5.3-4.4.3-1.5-.1-3.3-1.1-3.6s-2.6,1.1-3.8,2.4-1.2,1.6-2,2.2c-1.6,1-4.3,1.3-5.6-.2s-.7-3.7-.5-4.2c.5-2,1.7-2.2,2-4s-.5-3.6-1.5-3.8c-1.3-.2-3.2,2.6-4,5.3s.1,3.4-.7,7.6c-.6,3.4-1.4,4.3-2,4.7a4.45,4.45,0,0,1-4,.9c-2.8-1-3.9-6.4-3.1-10.5s3.5-6.8,8.9-12c5.6-5.4,8.4-6.5,9.6-10.5s.4-7.4,0-7.5-.3,5.2-3.4,7c-.6.4-1.8.8-2.4.3-1-.8-.1-3.6.3-4.6.8-2.5,1.9-3.3,1.5-4.9,0-.2-.3-1.5-1.2-1.7s-2.2,1-2.4,1.3c-1.8,2-1.1,4.3-1.9,10.3-.4,3.8-.9,4.8-1.9,5.4s-2.9.8-3.6-.1c-1-1.1.2-3,2.4-9.2,1.5-4.4,2.1-7,1.4-9.9-.2-.8-.6-2.6-1.6-2.8s-2.4,1.7-2.6,2.2c-2.6,4.2,0,7.2-1.2,12.9s-4.2,5.1-4.4,9.8c-.2,4.4,2.4,7.6.6,9.4a2.26,2.26,0,0,1-2.3.8c-.8-.3-.6-1.3-1.7-2.4-.1-.1-1.3-1.3-2.1-1s-.8,2.3-.5,3.9c.8,3.6,3.4,4,4.8,8,.1.2,1.2,3.6.2,4.3s-4.2-1.9-6-4.6a12.38,12.38,0,0,1-2.4-7.1c0-2.7,1.1-3.2,3.5-8.6,3.3-7.3,2.1-8,4.4-10.7,1.7-1.9,3.5-3,3.9-5.6.2-1.2.2-2.9-.6-3.3-.6-.3-1.5.3-2.2.7-1.2.7-1.5,1.4-1.9,1.3s0-1.4-.5-3c-.1-.5-.7-2.2-1.8-2.4a2.39,2.39,0,0,0-2.2,1.5c-.8,1.8,1.2,3.2,1.7,6.1.6,3.4-.9,7.4-2.4,7.5s-3.9-3.7-4.1-7.5c-.2-3,1.1-4.3.4-7.7-.2-.8-.7-3.2-2-3.4-1-.2-2.1,1.4-2.4,1.8-2.2,3.3-2.2,9,.4,13.7,2.4,4.2,5.3,4.7,5.5,8.1.1,2.1-.8,4.5-2.1,4.7s-3.2-2.1-3.6-4.3.8-3.3,0-4.4c-.9-1.3-2.9-.2-4.3-1.6-1.2-1.3-.3-2.9-1.8-4.1a2.42,2.42,0,0,0-2-.6c-.9.3-1.3,1.7-1.2,2.7.2,1.6,1.6,2,1.4,3s-1.8,1.1-2.1,2.2a2.32,2.32,0,0,0,1.1,2.2c1.6.9,3.4-1,4.6-.2a2.29,2.29,0,0,1,.4,2.9c-1.2,1.6-4.9-1.1-7.7.8-1.3.9-2.3,2.6-1.9,3.8.6,1.5,3.3,1.8,4.9,1.6,3.2-.2,4-2.1,6.9-1.8.4,0,2.3.3,2.7,1.4s-.6,2.4-1.4,3.4c-1.2,1.6-2,1.8-2,2.5s.7,1.2,3.6,2.9c3.2,1.9,4.2,2.4,4.2,3.2s-.8,1.3-1.6,1.5c-1.6.4-2.5-1.5-4.5-1.5-1.5,0-3,1.1-3.1,2.2-.1,1.5,2.5,3,4.4,3.6,3.3,1,4.4-.6,7.6.4.4.1,4.1,1.2,5.6,4.4C167.1,331.1,165.7,333.1,166.7,333.8Z" opacity="0.3" fill="url(#f)" style="isolation:isolate"/><path d="M277.1,257.6c1.1.8,4.8-2.9,5.3-3.3,3.3-3.3,3.3-5,5.5-5.7,1.8-.6,2.4.4,4.7-.4.7-.2,3-1,3.4-2.8.2-.9-.1-2.1-.7-2.3s-1.7.7-2.5,1.5-.8,1.1-1.3,1.4c-1,.7-2.8.8-3.6-.1a3.64,3.64,0,0,1-.4-2.7c.3-1.3,1.1-1.4,1.3-2.6s-.3-2.3-.9-2.4c-.8-.2-2,1.7-2.6,3.4s0,2.2-.5,4.9c-.4,2.2-.9,2.8-1.3,3a3,3,0,0,1-2.6.6c-1.8-.6-2.5-4.1-2-6.8s2.3-4.4,5.7-7.7,5.4-4.2,6.2-6.8.2-4.8,0-4.8-.2,3.4-2.2,4.5c-.4.2-1.1.5-1.5.2-.6-.5,0-2.3.2-3,.5-1.6,1.2-2.1,1-3.1a1.45,1.45,0,0,0-.8-1.1c-.6-.2-1.4.6-1.6.8-1.1,1.3-.7,2.8-1.2,6.6-.3,2.4-.6,3.1-1.2,3.5a2,2,0,0,1-2.3,0c-.6-.7.2-1.9,1.5-5.9,1-2.8,1.3-4.5.9-6.3-.1-.5-.4-1.7-1-1.8s-1.5,1.1-1.7,1.4c-1.7,2.7,0,4.6-.8,8.3s-2.7,3.3-2.8,6.3,1.5,4.9.4,6a1.65,1.65,0,0,1-1.5.5c-.5-.2-.4-.8-1.1-1.5-.1-.1-.9-.8-1.3-.6s-.5,1.5-.3,2.5c.5,2.3,2.2,2.6,3.1,5.1,0,.1.8,2.3.1,2.8s-2.7-1.2-3.9-2.9a7.46,7.46,0,0,1-1.5-4.6c0-1.7.7-2.1,2.2-5.5,2.1-4.7,1.3-5.1,2.9-6.9,1.1-1.2,2.2-1.9,2.5-3.6.1-.8.1-1.9-.4-2.1s-1,.2-1.4.4c-.8.5-1,.9-1.2.8s0-.9-.3-1.9c-.1-.3-.4-1.4-1.1-1.5a1.5,1.5,0,0,0-1.4,1c-.5,1.1.8,2.1,1.1,4,.4,2.2-.6,4.7-1.5,4.8s-2.5-2.4-2.7-4.8c-.1-1.9.7-2.8.2-5-.1-.5-.5-2.1-1.3-2.2s-1.3.9-1.5,1.1c-1.4,2.1-1.4,5.8.3,8.8,1.5,2.7,3.4,3,3.5,5.2.1,1.4-.5,2.9-1.3,3s-2-1.3-2.3-2.8.5-2.1,0-2.8c-.6-.9-1.9-.1-2.8-1.1s-.2-1.9-1.1-2.7a2,2,0,0,0-1.3-.4,1.84,1.84,0,0,0-.8,1.8c.1,1,1,1.3.9,1.9s-1.2.7-1.3,1.4a1.34,1.34,0,0,0,.7,1.4c1,.6,2.2-.7,2.9-.1a1.53,1.53,0,0,1,.3,1.9c-.8,1-3.1-.7-5,.5a2.44,2.44,0,0,0-1.2,2.4c.4.9,2.1,1.1,3.1,1.1,2-.1,2.6-1.4,4.5-1.1.3,0,1.5.2,1.7.9s-.4,1.5-.9,2.2c-.8,1-1.3,1.1-1.3,1.6s.4.8,2.3,1.9c2.1,1.2,2.7,1.6,2.7,2.1s-.5.8-1,1c-1.1.3-1.6-1-2.9-1-.9,0-2,.7-2,1.4-.1,1,1.6,1.9,2.8,2.3,2.1.7,2.9-.4,4.9.2a5.92,5.92,0,0,1,3.6,2.8C277.4,255.9,276.5,257.2,277.1,257.6Z" opacity="0.3" fill="url(#g)" style="isolation:isolate"/><path d="M163.6,246.4c-2.7,1.8-11.2-6.6-12.2-7.6-7.7-7.7-7.6-11.7-12.7-13.3-4.1-1.3-5.5,1-10.8-.8-1.5-.5-6.9-2.3-7.9-6.5-.5-2.2.2-4.9,1.6-5.4,1.6-.6,3.9,1.7,5.7,3.5s1.7,2.4,3,3.2c2.4,1.5,6.4,1.9,8.4-.3s1-5.6.8-6.2c-.8-3-2.6-3.3-3-6-.4-2.4.7-5.4,2.2-5.7,1.9-.4,4.8,3.9,6,7.9s-.1,5.1,1.1,11.4c.9,5.1,2.1,6.4,3,7a6.88,6.88,0,0,0,6,1.4c4.2-1.5,5.8-9.5,4.6-15.7s-5.3-10-13.3-17.8c-8.4-8.1-12.5-9.8-14.4-15.7s-.5-11.1,0-11.1.4,7.8,5,10.4c1,.6,2.6,1.1,3.5.4,1.5-1.2.1-5.4-.4-6.9-1.2-3.8-2.8-4.9-2.2-7.2.1-.2.5-2.2,1.8-2.6,1.5-.4,3.3,1.5,3.6,1.9,2.7,3,1.7,6.4,2.8,15.3.7,5.6,1.4,7.2,2.8,8.1,1.6,1,4.3,1.2,5.4-.1,1.4-1.6-.4-4.5-3.5-13.8-2.2-6.5-3.1-10.4-2.1-14.7.3-1.1.9-3.9,2.4-4.2,1.7-.3,3.5,2.6,4,3.3,3.9,6.2,0,10.8,1.8,19.3,1.8,8.2,6.2,7.6,6.5,14.6.3,6.6-3.6,11.4-1,14.1.8.8,2.3,1.6,3.4,1.2s.9-1.9,2.6-3.5c.2-.2,2-1.9,3.1-1.5s1.2,3.5.8,5.8c-1.1,5.4-5.1,6-7.1,11.9-.1.3-1.8,5.4-.3,6.4s6.2-2.9,8.9-6.8a17.9,17.9,0,0,0,3.6-10.7c0-4-1.6-4.8-5.2-12.8-4.9-10.9-3.1-11.9-6.6-16-2.5-2.9-5.2-4.5-5.9-8.3-.3-1.8-.2-4.4,1-4.9.9-.4,2.3.4,3.3,1.1,1.8,1.1,2.3,2.1,2.8,1.9s0-2,.8-4.5c.2-.7,1-3.2,2.7-3.5,1.2-.2,2.7.9,3.3,2.2,1.2,2.6-1.7,4.8-2.6,9.2-1,5.1,1.4,11,3.5,11.2s5.9-5.5,6.2-11.2c.2-4.4-1.7-6.4-.5-11.5.2-1.1,1.1-4.8,3-5.1,1.6-.2,3.1,2,3.5,2.7,3.3,4.9,3.3,13.5-.6,20.4-3.6,6.3-7.9,7-8.2,12.1-.2,3.1,1.2,6.7,3.1,7s4.7-3.1,5.3-6.4-1.2-4.9,0-6.6c1.4-2,4.4-.3,6.4-2.4,1.8-1.9.5-4.4,2.7-6.2.2-.1,1.7-1.3,3-.9s2,2.5,1.8,4.1c-.3,2.4-2.3,3-2,4.5s2.7,1.6,3.1,3.3a3.48,3.48,0,0,1-1.7,3.3c-2.3,1.3-5.1-1.6-6.8-.3a3.48,3.48,0,0,0-.6,4.4c1.8,2.3,7.3-1.6,11.5,1.2,2,1.3,3.4,3.9,2.8,5.6-.8,2.2-4.9,2.6-7.2,2.4-4.8-.3-6-3.2-10.3-2.7-.7.1-3.4.4-4,2s1,3.6,2.1,5.1c1.8,2.4,3,2.6,3,3.7s-1,1.7-5.4,4.4c-4.8,2.9-6.3,3.6-6.3,4.8,0,1,1.2,2,2.3,2.2,2.5.6,3.7-2.3,6.7-2.2,2.2,0,4.6,1.7,4.7,3.3.2,2.2-3.7,4.4-6.6,5.3-5,1.6-6.6-.8-11.4.5-.6.2-6.2,1.9-8.3,6.5C163,242.3,165.1,245.4,163.6,246.4Z" opacity="0.3" fill="url(#h)" style="isolation:isolate"/><path d="M158.4,147.8c1.8,1.2,7.5-4.5,8.2-5.1,5.2-5.1,5.1-7.9,8.6-8.9,2.8-.8,3.7.7,7.3-.5,1-.4,4.6-1.6,5.3-4.4.3-1.4-.1-3.3-1.1-3.6s-2.6,1.2-3.8,2.4-1.2,1.6-2,2.2c-1.6,1-4.3,1.3-5.6-.2s-.7-3.8-.6-4.2c.5-2,1.8-2.2,2-4s-.5-3.6-1.4-3.8c-1.3-.2-3.2,2.6-4,5.3s.1,3.4-.7,7.6c-.6,3.4-1.4,4.3-2,4.7a4.45,4.45,0,0,1-4,.9c-2.8-1-3.9-6.4-3.1-10.6s3.5-6.8,8.9-12c5.6-5.4,8.4-6.5,9.6-10.6s.4-7.4,0-7.5-.3,5.2-3.4,7c-.7.4-1.8.8-2.4.3-1-.8-.1-3.6.3-4.7.8-2.6,1.8-3.3,1.5-4.9,0-.2-.3-1.5-1.2-1.7s-2.2,1-2.4,1.3c-1.8,2-1.1,4.3-1.9,10.3-.4,3.8-.9,4.8-1.9,5.4s-2.9.8-3.6-.1c-1-1.1.2-3,2.4-9.2,1.5-4.4,2.1-7,1.4-9.9-.2-.8-.6-2.6-1.6-2.8s-2.4,1.7-2.6,2.2c-2.6,4.2,0,7.2-1.2,12.9-1.2,5.5-4.2,5.1-4.4,9.8-.2,4.4,2.4,7.6.6,9.4a2.26,2.26,0,0,1-2.3.8c-.8-.3-.6-1.3-1.7-2.4-.1-.1-1.4-1.3-2.1-1s-.8,2.3-.5,3.9c.8,3.6,3.4,4,4.8,8,.1.2,1.2,3.6.2,4.3s-4.2-1.9-6-4.6a12.44,12.44,0,0,1-2.4-7.2c0-2.7,1.1-3.2,3.5-8.6,3.3-7.3,2-8,4.4-10.7,1.7-1.9,3.5-3,3.9-5.6.2-1.2.1-2.9-.6-3.3s-1.5.3-2.2.7c-1.2.7-1.5,1.4-1.9,1.3s0-1.4-.5-3c-.1-.4-.7-2.2-1.8-2.4a2.29,2.29,0,0,0-2.2,1.5c-.8,1.8,1.2,3.2,1.7,6.1.6,3.4-.9,7.3-2.4,7.5s-3.9-3.7-4.1-7.5c-.2-3,1.1-4.3.4-7.7-.2-.7-.7-3.2-2-3.4-1-.2-2.1,1.4-2.4,1.8-2.2,3.3-2.2,9,.4,13.7,2.4,4.2,5.3,4.7,5.5,8.2.1,2.1-.8,4.5-2.1,4.7s-3.2-2-3.6-4.3.8-3.3,0-4.4c-1-1.3-2.9-.2-4.3-1.6-1.2-1.3-.3-2.9-1.8-4.1a2.42,2.42,0,0,0-2-.6c-.9.3-1.3,1.7-1.2,2.7.2,1.6,1.6,2,1.4,3s-1.8,1.1-2.1,2.2a2.32,2.32,0,0,0,1.1,2.2c1.6.9,3.4-1,4.6-.2a2.3,2.3,0,0,1,.4,2.9c-1.2,1.6-4.9-1.1-7.7.8-1.3.9-2.3,2.6-1.9,3.8.6,1.5,3.3,1.8,4.9,1.7,3.2-.2,4.1-2.1,6.9-1.8.4,0,2.3.3,2.7,1.4s-.6,2.4-1.4,3.4c-1.2,1.6-2,1.8-2,2.5s.7,1.2,3.6,2.9c3.2,1.9,4.2,2.4,4.2,3.2s-.8,1.3-1.6,1.5c-1.7.4-2.5-1.5-4.5-1.5-1.4,0-3,1.1-3.1,2.2-.1,1.5,2.5,3,4.4,3.6,3.3,1,4.4-.6,7.6.4.4.1,4.1,1.2,5.6,4.4C158.7,145.1,157.4,147.2,158.4,147.8Z" opacity="0.3" fill="url(#i)" style="isolation:isolate"/><path d="M119.5,215.7c1,.7,4.2-2.5,4.6-2.9,2.9-2.9,2.9-4.4,4.8-5,1.6-.5,2.1.4,4.1-.3.6-.2,2.6-.9,3-2.4.2-.8-.1-1.9-.6-2s-1.5.6-2.1,1.3a6.93,6.93,0,0,1-1.1,1.2,2.7,2.7,0,0,1-3.2-.1,2.57,2.57,0,0,1-.3-2.4c.3-1.1,1-1.2,1.1-2.2s-.3-2-.8-2.1c-.7-.1-1.8,1.5-2.2,3s0,1.9-.4,4.3c-.3,1.9-.8,2.4-1.1,2.6a2.54,2.54,0,0,1-2.2.5c-1.6-.6-2.2-3.6-1.7-5.9s2-3.8,5-6.7,4.7-3.7,5.4-5.9.2-4.2,0-4.2-.1,2.9-1.9,3.9c-.4.2-1,.4-1.3.2-.6-.4,0-2,.2-2.6.5-1.4,1-1.9.8-2.7a1.41,1.41,0,0,0-.7-1c-.5-.2-1.2.6-1.4.7-1,1.1-.6,2.4-1,5.8-.2,2.1-.5,2.7-1,3a1.82,1.82,0,0,1-2,0c-.5-.6.1-1.7,1.3-5.2.8-2.5,1.2-3.9.8-5.5-.1-.4-.3-1.5-.9-1.6s-1.3,1-1.5,1.2c-1.4,2.3,0,4.1-.7,7.2s-2.3,2.9-2.4,5.5,1.3,4.3.4,5.3a1.25,1.25,0,0,1-1.3.4c-.4-.2-.3-.7-1-1.3-.1-.1-.8-.7-1.2-.6s-.5,1.3-.3,2.2c.4,2,1.9,2.2,2.7,4.5,0,.1.7,2,.1,2.4s-2.3-1.1-3.3-2.6a7.44,7.44,0,0,1-1.4-4c0-1.5.6-1.8,2-4.8,1.8-4.1,1.2-4.5,2.5-6,.9-1.1,2-1.7,2.2-3.1.1-.7.1-1.6-.4-1.9s-.8.2-1.2.4c-.7.4-.8.8-1,.7s0-.8-.3-1.7c-.1-.2-.4-1.2-1-1.3a1.34,1.34,0,0,0-1.4.8c-.5,1,.7,1.8,1,3.4.3,1.9-.5,4.1-1.3,4.2s-2.2-2.1-2.3-4.2c-.1-1.7.6-2.4.2-4.3-.1-.4-.4-1.8-1.1-1.9s-1.2.8-1.3,1c-1.2,1.8-1.2,5.1.2,7.7,1.3,2.4,3,2.6,3.1,4.6.1,1.2-.5,2.5-1.2,2.6s-1.8-1.1-2-2.4.4-1.9,0-2.5-1.7-.1-2.4-.9-.2-1.6-1-2.3a1.13,1.13,0,0,0-1.1-.3,1.49,1.49,0,0,0-.7,1.5c.1.9.9,1.1.8,1.7s-1,.6-1.2,1.2a1.31,1.31,0,0,0,.6,1.2c.9.5,1.9-.6,2.6-.1a1.13,1.13,0,0,1,.2,1.6c-.7.9-2.7-.6-4.3.4a2.18,2.18,0,0,0-1,2.1c.3.8,1.8,1,2.7.9,1.8-.1,2.3-1.2,3.9-1,.2,0,1.3.1,1.5.8s-.4,1.3-.8,1.9c-.7.9-1.1,1-1.1,1.4s.4.6,2,1.6,2.4,1.4,2.4,1.8a1,1,0,0,1-.9.8c-.9.2-1.4-.9-2.5-.8a1.91,1.91,0,0,0-1.8,1.2c-.1.8,1.4,1.7,2.5,2,1.9.6,2.5-.3,4.3.2a5.31,5.31,0,0,1,3.1,2.4C119.7,214.2,118.9,215.4,119.5,215.7Z" opacity="0.3" fill="url(#j)" style="isolation:isolate"/><path d="M2037.7,538.5c1.8,1.2,7.5-4.5,8.2-5.1,5.2-5.1,5.1-7.9,8.5-8.9,2.8-.8,3.7.7,7.3-.5,1-.3,4.6-1.5,5.3-4.4.3-1.5-.1-3.3-1.1-3.6s-2.6,1.2-3.8,2.4-1.2,1.6-2,2.2c-1.6,1-4.3,1.3-5.6-.2s-.7-3.8-.6-4.2c.5-2,1.8-2.2,2-4s-.5-3.6-1.4-3.8c-1.3-.2-3.2,2.6-4,5.3s.1,3.4-.7,7.6c-.6,3.4-1.4,4.3-2,4.7a4.45,4.45,0,0,1-4,.9c-2.8-1-3.9-6.4-3.1-10.5s3.5-6.8,8.9-12c5.6-5.4,8.4-6.5,9.6-10.5s.4-7.4,0-7.5-.3,5.2-3.4,7a2.63,2.63,0,0,1-2.4.3c-1-.8-.1-3.6.3-4.6.8-2.5,1.8-3.3,1.5-4.9,0-.2-.3-1.5-1.2-1.7s-2.2,1-2.4,1.3c-1.8,2-1.1,4.3-1.9,10.3-.4,3.8-.9,4.8-1.9,5.4s-2.9.8-3.7-.1c-1-1.1.2-3,2.4-9.2,1.5-4.4,2.1-7,1.4-9.9-.2-.8-.6-2.6-1.6-2.8s-2.3,1.7-2.7,2.2c-2.6,4.2,0,7.2-1.2,12.9s-4.2,5.1-4.4,9.8c-.2,4.4,2.4,7.6.6,9.4a2.74,2.74,0,0,1-2.3.8c-.8-.3-.6-1.3-1.7-2.4-.1-.1-1.3-1.3-2.1-1s-.8,2.3-.5,3.9c.8,3.6,3.4,4,4.8,8,.1.2,1.2,3.6.2,4.3s-4.2-1.9-6-4.6a12.44,12.44,0,0,1-2.4-7.2c0-2.7,1.1-3.2,3.5-8.6,3.3-7.3,2.1-8,4.4-10.7,1.7-1.9,3.5-3,3.9-5.6.2-1.2.2-2.9-.6-3.3-.6-.3-1.5.3-2.2.7-1.2.7-1.5,1.4-1.9,1.3s0-1.4-.5-3c-.1-.5-.7-2.2-1.8-2.4a2.29,2.29,0,0,0-2.2,1.5c-.8,1.8,1.2,3.2,1.7,6.1.6,3.4-.9,7.4-2.4,7.5s-3.9-3.7-4.2-7.5c-.2-3,1.1-4.3.4-7.7-.2-.8-.7-3.2-2-3.4-1-.2-2.1,1.4-2.4,1.8-2.2,3.3-2.2,9,.4,13.7,2.4,4.2,5.3,4.7,5.5,8.1.1,2.1-.8,4.5-2.1,4.7s-3.2-2-3.6-4.3.8-3.3,0-4.4c-1-1.3-2.9-.2-4.3-1.6s-.3-2.9-1.8-4.1a2.42,2.42,0,0,0-2-.6c-.9.3-1.3,1.7-1.2,2.7.2,1.6,1.6,2,1.4,3s-1.8,1-2.1,2.2a2.23,2.23,0,0,0,1.2,2.2c1.6.9,3.4-1,4.6-.2a2.29,2.29,0,0,1,.4,2.9c-1.2,1.6-4.9-1.1-7.7.8-1.3.9-2.3,2.6-1.9,3.8.6,1.5,3.3,1.7,4.9,1.6,3.2-.2,4.1-2.1,6.9-1.8.4,0,2.3.3,2.7,1.4s-.7,2.4-1.4,3.4c-1.2,1.6-2,1.8-2,2.5s.7,1.2,3.6,2.9c3.2,1.9,4.2,2.4,4.2,3.2s-.8,1.3-1.6,1.5c-1.7.4-2.5-1.5-4.5-1.5-1.5,0-3.1,1.1-3.2,2.2-.1,1.5,2.5,3,4.4,3.6,3.3,1,4.4-.6,7.7.3.4.1,4.2,1.2,5.6,4.4C2038.1,535.8,2036.7,537.9,2037.7,538.5Z" opacity="0.3" fill="url(#k)" style="isolation:isolate"/><path d="M2037.7,392.9c1.8,1.2,7.5-4.5,8.2-5.1,5.2-5.1,5.1-7.9,8.5-8.9,2.8-.9,3.7.7,7.3-.5,1-.3,4.6-1.5,5.3-4.4.3-1.5-.1-3.3-1.1-3.6s-2.6,1.2-3.8,2.4-1.2,1.6-2,2.2c-1.6,1-4.3,1.3-5.6-.2s-.7-3.8-.6-4.2c.5-2,1.8-2.2,2-4s-.5-3.6-1.4-3.8c-1.3-.2-3.2,2.6-4,5.3s.1,3.4-.7,7.6c-.6,3.4-1.4,4.3-2,4.7a4.45,4.45,0,0,1-4,.9c-2.8-1-3.9-6.4-3.1-10.5s3.5-6.8,8.9-12c5.6-5.4,8.4-6.5,9.6-10.5s.4-7.4,0-7.5-.3,5.2-3.4,7a2.63,2.63,0,0,1-2.4.3c-1-.8-.1-3.6.3-4.6.8-2.5,1.8-3.3,1.5-4.9,0-.2-.3-1.5-1.2-1.7s-2.2,1-2.4,1.3c-1.8,2-1.1,4.3-1.9,10.3-.4,3.8-.9,4.8-1.9,5.4s-2.9.8-3.7-.1c-1-1.1.2-3,2.4-9.2,1.5-4.4,2.1-7,1.4-9.9-.2-.8-.6-2.6-1.6-2.8s-2.3,1.7-2.7,2.2c-2.6,4.2,0,7.2-1.2,12.9-1.2,5.5-4.2,5.1-4.4,9.8-.2,4.4,2.4,7.6.6,9.4a2.74,2.74,0,0,1-2.3.8c-.8-.3-.6-1.3-1.7-2.4-.1-.1-1.3-1.3-2.1-1s-.8,2.3-.5,3.9c.8,3.6,3.4,4,4.8,8,.1.2,1.2,3.6.2,4.3s-4.2-1.9-6-4.6a12.38,12.38,0,0,1-2.4-7.1c0-2.7,1.1-3.2,3.5-8.6,3.3-7.3,2.1-8,4.4-10.7,1.7-1.9,3.5-3,3.9-5.6.2-1.2.2-2.9-.6-3.3-.6-.3-1.5.3-2.2.7-1.2.7-1.5,1.4-1.9,1.3s0-1.4-.5-3c-.1-.5-.7-2.2-1.8-2.4a2.29,2.29,0,0,0-2.2,1.5c-.8,1.8,1.2,3.2,1.7,6.1.6,3.4-.9,7.4-2.4,7.5s-3.9-3.7-4.2-7.5c-.2-3,1.1-4.3.4-7.7-.2-.8-.7-3.2-2-3.4-1-.2-2.1,1.4-2.4,1.8-2.2,3.3-2.2,9.1.4,13.7,2.4,4.2,5.3,4.7,5.5,8.1.1,2.1-.8,4.5-2.1,4.7s-3.2-2-3.6-4.3.8-3.3,0-4.4c-1-1.3-2.9-.2-4.3-1.6s-.3-2.9-1.8-4.1a2.42,2.42,0,0,0-2-.6c-.9.3-1.3,1.7-1.2,2.7.2,1.6,1.6,2,1.4,3s-1.8,1.1-2.1,2.2a2.23,2.23,0,0,0,1.2,2.2c1.6.9,3.4-1,4.6-.2a2.29,2.29,0,0,1,.4,2.9c-1.2,1.6-4.9-1.1-7.7.8-1.3.9-2.3,2.6-1.9,3.8.6,1.5,3.3,1.7,4.9,1.6,3.2-.2,4.1-2.1,6.9-1.8.4.1,2.3.3,2.7,1.4s-.7,2.4-1.4,3.4c-1.2,1.6-2,1.8-2,2.5s.7,1.2,3.6,2.9c3.2,1.9,4.2,2.4,4.2,3.2s-.8,1.3-1.6,1.5c-1.7.4-2.5-1.5-4.5-1.5-1.5,0-3.1,1.1-3.2,2.2-.1,1.5,2.5,3,4.4,3.6,3.3,1,4.4-.6,7.7.4.4.1,4.2,1.2,5.6,4.4C2038.1,390.2,2036.7,392.2,2037.7,392.9Z" opacity="0.3" fill="url(#l)" style="isolation:isolate"/><path d="M2136.8,362.2c1.8,1.2,7.5-4.5,8.2-5.1,5.2-5.1,5.1-7.9,8.5-8.9,2.8-.9,3.7.7,7.3-.5,1-.4,4.6-1.6,5.3-4.4.3-1.5-.1-3.3-1.1-3.6s-2.6,1.1-3.8,2.4-1.2,1.6-2,2.2c-1.6,1-4.3,1.3-5.6-.2s-.6-3.7-.5-4.2c.5-2,1.8-2.2,2-4s-.5-3.6-1.5-3.8c-1.3-.2-3.2,2.6-4,5.3s.1,3.4-.7,7.6c-.6,3.4-1.4,4.3-2,4.7a4.45,4.45,0,0,1-4,.9c-2.8-1-3.9-6.4-3.1-10.5s3.5-6.8,8.9-12c5.6-5.4,8.4-6.5,9.6-10.5s.4-7.4,0-7.5-.3,5.2-3.4,7c-.7.4-1.8.8-2.4.3-1-.8-.1-3.6.3-4.6.8-2.5,1.9-3.3,1.5-4.9,0-.2-.4-1.5-1.2-1.7s-2.2,1-2.4,1.3c-1.8,2-1.1,4.3-1.9,10.3-.4,3.8-.9,4.8-1.9,5.4s-2.9.8-3.6-.1c-1-1.1.2-3,2.4-9.2,1.5-4.4,2.1-7,1.4-9.9-.2-.8-.6-2.6-1.6-2.8s-2.3,1.7-2.6,2.2c-2.6,4.2,0,7.2-1.2,12.9-1.2,5.5-4.2,5.1-4.4,9.8-.2,4.4,2.4,7.6.6,9.4a2.26,2.26,0,0,1-2.3.8c-.8-.3-.6-1.3-1.7-2.4-.1-.1-1.4-1.3-2.1-1s-.8,2.3-.5,3.9c.8,3.6,3.4,4,4.8,8,.1.2,1.2,3.6.2,4.3s-4.2-1.9-6-4.6a12.38,12.38,0,0,1-2.4-7.1c0-2.7,1.1-3.2,3.5-8.6,3.3-7.3,2.1-8,4.4-10.7,1.7-1.9,3.5-3,3.9-5.6.2-1.2.1-2.9-.6-3.3s-1.5.3-2.2.7c-1.2.7-1.5,1.4-1.9,1.3s0-1.4-.5-3c-.1-.5-.7-2.2-1.8-2.4a2.39,2.39,0,0,0-2.2,1.5c-.8,1.8,1.2,3.2,1.7,6.1.6,3.4-.9,7.4-2.4,7.5s-3.9-3.7-4.1-7.5c-.2-3,1.1-4.3.4-7.7-.2-.7-.7-3.2-2-3.4-1-.1-2.1,1.4-2.4,1.8-2.2,3.3-2.2,9,.4,13.7,2.4,4.2,5.3,4.7,5.5,8.1.1,2.1-.8,4.5-2.1,4.7s-3.2-2-3.6-4.3.8-3.3,0-4.4c-.9-1.3-2.9-.2-4.3-1.6-1.2-1.3-.3-2.9-1.8-4.1a2.42,2.42,0,0,0-2-.6c-.9.3-1.3,1.7-1.2,2.7.2,1.6,1.6,2,1.4,3s-1.8,1.1-2.1,2.2a2.32,2.32,0,0,0,1.1,2.2c1.6.9,3.4-1,4.6-.2a2.3,2.3,0,0,1,.4,2.9c-1.2,1.6-4.9-1.1-7.7.8-1.3.9-2.3,2.6-1.9,3.8.6,1.5,3.3,1.8,4.9,1.6,3.2-.2,4.1-2.1,6.9-1.8.4,0,2.3.3,2.7,1.4s-.6,2.4-1.4,3.4c-1.2,1.6-2,1.8-2,2.5s.7,1.2,3.6,2.9c3.2,1.9,4.2,2.4,4.2,3.2s-.8,1.3-1.6,1.5c-1.6.4-2.5-1.5-4.5-1.5-1.4,0-3,1.1-3.1,2.2-.1,1.5,2.5,3,4.4,3.6,3.3,1,4.4-.6,7.6.4.4.1,4.1,1.2,5.6,4.4C2137.1,359.5,2135.8,361.6,2136.8,362.2Z" opacity="0.3" fill="url(#m)" style="isolation:isolate"/><path d="M2143.2,622.1c1.8,1.2,7.5-4.5,8.2-5.1,5.2-5.2,5.1-7.9,8.6-8.9,2.8-.8,3.7.7,7.3-.5,1-.3,4.6-1.6,5.3-4.4.3-1.5-.1-3.3-1.1-3.6s-2.6,1.2-3.8,2.4-1.2,1.6-2,2.2c-1.6,1-4.3,1.3-5.6-.2s-.7-3.7-.6-4.2c.5-2,1.8-2.2,2-4s-.5-3.6-1.4-3.8c-1.3-.2-3.2,2.6-4,5.3s.1,3.4-.7,7.6c-.6,3.4-1.4,4.3-2,4.7a4.45,4.45,0,0,1-4,.9c-2.8-1-3.9-6.4-3.1-10.5s3.5-6.8,8.9-12c5.6-5.4,8.4-6.5,9.6-10.5s.4-7.4,0-7.5-.3,5.2-3.4,7c-.7.4-1.8.8-2.4.3-1-.8-.1-3.6.3-4.7.8-2.5,1.8-3.3,1.5-4.9,0-.2-.3-1.5-1.2-1.7s-2.2,1-2.4,1.3c-1.8,2-1.1,4.3-1.9,10.3-.4,3.8-.9,4.8-1.9,5.4s-2.9.8-3.6-.1c-1-1.1.2-3,2.4-9.2,1.5-4.4,2.1-7,1.4-9.9-.2-.8-.6-2.6-1.6-2.8s-2.4,1.7-2.6,2.2c-2.6,4.2,0,7.2-1.2,12.9-1.2,5.5-4.2,5.1-4.4,9.8-.2,4.4,2.4,7.6.6,9.4a2.26,2.26,0,0,1-2.3.8c-.8-.3-.6-1.3-1.7-2.4-.1-.1-1.4-1.3-2.1-1s-.8,2.3-.5,3.9c.8,3.6,3.4,4,4.8,8,.1.2,1.2,3.7.2,4.3s-4.2-1.9-6-4.6a12.44,12.44,0,0,1-2.4-7.2c0-2.7,1.1-3.2,3.5-8.6,3.3-7.3,2.1-8,4.4-10.7,1.7-1.9,3.5-3,3.9-5.6.2-1.2.1-2.9-.6-3.3s-1.5.3-2.2.7c-1.2.7-1.5,1.4-1.9,1.3s0-1.4-.5-3c-.1-.5-.7-2.2-1.8-2.4a2.29,2.29,0,0,0-2.2,1.5c-.8,1.8,1.2,3.2,1.7,6.1.6,3.4-.9,7.3-2.4,7.5s-3.9-3.7-4.1-7.5c-.1-3,1.1-4.3.4-7.7-.2-.7-.7-3.2-2-3.4-1.1-.2-2.1,1.4-2.4,1.8-2.2,3.3-2.2,9,.4,13.7,2.4,4.2,5.3,4.7,5.5,8.2.1,2.1-.8,4.5-2.1,4.7s-3.2-2-3.6-4.3.8-3.3,0-4.4c-.9-1.3-2.9-.2-4.3-1.7-1.2-1.3-.3-2.9-1.8-4.1a2.42,2.42,0,0,0-2-.6c-.9.3-1.3,1.7-1.2,2.7.2,1.6,1.6,2,1.4,3s-1.8,1.1-2.1,2.2a2.32,2.32,0,0,0,1.1,2.2c1.6.9,3.4-1,4.6-.2a2.3,2.3,0,0,1,.4,2.9c-1.2,1.6-4.9-1.1-7.7.8-1.3.9-2.3,2.6-1.9,3.8.6,1.5,3.3,1.8,4.9,1.7,3.2-.2,4.1-2.1,6.9-1.8.4,0,2.3.3,2.7,1.4s-.6,2.4-1.4,3.4c-1.2,1.6-2,1.8-2,2.5s.7,1.2,3.6,2.9c3.2,1.9,4.2,2.4,4.2,3.2s-.8,1.3-1.6,1.5c-1.7.4-2.5-1.5-4.5-1.5-1.5,0-3.1,1.1-3.1,2.2-.1,1.5,2.5,3,4.4,3.6,3.3,1,4.4-.6,7.6.4.4.1,4.1,1.2,5.6,4.4C2143.6,619.3,2142.2,621.4,2143.2,622.1Z" opacity="0.3" fill="url(#n)" style="isolation:isolate"/><path d="M2099.8,553.3c1.1.8,4.8-2.9,5.2-3.3,3.3-3.3,3.3-5,5.5-5.7,1.8-.5,2.4.4,4.7-.3.7-.2,3-1,3.4-2.8.2-.9-.1-2.1-.7-2.3s-1.7.8-2.4,1.5-.8,1.1-1.3,1.4c-1,.7-2.8.8-3.6-.1a3.23,3.23,0,0,1-.4-2.7c.3-1.3,1.1-1.4,1.3-2.6s-.3-2.3-.9-2.5c-.8-.2-2.1,1.7-2.6,3.4s0,2.2-.5,4.9c-.4,2.2-.9,2.8-1.3,3a3,3,0,0,1-2.6.6c-1.8-.6-2.5-4.1-2-6.8s2.2-4.4,5.7-7.7,5.4-4.2,6.2-6.8.2-4.8,0-4.8-.2,3.3-2.1,4.5c-.4.2-1.1.5-1.5.2-.6-.5,0-2.3.2-3,.5-1.6,1.2-2.1,1-3.1a1.45,1.45,0,0,0-.8-1.1c-.6-.2-1.4.7-1.6.8-1.1,1.3-.7,2.8-1.2,6.6-.3,2.4-.6,3.1-1.2,3.5a2,2,0,0,1-2.3,0c-.6-.7.2-1.9,1.5-5.9,1-2.8,1.4-4.5.9-6.3-.1-.5-.4-1.7-1.1-1.8s-1.5,1.1-1.7,1.4c-1.7,2.7,0,4.7-.8,8.3s-2.7,3.3-2.8,6.3,1.5,4.9.4,6.1a1.65,1.65,0,0,1-1.5.5c-.5-.2-.4-.8-1.1-1.5-.1-.1-.9-.8-1.3-.6s-.5,1.5-.3,2.5c.5,2.3,2.2,2.6,3.1,5.1,0,.1.8,2.3.1,2.8s-2.7-1.2-3.9-2.9a8.24,8.24,0,0,1-1.6-4.6c0-1.7.7-2.1,2.2-5.5,2.1-4.7,1.3-5.1,2.8-6.9,1.1-1.2,2.2-1.9,2.5-3.6.1-.8.1-1.9-.4-2.1s-1,.2-1.4.5c-.8.5-1,.9-1.2.8s0-.9-.3-1.9c-.1-.3-.4-1.4-1.1-1.5a1.5,1.5,0,0,0-1.4,1c-.5,1.1.8,2.1,1.1,3.9.4,2.2-.6,4.7-1.5,4.8s-2.5-2.4-2.7-4.8c-.1-1.9.7-2.8.2-5-.1-.5-.5-2.1-1.3-2.2s-1.3.9-1.5,1.1c-1.4,2.1-1.4,5.8.3,8.8,1.5,2.7,3.4,3,3.5,5.2.1,1.3-.5,2.9-1.3,3s-2-1.3-2.3-2.8.5-2.1,0-2.8-1.9-.1-2.8-1-.2-1.9-1.1-2.7a1.48,1.48,0,0,0-1.3-.4,1.77,1.77,0,0,0-.8,1.7c.1,1,1,1.3.9,1.9s-1.2.7-1.3,1.4a1.34,1.34,0,0,0,.7,1.4c1,.6,2.2-.7,2.9-.1a1.68,1.68,0,0,1,.3,1.9c-.8,1-3.1-.7-5,.5a2.44,2.44,0,0,0-1.2,2.4c.4.9,2.1,1.1,3.1,1,2-.1,2.6-1.4,4.4-1.1.3,0,1.5.2,1.7.9s-.4,1.5-.9,2.2c-.8,1-1.3,1.1-1.3,1.6s.4.7,2.3,1.9c2.1,1.2,2.7,1.6,2.7,2.1s-.5.8-1,1c-1.1.3-1.6-1-2.9-1-.9,0-2,.7-2,1.4-.1,1,1.6,1.9,2.8,2.3,2.1.7,2.9-.4,4.9.2a5.92,5.92,0,0,1,3.6,2.8C2100,551.5,2099.1,552.8,2099.8,553.3Z" opacity="0.3" fill="url(#o)" style="isolation:isolate"/><path d="M1881.2,558.3c1.2.8,4.8-2.9,5.2-3.3,3.3-3.3,3.3-5,5.5-5.7,1.8-.5,2.4.4,4.7-.3.7-.2,3-1,3.4-2.8.2-.9-.1-2.1-.7-2.3s-1.7.8-2.4,1.5-.8,1.1-1.3,1.4c-1,.7-2.8.8-3.6-.1a2.89,2.89,0,0,1-.3-2.7c.3-1.3,1.1-1.4,1.3-2.6s-.3-2.3-.9-2.5c-.8-.2-2.1,1.7-2.6,3.4s0,2.2-.5,4.9c-.4,2.2-.9,2.8-1.3,3a3,3,0,0,1-2.6.6c-1.8-.6-2.5-4.1-2-6.8s2.3-4.4,5.7-7.7,5.4-4.2,6.2-6.8.2-4.8,0-4.8-.2,3.3-2.2,4.5c-.4.2-1.1.5-1.5.2-.6-.5,0-2.3.2-3,.5-1.6,1.2-2.1,1-3.1a1.45,1.45,0,0,0-.8-1.1c-.6-.2-1.4.7-1.6.8-1.2,1.3-.7,2.8-1.2,6.6-.3,2.4-.6,3.1-1.2,3.5a2,2,0,0,1-2.3,0c-.6-.7.2-1.9,1.5-5.9,1-2.8,1.3-4.5.9-6.3-.1-.5-.4-1.7-1.1-1.8s-1.5,1.1-1.7,1.4c-1.7,2.7,0,4.7-.8,8.3s-2.7,3.3-2.8,6.3,1.5,4.9.4,6.1a1.65,1.65,0,0,1-1.5.5c-.5-.2-.4-.8-1.1-1.5-.1-.1-.9-.8-1.3-.6s-.5,1.5-.3,2.5c.5,2.3,2.2,2.6,3.1,5.1,0,.1.8,2.3.1,2.8s-2.7-1.2-3.8-2.9a8.24,8.24,0,0,1-1.6-4.6c0-1.7.7-2.1,2.2-5.5,2.1-4.7,1.3-5.1,2.8-6.9,1.1-1.2,2.2-1.9,2.5-3.6.1-.8.1-1.9-.4-2.1s-1,.2-1.4.5c-.8.5-1,.9-1.2.8s0-.9-.3-1.9c-.1-.3-.4-1.4-1.2-1.5a1.5,1.5,0,0,0-1.4,1c-.5,1.1.7,2.1,1.1,3.9.4,2.2-.6,4.7-1.5,4.8s-2.5-2.4-2.7-4.8c-.1-1.9.7-2.8.2-5-.1-.5-.5-2.1-1.3-2.2s-1.3.9-1.5,1.1c-1.4,2.1-1.4,5.8.3,8.8,1.5,2.7,3.4,3,3.5,5.2.1,1.3-.5,2.9-1.3,3s-2-1.3-2.3-2.8.5-2.1,0-2.8-1.9-.1-2.8-1-.2-1.9-1.2-2.7a1.48,1.48,0,0,0-1.3-.4,1.77,1.77,0,0,0-.8,1.7c.1,1,1,1.3.9,1.9s-1.2.7-1.3,1.4a1.34,1.34,0,0,0,.7,1.4c1,.6,2.2-.7,2.9-.1a1.68,1.68,0,0,1,.3,1.9c-.8,1-3.1-.7-5,.5a2.44,2.44,0,0,0-1.2,2.4c.4.9,2.1,1.1,3.1,1,2-.1,2.6-1.4,4.4-1.1.3,0,1.5.2,1.8.9s-.4,1.5-.9,2.2c-.8,1-1.3,1.1-1.3,1.6s.4.7,2.3,1.9c2.1,1.2,2.7,1.6,2.7,2.1s-.5.8-1,1c-1.1.3-1.6-1-2.9-1-.9,0-2,.7-2,1.4-.1,1,1.6,1.9,2.8,2.3,2.1.7,2.8-.4,4.9.2a5.92,5.92,0,0,1,3.6,2.8C1881.5,556.5,1880.6,557.8,1881.2,558.3Z" opacity="0.3" fill="url(#p)" style="isolation:isolate"/><path d="M2127.5,288.7c-2,1.4-8.6-5.1-9.3-5.8-5.9-5.9-5.8-9-9.8-10.2-3.2-1-4.2.8-8.3-.6-1.2-.4-5.3-1.8-6-5-.4-1.6.2-3.8,1.2-4.1s3,1.3,4.4,2.7,1.3,1.9,2.3,2.5c1.8,1.2,4.9,1.5,6.4-.2s.8-4.3.6-4.8c-.6-2.3-2-2.5-2.3-4.6s.6-4.1,1.7-4.4c1.5-.3,3.7,3,4.6,6s-.1,3.9.8,8.7c.7,3.9,1.7,4.9,2.3,5.4a5.12,5.12,0,0,0,4.6,1c3.2-1.1,4.5-7.3,3.5-12s-4-7.8-10.2-13.7c-6.4-6.2-9.6-7.5-11-12s-.4-8.5,0-8.5.3,6,3.8,7.9c.8.4,2,.9,2.7.3,1.1-.9.1-4.1-.3-5.3-1-2.9-2.1-3.8-1.7-5.6,0-.2.4-1.7,1.4-2,1.2-.3,2.5,1.2,2.8,1.5,2.1,2.3,1.3,4.9,2.1,11.8.5,4.3,1.1,5.5,2.1,6.2,1.2.8,3.3.9,4.2-.1,1.1-1.2-.3-3.4-2.7-10.5-1.7-5-2.4-8-1.6-11.3.2-.9.7-3,1.9-3.2s2.7,2,3,2.5c3,4.8,0,8.3,1.4,14.8,1.4,6.3,4.8,5.8,5,11.2.2,5.1-2.7,8.7-.7,10.8a2.75,2.75,0,0,0,2.6.9c.9-.4.7-1.5,2-2.7.1-.1,1.5-1.5,2.4-1.1s.9,2.7.6,4.4c-.9,4.1-3.9,4.6-5.5,9.1-.1.2-1.4,4.2-.2,4.9s4.8-2.2,6.9-5.2a15,15,0,0,0,2.8-8.2c0-3-1.2-3.7-4-9.8-3.8-8.4-2.4-9.1-5.1-12.2-1.9-2.2-4-3.4-4.5-6.4-.2-1.4-.2-3.3.7-3.8.7-.3,1.7.3,2.5.8,1.4.8,1.7,1.6,2.1,1.5s0-1.6.6-3.4c.2-.5.8-2.5,2-2.7a2.72,2.72,0,0,1,2.5,1.7c.9,2-1.3,3.7-2,7-.7,3.9,1,8.4,2.7,8.6s4.5-4.2,4.7-8.6c.2-3.4-1.3-4.9-.4-8.8.2-.9.8-3.7,2.3-3.9,1.2-.2,2.4,1.6,2.7,2,2.5,3.8,2.5,10.3-.5,15.7-2.7,4.8-6.1,5.4-6.3,9.3-.1,2.4,1,5.1,2.4,5.4s3.6-2.3,4.1-4.9-.9-3.8,0-5.1c1.1-1.5,3.4-.2,4.9-1.9,1.4-1.5.4-3.4,2-4.7a2.44,2.44,0,0,1,2.3-.6c1,.4,1.5,1.9,1.4,3.1-.2,1.8-1.8,2.3-1.6,3.4s2.1,1.2,2.4,2.5a2.58,2.58,0,0,1-1.3,2.5c-1.8,1-3.9-1.2-5.2-.2a2.76,2.76,0,0,0-.5,3.3c1.4,1.8,5.6-1.2,8.8.9,1.5,1,2.6,3,2.1,4.3-.6,1.7-3.7,2-5.6,1.9-3.6-.2-4.6-2.4-7.9-2-.5.1-2.6.3-3.1,1.5s.7,2.7,1.6,3.9c1.4,1.9,2.3,2,2.3,2.9s-.8,1.3-4.2,3.3c-3.7,2.2-4.9,2.8-4.8,3.7a2.13,2.13,0,0,0,1.8,1.7c1.9.5,2.9-1.8,5.1-1.7,1.7,0,3.5,1.3,3.6,2.5.1,1.7-2.9,3.4-5.1,4.1-3.8,1.2-5.1-.6-8.7.4-.5.1-4.7,1.4-6.4,5C2127.1,285.6,2128.7,287.9,2127.5,288.7Z" opacity="0.3" fill="url(#q)" style="isolation:isolate"/><path d="M1995.2,452.2c-2.7,1.8-11.2-6.6-12.2-7.6-7.7-7.7-7.6-11.7-12.8-13.3-4.1-1.3-5.5,1-10.8-.8-1.6-.5-6.9-2.3-7.9-6.5-.5-2.2.2-4.9,1.6-5.4,1.6-.6,3.9,1.7,5.7,3.5,1.9,2,1.8,2.5,3,3.3,2.3,1.5,6.4,1.9,8.4-.3s1-5.6.8-6.2c-.8-3-2.6-3.3-3-6-.3-2.4.7-5.4,2.2-5.7,1.9-.4,4.8,3.9,6,7.9s-.1,5.1,1.1,11.4c1,5.1,2.2,6.4,3,7a6.88,6.88,0,0,0,6,1.4c4.2-1.5,5.8-9.5,4.6-15.7s-5.2-10.1-13.3-17.9c-8.3-8-12.5-9.7-14.4-15.7s-.5-11.1,0-11.1.4,7.8,5,10.4c1,.5,2.6,1.1,3.5.4,1.5-1.2.1-5.4-.4-6.9-1.3-3.8-2.8-4.9-2.2-7.2,0-.2.5-2.2,1.8-2.6,1.5-.4,3.3,1.5,3.6,1.9,2.7,3,1.7,6.4,2.8,15.3.7,5.6,1.4,7.2,2.8,8.1,1.6,1,4.3,1.2,5.4-.1,1.4-1.6-.4-4.5-3.5-13.7-2.2-6.5-3.1-10.4-2.1-14.7.3-1.1.9-3.9,2.4-4.1,1.7-.3,3.5,2.6,3.9,3.3,3.9,6.2,0,10.8,1.8,19.3,1.8,8.2,6.2,7.6,6.5,14.6.3,6.6-3.6,11.4-1,14.1.8.8,2.3,1.6,3.4,1.2s.9-1.9,2.6-3.5c.2-.2,2-2,3.1-1.5s1.2,3.5.8,5.8c-1.1,5.4-5.1,6-7.1,11.9-.1.3-1.8,5.4-.3,6.4s6.2-2.9,9-6.8a18.53,18.53,0,0,0,3.6-10.6c0-4-1.6-4.8-5.2-12.8-4.9-10.9-3.1-11.9-6.6-16-2.5-2.9-5.2-4.5-5.9-8.3-.3-1.8-.2-4.4,1-4.9.9-.4,2.3.4,3.3,1.1,1.8,1.1,2.3,2.1,2.8,1.9s0-2,.7-4.5c.2-.7,1-3.2,2.7-3.5,1.2-.2,2.7.9,3.3,2.2,1.2,2.6-1.7,4.8-2.6,9.2-1,5.1,1.4,11,3.5,11.2s5.9-5.5,6.2-11.2c.2-4.4-1.7-6.5-.5-11.5.2-1.1,1.1-4.8,3-5.1,1.6-.2,3.1,2,3.5,2.7,3.3,4.9,3.3,13.5-.6,20.5-3.6,6.3-7.9,7-8.2,12.1-.2,3.1,1.2,6.7,3.1,7s4.7-3.1,5.3-6.4-1.2-4.9,0-6.6c1.4-2,4.4-.3,6.4-2.5,1.8-1.9.5-4.4,2.7-6.2.2-.1,1.7-1.3,3-.9s2,2.5,1.8,4c-.3,2.4-2.3,3-2,4.5s2.7,1.6,3.1,3.3a3.48,3.48,0,0,1-1.7,3.3c-2.3,1.3-5.1-1.5-6.8-.3a3.42,3.42,0,0,0-.8,4.5c1.8,2.3,7.3-1.6,11.5,1.2,2,1.3,3.4,3.9,2.8,5.6-.8,2.2-4.9,2.6-7.2,2.5-4.7-.3-6-3.2-10.3-2.7-.7.1-3.4.4-4,2s1,3.6,2.1,5.1c1.8,2.4,3,2.6,3,3.7s-1,1.7-5.4,4.4c-4.8,2.9-6.3,3.6-6.3,4.8s1.2,2,2.3,2.2c2.5.6,3.7-2.3,6.7-2.2,2.2,0,4.5,1.7,4.7,3.3.2,2.2-3.7,4.4-6.6,5.3-5,1.6-6.6-.8-11.4.5-.6.2-6.2,1.9-8.3,6.5C1994.7,448.2,1996.8,451.3,1995.2,452.2Z" opacity="0.3" fill="url(#r)" style="isolation:isolate"/><path d="M2123.5,213.2c1.4.9,5.8-3.4,6.3-3.9,4-3.9,3.9-6,6.6-6.8,2.1-.6,2.8.5,5.6-.4.8-.3,3.6-1.2,4-3.4.3-1.1-.1-2.5-.8-2.8s-2,.9-2.9,1.8-.9,1.2-1.5,1.7c-1.2.8-3.3,1-4.3-.1s-.5-2.9-.4-3.2c.4-1.6,1.3-1.7,1.5-3.1s-.4-2.8-1.1-2.9c-1-.2-2.4,2-3.1,4s0,2.6-.6,5.9c-.5,2.6-1.1,3.3-1.5,3.6a3.49,3.49,0,0,1-3.1.7c-2.1-.8-3-4.9-2.4-8.1s2.7-5.2,6.8-9.2c4.3-4.1,6.4-5,7.4-8.1s.3-5.7,0-5.7-.2,4-2.6,5.3c-.5.3-1.4.6-1.8.2-.8-.6-.1-2.8.2-3.6.6-2,1.4-2.5,1.1-3.7,0-.1-.3-1.1-.9-1.3s-1.7.8-1.9,1c-1.4,1.5-.9,3.3-1.4,7.9-.3,2.9-.7,3.7-1.4,4.2a2.26,2.26,0,0,1-2.8-.1c-.7-.8.2-2.3,1.8-7.1,1.1-3.4,1.6-5.4,1.1-7.6-.1-.6-.5-2-1.3-2.1s-1.8,1.3-2,1.7c-2,3.2,0,5.6-.9,9.9s-3.2,3.9-3.3,7.5c-.1,3.4,1.8,5.8.5,7.2a1.93,1.93,0,0,1-1.8.6c-.6-.2-.5-1-1.3-1.8-.1-.1-1-1-1.6-.8s-.6,1.8-.4,3c.6,2.8,2.6,3.1,3.7,6.1.1.1.9,2.8.2,3.3s-3.2-1.5-4.6-3.5a9.86,9.86,0,0,1-1.9-5.5c0-2,.8-2.4,2.7-6.6,2.5-5.6,1.6-6.1,3.4-8.2,1.3-1.5,2.7-2.3,3-4.3.2-.9.1-2.2-.5-2.5s-1.2.2-1.7.6c-.9.6-1.2,1.1-1.4,1s0-1.1-.4-2.3c-.1-.3-.5-1.7-1.4-1.8a2,2,0,0,0-1.7,1.1c-.6,1.4.9,2.4,1.3,4.7.5,2.6-.7,5.6-1.8,5.8s-3-2.8-3.2-5.8c-.1-2.3.9-3.3.3-5.9-.1-.6-.6-2.5-1.5-2.6s-1.6,1-1.8,1.4c-1.7,2.5-1.7,6.9.3,10.5,1.8,3.2,4.1,3.6,4.2,6.2.1,1.6-.6,3.5-1.6,3.6s-2.4-1.6-2.7-3.3.6-2.5,0-3.4-2.2-.1-3.3-1.3-.2-2.2-1.4-3.2a1.67,1.67,0,0,0-1.5-.4,2,2,0,0,0-.9,2.1c.1,1.2,1.2,1.5,1,2.3s-1.4.8-1.6,1.7a1.68,1.68,0,0,0,.9,1.7c1.2.7,2.6-.8,3.5-.2a1.7,1.7,0,0,1,.3,2.2c-.9,1.2-3.8-.8-5.9.6-1,.7-1.8,2-1.4,2.9.4,1.1,2.5,1.3,3.7,1.3,2.4-.2,3.1-1.6,5.3-1.4.4,0,1.8.2,2.1,1s-.5,1.8-1.1,2.6c-.9,1.2-1.5,1.4-1.5,1.9s.5.9,2.8,2.2c2.5,1.5,3.2,1.9,3.2,2.5s-.6,1-1.2,1.1c-1.3.3-1.9-1.2-3.4-1.1a2.56,2.56,0,0,0-2.4,1.7c-.1,1.1,1.9,2.3,3.4,2.7,2.6.8,3.4-.4,5.9.3a7.16,7.16,0,0,1,4.3,3.3C2123.8,211.1,2122.8,212.7,2123.5,213.2Z" opacity="0.3" fill="url(#s)" style="isolation:isolate"/><path d="M2154.5,475.1c1.8,1.2,7.5-4.5,8.2-5.1,5.2-5.1,5.1-7.9,8.6-8.9,2.8-.9,3.7.7,7.3-.5,1-.4,4.6-1.6,5.3-4.4.3-1.5-.1-3.3-1.1-3.6s-2.6,1.1-3.8,2.4-1.2,1.6-2,2.2c-1.6,1-4.3,1.3-5.6-.2s-.7-3.8-.6-4.2c.5-2,1.8-2.2,2-4s-.5-3.6-1.4-3.8c-1.3-.2-3.2,2.6-4,5.3s.1,3.4-.7,7.6c-.6,3.4-1.4,4.3-2,4.7a4.45,4.45,0,0,1-4,.9c-2.8-1-3.9-6.4-3.1-10.5s3.5-6.8,8.9-12c5.6-5.4,8.4-6.5,9.6-10.5s.4-7.4,0-7.5-.3,5.2-3.4,7c-.7.4-1.8.8-2.4.3-1-.8-.1-3.6.3-4.6.8-2.5,1.8-3.3,1.5-4.9,0-.2-.3-1.5-1.2-1.7s-2.2,1-2.4,1.3c-1.8,2-1.1,4.3-1.9,10.3-.4,3.8-.9,4.8-1.9,5.4s-2.9.8-3.6-.1c-1-1.1.2-3,2.4-9.2,1.5-4.4,2.1-7,1.4-9.9-.2-.8-.6-2.6-1.6-2.8s-2.4,1.7-2.6,2.2c-2.6,4.2,0,7.2-1.2,12.9-1.2,5.5-4.2,5.1-4.4,9.8-.2,4.4,2.4,7.6.6,9.4a2.26,2.26,0,0,1-2.3.8c-.8-.3-.6-1.3-1.7-2.4-.1-.1-1.3-1.3-2.1-1s-.8,2.3-.5,3.9c.8,3.6,3.4,4,4.8,8,.1.2,1.2,3.6.2,4.3s-4.2-1.9-6-4.6a12.38,12.38,0,0,1-2.4-7.1c0-2.7,1.1-3.2,3.5-8.6,3.3-7.3,2-8,4.4-10.7,1.7-1.9,3.5-3,3.9-5.6.2-1.2.2-2.9-.6-3.3-.6-.3-1.5.3-2.2.7-1.2.7-1.5,1.4-1.9,1.3s0-1.4-.5-3c-.1-.5-.7-2.2-1.8-2.4a2.29,2.29,0,0,0-2.2,1.5c-.8,1.8,1.2,3.2,1.7,6.1.6,3.4-.9,7.4-2.4,7.5s-3.9-3.7-4.1-7.5c-.2-3,1.1-4.3.4-7.7-.2-.7-.7-3.2-2-3.4-1.1-.1-2.1,1.4-2.4,1.8-2.2,3.3-2.2,9,.4,13.7,2.4,4.2,5.3,4.7,5.5,8.1.1,2.1-.8,4.5-2.1,4.7s-3.2-2-3.6-4.3.8-3.3,0-4.4c-.9-1.3-2.9-.2-4.3-1.6-1.2-1.3-.3-2.9-1.8-4.1a2.42,2.42,0,0,0-2-.6c-.9.3-1.3,1.7-1.2,2.7.2,1.6,1.6,2,1.4,3s-1.8,1.1-2.1,2.2a2.32,2.32,0,0,0,1.1,2.2c1.6.9,3.4-1,4.6-.2a2.3,2.3,0,0,1,.4,2.9c-1.2,1.6-4.9-1.1-7.7.8-1.3.9-2.3,2.6-1.9,3.8.6,1.5,3.3,1.8,4.9,1.6,3.2-.2,4.1-2.1,6.9-1.8.4,0,2.3.3,2.7,1.4s-.6,2.4-1.4,3.4c-1.2,1.6-2,1.8-2,2.5s.7,1.2,3.6,2.9c3.2,1.9,4.2,2.4,4.2,3.2s-.8,1.3-1.6,1.5c-1.7.4-2.5-1.5-4.5-1.5-1.5,0-3,1.1-3.1,2.2-.1,1.5,2.5,3,4.4,3.6,3.3,1,4.4-.6,7.6.4.4.1,4.1,1.2,5.6,4.4C2154.9,472.4,2153.5,474.5,2154.5,475.1Z" opacity="0.3" fill="url(#t)" style="isolation:isolate"/><path d="M2093.7,265.2c.8.5,3.2-1.9,3.5-2.2,2.2-2.2,2.2-3.4,3.7-3.8,1.2-.4,1.6.3,3.1-.2.4-.1,2-.7,2.3-1.9.1-.6-.1-1.4-.5-1.6s-1.1.5-1.6,1-.5.7-.9.9a2,2,0,0,1-2.4-.1,1.91,1.91,0,0,1-.2-1.8c.2-.9.8-1,.9-1.7s-.2-1.6-.6-1.6-1.4,1.1-1.7,2.3,0,1.5-.3,3.3c-.3,1.5-.6,1.8-.9,2a2.09,2.09,0,0,1-1.7.4c-1.2-.4-1.7-2.7-1.3-4.5s1.5-2.9,3.8-5.2,3.6-2.8,4.1-4.5a4.42,4.42,0,0,0,0-3.2c-.2,0-.1,2.2-1.4,3-.3.2-.8.3-1,.1-.4-.3,0-1.5.1-2,.4-1.1.8-1.4.6-2.1,0-.1-.1-.6-.5-.7s-.9.4-1,.6c-.8.9-.5,1.8-.8,4.4-.2,1.6-.4,2.1-.8,2.3a1.53,1.53,0,0,1-1.6,0c-.4-.5.1-1.3,1-4,.6-1.9.9-3,.6-4.2-.1-.3-.3-1.1-.7-1.2s-1,.7-1.1,1c-1.1,1.8,0,3.1-.5,5.6s-1.8,2.2-1.9,4.2,1,3.3.3,4a.91.91,0,0,1-1,.3c-.3-.1-.3-.6-.7-1-.1-.1-.6-.6-.9-.4s-.4,1-.2,1.7c.3,1.5,1.5,1.7,2.1,3.4,0,.1.5,1.6.1,1.8s-1.8-.8-2.6-2a5.71,5.71,0,0,1-1-3.1c0-1.1.5-1.4,1.5-3.7,1.4-3.1.9-3.4,1.9-4.6.7-.8,1.5-1.3,1.7-2.4.1-.5.1-1.3-.3-1.4s-.6.1-1,.3-.6.6-.8.6,0-.6-.2-1.3c-.1-.2-.3-.9-.8-1a1.1,1.1,0,0,0-1,.6c-.3.8.5,1.4.7,2.6.3,1.5-.4,3.2-1,3.2s-1.7-1.6-1.8-3.2c-.1-1.3.5-1.9.1-3.3-.1-.3-.3-1.4-.9-1.5s-.9.6-1,.8a5.92,5.92,0,0,0,.2,5.9c1,1.8,2.3,2,2.4,3.5,0,.9-.4,1.9-.9,2s-1.4-.9-1.5-1.8.3-1.4,0-1.9-1.3-.1-1.8-.7-.1-1.3-.8-1.8a1,1,0,0,0-.9-.2c-.4.1-.6.7-.5,1.2.1.7.7.9.6,1.3s-.8.4-.9,1a.88.88,0,0,0,.5,1c.7.4,1.5-.4,2-.1a1.06,1.06,0,0,1,.2,1.3c-.5.7-2.1-.5-3.3.3a1.55,1.55,0,0,0-.8,1.6c.2.6,1.4.8,2.1.7,1.4-.1,1.7-.9,3-.8.2,0,1,.1,1.2.6s-.3,1-.6,1.5c-.5.7-.9.8-.9,1.1s.3.5,1.6,1.3,1.8,1,1.8,1.4a.66.66,0,0,1-.7.6c-.7.2-1.1-.7-1.9-.6a1.54,1.54,0,0,0-1.4,1c-.1.6,1.1,1.3,1.9,1.5,1.4.5,1.9-.2,3.3.2a3.8,3.8,0,0,1,2.4,1.9C2093.9,264,2093.3,264.9,2093.7,265.2Z" opacity="0.3" fill="url(#u)" style="isolation:isolate"/></svg>