<svg xmlns="http://www.w3.org/2000/svg" xmlns:xlink="http://www.w3.org/1999/xlink" width="2225.2" height="622.2" viewBox="0 0 2225.2 622.2"><defs><linearGradient id="a" x1="410.83" y1="-86.04" x2="427.9" y2="-137.35" gradientTransform="translate(0 244)" gradientUnits="userSpaceOnUse"><stop offset="0" stop-color="#452e42" stop-opacity="0"/><stop offset="0.65" stop-color="#c1b9c0" stop-opacity="0.46"/><stop offset="1" stop-color="#fff" stop-opacity="0.7"/></linearGradient><linearGradient id="b" x1="286.34" y1="-143.18" x2="324.64" y2="-176.39" gradientTransform="translate(0 244)" gradientUnits="userSpaceOnUse"><stop offset="0" stop-color="#2168b6" stop-opacity="0"/><stop offset="0.31" stop-color="#4284b6" stop-opacity="0.27"/><stop offset="0.62" stop-color="#5e9cb7" stop-opacity="0.5"/><stop offset="0.86" stop-color="#6fabb7" stop-opacity="0.65"/><stop offset="1" stop-color="#75b0b7" stop-opacity="0.7"/></linearGradient><linearGradient id="c" x1="99.97" y1="-181.32" x2="154.27" y2="-228.39" xlink:href="#b"/><linearGradient id="d" x1="311.72" y1="-194.83" x2="327.2" y2="-208.25" xlink:href="#b"/><linearGradient id="e" x1="370.68" y1="-66.58" x2="408.99" y2="-99.79" xlink:href="#b"/><linearGradient id="f" x1="239.15" y1="94.8" x2="278.61" y2="60.59" xlink:href="#b"/><linearGradient id="g" x1="61.69" y1="-69.72" x2="101.13" y2="-103.9" xlink:href="#b"/><linearGradient id="h" x1="91.44" y1="129.82" x2="130.91" y2="95.59" xlink:href="#b"/><linearGradient id="i" x1="2124.94" y1="280.63" x2="2164.43" y2="246.4" xlink:href="#b"/><linearGradient id="j" x1="2040.44" y1="341.63" x2="2079.92" y2="307.4" xlink:href="#b"/><linearGradient id="k" x1="5286.31" y1="53.96" x2="5283.31" y2="33.5" gradientTransform="matrix(-1, 0, 0, 1, 7329.05, 244)" gradientUnits="userSpaceOnUse"><stop offset="0" stop-color="#2168b6" stop-opacity="0.2"/><stop offset="1" stop-color="#0b6640" stop-opacity="0.7"/></linearGradient></defs><path d="M419.6,144.7c1,.6,4.1-2.4,4.5-2.8,2.8-2.8,2.8-4.3,4.6-4.9,1.5-.5,2,.4,4-.3.6-.2,2.5-.8,2.9-2.4.2-.8-.1-1.8-.6-2s-1.4.6-2.1,1.3-.6.9-1.1,1.2a2.71,2.71,0,0,1-3.1-.1,2.67,2.67,0,0,1-.3-2.3c.3-1.1,1-1.2,1.1-2.2s-.3-2-.8-2.1c-.7-.1-1.7,1.4-2.2,2.9s0,1.9-.4,4.2c-.4,1.9-.8,2.3-1.1,2.6a2.47,2.47,0,0,1-2.2.5c-1.5-.5-2.1-3.5-1.7-5.7s1.9-3.7,4.9-6.5,4.6-3.6,5.2-5.7.2-4,0-4-.1,2.8-1.8,3.8c-.4.2-1,.4-1.3.2-.5-.4,0-2,.2-2.5.5-1.4,1-1.8.8-2.7,0-.1-.2-.8-.7-.9s-1.2.6-1.3.7c-1,1.1-.6,2.3-1,5.6-.2,2.1-.5,2.6-1,3a1.82,1.82,0,0,1-2,0c-.5-.6.1-1.6,1.3-5,.8-2.4,1.1-3.8.8-5.4-.1-.4-.3-1.4-.9-1.5s-1.3.9-1.4,1.2c-1.4,2.3,0,4-.7,7s-2.3,2.8-2.4,5.3,1.3,4.1.4,5.1a1.15,1.15,0,0,1-1.2.4c-.4-.2-.3-.7-.9-1.3-.1-.1-.7-.7-1.1-.6s-.5,1.3-.3,2.1c.4,2,1.9,2.2,2.6,4.4,0,.1.7,2,.1,2.3s-2.3-1.1-3.3-2.5a6.76,6.76,0,0,1-1.3-3.9c0-1.4.6-1.7,1.9-4.7,1.8-4,1.1-4.3,2.4-5.8.9-1,1.9-1.6,2.1-3,.1-.7.1-1.6-.4-1.8s-.8.2-1.2.4c-.6.4-.8.8-1,.7s0-.8-.3-1.6c-.1-.2-.4-1.2-1-1.3a1.3,1.3,0,0,0-1.2.8c-.4,1,.6,1.7.9,3.3.3,1.9-.5,4-1.3,4.1s-2.1-2-2.2-4.1c-.1-1.6.6-2.3.2-4.2-.1-.4-.4-1.8-1.1-1.9s-1.1.7-1.3,1c-1.2,1.8-1.2,4.9.2,7.5,1.3,2.3,2.9,2.6,3,4.4.1,1.1-.5,2.5-1.1,2.6s-1.7-1.1-1.9-2.3.4-1.8,0-2.4-1.6-.1-2.3-.9-.2-1.6-1-2.2c-.1,0-.6-.5-1.1-.3a1.49,1.49,0,0,0-.7,1.5c.1.9.8,1.1.7,1.6s-1,.6-1.1,1.2a1.14,1.14,0,0,0,.6,1.2c.9.5,1.9-.6,2.5-.1a1.36,1.36,0,0,1,.2,1.6c-.7.8-2.7-.6-4.2.4a2.1,2.1,0,0,0-1,2.1c.3.8,1.8,1,2.6.9,1.7-.1,2.2-1.2,3.8-1,.2,0,1.3.1,1.5.7s-.4,1.3-.8,1.9c-.7.9-1.1,1-1.1,1.4s.4.6,2,1.6,2.3,1.3,2.3,1.8-.4.7-.9.8c-.9.2-1.4-.8-2.5-.8-.8,0-1.7.6-1.7,1.2-.1.8,1.4,1.6,2.4,1.9,1.8.6,2.4-.3,4.2.2a4.83,4.83,0,0,1,3,2.4C419.8,143.2,419,144.4,419.6,144.7Z" opacity="0.3" fill="url(#a)" style="isolation:isolate"/><path d="M306.2,116.9c-4.2-.4-7.3-3.3-13.4-9-7.4-7-8.6-12.1-8.9-14.2-.4-2.7-.1-4.8.2-4.9s1,3.4,3.8,6.6c.6.7,1.5,1.6,2,1.4.8-.3.2-3.4-.4-5.6-1.7-5.8-4.6-6.2-5.9-11.2-.9-3.3-.5-7.1.4-7.3s2,1.8,2.5,2.7c3,5.3,2.2,10.4,3,10.4.5,0,1.5-1.8,1.1-3.3-.3-1.1-1.1-1.3-1.3-2.5-.1-1,.3-2.1.8-2.2s1.2,1,1.4,1.5c2,3.7,1.2,10.1,1.9,15.3s3.1,10.1,4.3,10,1.8-5.2,1.1-9.9c-.5-3.4-1.6-4.8-3.7-9.4-4.8-10.6-5.8-17.4-5.6-22.4,0-1,.2-4.4,1-4.5s1.8,2.7,2,3.4c2.6,7.2.2,12.2,3.5,16.2.7.8,1.5,1.5,1.8,1.3.5-.3-.5-2.3-.2-5.3.1-.8.2-2.3.8-2.4.8-.2,2,2.3,2.6,4,1.3,3.6.7,5.7.6,11.6-.1,5.7-.2,11,2,11.8a1.81,1.81,0,0,0,1.6-.1c1.2-1.6.5-12.2-.1-21.1-.5-6.2-4.2-8.7-4.3-15.1,0-2.4.2-6.1,1.2-6.3s2.2,3.2,2.4,3.8c1,2.7.4,8,1.5,8s-.1-5.4.8-8.4c.3-1.1.8-2.5,1.3-2.5s1,1.9,1.1,2.5c1.4,7-.1,27.8.1,39.2.1,2.6.2,4.4.7,4.5,1.1.2,3.5-6.6,4.5-13a35.56,35.56,0,0,0,.1-12.6c-.8-3.9-2.1-5.9-2.3-10.6a20.63,20.63,0,0,1,1.1-6.5c.8-2.4,1.3-2.6,1.5-2.6.7,0,1.4,1.4,1.7,2.6.9,3.5-1.8,5.5-.6,8.6.3.8,1,1.9,1.5,1.9s.8-1.4.9-1.6c.3-1.6-.5-2.3-.1-3.5.3-.9,1.1-1.8,1.7-1.7s.9,1.8,1,2.4c.6,4.4-1.8,6.4-1.6,11.1.1,1.1.3,3.1.9,3.2.8.1,1.9-3.7,2-4,.9-3.3.5-4.5,1.7-6.5.6-1,1.7-2.2,2.2-2s.3,1.9.1,3.1c-2.4,14.8-6.9,21.7-6.9,21.7a52.28,52.28,0,0,0-4.8,10.8c-.2.6-.5,1.8,0,2.3s1.7-.1,2.1-.3a13.85,13.85,0,0,0,7.1-8.9c.1-.7.1-.6.5-10.3,0-.9.1-2.8,1.4-3.5a2.49,2.49,0,0,1,1.7-.3,2.26,2.26,0,0,1,1.4,1.3c.8,1.8-1.4,3.3-2.4,7.5-.4,1.8-.5,3.6-.1,3.8s.5-.6,1.4-1.3,2.5-1.2,3-.8c.7.7-1.1,3.4-1.6,4.2C324.4,105.4,316.5,117.9,306.2,116.9Z" opacity="0.5" fill="url(#b)" style="isolation:isolate"/><path d="M128.2,85.6c-6-.6-10.3-4.7-19-12.8C98.7,62.9,97,55.6,96.5,52.7c-.6-3.8-.2-6.8.3-6.9.7-.1,1.4,4.9,5.4,9.3.8.9,2.1,2.3,2.8,1.9,1.1-.5.3-4.8-.6-7.9C102,41,97.8,40.3,96,33.3c-1.2-4.8-.8-10,.6-10.4,1.1-.3,2.8,2.6,3.5,3.8,4.3,7.5,3.1,14.7,4.3,14.8.7.1,2.1-2.6,1.5-4.7-.4-1.5-1.6-1.8-1.8-3.5-.2-1.4.4-3,1.1-3.1s1.7,1.5,2,2.2c2.9,5.3,1.7,14.3,2.8,21.7,1,7.2,4.3,14.3,6,14.1s2.6-7.4,1.5-14c-.8-4.9-2.2-6.9-5.2-13.4-6.8-15-8.2-24.7-8-31.8,0-1.3.2-6.3,1.4-6.4s2.5,3.8,2.9,4.8c3.7,10.4.2,17.4,4.9,23.1,1,1.2,2.1,2.1,2.6,1.8.7-.4-.8-3.2-.3-7.5.1-1.1.3-3.2,1.1-3.4,1.1-.2,2.8,3.3,3.7,5.6,1.9,5.1,1,8.1.8,16.5-.2,8.1-.3,15.5,2.9,16.8a2.81,2.81,0,0,0,2.2-.1c1.7-2.3.8-17.3-.2-29.9-.7-8.8-6-12.3-6.1-21.4,0-3.4.3-8.7,1.6-8.9s3.1,4.6,3.4,5.4c1.4,3.9.5,11.4,2.1,11.4s-.1-7.6,1.2-11.9c.5-1.5,1.1-3.6,1.8-3.6s1.4,2.7,1.5,3.6c2,9.9-.2,39.4.1,55.6.1,3.7.3,6.2,1,6.3,1.5.3,5-9.3,6.3-18.4.8-5.1,1.6-10.8.1-17.9-1.2-5.5-3-8.4-3.3-15a29.22,29.22,0,0,1,1.5-9.3c1.1-3.4,1.8-3.7,2.1-3.7,1,0,2,2,2.5,3.7,1.2,5-2.5,7.8-.9,12.2.4,1.2,1.4,2.8,2.1,2.7s1.2-2,1.2-2.2c.4-2.3-.8-3.2-.2-5,.4-1.3,1.6-2.5,2.4-2.4,1,.2,1.3,2.6,1.4,3.5.8,6.2-2.6,9.1-2.2,15.7.1,1.6.4,4.4,1.2,4.5,1.1.1,2.7-5.2,2.9-5.7,1.3-4.6.6-6.4,2.5-9.2.9-1.4,2.4-3.1,3.2-2.8s.5,2.7.2,4.4c-3.4,20.9-9.7,30.7-9.7,30.7a67.1,67.1,0,0,0-6.7,15.3c-.3.9-.8,2.6,0,3.3s2.4-.1,3-.4c8.2-3.9,10.1-12.6,10.1-12.6.2-1,.1-.9.7-14.6.1-1.2.2-3.9,1.9-5a3.09,3.09,0,0,1,2.5-.4,3.55,3.55,0,0,1,2,1.8c1.1,2.5-2,4.8-3.4,10.6-.6,2.6-.7,5.1-.1,5.3.4.1.7-.9,2-1.8s3.6-1.7,4.2-1.1c.9.9-1.5,4.9-2.2,6C153.9,69.2,142.8,87,128.2,85.6Z" opacity="0.5" fill="url(#c)" style="isolation:isolate"/><path d="M319.8,55.7c-1.7-.2-2.9-1.3-5.4-3.7-3-2.8-3.5-4.9-3.6-5.7a3.24,3.24,0,0,1,.1-2,11.74,11.74,0,0,0,1.5,2.7,1.41,1.41,0,0,0,.8.6c.2,0,.1-1.4-.2-2.2-.7-2.3-1.9-2.5-2.4-4.5-.3-1.4-.2-2.9.2-3s.8.8,1,1.1c1.2,2.1.9,4.2,1.2,4.2s.6-.7.4-1.3c-.1-.4-.5-.5-.5-1s.1-.8.3-.9.5.4.6.6c.8,1.5.5,4.1.8,6.2s1.2,4.1,1.7,4,.7-2.1.4-4a13.68,13.68,0,0,0-1.5-3.8c-2-4.3-2.4-7-2.3-9.1,0-.4.1-1.8.4-1.8s.7,1.1.8,1.4c1,3,.1,4.9,1.4,6.6.3.3.6.6.7.5s-.2-.9-.1-2.1c0-.3.1-.9.3-1s.8.9,1,1.6c.5,1.4.3,2.3.2,4.7s-.1,4.4.8,4.8a.64.64,0,0,0,.6,0c.5-.7.2-5-.1-8.5-.2-2.5-1.7-3.5-1.8-6.1,0-1,.1-2.5.5-2.5s.9,1.3,1,1.5c.4,1.1.1,3.2.6,3.2s0-2.2.3-3.4c.1-.4.3-1,.5-1s.4.8.4,1c.6,2.8-.1,11.2,0,15.9,0,1.1.1,1.8.3,1.8.4.1,1.4-2.7,1.8-5.2a14.56,14.56,0,0,0,0-5.1,15.69,15.69,0,0,1-.9-4.3,8.42,8.42,0,0,1,.4-2.7c.3-1,.5-1,.6-1,.3,0,.6.6.7,1,.4,1.4-.7,2.2-.3,3.5.1.3.4.8.6.8s.3-.6.4-.6c.1-.7-.2-.9-.1-1.4a.82.82,0,0,1,.7-.7c.2,0,.4.7.4,1,.2,1.8-.7,2.6-.6,4.5,0,.5.1,1.2.4,1.3s.8-1.5.8-1.6c.4-1.3.2-1.8.7-2.6.2-.4.7-.9.9-.8s.1.8.1,1.2c-1,6-2.8,8.7-2.8,8.7a18.89,18.89,0,0,0-1.9,4.4c-.1.2-.2.8,0,.9a1.06,1.06,0,0,0,.8-.1,5.55,5.55,0,0,0,2.9-3.6c.1-.3,0-.2.2-4.2a2.17,2.17,0,0,1,.5-1.4.86.86,0,0,1,1.2.3.35.35,0,0,1,.1.2c.3.7-.6,1.3-1,3-.2.7-.2,1.5,0,1.5s.2-.2.6-.5,1-.5,1.2-.3-.4,1.4-.6,1.7C327.1,51,323.9,56.1,319.8,55.7Z" opacity="0.5" fill="url(#d)" style="isolation:isolate"/><path d="M390.6,193.5c-4.2-.4-7.3-3.3-13.4-9-7.4-7-8.6-12.1-9-14.2-.4-2.7-.1-4.8.2-4.9s1,3.4,3.8,6.6c.6.7,1.5,1.6,1.9,1.4.8-.3.2-3.4-.4-5.6-1.7-5.8-4.6-6.2-5.9-11.2-.9-3.4-.5-7.1.4-7.4s2,1.9,2.5,2.7c3,5.3,2.2,10.4,3,10.5.5,0,1.5-1.8,1.1-3.3-.3-1.1-1.1-1.3-1.3-2.4s.3-2.1.8-2.2,1.2,1,1.4,1.5c2.1,3.7,1.2,10.1,2,15.3s3,10.1,4.2,10,1.8-5.2,1.1-9.9c-.5-3.4-1.6-4.9-3.7-9.4-4.8-10.6-5.8-17.4-5.6-22.4,0-.9.2-4.4,1-4.5s1.8,2.7,2,3.4c2.6,7.3.2,12.2,3.5,16.3.7.9,1.5,1.5,1.8,1.3.5-.3-.5-2.3-.2-5.3.1-.8.2-2.3.8-2.4.8-.1,2,2.3,2.6,4,1.3,3.6.7,5.7.6,11.6-.1,5.7-.2,11,2,11.8a1.81,1.81,0,0,0,1.6-.1c1.2-1.6.5-12.2-.1-21.1-.5-6.2-4.2-8.7-4.3-15.1,0-2.4.2-6.1,1.1-6.3s2.2,3.2,2.4,3.8c1,2.7.4,8,1.5,8s-.1-5.4.8-8.4c.3-1.1.8-2.5,1.3-2.5s1,1.9,1.1,2.5c1.4,6.9-.1,27.8.1,39.2,0,2.6.2,4.4.7,4.5,1.1.2,3.5-6.6,4.5-13a35.56,35.56,0,0,0,.1-12.6c-.8-3.9-2.1-5.9-2.3-10.6a21.74,21.74,0,0,1,1.1-6.6c.8-2.4,1.3-2.6,1.5-2.6.7,0,1.4,1.4,1.7,2.6.9,3.5-1.8,5.5-.6,8.6.3.8,1,2,1.5,1.9s.8-1.4.9-1.6c.3-1.6-.5-2.3-.1-3.5.3-.9,1.1-1.8,1.7-1.7s.9,1.8,1,2.4c.6,4.4-1.8,6.4-1.6,11.1,0,1.1.3,3.1.9,3.2.8.1,1.9-3.7,2-4,.9-3.2.5-4.5,1.7-6.5.6-1,1.7-2.2,2.2-2s.4,1.9.1,3.1c-2.4,14.7-6.9,21.6-6.9,21.6a47.14,47.14,0,0,0-4.7,10.8c-.2.6-.5,1.9,0,2.3s1.7-.1,2.1-.3a13.85,13.85,0,0,0,7.1-8.9c.2-.7.1-.6.5-10.3,0-.9.1-2.8,1.4-3.5a2.49,2.49,0,0,1,1.7-.3,2.73,2.73,0,0,1,1.5,1.3c.8,1.8-1.4,3.4-2.4,7.5-.4,1.8-.5,3.6-.1,3.8s.5-.6,1.4-1.3,2.5-1.2,3-.8c.7.7-1.1,3.4-1.6,4.2C408.7,182,400.9,194.5,390.6,193.5Z" opacity="0.5" fill="url(#e)" style="isolation:isolate"/><path d="M259.6,355.4c-4.3-.4-7.5-3.4-13.8-9.3-7.6-7.2-8.9-12.5-9.2-14.6-.4-2.8-.1-5,.2-5s1,3.5,3.9,6.8c.6.7,1.5,1.6,2,1.4.8-.4.2-3.5-.4-5.7-1.8-5.9-4.8-6.4-6.1-11.5-.9-3.5-.6-7.3.4-7.6.8-.2,2,1.9,2.5,2.8,3.1,5.4,2.3,10.7,3.1,10.8.5,0,1.6-1.9,1.1-3.4-.3-1.1-1.2-1.3-1.3-2.5-.1-1,.3-2.1.8-2.2s1.2,1,1.5,1.6c2.1,3.9,1.2,10.4,2,15.8s3.1,10.4,4.4,10.2,1.9-5.4,1.1-10.2c-.6-3.5-1.6-5-3.8-9.7-5-10.9-6-18-5.8-23.1,0-1,.2-4.5,1-4.7s1.8,2.8,2.1,3.5c2.7,7.5.2,12.6,3.6,16.8.7.9,1.5,1.5,1.9,1.3s-.6-2.4-.2-5.4c.1-.8.2-2.3.8-2.5.8-.2,2,2.4,2.7,4.1,1.4,3.7.7,5.9.6,12-.1,5.9-.2,11.3,2.1,12.2a1.81,1.81,0,0,0,1.6-.1c1.2-1.7.6-12.6-.1-21.8-.5-6.4-4.4-9-4.5-15.5,0-2.5.2-6.3,1.2-6.5s2.2,3.3,2.4,3.9c1,2.8.4,8.3,1.5,8.3s-.1-5.5.9-8.7c.3-1.1.8-2.6,1.3-2.6s1,2,1.1,2.6c1.4,7.2-.2,28.7.1,40.4,0,2.7.2,4.5.7,4.6,1.1.2,3.6-6.8,4.6-13.4a35.51,35.51,0,0,0,.1-13c-.8-4-2.2-6.1-2.4-10.9a22.5,22.5,0,0,1,1.1-6.8c.8-2.5,1.3-2.7,1.6-2.7.7,0,1.5,1.5,1.8,2.7.9,3.6-1.9,5.6-.7,8.8.3.9,1,2,1.6,1.9s.9-1.5.9-1.6c.3-1.7-.5-2.3-.1-3.6.3-.9,1.1-1.8,1.7-1.7s1,1.9,1,2.5c.6,4.5-1.9,6.6-1.6,11.4.1,1.2.3,3.2.9,3.3.8.1,2-3.8,2.1-4.2,1-3.4.5-4.6,1.8-6.7.6-1,1.8-2.2,2.3-2s.4,1.9.1,3.2c-2.5,15.2-7.1,22.3-7.1,22.3a50,50,0,0,0-4.9,11.1c-.2.6-.5,1.9,0,2.4s1.7-.1,2.2-.3a14.92,14.92,0,0,0,7.4-9.1c.2-.7.1-.6.5-10.6,0-.9.2-2.8,1.4-3.6a2.25,2.25,0,0,1,1.8-.2,2.43,2.43,0,0,1,1.5,1.3c.8,1.8-1.5,3.5-2.5,7.7-.4,1.9-.5,3.7-.1,3.9s.5-.6,1.5-1.3,2.6-1.3,3-.8c.7.7-1.1,3.5-1.6,4.4C278.2,343.5,270.2,356.4,259.6,355.4Z" opacity="0.5" fill="url(#f)" style="isolation:isolate"/><path d="M82.1,190.8c-4.3-.4-7.5-3.4-13.8-9.3-7.7-7.2-8.9-12.5-9.2-14.6-.4-2.8-.1-5,.2-5s1,3.5,3.9,6.8c.6.7,1.5,1.6,2,1.4.8-.4.2-3.5-.4-5.7-1.8-5.9-4.8-6.4-6.1-11.5-.9-3.4-.6-7.3.5-7.6.8-.2,2,1.9,2.5,2.8,3.1,5.4,2.3,10.7,3.1,10.8.5,0,1.6-1.9,1.1-3.4-.3-1.1-1.2-1.3-1.3-2.5-.1-1,.3-2.1.8-2.2s1.2,1.1,1.5,1.6c2.1,3.9,1.3,10.4,2,15.8s3.2,10.4,4.4,10.3,1.9-5.4,1.1-10.2c-.6-3.6-1.6-5-3.8-9.7-5-10.9-6-18-5.8-23.1,0-1,.2-4.6,1-4.7s1.9,2.7,2.2,3.5c2.7,7.5.2,12.6,3.6,16.8.7.9,1.5,1.5,1.9,1.3s-.6-2.4-.2-5.4c.1-.8.2-2.3.8-2.4.8-.2,2,2.4,2.7,4.1,1.3,3.7.7,5.9.6,12-.1,5.9-.2,11.3,2.1,12.2a1.81,1.81,0,0,0,1.6-.1c1.2-1.7.6-12.6-.2-21.8-.5-6.4-4.4-9-4.5-15.5,0-2.5.2-6.3,1.2-6.5s2.2,3.3,2.4,3.9c1,2.8.4,8.3,1.5,8.3s-.1-5.5.9-8.7c.3-1.1.8-2.6,1.3-2.6s1,2,1.1,2.6c1.4,7.2-.2,28.7.1,40.4.1,2.7.2,4.5.8,4.6,1.1.2,3.6-6.8,4.6-13.4a35.51,35.51,0,0,0,.1-13c-.8-4-2.2-6.1-2.4-10.9a22.5,22.5,0,0,1,1.1-6.8c.8-2.4,1.3-2.7,1.6-2.7.7,0,1.5,1.4,1.8,2.7.9,3.6-1.8,5.7-.7,8.8.3.9,1,2,1.6,1.9s.9-1.5.9-1.6c.3-1.7-.6-2.3-.2-3.6.3-.9,1.1-1.8,1.7-1.7s1,1.9,1,2.5c.6,4.5-1.9,6.6-1.6,11.4.1,1.2.3,3.2.9,3.3.8.1,2-3.8,2.1-4.2,1-3.4.5-4.6,1.8-6.7.7-1,1.8-2.2,2.3-2s.3,1.9.1,3.2c-2.4,15.2-7,22.3-7,22.3a50,50,0,0,0-4.9,11.1c-.2.6-.6,1.9,0,2.4s1.7-.1,2.2-.3a14.4,14.4,0,0,0,7.4-9.1c.2-.7.1-.6.5-10.6,0-.9.2-2.9,1.4-3.6a2.78,2.78,0,0,1,1.8-.3,2.43,2.43,0,0,1,1.5,1.3c.8,1.8-1.5,3.4-2.4,7.7-.4,1.9-.5,3.7-.1,3.9s.5-.6,1.5-1.3,2.6-1.3,3-.8c.7.7-1.1,3.5-1.6,4.4C100.8,179,92.7,191.8,82.1,190.8Z" opacity="0.5" fill="url(#g)" style="isolation:isolate"/><path d="M111.9,390.4c-4.3-.4-7.5-3.4-13.8-9.3-7.7-7.2-8.9-12.5-9.2-14.6-.4-2.8-.1-5,.2-5s1,3.5,3.9,6.8c.6.7,1.5,1.6,2,1.4.8-.4.2-3.5-.4-5.7-1.8-5.9-4.8-6.4-6.1-11.5-.9-3.5-.6-7.3.4-7.6.8-.2,2,1.9,2.5,2.8,3.2,5.4,2.3,10.7,3.1,10.8.5,0,1.6-1.9,1.1-3.4-.3-1.1-1.2-1.3-1.3-2.5-.1-1,.3-2.1.8-2.2s1.2,1,1.5,1.6c2.1,3.9,1.3,10.4,2,15.8s3.2,10.4,4.4,10.2,1.9-5.4,1.1-10.2c-.6-3.5-1.6-5-3.8-9.7-5-10.9-6-18-5.8-23.1,0-1,.2-4.5,1-4.7s1.8,2.8,2.1,3.5c2.7,7.5.2,12.6,3.6,16.8.7.9,1.5,1.5,1.9,1.3s-.6-2.4-.2-5.4c.1-.8.2-2.3.8-2.5.8-.2,2,2.4,2.7,4.1,1.3,3.7.7,5.9.6,12-.1,5.9-.2,11.3,2.1,12.2a1.81,1.81,0,0,0,1.6-.1c1.2-1.7.6-12.6-.2-21.8-.5-6.4-4.4-9-4.5-15.5,0-2.5.2-6.3,1.2-6.5s2.2,3.3,2.4,3.9c1,2.8.4,8.3,1.5,8.3s-.1-5.5.9-8.7c.3-1.1.8-2.6,1.3-2.6s1,2,1.1,2.6c1.4,7.2-.2,28.7.1,40.4.1,2.7.2,4.5.8,4.6,1.1.2,3.6-6.8,4.6-13.4a35.51,35.51,0,0,0,.1-13c-.8-4-2.2-6.1-2.4-10.9a22.5,22.5,0,0,1,1.1-6.8c.8-2.5,1.3-2.7,1.6-2.7.7,0,1.5,1.5,1.8,2.7.9,3.6-1.8,5.6-.7,8.8.3.9,1,2,1.6,1.9s.9-1.5.9-1.6c.3-1.7-.6-2.4-.2-3.6.3-.9,1.1-1.8,1.7-1.7s1,1.9,1,2.5c.6,4.5-1.9,6.6-1.6,11.4.1,1.2.3,3.2.9,3.3.8.1,2-3.8,2.1-4.2,1-3.4.5-4.6,1.8-6.7.6-1,1.8-2.2,2.3-2s.4,1.9.1,3.2c-2.4,15.2-7,22.3-7,22.3a50,50,0,0,0-4.9,11.1c-.2.6-.6,1.9,0,2.4s1.7-.1,2.2-.3a14.92,14.92,0,0,0,7.4-9.1c.2-.7.1-.6.5-10.6,0-.9.1-2.9,1.4-3.6a2.78,2.78,0,0,1,1.8-.3,2.43,2.43,0,0,1,1.5,1.3c.8,1.8-1.5,3.5-2.4,7.7-.4,1.9-.5,3.7-.1,3.9s.5-.6,1.5-1.3,2.6-1.3,3-.8c.7.7-1.1,3.5-1.6,4.4C130.6,378.5,122.5,391.4,111.9,390.4Z" opacity="0.5" fill="url(#h)" style="isolation:isolate"/><path d="M2145.4,541.2c-4.3-.4-7.5-3.4-13.8-9.3-7.7-7.2-8.9-12.5-9.2-14.6-.4-2.8-.1-5,.2-5s1,3.5,3.9,6.8c.6.7,1.5,1.6,2,1.4.8-.4.2-3.5-.4-5.7-1.8-5.9-4.8-6.4-6.1-11.5-.9-3.5-.6-7.3.4-7.6.8-.2,2,1.9,2.5,2.8,3.1,5.4,2.2,10.7,3.1,10.8.5,0,1.6-1.9,1.1-3.4-.3-1.1-1.2-1.3-1.3-2.5-.1-1,.3-2.1.8-2.2s1.2,1.1,1.5,1.6c2.1,3.9,1.2,10.4,2,15.8s3.1,10.4,4.4,10.3,1.9-5.4,1.1-10.2c-.6-3.5-1.6-5-3.8-9.7-5-10.9-6-18-5.8-23.1,0-1,.2-4.6,1-4.7s1.8,2.8,2.1,3.5c2.7,7.5.2,12.6,3.6,16.8.7.9,1.5,1.5,1.9,1.3s-.5-2.4-.2-5.4c.1-.8.2-2.3.8-2.5.8-.2,2,2.4,2.7,4.1,1.4,3.7.7,5.9.6,12-.1,5.9-.2,11.3,2.1,12.2a1.81,1.81,0,0,0,1.6-.1c1.2-1.7.6-12.6-.1-21.8-.5-6.4-4.4-9-4.5-15.5,0-2.5.2-6.3,1.2-6.5s2.2,3.3,2.5,3.9c1,2.8.4,8.3,1.5,8.3s-.1-5.5.9-8.7c.3-1.1.8-2.6,1.3-2.6s1,2,1.1,2.6c1.4,7.2-.2,28.7.1,40.4.1,2.7.2,4.5.7,4.6,1.1.2,3.6-6.8,4.6-13.4a35.51,35.51,0,0,0,.1-13c-.8-4-2.2-6.1-2.4-10.9a22.5,22.5,0,0,1,1.1-6.8c.8-2.5,1.3-2.7,1.6-2.7.7,0,1.5,1.5,1.8,2.7.9,3.6-1.8,5.6-.7,8.8.3.9,1,2,1.6,1.9s.9-1.5.9-1.6c.3-1.7-.6-2.3-.1-3.6.3-.9,1.1-1.8,1.7-1.7s1,1.9,1,2.5c.6,4.5-1.9,6.6-1.6,11.4.1,1.2.3,3.2.9,3.3.8.1,2-3.8,2.1-4.2,1-3.4.5-4.6,1.8-6.7.6-1,1.8-2.2,2.3-2s.4,1.9.1,3.2c-2.5,15.2-7.1,22.3-7.1,22.3a50,50,0,0,0-4.9,11.1c-.2.6-.6,1.9,0,2.4s1.7-.1,2.1-.3a14.92,14.92,0,0,0,7.4-9.1c.2-.7.1-.6.5-10.6,0-.9.1-2.9,1.4-3.6a2.78,2.78,0,0,1,1.8-.3,2.43,2.43,0,0,1,1.5,1.3c.8,1.8-1.5,3.5-2.4,7.7-.4,1.9-.5,3.7-.1,3.9s.6-.6,1.5-1.3,2.6-1.3,3-.8c.7.7-1.1,3.5-1.6,4.4C2164.1,529.3,2156,542.1,2145.4,541.2Z" opacity="0.5" fill="url(#i)" style="isolation:isolate"/><path d="M2060.9,602.2c-4.3-.4-7.5-3.4-13.8-9.3-7.7-7.2-8.9-12.5-9.2-14.6-.4-2.7-.1-5,.2-5s1,3.5,3.9,6.8c.6.7,1.5,1.6,2,1.4.8-.3.2-3.5-.4-5.7-1.8-5.9-4.8-6.4-6.1-11.5-.9-3.5-.6-7.3.4-7.6.8-.2,2,1.9,2.5,2.8,3.1,5.4,2.2,10.7,3.1,10.8.5,0,1.6-1.9,1.1-3.4-.3-1.1-1.2-1.3-1.3-2.5-.1-1,.3-2.1.8-2.2s1.2,1,1.5,1.6c2.1,3.9,1.3,10.4,2,15.8s3.2,10.4,4.4,10.2,1.9-5.4,1.1-10.2c-.6-3.5-1.6-5-3.8-9.7-5-10.9-6-18-5.8-23.1,0-1,.2-4.5,1-4.7s1.8,2.8,2.1,3.5c2.7,7.5.2,12.6,3.6,16.8.7.9,1.5,1.5,1.9,1.3s-.5-2.3-.2-5.4c.1-.8.2-2.3.8-2.5.8-.2,2,2.4,2.7,4.1,1.4,3.7.7,5.9.6,12-.1,5.9-.2,11.3,2.1,12.2a1.81,1.81,0,0,0,1.6-.1c1.2-1.7.6-12.6-.1-21.8-.5-6.4-4.4-9-4.4-15.5,0-2.5.2-6.3,1.2-6.5s2.2,3.3,2.5,3.9c1,2.8.4,8.3,1.5,8.3s-.1-5.5.9-8.7c.3-1.1.8-2.6,1.3-2.6s1,2,1.1,2.6c1.4,7.2-.2,28.7.1,40.4.1,2.7.2,4.5.7,4.6,1.1.2,3.6-6.8,4.6-13.4a35.51,35.51,0,0,0,.1-13c-.8-4-2.2-6.1-2.4-10.9a22.5,22.5,0,0,1,1.1-6.8c.8-2.5,1.3-2.7,1.6-2.7.7,0,1.5,1.5,1.8,2.7.9,3.6-1.8,5.7-.7,8.8.3.9,1,2,1.6,1.9s.9-1.5.9-1.6c.3-1.7-.6-2.3-.1-3.6.3-.9,1.1-1.8,1.7-1.7s1,1.9,1,2.5c.6,4.5-1.9,6.6-1.6,11.5.1,1.2.3,3.2.9,3.3.8.1,2-3.8,2.1-4.2,1-3.3.5-4.6,1.8-6.7.6-1,1.8-2.2,2.3-2s.4,1.9.1,3.2c-2.4,15.2-7.1,22.3-7.1,22.3a48.79,48.79,0,0,0-4.9,11.2c-.2.6-.6,1.9,0,2.4s1.7-.1,2.1-.3a14.92,14.92,0,0,0,7.4-9.1c.2-.7.1-.6.5-10.6,0-.9.1-2.8,1.4-3.6a2.78,2.78,0,0,1,1.8-.3,2.43,2.43,0,0,1,1.5,1.3c.8,1.8-1.5,3.5-2.4,7.7-.4,1.9-.5,3.7-.1,3.9s.6-.7,1.5-1.3,2.6-1.3,3.1-.8c.7.7-1.1,3.5-1.6,4.4C2079.6,590.3,2071.5,603.2,2060.9,602.2Z" opacity="0.5" fill="url(#j)" style="isolation:isolate"/><path d="M2043.1,305a6.29,6.29,0,0,0,2.8-2c1-1.1,1-1.7,1.9-3.2,1.4-2.3,2.2-2,4.5-4.9a11.4,11.4,0,0,0,1.9-3.4,4.15,4.15,0,0,0,0-3.1c0-.1-.6-1.4-1.2-1.3s-.9,1.2-1.1,1.9c-.5,1.8-.1,2.1-.4,3.5a6,6,0,0,1-3,3.9c-.6.3-1.1.6-1.7.4-1-.4-1.2-2.3-1-3.7s.7-1.3,1.7-3.8a16.51,16.51,0,0,0,1.1-3.6,5.36,5.36,0,0,0-.2-2.8c-.1-.2-.4-.9-.8-.9s-.8,1.1-.8,1.5c-.3,1.3,0,1.7,0,3.8a5,5,0,0,1-.7,2.9c-.1.1-.5.8-.7.7s-.3-.6-.3-1.4c0-1.2,0-2.4.1-3.6.2-1.7.3-2.2,0-3-.1-.2-.4-1-1-1s-1.1,1.3-1.2,1.5c-.6,1.8.2,2.8.5,5.8a40.08,40.08,0,0,1-.1,4.9,6.3,6.3,0,0,1-1,2.9c-.4.6-.7.6-.7.5-.4-.1-.6-1.1-.6-2.1a32.77,32.77,0,0,1,.1-7,7.43,7.43,0,0,0,.1-3.9,4.25,4.25,0,0,0-1-1.7c-.3-.3-1.2-1.2-1.7-1s-.4,1.3-.3,1.9c.2,1,.6,1.1,1,2.2a5.32,5.32,0,0,1-.1,3.3c-.1.5-.3,1-.6,1s-.5-.3-.9-1a11.08,11.08,0,0,1-1.4-2.9c-.3-1.3,0-1.7-.5-2.9-.1-.3-.5-1.1-.9-1.1s-.7,1.3-.7,1.5a7.73,7.73,0,0,0,1.1,4.9c1.1,2,1.9,2,3,4.3a18,18,0,0,1,.8,2.1c.7,2.3.3,2.7,1,3.7s1.2,1,1.5,2c.1.5.2,1.2-.1,1.4-.5.2-2-1.8-2.2-2.1-1.4-1.9-1.4-3-3-5-1.2-1.5-1.6-1.5-1.8-1.4-.5.2-.5,1.2-.5,1.5-.1,1.5.7,3,2.4,5C2038.6,303,2040.8,305.5,2043.1,305Z" opacity="0.5" fill="url(#k)" style="isolation:isolate"/></svg>