<svg xmlns="http://www.w3.org/2000/svg" xmlns:xlink="http://www.w3.org/1999/xlink" width="2225.2" height="622.2" viewBox="0 0 2225.2 622.2"><defs><linearGradient id="a" x1="5145.34" y1="45.44" x2="5151.3" y2="-2.46" gradientTransform="matrix(-1, 0, 0, 1, 7332.41, 244)" gradientUnits="userSpaceOnUse"><stop offset="0" stop-color="#0b6640" stop-opacity="0.2"/><stop offset="1" stop-color="#0b6640" stop-opacity="0.7"/></linearGradient><linearGradient id="b" x1="2075.24" y1="83.26" x2="2079.25" y2="51.03" gradientTransform="translate(0 244)" xlink:href="#a"/><linearGradient id="c" x1="2006.93" y1="316.6" x2="2010.95" y2="284.37" gradientTransform="translate(0 244)" xlink:href="#a"/><linearGradient id="d" x1="2161.66" y1="169.04" x2="2170.7" y2="96.46" gradientTransform="translate(0 244)" xlink:href="#a"/><linearGradient id="e" x1="1978.44" y1="244.05" x2="1987.48" y2="171.51" gradientTransform="translate(0 244)" xlink:href="#a"/><linearGradient id="f" x1="2194.07" y1="348.44" x2="2203.09" y2="275.96" gradientTransform="translate(0 244)" xlink:href="#a"/><linearGradient id="g" x1="2208.05" y1="-18.58" x2="2211.12" y2="-43.26" gradientTransform="translate(0 244)" xlink:href="#a"/><linearGradient id="h" x1="2115.55" y1="250.44" x2="2119.57" y2="218.2" gradientTransform="translate(0 244)" xlink:href="#a"/><linearGradient id="i" x1="5392.66" y1="139.3" x2="5388.75" y2="112.58" gradientTransform="matrix(-1, 0, 0, 1, 7329.05, 244)" gradientUnits="userSpaceOnUse"><stop offset="0" stop-color="#2168b6" stop-opacity="0.2"/><stop offset="1" stop-color="#0b6640" stop-opacity="0.7"/></linearGradient><linearGradient id="j" x1="2157.6" y1="-3.98" x2="2166.22" y2="-73.2" gradientTransform="translate(0 244)" xlink:href="#a"/><linearGradient id="k" x1="348.15" y1="-92.53" x2="355.71" y2="-153.26" gradientTransform="translate(0 244)" xlink:href="#a"/><linearGradient id="l" x1="193.73" y1="142.06" x2="201.52" y2="79.53" gradientTransform="translate(0 244)" xlink:href="#a"/><linearGradient id="m" x1="7091.31" y1="3.47" x2="7099.11" y2="-59.08" xlink:href="#a"/><linearGradient id="n" x1="98.01" y1="-133.46" x2="105.79" y2="-195.98" gradientTransform="translate(0 244)" xlink:href="#a"/><linearGradient id="o" x1="105.12" y1="54.8" x2="109.14" y2="22.57" gradientTransform="translate(0 244)" xlink:href="#a"/><linearGradient id="p" x1="309.51" y1="81.09" x2="313.52" y2="48.89" gradientTransform="translate(0 244)" xlink:href="#a"/><linearGradient id="q" x1="195.39" y1="193.85" x2="199.4" y2="161.65" gradientTransform="translate(0 244)" xlink:href="#a"/><linearGradient id="r" x1="268.11" y1="-82.94" x2="272" y2="-114.22" gradientTransform="translate(0 244)" xlink:href="#a"/><linearGradient id="s" x1="99.96" y1="295.06" x2="103.98" y2="262.82" gradientTransform="translate(0 244)" xlink:href="#a"/><linearGradient id="t" x1="428.23" y1="-68.89" x2="431.72" y2="-96.86" gradientTransform="translate(0 244)" xlink:href="#a"/><linearGradient id="u" x1="203.18" y1="-61.04" x2="214.43" y2="-151.41" gradientTransform="translate(0 244)" xlink:href="#a"/><linearGradient id="v" x1="59.31" y1="206.13" x2="70.56" y2="115.76" gradientTransform="translate(0 244)" xlink:href="#a"/></defs><path d="M2181.7,290.1c3.8-.2,6.4-4.8,6.7-5.4,1.7-3.1,1-5.3,3-6.5s3.5.2,4.6-1,0-2.4,1.2-5a4.26,4.26,0,0,1,1.5-2c1.1-.7,2.1-.2,2.5-.9s-.9-1.7-.6-3.5c.1-1.2.9-1.4,1-2.5.2-1.6-1.1-3.5-1.9-3.4-1.2.1-2.3,4.4-2.7,6.5-.1.7-.3,1.9-1.2,2.3s-1.3-.1-1.8.3c-.8.6.2,2.2-.6,3.4a1.48,1.48,0,0,1-1.6.6c-1.2-.5-.4-5-.2-5.8.5-2.8,1-4.9,2.7-6,1.4-1,2.7-.6,3.1-1.6s-.6-1.5-.5-3.4a4.05,4.05,0,0,1,1.4-3c.8-.6,1.5-.4,1.8-.9s-.9-1.1-1-2.3,1.1-1.9.9-3.2c-.1-1.1-1.2-2.2-2-2.1-1.1.1-1.6,2.6-1.8,3.6-.7,3.2.3,5.1-.8,5.9a1.81,1.81,0,0,1-2.3-.1c-.4-.6,1.2-1.6,1-3-.2-1-1.1-1-1.4-2.2-.4-1.4.4-2.2-.1-2.8a2.19,2.19,0,0,0-3,.3c-.5.8.4,1.7.9,4.4a9.23,9.23,0,0,1,.1,3.7c-.3,1.9-1,1.9-1.2,3.4-.3,2.4,1.3,3.1.8,5-.4,1.3-1.2,1.1-1.8,2.5-.5,1.2-.4,2.1,0,5.2.3,2.7.4,4.1.4,4.4a10.69,10.69,0,0,1-3.8,7.2c-.5.4-1.3,1-1.8.8s-.7-2,0-3.1,1.6-1,1.7-1.7-1.4-.9-2-2.1.4-1.5.4-3.9c0-1.5-.3-1.9.1-2.5.6-1,1.7-.6,2.3-1.6a3.29,3.29,0,0,0-.1-2.9c-.4-1.4-.9-1.4-1.2-2.4s.1-1.9.8-3.6c1.2-2.8,2-3,1.8-4.1-.2-1.4-1.5-1.5-1.7-3.1-.2-1.4.7-1.9.4-3.2s-1.2-2.2-1.8-2.1-1,2.3-.9,3.7c.1,2.8,1.5,3.9.8,5s-1.9.6-2.5,1.8,0,2.5.3,3.4c.4,1.3.9,1.7.7,2.2-.3.8-1.3.5-1.8,1.3-.7,1.2,1.1,2.7.5,3.8a1.71,1.71,0,0,1-2,.5c-.8-.5.1-2-.1-4.8-.2-3.1-1.4-3.9-.7-5.4s2.2-1.6,2.3-2.8c0-.9-.8-1.1-1.3-2.3-.9-2,.7-3.2.6-6.3,0-2.1-.8-4.7-2-4.9-.8-.1-1.6.7-2,1.5-.6,1.3.2,2.3.9,5.4.4,2.1.9,4.4-.3,5.5a1.31,1.31,0,0,1-1.3.4c-.4-.2-.6-1.2-.6-1.8.1-1.3,1-1.6.9-2.3-.1-1-1.6-.8-2.2-2s.4-2.1-.1-3.6c-.4-1.1-1.5-2.2-2.3-2-1,.2-1.1,2.4-1.2,2.7-.1,1.6.4,2.8,2.3,6.4,1.7,3.4,2.7,5.2,2.1,5.8s-1.5-.2-2,.3.5,2.4.6,2.5c1.3,2,2.7,1.6,3.5,3.1s-.7,2.6.2,4.8c.6,1.4,1.3,1.4,1.6,2.7s-.5,1.8-.1,3.1,1.2,1.3,2,2.9a5.53,5.53,0,0,1,.3,4c-.2.5-.6,1.5-1.4,1.7-1.4.3-3.6-1.8-3.7-3.9s1.6-3.1,1-4.4c-.5-1-1.9-.7-2.5-1.8s.1-1.8.4-3.8a8.41,8.41,0,0,0-2.2-7.1c-.6-.6-1.8-1.5-2.4-1.1-.9.5,0,3.7.1,3.9.7,2.2,1.6,2.4,2.2,4.6.1.3.9,3.2-.1,3.9a1.4,1.4,0,0,1-1.5-.3c-.6-.6-.1-1.6-.1-3,0-2.4-1.6-4.7-2.6-4.6-.5,0-1,.6-1.1,1.2-.4,1.3,1.1,2,1.4,3.8.2,1.5-.6,1.8-.7,3.3,0,2.1,1.9,2.9,4.1,5.8s1.4,3.6,3.4,6.2C2175.8,287.1,2178.4,290.3,2181.7,290.1Z" opacity="0.3" fill="url(#a)" style="isolation:isolate"/><path d="M2078.9,327.7c-2.6-.1-4.3-3.2-4.5-3.6-1.2-2.1-.7-3.6-2-4.4s-2.3.1-3.1-.7,0-1.6-.8-3.3a2.81,2.81,0,0,0-1-1.4c-.8-.5-1.4-.2-1.7-.6s.6-1.2.4-2.4c-.1-.8-.6-.9-.7-1.7-.1-1.1.7-2.4,1.3-2.3.8.1,1.6,3,1.8,4.4.1.5.2,1.3.8,1.6s.9-.1,1.2.2c.5.4-.2,1.5.4,2.2a1.11,1.11,0,0,0,1.1.4c.9-.4.2-3.4.1-3.9-.4-1.9-.6-3.3-1.8-4.1-.9-.6-1.8-.4-2.1-1.1s.4-1,.4-2.2a2.88,2.88,0,0,0-.9-2c-.6-.4-1-.2-1.2-.6s.6-.7.7-1.6-.7-1.3-.6-2.2c.1-.7.8-1.5,1.3-1.4.7.1,1.1,1.8,1.2,2.4.4,2.2-.2,3.4.5,4a1.36,1.36,0,0,0,1.5,0c.2-.3-.8-1.1-.7-2,.1-.7.7-.6,1-1.5s-.3-1.5,0-1.9a1.43,1.43,0,0,1,2,.2c.4.5-.3,1.1-.6,3a7,7,0,0,0-.1,2.5c.2,1.3.7,1.3.8,2.3.2,1.6-.9,2.1-.5,3.4.2.9.8.7,1.2,1.7.4.8.2,1.4,0,3.5-.2,1.8-.3,2.8-.3,2.9a7.3,7.3,0,0,0,2.5,4.8c.4.3.9.7,1.2.5a1.94,1.94,0,0,0,0-2.1c-.5-.7-1.1-.7-1.1-1.1s1-.6,1.3-1.4-.3-1-.3-2.6c0-1,.2-1.2,0-1.7-.4-.7-1.2-.4-1.6-1.1a2.33,2.33,0,0,1,0-2c.3-.9.6-.9.8-1.6a4,4,0,0,0-.5-2.4c-.8-1.9-1.3-2-1.2-2.8.1-1,1-1,1.1-2.1.1-.9-.5-1.2-.3-2.2s.8-1.5,1.2-1.4.6,1.5.6,2.5c-.1,1.9-1,2.6-.5,3.4s1.3.4,1.7,1.2a2.83,2.83,0,0,1-.2,2.2c-.3.9-.6,1.1-.5,1.5s.9.4,1.2.9c.4.8-.8,1.8-.3,2.5a1.24,1.24,0,0,0,1.4.4c.5-.4-.1-1.4.1-3.2.1-2.1,1-2.6.5-3.6s-1.5-1.1-1.6-1.9c0-.6.5-.8.9-1.6.6-1.3-.5-2.1-.4-4.2,0-1.4.6-3.1,1.4-3.3.5-.1,1.1.5,1.4,1,.4.9-.1,1.6-.6,3.7-.3,1.4-.6,3,.2,3.7a1,1,0,0,0,.9.3c.3-.1.4-.8.4-1.2-.1-.9-.7-1-.6-1.6s1.1-.5,1.5-1.4-.3-1.4.1-2.4c.3-.8,1-1.5,1.5-1.4s.8,1.6.8,1.8c.1,1.1-.3,1.9-1.5,4.3s-1.8,3.5-1.4,3.9,1-.2,1.3.2-.4,1.6-.4,1.7c-.9,1.4-1.8,1-2.4,2s.4,1.8-.1,3.2c-.4.9-.9.9-1.1,1.8s.3,1.2.1,2.1-.8.8-1.4,2a3.6,3.6,0,0,0-.2,2.7,1.78,1.78,0,0,0,.9,1.2c.9.2,2.4-1.2,2.5-2.6s-1.1-2.1-.7-2.9,1.2-.5,1.7-1.2-.1-1.2-.2-2.5a5.73,5.73,0,0,1,1.5-4.8c.4-.4,1.2-1,1.6-.7.6.4,0,2.5,0,2.6-.5,1.5-1,1.6-1.5,3.1-.1.2-.6,2.2,0,2.6a1,1,0,0,0,1-.2c.4-.4,0-1,0-2,0-1.6,1.1-3.2,1.8-3.1.3,0,.6.4.7.8.2.9-.7,1.3-.9,2.5-.2,1,.4,1.2.4,2.2,0,1.4-1.2,1.9-2.7,3.9s-.9,2.4-2.3,4.2C2082.8,325.6,2081.1,327.8,2078.9,327.7Z" opacity="0.3" fill="url(#b)" style="isolation:isolate"/><path d="M2010.6,561c-2.6-.1-4.3-3.2-4.5-3.6-1.2-2.1-.7-3.6-2-4.4s-2.3.2-3.1-.7,0-1.6-.8-3.3a3.32,3.32,0,0,0-1-1.4c-.8-.5-1.4-.2-1.7-.6s.6-1.2.4-2.3c-.1-.8-.6-.9-.7-1.7-.1-1.1.7-2.4,1.3-2.3.8.1,1.6,3,1.8,4.4.1.4.2,1.3.8,1.6s.8-.1,1.2.2-.2,1.5.4,2.2c.3.3.8.6,1.1.4.8-.4.2-3.4.2-3.9-.4-1.8-.7-3.3-1.8-4.1-1-.6-1.8-.4-2.1-1.1s.4-1,.3-2.2a2.88,2.88,0,0,0-.9-2.1c-.5-.4-1-.2-1.2-.6s.6-.7.7-1.6-.7-1.3-.6-2.2c.1-.7.8-1.5,1.3-1.4.7.1,1.1,1.8,1.2,2.4.5,2.2-.2,3.4.5,4a1.09,1.09,0,0,0,1.5,0c.2-.4-.8-1.1-.7-2,.1-.7.7-.7,1-1.5s-.3-1.5,0-1.9a1.53,1.53,0,0,1,2,.2c.4.5-.3,1.1-.6,3a7,7,0,0,0-.1,2.5c.2,1.3.7,1.3.8,2.3.2,1.6-.9,2.1-.5,3.4.2.9.8.7,1.2,1.7.3.8.2,1.4,0,3.5-.2,1.8-.3,2.8-.3,2.9a7.3,7.3,0,0,0,2.5,4.8c.4.3.9.7,1.2.5a1.92,1.92,0,0,0,0-2.1c-.5-.8-1.1-.7-1.1-1.1s1-.6,1.3-1.4-.3-1-.3-2.6c0-1,.2-1.2,0-1.7-.4-.7-1.2-.4-1.6-1.1a2.33,2.33,0,0,1,0-2c.3-.9.6-.9.8-1.6a4,4,0,0,0-.5-2.4c-.8-1.9-1.3-2-1.2-2.8.1-1,1-1,1.1-2.1s-.5-1.2-.3-2.2.8-1.5,1.2-1.4.6,1.5.6,2.5c-.1,1.9-1,2.6-.5,3.4s1.3.4,1.7,1.2a3.3,3.3,0,0,1-.2,2.2c-.3.9-.6,1.1-.5,1.5s.9.4,1.2.9c.4.8-.8,1.8-.3,2.5a1.08,1.08,0,0,0,1.4.3c.5-.4-.1-1.4,0-3.2.1-2.1,1-2.6.5-3.6s-1.5-1.1-1.6-1.9c0-.6.5-.8.9-1.6.6-1.3-.5-2.1-.4-4.2,0-1.4.6-3.1,1.4-3.3.5-.1,1.1.5,1.4,1,.4.9-.2,1.6-.6,3.7-.3,1.4-.6,3,.2,3.7a1,1,0,0,0,.9.3c.3-.1.4-.8.4-1.2-.1-.9-.7-1-.6-1.6s1.1-.5,1.5-1.4-.3-1.4.1-2.5c.3-.8,1-1.5,1.5-1.4s.8,1.7.8,1.8c.1,1.1-.3,1.9-1.5,4.3s-1.8,3.5-1.4,3.9,1-.2,1.3.2-.3,1.6-.4,1.7c-.9,1.4-1.8,1-2.3,2.1s.4,1.8-.1,3.2c-.4.9-.9.9-1.1,1.8s.3,1.2.1,2.1-.8.8-1.4,2a3.6,3.6,0,0,0-.2,2.7,2,2,0,0,0,.9,1.2c.9.2,2.4-1.2,2.5-2.6s-1.1-2.1-.7-2.9,1.3-.5,1.7-1.2-.1-1.2-.2-2.5a5.73,5.73,0,0,1,1.5-4.8c.4-.4,1.2-1,1.6-.7.6.4,0,2.5,0,2.6-.4,1.5-1,1.6-1.5,3.1-.1.2-.6,2.2,0,2.6a1,1,0,0,0,1-.2c.4-.4,0-1,0-2,0-1.6,1.1-3.2,1.8-3.1.3,0,.6.4.7.8.2.9-.7,1.3-.9,2.5-.2,1,.4,1.2.4,2.2,0,1.4-1.2,1.9-2.7,3.9s-.9,2.4-2.3,4.2C2014.6,559,2012.9,561.2,2010.6,561Z" opacity="0.3" fill="url(#c)" style="isolation:isolate"/><path d="M2169.5,414c-5.8-.3-9.7-7.3-10.1-8.1-2.6-4.8-1.6-8-4.5-9.8-2.8-1.6-5.3.3-6.9-1.5-1.5-1.6.1-3.6-1.8-7.5a6.35,6.35,0,0,0-2.3-3.1c-1.7-1.1-3.1-.4-3.7-1.3-.8-1.2,1.3-2.6,1-5.3-.2-1.9-1.4-2.1-1.5-3.9-.2-2.5,1.6-5.3,2.9-5.2,1.8.2,3.5,6.7,4.1,9.9.2,1,.4,2.8,1.8,3.5,1.1.6,1.9-.2,2.6.4,1.2,1-.3,3.4,1,5.1a2.29,2.29,0,0,0,2.4,1c1.9-.8.6-7.7.3-8.8-.8-4.2-1.4-7.4-4.1-9.1-2.1-1.4-4.1-.9-4.7-2.4s.9-2.3.8-5.1c0-.5-.2-3.3-2.1-4.6-1.2-.9-2.3-.5-2.6-1.3-.4-1,1.3-1.7,1.5-3.5.3-2.1-1.6-2.8-1.3-4.9.2-1.7,1.8-3.3,3-3.2,1.7.2,2.5,4,2.8,5.4,1,4.9-.4,7.6,1.2,8.9,1.1.9,3,.6,3.4-.1.6-1-1.9-2.4-1.6-4.5.2-1.5,1.6-1.5,2.2-3.3.7-2.1-.7-3.4.1-4.3s3.6-.9,4.5.4-.7,2.5-1.4,6.7a15,15,0,0,0-.2,5.6c.5,2.9,1.5,2.9,1.8,5.2.4,3.6-2,4.8-1.2,7.6.6,2,1.8,1.6,2.8,3.9.8,1.8.5,3.2,0,7.9-.5,4.1-.7,6.2-.7,6.6a16.7,16.7,0,0,0,5.7,10.9c.8.6,2,1.6,2.8,1.2s1.1-3,0-4.7-2.5-1.6-2.5-2.5c-.1-1.2,2.1-1.3,3-3.2.7-1.6-.6-2.3-.7-6-.1-2.3.5-2.8-.1-3.7-.9-1.5-2.6-.9-3.5-2.4s-.3-3.2.1-4.4c.6-2,1.4-2.1,1.8-3.6s-.2-2.9-1.2-5.4c-1.8-4.2-3-4.5-2.8-6.3.2-2.2,2.2-2.3,2.5-4.7.3-2.1-1.1-2.8-.7-4.8.4-1.8,1.9-3.4,2.8-3.2,1.1.3,1.4,3.5,1.3,5.6-.2,4.2-2.2,5.8-1.2,7.6.9,1.6,2.9.9,3.8,2.6s0,3.7-.4,5.1c-.7,1.9-1.4,2.5-1.1,3.4.4,1.2,2,.8,2.6,2,1,1.8-1.7,4.1-.8,5.7a2.49,2.49,0,0,0,3.1.8c1.2-.8-.1-3,.1-7.3.3-4.7,2.1-5.8,1.1-8.1s-3.4-2.4-3.5-4.3c-.1-1.4,1.2-1.7,2-3.5,1.3-3-1.1-4.8-1-9.5.1-3.1,1.2-7.1,3.1-7.4,1.1-.2,2.5,1,3.1,2.3,1,2-.4,3.5-1.3,8.3-.6,3.1-1.3,6.7.4,8.4a2.49,2.49,0,0,0,2,.7c.8-.3.9-1.8.9-2.6-.1-2-1.5-2.4-1.3-3.5.2-1.5,2.4-1.2,3.4-3.1s-.6-3.1.2-5.5c.6-1.7,2.3-3.4,3.4-3.1,1.5.4,1.7,3.7,1.8,4.1.2,2.5-.6,4.3-3.4,9.7-2.6,5.1-4.1,7.9-3.2,8.7.7.7,2.3-.4,3,.5s-.8,3.6-.9,3.7c-1.9,3.1-4.1,2.4-5.3,4.6-1.3,2.5,1,4-.3,7.3-.8,2-2,2-2.4,4.1s.7,2.8.2,4.7-1.9,1.9-3.1,4.4a7.85,7.85,0,0,0-.4,6c.3.8.9,2.4,2.1,2.6,2,.5,5.4-2.7,5.6-6,.2-3.1-2.5-4.7-1.5-6.6.8-1.6,2.8-1,3.9-2.8.9-1.5-.2-2.8-.6-5.7-.5-4,.7-8.3,3.3-10.8.9-.9,2.7-2.2,3.6-1.6,1.4.8-.1,5.6-.1,5.8-1,3.3-2.4,3.6-3.3,6.9-.1.5-1.4,4.9.1,5.8a2,2,0,0,0,2.2-.4c.9-1,.1-2.4.1-4.5,0-3.6,2.4-7.1,4-7,.8,0,1.4,1,1.6,1.8.5,1.9-1.7,3-2.1,5.7-.4,2.3,1,2.8,1,5,0,3.2-2.8,4.4-6.2,8.8-3.5,4.6-2.1,5.5-5.2,9.4C2178.4,409.3,2174.5,414.2,2169.5,414Z" opacity="0.3" fill="url(#d)" style="isolation:isolate"/><path d="M1986.2,489c-5.8-.3-9.7-7.3-10.1-8.1-2.6-4.8-1.6-8.1-4.5-9.8s-5.3.3-6.9-1.5c-1.5-1.6.1-3.5-1.8-7.5a7,7,0,0,0-2.3-3.1c-1.7-1.1-3.1-.4-3.7-1.3-.8-1.2,1.3-2.6,1-5.3-.2-1.9-1.4-2.1-1.5-3.9-.2-2.5,1.6-5.3,2.9-5.2,1.8.2,3.5,6.7,4.1,9.9.2,1,.4,2.8,1.8,3.5,1.1.6,1.9-.2,2.6.4,1.2,1-.3,3.4,1,5.1a2.29,2.29,0,0,0,2.4,1c1.9-.8.6-7.7.3-8.8-.8-4.2-1.4-7.4-4.1-9.1-2.1-1.4-4.1-.9-4.7-2.4s.9-2.3.8-5.1c0-.5-.2-3.3-2.1-4.6-1.2-.9-2.3-.5-2.6-1.3-.4-1,1.3-1.7,1.5-3.5.3-2.1-1.6-2.8-1.3-4.9.2-1.7,1.8-3.3,3-3.2,1.7.2,2.5,4,2.8,5.4,1,4.9-.4,7.6,1.2,8.9,1.1.8,3,.6,3.4-.1.6-1-1.9-2.4-1.5-4.5.2-1.5,1.6-1.5,2.2-3.3.7-2.1-.7-3.4.1-4.3s3.6-.9,4.5.4-.7,2.5-1.4,6.7a15,15,0,0,0-.2,5.6c.5,2.9,1.5,2.9,1.8,5.2.4,3.6-2,4.8-1.2,7.6.6,2,1.8,1.6,2.8,3.9.8,1.8.5,3.2,0,7.9-.4,4.1-.7,6.2-.7,6.6a16.7,16.7,0,0,0,5.7,10.9c.8.6,2,1.6,2.8,1.2,1-.5,1.1-3,0-4.7s-2.5-1.6-2.5-2.5c-.1-1.2,2.2-1.3,3-3.2.7-1.6-.6-2.3-.7-6,0-2.3.5-2.8-.1-3.7-.9-1.5-2.6-.9-3.5-2.4s-.3-3.2.1-4.4c.6-2,1.4-2.1,1.8-3.6s-.2-2.9-1.2-5.4c-1.8-4.2-3-4.5-2.8-6.3.2-2.2,2.2-2.3,2.5-4.7.3-2.1-1.1-2.8-.7-4.9.4-1.8,1.9-3.4,2.8-3.2,1.1.3,1.4,3.4,1.3,5.6-.2,4.2-2.2,5.8-1.2,7.6.9,1.6,2.9.9,3.8,2.6s0,3.7-.4,5.1c-.7,1.9-1.4,2.5-1.1,3.4.4,1.2,2,.8,2.6,2,1,1.8-1.7,4.1-.8,5.7a2.49,2.49,0,0,0,3.1.8c1.2-.8-.1-3,.1-7.3.3-4.7,2.2-5.9,1.1-8.2s-3.4-2.4-3.5-4.3c-.1-1.4,1.2-1.7,2-3.5,1.3-3-1.1-4.8-1-9.5.1-3.1,1.2-7.1,3.1-7.4,1.1-.2,2.5,1,3.1,2.3,1,2-.3,3.5-1.3,8.3-.6,3.1-1.3,6.7.4,8.4a2.49,2.49,0,0,0,2,.7c.8-.4,1-1.8.9-2.6-.2-2-1.5-2.4-1.3-3.5.2-1.5,2.4-1.2,3.4-3.1s-.7-3.1.2-5.5c.6-1.7,2.3-3.4,3.4-3.1,1.5.4,1.7,3.7,1.8,4.1.2,2.5-.7,4.3-3.4,9.7-2.6,5.1-4.1,7.9-3.2,8.7.7.7,2.3-.4,3,.4.8,1-.8,3.6-.9,3.8-2,3.1-4.1,2.4-5.3,4.6-1.3,2.5,1,4-.3,7.3-.8,2-2,2-2.4,4.1s.7,2.8.2,4.7-1.9,1.9-3.1,4.4a8.07,8.07,0,0,0-.4,6.1c.3.8.9,2.3,2.1,2.6,2,.5,5.4-2.7,5.6-6s-2.5-4.7-1.5-6.6c.8-1.6,2.8-1,3.8-2.8.9-1.5-.2-2.8-.6-5.7-.5-4,.7-8.3,3.3-10.8.9-.9,2.7-2.2,3.6-1.6,1.4.8,0,5.6-.1,5.8-1,3.3-2.3,3.6-3.3,6.9-.1.5-1.4,4.9.1,5.8a1.86,1.86,0,0,0,2.3-.5c.9-1,.1-2.4.1-4.5,0-3.6,2.4-7.1,4-7,.8,0,1.4,1,1.7,1.8.5,1.9-1.7,3-2.1,5.7-.4,2.3,1,2.8,1,5,0,3.2-2.8,4.4-6.2,8.8-3.5,4.6-2,5.5-5.2,9.4C1995.2,484.3,1991.3,489.2,1986.2,489Z" opacity="0.3" fill="url(#e)" style="isolation:isolate"/><path d="M2201.9,593.4c-5.8-.3-9.7-7.3-10.1-8.2-2.6-4.8-1.6-8.1-4.5-9.8s-5.3.3-6.9-1.5c-1.5-1.6.1-3.6-1.8-7.5a6.35,6.35,0,0,0-2.3-3.1c-1.7-1.1-3.1-.4-3.8-1.3-.8-1.2,1.3-2.6,1-5.3-.2-1.9-1.4-2.1-1.5-3.9-.2-2.5,1.6-5.3,2.9-5.2,1.8.2,3.5,6.7,4.1,9.9.2,1,.4,2.8,1.8,3.5,1.1.6,1.9-.2,2.6.5,1.2,1-.4,3.4,1,5.1.6.7,1.7,1.3,2.4,1,1.9-.8.6-7.7.3-8.8-.8-4.2-1.4-7.4-4.1-9.1-2.1-1.4-4.1-.9-4.7-2.4s.9-2.3.8-5.1c0-.5-.2-3.3-2.1-4.6-1.2-.9-2.3-.5-2.6-1.3-.4-1,1.3-1.7,1.6-3.5.3-2.1-1.6-2.8-1.3-4.8.2-1.7,1.8-3.3,3-3.2,1.7.2,2.5,4,2.8,5.4,1,4.9-.4,7.7,1.2,8.9,1.1.8,3,.6,3.4-.1.6-1-1.9-2.4-1.5-4.5.2-1.5,1.6-1.5,2.2-3.3.7-2.1-.7-3.3.1-4.3s3.6-.9,4.5.4-.7,2.5-1.4,6.7a15,15,0,0,0-.2,5.6c.5,3,1.5,2.9,1.8,5.2.4,3.6-2,4.8-1.2,7.6.6,2,1.8,1.6,2.8,3.9.8,1.8.5,3.2,0,7.9-.5,4.1-.7,6.2-.7,6.6a16.7,16.7,0,0,0,5.7,10.9c.8.7,2,1.6,2.8,1.2s1.1-3,0-4.7-2.5-1.6-2.5-2.5c-.1-1.2,2.1-1.3,3-3.2.7-1.6-.6-2.3-.7-6,0-2.3.5-2.8-.1-3.7-.9-1.5-2.6-1-3.5-2.4s-.3-3.2.1-4.4c.6-2,1.4-2.1,1.8-3.6s-.2-2.8-1.2-5.4c-1.7-4.2-3-4.5-2.8-6.3.2-2.2,2.2-2.3,2.5-4.7.3-2.1-1.1-2.8-.7-4.8.4-1.8,1.9-3.4,2.8-3.2,1.1.3,1.4,3.4,1.3,5.6-.2,4.2-2.2,5.8-1.2,7.6.9,1.6,2.9.9,3.7,2.6s0,3.7-.4,5.1c-.7,1.9-1.4,2.5-1.1,3.4.4,1.2,2,.8,2.6,2,1,1.8-1.7,4.1-.8,5.7a2.49,2.49,0,0,0,3.1.8c1.2-.8-.1-3,.1-7.3.3-4.7,2.1-5.8,1.1-8.2s-3.4-2.4-3.5-4.3c-.1-1.4,1.2-1.7,2-3.5,1.3-3-1.1-4.8-1-9.5.1-3.1,1.2-7.1,3.1-7.4,1.1-.2,2.5,1,3.1,2.3,1,2-.4,3.5-1.3,8.3-.6,3.1-1.3,6.7.4,8.4a2.2,2.2,0,0,0,2,.7c.8-.3.9-1.8.9-2.7-.2-2-1.5-2.4-1.3-3.5.2-1.5,2.4-1.2,3.4-3.1s-.6-3.1.2-5.5c.6-1.7,2.3-3.4,3.4-3.1,1.5.3,1.7,3.7,1.8,4.1.2,2.5-.7,4.3-3.4,9.7-2.6,5.1-4,7.8-3.2,8.7.7.7,2.3-.4,3,.4.8,1-.8,3.6-.9,3.8-2,3.1-4.1,2.4-5.3,4.6-1.3,2.5,1,4-.3,7.3-.8,2.1-2,2-2.4,4.1s.7,2.8.2,4.7-1.9,1.9-3.1,4.4a8.07,8.07,0,0,0-.4,6.1c.3.8.9,2.3,2.1,2.7,2,.5,5.4-2.7,5.6-6,.2-3.1-2.5-4.7-1.6-6.6.8-1.6,2.8-1,3.9-2.8.9-1.5-.2-2.8-.6-5.7-.5-4,.7-8.3,3.3-10.8.9-.9,2.7-2.2,3.6-1.7,1.4.8,0,5.6-.1,5.8-1,3.3-2.4,3.6-3.3,6.9-.1.5-1.4,4.9.1,5.8a2,2,0,0,0,2.3-.4c.9-1,.1-2.4.1-4.5,0-3.6,2.4-7.2,4-7,.8,0,1.4,1,1.6,1.8.5,1.9-1.7,3-2.1,5.7-.4,2.3,1,2.7,1,5,0,3.2-2.8,4.4-6.2,8.8-3.5,4.6-2,5.5-5.2,9.4C2210.8,588.8,2206.9,593.7,2201.9,593.4Z" opacity="0.3" fill="url(#f)" style="isolation:isolate"/><path d="M2210.7,225.7c-2-.1-3.3-2.5-3.4-2.8-.9-1.6-.5-2.7-1.5-3.3s-1.8.1-2.4-.5,0-1.2-.6-2.6a2.1,2.1,0,0,0-.8-1.1c-.6-.4-1.1-.1-1.3-.4s.4-.9.3-1.8c-.1-.6-.5-.7-.5-1.3-.1-.8.6-1.8,1-1.8.6.1,1.2,2.3,1.4,3.4.1.3.2,1,.6,1.2s.6,0,.9.1c.4.3-.1,1.2.3,1.7.2.2.6.4.8.3.6-.3.2-2.6.1-3-.3-1.4-.5-2.5-1.4-3.1-.7-.5-1.4-.3-1.6-.8s.3-.8.3-1.7a2.36,2.36,0,0,0-.7-1.6c-.4-.3-.8-.2-.9-.4s.4-.6.5-1.2-.5-1-.4-1.6.6-1.1,1-1.1c.6.1.8,1.4.9,1.8.4,1.7-.1,2.6.4,3a.91.91,0,0,0,1.2,0c.2-.3-.6-.8-.5-1.5.1-.5.6-.5.8-1.1s-.2-1.1,0-1.5a1.09,1.09,0,0,1,1.5.1c.3.4-.2.9-.5,2.3a6.08,6.08,0,0,0-.1,1.9c.2,1,.5,1,.6,1.8.1,1.2-.7,1.6-.4,2.6.2.7.6.6.9,1.3s.2,1.1,0,2.7a16,16,0,0,0-.2,2.2,5.92,5.92,0,0,0,2,3.7c.3.2.7.6.9.4a1.49,1.49,0,0,0,0-1.6c-.4-.6-.8-.5-.9-.9s.7-.4,1-1.1-.2-.8-.2-2a5.19,5.19,0,0,0,0-1.3c-.3-.5-.9-.3-1.2-.8a2,2,0,0,1,0-1.5c.2-.7.5-.7.6-1.2a2.83,2.83,0,0,0-.4-1.8c-.6-1.4-1-1.6-.9-2.1.1-.8.8-.8.9-1.6s-.4-1-.2-1.6.6-1.2.9-1.1.5,1.2.4,1.9c-.1,1.4-.8,2-.4,2.6s1,.3,1.3.9a2.46,2.46,0,0,1-.1,1.7c-.2.7-.5.9-.4,1.2s.7.3.9.7c.3.6-.6,1.4-.3,2a1.07,1.07,0,0,0,1.1.3c.4-.3-.1-1,0-2.5s.7-2,.4-2.8-1.2-.8-1.2-1.5c0-.5.4-.6.7-1.2.4-1-.4-1.6-.3-3.2,0-1.1.4-2.4,1-2.5.4-.1.9.4,1,.8.3.7-.1,1.2-.4,2.8-.2,1.1-.4,2.3.1,2.9.2.1.5.3.7.2s.3-.6.3-.9c0-.7-.5-.8-.4-1.2s.8-.4,1.2-1.1-.2-1,.1-1.9c.2-.6.8-1.1,1.2-1s.6,1.3.6,1.4c.1.8-.2,1.4-1.2,3.3s-1.4,2.7-1.1,3,.8-.1,1,.1-.3,1.2-.3,1.3c-.7,1-1.4.8-1.8,1.6s.4,1.4-.1,2.5c-.3.7-.7.7-.8,1.4s.2.9.1,1.6-.6.6-1,1.5a2.55,2.55,0,0,0-.1,2.1c.1.3.3.8.7.9.7.2,1.8-.9,1.9-2s-.8-1.6-.5-2.2,1-.4,1.3-.9-.1-.9-.2-2a4.57,4.57,0,0,1,1.1-3.7c.3-.3.9-.7,1.2-.6s0,1.9,0,2c-.4,1.1-.8,1.2-1.1,2.4,0,.2-.5,1.7,0,2a.75.75,0,0,0,.8-.1c.3-.3,0-.8,0-1.5,0-1.2.8-2.4,1.3-2.4.3,0,.5.3.6.6.2.7-.6,1-.7,1.9s.3.9.3,1.7c0,1.1-1,1.5-2.1,3s-.7,1.9-1.8,3.2C2213.7,224.2,2212.4,225.8,2210.7,225.7Z" opacity="0.3" fill="url(#g)" style="isolation:isolate"/><path d="M2119.3,494.9c-2.6-.1-4.3-3.2-4.5-3.6-1.2-2.1-.7-3.6-2-4.4s-2.3.1-3.1-.7,0-1.6-.8-3.3a3.32,3.32,0,0,0-1-1.4c-.8-.5-1.4-.2-1.7-.6s.6-1.2.4-2.4c-.1-.8-.6-.9-.7-1.7-.1-1.1.7-2.4,1.3-2.3.8.1,1.6,3,1.8,4.4.1.5.2,1.3.8,1.6s.8-.1,1.2.2-.1,1.5.4,2.2c.3.3.8.6,1.1.4.8-.4.2-3.4.1-3.9-.4-1.9-.6-3.3-1.8-4.1-1-.6-1.8-.4-2.1-1.1s.4-1,.3-2.2a2.88,2.88,0,0,0-.9-2.1c-.5-.4-1-.2-1.2-.6s.6-.8.7-1.6-.7-1.2-.6-2.1.8-1.5,1.3-1.4c.7.1,1.1,1.8,1.2,2.4.5,2.2-.2,3.4.5,4a1.2,1.2,0,0,0,1.5,0c.2-.4-.8-1.1-.7-2,.1-.7.7-.6,1-1.5s-.3-1.5,0-1.9a1.43,1.43,0,0,1,2,.2c.4.5-.3,1.1-.6,3a7,7,0,0,0-.1,2.5c.2,1.3.7,1.3.8,2.3.2,1.6-.9,2.1-.5,3.4.2.9.8.7,1.2,1.7.3.8.2,1.4,0,3.5-.2,1.8-.3,2.8-.3,2.9a7.77,7.77,0,0,0,2.5,4.9c.4.3.9.7,1.2.5a1.94,1.94,0,0,0,0-2.1c-.5-.7-1.1-.7-1.1-1.1s1-.6,1.3-1.4-.3-1-.3-2.6c0-1,.2-1.2,0-1.7-.4-.7-1.2-.4-1.6-1.1a2,2,0,0,1,.1-2c.3-.9.6-.9.8-1.6a4,4,0,0,0-.5-2.4c-.8-1.9-1.3-2-1.2-2.8.1-1,1-1,1.1-2.1.1-.9-.5-1.2-.3-2.1s.8-1.5,1.2-1.4.6,1.5.6,2.5c-.1,1.9-1,2.6-.5,3.4s1.3.4,1.7,1.2a3.6,3.6,0,0,1-.2,2.3c-.3.9-.6,1.1-.5,1.5s.9.4,1.2.9c.4.8-.8,1.8-.3,2.5a1.08,1.08,0,0,0,1.4.3c.5-.4-.1-1.4,0-3.2.1-2.1,1-2.6.5-3.6s-1.5-1.1-1.6-1.9c0-.6.5-.8.9-1.6.6-1.3-.5-2.1-.4-4.2,0-1.4.5-3.1,1.4-3.3.5-.1,1.1.5,1.4,1,.4.9-.2,1.6-.6,3.7-.3,1.4-.6,3,.2,3.7a1.4,1.4,0,0,0,.9.3c.4-.1.4-.8.4-1.2-.1-.9-.7-1-.6-1.6s1.1-.5,1.5-1.4-.3-1.4.1-2.5c.3-.8,1-1.5,1.5-1.4s.8,1.6.8,1.8c.1,1.1-.3,1.9-1.5,4.3s-1.8,3.5-1.4,3.9,1-.2,1.3.2-.4,1.6-.4,1.7c-.9,1.4-1.8,1.1-2.4,2.1s.4,1.8-.1,3.2c-.4.9-.9.9-1.1,1.8s.3,1.2.1,2.1-.9.9-1.4,2a3.6,3.6,0,0,0-.2,2.7,1.78,1.78,0,0,0,.9,1.2c.9.2,2.4-1.2,2.5-2.6s-1.1-2.1-.7-2.9,1.3-.5,1.7-1.2-.1-1.2-.2-2.5a5.63,5.63,0,0,1,1.5-4.8c.4-.4,1.2-1,1.6-.7.6.4,0,2.5,0,2.6-.4,1.5-1,1.6-1.5,3.1-.1.2-.6,2.2,0,2.6a1,1,0,0,0,1-.2c.4-.4,0-1,0-2,0-1.6,1.1-3.2,1.8-3.1.3,0,.6.4.7.8.2.9-.7,1.3-.9,2.5-.2,1,.4,1.2.4,2.2,0,1.4-1.2,1.9-2.7,3.9s-.9,2.4-2.3,4.2C2123.3,492.8,2121.6,495,2119.3,494.9Z" opacity="0.3" fill="url(#h)" style="isolation:isolate"/><path d="M1937.1,392.5a7.6,7.6,0,0,0,3.7-2.6c1.4-1.5,1.3-2.2,2.4-4.1,1.8-3,2.9-2.5,5.9-6.4a12.21,12.21,0,0,0,2.4-4.5,6.1,6.1,0,0,0,.1-4c-.1-.1-.7-1.8-1.5-1.7s-1.2,1.6-1.5,2.4c-.7,2.3-.1,2.8-.5,4.6a8.2,8.2,0,0,1-4,5.1,3.22,3.22,0,0,1-2.2.6c-1.3-.5-1.6-3-1.3-4.8s.9-1.7,2.2-4.9a19.54,19.54,0,0,0,1.4-4.7,5.55,5.55,0,0,0-.3-3.6c-.1-.3-.6-1.2-1.1-1.1s-1,1.5-1.1,1.9c-.4,1.7,0,2.2,0,4.9a7.26,7.26,0,0,1-.8,3.8c-.1.2-.6,1-1,.9s-.4-.8-.4-1.8a36.88,36.88,0,0,1,.1-4.7c.2-2.2.4-2.9,0-3.9-.1-.2-.6-1.3-1.3-1.3s-1.4,1.7-1.6,2c-.8,2.4.2,3.7.7,7.5a47.07,47.07,0,0,1-.2,6.5,7.22,7.22,0,0,1-1.3,3.8c-.6.7-.9.7-1,.7-.6-.1-.7-1.5-.8-2.7a39.59,39.59,0,0,1,.2-9.1c.3-2.1.7-3.4.1-5a6.36,6.36,0,0,0-1.4-2.2c-.4-.4-1.5-1.6-2.2-1.3s-.5,1.7-.4,2.5c.2,1.4.8,1.4,1.3,2.8a7,7,0,0,1-.1,4.3c-.2.6-.4,1.3-.8,1.4s-.7-.4-1.2-1.4a13.26,13.26,0,0,1-1.8-3.8c-.4-1.7,0-2.2-.7-3.8-.2-.4-.7-1.5-1.2-1.5s-.8,1.8-.9,2a9.64,9.64,0,0,0,1.4,6.4c1.4,2.7,2.5,2.6,3.9,5.6.4.9.8,1.8,1.1,2.7.9,3,.5,3.6,1.4,4.9s1.6,1.3,2,2.6c.2.6.3,1.6-.1,1.8-.7.3-2.6-2.3-2.9-2.8-1.8-2.5-1.9-3.9-3.9-6.5-1.5-1.9-2.1-1.9-2.3-1.9-.6.2-.7,1.6-.7,1.9-.1,2,.8,4,3.1,6.5C1931.1,390,1934,393.2,1937.1,392.5Z" opacity="0.5" fill="url(#i)" style="isolation:isolate"/><path d="M2165.6,241c-5.5-.3-9.2-7-9.7-7.8-2.5-4.5-1.5-7.7-4.3-9.4-2.6-1.6-5,.3-6.6-1.5-1.4-1.6.1-3.4-1.7-7.1a5.81,5.81,0,0,0-2.2-2.9c-1.7-1.1-3-.4-3.6-1.3-.7-1.1,1.2-2.5.9-5.1-.2-1.8-1.3-2-1.5-3.7-.2-2.4,1.6-5.1,2.7-4.9,1.7.2,3.4,6.4,3.9,9.5.2,1,.4,2.7,1.7,3.4,1,.5,1.8-.1,2.5.4,1.1.9-.3,3.2.9,4.8a2.27,2.27,0,0,0,2.3.9c1.8-.8.5-7.3.3-8.4-.8-4-1.4-7-3.9-8.7-2-1.4-3.9-.9-4.5-2.3s.9-2.2.7-4.8c0-.4-.2-3.1-2-4.4-1.2-.9-2.2-.5-2.5-1.3s1.2-1.6,1.5-3.4c.3-2-1.5-2.7-1.3-4.6.2-1.6,1.7-3.2,2.8-3.1,1.6.2,2.3,3.8,2.6,5.1,1,4.7-.4,7.3,1.2,8.5,1,.8,2.9.6,3.3-.1.5-.9-1.8-2.3-1.5-4.3.2-1.4,1.5-1.4,2.1-3.1.6-2-.6-3.2.1-4.1s3.5-.8,4.3.4-.6,2.4-1.4,6.4a14,14,0,0,0-.2,5.4c.4,2.8,1.4,2.7,1.7,4.9.4,3.4-1.9,4.6-1.2,7.2.5,1.9,1.7,1.5,2.6,3.7.7,1.7.5,3,0,7.6-.4,3.9-.7,5.9-.6,6.3a15.74,15.74,0,0,0,5.5,10.4c.8.6,1.9,1.5,2.6,1.2.9-.5,1-2.9,0-4.5s-2.4-1.5-2.4-2.4c-.1-1.1,2.1-1.2,2.8-3,.7-1.6-.6-2.2-.6-5.7,0-2.2.4-2.7-.1-3.6-.9-1.4-2.5-.9-3.4-2.3s-.2-3,.1-4.2c.6-1.9,1.3-2,1.7-3.5s-.1-2.7-1.2-5.1c-1.7-4-2.8-4.3-2.6-6,.2-2.1,2.1-2.2,2.4-4.5.2-2-1.1-2.7-.6-4.6.4-1.7,1.8-3.2,2.6-3.1,1.1.2,1.4,3.3,1.3,5.4-.2,4-2.1,5.6-1.2,7.2s2.7.9,3.6,2.5c.7,1.5,0,3.6-.4,4.8-.6,1.8-1.4,2.4-1,3.3.4,1.1,1.9.8,2.5,1.9,1,1.7-1.7,3.9-.7,5.5a2.25,2.25,0,0,0,3,.7c1.1-.8-.1-2.9.1-6.9.3-4.5,2-5.6,1-7.8s-3.2-2.3-3.4-4.1c-.1-1.3,1.1-1.6,1.9-3.4,1.3-2.9-1-4.6-1-9,.1-3,1.2-6.8,3-7,1.1-.2,2.4,1,2.9,2.2.9,2-.3,3.4-1.3,7.9-.6,3-1.3,6.4.4,8a2,2,0,0,0,1.9.6c.8-.3.9-1.7.8-2.5-.1-1.9-1.4-2.2-1.3-3.4.2-1.4,2.3-1.2,3.3-2.9s-.6-3,.2-5.3c.6-1.6,2.2-3.2,3.3-2.9,1.4.3,1.6,3.5,1.7,3.9.2,2.4-.6,4.1-3.3,9.2-2.5,4.9-3.9,7.5-3,8.3.7.6,2.2-.3,2.8.4.8.9-.8,3.4-.8,3.6-1.9,2.9-3.9,2.3-5.1,4.4-1.2,2.4,1,3.8-.3,6.9-.8,2-1.9,2-2.3,3.9s.7,2.6.2,4.5-1.8,1.8-2.9,4.2a7.78,7.78,0,0,0-.4,5.8c.3.8.9,2.2,2,2.5,1.9.5,5.1-2.6,5.4-5.7s-2.4-4.5-1.5-6.3c.7-1.5,2.7-1,3.7-2.6.9-1.4-.2-2.6-.5-5.5-.4-3.8.6-7.9,3.1-10.3.9-.8,2.6-2.1,3.5-1.6,1.4.8,0,5.4-.1,5.6-1,3.2-2.2,3.5-3.1,6.6-.1.5-1.4,4.6.1,5.6a2,2,0,0,0,2.2-.4c.9-.9.1-2.3.1-4.3,0-3.4,2.3-6.8,3.8-6.7a2.31,2.31,0,0,1,1.6,1.7c.5,1.9-1.6,2.9-2,5.5-.4,2.2.9,2.6.9,4.7,0,3-2.7,4.2-5.9,8.4-3.4,4.4-2,5.2-4.9,8.9C2174.1,236.6,2170.4,241.3,2165.6,241Z" opacity="0.3" fill="url(#j)" style="isolation:isolate"/><path d="M355,152.3c-4.8-.2-8.1-6.1-8.5-6.8-2.2-4-1.3-6.7-3.8-8.2-2.3-1.4-4.4.3-5.8-1.3-1.2-1.4,0-3-1.5-6.3a6.06,6.06,0,0,0-1.9-2.6c-1.5-.9-2.6-.3-3.1-1.1-.6-1,1.1-2.2.8-4.4-.2-1.6-1.1-1.7-1.3-3.2-.2-2.1,1.4-4.4,2.4-4.3,1.5.2,2.9,5.6,3.4,8.3.1.8.4,2.4,1.5,3,.9.5,1.6-.1,2.2.4,1,.8-.3,2.8.8,4.2.5.6,1.4,1.1,2,.8,1.6-.7.5-6.4.3-7.4-.7-3.5-1.2-6.2-3.4-7.7-1.8-1.2-3.4-.8-4-2s.8-1.9.6-4.2a5,5,0,0,0-1.8-3.9c-1-.7-2-.5-2.2-1.1-.3-.8,1.1-1.4,1.3-3s-1.3-2.4-1.1-4c.2-1.4,1.5-2.8,2.5-2.7,1.4.2,2.1,3.3,2.3,4.5.9,4.1-.4,6.4,1,7.5a2.36,2.36,0,0,0,2.9-.1c.5-.8-1.6-2-1.3-3.8.2-1.3,1.4-1.2,1.9-2.8s-.6-2.8.1-3.6,3-.7,3.8.4-.6,2.1-1.2,5.6a14.73,14.73,0,0,0-.2,4.7c.4,2.5,1.3,2.4,1.5,4.3.3,3-1.7,4-1,6.4.5,1.6,1.5,1.3,2.3,3.2.6,1.5.4,2.7,0,6.6a39.47,39.47,0,0,0-.5,5.5,14.09,14.09,0,0,0,4.8,9.1c.7.5,1.7,1.3,2.3,1,.8-.4.9-2.5,0-4s-2.1-1.3-2.1-2.1c-.1-1,1.8-1.1,2.5-2.7.6-1.4-.5-1.9-.6-5,0-1.9.4-2.3-.1-3.1-.8-1.3-2.2-.8-3-2s-.2-2.7.1-3.7c.5-1.7,1.2-1.8,1.5-3s-.1-2.4-1-4.5c-1.5-3.5-2.5-3.8-2.3-5.2.2-1.8,1.9-1.9,2.1-4,.2-1.8-.9-2.4-.5-4.1.3-1.5,1.5-2.8,2.3-2.7s1.2,2.9,1.1,4.7c-.2,3.5-1.9,4.9-1,6.4.8,1.3,2.4.7,3.1,2.2.6,1.3,0,3.1-.4,4.2-.6,1.6-1.2,2.1-.9,2.9.4,1,1.7.7,2.2,1.7.8,1.5-1.5,3.4-.6,4.8a2.19,2.19,0,0,0,2.6.7c1-.7-.1-2.6.1-6.1.2-3.9,1.8-4.9.9-6.8s-2.9-2-3-3.6c-.1-1.2,1-1.4,1.7-3,1.1-2.5-.9-4-.8-7.9,0-2.6,1-5.9,2.6-6.2,1-.2,2.1.9,2.6,1.9.8,1.7-.3,3-1.1,6.9-.5,2.6-1.1,5.6.4,7a1.83,1.83,0,0,0,1.7.6c.6-.2.8-1.5.7-2.2-.1-1.6-1.2-2-1.1-3,.2-1.2,2-1,2.9-2.6s-.5-2.6.2-4.6c.5-1.4,1.9-2.8,2.9-2.6,1.2.3,1.5,3.1,1.5,3.4.1,2.1-.5,3.6-2.9,8.1-2.2,4.3-3.4,6.6-2.7,7.3s1.9-.3,2.5.4-.7,3-.7,3.1c-1.6,2.6-3.5,2-4.4,3.9-1.1,2.1.9,3.3-.3,6.1-.7,1.7-1.7,1.7-2,3.4s.6,2.3.2,4-1.6,1.6-2.6,3.7a6.93,6.93,0,0,0-.4,5.1c.2.6.7,2,1.8,2.2,1.7.4,4.5-2.3,4.7-5s-2.1-3.9-1.3-5.5c.6-1.3,2.4-.9,3.2-2.3s-.2-2.3-.5-4.8a11,11,0,0,1,2.8-9c.8-.7,2.3-1.8,3-1.4,1.2.7,0,4.7-.1,4.9-.9,2.8-2,3-2.8,5.8-.1.4-1.2,4.1.1,4.9a1.54,1.54,0,0,0,1.9-.4c.8-.8.1-2,.1-3.8,0-3,2-6,3.3-5.9.6,0,1.2.8,1.4,1.5.4,1.6-1.4,2.5-1.8,4.8-.3,1.9.8,2.3.8,4.1,0,2.7-2.3,3.7-5.2,7.4-2.9,3.9-1.7,4.6-4.3,7.8C362.5,148.4,359.2,152.5,355,152.3Z" opacity="0.3" fill="url(#k)" style="isolation:isolate"/><path d="M200.6,386.9c-5-.3-8.4-6.3-8.7-7-2.3-4.1-1.4-7-3.9-8.5s-4.5.3-6-1.3c-1.2-1.4.1-3.1-1.5-6.5a6,6,0,0,0-2-2.7c-1.5-1-2.7-.3-3.2-1.1-.7-1,1.1-2.3.9-4.6-.2-1.6-1.2-1.8-1.3-3.3-.2-2.1,1.4-4.6,2.5-4.5,1.6.2,3,5.8,3.5,8.6.1.9.4,2.4,1.5,3,.9.5,1.6-.1,2.3.4,1,.8-.3,2.9.9,4.4a2.2,2.2,0,0,0,2.1.9c1.6-.7.5-6.6.3-7.6-.7-3.6-1.2-6.4-3.5-7.9-1.8-1.2-3.5-.8-4.1-2.1s.8-2,.7-4.4a5.53,5.53,0,0,0-1.8-4c-1.1-.8-2-.5-2.3-1.1-.3-.8,1.1-1.4,1.3-3,.2-1.8-1.4-2.4-1.1-4.2.2-1.4,1.5-2.9,2.6-2.8,1.4.2,2.1,3.4,2.4,4.6.9,4.2-.4,6.6,1,7.7.9.7,2.6.5,2.9-.1.5-.9-1.6-2.1-1.3-3.9.2-1.3,1.4-1.3,1.9-2.9.6-1.8-.6-2.9.1-3.7a3,3,0,0,1,3.9.4c.8,1.2-.6,2.2-1.2,5.8a13,13,0,0,0-.2,4.8c.4,2.5,1.3,2.5,1.5,4.5.3,3.1-1.8,4.1-1,6.5.5,1.7,1.5,1.4,2.4,3.3.7,1.5.4,2.8,0,6.8-.4,3.6-.6,5.4-.6,5.7a14.24,14.24,0,0,0,4.9,9.4c.7.6,1.7,1.4,2.4,1s.9-2.6,0-4.1-2.1-1.4-2.2-2.2c-.1-1,1.9-1.1,2.6-2.8.6-1.4-.5-2-.6-5.1,0-2,.4-2.4-.1-3.2-.8-1.3-2.2-.8-3-2.1s-.2-2.8.1-3.8c.6-1.8,1.2-1.8,1.5-3.1s-.1-2.5-1-4.7c-1.5-3.6-2.6-3.9-2.4-5.4.2-1.9,1.9-2,2.2-4.1.2-1.8-1-2.4-.6-4.2.3-1.5,1.6-2.9,2.4-2.8,1,.2,1.2,3,1.1,4.8-.2,3.6-1.9,5-1,6.6.8,1.4,2.5.8,3.2,2.3s0,3.2-.4,4.4c-.6,1.7-1.2,2.2-1,2.9.4,1,1.7.7,2.3,1.7.9,1.5-1.5,3.6-.7,5a2.29,2.29,0,0,0,2.7.7c1-.7-.1-2.6.1-6.3.2-4,1.9-5,.9-7s-2.9-2.1-3-3.7c-.1-1.2,1-1.5,1.7-3,1.1-2.6-.9-4.1-.9-8.2.1-2.7,1.1-6.1,2.7-6.4,1-.2,2.1.9,2.7,2,.8,1.8-.3,3-1.1,7.1-.6,2.7-1.1,5.8.4,7.2a1.92,1.92,0,0,0,1.7.6c.5-.2.8-1.5.8-2.3-.1-1.7-1.3-2-1.1-3,.2-1.3,2.1-1.1,2.9-2.7s-.6-2.7.2-4.8c.5-1.5,2-2.9,2.9-2.7,1.3.3,1.5,3.2,1.5,3.5.2,2.1-.6,3.7-2.9,8.4-2.2,4.4-3.5,6.8-2.8,7.5s2-.3,2.6.4c.7.9-.7,3.1-.8,3.2-1.7,2.6-3.6,2-4.6,4s.9,3.5-.3,6.3c-.7,1.8-1.7,1.8-2.1,3.5s.6,2.4.2,4.1-1.6,1.6-2.7,3.8a7.2,7.2,0,0,0-.4,5.2c.3.7.8,2,1.8,2.3,1.8.4,4.6-2.3,4.8-5.1s-2.1-4-1.3-5.7c.7-1.4,2.4-.9,3.3-2.4.8-1.3-.2-2.4-.5-4.9-.4-3.4.6-7.2,2.9-9.3.8-.7,2.4-1.9,3.1-1.4,1.2.7,0,4.9-.1,5-.9,2.9-2,3.1-2.9,6-.1.4-1.2,4.2.1,5a1.68,1.68,0,0,0,2-.4c.8-.8.1-2,.1-3.9,0-3.1,2.1-6.2,3.4-6.1.7,0,1.2.8,1.4,1.5.4,1.7-1.4,2.6-1.8,4.9-.3,2,.9,2.4.9,4.3,0,2.8-2.4,3.8-5.3,7.6-3,4-1.8,4.7-4.5,8.1C208.3,382.9,204.9,387.1,200.6,386.9Z" opacity="0.3" fill="url(#l)" style="isolation:isolate"/><path d="M234.3,248.3c5-.3,8.4-6.3,8.7-7,2.3-4.1,1.4-7,3.9-8.5s4.5.3,6-1.3c1.2-1.4-.1-3.1,1.5-6.5a6,6,0,0,1,2-2.7c1.5-.9,2.7-.3,3.2-1.1.7-1-1.1-2.3-.9-4.6.2-1.6,1.2-1.8,1.3-3.3.2-2.1-1.4-4.6-2.5-4.5-1.5.2-3,5.8-3.5,8.6-.1.9-.4,2.4-1.5,3-.9.5-1.6-.1-2.3.4-1,.8.3,2.9-.9,4.4a2.38,2.38,0,0,1-2.1.9c-1.6-.7-.5-6.6-.3-7.6.7-3.6,1.2-6.4,3.5-7.9,1.8-1.2,3.5-.8,4.1-2.1s-.8-2-.7-4.4a5.53,5.53,0,0,1,1.8-4c1.1-.8,2-.5,2.3-1.1.3-.8-1.1-1.4-1.3-3-.2-1.8,1.4-2.4,1.1-4.2-.2-1.4-1.5-2.9-2.6-2.8-1.4.2-2.1,3.4-2.4,4.7-.9,4.2.4,6.6-1,7.7-.9.7-2.6.5-2.9-.1-.5-.9,1.6-2.1,1.3-3.9-.2-1.3-1.4-1.3-1.9-2.9-.6-1.8.6-2.9-.1-3.7a3,3,0,0,0-3.9.4c-.8,1.2.6,2.2,1.2,5.8a13.39,13.39,0,0,1,.2,4.9c-.4,2.5-1.3,2.5-1.5,4.5-.3,3.1,1.8,4.1,1.1,6.6-.5,1.7-1.5,1.4-2.4,3.3-.7,1.6-.4,2.8,0,6.9.4,3.6.6,5.3.6,5.7a14.24,14.24,0,0,1-4.9,9.4c-.7.6-1.7,1.4-2.4,1s-.9-2.6,0-4.1,2.1-1.4,2.2-2.2c.1-1-1.9-1.1-2.6-2.8-.6-1.4.5-2,.6-5.1,0-2-.4-2.4.1-3.2.8-1.3,2.2-.8,3-2.1s.2-2.8-.1-3.8c-.6-1.8-1.2-1.8-1.5-3.1s.1-2.4,1-4.6c1.5-3.6,2.6-3.9,2.4-5.4-.2-1.9-1.9-2-2.2-4.1-.2-1.8,1-2.4.6-4.2-.3-1.5-1.6-2.9-2.4-2.8-1,.2-1.2,3-1.1,4.9.2,3.6,1.9,5,1,6.6s-2.5.8-3.2,2.3,0,3.2.4,4.4c.6,1.7,1.2,2.2,1,2.9-.4,1-1.7.7-2.3,1.7-.9,1.5,1.5,3.6.7,4.9a2.29,2.29,0,0,1-2.7.7c-1-.7.1-2.6-.1-6.3-.2-4-1.9-5-1-7s2.9-2.1,3-3.7c.1-1.2-1-1.5-1.7-3-1.1-2.6.9-4.1.9-8.2-.1-2.7-1.1-6.1-2.7-6.4-1-.2-2.1.9-2.7,2-.8,1.8.3,3,1.1,7.1.6,2.7,1.1,5.8-.4,7.2a1.92,1.92,0,0,1-1.7.6c-.5-.2-.8-1.5-.8-2.3.1-1.7,1.3-2,1.1-3-.2-1.3-2.1-1.1-3-2.7s.6-2.7-.2-4.8c-.5-1.5-2-2.9-2.9-2.7-1.3.3-1.5,3.2-1.5,3.5-.2,2.1.6,3.7,2.9,8.4,2.2,4.4,3.5,6.8,2.8,7.5s-2-.3-2.6.4c-.7.9.7,3.1.8,3.2,1.7,2.6,3.6,2.1,4.6,4,1.1,2.1-.9,3.4.3,6.3.7,1.8,1.7,1.8,2.1,3.5s-.6,2.4-.2,4.1,1.6,1.6,2.7,3.8a7.2,7.2,0,0,1,.4,5.2c-.3.7-.8,2-1.8,2.3-1.8.4-4.6-2.3-4.8-5.1s2.1-4,1.3-5.7c-.7-1.4-2.4-.9-3.3-2.4-.8-1.3.2-2.4.5-4.9.4-3.4-.6-7.2-2.9-9.3-.8-.7-2.4-1.9-3.1-1.4-1.2.7,0,4.9.1,5,.9,2.9,2,3.1,2.9,6,.1.4,1.2,4.2-.1,5a1.68,1.68,0,0,1-2-.4c-.8-.8-.1-2-.1-3.9,0-3.1-2.1-6.2-3.4-6.1-.7,0-1.2.8-1.4,1.5-.4,1.7,1.4,2.6,1.8,4.9.3,2-.9,2.4-.9,4.3,0,2.8,2.4,3.8,5.3,7.6,3,4,1.8,4.7,4.5,8.1C226.6,244.2,230,248.5,234.3,248.3Z" opacity="0.3" fill="url(#m)" style="isolation:isolate"/><path d="M105,111.4c-5-.3-8.3-6.3-8.8-7-2.3-4.1-1.3-7-3.9-8.4-2.4-1.4-4.5.3-6-1.3-1.3-1.4.1-3.1-1.5-6.5a6,6,0,0,0-2-2.7c-1.5-1-2.7-.3-3.2-1.1-.7-1,1.1-2.3.8-4.6-.2-1.6-1.2-1.8-1.3-3.3-.2-2.1,1.4-4.6,2.5-4.5,1.6.2,3,5.8,3.5,8.6.2.9.4,2.4,1.5,3,.9.5,1.6-.1,2.3.4,1,.8-.3,2.9.8,4.4a2,2,0,0,0,2.1.8c1.6-.7.5-6.6.3-7.6-.7-3.6-1.2-6.4-3.5-7.9-1.8-1.2-3.5-.8-4.1-2.1s.8-2,.7-4.4a5.53,5.53,0,0,0-1.8-4c-1.1-.8-2-.5-2.3-1.1-.3-.8,1.1-1.4,1.3-3,.2-1.8-1.4-2.4-1.1-4.2.2-1.5,1.5-2.9,2.6-2.8,1.4.2,2.1,3.4,2.4,4.7.9,4.2-.4,6.6,1,7.7,1,.7,2.6.5,3-.1.5-.8-1.6-2.1-1.3-3.9.2-1.3,1.4-1.3,1.9-2.8.6-1.8-.6-2.9.1-3.7s3.2-.8,3.9.4-.6,2.2-1.2,5.8a13.39,13.39,0,0,0-.2,4.9c.4,2.5,1.3,2.5,1.5,4.5.3,3.1-1.8,4.1-1,6.6.5,1.7,1.5,1.4,2.4,3.3.7,1.5.5,2.8,0,6.8-.4,3.6-.6,5.3-.6,5.7a14.36,14.36,0,0,0,5,9.4c.7.6,1.7,1.4,2.4,1s.9-2.6,0-4.1-2.1-1.4-2.2-2.2c-.1-1,1.8-1.1,2.6-2.8.6-1.4-.5-2-.6-5.1,0-2,.4-2.4-.1-3.2-.8-1.3-2.2-.8-3-2.1s-.2-2.8.1-3.8c.6-1.8,1.2-1.8,1.5-3.1s-.1-2.5-1-4.7c-1.5-3.7-2.5-3.9-2.4-5.4.2-1.9,1.9-2,2.2-4.1.2-1.8-.9-2.4-.6-4.2.3-1.5,1.6-2.9,2.4-2.8,1,.2,1.2,3,1.1,4.8-.2,3.6-1.9,5-1,6.6.8,1.4,2.5.8,3.2,2.3.7,1.3,0,3.2-.4,4.4-.6,1.7-1.2,2.2-1,2.9.4,1,1.7.7,2.3,1.7.9,1.5-1.5,3.6-.7,4.9a2.29,2.29,0,0,0,2.7.7c1-.7-.1-2.6.1-6.3.2-4.1,1.8-5,1-7s-3-2.1-3-3.7c-.1-1.2,1-1.5,1.7-3,1.1-2.6-.9-4.1-.9-8.2.1-2.7,1.1-6.1,2.7-6.4,1-.2,2.2.9,2.7,2,.8,1.8-.3,3-1.1,7.1-.6,2.7-1.2,5.8.4,7.2a1.92,1.92,0,0,0,1.7.6c.5-.2.8-1.5.8-2.3-.1-1.7-1.3-2-1.1-3,.2-1.3,2.1-1.1,3-2.7s-.6-2.7.2-4.8c.5-1.5,2-2.9,2.9-2.7,1.3.3,1.5,3.2,1.5,3.5.2,2.2-.6,3.7-2.9,8.4-2.2,4.4-3.5,6.8-2.8,7.5s2-.3,2.6.4-.7,3.1-.8,3.2c-1.7,2.7-3.6,2-4.6,4s.9,3.4-.3,6.3c-.7,1.8-1.7,1.8-2.1,3.5s.6,2.4.2,4.1-1.6,1.6-2.7,3.8a7.2,7.2,0,0,0-.4,5.2c.3.7.8,2,1.8,2.3,1.8.4,4.6-2.3,4.8-5.1s-2.1-4-1.3-5.7c.7-1.4,2.4-.9,3.3-2.4.8-1.3-.2-2.4-.5-4.9-.4-3.4.6-7.2,2.8-9.3.8-.7,2.3-1.9,3.1-1.4,1.2.7,0,4.9-.1,5-.9,2.9-2,3.1-2.8,6-.1.4-1.2,4.2.1,5a1.68,1.68,0,0,0,2-.4c.8-.8.1-2,.1-3.9,0-3.1,2.1-6.2,3.4-6.1.7,0,1.2.8,1.4,1.5.4,1.7-1.4,2.6-1.8,5-.3,2,.8,2.4.8,4.3,0,2.8-2.4,3.8-5.3,7.6-3,4-1.8,4.7-4.5,8.1C112.7,107.4,109.3,111.7,105,111.4Z" opacity="0.3" fill="url(#n)" style="isolation:isolate"/><path d="M108.8,299.2c-2.6-.1-4.3-3.2-4.5-3.6-1.2-2.1-.7-3.6-2-4.4s-2.3.2-3.1-.7,0-1.6-.8-3.3a3.32,3.32,0,0,0-1-1.4c-.8-.5-1.4-.2-1.7-.6s.6-1.2.4-2.4c-.1-.8-.6-.9-.7-1.7-.1-1.1.7-2.4,1.3-2.3.8.1,1.6,3,1.8,4.4.1.4.2,1.3.8,1.6s.8-.1,1.2.2-.2,1.5.4,2.2c.3.3.8.6,1.1.4.8-.4.2-3.4.2-3.9-.4-1.9-.7-3.3-1.8-4.1-1-.6-1.8-.4-2.1-1.1s.4-1,.3-2.2a2.88,2.88,0,0,0-.9-2.1c-.5-.4-1-.2-1.2-.6s.6-.7.7-1.6-.7-1.3-.6-2.2c.1-.7.8-1.5,1.3-1.4.7.1,1.1,1.8,1.2,2.4.5,2.2-.2,3.4.5,4a1.36,1.36,0,0,0,1.5,0c.2-.4-.8-1.1-.7-2,.1-.7.7-.6,1-1.5s-.3-1.5,0-1.9a1.53,1.53,0,0,1,2,.2c.4.5-.3,1.1-.6,3a7,7,0,0,0-.1,2.5c.2,1.3.7,1.3.8,2.3.2,1.6-.9,2.1-.5,3.4.2.9.8.7,1.2,1.7.3.8.2,1.4,0,3.5-.2,1.8-.3,2.8-.3,2.9a7.3,7.3,0,0,0,2.5,4.8c.4.3.9.7,1.2.5a1.94,1.94,0,0,0,0-2.1c-.5-.7-1.1-.7-1.1-1.1s1-.6,1.3-1.4-.3-1-.3-2.6c0-1,.2-1.2,0-1.7-.4-.7-1.2-.4-1.6-1.1a2.33,2.33,0,0,1,0-2c.3-.9.6-.9.8-1.6a4,4,0,0,0-.5-2.4c-.8-1.9-1.3-2-1.2-2.8.1-1,1-1,1.1-2.1.1-.9-.5-1.2-.3-2.2s.8-1.5,1.2-1.4.6,1.5.6,2.5c-.1,1.9-1,2.6-.5,3.4s1.3.4,1.7,1.2a2.83,2.83,0,0,1-.2,2.2c-.3.9-.6,1.1-.5,1.5s.9.4,1.2.9c.4.8-.8,1.8-.3,2.5a1.08,1.08,0,0,0,1.4.3c.5-.4-.1-1.4,0-3.2.1-2.1,1-2.6.5-3.6s-1.5-1.1-1.6-1.9c0-.6.5-.8.9-1.6.6-1.3-.5-2.1-.4-4.2,0-1.4.6-3.1,1.4-3.3.5-.1,1.1.5,1.4,1,.4.9-.2,1.6-.6,3.7-.3,1.4-.6,3,.2,3.7a1,1,0,0,0,.9.3c.3-.1.4-.8.4-1.2-.1-.9-.7-1-.6-1.6s1.1-.5,1.5-1.4-.3-1.4.1-2.4c.3-.8,1-1.5,1.5-1.4s.8,1.6.8,1.8c.1,1.1-.3,1.9-1.5,4.3s-1.8,3.5-1.4,3.9,1-.2,1.3.2-.4,1.6-.4,1.7c-.9,1.4-1.8,1-2.3,2.1s.5,1.8-.1,3.2c-.4.9-.9.9-1.1,1.8s.3,1.2.1,2.1-.8.8-1.4,2a3.6,3.6,0,0,0-.2,2.7,1.78,1.78,0,0,0,.9,1.2c.9.2,2.4-1.2,2.5-2.6s-1.1-2.1-.7-2.9,1.3-.5,1.7-1.2-.1-1.2-.2-2.5a5.73,5.73,0,0,1,1.5-4.8c.4-.4,1.2-1,1.6-.7.6.4,0,2.5,0,2.6-.5,1.5-1,1.6-1.5,3.1-.1.2-.6,2.2,0,2.6a1,1,0,0,0,1-.2c.4-.4,0-1,0-2,0-1.6,1.1-3.2,1.8-3.1.3,0,.6.4.7.8.2.9-.7,1.3-.9,2.5-.2,1,.4,1.2.4,2.2,0,1.4-1.2,1.9-2.7,3.9s-.9,2.4-2.3,4.2C112.7,297.2,111,299.4,108.8,299.2Z" opacity="0.3" fill="url(#o)" style="isolation:isolate"/><path d="M313.4,325.6c-2.6-.1-4.3-3.2-4.5-3.6-1.2-2.1-.7-3.6-2-4.4s-2.3.1-3.1-.7,0-1.6-.8-3.3a3.32,3.32,0,0,0-1-1.4c-.8-.5-1.4-.2-1.7-.6s.6-1.2.4-2.4c-.1-.8-.6-.9-.7-1.7-.1-1.1.7-2.4,1.3-2.3.8.1,1.6,3,1.8,4.4.1.5.2,1.3.8,1.6s.8-.1,1.2.2-.1,1.5.4,2.2c.3.3.8.6,1.1.4.8-.4.2-3.4.1-3.9-.4-1.9-.6-3.3-1.8-4.1-1-.6-1.8-.4-2.1-1.1s.4-1,.3-2.2a2.88,2.88,0,0,0-.9-2.1c-.5-.4-1-.2-1.2-.6s.6-.8.7-1.6-.7-1.2-.6-2.1.8-1.5,1.3-1.4c.7.1,1.1,1.8,1.2,2.4.5,2.2-.2,3.4.5,4a1.09,1.09,0,0,0,1.5,0c.2-.4-.8-1.1-.7-2,.1-.7.7-.6,1-1.5s-.3-1.5,0-1.9a1.43,1.43,0,0,1,2,.2c.4.5-.3,1.1-.6,3a7,7,0,0,0-.1,2.5c.2,1.3.7,1.3.8,2.3.2,1.6-.9,2.1-.5,3.4.2.9.8.7,1.2,1.7.3.8.2,1.4,0,3.5-.2,1.8-.3,2.8-.3,2.9a7.77,7.77,0,0,0,2.5,4.9c.4.3.9.7,1.2.5a1.94,1.94,0,0,0,0-2.1c-.5-.7-1.1-.7-1.1-1.1s1-.6,1.3-1.4-.3-1-.3-2.6c0-1,.2-1.2,0-1.7-.4-.7-1.2-.4-1.6-1.1a2.33,2.33,0,0,1,0-2c.3-.9.6-.9.8-1.6a4,4,0,0,0-.5-2.4c-.8-1.9-1.3-2-1.2-2.8.1-1,1-1,1.1-2.1.1-.9-.5-1.2-.3-2.1s.8-1.5,1.2-1.4.6,1.5.6,2.5c-.1,1.9-1,2.6-.5,3.4s1.3.4,1.7,1.2a3.6,3.6,0,0,1-.2,2.3c-.3.9-.6,1.1-.5,1.5s.9.4,1.2.9c.4.8-.8,1.8-.4,2.5a1,1,0,0,0,1.3.2c.5-.4-.1-1.4,0-3.2.1-2.1,1-2.6.5-3.6s-1.5-1.1-1.6-1.9c0-.6.5-.8.9-1.6.6-1.3-.5-2.1-.4-4.2,0-1.4.5-3.1,1.4-3.3.5-.1,1.1.5,1.4,1,.4.9-.2,1.6-.6,3.7-.3,1.4-.6,3,.2,3.7a1.4,1.4,0,0,0,.9.3c.4-.1.4-.8.4-1.2-.1-.9-.7-1-.6-1.6s1.1-.5,1.5-1.4-.3-1.4.1-2.5c.3-.8,1-1.5,1.5-1.4s.8,1.6.8,1.8c.1,1.1-.3,1.9-1.5,4.3s-1.8,3.5-1.4,3.9,1-.1,1.3.2-.4,1.6-.4,1.7c-.9,1.4-1.8,1.1-2.4,2.1s.5,1.8-.1,3.2c-.4.9-.9.9-1.1,1.8s.3,1.2.1,2.1-.9.9-1.4,2a3.6,3.6,0,0,0-.2,2.7,1.78,1.78,0,0,0,.9,1.2c.9.2,2.4-1.2,2.5-2.6s-1.1-2.1-.7-2.9,1.3-.5,1.7-1.2-.1-1.2-.2-2.5a5.73,5.73,0,0,1,1.5-4.8c.4-.4,1.2-1,1.6-.7.6.4,0,2.5,0,2.6-.5,1.5-1,1.6-1.5,3.1-.1.2-.6,2.2,0,2.6a1,1,0,0,0,1-.2c.4-.4,0-1.1,0-2,0-1.6,1.1-3.2,1.8-3.1.3,0,.6.4.7.8.2.9-.7,1.3-.9,2.5-.2,1,.4,1.2.4,2.2,0,1.4-1.2,1.9-2.7,3.9s-.9,2.4-2.3,4.2C317.4,323.5,315.7,325.7,313.4,325.6Z" opacity="0.3" fill="url(#p)" style="isolation:isolate"/><path d="M199.1,438.3c-2.6-.1-4.3-3.2-4.5-3.6-1.2-2.1-.7-3.6-2-4.4s-2.3.2-3.1-.7,0-1.6-.8-3.3a3.32,3.32,0,0,0-1-1.4c-.8-.5-1.4-.2-1.7-.6s.6-1.2.4-2.3c-.1-.8-.6-.9-.7-1.7-.1-1.1.7-2.4,1.3-2.3.8.1,1.6,3,1.8,4.4.1.4.2,1.3.8,1.6s.9-.1,1.2.2c.5.4-.1,1.5.4,2.2.3.3.8.6,1.1.4.9-.4.2-3.4.1-3.9-.4-1.9-.6-3.3-1.8-4.1-1-.6-1.8-.4-2.1-1.1s.4-1,.4-2.2a3.33,3.33,0,0,0-.9-2.1c-.6-.4-1-.2-1.2-.6s.6-.7.7-1.6-.7-1.3-.6-2.2c.1-.7.8-1.5,1.3-1.4.7.1,1.1,1.8,1.2,2.4.5,2.2-.2,3.4.5,4a1.18,1.18,0,0,0,1.5,0c.2-.3-.8-1.1-.7-2,.1-.7.7-.6,1-1.5s-.3-1.5,0-1.9a1.53,1.53,0,0,1,2,.2c.4.5-.3,1.1-.6,3a7,7,0,0,0-.1,2.5c.2,1.3.7,1.3.8,2.3.2,1.6-.9,2.1-.5,3.4.2.9.8.7,1.2,1.7.4.8.2,1.4,0,3.5-.2,1.8-.3,2.8-.3,2.9a7.3,7.3,0,0,0,2.5,4.8c.4.3.9.7,1.2.5a1.94,1.94,0,0,0,0-2.1c-.5-.7-1.1-.7-1.1-1.1s1-.6,1.3-1.4-.3-1-.3-2.6c0-1,.2-1.2-.1-1.7-.4-.7-1.2-.4-1.6-1.1a2.33,2.33,0,0,1,0-2c.3-.9.6-.9.8-1.6a4,4,0,0,0-.5-2.4c-.8-1.9-1.3-2-1.2-2.8.1-1,1-1,1.1-2.1s-.5-1.2-.3-2.2.8-1.5,1.2-1.4.6,1.5.6,2.5c-.1,1.9-1,2.6-.5,3.4s1.3.4,1.7,1.2a2.83,2.83,0,0,1-.2,2.2c-.3.9-.6,1.1-.5,1.5s.9.4,1.2.9c.4.8-.8,1.8-.3,2.5a1.08,1.08,0,0,0,1.4.3c.5-.4-.1-1.4,0-3.2.1-2.1,1-2.6.5-3.6s-1.5-1.1-1.6-1.9c0-.6.5-.8.9-1.6.6-1.3-.5-2.1-.4-4.2,0-1.4.6-3.1,1.4-3.3.5-.1,1.1.5,1.4,1,.4.9-.1,1.6-.6,3.7-.3,1.4-.6,3,.2,3.7a1,1,0,0,0,.9.3c.3-.1.4-.8.4-1.2-.1-.9-.7-1-.6-1.6s1.1-.5,1.5-1.4-.3-1.4.1-2.5c.3-.8,1-1.5,1.5-1.4s.8,1.6.8,1.8c.1,1.1-.3,1.9-1.5,4.3s-1.8,3.5-1.4,3.9,1-.2,1.3.2-.4,1.6-.4,1.7c-.9,1.4-1.8,1-2.3,2.1s.4,1.8-.1,3.2c-.4.9-.9.9-1.1,1.8s.3,1.2.1,2.1-.8.8-1.4,2a3.6,3.6,0,0,0-.2,2.7,1.78,1.78,0,0,0,.9,1.2c.9.2,2.4-1.2,2.5-2.6s-1.1-2.1-.7-2.9,1.3-.5,1.7-1.2-.1-1.2-.2-2.5a5.73,5.73,0,0,1,1.5-4.8c.4-.4,1.2-1,1.6-.7.6.4,0,2.5,0,2.6-.5,1.5-1,1.6-1.5,3.1-.1.2-.6,2.2,0,2.6a1,1,0,0,0,1-.2c.4-.4,0-1,0-2,0-1.6,1.1-3.2,1.8-3.1.3,0,.6.4.7.8.2.9-.7,1.3-.9,2.5-.2,1,.4,1.2.4,2.2,0,1.4-1.2,1.9-2.7,3.9s-.9,2.4-2.3,4.2C203.1,436.3,201.4,438.5,199.1,438.3Z" opacity="0.3" fill="url(#q)" style="isolation:isolate"/><path d="M271.7,161.5c-2.5-.1-4.2-3.2-4.4-3.5-1.1-2.1-.7-3.5-2-4.2s-2.3.1-3-.7,0-1.5-.8-3.2a2.56,2.56,0,0,0-1-1.3c-.7-.5-1.4-.2-1.6-.6s.6-1.1.4-2.3c-.1-.8-.6-.9-.7-1.7-.1-1.1.7-2.3,1.2-2.2.8.1,1.5,2.9,1.8,4.3.1.4.2,1.2.8,1.5s.8-.1,1.1.2c.5.4-.1,1.5.4,2.2a1,1,0,0,0,1,.4c.8-.4.2-3.3.1-3.8-.4-1.8-.6-3.2-1.8-3.9-.9-.6-1.8-.4-2-1s.4-1,.3-2.2a2.52,2.52,0,0,0-.9-2c-.5-.4-1-.2-1.1-.6s.5-.7.7-1.5-.7-1.2-.6-2.1a1.71,1.71,0,0,1,1.3-1.4c.7.1,1.1,1.7,1.2,2.3.5,2.1-.2,3.3.5,3.9a1.09,1.09,0,0,0,1.5,0c.2-.4-.8-1-.7-1.9.1-.6.7-.6,1-1.4s-.3-1.4,0-1.9a1.43,1.43,0,0,1,2,.2c.4.5-.3,1.1-.6,2.9a6.47,6.47,0,0,0-.1,2.4c.2,1.3.7,1.2.8,2.2.2,1.6-.9,2-.5,3.3.2.8.8.7,1.2,1.7.3.8.2,1.4,0,3.4-.2,1.8-.3,2.7-.3,2.9a7.29,7.29,0,0,0,2.5,4.7c.4.3.9.7,1.2.5a1.77,1.77,0,0,0,0-2c-.5-.7-1.1-.7-1.1-1.1s.9-.6,1.3-1.4-.3-1-.3-2.6c0-1,.2-1.2,0-1.6-.4-.6-1.1-.4-1.5-1a3.08,3.08,0,0,1,0-1.9c.3-.9.6-.9.8-1.6a3.72,3.72,0,0,0-.5-2.3c-.8-1.8-1.3-1.9-1.2-2.7s1-1,1.1-2-.5-1.2-.3-2.1.8-1.5,1.2-1.4.6,1.5.6,2.4c-.1,1.8-1,2.5-.5,3.3s1.2.4,1.6,1.1a3.36,3.36,0,0,1-.2,2.2c-.3.8-.6,1.1-.5,1.5s.9.4,1.1.9c.4.8-.8,1.8-.3,2.5a1,1,0,0,0,1.3.3c.5-.4,0-1.3,0-3.1.1-2,.9-2.5.5-3.5s-1.5-1-1.5-1.9c0-.6.5-.8.9-1.5.6-1.3-.5-2.1-.4-4.1,0-1.3.5-3.1,1.3-3.2.5-.1,1.1.5,1.3,1,.4.9-.1,1.5-.6,3.6-.3,1.4-.6,2.9.2,3.6a1.22,1.22,0,0,0,.9.3c.3-.1.4-.8.4-1.1-.1-.9-.6-1-.6-1.5s1-.5,1.5-1.3-.3-1.3.1-2.4c.3-.7,1-1.4,1.5-1.3s.8,1.6.8,1.8c.1,1.1-.3,1.8-1.5,4.2s-1.8,3.4-1.4,3.8,1-.1,1.3.2-.3,1.6-.4,1.6c-.8,1.3-1.8,1-2.3,2s.4,1.7-.1,3.1c-.4.9-.9.9-1,1.8s.3,1.2.1,2-.8.8-1.3,1.9a3.34,3.34,0,0,0-.2,2.6c.1.3.4,1,.9,1.1.9.2,2.3-1.2,2.4-2.6s-1.1-2-.7-2.9,1.2-.4,1.7-1.2-.1-1.2-.2-2.5a5.81,5.81,0,0,1,1.4-4.6c.4-.4,1.2-1,1.6-.7.6.4,0,2.4,0,2.5-.5,1.4-1,1.6-1.4,3-.1.2-.6,2.1,0,2.5a.8.8,0,0,0,1-.2c.4-.4,0-1,0-2,0-1.5,1-3.1,1.7-3,.3,0,.6.4.7.8.2.8-.7,1.3-.9,2.5-.1,1,.4,1.2.4,2.1,0,1.4-1.2,1.9-2.7,3.8s-.9,2.4-2.2,4C275.6,159.5,273.9,161.6,271.7,161.5Z" opacity="0.3" fill="url(#r)" style="isolation:isolate"/><path d="M103.6,539.5c-2.6-.1-4.3-3.3-4.5-3.6-1.2-2.1-.7-3.6-2-4.3s-2.3.2-3.1-.7,0-1.6-.8-3.3a3.32,3.32,0,0,0-1-1.4c-.8-.5-1.4-.2-1.7-.6s.6-1.2.4-2.3c-.1-.8-.6-.9-.7-1.7-.1-1.1.7-2.4,1.3-2.3.8.1,1.6,3,1.8,4.4.1.5.2,1.3.8,1.6s.8-.1,1.2.2-.2,1.5.4,2.2c.3.3.8.6,1.1.4.8-.4.2-3.4.2-3.9-.4-1.8-.7-3.3-1.8-4.1-1-.6-1.8-.4-2.1-1.1s.4-1,.3-2.2a2.88,2.88,0,0,0-.9-2.1c-.5-.4-1-.2-1.2-.6s.6-.8.7-1.6-.7-1.2-.6-2.1.8-1.5,1.3-1.4c.7.1,1.1,1.8,1.2,2.4.5,2.2-.2,3.4.5,4a1.09,1.09,0,0,0,1.5,0c.2-.4-.8-1.1-.7-2,.1-.7.7-.7,1-1.5s-.3-1.5,0-1.9a1.53,1.53,0,0,1,2,.2c.4.5-.3,1.1-.6,3a7,7,0,0,0-.1,2.5c.2,1.3.7,1.3.8,2.3.2,1.6-.9,2.1-.5,3.4.2.9.8.7,1.2,1.7.3.8.2,1.4,0,3.5-.2,1.8-.3,2.8-.3,2.9a7.3,7.3,0,0,0,2.5,4.8c.4.3.9.7,1.2.5a1.92,1.92,0,0,0,0-2.1c-.5-.8-1.1-.7-1.1-1.1s1-.6,1.3-1.4-.3-1-.3-2.6c0-1,.2-1.2,0-1.7-.4-.7-1.2-.4-1.6-1.1a2.33,2.33,0,0,1,0-2c.3-.9.6-.9.8-1.6a4,4,0,0,0-.5-2.4c-.8-1.9-1.3-2-1.2-2.8.1-1,1-1,1.1-2.1.1-.9-.5-1.2-.3-2.1s.8-1.5,1.2-1.4.6,1.5.6,2.5c-.1,1.9-1,2.6-.5,3.4s1.3.4,1.7,1.2a3.3,3.3,0,0,1-.2,2.2c-.3.8-.6,1.1-.5,1.5s.9.4,1.2.9c.4.8-.8,1.8-.3,2.5a1.08,1.08,0,0,0,1.4.3c.5-.4-.1-1.3,0-3.2.1-2.1,1-2.6.5-3.6s-1.5-1.1-1.6-1.9c0-.6.5-.8.9-1.6.6-1.3-.5-2.1-.4-4.2,0-1.4.6-3.1,1.4-3.3.5-.1,1.1.5,1.4,1,.4.9-.2,1.6-.6,3.7-.3,1.4-.6,3,.2,3.7a1,1,0,0,0,.9.3c.3-.1.4-.8.4-1.2-.1-.9-.7-1-.6-1.6s1.1-.5,1.5-1.4-.3-1.4.1-2.5c.3-.8,1-1.5,1.5-1.4s.8,1.6.8,1.8c.1,1.1-.3,1.9-1.5,4.3s-1.8,3.5-1.4,3.9,1-.2,1.3.2-.3,1.6-.4,1.7c-.9,1.4-1.8,1.1-2.3,2.1s.4,1.8-.1,3.2c-.4.9-.9.9-1.1,1.8s.3,1.2.1,2.1-.8.8-1.4,2a3.6,3.6,0,0,0-.2,2.7,2,2,0,0,0,.9,1.2c.9.2,2.4-1.2,2.5-2.6s-1.1-2.1-.7-2.9,1.3-.5,1.7-1.2-.1-1.2-.2-2.5a5.73,5.73,0,0,1,1.5-4.8c.4-.4,1.2-1,1.6-.7.6.4,0,2.5,0,2.6-.4,1.5-1,1.6-1.5,3.1-.1.2-.6,2.2,0,2.6a.8.8,0,0,0,1-.2c.4-.4,0-1.1,0-2,0-1.6,1.1-3.2,1.8-3.1.3,0,.6.4.7.8.2.9-.7,1.3-.9,2.5-.2,1,.4,1.2.4,2.2,0,1.4-1.2,1.9-2.7,3.9s-.9,2.4-2.3,4.2C107.5,537.4,105.8,539.6,103.6,539.5Z" opacity="0.3" fill="url(#s)" style="isolation:isolate"/><path d="M431.4,175.5c-2.2-.1-3.7-2.8-3.9-3.1-1-1.8-.6-3.1-1.8-3.8s-2,.1-2.7-.6,0-1.4-.7-2.9a2.73,2.73,0,0,0-.9-1.2c-.7-.4-1.2-.1-1.5-.5s.5-1,.4-2c-.1-.7-.5-.8-.6-1.5-.1-1,.6-2,1.1-2,.7.1,1.4,2.6,1.6,3.8.1.4.2,1.1.7,1.4s.7-.1,1,.2c.5.4-.1,1.3.4,1.9a.87.87,0,0,0,.9.4c.7-.3.2-3,.1-3.4-.3-1.6-.6-2.9-1.6-3.5-.8-.6-1.6-.3-1.8-.9s.4-.9.3-2a2.5,2.5,0,0,0-.8-1.8c-.5-.3-.9-.2-1-.5s.5-.6.6-1.4-.6-1.1-.5-1.9.7-1.3,1.1-1.2c.6.1,1,1.5,1.1,2.1.4,1.9-.2,3,.5,3.4a1.05,1.05,0,0,0,1.3,0c.2-.4-.7-.9-.6-1.7.1-.6.6-.6.9-1.3s-.3-1.3,0-1.6a1.25,1.25,0,0,1,1.7.2c.3.5-.3,1-.5,2.6a5.37,5.37,0,0,0-.1,2.2c.2,1.1.6,1.1.7,2,.1,1.4-.8,1.8-.5,2.9.2.8.7.6,1.1,1.5.3.7.2,1.2,0,3.1-.2,1.6-.3,2.4-.3,2.5a6.91,6.91,0,0,0,2.2,4.2c.3.2.8.6,1.1.5s.4-1.2,0-1.8-1-.6-1-1,.8-.5,1.1-1.2-.2-.9-.2-2.3c0-.9.2-1.1,0-1.4-.3-.6-1-.4-1.4-.9a2.48,2.48,0,0,1,0-1.7c.2-.8.5-.8.7-1.4a3.14,3.14,0,0,0-.5-2.1c-.7-1.6-1.1-1.8-1.1-2.4.1-.9.9-.9,1-1.8s-.4-1.1-.3-1.9.7-1.3,1.1-1.2.6,1.3.5,2.2c-.1,1.6-.9,2.2-.5,2.9s1.1.3,1.5,1a2.75,2.75,0,0,1-.2,2c-.3.7-.5,1-.4,1.3s.8.3,1,.8c.4.7-.7,1.6-.3,2.2a1,1,0,0,0,1.2.3c.5-.3-.1-1.2,0-2.8.1-1.8.8-2.2.4-3.1s-1.2-.9-1.2-1.7c0-.5.5-.7.8-1.4.5-1.2-.4-1.9-.4-3.7,0-1.2.5-2.7,1.2-2.8.5-.1,1,.4,1.2.9.4.8-.1,1.4-.5,3.2-.2,1.2-.5,2.6.2,3.2a1.14,1.14,0,0,0,.8.3c.3-.1.4-.7.3-1-.1-.8-.6-.9-.5-1.4s.9-.5,1.3-1.2-.2-1.2.1-2.1c.2-.7.9-1.3,1.3-1.2s.7,1.4.7,1.6c.1,1-.2,1.6-1.3,3.7s-1.6,3-1.2,3.4.9-.1,1.1.2-.3,1.4-.3,1.4c-.8,1.2-1.6.9-2,1.8s.4,1.5-.1,2.8c-.3.8-.8.8-.9,1.6s.3,1.1.1,1.8-.7.7-1.2,1.7a3.08,3.08,0,0,0-.2,2.3c.1.3.3.9.8,1,.8.2,2.1-1,2.2-2.3s-1-1.8-.6-2.6,1.1-.4,1.5-1.1-.1-1.1-.2-2.2a5.09,5.09,0,0,1,1.3-4.2c.4-.3,1-.9,1.4-.6s0,2.2,0,2.2c-.4,1.3-.9,1.4-1.3,2.7,0,.2-.5,1.9,0,2.2a.76.76,0,0,0,.9-.2c.4-.4,0-.9,0-1.7,0-1.4.9-2.8,1.5-2.7.3,0,.5.4.6.7.2.8-.6,1.1-.8,2.2-.1.9.4,1.1.4,1.9,0,1.2-1.1,1.7-2.4,3.4s-.8,2.1-2,3.6C434.9,173.7,433.4,175.6,431.4,175.5Z" opacity="0.3" fill="url(#t)" style="isolation:isolate"/><path d="M213.3,184.2c-7.2-.4-12.1-9.1-12.6-10.2-3.3-5.9-2-10-5.6-12.2-3.4-2-6.6.4-8.6-1.9-1.8-2,.1-4.4-2.2-9.3a8.45,8.45,0,0,0-2.9-3.8c-2.2-1.4-3.9-.5-4.7-1.6-1-1.5,1.6-3.3,1.2-6.6-.3-2.4-1.7-2.6-1.9-4.8-.3-3.1,2-6.6,3.6-6.4,2.2.2,4.4,8.4,5.1,12.3.2,1.2.6,3.5,2.2,4.4,1.4.7,2.4-.2,3.3.5,1.5,1.2-.4,4.2,1.2,6.3.7.9,2.1,1.6,3,1.2,2.4-1,.7-9.5.4-11-1-5.2-1.8-9.2-5.1-11.4-2.7-1.8-5.1-1.1-5.9-3s1.2-2.9,1-6.3c0-.6-.2-4.1-2.6-5.8-1.5-1.1-2.9-.7-3.3-1.6-.5-1.2,1.6-2.1,1.9-4.4.4-2.6-2-3.5-1.6-6,.3-2.1,2.2-4.2,3.7-4,2.1.2,3.1,5,3.4,6.7,1.3,6.1-.5,9.5,1.5,11.1,1.4,1,3.7.8,4.3-.1.7-1.2-2.4-3-1.9-5.6.3-1.9,2-1.8,2.7-4.1.9-2.6-.9-4.2.1-5.3s4.5-1.1,5.6.6-.8,3.2-1.8,8.4a20.62,20.62,0,0,0-.3,7c.6,3.7,1.9,3.6,2.2,6.4.5,4.5-2.5,5.9-1.5,9.5.7,2.4,2.2,2,3.4,4.8,1,2.2.7,4,0,9.9a74.37,74.37,0,0,0-.8,8.2,20.81,20.81,0,0,0,7.1,13.6c1,.8,2.5,2,3.4,1.5,1.2-.6,1.4-3.8,0-5.9s-3.1-2-3.1-3.2c-.1-1.5,2.7-1.6,3.7-4,.9-2-.7-2.9-.8-7.4,0-2.9.6-3.5-.1-4.7-1.1-1.9-3.2-1.2-4.4-3s-.3-4,.1-5.5c.8-2.5,1.8-2.6,2.2-4.5s-.2-3.6-1.5-6.7c-2.2-5.3-3.7-5.7-3.4-7.8.3-2.7,2.8-2.8,3.2-5.9.3-2.6-1.4-3.5-.8-6,.5-2.2,2.3-4.2,3.4-4,1.4.3,1.8,4.3,1.6,7-.3,5.2-2.8,7.3-1.5,9.5,1.1,2,3.6,1.1,4.7,3.3,1,2,0,4.6-.6,6.3-.8,2.4-1.8,3.1-1.4,4.2.5,1.5,2.5,1,3.3,2.5,1.2,2.2-2.2,5.1-1,7.1a3.14,3.14,0,0,0,3.8,1c1.5-1-.2-3.8.1-9.1.3-5.9,2.7-7.3,1.4-10.2s-4.2-3-4.4-5.3c-.1-1.8,1.5-2.2,2.5-4.4,1.6-3.8-1.4-6-1.2-11.8.1-3.9,1.5-8.8,3.8-9.2,1.4-.2,3.1,1.3,3.8,2.9,1.2,2.5-.4,4.4-1.6,10.3-.8,3.9-1.7,8.4.6,10.4.6.5,1.7,1.2,2.5.8,1-.4,1.2-2.2,1.1-3.3-.2-2.4-1.9-2.9-1.6-4.4.3-1.8,3-1.5,4.3-3.8s-.8-3.8.3-6.9c.8-2.2,2.8-4.2,4.2-3.8,1.8.4,2.2,4.6,2.2,5.1.2,3.1-.8,5.3-4.2,12.1-3.3,6.4-5.1,9.8-4,10.8.9.8,2.9-.4,3.7.6,1,1.2-1,4.5-1.1,4.7-2.4,3.8-5.1,2.9-6.6,5.8-1.6,3.1,1.3,5-.4,9-1.1,2.6-2.5,2.6-3,5.1-.6,2.7.9,3.4.3,5.9s-2.4,2.4-3.8,5.5a10,10,0,0,0-.6,7.6c.4,1,1.1,2.9,2.6,3.3,2.6.6,6.7-3.4,7-7.4s-3.1-5.9-1.9-8.2c1-2,3.5-1.3,4.8-3.4,1.1-1.9-.2-3.4-.7-7.1-.6-4.9.8-10.3,4.1-13.4,1.1-1.1,3.4-2.7,4.5-2.1,1.8,1-.1,7-.1,7.3-1.3,4.1-2.9,4.5-4.1,8.6-.2.6-1.8,6.1.1,7.3a2.63,2.63,0,0,0,2.9-.6c1.1-1.2.1-3,.1-5.6,0-4.4,3-8.9,4.9-8.8a2.68,2.68,0,0,1,2,2.2c.6,2.4-2.1,3.7-2.6,7.1-.4,2.9,1.2,3.4,1.2,6.2,0,4-3.5,5.4-7.7,11-4.4,5.8-2.6,6.8-6.4,11.7C224.4,178.4,219.5,184.5,213.3,184.2Z" opacity="0.3" fill="url(#u)" style="isolation:isolate"/><path d="M69.7,451.4c-7.2-.4-12-9.1-12.6-10.2-3.3-5.9-2-10-5.6-12.2-3.4-2-6.5.4-8.6-1.9-1.8-2,.1-4.4-2.2-9.3a8.45,8.45,0,0,0-2.9-3.8c-2.2-1.4-3.9-.5-4.7-1.6-1-1.5,1.6-3.3,1.2-6.6-.3-2.4-1.7-2.6-1.9-4.8-.3-3.1,2-6.6,3.6-6.5,2.2.2,4.4,8.4,5.1,12.4.2,1.2.6,3.5,2.2,4.4,1.3.7,2.4-.2,3.3.5,1.5,1.2-.4,4.2,1.2,6.3.7.9,2.1,1.6,3,1.2,2.4-1,.7-9.5.4-11-1-5.2-1.8-9.2-5.1-11.4-2.7-1.8-5.1-1.1-5.9-3s1.2-2.9,1-6.3c0-.6-.2-4.1-2.6-5.8-1.5-1.1-2.9-.7-3.3-1.6-.5-1.2,1.6-2.1,1.9-4.4.4-2.6-2-3.5-1.7-6,.3-2.1,2.2-4.2,3.7-4,2.1.2,3.1,5,3.4,6.7,1.3,6.1-.5,9.5,1.5,11.1,1.4,1.1,3.7.8,4.3-.1.7-1.2-2.3-3-1.9-5.6.3-1.9,2-1.8,2.7-4.1.8-2.6-.8-4.2.1-5.4s4.5-1.1,5.6.5-.8,3.1-1.8,8.4a20.62,20.62,0,0,0-.3,7c.6,3.7,1.9,3.6,2.2,6.5.5,4.5-2.5,5.9-1.5,9.5.7,2.4,2.2,2,3.4,4.8,1,2.2.7,4,0,9.9-.6,5.1-.8,7.7-.8,8.2a20.67,20.67,0,0,0,7.1,13.6c1,.8,2.5,2,3.4,1.5,1.2-.6,1.3-3.8,0-5.9s-3.1-2-3.2-3.2c-.1-1.5,2.7-1.6,3.7-4,.9-2-.7-2.9-.8-7.4,0-2.9.6-3.5-.1-4.7-1.1-1.9-3.2-1.2-4.4-3s-.3-4,.1-5.5c.8-2.5,1.8-2.6,2.2-4.5s-.2-3.5-1.5-6.7c-2.2-5.3-3.7-5.6-3.4-7.8.3-2.7,2.8-2.8,3.2-5.9.3-2.6-1.4-3.5-.8-6,.5-2.2,2.3-4.2,3.4-4,1.4.3,1.8,4.3,1.6,7-.3,5.2-2.8,7.3-1.5,9.5,1.1,2,3.6,1.1,4.7,3.3,1,2,0,4.6-.6,6.3-.8,2.4-1.8,3.1-1.4,4.3.5,1.5,2.5,1,3.3,2.5,1.2,2.2-2.2,5.1-1,7.1a3.14,3.14,0,0,0,3.8,1c1.5-1-.2-3.8.1-9.1.3-5.9,2.7-7.3,1.4-10.1s-4.2-3-4.4-5.4c-.1-1.8,1.5-2.1,2.5-4.4,1.6-3.8-1.4-6-1.2-11.8.1-3.9,1.5-8.8,3.8-9.2,1.4-.2,3.1,1.3,3.8,2.9,1.2,2.5-.4,4.4-1.7,10.3-.8,3.9-1.7,8.4.6,10.4.6.5,1.7,1.2,2.5.8,1-.4,1.2-2.2,1.1-3.3-.2-2.4-1.9-2.9-1.7-4.4.3-1.8,3-1.5,4.3-3.9s-.8-3.9.3-6.9c.8-2.1,2.8-4.2,4.2-3.8,1.8.4,2.2,4.6,2.2,5.1.2,3.1-.8,5.3-4.2,12.1-3.3,6.4-5.1,9.8-4,10.8.8.9,2.9-.4,3.7.5,1,1.2-1,4.5-1.1,4.7-2.4,3.8-5.1,2.9-6.6,5.8-1.6,3.1,1.3,5-.4,9-1.1,2.6-2.5,2.5-3,5.1s.9,3.4.3,5.9-2.4,2.4-3.8,5.5a9.8,9.8,0,0,0-.6,7.5c.4,1,1.1,2.9,2.6,3.3,2.6.6,6.7-3.4,7-7.4s-3.1-5.8-1.9-8.2c1-2,3.5-1.3,4.8-3.4,1.1-1.9-.2-3.4-.7-7.1-.6-4.9.8-10.3,4.1-13.4,1.1-1.1,3.4-2.7,4.5-2.1,1.8,1,0,7-.1,7.3-1.3,4.1-2.9,4.5-4.1,8.6-.2.6-1.8,6.1.1,7.3a2.6,2.6,0,0,0,2.9-.6c1.1-1.2.1-3,.1-5.6,0-4.4,3-8.9,4.9-8.8a2.68,2.68,0,0,1,2,2.2c.7,2.4-2.1,3.7-2.6,7.1-.4,2.9,1.2,3.4,1.2,6.2,0,4-3.5,5.5-7.7,11-4.4,5.8-2.6,6.8-6.4,11.7C80.8,445.5,75.9,451.7,69.7,451.4Z" opacity="0.3" fill="url(#v)" style="isolation:isolate"/></svg>