<svg xmlns="http://www.w3.org/2000/svg" xmlns:xlink="http://www.w3.org/1999/xlink" width="2225.2" height="622.2" viewBox="0 0 2225.2 622.2"><defs><linearGradient id="a" x1="423.78" y1="639.43" x2="416.93" y2="686.2" gradientTransform="matrix(1, 0, 0, -1, 0, 744)" gradientUnits="userSpaceOnUse"><stop offset="0" stop-color="#2168b6" stop-opacity="0.2"/><stop offset="1" stop-color="#0b6640" stop-opacity="0.7"/></linearGradient><linearGradient id="b" x1="27.96" y1="430.24" x2="20.9" y2="478.44" xlink:href="#a"/><linearGradient id="c" x1="116.16" y1="495.47" x2="109.1" y2="543.67" xlink:href="#a"/><linearGradient id="d" x1="5380.85" y1="671.3" x2="5373.79" y2="719.49" gradientTransform="translate(5603.05 744) rotate(180)" xlink:href="#a"/><linearGradient id="e" x1="5430.62" y1="269.05" x2="5423.56" y2="317.24" gradientTransform="translate(5603.05 744) rotate(180)" xlink:href="#a"/><linearGradient id="f" x1="5550.31" y1="485.54" x2="5546.4" y2="512.26" gradientTransform="translate(5603.05 744) rotate(180)" xlink:href="#a"/><linearGradient id="g" x1="5303.42" y1="309.26" x2="5299.51" y2="335.98" gradientTransform="translate(5603.05 744) rotate(180)" xlink:href="#a"/><linearGradient id="h" x1="5550.33" y1="279.03" x2="5546.42" y2="305.75" gradientTransform="translate(5603.05 744) rotate(180)" xlink:href="#a"/><linearGradient id="i" x1="42.84" y1="621.66" x2="33.38" y2="686.24" xlink:href="#a"/><linearGradient id="j" x1="233.14" y1="436.48" x2="223.68" y2="501.06" xlink:href="#a"/><linearGradient id="k" x1="1998.06" y1="401.8" x2="1991" y2="450" xlink:href="#a"/><linearGradient id="l" x1="2091" y1="453.64" x2="2085.6" y2="490.55" xlink:href="#a"/><linearGradient id="m" x1="2041.02" y1="298.33" x2="2033.96" y2="346.52" xlink:href="#a"/><linearGradient id="n" x1="3539.56" y1="512.09" x2="3535.65" y2="538.8" gradientTransform="translate(5603.05 744) rotate(180)" xlink:href="#a"/><linearGradient id="o" x1="3655.65" y1="177.11" x2="3651.73" y2="203.83" gradientTransform="translate(5603.05 744) rotate(180)" xlink:href="#a"/><linearGradient id="p" x1="2113.22" y1="323.19" x2="2103.76" y2="387.77" xlink:href="#a"/><linearGradient id="q" x1="2180.8" y1="408.49" x2="2173.55" y2="457.95" xlink:href="#a"/><linearGradient id="r" x1="1983.13" y1="215.92" x2="1973.67" y2="280.49" xlink:href="#a"/></defs><path d="M422.5,120.8c-2.9-.6-5-2.9-6.5-4.6-2.4-2.6-2.2-4-4.2-7.3-3.2-5.2-5.1-4.5-10.3-11.3a23.62,23.62,0,0,1-4.2-7.8c-1.1-3.8-.5-6-.1-7,.1-.2,1.3-3.1,2.7-3s2.1,2.7,2.6,4.2c1.2,4,.1,4.9.9,8a14.38,14.38,0,0,0,6.9,8.9c1.3.7,2.6,1.5,3.8,1,2.2-.8,2.8-5.2,2.3-8.4-.4-3-1.5-3-3.9-8.6a38.86,38.86,0,0,1-2.5-8.2,10.08,10.08,0,0,1,.6-6.4c.2-.4,1-2,1.9-2,1.1.1,1.7,2.6,1.9,3.4.7,2.9,0,4,.1,8.6,0,2.7.3,4.7,1.5,6.6.2.3,1.1,1.7,1.7,1.5s.6-1.4.7-3.1a74.83,74.83,0,0,0-.2-8.2c-.4-3.9-.7-5.1.1-6.9.2-.4,1-2.3,2.2-2.3,1.5,0,2.5,3,2.7,3.6,1.4,4.2-.4,6.5-1.2,13.2-.3,2.1-.1,5.2.3,11.3a12,12,0,0,0,2.3,6.6c1,1.3,1.5,1.3,1.7,1.2,1-.2,1.3-2.6,1.5-4.7a71.37,71.37,0,0,0-.3-16c-.6-3.8-1.2-5.9-.2-8.8a9.83,9.83,0,0,1,2.4-3.9c.7-.7,2.6-2.8,3.8-2.3s.9,3,.7,4.4c-.4,2.4-1.4,2.5-2.2,5a13.13,13.13,0,0,0,.2,7.6c.3,1,.7,2.3,1.4,2.4s1.1-.8,2.1-2.4c1.9-3.4,2.9-5.1,3.2-6.6.7-3,0-3.9,1.2-6.6.3-.7,1.1-2.6,2-2.6s1.5,3.1,1.5,3.6c.2,1.5.6,5.6-2.5,11.2-2.5,4.7-4.4,4.7-6.8,9.9-.7,1.6-1.3,3.2-1.9,4.8-1.6,5.2-.8,6.2-2.4,8.5-1.4,2-2.8,2.3-3.5,4.6-.3,1.1-.5,2.8.2,3.1,1.2.6,4.5-4,5.1-4.9,3.2-4.4,3.3-6.9,6.9-11.4,2.7-3.4,3.6-3.4,4-3.2,1.1.4,1.2,2.7,1.2,3.3.2,3.5-1.5,6.9-5.5,11.4C432.9,116.2,428,121.9,422.5,120.8Z" opacity="0.5" fill="url(#a)" style="isolation:isolate"/><path d="M26.7,330.4c-3-.6-5.1-3-6.7-4.7-2.5-2.7-2.3-4.1-4.4-7.5-3.3-5.4-5.2-4.6-10.6-11.6a24.53,24.53,0,0,1-4.4-8.1c-1.2-3.9-.6-6.1-.1-7.3.1-.2,1.3-3.2,2.8-3.1s2.2,2.8,2.7,4.4c1.2,4.1.2,5,.9,8.3A14.93,14.93,0,0,0,14,310c1.4.8,2.7,1.5,3.9,1,2.3-.9,2.9-5.4,2.4-8.6-.5-3-1.6-3.1-4-8.9a36.08,36.08,0,0,1-2.5-8.5,10.7,10.7,0,0,1,.6-6.6c.2-.5,1.1-2.1,2-2,1.1.1,1.8,2.6,2,3.5.8,3,0,4.1.1,8.8,0,2.8.3,4.9,1.5,6.8.2.4,1.1,1.8,1.8,1.6s.7-1.5.7-3.2a78.52,78.52,0,0,0-.2-8.4c-.4-4-.7-5.3.1-7.1.2-.4,1.1-2.4,2.3-2.4,1.5,0,2.6,3.1,2.8,3.7,1.5,4.3-.4,6.6-1.3,13.6-.3,2.2-.1,5.3.3,11.6a12.2,12.2,0,0,0,2.4,6.8c1,1.4,1.6,1.3,1.8,1.3,1-.2,1.3-2.7,1.5-4.9a75.89,75.89,0,0,0-.3-16.5c-.6-3.9-1.2-6.1-.2-9.1a10.42,10.42,0,0,1,2.5-4c.7-.7,2.7-2.9,3.9-2.4s1,3.1.7,4.5c-.4,2.5-1.5,2.6-2.3,5.1a12.24,12.24,0,0,0,.2,7.8c.3,1.1.7,2.4,1.4,2.5s1.2-.8,2.2-2.5c2-3.5,3-5.2,3.3-6.8.7-3,0-4,1.2-6.8.3-.7,1.2-2.7,2.1-2.6s1.5,3.2,1.6,3.7c.2,1.5.6,5.8-2.5,11.5-2.6,4.8-4.5,4.8-7,10.2a41.4,41.4,0,0,0-1.9,4.9c-1.7,5.4-.8,6.4-2.5,8.8-1.5,2.1-2.9,2.4-3.6,4.7-.3,1.1-.5,2.9.2,3.2,1.2.6,4.6-4.1,5.3-5,3.3-4.6,3.4-7.1,7.1-11.8,2.7-3.6,3.7-3.6,4.1-3.4,1.1.4,1.2,2.8,1.3,3.4.2,3.6-1.5,7.1-5.7,11.8C37.4,325.8,32.3,331.6,26.7,330.4Z" opacity="0.5" fill="url(#b)" style="isolation:isolate"/><path d="M114.9,265.2c-3-.6-5.1-3-6.7-4.7-2.5-2.7-2.3-4.1-4.4-7.5-3.3-5.4-5.3-4.6-10.6-11.6a24.53,24.53,0,0,1-4.4-8.1c-1.2-3.9-.6-6.1-.1-7.2.1-.3,1.3-3.2,2.8-3.1s2.2,2.9,2.7,4.4c1.2,4.1.1,5,.9,8.3a14.93,14.93,0,0,0,7.1,9.2c1.4.8,2.7,1.5,3.9,1,2.3-.9,2.9-5.3,2.4-8.6-.4-3-1.6-3.1-4-8.9a36.08,36.08,0,0,1-2.5-8.5,10.7,10.7,0,0,1,.6-6.6c.2-.5,1.1-2.1,2-2,1.1.1,1.8,2.6,2,3.5.8,3,0,4.1.1,8.8,0,2.8.3,4.8,1.5,6.8.2.4,1.1,1.8,1.8,1.6s.7-1.5.7-3.2a78.52,78.52,0,0,0-.2-8.4c-.4-4-.7-5.3.1-7.1.2-.4,1.1-2.4,2.3-2.4,1.5,0,2.6,3.1,2.8,3.7,1.5,4.3-.4,6.6-1.3,13.6-.3,2.2-.1,5.3.3,11.6a12.2,12.2,0,0,0,2.4,6.8c1,1.3,1.6,1.3,1.8,1.3,1-.2,1.3-2.7,1.5-4.9a75.89,75.89,0,0,0-.3-16.5c-.6-3.9-1.2-6.1-.2-9.1a11.62,11.62,0,0,1,2.5-4.1c.7-.7,2.7-2.9,3.9-2.4s1,3.1.7,4.5c-.4,2.5-1.5,2.6-2.3,5.1a12.24,12.24,0,0,0,.2,7.8c.3,1.1.7,2.4,1.4,2.5s1.2-.8,2.2-2.5c2-3.5,3-5.2,3.3-6.8.7-3.1,0-4.1,1.2-6.9.3-.7,1.2-2.7,2.1-2.6,1.1.1,1.5,3.2,1.6,3.7.2,1.5.6,5.8-2.6,11.6-2.6,4.8-4.5,4.8-7,10.2a49.4,49.4,0,0,0-1.9,4.9c-1.7,5.4-.8,6.4-2.5,8.8-1.4,2.1-2.9,2.4-3.6,4.7-.3,1.1-.5,2.9.2,3.2,1.2.6,4.6-4.1,5.3-5,3.3-4.6,3.4-7.1,7.1-11.8,2.7-3.5,3.7-3.5,4.1-3.4,1.1.4,1.2,2.8,1.3,3.4.2,3.6-1.6,7.1-5.6,11.8C125.6,260.6,120.4,266.4,114.9,265.2Z" opacity="0.5" fill="url(#c)" style="isolation:isolate"/><path d="M223.4,89.4c3-.6,5.1-3,6.7-4.7,2.5-2.7,2.3-4.1,4.4-7.5,3.3-5.4,5.2-4.6,10.6-11.6a24.53,24.53,0,0,0,4.4-8.1c1.2-3.9.6-6.1.1-7.2-.1-.3-1.3-3.2-2.8-3.1s-2.2,2.9-2.6,4.4c-1.2,4.1-.1,5-.9,8.3a14.93,14.93,0,0,1-7.1,9.2c-1.4.8-2.7,1.5-3.9,1-2.3-.9-2.9-5.3-2.4-8.6.5-3,1.6-3.1,4-8.9a36.32,36.32,0,0,0,2.6-8.5,10.7,10.7,0,0,0-.6-6.6c-.2-.5-1.1-2.1-2-2-1.1.1-1.8,2.6-2,3.5-.8,3,0,4.1-.1,8.8,0,2.8-.3,4.8-1.5,6.8-.2.3-1.1,1.8-1.8,1.6s-.7-1.5-.7-3.2a78.52,78.52,0,0,1,.2-8.4c.4-4,.7-5.3-.1-7.1-.2-.4-1.1-2.4-2.3-2.4-1.5,0-2.6,3.1-2.8,3.7-1.5,4.3.4,6.7,1.3,13.6.3,2.2.1,5.3-.3,11.6a13,13,0,0,1-2.4,6.8c-1,1.3-1.6,1.3-1.8,1.3-1-.2-1.3-2.7-1.5-4.9a75.89,75.89,0,0,1,.3-16.5c.6-3.9,1.2-6.1.2-9.1a11.62,11.62,0,0,0-2.5-4.1c-.7-.7-2.7-2.9-3.9-2.4s-1,3.1-.7,4.5c.4,2.5,1.5,2.5,2.3,5.1a12.24,12.24,0,0,1-.2,7.8c-.3,1.1-.7,2.4-1.4,2.5s-1.2-.8-2.2-2.5c-2-3.5-3-5.2-3.4-6.8-.7-3.1,0-4-1.2-6.8-.3-.7-1.2-2.7-2.1-2.6s-1.5,3.2-1.6,3.7c-.2,1.5-.6,5.8,2.5,11.5,2.6,4.8,4.5,4.8,7,10.2a49.4,49.4,0,0,1,1.9,4.9c1.7,5.4.8,6.4,2.5,8.8,1.4,2.1,2.9,2.4,3.6,4.7.3,1.2.5,2.9-.2,3.2-1.2.6-4.6-4.2-5.2-5-3.3-4.6-3.4-7.1-7.1-11.8C204,63,203,63,202.6,63.2c-1.1.4-1.2,2.8-1.3,3.4-.2,3.6,1.6,7.1,5.6,11.8C212.7,84.7,217.8,90.5,223.4,89.4Z" opacity="0.5" fill="url(#d)" style="isolation:isolate"/><path d="M173.6,491.6c3-.6,5.1-3,6.7-4.7,2.5-2.7,2.3-4.1,4.4-7.5,3.3-5.4,5.3-4.6,10.6-11.6a24.53,24.53,0,0,0,4.4-8.1c1.2-3.9.6-6.1.1-7.2-.1-.3-1.3-3.2-2.8-3.1s-2.2,2.9-2.6,4.4c-1.2,4.1-.1,5-.9,8.3a14.93,14.93,0,0,1-7.1,9.2c-1.4.8-2.7,1.5-3.9,1-2.3-.9-2.9-5.3-2.4-8.6.5-3,1.6-3.1,4-8.9a36.08,36.08,0,0,0,2.5-8.5,10.7,10.7,0,0,0-.6-6.6c-.2-.5-1.1-2.1-2-2-1.1.1-1.8,2.6-2,3.5-.8,3,0,4.1-.1,8.8,0,2.8-.3,4.8-1.5,6.8-.2.4-1.1,1.8-1.8,1.6s-.7-1.5-.7-3.2a78.52,78.52,0,0,1,.2-8.4c.4-4,.7-5.3-.1-7.1-.2-.4-1.1-2.4-2.3-2.4-1.5,0-2.6,3.1-2.8,3.7-1.5,4.3.4,6.6,1.3,13.6.3,2.2.1,5.3-.3,11.6a13,13,0,0,1-2.4,6.8c-1,1.3-1.6,1.3-1.8,1.3-1-.2-1.3-2.7-1.5-4.9a75.89,75.89,0,0,1,.3-16.5c.6-3.9,1.2-6.1.2-9.1a11.62,11.62,0,0,0-2.5-4.1c-.7-.7-2.7-2.9-3.9-2.4s-1,3.1-.7,4.5c.4,2.5,1.5,2.5,2.3,5.1a12.24,12.24,0,0,1-.2,7.8c-.3,1-.7,2.4-1.4,2.5s-1.2-.8-2.1-2.5c-2-3.5-3-5.2-3.3-6.8-.7-3.1,0-4-1.2-6.9-.3-.7-1.2-2.7-2.1-2.6-1.1.1-1.5,3.2-1.6,3.7-.2,1.5-.6,5.8,2.6,11.5,2.6,4.8,4.5,4.8,7,10.2a49.4,49.4,0,0,1,1.9,4.9c1.7,5.4.8,6.4,2.5,8.8,1.4,2.1,2.9,2.4,3.6,4.7.3,1.1.5,2.9-.2,3.2-1.2.6-4.6-4.1-5.2-5-3.3-4.6-3.4-7.1-7.1-11.8-2.7-3.5-3.7-3.5-4.1-3.4-1.1.4-1.2,2.8-1.3,3.4-.2,3.6,1.5,7.1,5.6,11.8C162.9,487,168.1,492.8,173.6,491.6Z" opacity="0.5" fill="url(#e)" style="isolation:isolate"/><path d="M53.4,267.7a7.6,7.6,0,0,0,3.7-2.6c1.4-1.5,1.3-2.2,2.4-4.1,1.8-3,2.9-2.5,5.9-6.4a13.05,13.05,0,0,0,2.4-4.5,6.1,6.1,0,0,0,.1-4c-.1-.1-.7-1.8-1.5-1.7s-1.2,1.6-1.5,2.4c-.7,2.3-.1,2.8-.5,4.6a8.2,8.2,0,0,1-4,5.1,3.22,3.22,0,0,1-2.2.6c-1.3-.5-1.6-3-1.3-4.8s.9-1.7,2.2-4.9a19.54,19.54,0,0,0,1.4-4.7,5.55,5.55,0,0,0-.3-3.6c-.1-.3-.6-1.2-1.1-1.1s-1,1.5-1.1,1.9c-.4,1.7,0,2.3,0,4.9a7.26,7.26,0,0,1-.8,3.8c-.1.2-.6,1-1,.9s-.4-.8-.4-1.8a36.88,36.88,0,0,1,.1-4.7c.2-2.2.4-2.9,0-3.9-.1-.2-.6-1.3-1.3-1.3s-1.4,1.7-1.5,2c-.8,2.4.2,3.7.7,7.5a45.16,45.16,0,0,1-.2,6.4,7.22,7.22,0,0,1-1.3,3.8c-.6.7-.9.7-1,.7-.6-.1-.7-1.5-.8-2.7a39.59,39.59,0,0,1,.2-9.1c.3-2.1.7-3.4.1-5a6.36,6.36,0,0,0-1.4-2.2c-.4-.4-1.5-1.6-2.2-1.3s-.5,1.7-.4,2.5c.2,1.4.8,1.4,1.3,2.8a7,7,0,0,1-.1,4.3c-.2.6-.4,1.3-.8,1.4s-.7-.4-1.2-1.4a13.26,13.26,0,0,1-1.8-3.8c-.4-1.7,0-2.2-.7-3.8-.2-.4-.7-1.5-1.2-1.5s-.8,1.8-.9,2a9.64,9.64,0,0,0,1.4,6.4c1.5,2.7,2.5,2.7,3.9,5.6.4.9.8,1.8,1.1,2.7.9,3,.5,3.6,1.4,4.9s1.6,1.3,2,2.6c.2.6.3,1.6-.1,1.8-.7.3-2.6-2.3-2.9-2.8-1.8-2.5-1.9-3.9-3.9-6.5-1.5-1.9-2.1-1.9-2.3-1.9-.6.2-.7,1.6-.7,1.9-.1,2,.8,4,3.1,6.5C47.5,265.1,50.3,268.4,53.4,267.7Z" opacity="0.5" fill="url(#f)" style="isolation:isolate"/><path d="M300.3,444a7.6,7.6,0,0,0,3.7-2.6c1.4-1.5,1.3-2.3,2.4-4.1,1.8-3,2.9-2.6,5.9-6.5a12.21,12.21,0,0,0,2.4-4.5,6.1,6.1,0,0,0,.1-4c-.1-.1-.7-1.8-1.5-1.7s-1.2,1.6-1.5,2.4c-.7,2.3-.1,2.8-.5,4.6a8.2,8.2,0,0,1-4,5.1,3.22,3.22,0,0,1-2.2.6c-1.3-.5-1.6-3-1.3-4.8s.9-1.7,2.2-4.9a19.54,19.54,0,0,0,1.4-4.7,5.55,5.55,0,0,0-.3-3.6c-.1-.2-.6-1.2-1.1-1.1s-1,1.5-1.1,1.9c-.4,1.7,0,2.3,0,4.9a7.26,7.26,0,0,1-.8,3.8c-.1.2-.6,1-1,.9s-.4-.8-.4-1.8c0-1.6,0-3.1.1-4.7.2-2.2.4-2.9,0-3.9-.1-.2-.6-1.3-1.3-1.3s-1.4,1.7-1.5,2c-.8,2.4.2,3.7.7,7.5a45.63,45.63,0,0,1-.2,6.4,7.22,7.22,0,0,1-1.3,3.8c-.6.8-.9.7-1,.7-.6-.1-.7-1.5-.8-2.7a39.59,39.59,0,0,1,.2-9.1c.3-2.1.7-3.4.1-5a5.18,5.18,0,0,0-1.4-2.2c-.4-.4-1.5-1.6-2.2-1.3s-.5,1.7-.4,2.5c.2,1.4.8,1.4,1.3,2.8a7,7,0,0,1-.1,4.3c-.2.6-.4,1.3-.8,1.4s-.7-.4-1.2-1.4a16.88,16.88,0,0,1-1.9-3.8c-.4-1.7,0-2.2-.7-3.8-.2-.4-.7-1.5-1.1-1.5s-.8,1.8-.9,2a9.64,9.64,0,0,0,1.4,6.4c1.5,2.7,2.5,2.7,3.9,5.6.4.9.8,1.8,1.1,2.7.9,3,.5,3.6,1.4,4.9.8,1.1,1.6,1.3,2,2.6.2.6.3,1.6-.1,1.8-.7.3-2.6-2.3-2.9-2.8-1.8-2.5-1.9-3.9-3.9-6.5-1.5-1.9-2.1-1.9-2.3-1.9-.6.2-.7,1.6-.7,1.9-.1,2,.9,3.9,3.1,6.5C294.4,441.4,297.2,444.6,300.3,444Z" opacity="0.5" fill="url(#g)" style="isolation:isolate"/><path d="M53.4,474.2a7.6,7.6,0,0,0,3.7-2.6c1.4-1.5,1.3-2.3,2.4-4.1,1.8-3,2.9-2.6,5.9-6.5a12.21,12.21,0,0,0,2.4-4.5,6.1,6.1,0,0,0,.1-4c-.1-.1-.7-1.8-1.5-1.7s-1.2,1.6-1.5,2.4c-.7,2.3-.1,2.8-.5,4.6a8.2,8.2,0,0,1-4,5.1,3.22,3.22,0,0,1-2.2.6c-1.3-.5-1.6-3-1.3-4.8s.9-1.7,2.2-4.9a19.54,19.54,0,0,0,1.4-4.7,5.55,5.55,0,0,0-.3-3.6c-.1-.3-.6-1.2-1.1-1.1s-1,1.5-1.1,1.9c-.4,1.7,0,2.3,0,4.9a7.26,7.26,0,0,1-.8,3.8c-.1.2-.6,1-1,.9s-.4-.8-.4-1.8a36.88,36.88,0,0,1,.1-4.7c.2-2.2.4-2.9,0-3.9-.1-.2-.6-1.3-1.3-1.3s-1.4,1.7-1.5,2c-.8,2.4.2,3.7.7,7.5a45.63,45.63,0,0,1-.2,6.4,7.22,7.22,0,0,1-1.3,3.8c-.6.8-.9.7-1,.7-.6-.1-.7-1.5-.8-2.7a39.59,39.59,0,0,1,.2-9.1c.3-2.1.7-3.4.1-5a6.36,6.36,0,0,0-1.4-2.2c-.4-.4-1.5-1.6-2.2-1.3s-.5,1.7-.4,2.5c.2,1.4.8,1.4,1.3,2.8a7,7,0,0,1-.1,4.3c-.2.6-.4,1.3-.8,1.4s-.7-.4-1.2-1.4a14.65,14.65,0,0,1-1.8-3.8c-.4-1.7,0-2.2-.7-3.8-.2-.4-.7-1.5-1.2-1.5s-.8,1.8-.9,2a9.64,9.64,0,0,0,1.4,6.4c1.5,2.6,2.5,2.6,3.9,5.6.4.9.8,1.8,1.1,2.7.9,3,.5,3.6,1.4,4.9.8,1.1,1.6,1.3,2,2.6.2.6.3,1.6-.1,1.8-.7.3-2.6-2.3-2.9-2.8-1.8-2.5-1.9-3.9-3.9-6.5-1.5-1.9-2.1-1.9-2.3-1.9-.6.2-.7,1.6-.7,1.9-.1,2,.8,3.9,3.1,6.5C47.5,471.6,50.3,474.9,53.4,474.2Z" opacity="0.5" fill="url(#h)" style="isolation:isolate"/><path d="M41.4,144.6c-4-.8-6.9-4-9-6.3-3.3-3.6-3.1-5.4-5.9-10-4.4-7.2-7-6.2-14.2-15.6a34.47,34.47,0,0,1-5.9-10.8c-1.6-5.2-.8-8.2-.2-9.7.1-.3,1.8-4.3,3.7-4.2s3,3.8,3.6,5.9c1.6,5.5.2,6.8,1.2,11.1a19.76,19.76,0,0,0,9.6,12.3c1.8,1,3.6,2,5.2,1.4,3.1-1.2,3.9-7.2,3.2-11.6-.6-4.1-2.1-4.1-5.4-11.9a51.47,51.47,0,0,1-3.4-11.4c-.5-2.9-.7-5.9.8-8.8.3-.6,1.4-2.8,2.7-2.8,1.5.1,2.4,3.5,2.7,4.7,1,4,0,5.4.1,11.8,0,3.7.4,6.5,2,9.1.3.5,1.5,2.4,2.3,2.1s.9-2,1-4.3a106.6,106.6,0,0,0-.3-11.3c-.6-5.4-1-7.1.1-9.5.2-.5,1.4-3.2,3.1-3.2,2,0,3.5,4.2,3.7,4.9,2,5.7-.6,8.9-1.7,18.2-.3,2.9-.1,7.1.4,15.6a17.54,17.54,0,0,0,3.2,9.1c1.4,1.8,2.1,1.8,2.3,1.7,1.3-.3,1.8-3.6,2-6.5a102,102,0,0,0-.4-22.1c-.8-5.2-1.7-8.2-.3-12.2a14.33,14.33,0,0,1,3.3-5.4c.9-1,3.6-3.9,5.2-3.2s1.3,4.2,1,6.1c-.6,3.3-2,3.4-3.1,6.8a17.14,17.14,0,0,0,.3,10.5c.4,1.4.9,3.2,1.9,3.3.8.1,1.6-1,2.9-3.3,2.7-4.7,4-7,4.5-9.1,1-4.1,0-5.4,1.6-9.2.4-.9,1.6-3.7,2.8-3.5,1.4.1,2,4.2,2.1,4.9.3,2,.8,7.7-3.4,15.5-3.5,6.4-6,6.4-9.4,13.7a47.31,47.31,0,0,0-2.5,6.6c-2.3,7.2-1.1,8.6-3.3,11.7-1.9,2.8-3.9,3.2-4.8,6.3-.4,1.5-.6,3.9.2,4.3,1.6.8,6.2-5.6,7-6.7,4.4-6.1,4.6-9.5,9.5-15.8,3.7-4.7,5-4.7,5.5-4.5,1.5.5,1.7,3.8,1.7,4.6.2,4.8-2.1,9.5-7.6,15.8C55.7,138.4,48.9,146.2,41.4,144.6Z" opacity="0.5" fill="url(#i)" style="isolation:isolate"/><path d="M231.6,329.8c-4-.8-6.9-4-8.9-6.3-3.3-3.6-3.1-5.5-5.9-10-4.4-7.2-7-6.2-14.2-15.6a34.47,34.47,0,0,1-5.9-10.8c-1.6-5.2-.8-8.2-.2-9.7.1-.3,1.8-4.3,3.7-4.2s2.9,3.8,3.6,5.9c1.6,5.5.2,6.7,1.2,11.1a19.76,19.76,0,0,0,9.6,12.3c1.8,1,3.6,2,5.2,1.4,3.1-1.2,3.9-7.2,3.2-11.6-.6-4.1-2.1-4.1-5.4-11.9a51.47,51.47,0,0,1-3.4-11.4c-.5-2.9-.7-5.9.8-8.8.3-.6,1.4-2.8,2.7-2.7,1.5.1,2.4,3.5,2.7,4.7,1,4,0,5.5.1,11.8,0,3.7.4,6.5,2,9.1.3.5,1.5,2.4,2.3,2.1s.9-2,1-4.3a105.89,105.89,0,0,0-.3-11.3c-.6-5.4-1-7.1.1-9.5.2-.5,1.4-3.2,3.1-3.2,2.1,0,3.5,4.2,3.7,4.9,2,5.7-.6,8.9-1.7,18.2-.4,2.9-.1,7.1.4,15.6a17.54,17.54,0,0,0,3.2,9.1c1.4,1.8,2.1,1.8,2.3,1.7,1.4-.3,1.8-3.6,2-6.5a102,102,0,0,0-.4-22.1c-.8-5.2-1.6-8.2-.3-12.2a15.54,15.54,0,0,1,3.3-5.5c.9-1,3.6-3.9,5.2-3.2s1.3,4.2,1,6.1c-.6,3.3-2,3.4-3.1,6.8a17.14,17.14,0,0,0,.3,10.5c.4,1.4.9,3.2,1.9,3.3.8.1,1.6-1,2.9-3.3,2.7-4.7,4-7,4.5-9.1,1-4.1,0-5.4,1.6-9.2.4-.9,1.6-3.6,2.8-3.5,1.4.1,2,4.2,2.1,4.9.3,2,.8,7.7-3.4,15.5-3.5,6.4-6,6.4-9.4,13.6-1,2.2-1.8,4.4-2.6,6.6-2.3,7.2-1.1,8.6-3.3,11.7-2,2.8-3.9,3.2-4.8,6.3-.4,1.5-.6,3.9.2,4.3,1.6.8,6.2-5.6,7-6.7,4.4-6.1,4.6-9.5,9.5-15.8,3.7-4.7,5-4.7,5.6-4.5,1.5.5,1.7,3.8,1.7,4.6.2,4.8-2.1,9.5-7.6,15.8C245.9,323.6,239,331.4,231.6,329.8Z" opacity="0.5" fill="url(#j)" style="isolation:isolate"/><path d="M1996.8,358.9c-3-.6-5.1-3-6.7-4.7-2.5-2.7-2.3-4.1-4.4-7.5-3.3-5.4-5.3-4.6-10.6-11.6a24.53,24.53,0,0,1-4.4-8.1c-1.2-3.9-.6-6.1-.1-7.3.1-.2,1.3-3.2,2.8-3.1s2.2,2.9,2.7,4.4c1.2,4.1.2,5,.9,8.3a14.93,14.93,0,0,0,7.1,9.2c1.4.8,2.7,1.5,3.9,1,2.3-.9,2.9-5.4,2.4-8.6-.5-3-1.6-3.1-4-8.9a36.08,36.08,0,0,1-2.5-8.5,10.7,10.7,0,0,1,.6-6.6c.2-.5,1.1-2.1,2-2,1.1.1,1.8,2.6,2,3.5.8,3,0,4.1.1,8.8,0,2.8.3,4.9,1.5,6.8.2.4,1.1,1.8,1.8,1.6s.7-1.5.7-3.2a78.52,78.52,0,0,0-.2-8.4c-.4-4-.7-5.3.1-7.1.2-.4,1.1-2.4,2.3-2.4,1.5,0,2.6,3.1,2.8,3.7,1.5,4.3-.4,6.6-1.3,13.6-.3,2.2-.1,5.3.3,11.6a12.2,12.2,0,0,0,2.4,6.8c1,1.4,1.6,1.3,1.8,1.3,1-.2,1.3-2.7,1.5-4.9a75.89,75.89,0,0,0-.3-16.5c-.6-3.9-1.2-6.1-.2-9.1a11.62,11.62,0,0,1,2.5-4.1c.7-.7,2.7-2.9,3.9-2.4s1,3.1.7,4.5c-.4,2.5-1.5,2.6-2.3,5.1a12.24,12.24,0,0,0,.2,7.8c.3,1.1.7,2.4,1.4,2.5s1.2-.8,2.2-2.5c2-3.5,3-5.2,3.3-6.8.7-3,0-4,1.2-6.8.3-.7,1.2-2.7,2.1-2.6,1.1.1,1.5,3.2,1.6,3.7.2,1.5.6,5.8-2.6,11.5-2.6,4.8-4.5,4.8-7,10.2a49.4,49.4,0,0,0-1.9,4.9c-1.7,5.4-.8,6.4-2.5,8.8-1.4,2.1-2.9,2.4-3.6,4.7-.3,1.1-.5,2.9.2,3.2,1.2.6,4.6-4.1,5.2-5,3.3-4.6,3.4-7.1,7.1-11.8,2.7-3.5,3.7-3.5,4.1-3.3,1.1.4,1.2,2.8,1.3,3.4.2,3.6-1.5,7.1-5.7,11.8C2007.5,354.2,2002.4,360,1996.8,358.9Z" opacity="0.5" fill="url(#k)" style="isolation:isolate"/><path d="M2090.2,303.1c-2.3-.5-3.9-2.3-5.1-3.6-1.9-2.1-1.8-3.1-3.4-5.7-2.5-4.1-4-3.5-8.1-8.9a19.67,19.67,0,0,1-3.4-6.2,8.53,8.53,0,0,1-.1-5.6c.1-.2,1-2.5,2.1-2.4s1.7,2.2,2,3.4c.9,3.1.1,3.9.7,6.4a11.84,11.84,0,0,0,5.5,7.1,3.85,3.85,0,0,0,3,.8c1.8-.7,2.2-4.1,1.9-6.6-.4-2.3-1.2-2.4-3.1-6.8a25.42,25.42,0,0,1-1.9-6.5,8.54,8.54,0,0,1,.4-5c.2-.4.8-1.6,1.5-1.6s1.4,2,1.5,2.7c.6,2.3,0,3.1.1,6.8a10.39,10.39,0,0,0,1.1,5.2c.2.3.9,1.4,1.4,1.2s.5-1.1.5-2.4a47.07,47.07,0,0,0-.2-6.5c-.3-3.1-.6-4.1.1-5.4.1-.3.8-1.8,1.8-1.8,1.2,0,2,2.4,2.1,2.8,1.1,3.3-.3,5.1-1,10.4-.2,1.7,0,4.1.2,8.9a9.58,9.58,0,0,0,1.8,5.2c.8,1,1.2,1,1.3,1,.8-.1,1-2.1,1.2-3.7a59,59,0,0,0-.2-12.6c-.5-3-1-4.7-.2-7a7.67,7.67,0,0,1,1.9-3.1c.5-.6,2.1-2.2,3-1.8s.8,2.4.6,3.5c-.3,1.9-1.1,2-1.8,3.9a9.47,9.47,0,0,0,.2,6c.2.8.5,1.8,1.1,1.9s.9-.6,1.6-1.9c1.5-2.7,2.3-4,2.6-5.2.6-2.3,0-3.1.9-5.2.2-.5.9-2.1,1.6-2s1.2,2.4,1.2,2.8c.2,1.1.5,4.4-2,8.8-2,3.7-3.4,3.7-5.4,7.8a25,25,0,0,0-1.5,3.8c-1.3,4.1-.6,4.9-1.9,6.7-1.1,1.6-2.2,1.8-2.7,3.6-.2.9-.4,2.2.1,2.4.9.5,3.6-3.2,4-3.8,2.5-3.5,2.6-5.4,5.4-9,2.1-2.7,2.9-2.7,3.2-2.6.9.3,1,2.2,1,2.6.1,2.7-1.2,5.5-4.3,9C2098.4,299.5,2094.5,304,2090.2,303.1Z" opacity="0.5" fill="url(#l)" style="isolation:isolate"/><path d="M2039.8,462.3c-3-.6-5.1-3-6.7-4.7-2.5-2.7-2.3-4.1-4.4-7.5-3.3-5.4-5.3-4.6-10.6-11.6a24.53,24.53,0,0,1-4.4-8.1c-1.2-3.9-.6-6.1-.1-7.2.1-.3,1.3-3.2,2.8-3.1s2.2,2.9,2.7,4.4c1.2,4.1.1,5,.9,8.3a14.93,14.93,0,0,0,7.1,9.2c1.4.8,2.7,1.5,3.9,1,2.3-.9,2.9-5.3,2.4-8.6-.5-3-1.6-3.1-4-8.9a36.08,36.08,0,0,1-2.5-8.5,10.7,10.7,0,0,1,.6-6.6c.2-.5,1.1-2.1,2-2,1.1.1,1.8,2.6,2,3.5.8,3,0,4.1.1,8.8,0,2.8.3,4.8,1.5,6.8.2.4,1.1,1.8,1.8,1.6s.7-1.5.7-3.2a78.52,78.52,0,0,0-.2-8.4c-.4-4-.7-5.3.1-7.1.2-.4,1.1-2.4,2.3-2.4,1.5,0,2.6,3.1,2.8,3.7,1.5,4.3-.4,6.6-1.3,13.6-.3,2.2-.1,5.3.3,11.6a13,13,0,0,0,2.4,6.8c1,1.3,1.6,1.3,1.8,1.3,1-.2,1.3-2.7,1.5-4.9a75.89,75.89,0,0,0-.3-16.5c-.6-3.9-1.2-6.1-.2-9.1a11.62,11.62,0,0,1,2.5-4.1c.7-.7,2.7-2.9,3.9-2.4s1,3.1.7,4.5c-.4,2.5-1.5,2.5-2.3,5.1a12.24,12.24,0,0,0,.2,7.8c.3,1.1.7,2.4,1.4,2.5s1.2-.8,2.1-2.5c2-3.5,3-5.2,3.3-6.8.7-3.1,0-4,1.2-6.9.3-.7,1.2-2.7,2.1-2.6s1.5,3.2,1.6,3.7c.2,1.5.6,5.8-2.6,11.5-2.6,4.8-4.5,4.8-7,10.2a49.4,49.4,0,0,0-1.9,4.9c-1.7,5.4-.8,6.4-2.5,8.8-1.5,2.1-2.9,2.4-3.6,4.7-.3,1.1-.5,2.9.2,3.2,1.2.6,4.6-4.1,5.3-5,3.3-4.6,3.4-7.1,7.1-11.8,2.7-3.5,3.7-3.5,4.1-3.4,1.1.4,1.2,2.8,1.3,3.4.2,3.6-1.6,7.1-5.7,11.8C2050.5,457.7,2045.4,463.5,2039.8,462.3Z" opacity="0.5" fill="url(#m)" style="isolation:isolate"/><path d="M2064.2,241.2a7.6,7.6,0,0,0,3.7-2.6c1.4-1.5,1.3-2.2,2.4-4.1,1.8-3,2.9-2.6,5.9-6.4a12.21,12.21,0,0,0,2.4-4.5,6.1,6.1,0,0,0,.1-4c-.1-.1-.7-1.8-1.5-1.7s-1.2,1.6-1.5,2.4c-.7,2.3-.1,2.8-.5,4.6a8.2,8.2,0,0,1-4,5.1,3.22,3.22,0,0,1-2.2.6c-1.3-.5-1.6-3-1.3-4.8s.9-1.7,2.2-4.9a19.54,19.54,0,0,0,1.4-4.7,5.55,5.55,0,0,0-.3-3.6c-.1-.3-.6-1.2-1.1-1.1s-1,1.5-1.1,1.9c-.4,1.7,0,2.3,0,4.9a7.26,7.26,0,0,1-.8,3.8c-.1.2-.6,1-1,.9s-.4-.8-.4-1.8a36.88,36.88,0,0,1,.1-4.7c.2-2.2.4-2.9-.1-3.9-.1-.2-.6-1.3-1.3-1.3s-1.4,1.7-1.5,2c-.8,2.4.2,3.7.7,7.5a45.16,45.16,0,0,1-.2,6.4,7.22,7.22,0,0,1-1.3,3.8c-.6.7-.9.7-1,.7-.6-.1-.7-1.5-.8-2.7a39.59,39.59,0,0,1,.2-9.1c.3-2.1.7-3.4.1-5a6.21,6.21,0,0,0-1.4-2.3c-.4-.4-1.5-1.6-2.2-1.3s-.5,1.7-.4,2.5c.2,1.4.8,1.4,1.3,2.8a7,7,0,0,1-.1,4.3c-.2.6-.4,1.3-.8,1.4s-.7-.4-1.2-1.4a16.88,16.88,0,0,1-1.9-3.8c-.4-1.7,0-2.2-.7-3.8-.2-.4-.7-1.5-1.1-1.5s-.8,1.8-.9,2a9.64,9.64,0,0,0,1.4,6.4c1.5,2.7,2.5,2.7,3.9,5.6.4.9.8,1.8,1.1,2.7.9,3,.5,3.6,1.4,4.9s1.6,1.3,2,2.6c.2.6.3,1.6-.1,1.8-.7.3-2.6-2.3-2.9-2.8-1.8-2.5-1.9-3.9-3.9-6.5-1.5-1.9-2.1-1.9-2.3-1.9-.6.2-.7,1.6-.7,1.9-.1,2,.9,4,3.1,6.5C2058.3,238.6,2061.1,241.8,2064.2,241.2Z" opacity="0.5" fill="url(#n)" style="isolation:isolate"/><path d="M1948.1,576.1a7.6,7.6,0,0,0,3.7-2.6c1.4-1.5,1.3-2.3,2.4-4.2,1.8-3,2.9-2.6,5.9-6.5a12.21,12.21,0,0,0,2.4-4.5,6.1,6.1,0,0,0,.1-4c0-.1-.7-1.8-1.5-1.7s-1.2,1.6-1.5,2.4c-.7,2.3-.1,2.8-.5,4.6a8.2,8.2,0,0,1-4,5.1,3.22,3.22,0,0,1-2.2.6c-1.3-.5-1.6-3-1.3-4.8s.9-1.7,2.2-4.9a19.54,19.54,0,0,0,1.4-4.7,5.55,5.55,0,0,0-.3-3.6c-.1-.2-.6-1.2-1.1-1.1s-1,1.5-1.1,1.9c-.4,1.7,0,2.3,0,4.9a7.26,7.26,0,0,1-.8,3.8c-.1.2-.6,1-1,.9s-.4-.8-.4-1.8a36.88,36.88,0,0,1,.1-4.7c.2-2.2.4-2.9,0-3.9-.1-.2-.6-1.3-1.3-1.3s-1.4,1.7-1.5,2c-.8,2.4.2,3.7.7,7.5a45.63,45.63,0,0,1-.2,6.4,7.22,7.22,0,0,1-1.3,3.8c-.6.8-.9.7-1,.7-.6-.1-.7-1.5-.8-2.7a39.59,39.59,0,0,1,.2-9.1c.3-2.1.7-3.4.1-5a6.36,6.36,0,0,0-1.4-2.2c-.4-.4-1.5-1.6-2.2-1.3s-.5,1.7-.4,2.5c.2,1.4.8,1.4,1.3,2.8a7,7,0,0,1-.1,4.3c-.2.6-.4,1.3-.8,1.4s-.7-.4-1.2-1.4a13.26,13.26,0,0,1-1.8-3.8c-.4-1.7,0-2.2-.7-3.8-.2-.4-.7-1.5-1.2-1.5s-.8,1.8-.9,2a9.64,9.64,0,0,0,1.4,6.4c1.5,2.7,2.5,2.7,3.9,5.7.4.9.8,1.8,1.1,2.7.9,3,.5,3.6,1.4,4.9.8,1.1,1.6,1.3,2,2.6.2.6.3,1.6-.1,1.8-.7.3-2.6-2.3-2.9-2.8-1.8-2.5-1.9-3.9-3.9-6.5-1.5-1.9-2.1-1.9-2.3-1.8-.6.2-.7,1.6-.7,1.9-.1,2,.9,3.9,3.1,6.5C1942.1,573.5,1945,576.8,1948.1,576.1Z" opacity="0.5" fill="url(#o)" style="isolation:isolate"/><path d="M2111.6,443.1c-4-.8-6.9-4-8.9-6.3-3.3-3.6-3.1-5.5-5.9-10-4.4-7.2-7.1-6.2-14.2-15.6a34.47,34.47,0,0,1-5.9-10.8c-1.6-5.2-.8-8.2-.1-9.7.1-.3,1.8-4.3,3.7-4.2s2.9,3.9,3.6,5.9c1.6,5.5.2,6.7,1.2,11.1a19.76,19.76,0,0,0,9.6,12.3c1.8,1,3.6,2,5.2,1.4,3.1-1.2,3.9-7.2,3.2-11.6-.6-4.1-2.1-4.1-5.4-11.9a51.47,51.47,0,0,1-3.4-11.4c-.5-2.9-.7-5.9.8-8.8.3-.6,1.4-2.8,2.7-2.7,1.5.1,2.4,3.5,2.7,4.7,1,4,.1,5.5.1,11.9,0,3.7.4,6.5,2,9.1.3.5,1.5,2.4,2.3,2.1s.9-2,1-4.3a105.89,105.89,0,0,0-.3-11.3c-.6-5.4-1-7.1.1-9.5.2-.5,1.4-3.2,3.1-3.2,2,0,3.5,4.2,3.7,4.9,2,5.7-.6,8.9-1.7,18.2-.4,2.9-.1,7.1.4,15.6a17.54,17.54,0,0,0,3.2,9.1c1.4,1.8,2.1,1.8,2.4,1.7,1.4-.3,1.8-3.6,2-6.5a102,102,0,0,0-.4-22.1c-.8-5.2-1.7-8.2-.3-12.2a14.33,14.33,0,0,1,3.3-5.4c.9-1,3.6-3.9,5.2-3.2s1.3,4.2,1,6.1c-.6,3.3-2,3.4-3.1,6.8a17.14,17.14,0,0,0,.3,10.5c.4,1.4.9,3.2,1.9,3.3.8.1,1.6-1,2.9-3.3,2.7-4.7,4-7,4.5-9.1,1-4.1,0-5.4,1.6-9.2.4-.9,1.6-3.6,2.8-3.5,1.4.1,2,4.2,2.1,4.9.3,2,.8,7.7-3.4,15.5-3.5,6.4-6,6.4-9.4,13.6-1,2.2-1.8,4.4-2.6,6.6-2.3,7.2-1.1,8.6-3.3,11.7-2,2.8-3.9,3.2-4.8,6.3-.4,1.5-.6,3.9.2,4.3,1.6.8,6.2-5.6,7-6.7,4.4-6.1,4.6-9.5,9.5-15.8,3.7-4.7,5-4.7,5.6-4.5,1.5.5,1.7,3.8,1.7,4.6.2,4.8-2.1,9.5-7.6,15.8C2125.9,436.9,2119.1,444.7,2111.6,443.1Z" opacity="0.5" fill="url(#p)" style="isolation:isolate"/><path d="M2179.6,352.6c-3-.6-5.3-3.1-6.9-4.9-2.5-2.8-2.4-4.2-4.5-7.7-3.4-5.5-5.4-4.7-10.9-11.9a25.72,25.72,0,0,1-4.5-8.3c-1.2-4-.6-6.3-.1-7.5.1-.3,1.3-3.3,2.8-3.2s2.3,2.9,2.7,4.5c1.3,4.2.1,5.2,1,8.5a15.47,15.47,0,0,0,7.3,9.5c1.4.8,2.8,1.5,4,1.1,2.4-.9,3-5.5,2.5-8.9-.5-3.1-1.6-3.2-4.1-9.1a37.89,37.89,0,0,1-2.6-8.7,10.94,10.94,0,0,1,.6-6.7c.2-.5,1.1-2.2,2.1-2.1,1.2.1,1.8,2.7,2,3.6.8,3.1,0,4.2.1,9.1,0,2.9.3,5,1.6,6.9.2.4,1.1,1.8,1.8,1.6s.7-1.5.7-3.3a84.22,84.22,0,0,0-.2-8.7c-.4-4.1-.7-5.5.1-7.3.2-.4,1.1-2.5,2.4-2.5,1.6,0,2.7,3.2,2.9,3.8,1.5,4.4-.4,6.8-1.3,14-.3,2.2-.1,5.5.3,11.9a13.37,13.37,0,0,0,2.4,7c1.1,1.4,1.6,1.3,1.8,1.3,1-.2,1.4-2.8,1.6-5a79.6,79.6,0,0,0-.3-16.9c-.6-4-1.3-6.3-.2-9.3a11.19,11.19,0,0,1,2.5-4.2c.7-.8,2.8-3,4-2.5s1,3.2.7,4.6c-.4,2.5-1.5,2.6-2.4,5.2a12.88,12.88,0,0,0,.2,8c.3,1.1.7,2.5,1.5,2.5s1.2-.8,2.2-2.5c2-3.6,3-5.4,3.4-7,.8-3.1,0-4.1,1.2-7,.3-.7,1.2-2.8,2.1-2.7,1.1.1,1.6,3.2,1.6,3.8.2,1.5.6,5.9-2.6,11.9-2.7,4.9-4.6,4.9-7.2,10.5a38.63,38.63,0,0,0-2,5.1c-1.7,5.5-.9,6.6-2.5,9-1.5,2.1-3,2.4-3.7,4.8-.3,1.2-.5,3,.2,3.3,1.2.6,4.8-4.3,5.4-5.1,3.4-4.7,3.5-7.3,7.3-12.1,2.8-3.6,3.8-3.6,4.2-3.4,1.2.4,1.3,2.9,1.3,3.5.2,3.7-1.6,7.3-5.8,12.1C2190.6,347.8,2185.3,353.8,2179.6,352.6Z" opacity="0.5" fill="url(#q)" style="isolation:isolate"/><path d="M1981.7,550.4c-4-.8-6.9-4-9-6.3-3.3-3.6-3.1-5.5-5.9-10-4.4-7.2-7-6.2-14.2-15.6a34.47,34.47,0,0,1-5.9-10.8c-1.6-5.2-.8-8.2-.2-9.7.1-.3,1.8-4.3,3.7-4.2s3,3.8,3.6,5.9c1.6,5.5.2,6.8,1.2,11.1a19.76,19.76,0,0,0,9.6,12.3c1.8,1,3.6,2,5.2,1.4,3.1-1.2,3.9-7.2,3.2-11.6-.6-4.1-2.1-4.1-5.4-11.9a51.47,51.47,0,0,1-3.4-11.4c-.5-2.9-.7-5.9.8-8.8.3-.6,1.4-2.8,2.7-2.8,1.5.1,2.4,3.5,2.7,4.7,1,4,0,5.5.1,11.8,0,3.7.4,6.5,2,9.1.3.5,1.5,2.4,2.3,2.1s.9-2,1-4.3a105.89,105.89,0,0,0-.3-11.3c-.6-5.4-1-7.1.1-9.5.2-.5,1.4-3.2,3.1-3.2,2,0,3.5,4.2,3.7,4.9,2,5.7-.6,8.9-1.7,18.2-.3,2.9-.1,7.1.4,15.6a17.54,17.54,0,0,0,3.2,9.1c1.4,1.8,2.1,1.8,2.3,1.7,1.4-.3,1.8-3.6,2-6.5a102,102,0,0,0-.4-22.1c-.8-5.2-1.7-8.2-.3-12.2a14.33,14.33,0,0,1,3.3-5.4c.9-1,3.6-3.9,5.2-3.2s1.3,4.2,1,6.1c-.6,3.3-2,3.4-3.1,6.8a17.14,17.14,0,0,0,.3,10.5c.4,1.4.9,3.2,1.9,3.3.8.1,1.6-1,2.9-3.3,2.7-4.7,4-7,4.5-9.1,1-4.1,0-5.4,1.6-9.2.4-.9,1.6-3.6,2.8-3.5,1.4.1,2,4.2,2.1,4.9.3,2,.8,7.7-3.4,15.5-3.5,6.4-6,6.4-9.4,13.7-1,2.2-1.8,4.4-2.6,6.6-2.3,7.2-1.1,8.6-3.3,11.7-2,2.8-3.9,3.2-4.8,6.3-.4,1.5-.6,3.8.2,4.3,1.6.8,6.2-5.5,7-6.7,4.4-6.1,4.6-9.5,9.5-15.8,3.7-4.7,5-4.7,5.6-4.5,1.5.5,1.7,3.8,1.7,4.6.2,4.8-2.1,9.5-7.6,15.8C1996,544.2,1989.2,552,1981.7,550.4Z" opacity="0.5" fill="url(#r)" style="isolation:isolate"/></svg>