<svg xmlns="http://www.w3.org/2000/svg" xmlns:xlink="http://www.w3.org/1999/xlink" width="478" height="335" viewBox="0 0 478 335"><defs><linearGradient id="a" x1="11.14" y1="218.98" x2="314.84" y2="97.08" gradientTransform="matrix(1, 0, 0, -1, 0, 344)" gradientUnits="userSpaceOnUse"><stop offset="0.32" stop-color="#27182a"/><stop offset="0.41" stop-color="#2a1d2f"/><stop offset="0.53" stop-color="#312c3c"/><stop offset="0.65" stop-color="#3d4452"/><stop offset="0.78" stop-color="#4f6572"/><stop offset="0.91" stop-color="#659099"/><stop offset="1" stop-color="#75b0b7"/></linearGradient><linearGradient id="b" x1="305.96" y1="73.92" x2="315.83" y2="67.74" gradientTransform="matrix(1, 0, 0, -1, 0, 344)" gradientUnits="userSpaceOnUse"><stop offset="0" stop-color="#27182a"/><stop offset="0.14" stop-color="#2a1d2f"/><stop offset="0.31" stop-color="#312c3c"/><stop offset="0.49" stop-color="#3d4452"/><stop offset="0.68" stop-color="#4f6572"/><stop offset="0.87" stop-color="#659099"/><stop offset="1" stop-color="#75b0b7"/></linearGradient><linearGradient id="c" x1="360.93" y1="49.07" x2="309.22" y2="25.1" gradientTransform="matrix(1, 0, 0, -1, 0, 344)" gradientUnits="userSpaceOnUse"><stop offset="0.19" stop-color="#27182a"/><stop offset="0.72" stop-color="#134f39"/><stop offset="1" stop-color="#0b6640"/></linearGradient></defs><polygon points="306.9 279.6 314.6 267.1 160.7 0 0 305.6 306.9 279.6" opacity="0.6" fill="url(#a)" style="isolation:isolate"/><polygon points="317.6 264 306.2 283.5 301.9 280.9 313.7 261.9 317.6 264" fill="url(#b)"/><polygon points="316.9 285.4 325.9 307 329 306.4 325.9 281.7 316.9 285.4" fill="#27182a"/><polygon points="355.1 291.4 356.5 298.1 338.2 311.7 336.3 305.6 355.1 291.4" fill="url(#c)"/><path d="M295.9,298l23-38.6L478,322.2,460,335l-83.4-34.1-17.9,20.9-5.4-3.1h0s5.5-24.3-12.4-31.8c-17.6-7.3-38.4,14.2-38.4,14.2Z" fill="#27182a"/></svg>