<svg xmlns="http://www.w3.org/2000/svg" xmlns:xlink="http://www.w3.org/1999/xlink" width="479.9" height="636.8" viewBox="0 0 479.9 636.8"><defs><linearGradient id="a" x1="1744.01" y1="504.17" x2="1744.01" y2="505.94" gradientTransform="translate(2006.51 908) rotate(180)" gradientUnits="userSpaceOnUse"><stop offset="0" stop-color="#27182a"/><stop offset="0.37" stop-color="#1e3131"/><stop offset="1" stop-color="#0b6640"/></linearGradient><linearGradient id="b" x1="2839.65" y1="544.23" x2="2839.65" y2="551.41" gradientTransform="matrix(1, 0, 0, -1, -2710.3, 908)" xlink:href="#a"/><linearGradient id="c" x1="63.7" y1="660.33" x2="63.7" y2="662.1" gradientTransform="matrix(1, 0, 0, -1, 0, 908)" xlink:href="#a"/><linearGradient id="d" x1="1891.61" y1="659.54" x2="1891.61" y2="661.3" xlink:href="#a"/><linearGradient id="e" x1="1902.56" y1="618.44" x2="1902.56" y2="620.51" xlink:href="#a"/><linearGradient id="f" x1="99.85" y1="698.94" x2="99.85" y2="708.65" gradientTransform="matrix(1, 0, 0, -1, 0, 908)" xlink:href="#a"/><linearGradient id="g" x1="52.8" y1="601.69" x2="52.8" y2="611.38" gradientTransform="matrix(1, 0, 0, -1, 0, 908)" xlink:href="#a"/></defs><path d="M265.5,402.4v1.1l-1.1-.5a4,4,0,0,1-2.3.8,7.86,7.86,0,0,1-2.6-.8,5.51,5.51,0,0,1,2.5-1,7.28,7.28,0,0,1,2.4.7Z" fill="url(#a)"/><polygon points="261.4 402.1 261.4 403.7 261.4 403.7 261.3 402.1 261.4 402.1" fill="#27182a"/><circle cx="260.9" cy="402.7" r="0.1" fill="#27182a"/><path d="M132.1,359.5s1.8-2.3,0-2.9-8.4,3.9-8.4,3.9,5.6,3.6,6.9,3.2a2.06,2.06,0,0,0,1.4-2.4c0-.1,0-.2-.1-.2l3.1,1v-3.4Z" fill="url(#b)"/><polygon points="127.9 358 127.9 362.9 127.6 362.7 127.6 358.2 127.9 358" fill="#27182a"/><circle cx="126.6" cy="359.7" r="0.2" fill="#27182a"/><path d="M60.7,246.2v1.1l1-.5a4,4,0,0,0,2.3.8,9.24,9.24,0,0,0,2.7-.8,5.51,5.51,0,0,0-2.5-1,7.28,7.28,0,0,0-2.4.7Z" fill="url(#c)"/><polygon points="64.8 246 64.8 247.6 64.8 247.6 64.9 246 64.8 246" fill="#27182a"/><circle cx="65.2" cy="246.6" r="0.1" fill="#27182a"/><path d="M119.2,247v1.1l-1.1-.5a5.07,5.07,0,0,1-1.5.7c-.2.1-3,.1-3.3.1a9.24,9.24,0,0,1-2.7-.8,5.51,5.51,0,0,1,2.5-1c.3,0,3.1,0,3.4.1a4,4,0,0,1,1.5.6Z" fill="url(#d)"/><polygon points="112.6 246.8 112.6 248.4 112.6 248.4 112.5 246.8 112.6 246.8" fill="#27182a"/><circle cx="112.1" cy="247.4" r="0.1" fill="#27182a"/><path d="M108.2,287.9V289l-1-.5a5.07,5.07,0,0,1-1.5.7,12.25,12.25,0,0,1-1.9.2,5.9,5.9,0,0,1-1.4-.2,9.24,9.24,0,0,1-2.7-.8,5.51,5.51,0,0,1,2.5-1,7.57,7.57,0,0,1,1.5-.1,11,11,0,0,1,1.8.2,4.71,4.71,0,0,1,1.5.6Z" fill="url(#e)"/><polygon points="101.7 287.7 101.7 289.3 101.6 289.3 101.5 287.7 101.7 287.7" fill="#27182a"/><circle cx="101.2" cy="288.3" r="0.1" fill="#27182a"/><path d="M91.4,199.6v8.2l4.8-3s1.7,4.6,6.1,4.3a7.32,7.32,0,0,0,6-4.3s-1.6-5.4-5.5-5.4-6.3,3.6-6.3,3.6Z" fill="url(#f)"/><polygon points="103.6 199.5 103.6 208.8 103.9 208.7 104 199.6 103.6 199.5" fill="#27182a"/><circle cx="105.5" cy="202.9" r="0.5" fill="#27182a"/><path d="M44.4,296.9V305l4.7-3s1.7,4.6,6.1,4.3a7.32,7.32,0,0,0,6-4.3s-1.6-5.4-5.5-5.4-6.3,3.6-6.3,3.6Z" fill="url(#g)"/><polygon points="56.7 296.7 56.7 306 56.9 306 57 296.8 56.7 296.7" fill="#27182a"/><circle cx="58.5" cy="300.2" r="0.5" fill="#27182a"/></svg>