<svg xmlns="http://www.w3.org/2000/svg" xmlns:xlink="http://www.w3.org/1999/xlink" width="479.9" height="636.8" viewBox="0 0 479.9 636.8"><defs><linearGradient id="a" x1="92.35" y1="538.66" x2="92.35" y2="540.43" gradientTransform="matrix(1, 0, 0, -1, 0, 908)" gradientUnits="userSpaceOnUse"><stop offset="0" stop-color="#27182a"/><stop offset="0.37" stop-color="#1e3131"/><stop offset="1" stop-color="#0b6640"/></linearGradient><linearGradient id="b" x1="1700.61" y1="474.73" x2="1700.61" y2="484.44" gradientTransform="translate(2006.51 908) rotate(180)" xlink:href="#a"/><linearGradient id="c" x1="1946.86" y1="485.89" x2="1946.86" y2="492.54" gradientTransform="translate(2006.51 908) rotate(180)" xlink:href="#a"/><linearGradient id="d" x1="128.35" y1="581.72" x2="128.35" y2="588.38" xlink:href="#a"/><linearGradient id="e" x1="14" y1="667.87" x2="14" y2="677.57" xlink:href="#a"/><linearGradient id="f" x1="1951.21" y1="656.74" x2="1951.21" y2="658.5" gradientTransform="translate(2006.51 908) rotate(180)" xlink:href="#a"/><linearGradient id="g" x1="2784.15" y1="631.29" x2="2784.15" y2="638.47" gradientTransform="matrix(1, 0, 0, -1, -2710.3, 908)" xlink:href="#a"/></defs><path d="M89.3,367.9V369l1.1-.5a4,4,0,0,0,2.3.8,9.24,9.24,0,0,0,2.7-.8,5.51,5.51,0,0,0-2.5-1,7.28,7.28,0,0,0-2.4.7Z" fill="url(#a)"/><polygon points="93.4 367.6 93.4 369.2 93.5 369.2 93.5 367.7 93.4 367.6" fill="#27182a"/><circle cx="93.9" cy="368.2" r="0.1" fill="#27182a"/><path d="M314.3,423.8V432l-4.7-3s-1.6,4.6-6.1,4.3a7.32,7.32,0,0,1-6-4.3s1.6-5.4,5.5-5.4,6.3,3.6,6.3,3.6Z" fill="url(#b)"/><polygon points="302 423.7 302 433 301.8 432.9 301.7 423.8 302 423.7" fill="#27182a"/><circle cx="300.2" cy="427.1" r="0.5" fill="#27182a"/><path d="M70,415.5v6.6l-5-2.8a14.13,14.13,0,0,1-8.4,2.8,12,12,0,0,1-7.3-2.8s2.7-3.6,6.8-3.6,8.6,2.4,8.6,2.4Z" fill="url(#c)"/><polygon points="54.2 416 54.2 421.7 53.9 421.7 53.7 416.1 54.2 416" fill="#27182a"/><ellipse cx="52.4" cy="418.1" rx="0.4" ry="0.3" fill="#27182a"/><path d="M118,319.6v6.6l5-2.8a14.13,14.13,0,0,0,8.4,2.8,12,12,0,0,0,7.3-2.8s-2.7-3.6-6.8-3.6-8.6,2.4-8.6,2.4Z" fill="url(#d)"/><polygon points="133.9 320.2 133.9 325.9 134.2 325.8 134.3 320.3 133.9 320.2" fill="#27182a"/><ellipse cx="135.7" cy="322.2" rx="0.4" ry="0.3" fill="#27182a"/><path d="M5.6,230.7v8.2l4.7-3s1.6,4.6,6.1,4.3a7.32,7.32,0,0,0,6-4.3s-1.6-5.4-5.5-5.4-6.3,3.6-6.3,3.6Z" fill="url(#e)"/><polygon points="17.8 230.6 17.8 239.9 18 239.8 18.2 230.6 17.8 230.6" fill="#27182a"/><circle cx="19.7" cy="234" r="0.5" fill="#27182a"/><path d="M58.3,249.8V251l-1-.5a4,4,0,0,1-2.3.8,9.24,9.24,0,0,1-2.7-.8,5.51,5.51,0,0,1,2.5-1,7.28,7.28,0,0,1,2.4.7Z" fill="url(#f)"/><polygon points="54.2 249.6 54.2 251.2 54.1 251.2 54.1 249.6 54.2 249.6" fill="#27182a"/><circle cx="53.7" cy="250.1" r="0.1" fill="#27182a"/><path d="M76.6,272.5s1.8-2.3,0-2.9-8.4,3.9-8.4,3.9,5.6,3.6,6.9,3.2a1.92,1.92,0,0,0,1.3-2.6l3.1,1v-3.4Z" fill="url(#g)"/><polygon points="72.3 271 72.3 275.8 72 275.7 72 271.1 72.3 271" fill="#27182a"/></svg>