<svg xmlns="http://www.w3.org/2000/svg" xmlns:xlink="http://www.w3.org/1999/xlink" width="479.9" height="636.8" viewBox="0 0 479.9 636.8"><defs><linearGradient id="a" x1="98.3" y1="584.44" x2="98.3" y2="586.21" gradientTransform="matrix(1, 0, 0, -1, 0, 908)" gradientUnits="userSpaceOnUse"><stop offset="0" stop-color="#27182a"/><stop offset="0.37" stop-color="#1e3131"/><stop offset="1" stop-color="#0b6640"/></linearGradient><linearGradient id="b" x1="49.45" y1="551.41" x2="49.45" y2="558.07" xlink:href="#a"/><linearGradient id="c" x1="1921.76" y1="516.83" x2="1921.76" y2="518.6" gradientTransform="translate(2006.51 908) rotate(180)" xlink:href="#a"/><linearGradient id="d" x1="1843.21" y1="380.27" x2="1843.21" y2="382.04" gradientTransform="translate(2006.51 908) rotate(180)" xlink:href="#a"/><linearGradient id="e" x1="1958.41" y1="629.78" x2="1958.41" y2="631.55" gradientTransform="translate(2006.51 908) rotate(180)" xlink:href="#a"/><linearGradient id="f" x1="5.55" y1="619.3" x2="5.55" y2="625.95" xlink:href="#a"/><linearGradient id="g" x1="1928.26" y1="644.27" x2="1928.26" y2="646.04" gradientTransform="translate(2006.51 908) rotate(180)" xlink:href="#a"/><linearGradient id="h" x1="1934.21" y1="696.5" x2="1934.21" y2="698.27" gradientTransform="translate(2006.51 908) rotate(180)" xlink:href="#a"/><linearGradient id="i" x1="1856.66" y1="565.72" x2="1856.66" y2="567.49" gradientTransform="translate(2006.51 908) rotate(180)" xlink:href="#a"/><linearGradient id="j" x1="2830.85" y1="629.86" x2="2830.85" y2="637.05" gradientTransform="matrix(1, 0, 0, -1, -2710.3, 908)" xlink:href="#a"/><linearGradient id="k" x1="2780.35" y1="581.73" x2="2780.35" y2="588.92" gradientTransform="matrix(1, 0, 0, -1, -2710.3, 908)" xlink:href="#a"/><linearGradient id="l" x1="2962.55" y1="597.02" x2="2962.55" y2="604.2" gradientTransform="matrix(1, 0, 0, -1, -2710.3, 908)" xlink:href="#a"/></defs><path d="M95.3,322.1v1.1l1-.5a4,4,0,0,0,2.3.8,9.24,9.24,0,0,0,2.7-.8,5.51,5.51,0,0,0-2.5-1,7.28,7.28,0,0,0-2.4.7Z" fill="url(#a)"/><polygon points="99.4 321.9 99.4 323.5 99.4 323.5 99.5 321.9 99.4 321.9" fill="#27182a"/><circle cx="99.9" cy="322.5" r="0.1" fill="#27182a"/><path d="M39.1,349.9v6.6l5-2.8a14.13,14.13,0,0,0,8.4,2.8,12,12,0,0,0,7.3-2.8s-2.7-3.6-6.8-3.6-8.6,2.4-8.6,2.4Z" fill="url(#b)"/><polygon points="55 350.5 55 356.2 55.2 356.1 55.4 350.6 55 350.5" fill="#27182a"/><ellipse cx="56.7" cy="352.5" rx="0.4" ry="0.3" fill="#27182a"/><path d="M87.8,389.7v1.1l-1.1-.5a4,4,0,0,1-2.3.8,9.24,9.24,0,0,1-2.7-.8,5.51,5.51,0,0,1,2.5-1,7.28,7.28,0,0,1,2.4.7Z" fill="url(#c)"/><path d="M166.3,526.3v1.1l-1.1-.5a4,4,0,0,1-2.3.8,7.86,7.86,0,0,1-2.6-.8,5.51,5.51,0,0,1,2.5-1,7.28,7.28,0,0,1,2.4.7Z" fill="url(#d)"/><polygon points="162.2 526 162.2 527.6 162.2 527.6 162.1 526.1 162.2 526" fill="#27182a"/><circle cx="161.7" cy="526.6" r="0.1" fill="#27182a"/><path d="M51.1,276.8v1.1l-1-.5a4,4,0,0,1-2.3.8,9.24,9.24,0,0,1-2.7-.8,5.51,5.51,0,0,1,2.5-1,7.28,7.28,0,0,1,2.4.7Z" fill="url(#e)"/><polygon points="47 276.5 47 278.1 46.9 278.1 46.9 276.5 47 276.5" fill="#27182a"/><circle cx="46.5" cy="277.1" r="0.1" fill="#27182a"/><path d="M0,282v6.6l3.1-2.8s1.1,3,4,2.8a4.62,4.62,0,0,0,4-2.8s-1-3.6-3.7-3.6a5.22,5.22,0,0,0-4.1,2.4Z" fill="url(#f)"/><polygon points="8.1 282.4 8.1 288.5 8.2 288.5 8.3 282.5 8.1 282.4" fill="#27182a"/><circle cx="9.3" cy="284.7" r="0.3" fill="#27182a"/><path d="M81.3,262.3v1.1l-1.1-.4a4,4,0,0,1-2.3.8,9.24,9.24,0,0,1-2.7-.8,5.51,5.51,0,0,1,2.5-1,7.28,7.28,0,0,1,2.4.7Z" fill="url(#g)"/><path d="M76.6,210.1v1.1l-1.1-.5a5.07,5.07,0,0,1-1.5.7l-3.3.1a9.24,9.24,0,0,1-2.7-.8,5.51,5.51,0,0,1,2.5-1c.3,0,3.1,0,3.4.1a4,4,0,0,1,1.5.6Z" fill="url(#h)"/><polygon points="69.9 209.8 69.9 211.4 69.9 211.4 69.8 209.8 69.9 209.8" fill="#27182a"/><circle cx="69.5" cy="210.4" r="0.1" fill="#27182a"/><path d="M154.1,340.8V342l-1.1-.5a5.07,5.07,0,0,1-1.5.7l-3.3.1a7.86,7.86,0,0,1-2.6-.8,5.51,5.51,0,0,1,2.5-1c.3,0,3.1,0,3.4.1a4,4,0,0,1,1.5.6Z" fill="url(#i)"/><polygon points="147.4 340.6 147.4 342.2 147.4 342.2 147.3 340.6 147.4 340.6" fill="#27182a"/><circle cx="146.9" cy="341.2" r="0.1" fill="#27182a"/><path d="M123.3,273.9s1.8-2.3,0-2.9-8.4,3.9-8.4,3.9,5.6,3.6,6.9,3.2a1.92,1.92,0,0,0,1.3-2.6l3.1,1v-3.4Z" fill="url(#j)"/><polygon points="119 272.4 119 277.2 118.7 277.1 118.8 272.5 119 272.4" fill="#27182a"/><circle cx="117.7" cy="274" r="0.2" fill="#27182a"/><path d="M72.8,322s1.8-2.3,0-2.9-8.4,3.9-8.4,3.9,5.6,3.6,6.9,3.2a1.92,1.92,0,0,0,1.3-2.6l3.1,1v-3.4Z" fill="url(#k)"/><polygon points="68.5 320.5 68.5 325.4 68.2 325.2 68.2 320.7 68.5 320.5" fill="#27182a"/><circle cx="67.2" cy="322.2" r="0.2" fill="#27182a"/><path d="M255,306.7s1.8-2.3,0-2.9-8.4,3.9-8.4,3.9,5.6,3.6,6.9,3.2a1.92,1.92,0,0,0,1.3-2.6l3.1,1v-3.4Z" fill="url(#l)"/><polygon points="250.8 305.2 250.8 310.1 250.4 309.9 250.5 305.4 250.8 305.2" fill="#27182a"/><circle cx="249.4" cy="306.9" r="0.2" fill="#27182a"/></svg>