<svg xmlns="http://www.w3.org/2000/svg" xmlns:xlink="http://www.w3.org/1999/xlink" width="395.4" height="147.2" viewBox="0 0 395.4 147.2"><defs><linearGradient id="a" x1="2876.5" y1="996.91" x2="2876.5" y2="988.6" gradientTransform="translate(-2710.3 -961.8)" gradientUnits="userSpaceOnUse"><stop offset="0" stop-color="#27182a"/><stop offset="0.37" stop-color="#1e3131"/><stop offset="1" stop-color="#0b6640"/></linearGradient><radialGradient id="b" cx="-1452.58" cy="-1503.36" r="14.94" gradientTransform="translate(-1060.91 -789.15) rotate(-164.29) scale(1 0.33)" gradientUnits="userSpaceOnUse"><stop offset="0.45" stop-color="#f0f4f1"/><stop offset="0.51" stop-color="#eaf0ef"/><stop offset="0.59" stop-color="#dae5eb"/><stop offset="0.67" stop-color="#bed2e3"/><stop offset="0.77" stop-color="#98b9d8"/><stop offset="0.87" stop-color="#6798ca"/><stop offset="0.98" stop-color="#2d70b9"/><stop offset="1" stop-color="#2168b6"/></radialGradient><radialGradient id="c" cx="2269.92" cy="3176.44" r="1.47" gradientTransform="translate(-2078.9 -3094.55)" gradientUnits="userSpaceOnUse"><stop offset="0" stop-color="#2168b6"/><stop offset="0.13" stop-color="#256bb7"/><stop offset="0.27" stop-color="#3273bb"/><stop offset="0.41" stop-color="#4681c1"/><stop offset="0.56" stop-color="#6395c9"/><stop offset="0.7" stop-color="#89aed4"/><stop offset="0.85" stop-color="#b7cde1"/><stop offset="0.99" stop-color="#ecf1f0"/><stop offset="1" stop-color="#f0f4f1"/></radialGradient><radialGradient id="d" cx="-968.03" cy="2376.52" r="10.52" gradientTransform="matrix(-0.41, -0.91, 0.42, -0.19, -1170.19, -400.3)" gradientUnits="userSpaceOnUse"><stop offset="0" stop-color="#ecf2ef"/><stop offset="0.27" stop-color="#eaf0ee"/><stop offset="0.41" stop-color="#e2ebec"/><stop offset="0.52" stop-color="#d5e2e8"/><stop offset="0.61" stop-color="#c2d5e3"/><stop offset="0.69" stop-color="#aac5dc"/><stop offset="0.77" stop-color="#8bb0d4"/><stop offset="0.84" stop-color="#6898ca"/><stop offset="0.9" stop-color="#3f7dbf"/><stop offset="0.94" stop-color="#2168b6"/></radialGradient><linearGradient id="e" x1="1051.18" y1="-1177.08" x2="1074.55" y2="-1172.49" gradientTransform="translate(1372.96 1110.06) rotate(-90)" gradientUnits="userSpaceOnUse"><stop offset="0.22" stop-color="#ecf2ef"/><stop offset="0.56" stop-color="#eaf1ee"/><stop offset="0.68" stop-color="#e3edeb"/><stop offset="0.77" stop-color="#d8e7e5"/><stop offset="0.84" stop-color="#c7dddd"/><stop offset="0.9" stop-color="#b1d1d3"/><stop offset="0.95" stop-color="#96c2c7"/><stop offset="1" stop-color="#77b1b8"/><stop offset="1" stop-color="#75b0b7"/></linearGradient><linearGradient id="f" x1="1052.57" y1="-1179.38" x2="1061.85" y2="-1175.23" gradientTransform="translate(1372.96 1110.06) rotate(-90)" gradientUnits="userSpaceOnUse"><stop offset="0.55" stop-color="#ecf2ef"/><stop offset="0.57" stop-color="#e4eded"/><stop offset="0.6" stop-color="#cfdee7"/><stop offset="0.64" stop-color="#abc6dd"/><stop offset="0.69" stop-color="#7ba5cf"/><stop offset="0.74" stop-color="#3d7bbe"/><stop offset="0.76" stop-color="#2168b6"/></linearGradient><linearGradient id="g" x1="1058.23" y1="-1178.24" x2="1065.7" y2="-1175.46" gradientTransform="translate(1372.96 1110.06) rotate(-90)" gradientUnits="userSpaceOnUse"><stop offset="0.51" stop-color="#ecf2ef"/><stop offset="0.54" stop-color="#e4eded"/><stop offset="0.57" stop-color="#cfdee7"/><stop offset="0.61" stop-color="#abc6dd"/><stop offset="0.65" stop-color="#7ba5cf"/><stop offset="0.7" stop-color="#3d7bbe"/><stop offset="0.73" stop-color="#2168b6"/></linearGradient><linearGradient id="h" x1="1051.59" y1="-1177.02" x2="1071.83" y2="-1167.97" gradientTransform="translate(1372.96 1110.06) rotate(-90)" gradientUnits="userSpaceOnUse"><stop offset="0.56" stop-color="#ecf2ef"/><stop offset="0.58" stop-color="#e4eded"/><stop offset="0.6" stop-color="#cfdee7"/><stop offset="0.64" stop-color="#abc6dd"/><stop offset="0.68" stop-color="#7ba5cf"/><stop offset="0.72" stop-color="#3d7bbe"/><stop offset="0.74" stop-color="#2168b6"/></linearGradient><linearGradient id="i" x1="1048.4" y1="-1169.95" x2="1055.46" y2="-1166.8" gradientTransform="translate(1372.96 1110.06) rotate(-90)" gradientUnits="userSpaceOnUse"><stop offset="0" stop-color="#2168b6"/><stop offset="0.14" stop-color="#6495c9"/><stop offset="0.28" stop-color="#9ebdd9"/><stop offset="0.4" stop-color="#c8dae5"/><stop offset="0.49" stop-color="#e2ebec"/><stop offset="0.55" stop-color="#ecf2ef"/></linearGradient><linearGradient id="j" x1="1180.78" y1="-2423.11" x2="1188.72" y2="-2419.56" gradientTransform="matrix(-0.07, -0.36, 0.55, -0.11, 1616.73, 219.19)" xlink:href="#i"/><linearGradient id="k" x1="-1810.82" y1="200.14" x2="-1787.41" y2="204.74" gradientTransform="translate(-1244.75 -1114.63) rotate(-135)" xlink:href="#e"/><linearGradient id="l" x1="1858.36" y1="-3166.36" x2="1867.63" y2="-3162.21" gradientTransform="translate(-747.89 -3547.1) rotate(135)" xlink:href="#f"/><linearGradient id="m" x1="1865.1" y1="-3165.36" x2="1872.57" y2="-3162.59" gradientTransform="translate(-747.89 -3547.1) rotate(135)" xlink:href="#g"/><linearGradient id="n" x1="1857.46" y1="-3164.18" x2="1877.71" y2="-3155.12" gradientTransform="translate(-747.89 -3547.1) rotate(135)" xlink:href="#h"/><linearGradient id="o" x1="1854.31" y1="-3157.16" x2="1861.36" y2="-3154.01" gradientTransform="translate(-747.89 -3547.1) rotate(135)" xlink:href="#i"/><linearGradient id="p" x1="4382.67" y1="-5575.93" x2="4390.6" y2="-5572.38" gradientTransform="matrix(-0.2, 0.3, -0.47, -0.32, -1546.17, -3093.95)" xlink:href="#i"/><radialGradient id="q" cx="-1129.6" cy="1712.91" r="10.52" gradientTransform="matrix(-0.68, -0.73, 0.34, -0.31, -1224.77, -266.62)" xlink:href="#d"/><linearGradient id="r" x1="6749.58" y1="-4598.3" x2="6757.51" y2="-4594.75" gradientTransform="matrix(0.09, 0.35, -0.55, 0.14, -2992.42, -1684.32)" xlink:href="#i"/><radialGradient id="s" cx="145.26" cy="1536.69" r="3.37" gradientTransform="matrix(1, 0, 0, 0.62, -2.28, -884.21)" gradientUnits="userSpaceOnUse"><stop offset="0" stop-color="#2168b6"/><stop offset="0.1" stop-color="#286db8"/><stop offset="0.25" stop-color="#3b7abd"/><stop offset="0.42" stop-color="#5a8fc6"/><stop offset="0.62" stop-color="#86acd3"/><stop offset="0.83" stop-color="#bdd2e3"/><stop offset="1" stop-color="#f0f4f1"/></radialGradient><radialGradient id="t" cx="-36.72" cy="439.48" r="3.37" gradientTransform="matrix(0.86, -0.51, 0.42, 0.71, -1.24, -256.06)" gradientUnits="userSpaceOnUse"><stop offset="0" stop-color="#2168b6"/><stop offset="0.11" stop-color="#2f72ba"/><stop offset="0.32" stop-color="#558bc5"/><stop offset="0.6" stop-color="#91b4d6"/><stop offset="0.95" stop-color="#e4eced"/><stop offset="1" stop-color="#f0f4f1"/></radialGradient><radialGradient id="u" cx="148.68" cy="1211.13" r="4.38" gradientTransform="translate(0 -926.56) scale(1 0.83)" gradientUnits="userSpaceOnUse"><stop offset="0" stop-color="#f0f4f1"/><stop offset="0.13" stop-color="#ecf1f0"/><stop offset="0.26" stop-color="#e0e9ed"/><stop offset="0.39" stop-color="#cddce7"/><stop offset="0.52" stop-color="#b1cadf"/><stop offset="0.64" stop-color="#8eb2d5"/><stop offset="0.77" stop-color="#6394c9"/><stop offset="0.89" stop-color="#3072ba"/><stop offset="0.93" stop-color="#2168b6"/></radialGradient><radialGradient id="v" cx="-1698.37" cy="940.12" r="3.37" gradientTransform="matrix(-0.3, -0.95, 0.59, -0.19, -910.86, -1393.18)" xlink:href="#s"/><radialGradient id="w" cx="-1467.32" cy="-1027.26" r="3.37" gradientTransform="matrix(-0.74, -0.67, 0.55, -0.61, -367.59, -1570.32)" xlink:href="#t"/><radialGradient id="x" cx="-1696.26" cy="800.25" r="4.38" gradientTransform="matrix(-0.3, -0.95, 0.79, -0.25, -982.33, -1370.62)" xlink:href="#u"/><radialGradient id="y" cx="-1662.33" cy="929.95" r="3.37" gradientTransform="matrix(-0.3, -0.95, 0.59, -0.19, -914.52, -1392.03)" xlink:href="#s"/><radialGradient id="z" cx="-1431.85" cy="-1017.77" r="3.37" gradientTransform="matrix(-0.74, -0.67, 0.55, -0.61, -366.55, -1570.05)" xlink:href="#t"/><radialGradient id="aa" cx="-1660.23" cy="790.08" r="4.38" gradientTransform="matrix(-0.3, -0.95, 0.79, -0.25, -984, -1370.09)" xlink:href="#u"/><radialGradient id="ab" cx="-978.69" cy="1915.24" r="3.37" gradientTransform="matrix(0.46, -0.88, 0.56, 0.28, -365.65, -1398.33)" xlink:href="#s"/><radialGradient id="ac" cx="-1159.77" cy="38.22" r="3.37" gradientTransform="matrix(-0.05, -1, 0.82, -0.04, 153.83, -1143.85)" xlink:href="#t"/><radialGradient id="ad" cx="-974.65" cy="1536.69" r="4.38" gradientTransform="matrix(0.46, -0.89, 0.74, 0.38, -438.6, -1438.02)" xlink:href="#u"/><radialGradient id="ae" cx="-1232" cy="-1358.19" r="3.37" gradientTransform="matrix(-0.95, 0.3, -0.19, -0.59, -1230.48, -405.94)" xlink:href="#s"/><radialGradient id="af" cx="-316.8" cy="-2250.27" r="3.37" gradientTransform="matrix(-0.67, 0.74, -0.61, -0.55, -1396.62, -976.85)" xlink:href="#t"/><radialGradient id="ag" cx="-1236.91" cy="-962.06" r="4.38" gradientTransform="matrix(-0.95, 0.3, -0.25, -0.79, -1218.07, -363.1)" xlink:href="#u"/><radialGradient id="ah" cx="-1141" cy="-1319.43" r="3.37" gradientTransform="matrix(-0.95, 0.3, -0.19, -0.59, -1236.11, -420.21)" xlink:href="#s"/><radialGradient id="ai" cx="-258.27" cy="-2172.68" r="3.37" gradientTransform="matrix(-0.67, 0.74, -0.61, -0.55, -1406.58, -985.77)" xlink:href="#t"/><radialGradient id="aj" cx="-1147.01" cy="-925.13" r="4.38" gradientTransform="matrix(-0.95, 0.3, -0.25, -0.79, -1219.99, -369.16)" xlink:href="#u"/><linearGradient id="ak" x1="2212.29" y1="1522.39" x2="2220.71" y2="1526.16" gradientTransform="matrix(-0.35, -0.09, 0.27, -1.09, 545.46, 1975.14)" gradientUnits="userSpaceOnUse"><stop offset="0" stop-color="#2168b6"/><stop offset="0.17" stop-color="#6495c9"/><stop offset="0.34" stop-color="#9ebdd9"/><stop offset="0.49" stop-color="#c8dae5"/><stop offset="0.6" stop-color="#e2ebec"/><stop offset="0.67" stop-color="#ecf2ef"/></linearGradient><linearGradient id="al" x1="7925.25" y1="2292.01" x2="7933.67" y2="2295.78" gradientTransform="matrix(0.29, 0.21, -0.66, 0.9, -399.73, -3714.12)" xlink:href="#ak"/><linearGradient id="am" x1="7437.71" y1="2779.68" x2="7446.13" y2="2783.44" gradientTransform="matrix(0.35, 0.08, -0.26, 1.09, -1786.38, -3582.63)" xlink:href="#ak"/><linearGradient id="an" x1="146.07" y1="1009.05" x2="144.93" y2="993.85" gradientTransform="translate(0 -968)" gradientUnits="userSpaceOnUse"><stop offset="0" stop-color="#2168b6"/><stop offset="0.2" stop-color="#6495c9"/><stop offset="0.41" stop-color="#9ebdd9"/><stop offset="0.58" stop-color="#c8dae5"/><stop offset="0.71" stop-color="#e2ebec"/><stop offset="0.79" stop-color="#ecf2ef"/></linearGradient><linearGradient id="ao" x1="519.34" y1="320.32" x2="518.2" y2="305.12" gradientTransform="matrix(0.82, 0.58, -0.58, 0.82, 13.56, -542.69)" xlink:href="#an"/><linearGradient id="ap" x1="4.51" y1="983.68" x2="3.34" y2="968.07" gradientTransform="translate(0 -961.8)" xlink:href="#an"/><linearGradient id="aq" x1="-1662.02" y1="-368.09" x2="-1663.19" y2="-383.7" gradientTransform="translate(-1178.61 -716.63) rotate(-167.22) scale(0.99)" xlink:href="#an"/><linearGradient id="ar" x1="320.67" y1="-529.05" x2="319.51" y2="-544.65" gradientTransform="translate(-295.18 -200.33) rotate(79.03)" xlink:href="#an"/><linearGradient id="as" x1="-1771.46" y1="31.33" x2="-1772.63" y2="15.72" gradientTransform="translate(-1335.17 -910.69) rotate(-145.99)" xlink:href="#an"/><linearGradient id="at" x1="-1672.88" y1="21.39" x2="-1674.04" y2="5.78" gradientTransform="translate(-1335.17 -910.69) rotate(-145.99)" xlink:href="#an"/><radialGradient id="au" cx="-396.08" cy="3682.5" r="10.52" gradientTransform="matrix(0.41, -0.91, 0.42, 0.19, -1176.23, -1008.85)" xlink:href="#d"/><radialGradient id="av" cx="-1028.86" cy="1464.21" r="10.52" gradientTransform="matrix(-0.72, -0.7, 0.32, -0.33, -1002.98, -220.87)" xlink:href="#d"/></defs><polygon points="355.1 14.1 355 13.9 378.4 10.4 378.4 11.1 355.1 14.1" fill="#27182a"/><path d="M285,45.1a.63.63,0,0,1-.5.6h0a.5.5,0,0,1-.5-.6h0a.47.47,0,0,1,.5-.5c.3-.1.5.1.5.5Z" fill="#f0f4f1" opacity="0.5" style="isolation:isolate"/><path d="M283.5,38.8c0,.2-.2.5-.4.5h0a.5.5,0,0,1,0-1c.2-.1.4.1.4.5Z" fill="#f0f4f1" opacity="0.7" style="isolation:isolate"/><path d="M285.7,40.8a.77.77,0,0,1-.7.8h0a.81.81,0,0,1-.2-1.6h.1a.79.79,0,0,1,.8.8Z" fill="#f0f4f1" opacity="0.3" style="isolation:isolate"/><path d="M329.7,21.5a.56.56,0,0,1-.5.6h0a.75.75,0,0,1-.7-.5.75.75,0,0,1,.5-.7h.1c.4.1.7.3.6.6Z" fill="#f0f4f1" opacity="0.5" style="isolation:isolate"/><path d="M331.4,19.7c0,.2-.2.5-.4.5h0a.5.5,0,0,1,0-1,.46.46,0,0,1,.4.5Z" fill="#f0f4f1" opacity="0.7" style="isolation:isolate"/><path d="M330.5,16.1a.77.77,0,0,1-.7.8h0a.8.8,0,0,1-.7-.9.68.68,0,0,1,.7-.7.71.71,0,0,1,.7.8Z" fill="#f0f4f1" opacity="0.3" style="isolation:isolate"/><path d="M169.4,30.2s2.1-2.7,0-3.3-9.7,4.5-9.7,4.5,6.5,4.2,7.9,3.7,2.1-2.2,1.5-3l3.6,1.1V29.3Z" fill="url(#a)"/><polygon points="164.4 28.5 164.4 34.1 164.1 33.9 164.1 28.6 164.4 28.5" fill="#27182a"/><circle cx="162.9" cy="30.4" r="0.3" fill="#27182a"/><path d="M190.6,83.3a10.64,10.64,0,0,1,2.5.9c.6.5,1.5,3.3,3.4,3.7s2.9-.6,3.7-.4,2.5.8,3.7,1.2,3.2.8,3.2,0a.94.94,0,0,0-1-.9c-.2,0-.4-.3-.2-.3s1.5.2,1.7-.3c.1-.2.1-.9-.2-1.1s-1.1-.1-1-.6c0-.2.3-.2.4-.2.5,0,.7.2,1,.1.5,0,.6-1.2.1-1.5-.3-.1-3.5-.9-4.4-1.1a11.47,11.47,0,0,1-3.1-1.1,4.86,4.86,0,0,0-2.8-1.3,30.62,30.62,0,0,0-3.2.5c-.5,0-2.8-.2-3.3-.2s-1.5.1-1.6.8S189.2,83.1,190.6,83.3Z" fill="url(#b)"/><path d="M190.7,80.8c.6,0,.7.6.7,1.1a.94.94,0,0,1-1,1c-.6,0-.8-.4-.8-1a1.09,1.09,0,0,1,.9-1.1Z" fill="url(#c)"/><ellipse cx="224.39" cy="44.88" rx="5.5" ry="6" transform="translate(24.12 155.58) rotate(-40.24)" fill="#f0f4f1"/><path d="M221.5,41.5a4.26,4.26,0,0,1,6.1.8,4.4,4.4,0,0,1-.3,6.2,4.26,4.26,0,0,1-6.1-.8A4.39,4.39,0,0,1,221.5,41.5Z" fill="url(#d)"/><path d="M191.8,44.1c-2.1.4-5.6,3.3-5.6,3.3s6.1,5.5,7.4,7,6.2,8.3,6.5,8.6,1.4,1,1.8.7.6-.5.1-1.8a19.67,19.67,0,0,0-2.6-3.8,5.66,5.66,0,0,0,1.8-.3,4.07,4.07,0,0,0,1.7-1.2s2.3,4.2,3.1,4.5,1.4-.7,1.6-1.1a14,14,0,0,0-1-3.5s-1-2.9-2.2-7.5a56.62,56.62,0,0,0-3.2-9C199.6,41.8,193.9,43.7,191.8,44.1Zm10.1,18.7c0,.3-.3.5-1,.2s-2.4-3.2-2.6-3.6a5,5,0,0,0,.8-.7C199.4,58.4,201.9,62.5,201.9,62.8Zm4.6-3.2s-.1.2-.4,0a27,27,0,0,1-2.2-3.3,3.13,3.13,0,0,0,1-.5C205.4,55.4,206.5,59.6,206.5,59.6Z" fill="url(#e)"/><path d="M187.3,46.5s14.5,7.6,16.7,9.8l1.2,2.1-1,.5-1.4-2.5a3,3,0,0,1-1.7,1.2c-1,.3-15-10.3-15-10.3Z" fill="url(#f)"/><path d="M189.3,45.2a9.14,9.14,0,0,1,1.4-.7c.4-.2,11.7,7.9,11.7,7.9Z" fill="url(#g)"/><path d="M194.9,43.2s2.6-.9,3.4-1.3,4,3.6,5,6.5a61.11,61.11,0,0,1,1.7,7.4S198.4,45.2,194.9,43.2Z" fill="url(#h)"/><path d="M202.8,55.4s1,2.3,1.3,2.9a6.62,6.62,0,0,0,1.5,2.2c.4.4,1.1.1.9-.1s-.4.3-1-.8c-.3-.5-.6-1-.8-1.3s-.6-1.2-1-1.8A1.94,1.94,0,0,0,202.8,55.4Z" fill="url(#i)"/><path d="M199.4,61.8a3.92,3.92,0,0,0,.8,1,2.07,2.07,0,0,0,1,.6c.3.1.6-.1.5-.2a1.08,1.08,0,0,1-.8-.2l-.3-.2c-.2-.1-.4-.5-.6-.7A.71.71,0,0,1,199.4,61.8Z" fill="url(#j)"/><path d="M176,23.9a.56.56,0,0,1-.5.6h0a.6.6,0,1,1,0-1.2h0a.56.56,0,0,1,.5.6Z" fill="#f0f4f1" opacity="0.5" style="isolation:isolate"/><path d="M177.7,22.1c0,.2-.2.5-.4.5h0a.5.5,0,0,1,0-1,.46.46,0,0,1,.4.5Z" fill="#f0f4f1" opacity="0.7" style="isolation:isolate"/><path d="M176.8,18.4a.77.77,0,0,1-.7.8H176a1,1,0,0,1-.9-.7,1,1,0,0,1,.7-.9h.2a1.09,1.09,0,0,1,.8.8Z" fill="#f0f4f1" opacity="0.3" style="isolation:isolate"/><path d="M176.8,29.9c1.8,1.2,6.3,1.6,6.3,1.6s-.4-8.2-.3-10.2,1.5-10.2,1.5-10.6-.3-1.7-.8-1.8-.8-.1-1.4,1.2a17.86,17.86,0,0,0-.9,4.6,14.31,14.31,0,0,0-1.5-1.1,3.4,3.4,0,0,0-2-.3s1.4-4.6,1-5.4-1.5-.5-1.9-.3a20.16,20.16,0,0,0-1.8,3.2s-1.3,2.7-3.7,6.8a68.36,68.36,0,0,0-4.2,8.6C169.6,26,175,28.7,176.8,29.9Zm6-20.4c.2-.2.6-.1.9.6s-.6,4-.7,4.3a3.75,3.75,0,0,0-1.1-.1C181.4,14.4,182.6,9.7,182.8,9.5Zm-5.5-1s.3-.1.2.2a16.06,16.06,0,0,1-.8,3.8,3.58,3.58,0,0,0-1.1-.4c-.5.1,1.7-3.6,1.7-3.6Z" fill="url(#k)"/><path d="M181.6,31.3s-4.9-15.6-4.9-18.8l.6-2.4,1.1.3-.7,2.7a3.4,3.4,0,0,1,2,.3c.9.5,3.3,17.9,3.3,17.9Z" fill="url(#l)"/><path d="M179.2,30.9a12.61,12.61,0,0,1-1.5-.5c-.4-.2-2.7-13.9-2.7-13.9Z" fill="url(#m)"/><path d="M174,28.3l-3.4-1.5c-.9-.4-.3-5.4,1.1-8.1s3.9-6.6,3.9-6.6S172.9,24.4,174,28.3Z" fill="url(#n)"/><path d="M176.9,14.1s.9-2.4,1.1-3a7.51,7.51,0,0,0,.5-2.6c0-.6-.7-.8-.8-.6s.5.1.1,1.2c-.1.5-.3,1.1-.4,1.5s-.4,1.3-.6,2A7.57,7.57,0,0,0,176.9,14.1Z" fill="url(#o)"/><path d="M183.9,12a5.85,5.85,0,0,0,.2-1.3,2,2,0,0,0-.3-1.1c-.1-.2-.5-.4-.5-.3a1,1,0,0,1,.4.7.76.76,0,0,0,.1.4v.9A1.7,1.7,0,0,1,183.9,12Z" fill="url(#p)"/><ellipse cx="124.74" cy="21.4" rx="5.5" ry="5.9" transform="translate(42.94 117.98) rotate(-59.47)" fill="#f0f4f1"/><path d="M120.8,19.1a4.54,4.54,0,1,1,1.8,5.9A4.34,4.34,0,0,1,120.8,19.1Z" fill="url(#q)"/><path d="M132.6,68.6a8.12,8.12,0,0,0-.9-1,3.33,3.33,0,0,0-1-.6c-.3-.1-.6.1-.5.2a1.08,1.08,0,0,1,.8.2l.3.2c.2.1.4.5.7.6A1.27,1.27,0,0,1,132.6,68.6Z" fill="url(#r)"/><path d="M145.1,73.8l.4,8.4a11.23,11.23,0,0,0,3.2.3,8,8,0,0,0,3-.6l-.1-8.9Z" fill="#f0f4f1"/><path d="M148.2,72.2c1.8-.2,3.3.2,3.4.8s-1.3,1.4-3.1,1.6-3.3-.2-3.4-.8S146.4,72.4,148.2,72.2Z" fill="url(#s)"/><path d="M147,71c1.4-1.1,2.9-1.6,3.3-1s-.4,1.9-1.9,3-2.9,1.6-3.3,1S145.6,72.1,147,71Z" fill="url(#t)"/><path d="M145.3,77a7,7,0,0,0,6.4-.8l.1,3.3a10.89,10.89,0,0,1-3.1.8,7,7,0,0,1-3.2-.5Z" fill="url(#u)"/><path d="M155.2,46.9l7.9-3a18,18,0,0,0-.6-3.2,8.67,8.67,0,0,0-1.4-2.7l-8.4,2.8Z" fill="#f0f4f1"/><path d="M152.5,40.9c.6-.3,1.7.8,2.5,2.5s.9,3.2.2,3.5-1.7-.8-2.5-2.5S151.9,41.2,152.5,40.9Z" fill="url(#v)"/><path d="M150,43c.4-.6,1.9-.2,3.4.9s2.4,2.3,2,2.9-1.9.2-3.4-.9S149.6,43.5,150,43Z" fill="url(#w)"/><path d="M158.2,45.8a6.52,6.52,0,0,0-2.7-5.8l3.1-1a9.48,9.48,0,0,1,1.7,2.7,7,7,0,0,1,.5,3.2Z" fill="url(#x)"/><path d="M134.6,15.6l7.9-3a15.47,15.47,0,0,0-.6-3.1,7.2,7.2,0,0,0-1.5-2.7L132,9.6Z" fill="#f0f4f1"/><path d="M131.9,9.6c.6-.3,1.7.8,2.5,2.5s.9,3.2.2,3.5-1.7-.8-2.5-2.5S131.3,9.9,131.9,9.6Z" fill="url(#y)"/><path d="M129.4,11.7c.4-.6,1.9-.2,3.4.9s2.4,2.3,2,2.9-1.9.2-3.4-.9S129,12.2,129.4,11.7Z" fill="url(#z)"/><path d="M137.6,14.5a8.66,8.66,0,0,0-.6-3.2,9,9,0,0,0-2.1-2.7l3.1-1a9.48,9.48,0,0,1,1.7,2.7,7,7,0,0,1,.5,3.2Z" fill="url(#aa)"/><path d="M243.5,14.2l7.7,3.5A12.71,12.71,0,0,0,253,15a6.41,6.41,0,0,0,.8-3l-7.9-3.9Z" fill="#f0f4f1"/><path d="M243.5,10.7c.6-1.7,1.7-2.9,2.3-2.6s.6,1.8,0,3.5-1.7,2.9-2.3,2.6S242.8,12.4,243.5,10.7Z" fill="url(#ab)"/><path d="M242.5,7.7c.7-.1,1.5,1.2,1.8,3s0,3.3-.6,3.4-1.5-1.2-1.8-3S241.9,7.8,242.5,7.7Z" fill="url(#ac)"/><path d="M246.4,15.5a8.77,8.77,0,0,0,1.9-2.7,7.78,7.78,0,0,0,.4-3.4l2.9,1.4a10.76,10.76,0,0,1-.7,3.1,7,7,0,0,1-1.9,2.6Z" fill="url(#ad)"/><path d="M203.6,29.6l-3-7.9a18,18,0,0,0-3.2.6,7.2,7.2,0,0,0-2.7,1.5l2.8,8.4Z" fill="#f0f4f1"/><path d="M200.1,29.8c1.7-.7,3.2-.9,3.5-.2s-.8,1.7-2.5,2.5-3.2.9-3.5.2S198.5,30.6,200.1,29.8Z" fill="url(#ae)"/><path d="M200.6,31.5c1-1.5,2.3-2.4,2.9-2s.2,1.9-.9,3.4-2.3,2.4-2.9,2S199.5,33,200.6,31.5Z" fill="url(#af)"/><path d="M202.5,26.6a8.66,8.66,0,0,0-3.2.6,7.55,7.55,0,0,0-2.6,2.1l-1-3.1a9.48,9.48,0,0,1,2.7-1.7,7,7,0,0,1,3.2-.5Z" fill="url(#ag)"/><path d="M106.8,21.5l-3-7.9a18,18,0,0,0-3.2.6A6.81,6.81,0,0,0,98,15.7l2.8,8.4Z" fill="#f0f4f1"/><path d="M103.3,21.8c1.7-.7,3.2-.9,3.5-.2s-.8,1.7-2.5,2.5-3.2.9-3.5.2S101.6,22.5,103.3,21.8Z" fill="url(#ah)"/><path d="M103.7,23.4c1-1.5,2.3-2.4,2.9-2s.2,1.9-.9,3.4-2.3,2.4-2.9,2S102.7,24.9,103.7,23.4Z" fill="url(#ai)"/><path d="M105.6,18.5a8.66,8.66,0,0,0-3.2.6,9,9,0,0,0-2.7,2.1l-1-3.1a9.48,9.48,0,0,1,2.7-1.7,7,7,0,0,1,3.2-.5Z" fill="url(#aj)"/><path d="M192.6,137.1c.6.2.1,1.5-1.8,3.5a23,23,0,0,1-4.1,3.5,2.15,2.15,0,0,1-.2,1.9c-.5.8-.9,1.4-1.1,1.3s.6-1.8.6-2.1-.8.1-1.2.5a3.11,3.11,0,0,1-.9.7c-.2.1.2-.8.8-1.3s.6-.7.5-.8a6.75,6.75,0,0,0-1.4.2l-.9.3a2,2,0,0,1,1.2-1.3,3,3,0,0,1,1.6-.2,24.24,24.24,0,0,0,3.1-2.5C190.4,139.2,192.1,136.9,192.6,137.1Z" fill="#f0f4f1"/><path d="M189.6,140.7a6.38,6.38,0,0,0,1.4-.8,4.43,4.43,0,0,0,1.2-1.5,2,2,0,0,0,.4-.8c0-.3-.1-.4-.2-.3a10.63,10.63,0,0,1-.9,1.1,3.17,3.17,0,0,1-.5.6,9.68,9.68,0,0,0-.7.9A1.85,1.85,0,0,1,189.6,140.7Z" fill="url(#ak)"/><path d="M383.6,18.5c-.5-.5.4-1.4,3-2.5a30.52,30.52,0,0,1,5.1-1.7,2.23,2.23,0,0,1,.9-1.7c.8-.5,1.3-.9,1.5-.7s-1.2,1.4-1.4,1.7.8.2,1.3,0l1-.3c.2,0-.5.6-1.2.9s-.8.4-.8.5a3.08,3.08,0,0,0,1.3.3,2.77,2.77,0,0,1,.9.1,1.73,1.73,0,0,1-1.6.7,3,3,0,0,1-1.6-.5,16.57,16.57,0,0,0-3.8,1.1C386.4,17.4,384,18.9,383.6,18.5Z" fill="#f0f4f1"/><path d="M387.8,16.3a8.75,8.75,0,0,0-1.6.2,4.17,4.17,0,0,0-1.6.9c-.2.2-.5.3-.7.5s0,.4.1.3a7.46,7.46,0,0,1,1.2-.7,1.61,1.61,0,0,0,.7-.4,3.6,3.6,0,0,1,.9-.5C387.2,16.5,387.5,16.4,387.8,16.3Z" fill="url(#al)"/><path d="M85.8,27.8c-.6-.2-.1-1.5,1.8-3.5a23,23,0,0,1,4.1-3.5,2.25,2.25,0,0,1,.2-1.8c.5-.8.9-1.4,1.2-1.3s-.6,1.8-.6,2.1.8-.1,1.2-.5a2.18,2.18,0,0,1,.9-.7c.2-.1-.2.8-.8,1.3s-.6.7-.5.8a5.07,5.07,0,0,0,1.3-.2l.9-.3a2,2,0,0,1-1.2,1.3,3,3,0,0,1-1.6.2,24.24,24.24,0,0,0-3.1,2.5C88,25.7,86.3,28,85.8,27.8Z" fill="#f0f4f1"/><path d="M88.8,24.1a4.19,4.19,0,0,0-1.4.9,4.43,4.43,0,0,0-1.2,1.5,2,2,0,0,0-.4.8c0,.2.1.4.2.3a10.63,10.63,0,0,1,.9-1.1,3.17,3.17,0,0,1,.5-.6,9.68,9.68,0,0,0,.7-.9C88.4,24.6,88.6,24.4,88.8,24.1Z" fill="url(#am)"/><ellipse cx="145.5" cy="33.4" rx="3" ry="3.5" fill="url(#an)"/><path d="M254.8,9.1A3.24,3.24,0,0,1,259.3,8a3.27,3.27,0,0,1,.5,4.6,3.24,3.24,0,0,1-4.5,1.1A3.27,3.27,0,0,1,254.8,9.1Z" fill="url(#ao)"/><path d="M3.4,10.5,0,17.1s6,.6,8.3,0Z" fill="url(#ap)"/><path d="M350.7,20.2l4.8-5.7s-5.7-1.9-8.1-1.9Z" fill="url(#aq)"/><path d="M295.6,10l-7.2-2s.6,6,1.6,8.1Z" fill="url(#ar)"/><path d="M147.9,64.1l6.6-3.6s-4.6-3.8-6.9-4.6Z" fill="url(#as)"/><path d="M60.3,17.5l6.6-3.6S62.3,10.1,60,9.3Z" fill="url(#at)"/><ellipse cx="198.17" cy="58.33" rx="5.9" ry="5.5" transform="translate(112.32 246.22) rotate(-81.84)" fill="#f0f4f1"/><path d="M194.1,57.7a4.21,4.21,0,1,1,3.5,5.1A4.32,4.32,0,0,1,194.1,57.7Z" fill="url(#au)"/><ellipse cx="208.08" cy="13.44" rx="5.5" ry="5.9" transform="translate(99.06 191.18) rotate(-62.17)" fill="#f0f4f1"/><path d="M204.1,11.3a4.5,4.5,0,0,1,6-1.6,4.36,4.36,0,0,1,2.1,5.8c-1,2-3.7,2.7-6,1.6A4.36,4.36,0,0,1,204.1,11.3Z" fill="url(#av)"/></svg>