<svg xmlns="http://www.w3.org/2000/svg" xmlns:xlink="http://www.w3.org/1999/xlink" width="395.4" height="147.2" viewBox="0 0 395.4 147.2"><defs><linearGradient id="a" x1="-505.41" y1="972.82" x2="-505.41" y2="970.78" gradientTransform="matrix(-1, 0, 0, 1, -221.71, -961.8)" gradientUnits="userSpaceOnUse"><stop offset="0" stop-color="#27182a"/><stop offset="0.37" stop-color="#1e3131"/><stop offset="1" stop-color="#0b6640"/></linearGradient><radialGradient id="b" cx="-1093.99" cy="2702.43" r="14.94" gradientTransform="translate(-393.91 -1242.16) rotate(-74.29) scale(1 0.33)" gradientUnits="userSpaceOnUse"><stop offset="0.45" stop-color="#f0f4f1"/><stop offset="0.51" stop-color="#eaf0ef"/><stop offset="0.59" stop-color="#dae5eb"/><stop offset="0.67" stop-color="#bed2e3"/><stop offset="0.77" stop-color="#98b9d8"/><stop offset="0.87" stop-color="#6798ca"/><stop offset="0.98" stop-color="#2d70b9"/><stop offset="1" stop-color="#2168b6"/></radialGradient><radialGradient id="c" cx="2252.34" cy="1556.05" r="1.47" gradientTransform="translate(1733.39 -2208.62) rotate(90)" gradientUnits="userSpaceOnUse"><stop offset="0" stop-color="#2168b6"/><stop offset="0.13" stop-color="#256bb7"/><stop offset="0.27" stop-color="#3273bb"/><stop offset="0.41" stop-color="#4681c1"/><stop offset="0.56" stop-color="#6395c9"/><stop offset="0.7" stop-color="#89aed4"/><stop offset="0.85" stop-color="#b7cde1"/><stop offset="0.99" stop-color="#ecf1f0"/><stop offset="1" stop-color="#f0f4f1"/></radialGradient><radialGradient id="d" cx="347.82" cy="1835.28" r="14.94" gradientTransform="translate(-13.32 -660.03) rotate(15.71) scale(1 0.33)" xlink:href="#b"/><radialGradient id="e" cx="541.8" cy="1390.7" r="1.47" gradientTransform="translate(704.45 1413.72) rotate(180)" xlink:href="#c"/><radialGradient id="f" cx="-1370.13" cy="962.7" r="14.94" gradientTransform="matrix(-0.39, -0.92, 0.31, -0.13, -638.01, -1118.58)" xlink:href="#b"/><radialGradient id="g" cx="2479.28" cy="2105.47" r="1.47" gradientTransform="translate(292.55 -3239.92) rotate(51.52)" xlink:href="#c"/><linearGradient id="h" x1="131.84" y1="964.16" x2="155.25" y2="968.75" gradientTransform="matrix(1, 0.05, -0.05, 1, 107.92, -879.27)" gradientUnits="userSpaceOnUse"><stop offset="0.22" stop-color="#ecf2ef"/><stop offset="0.56" stop-color="#eaf1ee"/><stop offset="0.68" stop-color="#e3edeb"/><stop offset="0.77" stop-color="#d8e7e5"/><stop offset="0.84" stop-color="#c7dddd"/><stop offset="0.9" stop-color="#b1d1d3"/><stop offset="0.95" stop-color="#96c2c7"/><stop offset="1" stop-color="#77b1b8"/><stop offset="1" stop-color="#75b0b7"/></linearGradient><linearGradient id="i" x1="1097.98" y1="-1232.35" x2="1107.25" y2="-1228.21" gradientTransform="matrix(0.05, -1, 1, 0.05, 1371.96, 1260.74)" gradientUnits="userSpaceOnUse"><stop offset="0.55" stop-color="#ecf2ef"/><stop offset="0.57" stop-color="#e4eded"/><stop offset="0.6" stop-color="#cfdee7"/><stop offset="0.64" stop-color="#abc6dd"/><stop offset="0.69" stop-color="#7ba5cf"/><stop offset="0.74" stop-color="#3d7bbe"/><stop offset="0.76" stop-color="#2168b6"/></linearGradient><linearGradient id="j" x1="1103.93" y1="-1231.03" x2="1111.39" y2="-1228.26" gradientTransform="matrix(0.05, -1, 1, 0.05, 1371.96, 1260.74)" gradientUnits="userSpaceOnUse"><stop offset="0.51" stop-color="#ecf2ef"/><stop offset="0.54" stop-color="#e4eded"/><stop offset="0.57" stop-color="#cfdee7"/><stop offset="0.61" stop-color="#abc6dd"/><stop offset="0.65" stop-color="#7ba5cf"/><stop offset="0.7" stop-color="#3d7bbe"/><stop offset="0.73" stop-color="#2168b6"/></linearGradient><linearGradient id="k" x1="1097.03" y1="-1230.08" x2="1117.28" y2="-1221.01" gradientTransform="matrix(0.05, -1, 1, 0.05, 1371.96, 1260.74)" gradientUnits="userSpaceOnUse"><stop offset="0.56" stop-color="#ecf2ef"/><stop offset="0.58" stop-color="#e4eded"/><stop offset="0.6" stop-color="#cfdee7"/><stop offset="0.64" stop-color="#abc6dd"/><stop offset="0.68" stop-color="#7ba5cf"/><stop offset="0.72" stop-color="#3d7bbe"/><stop offset="0.74" stop-color="#2168b6"/></linearGradient><linearGradient id="l" x1="1093.81" y1="-1222.91" x2="1100.86" y2="-1219.76" gradientTransform="matrix(0.05, -1, 1, 0.05, 1371.96, 1260.74)" gradientUnits="userSpaceOnUse"><stop offset="0" stop-color="#2168b6"/><stop offset="0.14" stop-color="#6495c9"/><stop offset="0.28" stop-color="#9ebdd9"/><stop offset="0.4" stop-color="#c8dae5"/><stop offset="0.49" stop-color="#e2ebec"/><stop offset="0.55" stop-color="#ecf2ef"/></linearGradient><linearGradient id="m" x1="1315.34" y1="-2496.44" x2="1323.28" y2="-2492.89" gradientTransform="matrix(-0.05, -0.36, 0.56, -0.08, 1662.32, 385.52)" xlink:href="#l"/><linearGradient id="n" x1="-1425.95" y1="-737.61" x2="-1402.53" y2="-733.02" gradientTransform="matrix(-1, 0.05, -0.05, -1, -1319.43, -585.93)" xlink:href="#h"/><linearGradient id="o" x1="2801.37" y1="-2793.71" x2="2810.65" y2="-2789.56" gradientTransform="matrix(0.05, 1, -1, 0.05, -2798.02, -2581.56)" xlink:href="#i"/><linearGradient id="p" x1="2807.25" y1="-2792.91" x2="2814.72" y2="-2790.14" gradientTransform="matrix(0.05, 1, -1, 0.05, -2798.02, -2581.56)" xlink:href="#j"/><linearGradient id="q" x1="2800.39" y1="-2791.34" x2="2820.63" y2="-2782.29" gradientTransform="matrix(0.05, 1, -1, 0.05, -2798.02, -2581.56)" xlink:href="#k"/><linearGradient id="r" x1="2797.18" y1="-2784.24" x2="2804.23" y2="-2781.08" gradientTransform="matrix(0.05, 1, -1, 0.05, -2798.02, -2581.56)" xlink:href="#l"/><radialGradient id="s" cx="68.57" cy="1500.1" r="3.37" gradientTransform="matrix(1, 0, 0, 0.62, -3.34, -900.13)" gradientUnits="userSpaceOnUse"><stop offset="0" stop-color="#2168b6"/><stop offset="0.1" stop-color="#286db8"/><stop offset="0.25" stop-color="#3b7abd"/><stop offset="0.42" stop-color="#5a8fc6"/><stop offset="0.62" stop-color="#86acd3"/><stop offset="0.83" stop-color="#bdd2e3"/><stop offset="1" stop-color="#f0f4f1"/></radialGradient><radialGradient id="t" cx="-83.81" cy="366.77" r="3.37" gradientTransform="matrix(0.86, -0.51, 0.42, 0.71, -7.62, -266.83)" gradientUnits="userSpaceOnUse"><stop offset="0" stop-color="#2168b6"/><stop offset="0.11" stop-color="#2f72ba"/><stop offset="0.32" stop-color="#558bc5"/><stop offset="0.6" stop-color="#91b4d6"/><stop offset="0.95" stop-color="#e4eced"/><stop offset="1" stop-color="#f0f4f1"/></radialGradient><radialGradient id="u" cx="71.1" cy="1172.58" r="4.38" gradientTransform="translate(0 -933.2) scale(1 0.83)" gradientUnits="userSpaceOnUse"><stop offset="0" stop-color="#f0f4f1"/><stop offset="0.13" stop-color="#ecf1f0"/><stop offset="0.26" stop-color="#e0e9ed"/><stop offset="0.39" stop-color="#cddce7"/><stop offset="0.52" stop-color="#b1cadf"/><stop offset="0.64" stop-color="#8eb2d5"/><stop offset="0.77" stop-color="#6394c9"/><stop offset="0.89" stop-color="#3072ba"/><stop offset="0.93" stop-color="#2168b6"/></radialGradient><linearGradient id="v" x1="7850.1" y1="2786.55" x2="7858.52" y2="2790.31" gradientTransform="matrix(0.35, 0.08, -0.26, 1.09, -1786.38, -3582.63)" gradientUnits="userSpaceOnUse"><stop offset="0" stop-color="#2168b6"/><stop offset="0.17" stop-color="#6495c9"/><stop offset="0.34" stop-color="#9ebdd9"/><stop offset="0.49" stop-color="#c8dae5"/><stop offset="0.6" stop-color="#e2ebec"/><stop offset="0.67" stop-color="#ecf2ef"/></linearGradient><linearGradient id="w" x1="213.37" y1="1034.22" x2="212.24" y2="1019.02" gradientTransform="translate(0 -968)" gradientUnits="userSpaceOnUse"><stop offset="0" stop-color="#2168b6"/><stop offset="0.2" stop-color="#6495c9"/><stop offset="0.41" stop-color="#9ebdd9"/><stop offset="0.58" stop-color="#c8dae5"/><stop offset="0.71" stop-color="#e2ebec"/><stop offset="0.79" stop-color="#ecf2ef"/></linearGradient><linearGradient id="x" x1="-1604.44" y1="726.13" x2="-1605.58" y2="710.93" gradientTransform="translate(-862.41 -1421.28) rotate(-99.71)" xlink:href="#w"/><linearGradient id="y" x1="-1565.05" y1="654.19" x2="-1566.19" y2="638.99" gradientTransform="translate(-862.4 -1421.27) rotate(-99.71)" xlink:href="#w"/><linearGradient id="z" x1="189.7" y1="1002.82" x2="188.53" y2="987.21" gradientTransform="translate(0 -961.8)" xlink:href="#w"/><radialGradient id="aa" cx="-292.65" cy="3623.11" r="10.52" gradientTransform="matrix(0.41, -0.91, 0.42, 0.19, -1083.89, -947.63)" gradientUnits="userSpaceOnUse"><stop offset="0" stop-color="#ecf2ef"/><stop offset="0.27" stop-color="#eaf0ee"/><stop offset="0.41" stop-color="#e2ebec"/><stop offset="0.52" stop-color="#d5e2e8"/><stop offset="0.61" stop-color="#c2d5e3"/><stop offset="0.69" stop-color="#aac5dc"/><stop offset="0.77" stop-color="#8bb0d4"/><stop offset="0.84" stop-color="#6898ca"/><stop offset="0.9" stop-color="#3f7dbf"/><stop offset="0.94" stop-color="#2168b6"/></radialGradient><radialGradient id="ab" cx="-339.58" cy="3638.93" r="10.52" gradientTransform="matrix(0.41, -0.91, 0.42, 0.19, -1119.57, -984.29)" xlink:href="#aa"/><radialGradient id="ac" cx="-494.64" cy="3650.7" r="10.52" gradientTransform="matrix(0.41, -0.91, 0.42, 0.19, -1214.83, -1137.76)" xlink:href="#aa"/></defs><path d="M287.2,9.3v1.3l-1.2-.5a4.39,4.39,0,0,1-2.7.9,8.51,8.51,0,0,1-3.1-.9A6.47,6.47,0,0,1,283.1,9a6.08,6.08,0,0,1,2.7.8Z" fill="url(#a)"/><polygon points="282.5 9.1 282.5 10.9 282.4 10.9 282.4 9.1 282.5 9.1" fill="#27182a"/><circle cx="281.9" cy="9.7" r="0.1" fill="#27182a"/><path d="M176,43.2a10.64,10.64,0,0,1-.9,2.5c-.5.5-3.3,1.5-3.7,3.3s.6,2.9.4,3.7-.8,2.5-1.2,3.7-.8,3.2,0,3.3.9-.8.9-1,.3-.4.4-.2-.2,1.5.3,1.7c.2.1.9.2,1.1-.2s.1-1,.6-1c.2,0,.2.3.2.5,0,.5-.2.7-.1,1,0,.5,1.2.6,1.5.1.1-.3.9-3.5,1.1-4.4a11.47,11.47,0,0,1,1.1-3.1,4.86,4.86,0,0,0,1.3-2.8,30.62,30.62,0,0,0-.5-3.2c0-.5.2-2.8.2-3.3s-.1-1.5-.9-1.6S176.2,41.9,176,43.2Z" fill="url(#b)"/><path d="M178.4,43.4c0,.6-.6.7-1.1.7a.94.94,0,0,1-1-1c0-.6.4-.8,1-.8a1.09,1.09,0,0,1,1.1.9Z" fill="url(#c)"/><path d="M163.1,21.6a10.64,10.64,0,0,1-2.5-.9c-.5-.5-1.5-3.3-3.3-3.7s-2.9.6-3.7.4-2.5-.8-3.7-1.2-3.2-.8-3.2,0,.8.9,1,.9.4.3.2.4-1.5-.2-1.7.3c-.1.2-.1.9.2,1.1s1,.1,1,.5c0,.2-.3.2-.4.2-.5,0-.7-.2-1-.1-.5,0-.6,1.2-.1,1.5.3.1,3.5.9,4.4,1.1a11.47,11.47,0,0,1,3.1,1.1,4.86,4.86,0,0,0,2.8,1.3,30.62,30.62,0,0,0,3.2-.5c.5,0,2.8.2,3.3.2s1.5-.1,1.6-.8S164.5,21.8,163.1,21.6Z" fill="url(#d)"/><path d="M163,24c-.6,0-.7-.6-.7-1.1a.94.94,0,0,1,1-1c.6,0,.8.4.8,1a1.09,1.09,0,0,1-.9,1.1C163.1,24.1,163.1,24.1,163,24Z" fill="url(#e)"/><path d="M190.2,10.4a11.42,11.42,0,0,1,.9,2.6c0,.7-1.6,3.2-.8,4.9s2.3,1.9,2.6,2.6,1,2.4,1.4,3.6,1.4,3,2,2.5.2-1.2.1-1.4,0-.5.2-.4.8,1.3,1.3,1.1c.2-.1.8-.5.7-.9s-.6-.9-.2-1.1c.2-.1.4.1.5.2a9,9,0,0,1,.5.9c.2.3,1.4-.3,1.2-.9-.1-.3-1.5-3.3-1.9-4.1a16.29,16.29,0,0,1-1.1-3.1,4.49,4.49,0,0,0-.7-3c-.8-.8-1.6-1.5-2.4-2.2-.3-.4-1.6-2.4-1.9-2.8s-1-1.1-1.7-.8A1.49,1.49,0,0,0,190.2,10.4Z" fill="url(#f)"/><path d="M192.2,9.1c.4.4,0,.9-.4,1.2a1,1,0,0,1-1.4-.2c-.4-.5-.2-.9.3-1.3a1,1,0,0,1,1.4.1h0Z" fill="url(#g)"/><path d="M194.1,86.1c-2.1.3-5.8,3-5.8,3s5.8,5.8,7.1,7.4,5.8,8.6,6,8.9,1.3,1.1,1.7.8.6-.4.2-1.8a20.21,20.21,0,0,0-2.4-4,6.48,6.48,0,0,0,1.9-.2,3.37,3.37,0,0,0,1.7-1.1s2.1,4.3,2.9,4.7,1.5-.6,1.6-1a13.71,13.71,0,0,0-.8-3.5,77.43,77.43,0,0,1-1.8-7.6,74.46,74.46,0,0,0-2.7-9.2C202.1,84.2,196.2,85.8,194.1,86.1Zm9.2,19.2c0,.3-.4.5-1,.1s-2.2-3.4-2.4-3.7a2.7,2.7,0,0,0,.8-.7C201,100.8,203.3,105.1,203.3,105.3Zm4.8-3a.37.37,0,0,1-.3.1.1.1,0,0,1-.1-.1,23.29,23.29,0,0,1-2-3.4,1.91,1.91,0,0,0,1-.5c.5-.3,1.4,4,1.4,3.9Z" fill="url(#h)"/><path d="M189.5,88.3s14.1,8.3,16.2,10.7l1.1,2.1-1,.5-1.3-2.5a3.41,3.41,0,0,1-1.8,1.1c-1.1.2-14.4-11-14.4-11Z" fill="url(#i)"/><path d="M191.6,87.1l1.4-.7c.4-.2,11.3,8.5,11.3,8.5Z" fill="url(#j)"/><path d="M197.2,85.4s2.6-.8,3.5-1.2,3.8,3.8,4.6,6.8a65.85,65.85,0,0,1,1.4,7.5C206.8,98.5,200.7,87.6,197.2,85.4Z" fill="url(#k)"/><path d="M204.6,98s.9,2.4,1.2,3a6.36,6.36,0,0,0,1.4,2.2c.4.4,1.1.2.9-.1s-.4.2-.9-.8c-.2-.5-.5-1-.7-1.4s-.6-1.3-.9-1.8A3.46,3.46,0,0,0,204.6,98Z" fill="url(#l)"/><path d="M200.8,104.2c.2.4.5.7.7,1.1a3.59,3.59,0,0,0,1,.7c.2.1.6,0,.5-.1a1.14,1.14,0,0,1-.8-.3l-.3-.2c-.1-.1-.4-.5-.6-.7S201,104.4,200.8,104.2Z" fill="url(#m)"/><path d="M141.1,85.9c2.1-.6,5.4-3.6,5.4-3.6s-6.3-5.2-7.8-6.6-6.6-8-6.9-8.2-1.4-.9-1.8-.6-.6.5,0,1.8a20,20,0,0,0,2.8,3.7,11.63,11.63,0,0,0-1.8.4,4,4,0,0,0-1.6,1.3s-2.5-4.1-3.3-4.4-1.4.8-1.5,1.2a19.57,19.57,0,0,0,1.2,3.4s1.1,2.8,2.6,7.3a67.65,67.65,0,0,0,3.6,8.8C133.4,88.6,139.1,86.4,141.1,85.9Zm-11-18.2c0-.3.3-.5,1-.2s2.6,3.1,2.8,3.4a2.7,2.7,0,0,0-.7.8C132.8,72,130.1,68,130.1,67.7Zm-4.5,3.4s.1-.3.3,0a18.6,18.6,0,0,1,2.3,3.2,2.07,2.07,0,0,0-1,.6C126.9,75.3,125.6,71.1,125.6,71.1Z" fill="url(#n)"/><path d="M145.5,83.2s-14.9-6.8-17.2-8.9l-1.3-2,1-.6,1.6,2.4a4,4,0,0,1,1.6-1.3c1-.3,15.5,9.5,15.5,9.5Z" fill="url(#o)"/><path d="M143.5,84.7a6.38,6.38,0,0,1-1.4.8c-.4.2-12.2-7.3-12.2-7.3Z" fill="url(#p)"/><path d="M138.1,86.9s-2.5,1.1-3.3,1.5-4.2-3.4-5.3-6.2a72.18,72.18,0,0,1-2.2-7.3S134.4,85.1,138.1,86.9Z" fill="url(#q)"/><path d="M129.5,75.2a28.26,28.26,0,0,0-1.5-2.8,6.52,6.52,0,0,0-1.6-2.1c-.4-.3-1.1,0-.9.2s.4-.3,1,.7c.3.5.6.9.8,1.3a12,12,0,0,0,1.1,1.7A3.46,3.46,0,0,0,129.5,75.2Z" fill="url(#r)"/><path d="M67.5,35.2l.5,8.4a16.48,16.48,0,0,0,3.2.4,8,8,0,0,0,3-.6L74,34.5Z" fill="#f0f4f1"/><path d="M70.6,33.6c1.8-.2,3.3.2,3.4.8s-1.3,1.4-3.1,1.6-3.3-.2-3.4-.8S68.8,33.9,70.6,33.6Z" fill="url(#s)"/><path d="M69.5,32.4c1.4-1.1,2.9-1.6,3.3-1s-.4,1.9-1.9,3-2.9,1.6-3.3,1S68,33.5,69.5,32.4Z" fill="url(#t)"/><path d="M67.7,38.4a7,7,0,0,0,6.4-.8l.1,3.2a10.89,10.89,0,0,1-3.1.8,7,7,0,0,1-3.2-.5Z" fill="url(#u)"/><path d="M228.2,68c-.6-.2-.1-1.5,1.8-3.5a23,23,0,0,1,4.1-3.5,2.54,2.54,0,0,1,.2-1.9c.5-.8.9-1.4,1.1-1.3s-.6,1.8-.6,2.1.8-.1,1.2-.5a2.18,2.18,0,0,1,.9-.7c.2-.1-.2.8-.7,1.3s-.6.7-.5.8a6.75,6.75,0,0,0,1.4-.2l.9-.3a2,2,0,0,1-1.2,1.3,3,3,0,0,1-1.6.2,24.24,24.24,0,0,0-3.1,2.5C230.4,65.9,228.7,68.2,228.2,68Z" fill="#f0f4f1"/><path d="M231.2,64.3a6.38,6.38,0,0,0-1.4.8,3.27,3.27,0,0,0-1.1,1.5,2,2,0,0,0-.4.8c-.1.3.1.4.2.3a10.63,10.63,0,0,1,.9-1.1,3.17,3.17,0,0,1,.5-.6,9.68,9.68,0,0,0,.7-.9C230.8,64.8,231,64.6,231.2,64.3Z" fill="url(#v)"/><ellipse cx="212.8" cy="58.5" rx="3" ry="3.5" fill="url(#w)"/><path d="M116,36.6a3.3,3.3,0,0,1,3.9,2.4,3.34,3.34,0,0,1-2.9,3.6,3.22,3.22,0,0,1-3.9-2.4A3.3,3.3,0,0,1,116,36.6Z" fill="url(#x)"/><path d="M38.5,9.9a3.3,3.3,0,0,1,3.9,2.4,3.34,3.34,0,0,1-2.9,3.6,3.3,3.3,0,0,1-3.9-2.4A3.28,3.28,0,0,1,38.5,9.9Z" fill="url(#y)"/><path d="M188.6,29.6l-3.4,6.7s6,.6,8.3,0Z" fill="url(#z)"/><ellipse cx="308.98" cy="14.24" rx="6" ry="5.5" transform="translate(251.04 318.08) rotate(-81.84)" fill="#f0f4f1"/><path d="M304.9,13.6a4.21,4.21,0,1,1,8.3,1.2,4.21,4.21,0,1,1-8.3-1.2Z" fill="url(#aa)"/><ellipse cx="260.27" cy="23.24" rx="6" ry="5.5" transform="translate(200.34 277.58) rotate(-81.84)" fill="#f0f4f1"/><path d="M256.2,22.6a4.21,4.21,0,1,1,8.3,1.2,4.21,4.21,0,1,1-8.3-1.2Z" fill="url(#ab)"/><ellipse cx="105.18" cy="12.81" rx="5.9" ry="5.5" transform="translate(77.57 115.11) rotate(-81.84)" fill="#f0f4f1"/><path d="M101.1,12.3a4.21,4.21,0,1,1,8.3,1.2,4.21,4.21,0,1,1-8.3-1.2Z" fill="url(#ac)"/></svg>