<svg xmlns="http://www.w3.org/2000/svg" xmlns:xlink="http://www.w3.org/1999/xlink" width="249.1" height="350.6" viewBox="0 0 249.1 350.6"><defs><linearGradient id="a" x1="71.65" y1="457.76" x2="71.65" y2="455.99" gradientTransform="translate(0 -296)" gradientUnits="userSpaceOnUse"><stop offset="0" stop-color="#27182a"/><stop offset="0.37" stop-color="#1e3131"/><stop offset="1" stop-color="#0b6640"/></linearGradient><linearGradient id="b" x1="240.75" y1="646.58" x2="240.75" y2="636.88" xlink:href="#a"/><linearGradient id="c" x1="2857.45" y1="321.49" x2="2857.45" y2="314.3" gradientTransform="translate(-2710.3 -296)" xlink:href="#a"/><linearGradient id="d" x1="400.9" y1="439.79" x2="400.9" y2="437.73" gradientTransform="matrix(-1, 0, 0, 1, 551.7, -296)" xlink:href="#a"/></defs><path d="M68.6,160.3v1.1l1.1-.5a4,4,0,0,0,2.3.8,9.24,9.24,0,0,0,2.7-.8,5.51,5.51,0,0,0-2.5-1,7.28,7.28,0,0,0-2.4.7Z" fill="url(#a)"/><polygon points="72.6 160.1 72.6 161.7 72.7 161.6 72.7 160.1 72.6 160.1" fill="#27182a"/><circle cx="73.1" cy="160.6" r="0.1" fill="#27182a"/><path d="M232.3,341.1v8.2l4.8-3s1.6,4.6,6.1,4.3a7.32,7.32,0,0,0,6-4.3s-1.6-5.4-5.5-5.4-6.3,3.6-6.3,3.6Z" fill="url(#b)"/><polygon points="244.6 341 244.6 350.3 244.8 350.2 244.9 341.1 244.6 341" fill="#27182a"/><circle cx="246.4" cy="344.5" r="0.5" fill="#27182a"/><path d="M149.9,21.2s1.9-2.3,0-2.9-8.4,3.9-8.4,3.9,5.6,3.6,6.9,3.2a1.92,1.92,0,0,0,1.3-2.6l3.1,1V20.4Z" fill="url(#c)"/><polygon points="145.6 19.8 145.6 24.6 145.3 24.4 145.3 19.9 145.6 19.8" fill="#27182a"/><circle cx="144.3" cy="21.4" r="0.2" fill="#27182a"/><path d="M155.1,142.2v1.1l-1.1-.5a5.07,5.07,0,0,1-1.5.7,12.25,12.25,0,0,1-1.9.2,14.33,14.33,0,0,1-4.1-.9,5.51,5.51,0,0,1,2.5-1,7.57,7.57,0,0,1,1.5-.1,11,11,0,0,1,1.8.2,4,4,0,0,1,1.5.6Z" fill="url(#d)"/><polygon points="148.5 141.9 148.5 143.5 148.4 143.5 148.4 141.9 148.5 141.9" fill="#27182a"/><circle cx="148" cy="142.5" r="0.1" fill="#27182a"/></svg>