<svg xmlns="http://www.w3.org/2000/svg" xmlns:xlink="http://www.w3.org/1999/xlink" width="249.1" height="350.6" viewBox="0 0 249.1 350.6"><defs><linearGradient id="a" x1="35.38" y1="-10.47" x2="35.38" y2="-7.47" gradientTransform="matrix(0.97, -0.23, -0.23, -0.97, 51.7, 101.99)" gradientUnits="userSpaceOnUse"><stop offset="0.21" stop-color="#f0f4f1"/><stop offset="0.24" stop-color="#e6efed"/><stop offset="0.4" stop-color="#bed8d9"/><stop offset="0.56" stop-color="#9ec7ca"/><stop offset="0.71" stop-color="#87bac0"/><stop offset="0.85" stop-color="#7ab3b9"/><stop offset="0.97" stop-color="#75b0b7"/></linearGradient><linearGradient id="b" x1="25.92" y1="-6.64" x2="37.52" y2="0.63" gradientTransform="matrix(0.97, -0.23, -0.23, -0.97, 51.7, 101.99)" gradientUnits="userSpaceOnUse"><stop offset="0.21" stop-color="#0b6640"/><stop offset="0.97" stop-color="#27182a"/></linearGradient><linearGradient id="c" x1="44.74" y1="-11.25" x2="39.58" y2="4.26" gradientTransform="matrix(0.97, -0.23, -0.23, -0.97, 51.7, 101.99)" gradientUnits="userSpaceOnUse"><stop offset="0" stop-color="#0b6640"/><stop offset="0.2" stop-color="#0d603e"/><stop offset="0.46" stop-color="#134f39"/><stop offset="0.76" stop-color="#1d3332"/><stop offset="1" stop-color="#27182a"/></linearGradient><linearGradient id="d" x1="59.6" y1="134.84" x2="74.32" y2="131.93" gradientTransform="matrix(1, 0, 0, -1, 0, 204)" gradientUnits="userSpaceOnUse"><stop offset="0.21" stop-color="#75b0b7"/><stop offset="0.67" stop-color="#475664"/><stop offset="0.97" stop-color="#27182a"/></linearGradient><linearGradient id="e" x1="71.63" y1="144.89" x2="84.47" y2="139.14" xlink:href="#d"/></defs><polygon points="91.8 88.4 92.9 89.4 93.7 89.8 95.3 89.1 96.2 82.6 92.9 81.7 91.8 88.4" fill="#27182a"/><polygon points="85.2 101.4 85.3 102.8 87.1 102.5 88 101.8 88.9 101.9 90.5 100.8 89.6 99.8 85.2 101.4" fill="url(#a)"/><polygon points="80 85.8 86.4 99.4 93.4 85.1 80 85.8" fill="#0b6640"/><path d="M70.2,76.4l4.1-6.3s7.5,3.5,8,5c1.1,2.3,2.3,4.6,3.6,6.8a33.22,33.22,0,0,0,.2-6c-.3-1.5-6.6-7.2-6.6-7.2L84.8,64s6.6,7.7,7,10,1.6,11,1.6,11L80,85.8s-2.4-4.4-3.1-5.3S70.2,76.4,70.2,76.4Z" fill="#0b6640"/><polyline points="88.6 100.4 88.4 102.9 87 101.5" fill="#f0f4f1"/><polygon points="86.9 101.6 88.5 103.2 88.7 100.4 88.4 100.4 88.3 102.6 87.1 101.4 86.9 101.6" fill="#27182a"/><circle cx="86.8" cy="98.2" r="3.6" fill="#f0f4f1"/><circle cx="90.6" cy="97.6" r="1.2" fill="#f0f4f1"/><polygon points="90.5 98 91.1 97.3 90.2 97.1 90.2 97.3 90.6 97.4 90.3 97.8 90.5 98" fill="#27182a"/><circle cx="83.3" cy="99.4" r="1.2" fill="#f0f4f1"/><polygon points="83.2 98.9 82.8 99.8 83.7 99.7 83.7 99.5 83.3 99.5 83.5 99.1 83.2 98.9" fill="#27182a"/><polygon points="85.1 102.5 87.4 102.4 87.2 102.6 85.2 102.9 85.1 102.5" fill="#75b0b7"/><polygon points="88.8 101.9 90.5 100.6 90.7 100.9 88.9 102 88.8 101.9" fill="#75b0b7"/><circle cx="87.1" cy="99.1" r="1" fill="#27182a"/><path d="M82.5,91.1s-5.7,4.6-6,6.4S78,107.6,78,107.6l3.7-.9s-2-7.3-2-8.2,4.9-3,4.9-3Z" fill="url(#b)"/><path d="M93.4,102.9s-1,2-1.4,2.9,0,.8.1.8a2.09,2.09,0,0,0,.4-.6l.3-.6-.5,2.6c-.1.3-.1.6.2.7s.3-.2.4-.5.5-1.6.5-1.6-.3,2-.4,2.3,0,.6.2.6a.46.46,0,0,0,.4-.5c0-.3.4-2.2.4-2.2s.1,1.9.1,2.2,0,.8.3.8.4-.4.4-.7.4-2.5.4-2.5v1.9c0,.3,0,.5.3.5s.2-.4.3-.7,1.1-4.4,1.1-4.4Z" fill="#f0f4f1"/><path d="M81.7,106.7l1.2,3.2c.3.9-.1.8-.2.8a1.61,1.61,0,0,1-.4-.7,4.88,4.88,0,0,1-.3-.7s.3,2.3.3,2.6,0,.6-.2.7-.3-.3-.4-.5-.4-1.7-.4-1.7l.2,2.3c0,.3,0,.6-.3.6s-.4-.2-.4-.5-.2-2.2-.2-2.2-.3,1.9-.3,2.1-.1.8-.4.8-.3-.4-.3-.7-.2-2.5-.2-2.5-.1,1.5-.2,1.9-.1.5-.4.5-.2-.5-.2-.7-.7-4.5-.7-4.5Z" fill="#f0f4f1"/><path d="M86.9,98.6s3-2.7,3.7-3.4,2.2-5.8,2.2-5.8l.8.4s-1.5,4.8-2.5,5.8-4.2,3.6-4.2,3.6Z" fill="#27182a"/><path d="M91.1,89.8l-1.9,3.8a9.62,9.62,0,0,1,3.2,1.6c1,.9,1,7.7,1,7.7l3.7,1s.5-7.9,0-9.4S91.1,89.8,91.1,89.8Z" fill="url(#c)"/><path d="M70.2,76.4A12.8,12.8,0,0,0,66.3,74c-1.7-.4-7-2.3-7-2.3l3.7-.4-1.4-2.9,3.5.6-1.5-4.2s4.5,3.2,6,4a25.16,25.16,0,0,0,4.7,1.3Z" fill="url(#d)"/><path d="M79.5,68.9a18.78,18.78,0,0,0-2.4-2.5c-1.2-1-6.5-5-6.5-5l4.1.8-1-4.1L78,60.2l-.2-4.6c1.2,2.1,2.5,4.2,3.9,6.2a18.31,18.31,0,0,0,3.1,2.4Z" fill="url(#e)"/><polygon points="79.8 85.3 80.2 86.1 93.3 85.4 93.4 85.1 93.3 84.6 79.8 85.3" fill="#27182a"/></svg>