<svg xmlns="http://www.w3.org/2000/svg" xmlns:xlink="http://www.w3.org/1999/xlink" width="249.1" height="350.6" viewBox="0 0 249.1 350.6"><defs><linearGradient id="a" x1="72.65" y1="424.55" x2="72.65" y2="417.89" gradientTransform="translate(0 -296)" gradientUnits="userSpaceOnUse"><stop offset="0" stop-color="#27182a"/><stop offset="0.37" stop-color="#1e3131"/><stop offset="1" stop-color="#0b6640"/></linearGradient><linearGradient id="b" x1="135.7" y1="302.66" x2="135.7" y2="296" xlink:href="#a"/><linearGradient id="c" x1="548.7" y1="399.74" x2="548.7" y2="397.97" gradientTransform="matrix(-1, 0, 0, 1, 551.7, -296)" xlink:href="#a"/><linearGradient id="d" x1="397.95" y1="508.78" x2="397.95" y2="507.02" gradientTransform="matrix(-1, 0, 0, 1, 551.7, -296)" xlink:href="#a"/><linearGradient id="e" x1="28.8" y1="330.77" x2="28.8" y2="321.07" xlink:href="#a"/><linearGradient id="f" x1="2910.35" y1="459.46" x2="2910.35" y2="452.27" gradientTransform="translate(-2710.3 -296)" xlink:href="#a"/></defs><path d="M62.3,121.9v6.6l5-2.8a14.13,14.13,0,0,0,8.4,2.8,12,12,0,0,0,7.3-2.8s-2.7-3.6-6.8-3.6-8.6,2.4-8.6,2.4Z" fill="url(#a)"/><polygon points="78.2 122.4 78.2 128.2 78.4 128.1 78.6 122.6 78.2 122.4" fill="#27182a"/><ellipse cx="79.9" cy="124.5" rx="0.4" ry="0.3" fill="#27182a"/><path d="M125.4,0V6.7l5-2.8a14.13,14.13,0,0,0,8.4,2.8A11.73,11.73,0,0,0,146,3.9S143.4.3,139.2.3a21.09,21.09,0,0,0-8.6,2.4Z" fill="url(#b)"/><polygon points="141.2 0.6 141.2 6.3 141.5 6.2 141.7 0.7 141.2 0.6" fill="#27182a"/><ellipse cx="143" cy="2.6" rx="0.4" ry="0.3" fill="#27182a"/><path d="M6,102.3v1.2L5,103a4,4,0,0,1-2.3.8A6.49,6.49,0,0,1,0,103a5.51,5.51,0,0,1,2.5-1,7.28,7.28,0,0,1,2.4.7Z" fill="url(#c)"/><polygon points="2 102 2 103.6 1.9 103.6 1.8 102.1 2 102" fill="#27182a"/><circle cx="1.5" cy="102.6" r="0.1" fill="#27182a"/><path d="M158,211.3v1.1l-1.1-.5a5.07,5.07,0,0,1-1.5.7l-3.3.1a7.86,7.86,0,0,1-2.6-.8,5.51,5.51,0,0,1,2.5-1c.3,0,3.1,0,3.4.1a4,4,0,0,1,1.5.6Z" fill="url(#d)"/><polygon points="151.4 211.1 151.4 212.7 151.3 212.7 151.3 211.1 151.4 211.1" fill="#27182a"/><circle cx="150.9" cy="211.7" r="0.1" fill="#27182a"/><path d="M20.4,25.3v8.2l4.7-3s1.6,4.6,6.1,4.3a7.32,7.32,0,0,0,6-4.3s-1.6-5.4-5.5-5.4-6.3,3.6-6.3,3.6Z" fill="url(#e)"/><polygon points="32.7 25.2 32.7 34.5 32.9 34.4 33 25.3 32.7 25.2" fill="#27182a"/><circle cx="34.5" cy="28.6" r="0.5" fill="#27182a"/><path d="M202.8,159.2s1.9-2.3,0-2.9-8.4,3.9-8.4,3.9,5.6,3.6,6.9,3.2a1.92,1.92,0,0,0,1.3-2.6l3.1,1v-3.4Z" fill="url(#f)"/><polygon points="198.5 157.7 198.5 162.6 198.2 162.4 198.2 157.9 198.5 157.7" fill="#27182a"/><circle cx="197.2" cy="159.4" r="0.2" fill="#27182a"/></svg>