<svg xmlns="http://www.w3.org/2000/svg" xmlns:xlink="http://www.w3.org/1999/xlink" width="45.1" height="44.3" viewBox="0 0 45.1 44.3"><defs><linearGradient id="a" x1="8.49" y1="-430.85" x2="23.58" y2="-430.85" gradientTransform="matrix(1, 0, 0, -1, 0, -408)" gradientUnits="userSpaceOnUse"><stop offset="0.28" stop-color="#0b6640"/><stop offset="0.75" stop-color="#1d3432"/><stop offset="1" stop-color="#27182a"/></linearGradient><linearGradient id="b" x1="26.75" y1="-427.88" x2="18.54" y2="-452.67" gradientTransform="matrix(1, 0, 0, -1, 0, -408)" gradientUnits="userSpaceOnUse"><stop offset="0" stop-color="#fff"/><stop offset="0.02" stop-color="#f2f2f2"/><stop offset="0.14" stop-color="#bababa"/><stop offset="0.25" stop-color="#888"/><stop offset="0.37" stop-color="#5e5e5e"/><stop offset="0.49" stop-color="#3c3c3c"/><stop offset="0.61" stop-color="#222"/><stop offset="0.74" stop-color="#0f0f0f"/><stop offset="0.86" stop-color="#040404"/><stop offset="1"/></linearGradient></defs><polygon points="24.1 13 31 15.1 25.9 20 24.1 16.7 24.1 13" fill="#27182a"/><path d="M23.6,16,13.2,24.6l-.4-3.2-4.2.9s-.7,4.8,1.8,6.2a17.4,17.4,0,0,0,2.2,1.2L23.6,16" fill="url(#a)"/><path d="M15.9,24.7,9.2,31.9v8.8s6.2-5.6,7.5-6.9,5.7-8.3,5.7-8.3a32.19,32.19,0,0,0,.6,9.8c1.3,5.4,2.3,5.7,3.2,5.9s7.4-1,7.4-1l1.7-7.7-5.9,3.1L26.9,24.2l-7.2-.1-3.8.6" fill="url(#b)"/><polygon points="9.2 31.9 9.2 40.7 5.7 44.3 0.3 33.8 5.7 36.2 9.2 31.9" fill="#fff"/><polygon points="33.6 40.2 39.4 38.1 44.9 41.3 40.4 29.9 35.3 32.5 33.6 40.2" fill="#fff"/><ellipse cx="2.91" cy="39.1" rx="1.1" ry="5.9" transform="translate(-17.72 5.76) rotate(-27.49)" fill="#27182a"/><ellipse cx="42.61" cy="35.61" rx="0.9" ry="6.1" transform="translate(-10.19 18.42) rotate(-21.86)" fill="#27182a"/><path d="M23.6,16l-7.7,8.8s2.5,1.8,8,2a35.86,35.86,0,0,0,10.3-1.2L25.7,18Z" fill="#0b6640"/><polyline points="22.3 13.5 22.9 11.8 23.6 13" fill="#f0f4f1"/><polygon points="23.7 13 22.8 11.5 22.2 13.4 22.4 13.5 22.9 12 23.5 13.1 23.7 13" fill="#27182a"/><circle cx="23.2" cy="15.4" r="2.6" fill="#f0f4f1"/><circle cx="20.5" cy="15.1" r="0.9" fill="#f0f4f1"/><polygon points="20.6 14.9 20 15.2 20.6 15.5 20.7 15.4 20.4 15.2 20.7 15.1 20.6 14.9" fill="#27182a"/><circle cx="26.1" cy="15.1" r="0.9" fill="#f0f4f1"/><polygon points="26.1 15.4 26.6 14.9 26 14.8 25.9 15 26.2 15 26 15.3 26.1 15.4" fill="#27182a"/><path d="M23.2,15.8a1.35,1.35,0,0,0,1.4-1.3H21.9a1.21,1.21,0,0,0,1.3,1.3Z" fill="#27182a"/><path d="M12.8,21.4s.2-1.6.4-2.6-.3-.9-.4-.8a1.4,1.4,0,0,0-.3.9,1.88,1.88,0,0,1-.2.8S12,17,12,16.6s-.1-.7-.4-.7-.3.4-.3.7-.1,2-.1,2-.3-2.4-.4-2.7-.2-.7-.5-.6-.4.3-.3.7.3,2.6.3,2.6-.7-2.3-.7-2.6-.3-.9-.6-.8-.3.6-.3.8.4,2.9.4,2.9-.5-1.7-.7-2.1-.1-.5-.4-.4-.1.6-.1.9l.7,5Z" fill="#f0f4f1"/></svg>