<svg xmlns="http://www.w3.org/2000/svg" xmlns:xlink="http://www.w3.org/1999/xlink" width="45.1" height="44.3" viewBox="0 0 45.1 44.3"><defs><linearGradient id="a" x1="37.21" y1="915.26" x2="53.17" y2="906.76" gradientTransform="translate(13.62 -897.47) rotate(1.69)" gradientUnits="userSpaceOnUse"><stop offset="0" stop-color="#27182a"/><stop offset="0.12" stop-color="#212a2f"/><stop offset="0.33" stop-color="#174436"/><stop offset="0.54" stop-color="#10573c"/><stop offset="0.76" stop-color="#0c623f"/><stop offset="1" stop-color="#0b6640"/></linearGradient></defs><path d="M30.46,13.85c1.3-1.9,2.5-6.5,2.5-6.5l4.6,1.5s-1.9,7.1-4,9.3-4.5,4.4-4.5,4.4l-4-3.8A23.25,23.25,0,0,0,30.46,13.85Z" fill="url(#a)"/><path d="M33.06,7.25s.1-1.9.1-3,.4-.8.5-.8a1.41,1.41,0,0,1,.1.9,2,2,0,0,0,.1.8l.7-3c.1-.3.3-.7.5-.6s.2.4.2.7-.2,2-.2,2,.7-2.3.8-2.6.3-.6.6-.6.3.4.2.7-.7,2.5-.7,2.5,1.1-1.9,1.2-2.2.4-.9.8-.7.2.6.1.9-.8,2.8-.8,2.8a18.14,18.14,0,0,1,1-2c.3-.4.3-.5.6-.4s0,.6,0,.8-1.6,5-1.6,5Z" fill="#f0f4f1"/></svg>