<svg xmlns="http://www.w3.org/2000/svg" xmlns:xlink="http://www.w3.org/1999/xlink" width="296.6" height="397.6" viewBox="0 0 296.6 397.6"><defs><linearGradient id="a" x1="73.31" y1="402.94" x2="65.14" y2="410.56" gradientTransform="translate(7.71 -215.32) rotate(-13.34)" gradientUnits="userSpaceOnUse"><stop offset="0.17" stop-color="#75b0b7"/><stop offset="0.22" stop-color="#84b8be"/><stop offset="0.38" stop-color="#aaced0"/><stop offset="0.54" stop-color="#c9dedf"/><stop offset="0.7" stop-color="#dfeae9"/><stop offset="0.85" stop-color="#ecf2ef"/><stop offset="0.98" stop-color="#f0f4f1"/></linearGradient><linearGradient id="b" x1="-226.67" y1="400.57" x2="-234.82" y2="408.19" gradientTransform="matrix(-0.97, 0.23, 0.23, 0.97, -147.62, -178.68)" xlink:href="#a"/><linearGradient id="c" x1="68.3" y1="401.21" x2="62.93" y2="406.22" xlink:href="#a"/><linearGradient id="d" x1="-230.22" y1="399.6" x2="-235.59" y2="404.62" gradientTransform="matrix(-0.97, 0.23, 0.23, 0.97, -147.75, -178.65)" xlink:href="#a"/><linearGradient id="e" x1="63.04" y1="404.62" x2="70.18" y2="411.28" xlink:href="#a"/><linearGradient id="f" x1="-225.97" y1="400.88" x2="-220.47" y2="406.01" gradientTransform="matrix(-0.97, 0.23, 0.23, 0.97, -138.47, -180.83)" xlink:href="#a"/><linearGradient id="g" x1="73.64" y1="395.72" x2="66.94" y2="401.96" xlink:href="#a"/><linearGradient id="h" x1="33.16" y1="523.96" x2="29" y2="527.84" gradientTransform="translate(-14.96 -218.58) rotate(-10.41)" xlink:href="#a"/><linearGradient id="i" x1="-189.67" y1="523.66" x2="-193.84" y2="527.54" gradientTransform="matrix(-0.98, 0.18, 0.18, 0.98, -171.89, -192.3)" xlink:href="#a"/><linearGradient id="j" x1="30.69" y1="523.16" x2="27.95" y2="525.71" gradientTransform="translate(-14.96 -218.58) rotate(-10.41)" xlink:href="#a"/><linearGradient id="k" x1="-191.65" y1="523.05" x2="-194.39" y2="525.6" gradientTransform="matrix(-0.98, 0.18, 0.18, 0.98, -172.02, -192.27)" xlink:href="#a"/><linearGradient id="l" x1="28.72" y1="524.53" x2="32.35" y2="527.93" gradientTransform="translate(-14.96 -218.58) rotate(-10.41)" xlink:href="#a"/><linearGradient id="m" x1="-185.25" y1="523.12" x2="-182.45" y2="525.74" gradientTransform="matrix(-0.98, 0.18, 0.18, 0.98, -162.65, -193.98)" xlink:href="#a"/><linearGradient id="n" x1="33.32" y1="520.27" x2="29.91" y2="523.45" gradientTransform="translate(-14.96 -218.58) rotate(-10.41)" xlink:href="#a"/><linearGradient id="o" x1="-301.29" y1="406.68" x2="-306.94" y2="411.94" gradientTransform="matrix(-1, 0, 0, 1, -155.29, -200)" gradientUnits="userSpaceOnUse"><stop offset="0.17" stop-color="#0b6640"/><stop offset="0.2" stop-color="#1c704d"/><stop offset="0.32" stop-color="#539378"/><stop offset="0.44" stop-color="#83b19d"/><stop offset="0.55" stop-color="#aac9bb"/><stop offset="0.67" stop-color="#c9dcd3"/><stop offset="0.78" stop-color="#dfe9e3"/><stop offset="0.88" stop-color="#ecf1ee"/><stop offset="0.98" stop-color="#f0f4f1"/></linearGradient><linearGradient id="p" x1="144.33" y1="405.48" x2="138.68" y2="410.75" gradientTransform="translate(5.86 -200)" gradientUnits="userSpaceOnUse"><stop offset="0.08" stop-color="#0b6640"/><stop offset="0.17" stop-color="#0b6640"/><stop offset="0.2" stop-color="#1c704d"/><stop offset="0.32" stop-color="#539378"/><stop offset="0.44" stop-color="#83b19d"/><stop offset="0.55" stop-color="#aac9bb"/><stop offset="0.67" stop-color="#c9dcd3"/><stop offset="0.78" stop-color="#dfe9e3"/><stop offset="0.88" stop-color="#ecf1ee"/><stop offset="0.98" stop-color="#f0f4f1"/></linearGradient><linearGradient id="q" x1="-304.78" y1="405.45" x2="-308.49" y2="408.91" gradientTransform="matrix(-1, 0, 0, 1, -155.29, -200)" xlink:href="#a"/><linearGradient id="r" x1="141.85" y1="404.81" x2="138.13" y2="408.28" gradientTransform="translate(5.99 -200)" xlink:href="#a"/><linearGradient id="s" x1="-307.91" y1="408" x2="-302.97" y2="412.6" gradientTransform="matrix(-1, 0, 0, 1, -155.29, -200)" xlink:href="#a"/><linearGradient id="t" x1="147.86" y1="406.24" x2="151.67" y2="409.79" gradientTransform="translate(-3.53 -200)" xlink:href="#a"/><linearGradient id="u" x1="-301" y1="401.75" x2="-305.62" y2="406.06" xlink:href="#o"/><linearGradient id="v" x1="-336.28" y1="418.41" x2="-345.5" y2="427.01" xlink:href="#o"/><linearGradient id="w" x1="182.06" y1="416.41" x2="172.83" y2="425.01" xlink:href="#p"/><linearGradient id="x" x1="-341.99" y1="416.38" x2="-348.05" y2="422.05" gradientTransform="matrix(-1, 0, 0, 1, -155.29, -200)" xlink:href="#a"/><linearGradient id="y" x1="178.02" y1="415.28" x2="171.96" y2="420.94" gradientTransform="translate(5.99 -200)" xlink:href="#a"/><linearGradient id="z" x1="-347.14" y1="420.51" x2="-339.09" y2="428.03" gradientTransform="matrix(-1, 0, 0, 1, -155.29, -200)" xlink:href="#a"/><linearGradient id="aa" x1="181.86" y1="417.61" x2="188.07" y2="423.41" gradientTransform="translate(-3.53 -200)" xlink:href="#a"/><linearGradient id="ab" x1="-335.84" y1="410.32" x2="-343.39" y2="417.37" xlink:href="#o"/><linearGradient id="ac" x1="-257.9" y1="293.39" x2="-267.12" y2="301.99" xlink:href="#o"/><linearGradient id="ad" x1="103.81" y1="291.4" x2="94.59" y2="300.01" xlink:href="#p"/><linearGradient id="ae" x1="-263.69" y1="291.29" x2="-269.75" y2="296.95" gradientTransform="matrix(-1, 0, 0, 1, -155.29, -200)" xlink:href="#a"/><linearGradient id="af" x1="99.71" y1="290.2" x2="93.64" y2="295.86" gradientTransform="translate(5.99 -200)" xlink:href="#a"/><linearGradient id="ag" x1="-268.82" y1="295.42" x2="-260.76" y2="302.94" gradientTransform="matrix(-1, 0, 0, 1, -155.29, -200)" xlink:href="#a"/><linearGradient id="ah" x1="103.56" y1="292.51" x2="109.76" y2="298.31" gradientTransform="translate(-3.53 -200)" xlink:href="#a"/><linearGradient id="ai" x1="-257.55" y1="285.23" x2="-265.1" y2="292.27" xlink:href="#o"/></defs><g opacity="0.6"><path d="M165.9,157.2a3.89,3.89,0,0,1,.2,2.8c-.4,1.6-1.3,3.9-.4,5.9a21,21,0,0,0,3.2,4.6s.5.8,1,.4,0-1.1-.3-1.4a11.7,11.7,0,0,1-2.8-4.8c-.4-1.7.4-3.3.6-4.3s.4-4,.4-4Z" fill="url(#a)"/><path d="M169.1,154.6a4.09,4.09,0,0,0,1.1,2.6c1.1,1.3,2.9,2.9,3,5.1a21,21,0,0,1-.8,5.6s-.1.9-.7.8-.5-1-.3-1.4a11.46,11.46,0,0,0,.4-5.5c-.4-1.6-1.8-2.7-2.4-3.6s-2.1-3.4-2.1-3.4Z" opacity="0.5" fill="url(#b)" style="isolation:isolate"/><path d="M163.5,164.7a2,2,0,0,1-1.3-.1,1.55,1.55,0,0,1-.8-1.1,1.62,1.62,0,0,1,1.1-2h.1c.1,0,.2,0,.2.1h0c0,.1,0,.2-.1.2h0a1.25,1.25,0,0,0-1,1.4v.2a1.46,1.46,0,0,0,.6.9,1.7,1.7,0,0,0,1.4,0c1.4-.5.9-4.9.6-6.6a.2.2,0,0,1,.4,0c.1.6,1.1,6.3-.9,7.1Z" opacity="0.6" fill="url(#c)" style="isolation:isolate"/><path d="M173.2,161.3a.76.76,0,0,0-.4.1c-2.1.2-3.8-5.3-3.9-5.9,0-.1,0-.2.1-.2h0c.1,0,.2,0,.2.1.5,1.6,2,5.8,3.5,5.6a1.43,1.43,0,0,0,1.2-.6,1.23,1.23,0,0,0,.2-1,1.17,1.17,0,0,0-1.4-1h-.1c-.1,0-.2,0-.2-.1h0c0-.1,0-.2.1-.2a1.58,1.58,0,0,1,2,1.1h0v.1a2.2,2.2,0,0,1-.2,1.4A2.27,2.27,0,0,1,173.2,161.3Z" fill="url(#d)"/><path d="M167.4,173.6c-.1,0-.2,0-.2-.1v-.1a6.38,6.38,0,0,1-.2-4.7,5.71,5.71,0,0,1,1.3-2.1,4.47,4.47,0,0,0,1.4-3.6c-.2-3.1-3.9-5.6-4-5.6a.19.19,0,0,1,0-.3h0c.1-.1.2-.1.2,0h0c.2.1,3.9,2.6,4.1,5.9a5.05,5.05,0,0,1-1.5,3.9,5.93,5.93,0,0,0-1.2,2,6.09,6.09,0,0,0,.2,4.4v.1c.1.1,0,.2-.1.2Z" opacity="0.6" fill="url(#e)" style="isolation:isolate"/><path d="M173.5,166.4c-.1,0-.1,0-.2-.1a6.25,6.25,0,0,0-2-1.3,5.06,5.06,0,0,1-3.1-2.8c-1.3-3,1-7,1.1-7.1a.37.37,0,0,1,.3-.1h0a.31.31,0,0,1,.1.2s-2.2,3.9-1,6.8a4.43,4.43,0,0,0,2.9,2.6,5.71,5.71,0,0,1,2.1,1.3.19.19,0,0,1,0,.3C173.6,166.4,173.6,166.4,173.5,166.4Z" fill="url(#f)"/><path d="M166.6,151.3a5.27,5.27,0,0,0-3.7,3.4c-.4,1.4-.3,3.3.6,3.8.3.2.9-.1,2-.5a24.43,24.43,0,0,1,2.4-1,19.42,19.42,0,0,1,2.4-.2c1.3,0,1.5.1,1.8-.1.6-.5.3-2-.2-2.9A5,5,0,0,0,166.6,151.3Z" fill="url(#g)"/></g><g opacity="0.6"><path d="M109.5,287.5a1.7,1.7,0,0,1,0,1.4,5.14,5.14,0,0,0-.4,3,9.74,9.74,0,0,0,1.5,2.4s.2.4.5.2,0-.5-.1-.7a6,6,0,0,1-1.3-2.5,5.7,5.7,0,0,1,.4-2.2c.1-.5.3-2,.3-2Z" fill="url(#h)"/><path d="M111.2,286.3a2.39,2.39,0,0,0,.5,1.4,5.41,5.41,0,0,1,1.4,2.7,8.75,8.75,0,0,1-.6,2.8s-.1.5-.4.4-.2-.5-.1-.7a6.72,6.72,0,0,0,.3-2.8,4.36,4.36,0,0,0-1.2-1.9,20.12,20.12,0,0,1-1-1.8Z" opacity="0.5" fill="url(#i)" style="isolation:isolate"/><path d="M108.1,291.3a.88.88,0,0,1-.7-.1.68.68,0,0,1-.4-.6.8.8,0,0,1,.6-1h.1c.1,0,.1,0,.1.1s0,.1-.1.1a.59.59,0,0,0-.5.7v.1a.55.55,0,0,0,.3.5.85.85,0,0,0,.7,0c.7-.2.6-2.5.5-3.3,0-.1,0-.1.1-.1a.1.1,0,0,1,.1.1h0c0,.3.4,3.2-.6,3.6Z" opacity="0.6" fill="url(#j)" style="isolation:isolate"/><path d="M113.2,289.8H113c-1.1.1-1.8-2.8-1.8-3.1,0-.1,0-.1.1-.1s.1,0,.1.1c.2.8.9,3,1.6,3a1.08,1.08,0,0,0,.7-.3c.1-.2.2-.3.1-.5a.54.54,0,0,0-.7-.5H113c-.1,0-.1,0-.1-.1h0a.1.1,0,0,1,.1-.1h0a.83.83,0,0,1,1,.5h0v.1a1,1,0,0,1-.2.7A.86.86,0,0,1,113.2,289.8Z" fill="url(#k)"/><path d="M109.9,295.9a.1.1,0,0,1-.1-.1h0a3.31,3.31,0,0,1,0-2.4,4.13,4.13,0,0,1,.7-1.1,2.5,2.5,0,0,0,.8-1.8c0-1.6-1.8-2.9-1.9-3s-.1-.1,0-.1.1-.1.1,0h0c.1.1,1.9,1.5,2,3.1a2.66,2.66,0,0,1-.9,2,3.59,3.59,0,0,0-.7,1,2.8,2.8,0,0,0,0,2.2h0v.2Z" opacity="0.6" fill="url(#l)" style="isolation:isolate"/><path d="M113.2,292.4h0a6.73,6.73,0,0,0-1.1-.7,2.48,2.48,0,0,1-1.5-1.5c-.6-1.6.7-3.5.7-3.6s.1-.1.1,0,.1.1,0,.1-1.2,2-.7,3.4a2.73,2.73,0,0,0,1.4,1.4,3.59,3.59,0,0,1,1,.7.31.31,0,0,1,.1.2Z" fill="url(#m)"/><path d="M110,284.5a2.55,2.55,0,0,0-2,1.6c-.3.7-.2,1.7.2,1.9.2.1.5,0,1-.2a5,5,0,0,1,1.3-.4,2.44,2.44,0,0,1,1.2,0c.6,0,.8.1.9,0,.3-.2.2-1,0-1.5A2.71,2.71,0,0,0,110,284.5Z" fill="url(#n)"/></g><g opacity="0.6"><path d="M149.4,204.7a3.08,3.08,0,0,0,.3,1.9c.5,1,1.5,2.4,1.2,3.9a14.19,14.19,0,0,1-1.4,3.6s-.2.6-.6.4-.1-.7,0-1a7.71,7.71,0,0,0,1.2-3.6,5.7,5.7,0,0,0-1.1-2.8c-.3-.7-.9-2.7-.9-2.7Z" opacity="0.7" fill="url(#o)" style="isolation:isolate"/><path d="M146.8,203.5a3.08,3.08,0,0,1-.3,1.9c-.5,1-1.5,2.4-1.2,3.9a14.19,14.19,0,0,0,1.4,3.6s.2.6.6.4.1-.7,0-1a7,7,0,0,1-1.1-3.7,6.1,6.1,0,0,1,1.1-2.8c.3-.7.9-2.7.9-2.7Z" opacity="0.5" fill="url(#p)" style="isolation:isolate"/><path d="M152.2,209.4a1.61,1.61,0,0,0,.9-.3,1.27,1.27,0,0,0,.4-.9,1.11,1.11,0,0,0-1.1-1.1h-.1a.1.1,0,0,0,0,.2h0a.82.82,0,0,1,.9.8h0v.1a.91.91,0,0,1-.3.7,1,1,0,0,1-.9.2c-1-.1-1.4-3.2-1.5-4.4a.1.1,0,0,0-.1-.1h0c-.1,0-.1,0-.1.1h0c0,.4.2,4.4,1.7,4.6Z" opacity="0.5" fill="url(#q)" style="isolation:isolate"/><path d="M145.1,208.6h.3c1.5-.2,1.7-4.2,1.7-4.6a.1.1,0,0,0-.2,0c-.1,1.2-.4,4.2-1.5,4.4a1,1,0,0,1-.9-.2.91.91,0,0,1-.3-.7.82.82,0,0,1,.8-.9h.1a.1.1,0,0,0,.1-.1l-.1-.1h0a1.19,1.19,0,0,0-1.2,1v.1a1.09,1.09,0,0,0,.4.9A1.55,1.55,0,0,0,145.1,208.6Z" opacity="0.8" fill="url(#r)" style="isolation:isolate"/><path d="M150.9,216c.1,0,.1,0,.1-.1h0a4.54,4.54,0,0,0-.6-3.2,3.45,3.45,0,0,0-1.2-1.2,3.56,3.56,0,0,1-1.6-2.2c-.4-2.1,1.8-4.4,1.8-4.4s.1-.1,0-.2h-.2c-.1.1-2.2,2.4-1.8,4.6a3.51,3.51,0,0,0,1.7,2.4,4.07,4.07,0,0,1,1.7,4.2h0l.1.1Z" opacity="0.5" fill="url(#s)" style="isolation:isolate"/><path d="M145.7,212.1a.1.1,0,0,0,.1-.1,4.26,4.26,0,0,1,1.1-1.2,3.12,3.12,0,0,0,1.6-2.4c.4-2.2-1.8-4.5-1.8-4.6s-.1-.1-.2,0h0v.2s2.1,2.3,1.8,4.4a3.23,3.23,0,0,1-1.6,2.2,4.56,4.56,0,0,0-1.2,1.2c0,.1,0,.2.2.3Z" opacity="0.5" fill="url(#t)" style="isolation:isolate"/><path d="M147.9,200.8a3.62,3.62,0,0,1,3,1.7c.5.9.8,2.2.2,2.6-.2.2-.6.1-1.4,0l-1.8-.3a5.08,5.08,0,0,0-1.7.3c-.8.2-1,.3-1.2.2-.5-.2-.5-1.3-.3-2A3.55,3.55,0,0,1,147.9,200.8Z" fill="url(#u)"/></g><g opacity="0.6"><path d="M186.5,215.1a4.68,4.68,0,0,0,.5,3.1c.9,1.7,2.4,3.9,2,6.4a24.92,24.92,0,0,1-2.3,5.9s-.3,1-1,.7-.2-1.2,0-1.6a14.1,14.1,0,0,0,1.9-6c0-1.9-1.3-3.5-1.8-4.6s-1.4-4.3-1.4-4.3Z" opacity="0.7" fill="url(#v)" style="isolation:isolate"/><path d="M182.4,213.1a4.68,4.68,0,0,1-.5,3.1c-.9,1.7-2.4,3.9-2,6.4a23.36,23.36,0,0,0,2.3,5.9s.3,1,1,.7.2-1.2,0-1.6a14.1,14.1,0,0,1-1.9-6c0-1.9,1.3-3.5,1.8-4.5a39.75,39.75,0,0,0,1.4-4.3Z" opacity="0.5" fill="url(#w)" style="isolation:isolate"/><path d="M191.1,222.7a2.39,2.39,0,0,0,1.4-.5,2,2,0,0,0,.6-1.4,1.86,1.86,0,0,0-1.7-1.9h-.2a.2.2,0,0,0,0,.4,1.42,1.42,0,0,1,1.5,1.3h0v.1a1.61,1.61,0,0,1-.5,1.1,2,2,0,0,1-1.5.4c-1.7-.2-2.3-5.2-2.4-7.1a.2.2,0,0,0-.4,0h0c0,.7.4,7.2,2.8,7.5Z" opacity="0.5" fill="url(#x)" style="isolation:isolate"/><path d="M179.5,221.6h.4c2.4-.3,2.8-6.8,2.8-7.5a.22.22,0,0,0-.2-.2h0a.22.22,0,0,0-.2.2c-.1,1.9-.7,6.9-2.4,7.1a1.67,1.67,0,0,1-1.5-.4,1.61,1.61,0,0,1-.5-1.1,1.29,1.29,0,0,1,1.3-1.4h.1c.1,0,.2,0,.3-.2h0c0-.1,0-.2-.2-.3h-.1a1.79,1.79,0,0,0-1.9,1.7h0v.2a1.82,1.82,0,0,0,.6,1.4A3,3,0,0,0,179.5,221.6Z" opacity="0.8" fill="url(#y)" style="isolation:isolate"/><path d="M189.1,233.6a.22.22,0,0,0,.2-.2v-.1a7.26,7.26,0,0,0-1-5.2,6.36,6.36,0,0,0-2-2,5.47,5.47,0,0,1-2.5-3.6c-.6-3.4,2.9-7.2,2.9-7.2a.19.19,0,0,0,0-.3h0a.19.19,0,0,0-.3,0h0c-.1.2-3.6,3.9-3,7.6a5.77,5.77,0,0,0,2.7,3.9,6.87,6.87,0,0,1,1.9,1.9,6.54,6.54,0,0,1,.9,4.9v.1c0,.1,0,.2.2.2Z" opacity="0.5" fill="url(#z)" style="isolation:isolate"/><path d="M180.5,227.2c.1,0,.2,0,.2-.1a5.75,5.75,0,0,1,1.9-1.9,6,6,0,0,0,2.7-3.9c.6-3.7-2.9-7.4-3-7.6a.21.21,0,0,0-.3.3s3.5,3.8,2.9,7.2a5.47,5.47,0,0,1-2.5,3.6,6.36,6.36,0,0,0-2,2c-.1.1,0,.2.1.4Z" opacity="0.5" fill="url(#aa)" style="isolation:isolate"/><path d="M184.2,208.8a5.75,5.75,0,0,1,4.9,2.8c.9,1.4,1.2,3.6.4,4.3-.3.2-1,.2-2.4,0a29.31,29.31,0,0,0-2.9-.5,8.57,8.57,0,0,0-2.7.5c-1.4.3-1.6.5-2,.4-.8-.4-.9-2.1-.5-3.3A5.55,5.55,0,0,1,184.2,208.8Z" fill="url(#ab)"/></g><g opacity="0.6"><path d="M108.2,90.1a5.08,5.08,0,0,0,.5,3.2c.8,1.7,2.4,3.9,2,6.4a24.92,24.92,0,0,1-2.3,5.9s-.3,1-1,.7-.3-1.2,0-1.6a14.1,14.1,0,0,0,1.9-6c0-1.9-1.3-3.5-1.8-4.6s-1.4-4.3-1.4-4.3Z" opacity="0.7" fill="url(#ac)" style="isolation:isolate"/><path d="M104.1,88.1a5.08,5.08,0,0,1-.5,3.2c-.8,1.7-2.4,3.9-2,6.4a23.36,23.36,0,0,0,2.3,5.9s.3,1,1,.7.2-1.2,0-1.6a14.1,14.1,0,0,1-1.9-6c0-1.9,1.3-3.5,1.8-4.5a39.75,39.75,0,0,0,1.4-4.3Z" opacity="0.5" fill="url(#ad)" style="isolation:isolate"/><path d="M112.8,97.7a1.87,1.87,0,0,0,1.4-.5,2,2,0,0,0,.6-1.4,1.86,1.86,0,0,0-1.7-1.9H113a.22.22,0,0,0-.2.2h0a.22.22,0,0,0,.2.2,1.42,1.42,0,0,1,1.5,1.3h0v.2a1.61,1.61,0,0,1-.5,1.1,1.63,1.63,0,0,1-1.5.3c-1.7-.2-2.3-5.2-2.4-7.1a.2.2,0,0,0-.4,0c0,.7.4,7.2,2.8,7.5Z" opacity="0.5" fill="url(#ae)" style="isolation:isolate"/><path d="M101.2,96.5h.4c2.4-.3,2.8-6.8,2.8-7.5a.2.2,0,0,0-.4,0c-.1,1.9-.7,6.9-2.4,7.1a2,2,0,0,1-1.5-.3,1.61,1.61,0,0,1-.5-1.1,1.29,1.29,0,0,1,1.3-1.4h.1a.22.22,0,0,0,.2-.2h0a.22.22,0,0,0-.2-.2h0a1.79,1.79,0,0,0-1.9,1.7v.2a1.51,1.51,0,0,0,.7,1.4A5.77,5.77,0,0,0,101.2,96.5Z" opacity="0.8" fill="url(#af)" style="isolation:isolate"/><path d="M110.8,108.5a.22.22,0,0,0,.2-.2v-.1a7.26,7.26,0,0,0-1-5.2,6.36,6.36,0,0,0-2-2,5.47,5.47,0,0,1-2.5-3.6c-.6-3.4,2.8-7.2,2.9-7.2a.19.19,0,0,0,0-.3h0a.19.19,0,0,0-.3,0h0c-.2.2-3.6,3.9-3,7.6a5.77,5.77,0,0,0,2.7,3.9,5.75,5.75,0,0,1,1.9,1.9,6.54,6.54,0,0,1,.9,4.9v.1c-.1.1,0,.2.2.2Z" opacity="0.5" fill="url(#ag)" style="isolation:isolate"/><path d="M102.2,102.1c.1,0,.2,0,.2-.1a5.75,5.75,0,0,1,1.9-1.9,6,6,0,0,0,2.7-3.9c.6-3.7-2.9-7.4-3-7.6a.21.21,0,1,0-.3.3s3.5,3.8,2.9,7.2a5.47,5.47,0,0,1-2.5,3.6,6.36,6.36,0,0,0-2,2c-.1.1,0,.2.1.4Z" opacity="0.5" fill="url(#ah)" style="isolation:isolate"/><path d="M105.9,83.7a5.75,5.75,0,0,1,4.9,2.8c.8,1.4,1.2,3.6.4,4.3-.3.2-1,.2-2.4,0a29.31,29.31,0,0,0-2.9-.5,8.57,8.57,0,0,0-2.7.5c-1.4.3-1.6.5-2,.4-.8-.4-.8-2.1-.5-3.3A5.55,5.55,0,0,1,105.9,83.7Z" fill="url(#ai)"/></g></svg>