<svg xmlns="http://www.w3.org/2000/svg" xmlns:xlink="http://www.w3.org/1999/xlink" width="296.6" height="397.6" viewBox="0 0 296.6 397.6"><defs><linearGradient id="a" x1="149.75" y1="446.22" x2="141.59" y2="453.85" gradientTransform="translate(0 -200)" gradientUnits="userSpaceOnUse"><stop offset="0.17" stop-color="#75b0b7"/><stop offset="0.22" stop-color="#84b8be"/><stop offset="0.38" stop-color="#aaced0"/><stop offset="0.54" stop-color="#c9dedf"/><stop offset="0.7" stop-color="#dfeae9"/><stop offset="0.85" stop-color="#ecf2ef"/><stop offset="0.98" stop-color="#f0f4f1"/></linearGradient><linearGradient id="b" x1="-304.73" y1="444.44" x2="-312.9" y2="452.07" gradientTransform="matrix(-1, 0, 0, 1, -161.15, -200)" xlink:href="#a"/><linearGradient id="c" x1="144.63" y1="444.37" x2="139.26" y2="449.38" xlink:href="#a"/><linearGradient id="d" x1="-308.33" y1="443.44" x2="-313.7" y2="448.45" gradientTransform="matrix(-1, 0, 0, 1, -161.28, -200)" xlink:href="#a"/><linearGradient id="e" x1="140.19" y1="447.97" x2="147.33" y2="454.63" xlink:href="#a"/><linearGradient id="f" x1="-303.83" y1="445.47" x2="-298.32" y2="450.62" gradientTransform="matrix(-1, 0, 0, 1, -151.76, -200)" xlink:href="#a"/><linearGradient id="g" x1="150.16" y1="439.09" x2="143.46" y2="445.32" xlink:href="#a"/><linearGradient id="h" x1="-176.72" y1="428.6" x2="-182.37" y2="433.88" gradientTransform="matrix(-1, 0, 0, 1, -155.29, -200)" gradientUnits="userSpaceOnUse"><stop offset="0.17" stop-color="#0b6640"/><stop offset="0.2" stop-color="#1c704d"/><stop offset="0.32" stop-color="#539378"/><stop offset="0.44" stop-color="#83b19d"/><stop offset="0.55" stop-color="#aac9bb"/><stop offset="0.67" stop-color="#c9dcd3"/><stop offset="0.78" stop-color="#dfe9e3"/><stop offset="0.88" stop-color="#ecf1ee"/><stop offset="0.98" stop-color="#f0f4f1"/></linearGradient><linearGradient id="i" x1="19.81" y1="427.41" x2="14.16" y2="432.68" gradientTransform="translate(5.86 -200)" gradientUnits="userSpaceOnUse"><stop offset="0.08" stop-color="#0b6640"/><stop offset="0.17" stop-color="#0b6640"/><stop offset="0.2" stop-color="#1c704d"/><stop offset="0.32" stop-color="#539378"/><stop offset="0.44" stop-color="#83b19d"/><stop offset="0.55" stop-color="#aac9bb"/><stop offset="0.67" stop-color="#c9dcd3"/><stop offset="0.78" stop-color="#dfe9e3"/><stop offset="0.88" stop-color="#ecf1ee"/><stop offset="0.98" stop-color="#f0f4f1"/></linearGradient><linearGradient id="j" x1="-180.22" y1="427.38" x2="-183.93" y2="430.85" gradientTransform="matrix(-1, 0, 0, 1, -155.29, -200)" xlink:href="#a"/><linearGradient id="k" x1="17.32" y1="426.76" x2="13.6" y2="430.22" gradientTransform="translate(5.99 -200)" xlink:href="#a"/><linearGradient id="l" x1="-183.39" y1="429.94" x2="-178.46" y2="434.55" gradientTransform="matrix(-1, 0, 0, 1, -155.29, -200)" xlink:href="#a"/><linearGradient id="m" x1="23.34" y1="428.13" x2="27.14" y2="431.68" gradientTransform="translate(-3.53 -200)" xlink:href="#a"/><linearGradient id="n" x1="-176.48" y1="423.63" x2="-181.11" y2="427.94" xlink:href="#h"/><linearGradient id="o" x1="-302.23" y1="397.07" x2="-307.88" y2="402.34" gradientTransform="matrix(-0.99, 0.17, 0.17, 0.99, -145.29, -174.76)" xlink:href="#h"/><linearGradient id="p" x1="144.71" y1="397.72" x2="139.06" y2="402.99" gradientTransform="matrix(0.99, -0.17, 0.17, 0.99, 16.29, -204.55)" xlink:href="#i"/><linearGradient id="q" x1="-305.58" y1="395.97" x2="-309.31" y2="399.44" gradientTransform="matrix(-0.99, 0.17, 0.17, 0.99, -145.29, -174.76)" xlink:href="#a"/><linearGradient id="r" x1="142.18" y1="397.02" x2="138.47" y2="400.49" gradientTransform="matrix(0.99, -0.17, 0.17, 0.99, 16.42, -204.57)" xlink:href="#a"/><linearGradient id="s" x1="-308.33" y1="400.43" x2="-303.39" y2="405.04" gradientTransform="matrix(-0.99, 0.17, 0.17, 0.99, -145.29, -174.76)" xlink:href="#a"/><linearGradient id="t" x1="147.08" y1="399.2" x2="150.88" y2="402.75" gradientTransform="matrix(0.99, -0.17, 0.17, 0.99, 7.03, -202.96)" xlink:href="#a"/><linearGradient id="u" x1="-302.02" y1="392.07" x2="-306.64" y2="396.39" gradientTransform="matrix(-0.99, 0.17, 0.17, 0.99, -145.29, -174.76)" xlink:href="#h"/><linearGradient id="v" x1="-317.22" y1="389.4" x2="-326.44" y2="398.01" xlink:href="#h"/><linearGradient id="w" x1="163.1" y1="387.41" x2="153.88" y2="396.01" xlink:href="#i"/><linearGradient id="x" x1="-322.95" y1="387.35" x2="-329.02" y2="393.01" gradientTransform="matrix(-1, 0, 0, 1, -155.29, -200)" xlink:href="#a"/><linearGradient id="y" x1="159.01" y1="386.2" x2="152.94" y2="391.85" gradientTransform="translate(5.99 -200)" xlink:href="#a"/><linearGradient id="z" x1="-328.12" y1="391.43" x2="-320.06" y2="398.94" gradientTransform="matrix(-1, 0, 0, 1, -155.29, -200)" xlink:href="#a"/><linearGradient id="aa" x1="162.88" y1="388.52" x2="169.09" y2="394.31" gradientTransform="translate(-3.53 -200)" xlink:href="#a"/><linearGradient id="ab" x1="-316.87" y1="381.23" x2="-324.4" y2="388.29" xlink:href="#h"/><linearGradient id="ac" x1="-280.5" y1="367.18" x2="-286.15" y2="372.45" xlink:href="#h"/><linearGradient id="ad" x1="124.05" y1="368.27" x2="118.4" y2="373.54" xlink:href="#i"/><linearGradient id="ae" x1="-282.87" y1="366.94" x2="-286.59" y2="370.41" gradientTransform="matrix(-1, 0, 0, 1, -155.29, -200)" xlink:href="#a"/><linearGradient id="af" x1="121.5" y1="367.55" x2="117.79" y2="371.01" gradientTransform="translate(5.99 -200)" xlink:href="#a"/><linearGradient id="ag" x1="-286.68" y1="368.2" x2="-281.74" y2="372.81" gradientTransform="matrix(-1, 0, 0, 1, -155.29, -200)" xlink:href="#a"/><linearGradient id="ah" x1="127.63" y1="368.98" x2="131.43" y2="372.53" gradientTransform="translate(-3.53 -200)" xlink:href="#a"/><linearGradient id="ai" x1="-280.76" y1="364.51" x2="-285.38" y2="368.82" gradientTransform="matrix(-1, 0, 0, 1, -155.29, -200)" gradientUnits="userSpaceOnUse"><stop offset="0.19" stop-color="#27182a"/><stop offset="0.2" stop-color="#2e2031"/><stop offset="0.32" stop-color="#615763"/><stop offset="0.44" stop-color="#8d878f"/><stop offset="0.55" stop-color="#b0aeb2"/><stop offset="0.67" stop-color="#cccdce"/><stop offset="0.78" stop-color="#e0e3e1"/><stop offset="0.88" stop-color="#ecf0ed"/><stop offset="0.98" stop-color="#f0f4f1"/></linearGradient><linearGradient id="aj" x1="-445.5" y1="330.89" x2="-451.15" y2="336.16" xlink:href="#h"/><linearGradient id="ak" x1="289.06" y1="331.96" x2="283.41" y2="337.23" xlink:href="#i"/><linearGradient id="al" x1="-447.93" y1="330.6" x2="-451.65" y2="334.07" gradientTransform="matrix(-1, 0, 0, 1, -155.29, -200)" xlink:href="#a"/><linearGradient id="am" x1="286.57" y1="331.3" x2="282.85" y2="334.77" gradientTransform="translate(5.99 -200)" xlink:href="#a"/><linearGradient id="an" x1="-451.72" y1="331.91" x2="-446.78" y2="336.52" gradientTransform="matrix(-1, 0, 0, 1, -155.29, -200)" xlink:href="#a"/><linearGradient id="ao" x1="292.61" y1="332.71" x2="296.41" y2="336.26" gradientTransform="translate(-3.53 -200)" xlink:href="#a"/><linearGradient id="ap" x1="-445.76" y1="328.21" x2="-450.39" y2="332.53" xlink:href="#ai"/><linearGradient id="aq" x1="-237.48" y1="339.47" x2="-243.13" y2="344.73" xlink:href="#h"/><linearGradient id="ar" x1="81" y1="340.61" x2="75.35" y2="345.88" xlink:href="#i"/><linearGradient id="as" x1="-239.84" y1="339.26" x2="-243.56" y2="342.73" gradientTransform="matrix(-1, 0, 0, 1, -155.29, -200)" xlink:href="#a"/><linearGradient id="at" x1="78.51" y1="339.94" x2="74.79" y2="343.41" gradientTransform="translate(5.99 -200)" xlink:href="#a"/><linearGradient id="au" x1="-243.58" y1="340.47" x2="-238.64" y2="345.07" gradientTransform="matrix(-1, 0, 0, 1, -155.29, -200)" xlink:href="#a"/><linearGradient id="av" x1="84.55" y1="341.34" x2="88.35" y2="344.89" gradientTransform="translate(-3.53 -200)" xlink:href="#a"/><linearGradient id="aw" x1="-237.64" y1="336.9" x2="-242.27" y2="341.21" xlink:href="#ai"/></defs><g opacity="0.6"><path d="M144.8,243.3a4.5,4.5,0,0,1-.4,2.8c-.8,1.5-2.1,3.5-1.8,5.7a23.6,23.6,0,0,0,2.1,5.2s.3.9.9.6.2-1,0-1.4a12.14,12.14,0,0,1-1.6-5.3c0-1.7,1.1-3.1,1.6-4a28.72,28.72,0,0,0,1.3-3.9Z" fill="url(#a)"/><path d="M148.5,241.5a4.5,4.5,0,0,0,.4,2.8c.8,1.5,2.1,3.5,1.8,5.7a19.57,19.57,0,0,1-2.1,5.2s-.3.9-.9.6-.2-1,0-1.4a12.14,12.14,0,0,0,1.6-5.3c0-1.7-1.1-3.1-1.6-4a28.72,28.72,0,0,1-1.3-3.9Z" opacity="0.5" fill="url(#b)" style="isolation:isolate"/><path d="M140.8,250a2,2,0,0,1-1.3-.4,2,2,0,0,1-.6-1.3,1.65,1.65,0,0,1,1.5-1.7h.2a.2.2,0,0,1,0,.4,1.23,1.23,0,0,0-1.3,1.1h0v.1a1.28,1.28,0,0,0,.4,1,1.74,1.74,0,0,0,1.4.3c1.5-.2,2-4.6,2.1-6.3a.2.2,0,0,1,.4,0h0c0,.7-.3,6.4-2.5,6.7Z" opacity="0.6" fill="url(#c)" style="isolation:isolate"/><path d="M151,249h-.4c-2.1-.3-2.4-6-2.5-6.7a.22.22,0,0,1,.2-.2h0a.22.22,0,0,1,.2.2c.1,1.7.6,6.1,2.1,6.3a1.44,1.44,0,0,0,1.3-.3,1.28,1.28,0,0,0,.4-1,1.3,1.3,0,0,0-1.2-1.3H151a.2.2,0,0,1,0-.4h0a1.58,1.58,0,0,1,1.7,1.5h0v.2a1.76,1.76,0,0,1-.6,1.3A1.25,1.25,0,0,1,151,249Z" fill="url(#d)"/><path d="M142.6,259.6a.22.22,0,0,1-.2-.2v-.1a6.25,6.25,0,0,1,.9-4.6,7.69,7.69,0,0,1,1.8-1.8,4.54,4.54,0,0,0,2.2-3.2c.5-3-2.5-6.3-2.6-6.4a.19.19,0,0,1,0-.3h0a.19.19,0,0,1,.3,0c.1.1,3.2,3.5,2.7,6.7a5.37,5.37,0,0,1-2.4,3.5,5.51,5.51,0,0,0-1.7,1.7,5.91,5.91,0,0,0-.8,4.3v.1c0,.2-.1.3-.2.3Z" opacity="0.6" fill="url(#e)" style="isolation:isolate"/><path d="M150.1,254c-.1,0-.1,0-.2-.1a5.51,5.51,0,0,0-1.7-1.7,5.18,5.18,0,0,1-2.4-3.4c-.6-3.2,2.5-6.6,2.7-6.7a.19.19,0,0,1,.3,0h0a.19.19,0,0,1,0,.3h0s-3.1,3.3-2.6,6.4a4.85,4.85,0,0,0,2.2,3.2,7.69,7.69,0,0,1,1.8,1.8c.1,0,.1.1-.1.2Z" fill="url(#f)"/><path d="M146.9,237.7a5,5,0,0,0-4.3,2.5c-.7,1.3-1.1,3.2-.3,3.8.3.2.9.2,2.1,0a20.24,20.24,0,0,1,2.6-.4,10,10,0,0,1,2.4.4c1.2.3,1.4.5,1.8.3.7-.4.8-1.8.5-2.9A5.48,5.48,0,0,0,146.9,237.7Z" fill="url(#g)"/></g><g opacity="0.6"><path d="M24.8,226.6a3.08,3.08,0,0,0,.3,1.9c.5,1,1.5,2.4,1.2,3.9a14.19,14.19,0,0,1-1.4,3.6s-.2.6-.6.4-.2-.7,0-1a9.36,9.36,0,0,0,1.1-3.7,5.7,5.7,0,0,0-1.1-2.8c-.3-.6-.9-2.6-.9-2.6Z" opacity="0.7" fill="url(#h)" style="isolation:isolate"/><path d="M22.3,225.4a3.08,3.08,0,0,1-.3,1.9c-.5,1-1.5,2.4-1.2,3.9a14.19,14.19,0,0,0,1.4,3.6s.2.6.6.4.2-.7,0-1a7.94,7.94,0,0,1-1.1-3.6,5.7,5.7,0,0,1,1.1-2.8c.3-.7.9-2.7.9-2.7Z" opacity="0.5" fill="url(#i)" style="isolation:isolate"/><path d="M27.6,231.3a1.61,1.61,0,0,0,.9-.3,1.27,1.27,0,0,0,.4-.9,1.11,1.11,0,0,0-1.1-1.1h-.1a.1.1,0,0,0,0,.2.82.82,0,0,1,.9.8v.1a.91.91,0,0,1-.3.7,1,1,0,0,1-.9.2c-1-.1-1.4-3.2-1.5-4.4a.1.1,0,1,0-.2,0c0,.5.2,4.4,1.7,4.6Z" opacity="0.5" fill="url(#j)" style="isolation:isolate"/><path d="M20.5,230.6h.3c1.5-.2,1.7-4.2,1.7-4.6,0-.1,0-.1-.1-.1h0a.1.1,0,0,0-.1.1h0c0,1.2-.4,4.2-1.5,4.4a1,1,0,0,1-.9-.2.91.91,0,0,1-.3-.7.88.88,0,0,1,.8-.9h.1a.1.1,0,0,0,0-.2,1.19,1.19,0,0,0-1.2,1v.1a1.09,1.09,0,0,0,.4.9C19.9,230.4,20.2,230.6,20.5,230.6Z" opacity="0.8" fill="url(#k)" style="isolation:isolate"/><path d="M26.4,237.9a.1.1,0,0,0,.1-.1h0a4.54,4.54,0,0,0-.6-3.2,3.45,3.45,0,0,0-1.2-1.2,3.09,3.09,0,0,1-1.5-2.2c-.4-2.1,1.7-4.4,1.8-4.4v-.2h0c0-.1-.1-.1-.2,0h0c-.1.1-2.2,2.4-1.8,4.6a3.51,3.51,0,0,0,1.7,2.4,2.54,2.54,0,0,1,1.1,1.2,4.19,4.19,0,0,1,.6,3.1h0c-.1,0-.1.1,0,0Z" opacity="0.5" fill="url(#l)" style="isolation:isolate"/><path d="M21.1,234a.1.1,0,0,0,.1-.1,4.26,4.26,0,0,1,1.1-1.2,3.51,3.51,0,0,0,1.7-2.4c.4-2.2-1.8-4.6-1.8-4.6s-.1-.1-.2,0v.2h0s2.1,2.3,1.8,4.4a3.41,3.41,0,0,1-1.5,2.2,3.74,3.74,0,0,0-1.2,1.3v.2Z" opacity="0.5" fill="url(#m)" style="isolation:isolate"/><path d="M23.4,222.7a3.62,3.62,0,0,1,3,1.7c.5.9.8,2.2.2,2.6-.2.2-.6.1-1.4,0l-1.8-.3a5.08,5.08,0,0,0-1.7.3c-.9.2-1,.3-1.2.2-.5-.2-.5-1.3-.3-2A3.55,3.55,0,0,1,23.4,222.7Z" fill="url(#n)"/></g><g opacity="0.6"><path d="M225.4,165a3.29,3.29,0,0,0,.6,1.9c.7.9,1.9,2.1,1.9,3.7a16.06,16.06,0,0,1-.8,3.8s-.1.6-.5.5-.3-.7-.2-1a8.17,8.17,0,0,0,.5-3.8,6.81,6.81,0,0,0-1.5-2.6c-.4-.6-1.3-2.5-1.3-2.5Z" opacity="0.7" fill="url(#o)" style="isolation:isolate"/><path d="M222.7,164.2a3.08,3.08,0,0,1,0,1.9c-.3,1.1-1.1,2.6-.5,4.1a13.85,13.85,0,0,0,2,3.3s.3.6.7.3,0-.7-.2-1a8.22,8.22,0,0,1-1.6-3.4,7.17,7.17,0,0,1,.6-2.9,26,26,0,0,0,.4-2.8Z" opacity="0.5" fill="url(#p)" style="isolation:isolate"/><path d="M228.9,169.1a1.23,1.23,0,0,0,.8-.4,1,1,0,0,0,.2-.9,1,1,0,0,0-1.2-.9h-.1a.1.1,0,0,0,0,.2h0a.89.89,0,0,1,1,.6h0v.1a1,1,0,0,1-.2.7,1.27,1.27,0,0,1-.9.4c-1,0-1.9-2.9-2.2-4,0-.1-.1-.1-.2-.1s-.1.1-.1.2c.1.4,1,4.3,2.5,4.3Z" opacity="0.5" fill="url(#q)" style="isolation:isolate"/><path d="M221.8,169.6l.3-.1c1.4-.4.9-4.4.9-4.8a.1.1,0,0,0-.1-.1l-.1.1h0c.1,1.2.3,4.2-.7,4.5a1.39,1.39,0,0,1-.9,0,.82.82,0,0,1-.4-.6.89.89,0,0,1,.6-1h.1c.1,0,.1-.1.1-.2a.1.1,0,0,0-.1-.1h0a1.09,1.09,0,0,0-1,1.1v.2a1.37,1.37,0,0,0,.5.8A.72.72,0,0,0,221.8,169.6Z" opacity="0.8" fill="url(#r)" style="isolation:isolate"/><path d="M228.8,175.9a.1.1,0,0,0,.1-.1h0a4.62,4.62,0,0,0-1.1-3,4.51,4.51,0,0,0-1.4-1,3,3,0,0,1-1.9-1.9c-.7-2,1-4.6,1-4.6s.1-.1,0-.2-.1-.1-.2,0h0c-.1.1-1.8,2.8-1,4.9a3.74,3.74,0,0,0,2,2.1,4.27,4.27,0,0,1,2.5,3.8Z" opacity="0.5" fill="url(#s)" style="isolation:isolate"/><path d="M223,172.9c.1,0,.1,0,.1-.1a3,3,0,0,1,.9-1.3,3.37,3.37,0,0,0,1.2-2.6c0-2.3-2.5-4.2-2.6-4.3h-.2v.2h0s2.5,1.9,2.5,4a3,3,0,0,1-1.2,2.4,4.51,4.51,0,0,0-1,1.4c.1.1.1.2.3.3Z" opacity="0.5" fill="url(#t)" style="isolation:isolate"/><path d="M223.3,161.4a3.24,3.24,0,0,1,3.2,1.2c.7.8,1.1,2,.7,2.5-.2.2-.6.2-1.4.2H224a4.42,4.42,0,0,0-1.6.6c-.8.3-.9.5-1.2.4-.5-.2-.7-1.2-.7-1.9A3.63,3.63,0,0,1,223.3,161.4Z" fill="url(#u)"/></g><g opacity="0.6"><path d="M167.5,186.1a4.68,4.68,0,0,0,.5,3.1c.9,1.7,2.4,3.9,2,6.4a21.54,21.54,0,0,1-2.4,5.9s-.3,1-1,.7-.2-1.2,0-1.6a14.1,14.1,0,0,0,1.9-6c0-1.9-1.3-3.5-1.8-4.6s-1.4-4.3-1.4-4.3Z" opacity="0.7" fill="url(#v)" style="isolation:isolate"/><path d="M163.4,184.1a4.68,4.68,0,0,1-.5,3.1c-.8,1.7-2.4,3.9-2,6.4a21.54,21.54,0,0,0,2.4,5.9s.3,1,1,.7.3-1.2,0-1.6a14.1,14.1,0,0,1-1.9-6c0-1.9,1.3-3.5,1.8-4.6s1.4-4.3,1.4-4.3Z" opacity="0.5" fill="url(#w)" style="isolation:isolate"/><path d="M172.1,193.7a1.87,1.87,0,0,0,1.4-.5,2,2,0,0,0,.6-1.4,1.86,1.86,0,0,0-1.7-1.9h-.2a.22.22,0,0,0-.2.2h0a.22.22,0,0,0,.2.2h0a1.37,1.37,0,0,1,1.5,1.3h0v.1a1.61,1.61,0,0,1-.5,1.1,2,2,0,0,1-1.5.4c-1.7-.2-2.3-5.2-2.4-7.1a.2.2,0,0,0-.4,0h0c0,.7.4,7.2,2.8,7.5Z" opacity="0.5" fill="url(#x)" style="isolation:isolate"/><path d="M160.5,192.5h.4c2.4-.3,2.7-6.8,2.8-7.5a.22.22,0,0,0-.2-.2h0a.22.22,0,0,0-.2.2h0c-.1,1.9-.7,6.9-2.4,7.1a1.67,1.67,0,0,1-1.5-.4,1.61,1.61,0,0,1-.5-1.1,1.35,1.35,0,0,1,1.3-1.4h.1a.2.2,0,0,0,0-.4,1.79,1.79,0,0,0-1.9,1.7v.2a1.82,1.82,0,0,0,.6,1.4A4.19,4.19,0,0,0,160.5,192.5Z" opacity="0.8" fill="url(#y)" style="isolation:isolate"/><path d="M170.1,204.5a.22.22,0,0,0,.2-.2v-.1a7.26,7.26,0,0,0-1-5.2,6.36,6.36,0,0,0-2-2,5.16,5.16,0,0,1-2.5-3.6c-.6-3.4,2.9-7.1,2.9-7.2a.19.19,0,0,0,0-.3h0a.19.19,0,0,0-.3,0h0c-.1.1-3.6,3.9-3,7.6a6,6,0,0,0,2.7,3.9,6.87,6.87,0,0,1,1.9,1.9,6.54,6.54,0,0,1,.9,4.9v.1c-.1.1,0,.2.2.2Z" opacity="0.5" fill="url(#z)" style="isolation:isolate"/><path d="M161.5,198.1c.1,0,.2,0,.2-.1a5.75,5.75,0,0,1,1.9-1.9,5.77,5.77,0,0,0,2.7-3.9c.6-3.6-2.9-7.4-3-7.6a.19.19,0,0,0-.3,0h0a.19.19,0,0,0,0,.3h0s3.5,3.8,2.9,7.2a5.47,5.47,0,0,1-2.5,3.6,6.36,6.36,0,0,0-2,2c-.1.2-.1.3.1.4Z" opacity="0.5" fill="url(#aa)" style="isolation:isolate"/><path d="M165.2,179.7a5.75,5.75,0,0,1,4.9,2.8c.8,1.4,1.2,3.6.4,4.3-.3.3-1,.2-2.4,0a14.46,14.46,0,0,0-2.9-.4,12.59,12.59,0,0,0-2.7.4c-1.4.3-1.6.6-2,.4-.8-.4-.9-2.1-.6-3.3A5.9,5.9,0,0,1,165.2,179.7Z" fill="url(#ab)"/></g><g opacity="0.6"><path d="M128.6,165.2a3.08,3.08,0,0,0,.3,1.9c.5,1,1.5,2.4,1.2,3.9a14.19,14.19,0,0,1-1.4,3.6s-.2.6-.6.4-.2-.7,0-1a7.94,7.94,0,0,0,1.1-3.6,5.7,5.7,0,0,0-1.1-2.8c-.3-.7-.9-2.7-.9-2.7Z" opacity="0.5" fill="url(#ac)" style="isolation:isolate"/><path d="M126.5,166.3a3.08,3.08,0,0,1-.3,1.9c-.5,1-1.5,2.4-1.2,3.9a14.19,14.19,0,0,0,1.4,3.6s.2.6.6.4.2-.7,0-1a6.89,6.89,0,0,1-1.1-3.6,5.7,5.7,0,0,1,1.1-2.8c.3-.7.9-2.7.9-2.7Z" opacity="0.8" fill="url(#ad)" style="isolation:isolate"/><path d="M130.3,170.9a1.61,1.61,0,0,0,.9-.3,1.27,1.27,0,0,0,.4-.9,1.11,1.11,0,0,0-1.1-1.1h-.1c-.1,0-.1,0-.1.1h0a.1.1,0,0,0,.1.1.82.82,0,0,1,.9.8h0v.1a.91.91,0,0,1-.3.7,1,1,0,0,1-.9.2c-1-.1-1.4-3.2-1.5-4.4,0-.1,0-.2-.1-.2s-.2,0-.2.1v.1h0c0,.4.2,4.4,1.7,4.6Z" opacity="0.5" fill="url(#ae)" style="isolation:isolate"/><path d="M124.8,171.4h.2c1.5-.2,1.7-4.2,1.7-4.6,0-.1,0-.1-.1-.1h0c-.1,0-.1,0-.1.1h0c0,1.2-.4,4.2-1.5,4.4a1,1,0,0,1-.9-.2.91.91,0,0,1-.3-.7.82.82,0,0,1,.8-.9h.1c.1,0,.1,0,.1-.1h0a.1.1,0,0,0-.1-.1,1.19,1.19,0,0,0-1.2,1v.1a1.09,1.09,0,0,0,.4.9A2.39,2.39,0,0,0,124.8,171.4Z" opacity="0.5" fill="url(#af)" style="isolation:isolate"/><path d="M129.7,176.2a.1.1,0,0,0,.1-.1h0a4.54,4.54,0,0,0-.6-3.2,3.45,3.45,0,0,0-1.2-1.2,3.56,3.56,0,0,1-1.6-2.2c-.4-2.1,1.8-4.4,1.8-4.4v-.2H128c-.1.1-2.2,2.4-1.8,4.6a3.51,3.51,0,0,0,1.7,2.4A3.84,3.84,0,0,1,129,173a4,4,0,0,1,.6,3l.1.2C129.6,176.1,129.6,176.2,129.7,176.2Z" opacity="0.5" fill="url(#ag)" style="isolation:isolate"/><path d="M125.4,174.9a.1.1,0,0,0,.1-.1,3.45,3.45,0,0,1,1.2-1.2,3.51,3.51,0,0,0,1.7-2.4c.4-2.2-1.8-4.6-1.8-4.6s-.1-.1-.2,0v.2s2.1,2.3,1.8,4.4a3.23,3.23,0,0,1-1.6,2.2,3.45,3.45,0,0,0-1.2,1.2c-.2.2-.1.2,0,.3Z" opacity="0.5" fill="url(#ah)" style="isolation:isolate"/><path d="M127.7,163.6a3.62,3.62,0,0,1,3,1.7c.5.9.8,2.2.2,2.6-.2.2-.6.1-1.4,0l-1.8-.3a5.08,5.08,0,0,0-1.7.3c-.8.2-1,.3-1.2.2-.5-.2-.5-1.3-.3-2A3.35,3.35,0,0,1,127.7,163.6Z" fill="url(#ai)"/></g><g opacity="0.6"><path d="M293.6,128.9a3.08,3.08,0,0,0,.3,1.9c.5,1,1.5,2.4,1.2,3.9a14.19,14.19,0,0,1-1.4,3.6s-.2.6-.6.4-.2-.7,0-1a7.94,7.94,0,0,0,1.1-3.6,5.7,5.7,0,0,0-1.1-2.8c-.3-.7-.9-2.7-.9-2.7Z" opacity="0.5" fill="url(#aj)" style="isolation:isolate"/><path d="M291.5,130a3.08,3.08,0,0,1-.3,1.9c-.5,1-1.5,2.4-1.2,3.9a14.19,14.19,0,0,0,1.4,3.6s.2.6.6.4.2-.7,0-1a9.36,9.36,0,0,1-1.1-3.7,5.7,5.7,0,0,1,1.1-2.8c.3-.7.9-2.6.9-2.6Z" opacity="0.8" fill="url(#ak)" style="isolation:isolate"/><path d="M295.3,134.6a1.61,1.61,0,0,0,.9-.3,1.27,1.27,0,0,0,.4-.9,1,1,0,0,0-1-1.1h-.1a.1.1,0,0,0-.1.1h0a.1.1,0,0,0,.1.1h0a.82.82,0,0,1,.9.8h0v.1a.91.91,0,0,1-.3.7,1,1,0,0,1-.9.2c-1-.1-1.4-3.2-1.5-4.4a.1.1,0,0,0-.1-.1h0a.1.1,0,0,0-.1.1h0c0,.4.2,4.4,1.7,4.6Z" opacity="0.5" fill="url(#al)" style="isolation:isolate"/><path d="M289.8,135.1h.3c1.5-.2,1.7-4.2,1.7-4.6,0-.1,0-.1-.1-.1h0a.1.1,0,0,0-.1.1c0,1.2-.4,4.2-1.5,4.4a1,1,0,0,1-.9-.2.91.91,0,0,1-.3-.7.82.82,0,0,1,.8-.9h.1a.1.1,0,0,0,0-.2,1.19,1.19,0,0,0-1.2,1v.2a1.22,1.22,0,0,0,.4.9A2,2,0,0,0,289.8,135.1Z" opacity="0.5" fill="url(#am)" style="isolation:isolate"/><path d="M294.7,139.9a.1.1,0,0,0,.1-.1h0a4.54,4.54,0,0,0-.6-3.2,3.45,3.45,0,0,0-1.2-1.2,3.09,3.09,0,0,1-1.5-2.2c-.4-2.1,1.8-4.4,1.8-4.4s.1-.1,0-.2h-.2c-.1.1-2.2,2.4-1.8,4.6a3.72,3.72,0,0,0,1.6,2.4,2.54,2.54,0,0,1,1.1,1.2,4,4,0,0,1,.6,3v.1c0-.1,0,0,.1,0Z" opacity="0.5" fill="url(#an)" style="isolation:isolate"/><path d="M290.4,138.6a.1.1,0,0,0,.1-.1,4.26,4.26,0,0,1,1.1-1.2,3.51,3.51,0,0,0,1.7-2.4c.4-2.2-1.8-4.6-1.8-4.6h-.2c-.1.1-.1.1,0,.2h0s2.1,2.3,1.8,4.4a3.41,3.41,0,0,1-1.5,2.2,3.45,3.45,0,0,0-1.2,1.2v.3Z" opacity="0.5" fill="url(#ao)" style="isolation:isolate"/><path d="M292.7,127.3a3.62,3.62,0,0,1,3,1.7c.5.9.8,2.2.2,2.6-.2.2-.6.1-1.4,0l-1.8-.3a5.08,5.08,0,0,0-1.7.3c-.9.2-1,.3-1.2.2-.5-.2-.5-1.3-.3-2A3.55,3.55,0,0,1,292.7,127.3Z" fill="url(#ap)"/></g><g opacity="0.6"><path d="M85.6,137.5a3.08,3.08,0,0,0,.3,1.9c.5,1,1.5,2.4,1.2,3.9a14.19,14.19,0,0,1-1.4,3.6s-.2.6-.6.4-.2-.7,0-1a8,8,0,0,0,1.1-3.7,6.1,6.1,0,0,0-1.1-2.8c-.3-.7-.9-2.7-.9-2.7Z" opacity="0.5" fill="url(#aq)" style="isolation:isolate"/><path d="M83.5,138.6a3.08,3.08,0,0,1-.3,1.9c-.5,1-1.5,2.4-1.2,3.9a14.19,14.19,0,0,0,1.4,3.6s.2.6.6.4.2-.7,0-1a9.36,9.36,0,0,1-1.1-3.7,7.45,7.45,0,0,1,1.1-2.8c.3-.7.9-2.7.9-2.7Z" opacity="0.8" fill="url(#ar)" style="isolation:isolate"/><path d="M87.2,143.2a1.61,1.61,0,0,0,.9-.3,1.27,1.27,0,0,0,.4-.9,1,1,0,0,0-1-1.1h-.1a.1.1,0,0,0-.1.1l.1.1h0a.82.82,0,0,1,.9.8h0v.1a.91.91,0,0,1-.3.7,1,1,0,0,1-.9.2c-1-.1-1.4-3.2-1.5-4.4,0-.1-.1-.1-.2-.1a.1.1,0,0,0-.1.1c0,.5.2,4.4,1.7,4.6Z" opacity="0.5" fill="url(#as)" style="isolation:isolate"/><path d="M81.7,143.8H82c1.5-.2,1.7-4.2,1.7-4.6a.1.1,0,0,0-.1-.1c-.1,0-.1.1-.2.1,0,1.2-.4,4.2-1.5,4.4a1,1,0,0,1-.9-.2.91.91,0,0,1-.3-.7.82.82,0,0,1,.8-.9h.1a.1.1,0,0,0,.1-.1h0a.1.1,0,0,0-.1-.1,1.19,1.19,0,0,0-1.2,1v.1a1.09,1.09,0,0,0,.4.9A2.92,2.92,0,0,0,81.7,143.8Z" opacity="0.5" fill="url(#at)" style="isolation:isolate"/><path d="M86.6,148.5c.1,0,.1,0,.1-.1h0a4.54,4.54,0,0,0-.6-3.2,3.74,3.74,0,0,0-1.2-1.3,3.56,3.56,0,0,1-1.6-2.2c-.4-2.1,1.8-4.4,1.8-4.4s.1-.1,0-.2h-.2c-.1.1-2.2,2.4-1.8,4.6a3.51,3.51,0,0,0,1.7,2.4,3.18,3.18,0,0,1,1.1,1.2,4,4,0,0,1,.6,3h0a.31.31,0,0,1,.1.2Z" opacity="0.5" fill="url(#au)" style="isolation:isolate"/><path d="M82.3,147.2c.1,0,.1,0,.1-.1a2.54,2.54,0,0,1,1.2-1.1,3.51,3.51,0,0,0,1.7-2.4c.4-2.2-1.8-4.5-1.8-4.6s-.1-.1-.2,0h0v.2h0s2.1,2.3,1.8,4.4a3.23,3.23,0,0,1-1.6,2.2,3.45,3.45,0,0,0-1.2,1.2v.2Z" opacity="0.5" fill="url(#av)" style="isolation:isolate"/><path d="M84.6,136a3.62,3.62,0,0,1,3,1.7c.5.9.7,2.2.2,2.6-.2.2-.6.1-1.4,0a11.27,11.27,0,0,0-1.8-.3,5.08,5.08,0,0,0-1.7.3c-.8.2-1,.3-1.2.2-.5-.2-.5-1.3-.3-2A3.55,3.55,0,0,1,84.6,136Z" fill="url(#aw)"/></g></svg>