<svg xmlns="http://www.w3.org/2000/svg" xmlns:xlink="http://www.w3.org/1999/xlink" width="296.6" height="397.6" viewBox="0 0 296.6 397.6"><defs><linearGradient id="a" x1="201.41" y1="173.13" x2="195.7" y2="167.8" gradientTransform="matrix(1, 0, 0, -1, 0, 300)" gradientUnits="userSpaceOnUse"><stop offset="0.17" stop-color="#75b0b7"/><stop offset="0.22" stop-color="#84b8be"/><stop offset="0.38" stop-color="#aaced0"/><stop offset="0.54" stop-color="#c9dedf"/><stop offset="0.7" stop-color="#dfeae9"/><stop offset="0.85" stop-color="#ecf2ef"/><stop offset="0.98" stop-color="#f0f4f1"/></linearGradient><linearGradient id="b" x1="-156.15" y1="174.31" x2="-161.87" y2="168.99" gradientTransform="translate(40.85 300) rotate(180)" xlink:href="#a"/><linearGradient id="c" x1="197.79" y1="174.48" x2="194.03" y2="170.98" xlink:href="#a"/><linearGradient id="d" x1="-158.78" y1="175.11" x2="-162.54" y2="171.61" gradientTransform="translate(40.72 300) rotate(180)" xlink:href="#a"/><linearGradient id="e" x1="194.69" y1="171.92" x2="199.69" y2="167.26" xlink:href="#a"/><linearGradient id="f" x1="-152.8" y1="173.64" x2="-148.95" y2="170.05" gradientTransform="translate(50.24 300) rotate(180)" xlink:href="#a"/><linearGradient id="g" x1="201.67" y1="178.14" x2="197.01" y2="173.78" xlink:href="#a"/><linearGradient id="h" x1="242.87" y1="128.36" x2="238.71" y2="124.48" gradientTransform="matrix(0.98, 0.21, 0.21, -0.98, -96.92, 281.57)" xlink:href="#a"/><linearGradient id="i" x1="-199.33" y1="130.18" x2="-203.49" y2="126.3" gradientTransform="matrix(-0.98, -0.21, 0.21, -0.98, -58.1, 291.27)" xlink:href="#a"/><linearGradient id="j" x1="240.28" y1="129.28" x2="237.54" y2="126.73" gradientTransform="matrix(0.98, 0.21, 0.21, -0.98, -96.92, 281.57)" xlink:href="#a"/><linearGradient id="k" x1="-201.22" y1="130.7" x2="-203.96" y2="128.15" gradientTransform="matrix(-0.98, -0.21, 0.21, -0.98, -58.23, 291.25)" xlink:href="#a"/><linearGradient id="l" x1="237.41" y1="127" x2="241.04" y2="123.61" gradientTransform="matrix(0.98, 0.21, 0.21, -0.98, -96.92, 281.57)" xlink:href="#a"/><linearGradient id="m" x1="-193.48" y1="128.81" x2="-190.68" y2="126.19" gradientTransform="matrix(-0.98, -0.21, 0.21, -0.98, -48.92, 293.25)" xlink:href="#a"/><linearGradient id="n" x1="243.11" y1="131.94" x2="239.7" y2="128.77" gradientTransform="matrix(0.98, 0.21, 0.21, -0.98, -96.92, 281.57)" xlink:href="#a"/><linearGradient id="o" x1="212.65" y1="24.59" x2="208.49" y2="20.7" xlink:href="#a"/><linearGradient id="p" x1="-168.57" y1="25.51" x2="-172.73" y2="21.62" gradientTransform="translate(40.85 300) rotate(180)" xlink:href="#a"/><linearGradient id="q" x1="210.08" y1="25.47" x2="207.34" y2="22.92" xlink:href="#a"/><linearGradient id="r" x1="-170.49" y1="26.05" x2="-173.23" y2="23.5" gradientTransform="translate(40.72 300) rotate(180)" xlink:href="#a"/><linearGradient id="s" x1="207.6" y1="23.62" x2="211.23" y2="20.23" xlink:href="#a"/><linearGradient id="t" x1="-163.56" y1="24.99" x2="-160.76" y2="22.38" gradientTransform="translate(50.24 300) rotate(180)" xlink:href="#a"/><linearGradient id="u" x1="212.76" y1="28.33" x2="209.36" y2="25.15" xlink:href="#a"/><linearGradient id="v" x1="-157.57" y1="66.11" x2="-167.26" y2="57.07" gradientTransform="translate(4.81 296.42) rotate(-174.23)" gradientUnits="userSpaceOnUse"><stop offset="0.17" stop-color="#0b6640"/><stop offset="0.2" stop-color="#1c704d"/><stop offset="0.32" stop-color="#539378"/><stop offset="0.44" stop-color="#83b19d"/><stop offset="0.55" stop-color="#aac9bb"/><stop offset="0.67" stop-color="#c9dcd3"/><stop offset="0.78" stop-color="#dfe9e3"/><stop offset="0.88" stop-color="#ecf1ee"/><stop offset="0.98" stop-color="#f0f4f1"/></linearGradient><linearGradient id="w" x1="208.87" y1="65.22" x2="199.18" y2="56.18" gradientTransform="matrix(0.99, 0.1, 0.1, -0.99, -38.2, 293.43)" gradientUnits="userSpaceOnUse"><stop offset="0.08" stop-color="#0b6640"/><stop offset="0.17" stop-color="#0b6640"/><stop offset="0.2" stop-color="#1c704d"/><stop offset="0.32" stop-color="#539378"/><stop offset="0.44" stop-color="#83b19d"/><stop offset="0.55" stop-color="#aac9bb"/><stop offset="0.67" stop-color="#c9dcd3"/><stop offset="0.78" stop-color="#dfe9e3"/><stop offset="0.88" stop-color="#ecf1ee"/><stop offset="0.98" stop-color="#f0f4f1"/></linearGradient><linearGradient id="x" x1="-161.57" y1="66.41" x2="-167.95" y2="60.46" gradientTransform="translate(4.81 296.42) rotate(-174.23)" xlink:href="#a"/><linearGradient id="y" x1="204.52" y1="66.56" x2="198.14" y2="60.61" gradientTransform="matrix(0.99, 0.1, 0.1, -0.99, -38.07, 293.45)" xlink:href="#a"/><linearGradient id="z" x1="-169.49" y1="65.92" x2="-161.02" y2="58.01" gradientTransform="translate(4.81 296.42) rotate(-174.23)" xlink:href="#a"/><linearGradient id="aa" x1="208.54" y1="65.2" x2="215.07" y2="59.11" gradientTransform="matrix(0.99, 0.1, 0.1, -0.99, -47.54, 292.47)" xlink:href="#a"/><linearGradient id="ab" x1="-157.92" y1="70.59" x2="-165.85" y2="63.19" gradientTransform="translate(4.81 296.42) rotate(-174.23)" gradientUnits="userSpaceOnUse"><stop offset="0.19" stop-color="#27182a"/><stop offset="0.2" stop-color="#2e2031"/><stop offset="0.32" stop-color="#615763"/><stop offset="0.44" stop-color="#8d878f"/><stop offset="0.55" stop-color="#b0aeb2"/><stop offset="0.67" stop-color="#cccdce"/><stop offset="0.78" stop-color="#e0e3e1"/><stop offset="0.88" stop-color="#ecf0ed"/><stop offset="0.98" stop-color="#f0f4f1"/></linearGradient><linearGradient id="ac" x1="-107.87" y1="113.54" x2="-113.52" y2="108.26" gradientTransform="translate(46.71 300) rotate(180)" xlink:href="#v"/><linearGradient id="ad" x1="153.43" y1="112.41" x2="147.78" y2="107.14" gradientTransform="matrix(1, 0, 0, -1, 5.86, 300)" xlink:href="#w"/><linearGradient id="ae" x1="-110.25" y1="113.77" x2="-113.97" y2="110.31" gradientTransform="translate(46.71 300) rotate(180)" xlink:href="#a"/><linearGradient id="af" x1="150.89" y1="113.12" x2="147.18" y2="109.65" gradientTransform="matrix(1, 0, 0, -1, 5.99, 300)" xlink:href="#a"/><linearGradient id="ag" x1="-114.07" y1="112.47" x2="-109.13" y2="107.87" gradientTransform="translate(46.71 300) rotate(180)" xlink:href="#a"/><linearGradient id="ah" x1="156.94" y1="111.68" x2="160.74" y2="108.13" gradientTransform="matrix(1, 0, 0, -1, -3.53, 300)" xlink:href="#a"/><linearGradient id="ai" x1="-108.09" y1="116.17" x2="-112.71" y2="111.85" gradientTransform="translate(46.71 300) rotate(180)" xlink:href="#ab"/></defs><g opacity="0.6"><path d="M197.9,124.8a3.4,3.4,0,0,1-.3,2c-.5,1-1.5,2.4-1.2,4a13.09,13.09,0,0,0,1.5,3.7s.2.6.6.4.2-.7,0-1a7,7,0,0,1-1.1-3.7,5.7,5.7,0,0,1,1.1-2.8c.3-.7.9-2.7.9-2.7Z" fill="url(#a)"/><path d="M200.5,123.6a3.4,3.4,0,0,0,.3,2c.5,1,1.5,2.4,1.2,4a13.09,13.09,0,0,1-1.5,3.7s-.2.6-.6.4-.2-.7,0-1A7,7,0,0,0,201,129a5.7,5.7,0,0,0-1.1-2.8c-.3-.7-.9-2.7-.9-2.7Z" opacity="0.5" fill="url(#b)" style="isolation:isolate"/><path d="M195.1,129.5a1.61,1.61,0,0,1-.9-.3,1.27,1.27,0,0,1-.4-.9,1.19,1.19,0,0,1,1.1-1.2h.1a.1.1,0,0,1,0,.2h0a.82.82,0,0,0-.9.8h0v.1a.91.91,0,0,0,.3.7,1,1,0,0,0,.9.2c1.1-.1,1.4-3.2,1.5-4.4a.1.1,0,0,1,.1-.1h0a.1.1,0,0,1,.1.1c0,.5-.2,4.5-1.7,4.7Z" opacity="0.6" fill="url(#c)" style="isolation:isolate"/><path d="M202.3,128.8H202c-1.5-.2-1.7-4.2-1.7-4.7a.1.1,0,0,1,.1-.1c.1,0,.1,0,.1.1h0c0,1.2.4,4.3,1.5,4.4a1,1,0,0,0,.9-.2.91.91,0,0,0,.3-.7.82.82,0,0,0-.8-.9h-.1a.1.1,0,0,1,0-.2h0a1.19,1.19,0,0,1,1.2,1v.1a1.09,1.09,0,0,1-.4.9A1.91,1.91,0,0,1,202.3,128.8Z" fill="url(#d)"/><path d="M196.4,136.2a.1.1,0,0,1-.1-.1h0a4.45,4.45,0,0,1,.6-3.2,4.89,4.89,0,0,1,1.2-1.3,3.56,3.56,0,0,0,1.6-2.2c.4-2.1-1.8-4.4-1.8-4.5s-.1-.1,0-.2h.2c.1.1,2.2,2.4,1.9,4.7a3.51,3.51,0,0,1-1.7,2.4,3.45,3.45,0,0,0-1.2,1.2,4,4,0,0,0-.6,3h0a.35.35,0,0,1-.1.2Z" opacity="0.6" fill="url(#e)" style="isolation:isolate"/><path d="M201.7,132.3c-.1,0-.1,0-.1-.1a3.45,3.45,0,0,0-1.2-1.2,3.51,3.51,0,0,1-1.7-2.4c-.4-2.3,1.8-4.6,1.9-4.7s.1-.1.2,0,.1.1,0,.2-2.1,2.3-1.8,4.4a3.31,3.31,0,0,0,1.6,2.2,3.74,3.74,0,0,1,1.2,1.3v.2A.1.1,0,0,1,201.7,132.3Z" fill="url(#f)"/><path d="M199.4,120.9a3.62,3.62,0,0,0-3,1.7c-.5.9-.8,2.2-.2,2.7.2.2.6.1,1.5,0l1.8-.3a5.08,5.08,0,0,1,1.7.3c.9.2,1,.3,1.2.2.5-.2.5-1.3.3-2A3.51,3.51,0,0,0,199.4,120.9Z" fill="url(#g)"/></g><g opacity="0.6"><path d="M165.3,205.2a1.9,1.9,0,0,1-.5,1.3,4.61,4.61,0,0,0-1.5,2.6,8.68,8.68,0,0,0,.5,2.8s.1.5.4.4.2-.5.1-.7a6.72,6.72,0,0,1-.3-2.8,7.61,7.61,0,0,1,1.2-1.9,20.12,20.12,0,0,0,1-1.8Z" fill="url(#h)"/><path d="M167.4,204.7a2.29,2.29,0,0,0-.1,1.4,5.11,5.11,0,0,1,.3,3,10,10,0,0,1-1.6,2.4s-.2.4-.5.2,0-.5.1-.7a7.22,7.22,0,0,0,1.4-2.4,5.58,5.58,0,0,0-.3-2.2c-.1-.5-.2-2-.2-2Z" opacity="0.5" fill="url(#i)" style="isolation:isolate"/><path d="M162.6,208.1c-.2,0-.4-.2-.6-.4a.88.88,0,0,1-.1-.7.78.78,0,0,1,.9-.6h.1a.1.1,0,0,1,.1.1h0a.1.1,0,0,1-.1.1.68.68,0,0,0-.8.4v.1a.75.75,0,0,0,.1.5.86.86,0,0,0,.6.3c.8.1,1.5-2.1,1.7-2.9a.1.1,0,0,1,.1-.1l.1.1h0c-.1.3-.9,3.2-2,3.1Z" opacity="0.6" fill="url(#j)" style="isolation:isolate"/><path d="M167.8,208.7l-.2-.1c-1-.4-.6-3.2-.5-3.6a.1.1,0,0,1,.1-.1h0l.1.1c-.1.9-.4,3.1.4,3.4a.85.85,0,0,0,.7,0,.54.54,0,0,0,.3-.4c.1-.3-.1-.7-.4-.7h-.1a.1.1,0,0,1-.1-.1h0a.1.1,0,0,1,.1-.1h0a1,1,0,0,1,.7.9v.1a2.09,2.09,0,0,1-.4.6Z" fill="url(#k)"/><path d="M162.5,213.1l-.1-.1h0a3.6,3.6,0,0,1,.9-2.2,4.13,4.13,0,0,1,1.1-.7,2.32,2.32,0,0,0,1.5-1.4c.6-1.5-.6-3.4-.6-3.4v-.1h.1c0,.1,1.2,2.1.6,3.6a2.94,2.94,0,0,1-1.6,1.5,3.59,3.59,0,0,0-1,.7,3.33,3.33,0,0,0-.9,2.1Z" opacity="0.6" fill="url(#l)" style="isolation:isolate"/><path d="M166.9,211.1c-.1,0-.1-.1,0,0a4.13,4.13,0,0,0-.7-1.1,2.79,2.79,0,0,1-.8-2c.1-1.7,2-3,2-3.1h.1v.1s-1.9,1.3-2,2.9a2.34,2.34,0,0,0,.8,1.8,4.13,4.13,0,0,1,.7,1.1.37.37,0,0,0-.1.3Z" fill="url(#m)"/><path d="M167,202.6a2.43,2.43,0,0,0-2.4.8c-.5.5-.9,1.5-.6,1.8a1.6,1.6,0,0,0,1,.2c.8.1.9,0,1.3.1a6.12,6.12,0,0,1,1.2.5c.6.3.7.4.9.4.4-.1.6-.8.6-1.4A2.8,2.8,0,0,0,167,202.6Z" fill="url(#n)"/></g><g opacity="0.6"><path d="M210.1,273.9a2.2,2.2,0,0,1-.2,1.4,5,5,0,0,0-.9,2.9,10.24,10.24,0,0,0,1.1,2.7s.1.5.5.3.1-.5,0-.7a5,5,0,0,1-.8-2.7,5,5,0,0,1,.8-2c.2-.5.6-2,.6-2Z" fill="url(#o)"/><path d="M212,273a2.2,2.2,0,0,0,.2,1.4,5,5,0,0,1,.9,2.9A10.24,10.24,0,0,1,212,280s-.1.5-.5.3-.1-.5,0-.7a5,5,0,0,0,.8-2.7,5,5,0,0,0-.8-2c-.2-.5-.6-2-.6-2Z" opacity="0.5" fill="url(#p)" style="isolation:isolate"/><path d="M208,277.3a1.07,1.07,0,0,1-.6-.2.86.86,0,0,1-.3-.6.79.79,0,0,1,.8-.8h.1c.1,0,.1,0,.1.1s0,.1-.1.1a.73.73,0,0,0-.7.6h0v.1a.76.76,0,0,0,.2.5.82.82,0,0,0,.7.1c.8-.1,1-2.3,1.1-3.2a.1.1,0,0,1,.2,0h0c0,.3-.2,3.3-1.3,3.4Z" opacity="0.6" fill="url(#q)" style="isolation:isolate"/><path d="M213.2,276.8H213c-1.1-.1-1.2-3.1-1.2-3.4,0-.1,0-.1.1-.1h0c.1,0,.1,0,.1.1h0c0,.9.3,3.1,1.1,3.2a.88.88,0,0,0,.7-.1.76.76,0,0,0,.2-.5.65.65,0,0,0-.6-.6h-.1c-.1,0-.1,0-.1-.1s0-.1.1-.1a1,1,0,0,1,.9.8h0v.1a.71.71,0,0,1-.3.6C213.7,276.7,213.5,276.8,213.2,276.8Z" fill="url(#r)"/><path d="M208.9,282.2a.1.1,0,0,1-.1-.1h0a3.1,3.1,0,0,1,.4-2.3,2,2,0,0,1,.9-.9,2.27,2.27,0,0,0,1.1-1.6c.3-1.5-1.3-3.2-1.3-3.2s-.1-.1,0-.1.1-.1.1,0h0c.1.1,1.6,1.8,1.4,3.4a2.79,2.79,0,0,1-1.2,1.8,3.82,3.82,0,0,0-.9.9,2.62,2.62,0,0,0-.4,2.1Z" opacity="0.6" fill="url(#s)" style="isolation:isolate"/><path d="M212.8,279.3h0a3.82,3.82,0,0,0-.9-.9,2.56,2.56,0,0,1-1.2-1.8c-.3-1.6,1.3-3.3,1.4-3.4h.1v.1h0s-1.6,1.7-1.3,3.2a2.09,2.09,0,0,0,1.1,1.6,2.58,2.58,0,0,1,.9.9c0,.2,0,.3-.1.3Z" fill="url(#t)"/><path d="M211.1,271a2.48,2.48,0,0,0-2.2,1.3c-.4.6-.6,1.6-.2,1.9.1.1.4.1,1.1,0a5.85,5.85,0,0,1,1.3-.2,5,5,0,0,1,1.2.2c.6.1.8.2.9.2.4-.2.4-.9.2-1.5A2.46,2.46,0,0,0,211.1,271Z" fill="url(#u)"/></g><g opacity="0.6"><path d="M174.3,243.5a5,5,0,0,0,.2,3.4c.7,1.9,2.1,4.4,1.4,6.9a25.54,25.54,0,0,1-3.1,5.9s-.4,1-1.1.6-.1-1.2.2-1.7a14.66,14.66,0,0,0,2.6-6c.2-2-1-3.8-1.4-5s-1-4.7-1-4.7Z" opacity="0.5" fill="url(#v)" style="isolation:isolate"/><path d="M170.6,245a5.12,5.12,0,0,1-.8,3.2c-1.1,1.7-3,3.9-2.8,6.5a23.44,23.44,0,0,0,1.8,6.4s.2,1.1,1,.8.4-1.2.2-1.7a14.13,14.13,0,0,1-1.3-6.4c.2-2,1.7-3.5,2.3-4.6s2-4.4,2-4.4Z" opacity="0.8" fill="url(#w)" style="isolation:isolate"/><path d="M176.1,253.5a2,2,0,0,0,1.6-.4,1.72,1.72,0,0,0,.8-1.4,1.83,1.83,0,0,0-1.6-2.1h-.2c-.1,0-.2.1-.3.2s.1.2.2.3h0a1.45,1.45,0,0,1,1.4,1.5h0v.2a2.38,2.38,0,0,1-.6,1.1,1.84,1.84,0,0,1-1.6.2c-1.8-.4-1.8-5.7-1.7-7.7a.2.2,0,1,0-.4,0c0,.8-.4,7.6,2.1,8.2Z" opacity="0.5" fill="url(#x)" style="isolation:isolate"/><path d="M166.7,253.5h.4c2.5,0,3.6-6.8,3.7-7.6,0-.1-.1-.2-.2-.3s-.3.1-.3.2c-.3,2-1.4,7.1-3.3,7.2a1.94,1.94,0,0,1-1.6-.5,1.75,1.75,0,0,1-.4-1.2,1.62,1.62,0,0,1,1.6-1.4h.1c.1,0,.2-.1.2-.3h0a.22.22,0,0,0-.2-.2,1.9,1.9,0,0,0-2.2,1.6v.2a1.94,1.94,0,0,0,.5,1.6A4.1,4.1,0,0,0,166.7,253.5Z" opacity="0.5" fill="url(#y)" style="isolation:isolate"/><path d="M174.2,262.5c.1,0,.2-.1.3-.2v-.1a7.23,7.23,0,0,0-2.4-7.8,5.9,5.9,0,0,1-2.3-4.1c-.2-3.7,3.8-7.2,3.8-7.2a.19.19,0,0,0,0-.3h0a.19.19,0,0,0-.3,0h0c-.2.1-4.2,3.7-4,7.6a6.13,6.13,0,0,0,2.4,4.4,7.87,7.87,0,0,1,1.8,2.2,6.72,6.72,0,0,1,.4,5.2v.1c0,.1,0,.3.2.3h0Z" opacity="0.5" fill="url(#z)" style="isolation:isolate"/><path d="M167.1,259.5c.1,0,.2,0,.2-.1a7.87,7.87,0,0,1,2.2-1.8,5.56,5.56,0,0,0,3.2-3.8c1.1-3.8-2.2-8.1-2.3-8.2a.22.22,0,0,0-.4.2h0a.1.1,0,0,0,.1.1s3.2,4.3,2.2,7.8a5.48,5.48,0,0,1-3,3.5,7.1,7.1,0,0,0-2.3,1.9.25.25,0,0,0,.1.4Z" opacity="0.5" fill="url(#aa)" style="isolation:isolate"/><path d="M172.9,240.7a5.85,5.85,0,0,1,4.8,3.5c.7,1.6.9,3.9-.1,4.5-.4.2-1.1.1-2.5-.3-1-.3-2-.6-3-.8a9.47,9.47,0,0,0-2.9.2c-1.5.2-1.8.4-2.1.2-.8-.5-.7-2.3-.2-3.5A6,6,0,0,1,172.9,240.7Z" fill="url(#ab)"/></g><g opacity="0.6"><path d="M158,184.5a3.08,3.08,0,0,0,.3,1.9c.5,1,1.5,2.4,1.2,3.9a14.19,14.19,0,0,1-1.4,3.6s-.2.6-.6.4-.2-.7,0-1a9.36,9.36,0,0,0,1.1-3.7,5.7,5.7,0,0,0-1.1-2.8c-.3-.7-.9-2.6-.9-2.6Z" opacity="0.5" fill="url(#ac)" style="isolation:isolate"/><path d="M155.9,185.6a3.08,3.08,0,0,1-.3,1.9c-.5,1-1.5,2.4-1.2,3.9a14.19,14.19,0,0,0,1.4,3.6s.2.6.6.4.1-.7,0-1a8,8,0,0,1-1.1-3.7,6.1,6.1,0,0,1,1.1-2.8c.3-.7.9-2.7.9-2.7Z" opacity="0.8" fill="url(#ad)" style="isolation:isolate"/><path d="M159.6,190.2a1.61,1.61,0,0,0,.9-.3,1.27,1.27,0,0,0,.4-.9,1,1,0,0,0-1-1.1h-.1a.1.1,0,0,0,0,.2.82.82,0,0,1,.9.8h0v.1a.91.91,0,0,1-.3.7,1,1,0,0,1-.9.2c-1-.1-1.4-3.2-1.5-4.4a.1.1,0,1,0-.2,0h0c0,.5.2,4.4,1.7,4.6Z" opacity="0.5" fill="url(#ae)" style="isolation:isolate"/><path d="M154.1,190.7h.3c1.5-.2,1.7-4.2,1.7-4.6,0-.1,0-.1-.1-.1a.1.1,0,0,0-.1.1c-.1,1.2-.4,4.2-1.5,4.4a1,1,0,0,1-.9-.2.91.91,0,0,1-.3-.7.88.88,0,0,1,.8-.9h.1a.1.1,0,0,0,0-.2,1.19,1.19,0,0,0-1.2,1v.1a1.09,1.09,0,0,0,.4.9A1.88,1.88,0,0,0,154.1,190.7Z" opacity="0.5" fill="url(#af)" style="isolation:isolate"/><path d="M159.1,195.5c.1,0,.1,0,.1-.1h0a4.54,4.54,0,0,0-.6-3.2,3.45,3.45,0,0,0-1.2-1.2,3.56,3.56,0,0,1-1.6-2.2c-.4-2.1,1.8-4.4,1.8-4.4s.1-.1,0-.2h-.2c-.1.1-2.2,2.4-1.8,4.6a3.51,3.51,0,0,0,1.7,2.4,3.18,3.18,0,0,1,1.1,1.2,4,4,0,0,1,.6,3h0c-.1,0,0,.1.1.1Z" opacity="0.5" fill="url(#ag)" style="isolation:isolate"/><path d="M154.8,194.2c.1,0,.1,0,.1-.1A5.73,5.73,0,0,1,156,193a3.51,3.51,0,0,0,1.7-2.4c.4-2.2-1.8-4.5-1.8-4.6s-.1-.1-.2,0h0c-.1.1-.1.1,0,.2s2.1,2.3,1.8,4.4a3.23,3.23,0,0,1-1.6,2.2,3.45,3.45,0,0,0-1.2,1.2c-.1.1-.1.2.1.2Z" opacity="0.5" fill="url(#ah)" style="isolation:isolate"/><path d="M157,182.9a3.62,3.62,0,0,1,3,1.7c.5.9.8,2.2.2,2.6a3,3,0,0,1-1.4,0l-1.8-.3a5.08,5.08,0,0,0-1.7.3c-.9.2-1,.3-1.2.2-.5-.2-.5-1.3-.3-2A3.55,3.55,0,0,1,157,182.9Z" fill="url(#ai)"/></g></svg>