<svg xmlns="http://www.w3.org/2000/svg" xmlns:xlink="http://www.w3.org/1999/xlink" width="296.6" height="397.6" viewBox="0 0 296.6 397.6"><defs><linearGradient id="a" x1="191.08" y1="590.79" x2="186.92" y2="594.67" gradientTransform="translate(0 -200)" gradientUnits="userSpaceOnUse"><stop offset="0.17" stop-color="#75b0b7"/><stop offset="0.22" stop-color="#84b8be"/><stop offset="0.38" stop-color="#aaced0"/><stop offset="0.54" stop-color="#c9dedf"/><stop offset="0.7" stop-color="#dfeae9"/><stop offset="0.85" stop-color="#ecf2ef"/><stop offset="0.98" stop-color="#f0f4f1"/></linearGradient><linearGradient id="b" x1="-349.02" y1="589.88" x2="-353.18" y2="593.77" gradientTransform="matrix(-1, 0, 0, 1, -161.15, -200)" xlink:href="#a"/><linearGradient id="c" x1="188.61" y1="590" x2="185.88" y2="592.55" xlink:href="#a"/><linearGradient id="d" x1="-350.94" y1="589.35" x2="-353.67" y2="591.9" gradientTransform="matrix(-1, 0, 0, 1, -161.28, -200)" xlink:href="#a"/><linearGradient id="e" x1="186.09" y1="591.74" x2="189.73" y2="595.13" xlink:href="#a"/><linearGradient id="f" x1="-344.01" y1="590.4" x2="-341.21" y2="593.01" gradientTransform="matrix(-1, 0, 0, 1, -151.76, -200)" xlink:href="#a"/><linearGradient id="g" x1="191.23" y1="587.1" x2="187.83" y2="590.28" xlink:href="#a"/><linearGradient id="h" x1="-424.5" y1="404.49" x2="-430.16" y2="409.76" gradientTransform="matrix(-1, 0, 0, 1, -155.29, -200)" gradientUnits="userSpaceOnUse"><stop offset="0.17" stop-color="#0b6640"/><stop offset="0.2" stop-color="#1c704d"/><stop offset="0.32" stop-color="#539378"/><stop offset="0.44" stop-color="#83b19d"/><stop offset="0.55" stop-color="#aac9bb"/><stop offset="0.67" stop-color="#c9dcd3"/><stop offset="0.78" stop-color="#dfe9e3"/><stop offset="0.88" stop-color="#ecf1ee"/><stop offset="0.98" stop-color="#f0f4f1"/></linearGradient><linearGradient id="i" x1="267.53" y1="403.29" x2="261.88" y2="408.56" gradientTransform="translate(5.86 -200)" gradientUnits="userSpaceOnUse"><stop offset="0.08" stop-color="#0b6640"/><stop offset="0.17" stop-color="#0b6640"/><stop offset="0.2" stop-color="#1c704d"/><stop offset="0.32" stop-color="#539378"/><stop offset="0.44" stop-color="#83b19d"/><stop offset="0.55" stop-color="#aac9bb"/><stop offset="0.67" stop-color="#c9dcd3"/><stop offset="0.78" stop-color="#dfe9e3"/><stop offset="0.88" stop-color="#ecf1ee"/><stop offset="0.98" stop-color="#f0f4f1"/></linearGradient><linearGradient id="j" x1="-428" y1="403.26" x2="-431.71" y2="406.74" gradientTransform="matrix(-1, 0, 0, 1, -155.29, -200)" xlink:href="#a"/><linearGradient id="k" x1="265.09" y1="402.68" x2="261.37" y2="406.15" gradientTransform="translate(5.99 -200)" xlink:href="#a"/><linearGradient id="l" x1="-431.09" y1="405.8" x2="-426.16" y2="410.4" gradientTransform="matrix(-1, 0, 0, 1, -155.29, -200)" xlink:href="#a"/><linearGradient id="m" x1="271.1" y1="404.04" x2="274.9" y2="407.59" gradientTransform="translate(-3.53 -200)" xlink:href="#a"/><linearGradient id="n" x1="-424.15" y1="399.64" x2="-428.77" y2="403.96" xlink:href="#h"/><linearGradient id="o" x1="-158.14" y1="409.35" x2="-163.79" y2="414.62" gradientTransform="matrix(-0.96, 0.26, 0.26, 0.96, -132.75, -188.61)" xlink:href="#h"/><linearGradient id="p" x1="1.08" y1="402.97" x2="-4.57" y2="408.24" gradientTransform="translate(19.29 -227.97) rotate(-15.15) scale(0.99)" xlink:href="#i"/><linearGradient id="q" x1="-161.69" y1="408.07" x2="-165.41" y2="411.53" gradientTransform="matrix(-0.96, 0.26, 0.26, 0.96, -132.75, -188.61)" xlink:href="#a"/><linearGradient id="r" x1="-1.52" y1="402.18" x2="-5.24" y2="405.65" gradientTransform="translate(19.42 -228) rotate(-15.15) scale(0.99)" xlink:href="#a"/><linearGradient id="s" x1="-165.75" y1="405.89" x2="-160.81" y2="410.49" gradientTransform="matrix(-0.96, 0.26, 0.26, 0.96, -132.75, -188.61)" xlink:href="#a"/><linearGradient id="t" x1="6.2" y1="404.11" x2="10.01" y2="407.66" gradientTransform="translate(10.23 -225.49) rotate(-15.15) scale(0.99)" xlink:href="#a"/><linearGradient id="u" x1="-157.98" y1="404.28" x2="-162.6" y2="408.6" gradientTransform="matrix(-0.96, 0.26, 0.26, 0.96, -132.75, -188.61)" xlink:href="#h"/><linearGradient id="v" x1="-83.55" y1="229.1" x2="-89.2" y2="234.37" gradientTransform="matrix(-0.96, 0.26, 0.26, 0.96, -132.75, -188.61)" xlink:href="#h"/><linearGradient id="w" x1="-74.55" y1="222.06" x2="-80.2" y2="227.34" gradientTransform="translate(19.29 -227.97) rotate(-15.15) scale(0.99)" xlink:href="#i"/><linearGradient id="x" x1="-87.13" y1="227.76" x2="-90.85" y2="231.23" gradientTransform="matrix(-0.96, 0.26, 0.26, 0.96, -132.75, -188.61)" xlink:href="#a"/><linearGradient id="y" x1="-77.1" y1="221.35" x2="-80.81" y2="224.82" gradientTransform="translate(19.42 -228) rotate(-15.15) scale(0.99)" xlink:href="#a"/><linearGradient id="z" x1="-89.51" y1="224.32" x2="-84.57" y2="228.93" gradientTransform="matrix(-0.96, 0.26, 0.26, 0.96, -132.75, -188.61)" xlink:href="#a"/><linearGradient id="aa" x1="-68.61" y1="224.1" x2="-64.81" y2="227.65" gradientTransform="translate(10.23 -225.49) rotate(-15.15) scale(0.99)" xlink:href="#a"/><linearGradient id="ab" x1="-83.38" y1="224.03" x2="-88" y2="228.35" gradientTransform="matrix(-0.96, 0.26, 0.26, 0.96, -132.75, -188.61)" xlink:href="#h"/><linearGradient id="ac" x1="-316" y1="370.32" x2="-325.22" y2="378.92" gradientTransform="matrix(-0.99, -0.15, -0.15, 0.99, -157.59, -203.44)" xlink:href="#h"/><linearGradient id="ad" x1="161.57" y1="369.54" x2="152.36" y2="378.14" gradientTransform="matrix(0.99, 0.15, -0.15, 0.99, 1.58, -181.74)" xlink:href="#i"/><linearGradient id="ae" x1="-321.63" y1="368.37" x2="-327.7" y2="374.03" gradientTransform="matrix(-0.99, -0.15, -0.15, 0.99, -157.59, -203.44)" xlink:href="#a"/><linearGradient id="af" x1="157.51" y1="368.36" x2="151.44" y2="374.03" gradientTransform="matrix(0.99, 0.15, -0.15, 0.99, 1.71, -181.72)" xlink:href="#a"/><linearGradient id="ag" x1="-324.85" y1="372.26" x2="-316.8" y2="379.78" gradientTransform="matrix(-0.99, -0.15, -0.15, 0.99, -157.59, -203.44)" xlink:href="#a"/><linearGradient id="ah" x1="160.69" y1="370.43" x2="166.9" y2="376.23" gradientTransform="matrix(0.99, 0.15, -0.15, 0.99, -7.71, -183.18)" xlink:href="#a"/><linearGradient id="ai" x1="-315.6" y1="362.2" x2="-323.15" y2="369.24" gradientTransform="matrix(-0.99, -0.15, -0.15, 0.99, -157.59, -203.44)" xlink:href="#h"/><linearGradient id="aj" x1="-315.6" y1="426.09" x2="-321.25" y2="431.36" xlink:href="#h"/><linearGradient id="ak" x1="159.22" y1="427.19" x2="153.57" y2="432.46" xlink:href="#i"/><linearGradient id="al" x1="-317.98" y1="425.85" x2="-321.7" y2="429.32" gradientTransform="matrix(-1, 0, 0, 1, -155.29, -200)" xlink:href="#a"/><linearGradient id="am" x1="156.68" y1="426.48" x2="152.96" y2="429.95" gradientTransform="translate(5.99 -200)" xlink:href="#a"/><linearGradient id="an" x1="-321.85" y1="427.11" x2="-316.91" y2="431.72" gradientTransform="matrix(-1, 0, 0, 1, -155.29, -200)" xlink:href="#a"/><linearGradient id="ao" x1="162.71" y1="427.91" x2="166.51" y2="431.46" gradientTransform="translate(-3.53 -200)" xlink:href="#a"/><linearGradient id="ap" x1="-315.86" y1="423.41" x2="-320.49" y2="427.72" gradientTransform="matrix(-1, 0, 0, 1, -155.29, -200)" gradientUnits="userSpaceOnUse"><stop offset="0.19" stop-color="#27182a"/><stop offset="0.2" stop-color="#2e2031"/><stop offset="0.32" stop-color="#615763"/><stop offset="0.44" stop-color="#8d878f"/><stop offset="0.55" stop-color="#b0aeb2"/><stop offset="0.67" stop-color="#cccdce"/><stop offset="0.78" stop-color="#e0e3e1"/><stop offset="0.88" stop-color="#ecf0ed"/><stop offset="0.98" stop-color="#f0f4f1"/></linearGradient><linearGradient id="aq" x1="-348.43" y1="357.01" x2="-354.08" y2="362.28" xlink:href="#h"/><linearGradient id="ar" x1="191.99" y1="358.12" x2="186.34" y2="363.39" xlink:href="#i"/><linearGradient id="as" x1="-350.85" y1="356.72" x2="-354.56" y2="360.19" gradientTransform="matrix(-1, 0, 0, 1, -155.29, -200)" xlink:href="#a"/><linearGradient id="at" x1="189.52" y1="357.47" x2="185.8" y2="360.94" gradientTransform="translate(5.99 -200)" xlink:href="#a"/><linearGradient id="au" x1="-354.58" y1="358" x2="-349.64" y2="362.61" gradientTransform="matrix(-1, 0, 0, 1, -155.29, -200)" xlink:href="#a"/><linearGradient id="av" x1="195.5" y1="358.85" x2="199.31" y2="362.4" gradientTransform="translate(-3.53 -200)" xlink:href="#a"/><linearGradient id="aw" x1="-348.68" y1="354.33" x2="-353.32" y2="358.65" xlink:href="#ap"/><linearGradient id="ax" x1="-409.14" y1="236.73" x2="-414.79" y2="242" xlink:href="#h"/><linearGradient id="ay" x1="252.7" y1="237.81" x2="247.05" y2="243.08" xlink:href="#i"/><linearGradient id="az" x1="-411.49" y1="236.52" x2="-415.21" y2="239.99" gradientTransform="matrix(-1, 0, 0, 1, -155.29, -200)" xlink:href="#a"/><linearGradient id="ba" x1="250.22" y1="237.15" x2="246.5" y2="240.62" gradientTransform="translate(5.99 -200)" xlink:href="#a"/><linearGradient id="bb" x1="-415.3" y1="237.7" x2="-410.36" y2="242.3" gradientTransform="matrix(-1, 0, 0, 1, -155.29, -200)" xlink:href="#a"/><linearGradient id="bc" x1="256.25" y1="238.54" x2="260.05" y2="242.09" gradientTransform="translate(-3.53 -200)" xlink:href="#a"/><linearGradient id="bd" x1="-409.35" y1="234.1" x2="-413.99" y2="238.42" xlink:href="#ap"/></defs><g opacity="0.6"><path d="M188.5,389.3a2.2,2.2,0,0,1-.2,1.4,5,5,0,0,0-.9,2.9,10.24,10.24,0,0,0,1.1,2.7s.1.5.5.3.1-.5,0-.7a5,5,0,0,1-.8-2.7,5,5,0,0,1,.8-2c.2-.5.6-2,.6-2Z" fill="url(#a)"/><path d="M190.4,388.4a2.2,2.2,0,0,0,.2,1.4,5,5,0,0,1,.9,2.9,10.24,10.24,0,0,1-1.1,2.7s-.1.5-.4.3-.1-.5,0-.7a5,5,0,0,0,.8-2.7,5,5,0,0,0-.8-2c-.2-.5-.6-2-.6-2Z" opacity="0.5" fill="url(#b)" style="isolation:isolate"/><path d="M186.5,392.7a1.07,1.07,0,0,1-.6-.2.86.86,0,0,1-.3-.6.79.79,0,0,1,.8-.8h.1c.1,0,.1,0,.1.1s0,.1-.1.1a.58.58,0,0,0-.6.6h0v.1a.76.76,0,0,0,.2.5.82.82,0,0,0,.7.1c.8-.1,1-2.3,1.1-3.2,0-.1,0-.1.1-.1a.1.1,0,0,1,.1.1h0c0,.3-.2,3.3-1.2,3.4Z" opacity="0.6" fill="url(#c)" style="isolation:isolate"/><path d="M191.7,392.2h-.2c-1.1-.1-1.2-3.1-1.3-3.4,0-.1,0-.1.1-.1s.1,0,.1.1c0,.9.3,3.1,1.1,3.2a1,1,0,0,0,.7-.2.76.76,0,0,0,.2-.5.65.65,0,0,0-.6-.6h-.1a.1.1,0,0,1-.1-.1h0c0-.1,0-.1.1-.1a.88.88,0,0,1,.9.8v.1a.82.82,0,0,1-.9.8Z" fill="url(#d)"/><path d="M187.4,397.6a.1.1,0,0,1-.1-.1h0a3.36,3.36,0,0,1,.4-2.4,2,2,0,0,1,.9-.9,2.27,2.27,0,0,0,1.1-1.6c.3-1.5-1.3-3.2-1.3-3.2v-.1h.1c.1.1,1.6,1.8,1.4,3.4a2.79,2.79,0,0,1-1.2,1.8,3.82,3.82,0,0,0-.9.9,2.85,2.85,0,0,0-.4,2.2Z" opacity="0.6" fill="url(#e)" style="isolation:isolate"/><path d="M191.2,394.7h0l-.9-.9a2.56,2.56,0,0,1-1.2-1.8c-.3-1.6,1.3-3.4,1.4-3.4h.1v.1s-1.6,1.7-1.3,3.2a2.36,2.36,0,0,0,1.1,1.6,2.8,2.8,0,0,1,.8,1.2Z" fill="url(#f)"/><path d="M189.6,386.4a2.48,2.48,0,0,0-2.2,1.3c-.4.6-.6,1.6-.2,1.9.1.1.4.1,1.1,0a5.85,5.85,0,0,1,1.3-.2,5,5,0,0,1,1.2.2c.6.1.7.2.9.2.4-.2.4-.9.2-1.5A2.56,2.56,0,0,0,189.6,386.4Z" fill="url(#g)"/></g><g opacity="0.6"><path d="M272.6,202.5a3.08,3.08,0,0,0,.3,1.9c.5,1,1.5,2.4,1.2,3.9a14.19,14.19,0,0,1-1.4,3.6s-.2.6-.6.4-.2-.7,0-1a7.94,7.94,0,0,0,1.1-3.6,6.1,6.1,0,0,0-1.1-2.8c-.3-.7-.9-2.7-.9-2.7Z" opacity="0.7" fill="url(#h)" style="isolation:isolate"/><path d="M270,201.3a3.08,3.08,0,0,1-.3,1.9c-.5,1-1.5,2.4-1.2,3.9a14.19,14.19,0,0,0,1.4,3.6s.2.6.6.4.2-.7,0-1a9.36,9.36,0,0,1-1.1-3.7,6.1,6.1,0,0,1,1.1-2.8c.3-.7.9-2.7.9-2.7Z" opacity="0.5" fill="url(#i)" style="isolation:isolate"/><path d="M275.4,207.2a1.61,1.61,0,0,0,.9-.3,1.27,1.27,0,0,0,.4-.9,1.11,1.11,0,0,0-1.1-1.1h-.1a.1.1,0,0,0-.1.1h0c0,.1,0,.1.1.1h0a.82.82,0,0,1,.9.8v.1a.91.91,0,0,1-.3.7,1,1,0,0,1-.9.2c-1-.1-1.4-3.2-1.5-4.4a.1.1,0,1,0-.2,0c0,.4.2,4.4,1.7,4.6Z" opacity="0.5" fill="url(#j)" style="isolation:isolate"/><path d="M268.3,206.5h.3c1.5-.2,1.7-4.2,1.7-4.6a.1.1,0,0,0-.2,0c0,1.2-.4,4.2-1.5,4.4a1,1,0,0,1-.9-.2.91.91,0,0,1-.3-.7.82.82,0,0,1,.8-.9h.1a.1.1,0,1,0,0-.2h0a1.19,1.19,0,0,0-1.2,1v.1a1.09,1.09,0,0,0,.4.9A1.29,1.29,0,0,0,268.3,206.5Z" opacity="0.8" fill="url(#k)" style="isolation:isolate"/><path d="M274.1,213.8c.1,0,.1,0,.1-.1h0a4.54,4.54,0,0,0-.6-3.2,3.45,3.45,0,0,0-1.2-1.2,3.09,3.09,0,0,1-1.5-2.3c-.4-2.1,1.8-4.4,1.8-4.4s.1-.1,0-.2-.1-.1-.2,0h0c-.1.1-2.2,2.4-1.8,4.6a3.51,3.51,0,0,0,1.7,2.4,2.54,2.54,0,0,1,1.1,1.2,4,4,0,0,1,.6,3v.2c-.1-.1-.1,0,0,0Z" opacity="0.5" fill="url(#l)" style="isolation:isolate"/><path d="M268.9,209.9c.1,0,.1,0,.1-.1a4.26,4.26,0,0,1,1.1-1.2,3.51,3.51,0,0,0,1.7-2.4c.4-2.2-1.8-4.5-1.8-4.6s-.1-.1-.2,0-.1.1,0,.2h0s2.1,2.3,1.8,4.4a3.41,3.41,0,0,1-1.5,2.2,3.45,3.45,0,0,0-1.2,1.2q-.3.3,0,.3Z" opacity="0.5" fill="url(#m)" style="isolation:isolate"/><path d="M271.1,198.7a3.62,3.62,0,0,1,3,1.7c.5.9.7,2.2.2,2.6a3.34,3.34,0,0,1-1.5,0l-1.8-.3a5.08,5.08,0,0,0-1.7.3c-.9.2-1,.3-1.2.2-.5-.2-.5-1.3-.3-2A3.64,3.64,0,0,1,271.1,198.7Z" fill="url(#n)"/></g><g opacity="0.6"><path d="M124.5,157.4a3,3,0,0,0,.8,1.8c.8.9,2.1,1.9,2.2,3.5a17.22,17.22,0,0,1-.4,3.9s0,.6-.5.6-.3-.6-.3-.9a8.14,8.14,0,0,0,.1-3.8,6.9,6.9,0,0,0-1.8-2.4c-.5-.6-1.6-2.3-1.6-2.3Z" opacity="0.7" fill="url(#o)" style="isolation:isolate"/><path d="M121.7,156.9a2.54,2.54,0,0,1,.2,1.9c-.2,1.1-.8,2.7-.1,4.1a13.86,13.86,0,0,0,2.3,3.1s.3.6.7.2,0-.7-.2-.9a9.88,9.88,0,0,1-2.1-3.2,7.69,7.69,0,0,1,.3-3c.1-.7.1-2.8.1-2.8Z" opacity="0.5" fill="url(#p)" style="isolation:isolate"/><path d="M128.4,161.2a2.18,2.18,0,0,0,.8-.5,1,1,0,0,0,.1-.9,1,1,0,0,0-1.3-.8h-.1c-.1,0-.1.1-.1.2s.1.1.2.1a.89.89,0,0,1,1.1.5h0v.1a.88.88,0,0,1-.1.7.91.91,0,0,1-.8.4c-1,.1-2.2-2.7-2.6-3.8a.1.1,0,0,0-.1-.1h0a.1.1,0,0,0-.1.1h0v.1c.1.4,1.4,4.2,2.9,4Z" opacity="0.5" fill="url(#q)" style="isolation:isolate"/><path d="M121.4,162.3c.1,0,.2,0,.2-.1,1.4-.6.5-4.4.4-4.9a.1.1,0,0,0-.1-.1h0a.1.1,0,0,0-.1.1h0c.3,1.1.7,4.2-.3,4.6a.91.91,0,0,1-1,0,1,1,0,0,1-.5-.6,1,1,0,0,1,.5-1.1h.1c.1,0,.1-.1.1-.2s-.1-.1-.2-.1a1.13,1.13,0,0,0-.9,1.3v.1a1.06,1.06,0,0,0,.6.7A1.18,1.18,0,0,0,121.4,162.3Z" opacity="0.8" fill="url(#r)" style="isolation:isolate"/><path d="M129,167.9a.1.1,0,0,0,.1-.1h0a4.45,4.45,0,0,0-1.4-2.9,3.77,3.77,0,0,0-1.5-.9,3.59,3.59,0,0,1-2.1-1.7c-.9-1.9.5-4.7.6-4.7s0-.2-.1-.2-.2,0-.2.1h0c-.1.1-1.5,2.9-.6,5a3.75,3.75,0,0,0,2.2,1.9,3.92,3.92,0,0,1,1.4.8,3.72,3.72,0,0,1,1.3,2.8v.1c.1-.2.2-.1.3-.2Z" opacity="0.5" fill="url(#s)" style="isolation:isolate"/><path d="M122.9,165.5l.1-.1a3.92,3.92,0,0,1,.8-1.4,3.39,3.39,0,0,0,1-2.7c-.2-2.3-2.9-3.9-3-4s-.1,0-.2.1v.2s2.7,1.7,2.9,3.8a3.61,3.61,0,0,1-.9,2.6,2.33,2.33,0,0,0-.7,1.5c-.2-.1-.2,0,0,0Z" opacity="0.5" fill="url(#t)" style="isolation:isolate"/><path d="M122.1,154a3.57,3.57,0,0,1,3.4.9c.7.7,1.3,1.9.9,2.5-.2.2-.6.3-1.4.4a11,11,0,0,0-1.8.2,6.89,6.89,0,0,0-1.5.7c-.8.4-.9.6-1.1.5-.5-.1-.8-1.1-.8-1.8A3.26,3.26,0,0,1,122.1,154Z" fill="url(#u)"/></g><g opacity="0.6"><path d="M4.8,3.5a3,3,0,0,0,.8,1.8c.8.9,2.1,1.9,2.2,3.5a17.22,17.22,0,0,1-.4,3.9s0,.6-.5.6-.3-.6-.3-.9a7.83,7.83,0,0,0,.2-4A6.9,6.9,0,0,0,5,6c-.4-.6-1.5-2.3-1.5-2.3Z" opacity="0.7" fill="url(#v)" style="isolation:isolate"/><path d="M2,3a2.54,2.54,0,0,1,.2,1.9C2,6.1,1.5,7.7,2.1,9a13.86,13.86,0,0,0,2.3,3.1s.3.6.7.2,0-.7-.3-.9A9.88,9.88,0,0,1,2.7,8.2a7.69,7.69,0,0,1,.3-3c.1-.7.2-2.8.2-2.8Z" opacity="0.5" fill="url(#w)" style="isolation:isolate"/><path d="M8.8,7.2a.75.75,0,0,0,.7-.5,1.18,1.18,0,0,0,.1-1A1,1,0,0,0,8.3,5H8.2l-.1.1h0a.1.1,0,0,0,.1.1h.1a1,1,0,0,1,1.1.5v.1a.88.88,0,0,1-.1.7,1,1,0,0,1-.8.5c-1,.2-2.2-2.7-2.6-3.8,0-.1-.1-.1-.2-.1s-.1.1-.1.2c.1.4,1.4,4.2,2.9,4Z" opacity="0.5" fill="url(#x)" style="isolation:isolate"/><path d="M1.7,8.4,2,8.3c1.4-.6.5-4.5.4-4.9,0-.1-.1-.1-.2-.1s-.1.1-.1.2c.3,1.1.7,4.2-.3,4.6a1.39,1.39,0,0,1-.9,0,.92.92,0,0,1-.4-.6.75.75,0,0,1,.5-1h.1a.1.1,0,0,0,.1-.1h0a.1.1,0,0,0-.1-.1H1A.88.88,0,0,0,.2,7.5h0v.1a1.56,1.56,0,0,0,.6.8A1.39,1.39,0,0,0,1.7,8.4Z" opacity="0.8" fill="url(#y)" style="isolation:isolate"/><path d="M9.3,14a.1.1,0,0,0,.1-.1h0A4.46,4.46,0,0,0,6.5,10,3.26,3.26,0,0,1,4.4,8.3c-.9-2,.5-4.7.6-4.7s0-.2-.1-.2H4.7c-.1.1-1.5,2.9-.6,5a3.49,3.49,0,0,0,2.2,1.9,6.38,6.38,0,0,1,1.4.8A3.68,3.68,0,0,1,9,13.8H9c.2.1.2.2.3.2Z" opacity="0.5" fill="url(#z)" style="isolation:isolate"/><path d="M3.2,11.6l.1-.1a3.92,3.92,0,0,1,.8-1.4,3.39,3.39,0,0,0,1-2.7c-.2-2.3-2.9-3.9-3-4s-.1,0-.1,0v.1S4.7,5.2,4.9,7.3A3.24,3.24,0,0,1,4,9.8a4.62,4.62,0,0,0-.9,1.5c-.1.2,0,.3.1.3Z" opacity="0.5" fill="url(#aa)" style="isolation:isolate"/><path d="M2.4.1A3.32,3.32,0,0,1,5.7,1c.7.7,1.3,1.9.9,2.5-.1.2-.5.2-1.3.3-.6.1-1.2.1-1.8.2A10.93,10.93,0,0,0,2,4.8c-.8.4-.9.5-1.1.5C.3,5.2,0,4.2,0,3.5A3.58,3.58,0,0,1,2.4.1Z" fill="url(#ab)"/></g><g opacity="0.6"><path d="M104.8,207a5.8,5.8,0,0,0,0,3.2c.6,1.8,1.8,4.3,1,6.6a23.26,23.26,0,0,1-3.2,5.5s-.5.9-1.1.5-.1-1.2.2-1.6a14.78,14.78,0,0,0,2.8-5.6c.3-1.9-.8-3.6-1-4.8s-.8-4.5-.8-4.5Z" opacity="0.7" fill="url(#ac)" style="isolation:isolate"/><path d="M101,204.4a4.72,4.72,0,0,1-1,3c-1.1,1.6-3,3.5-3,6a26.51,26.51,0,0,0,1.4,6.2s.2,1,.9.8.4-1.1.2-1.6a13.22,13.22,0,0,1-.9-6.2c.3-1.9,1.8-3.2,2.4-4.2s2.1-4.1,2.1-4.1Z" opacity="0.5" fill="url(#ad)" style="isolation:isolate"/><path d="M108.2,215.2a2,2,0,0,0,1.5-.3,2.22,2.22,0,0,0,.8-1.3,1.82,1.82,0,0,0-1.4-2.1h-.2c-.1,0-.2.1-.3.2s.1.2.2.3h0a1.29,1.29,0,0,1,1.2,1.5h0v.1a1.7,1.7,0,0,1-.6,1,1.79,1.79,0,0,1-1.6.1c-1.7-.5-1.5-5.5-1.3-7.4a.2.2,0,1,0-.4,0h0c-.1.7-.7,7.2,1.6,7.9Z" opacity="0.5" fill="url(#ae)" style="isolation:isolate"/><path d="M96.9,212.3h.4c2.4.1,3.8-6.3,3.9-7,0-.1,0-.3-.1-.3H101c-.1,0-.2.1-.3.2-.4,1.9-1.7,6.7-3.4,6.6a1.82,1.82,0,0,1-1.4-.6,1.25,1.25,0,0,1-.3-1.2,1.51,1.51,0,0,1,1.6-1.1h.1a.22.22,0,0,0,.2-.2c0-.1-.1-.2-.2-.3h0a1.74,1.74,0,0,0-2.1,1.4h0v.2a2,2,0,0,0,.4,1.5A1.83,1.83,0,0,0,96.9,212.3Z" opacity="0.8" fill="url(#af)" style="isolation:isolate"/><path d="M104.5,225.7c.1,0,.2,0,.2-.1v-.1a7,7,0,0,0-.2-5.3,5.55,5.55,0,0,0-1.7-2.3,5.56,5.56,0,0,1-2-4c-.1-3.5,3.9-6.6,4-6.7a.19.19,0,0,0,0-.3h0a.19.19,0,0,0-.3,0c-.2.1-4.2,3.3-4.1,7a5.6,5.6,0,0,0,2.1,4.3,6,6,0,0,1,1.6,2.2,6.67,6.67,0,0,1,.2,5v.1c-.1,0,0,.1.2.2Z" opacity="0.5" fill="url(#ag)" style="isolation:isolate"/><path d="M97,218c.1,0,.2,0,.2-.1a6.52,6.52,0,0,1,2.1-1.6,6.12,6.12,0,0,0,3.3-3.4c1.2-3.5-1.7-7.8-1.8-7.9a.22.22,0,0,0-.4.2s2.9,4.2,1.8,7.6a5.55,5.55,0,0,1-3,3.2,7.64,7.64,0,0,0-2.3,1.7c-.1,0-.1.2.1.3Z" opacity="0.5" fill="url(#ah)" style="isolation:isolate"/><path d="M103.5,200.4a5.61,5.61,0,0,1,4.4,3.6c.6,1.5.7,3.7-.3,4.3-.4.2-1,0-2.3-.4-.9-.3-1.9-.6-2.8-.9a13.09,13.09,0,0,0-2.8,0c-1.4.1-1.7.3-2,.1-.7-.5-.5-2.2,0-3.3A5.8,5.8,0,0,1,103.5,200.4Z" fill="url(#ai)"/></g><g opacity="0.6"><path d="M163.7,224.1a3.08,3.08,0,0,0,.3,1.9c.5,1,1.5,2.4,1.2,3.9a14.19,14.19,0,0,1-1.4,3.6s-.2.6-.6.4-.2-.7,0-1a7.94,7.94,0,0,0,1.1-3.6,5.7,5.7,0,0,0-1.1-2.8c-.3-.7-.9-2.7-.9-2.7Z" opacity="0.5" fill="url(#aj)" style="isolation:isolate"/><path d="M161.7,225.2a3.08,3.08,0,0,1-.3,1.9c-.5,1-1.5,2.4-1.2,3.9a14.19,14.19,0,0,0,1.4,3.6s.2.6.6.4.1-.7,0-1a6.89,6.89,0,0,1-1.1-3.6,5.7,5.7,0,0,1,1.1-2.8c.3-.7.9-2.6.9-2.6Z" opacity="0.8" fill="url(#ak)" style="isolation:isolate"/><path d="M165.4,229.8a1.61,1.61,0,0,0,.9-.3,1.27,1.27,0,0,0,.4-.9,1.11,1.11,0,0,0-1.1-1.1h-.1a.1.1,0,1,0,0,.2h0a.82.82,0,0,1,.9.8h0v.1a.91.91,0,0,1-.3.7,1,1,0,0,1-.9.2c-1-.1-1.4-3.2-1.5-4.4a.1.1,0,0,0-.1-.1h0c-.1,0-.1,0-.1.1h0c0,.4.2,4.4,1.7,4.6Z" opacity="0.5" fill="url(#al)" style="isolation:isolate"/><path d="M159.9,230.3h.3c1.5-.2,1.7-4.1,1.7-4.6a.1.1,0,0,0-.1-.1c-.1,0-.1,0-.1.1h0c0,1.2-.4,4.2-1.5,4.4a1,1,0,0,1-.9-.2.91.91,0,0,1-.3-.7.88.88,0,0,1,.8-.9h.1a.1.1,0,0,0,.1-.1l-.1-.1h0a1.19,1.19,0,0,0-1.2,1v.1a1.22,1.22,0,0,0,.4.9A1.88,1.88,0,0,0,159.9,230.3Z" opacity="0.5" fill="url(#am)" style="isolation:isolate"/><path d="M164.8,235.1c.1,0,.1,0,.2-.1h0a4.54,4.54,0,0,0-.6-3.2,3.45,3.45,0,0,0-1.2-1.2,3.56,3.56,0,0,1-1.6-2.2c-.4-2.1,1.8-4.4,1.8-4.4s.1-.1,0-.2-.1-.1-.2,0h0c-.1.1-2.2,2.4-1.8,4.6a3.51,3.51,0,0,0,1.7,2.4,4,4,0,0,1,1.7,4.3Z" opacity="0.5" fill="url(#an)" style="isolation:isolate"/><path d="M160.5,233.8c.1,0,.1,0,.1-.1a4.26,4.26,0,0,1,1.1-1.2,3.51,3.51,0,0,0,1.7-2.4c.4-2.2-1.8-4.6-1.8-4.6h-.2c-.1,0-.1.1,0,.2h0s2.1,2.3,1.8,4.4a3.23,3.23,0,0,1-1.6,2.2,3.45,3.45,0,0,0-1.2,1.2.37.37,0,0,0,.1.3Z" opacity="0.5" fill="url(#ao)" style="isolation:isolate"/><path d="M162.8,222.5a3.62,3.62,0,0,1,3,1.7c.5.9.8,2.2.2,2.6-.2.2-.6.1-1.4,0l-1.8-.3a5.08,5.08,0,0,0-1.7.3c-.9.2-1,.3-1.2.2-.5-.2-.5-1.3-.3-2A3.55,3.55,0,0,1,162.8,222.5Z" fill="url(#ap)"/></g><g opacity="0.6"><path d="M196.5,155a3.08,3.08,0,0,0,.3,1.9c.5,1,1.5,2.4,1.2,3.9a14.19,14.19,0,0,1-1.4,3.6s-.2.6-.6.4-.1-.7,0-1a7,7,0,0,0,1.1-3.7,6.1,6.1,0,0,0-1.1-2.8c-.3-.7-.9-2.7-.9-2.7Z" opacity="0.5" fill="url(#aq)" style="isolation:isolate"/><path d="M194.5,156.1a3.08,3.08,0,0,1-.3,1.9c-.5,1-1.5,2.4-1.2,3.9a14.19,14.19,0,0,0,1.4,3.6s.2.6.6.4.2-.7,0-1a7.94,7.94,0,0,1-1.1-3.6,5.7,5.7,0,0,1,1.1-2.8c.3-.7.9-2.7.9-2.7Z" opacity="0.8" fill="url(#ar)" style="isolation:isolate"/><path d="M198.2,160.7a1.29,1.29,0,0,0,1.3-1.1v-.1a1,1,0,0,0-1-1.1h-.1a.1.1,0,0,0-.1.1l.1.1h0a.82.82,0,0,1,.9.8h0v.1a.91.91,0,0,1-.3.7,1,1,0,0,1-.9.2c-1.1-.1-1.4-3.2-1.5-4.4a.1.1,0,0,0-.2,0h0c0,.4.2,4.4,1.7,4.6Z" opacity="0.5" fill="url(#as)" style="isolation:isolate"/><path d="M192.7,161.3h.3c1.5-.2,1.7-4.2,1.7-4.6a.1.1,0,0,0-.1-.1l-.1.1h0c0,1.2-.4,4.2-1.5,4.4a1,1,0,0,1-.9-.2.91.91,0,0,1-.3-.7.82.82,0,0,1,.8-.9h.1a.1.1,0,0,0,.1-.1h0a.1.1,0,0,0-.1-.1h0a1.19,1.19,0,0,0-1.2,1v.1a1.09,1.09,0,0,0,.4.9A1.88,1.88,0,0,0,192.7,161.3Z" opacity="0.5" fill="url(#at)" style="isolation:isolate"/><path d="M197.6,166a.1.1,0,0,0,.1-.1h0a4.37,4.37,0,0,0-1.8-4.4,3.56,3.56,0,0,1-1.6-2.2c-.4-2.1,1.8-4.4,1.8-4.4v-.2h0c0-.1-.1-.1-.2,0h0c-.1.1-2.2,2.4-1.8,4.6a3.51,3.51,0,0,0,1.7,2.4,2.54,2.54,0,0,1,1.1,1.2,4.77,4.77,0,0,1,.7,3.1h0c-.1-.1-.1,0,0,0Z" opacity="0.5" fill="url(#au)" style="isolation:isolate"/><path d="M193.3,164.7a.1.1,0,0,0,.1-.1,4.26,4.26,0,0,1,1.1-1.2,3.51,3.51,0,0,0,1.7-2.4c.4-2.2-1.8-4.5-1.9-4.6s-.1-.1-.2,0h0v.2s2.1,2.3,1.8,4.4a3.23,3.23,0,0,1-1.6,2.2,4.56,4.56,0,0,0-1.2,1.2.77.77,0,0,0,.2.3Z" opacity="0.5" fill="url(#av)" style="isolation:isolate"/><path d="M195.6,153.4a3.62,3.62,0,0,1,3,1.7c.5.9.7,2.2.2,2.6-.2.2-.6.1-1.4,0l-1.8-.3a5.08,5.08,0,0,0-1.7.3c-.8.2-1,.3-1.2.2-.5-.2-.5-1.3-.3-2A3.55,3.55,0,0,1,195.6,153.4Z" fill="url(#aw)"/></g><g opacity="0.6"><path d="M257.2,34.7a3.08,3.08,0,0,0,.3,1.9c.5,1,1.5,2.4,1.2,3.9a14.19,14.19,0,0,1-1.4,3.6s-.2.6-.6.4-.2-.7,0-1a8.9,8.9,0,0,0,1.1-3.6,5.7,5.7,0,0,0-1.1-2.8c-.3-.7-.9-2.7-.9-2.7Z" opacity="0.5" fill="url(#ax)" style="isolation:isolate"/><path d="M255.2,35.8a3.08,3.08,0,0,1-.3,1.9c-.5,1-1.5,2.4-1.2,3.9a14.19,14.19,0,0,0,1.4,3.6s.2.6.6.4.2-.7,0-1a8,8,0,0,1-1.1-3.7,5.7,5.7,0,0,1,1.1-2.8c.3-.7.9-2.7.9-2.7Z" opacity="0.8" fill="url(#ay)" style="isolation:isolate"/><path d="M258.9,40.4a1.61,1.61,0,0,0,.9-.3,1.27,1.27,0,0,0,.4-.9,1.19,1.19,0,0,0-1-1.2H259a.1.1,0,0,0-.1.1h0a.1.1,0,0,0,.1.1h0a.82.82,0,0,1,.9.8h0v.1a.91.91,0,0,1-.3.7,1,1,0,0,1-.9.2c-1-.1-1.4-3.2-1.5-4.3a.1.1,0,0,0-.1-.1c-.1,0-.1.1-.1.2,0,.5.2,4.4,1.7,4.6Z" opacity="0.5" fill="url(#az)" style="isolation:isolate"/><path d="M253.4,41h.3c1.5-.2,1.7-4.2,1.7-4.6a.1.1,0,0,0-.1-.1h0a.1.1,0,0,0-.1.1c-.1,1.2-.4,4.2-1.5,4.3a1,1,0,0,1-.9-.2.91.91,0,0,1-.3-.7.88.88,0,0,1,.8-.9h.1a.1.1,0,1,0,0-.2h0a1.19,1.19,0,0,0-1.2,1v.1a1.09,1.09,0,0,0,.4.9A1.14,1.14,0,0,0,253.4,41Z" opacity="0.5" fill="url(#ba)" style="isolation:isolate"/><path d="M258.3,45.7c.1,0,.1,0,.1-.1h0a4.54,4.54,0,0,0-.6-3.2,3.45,3.45,0,0,0-1.2-1.2A3.56,3.56,0,0,1,255,39c-.4-2.1,1.8-4.4,1.8-4.4s.1-.1,0-.2h-.2c-.1.1-2.2,2.4-1.8,4.6a3.72,3.72,0,0,0,1.6,2.4,2.54,2.54,0,0,1,1.1,1.2,4,4,0,0,1,.6,3h0a.31.31,0,0,0,.2.1Z" opacity="0.5" fill="url(#bb)" style="isolation:isolate"/><path d="M254,44.4c.1,0,.1,0,.1-.1a4.26,4.26,0,0,1,1.1-1.2,3.51,3.51,0,0,0,1.7-2.4c.4-2.2-1.8-4.5-1.8-4.6s-.1-.1-.2,0h0v.2h0s2.1,2.3,1.8,4.4a3.31,3.31,0,0,1-1.6,2.2,4.56,4.56,0,0,0-1.2,1.2c0,.2,0,.3.1.3Z" opacity="0.5" fill="url(#bc)" style="isolation:isolate"/><path d="M256.3,33.2a3.62,3.62,0,0,1,3,1.7c.5.9.8,2.2.2,2.6-.2.2-.6.1-1.4,0l-1.8-.3a5.08,5.08,0,0,0-1.7.3c-.9.2-1,.3-1.2.2-.5-.2-.5-1.3-.3-2A3.42,3.42,0,0,1,256.3,33.2Z" fill="url(#bd)"/></g></svg>