<svg xmlns="http://www.w3.org/2000/svg" xmlns:xlink="http://www.w3.org/1999/xlink" width="1718.8" height="1057.6" viewBox="0 0 1718.8 1057.6"><defs><linearGradient id="a" x1="42.06" y1="-97.09" x2="42.06" y2="-184.09" gradientTransform="translate(0 472.09)" gradientUnits="userSpaceOnUse"><stop offset="0" stop-color="#0b6640" stop-opacity="0"/><stop offset="0.15" stop-color="#0b6640" stop-opacity="0.24"/><stop offset="0.43" stop-color="#0b6640" stop-opacity="0.65"/><stop offset="0.66" stop-color="#0b6640" stop-opacity="0.91"/><stop offset="0.79" stop-color="#0b6640"/></linearGradient><linearGradient id="b" x1="98.01" y1="-92.49" x2="98.01" y2="-140.59" xlink:href="#a"/><linearGradient id="c" x1="6036.9" y1="-100.99" x2="6036.9" y2="-149.09" gradientTransform="matrix(-1, 0, 0, 1, 6061.59, 472.09)" xlink:href="#a"/><linearGradient id="d" x1="5931.75" y1="-100.99" x2="5931.75" y2="-149.09" gradientTransform="matrix(-1, 0, 0, 1, 6061.59, 472.09)" xlink:href="#a"/><linearGradient id="e" x1="5950.95" y1="-116.59" x2="5950.95" y2="-164.69" gradientTransform="matrix(-1, 0, 0, 1, 6061.59, 472.09)" xlink:href="#a"/><linearGradient id="f" x1="63.96" y1="-107.79" x2="63.96" y2="-233.39" xlink:href="#a"/><linearGradient id="g" x1="6030.77" y1="-99.69" x2="6030.77" y2="-198.49" gradientTransform="matrix(-1, 0, 0, 1, 6112.06, 472.09)" xlink:href="#a"/><linearGradient id="h" x1="6106.97" y1="-72.89" x2="6106.97" y2="-171.69" gradientTransform="matrix(-1, 0, 0, 1, 6112.06, 472.09)" xlink:href="#a"/><linearGradient id="i" x1="5749.23" y1="-280.21" x2="5749.23" y2="-361.91" gradientTransform="matrix(-1, 0, 0, 1, 7400.47, 472.09)" xlink:href="#a"/><linearGradient id="j" x1="5709.63" y1="-219.79" x2="5709.63" y2="-301.49" gradientTransform="matrix(-1, 0, 0, 1, 7400.47, 472.09)" xlink:href="#a"/><linearGradient id="k" x1="5864.63" y1="-341.79" x2="5864.63" y2="-423.4" gradientTransform="matrix(-1, 0, 0, 1, 7400.47, 472.09)" xlink:href="#a"/><linearGradient id="l" x1="5801.63" y1="-312.49" x2="5801.63" y2="-357.69" gradientTransform="matrix(-1, 0, 0, 1, 7400.47, 472.09)" xlink:href="#a"/><linearGradient id="m" x1="5684.93" y1="-196.69" x2="5684.93" y2="-241.89" gradientTransform="matrix(-1, 0, 0, 1, 7400.47, 472.09)" xlink:href="#a"/><linearGradient id="n" x1="5903.33" y1="-311.79" x2="5903.33" y2="-356.99" gradientTransform="matrix(-1, 0, 0, 1, 7400.47, 472.09)" xlink:href="#a"/><linearGradient id="o" x1="328.68" y1="-260.29" x2="328.68" y2="-305.49" gradientTransform="translate(1338.88 472.09)" xlink:href="#a"/><linearGradient id="p" x1="176.88" y1="-336.03" x2="176.88" y2="-381.21" gradientTransform="translate(1338.88 472.09)" xlink:href="#a"/><linearGradient id="q" x1="5769.83" y1="-287.89" x2="5769.83" y2="-405.89" gradientTransform="matrix(-1, 0, 0, 1, 7400.47, 472.09)" xlink:href="#a"/><linearGradient id="r" x1="5820.03" y1="-344.89" x2="5820.03" y2="-462.85" gradientTransform="matrix(-1, 0, 0, 1, 7400.47, 472.09)" xlink:href="#a"/><linearGradient id="s" x1="326.09" y1="-317.29" x2="326.09" y2="-410.09" gradientTransform="translate(1288.41 472.09)" xlink:href="#a"/><linearGradient id="t" x1="268.69" y1="-334.49" x2="268.69" y2="-427.29" gradientTransform="translate(1288.41 472.09)" xlink:href="#a"/><linearGradient id="u" x1="1192.83" y1="572.51" x2="1192.83" y2="380.21" xlink:href="#a"/><linearGradient id="v" x1="1092.23" y1="505.61" x2="1092.23" y2="313.31" xlink:href="#a"/><linearGradient id="w" x1="1316.61" y1="582.71" x2="1316.61" y2="476.21" xlink:href="#a"/><linearGradient id="x" x1="1109.01" y1="567.21" x2="1109.01" y2="460.71" xlink:href="#a"/><linearGradient id="y" x1="4907.4" y1="564.01" x2="4907.4" y2="457.51" gradientTransform="matrix(-1, 0, 0, 1, 6061.59, 472.09)" xlink:href="#a"/><linearGradient id="z" x1="4841.9" y1="466.91" x2="4841.9" y2="360.41" gradientTransform="matrix(-1, 0, 0, 1, 6061.59, 472.09)" xlink:href="#a"/><linearGradient id="aa" x1="5001.1" y1="512.21" x2="5001.1" y2="405.71" gradientTransform="matrix(-1, 0, 0, 1, 6061.59, 472.09)" xlink:href="#a"/><linearGradient id="ab" x1="4674.7" y1="564.01" x2="4674.7" y2="457.51" gradientTransform="matrix(-1, 0, 0, 1, 6061.59, 472.09)" xlink:href="#a"/><linearGradient id="ac" x1="4717.3" y1="529.51" x2="4717.3" y2="423.01" gradientTransform="matrix(-1, 0, 0, 1, 6061.59, 472.09)" xlink:href="#a"/><linearGradient id="ad" x1="4749.1" y1="491.61" x2="4749.1" y2="385.11" gradientTransform="matrix(-1, 0, 0, 1, 6061.59, 472.09)" xlink:href="#a"/><linearGradient id="ae" x1="5033.6" y1="550.21" x2="5033.6" y2="443.71" gradientTransform="matrix(-1, 0, 0, 1, 6061.59, 472.09)" xlink:href="#a"/><linearGradient id="af" x1="1241.38" y1="549.21" x2="1241.38" y2="271.21" xlink:href="#a"/><linearGradient id="ag" x1="4832.39" y1="566.81" x2="4832.39" y2="348.41" gradientTransform="matrix(-1, 0, 0, 1, 6112.06, 472.09)" xlink:href="#a"/><linearGradient id="ah" x1="4992.39" y1="585.51" x2="4992.39" y2="367.11" gradientTransform="matrix(-1, 0, 0, 1, 6112.06, 472.09)" xlink:href="#a"/><linearGradient id="ai" x1="4952.79" y1="524.91" x2="4952.79" y2="306.51" gradientTransform="matrix(-1, 0, 0, 1, 6112.06, 472.09)" xlink:href="#a"/></defs><path d="M39.5,375s-3.4-5.2-3.8-10.7,5.4-13.8,5.4-17.1-5.3-11.8-5.5-16.9c-.2-5.4,5-8.3,5.5-12.5s-5.1-11.1-4.3-17.2,5-9.5,6.8-12.6c0,0-1.5,10.1-.8,13.3.8,3.8,5.9,11.9,5,16.8s-5,6.5-4.7,11.3,5.9,12.3,5.4,19.2-6.2,11.3-5,15.6a106.25,106.25,0,0,0,4,10.7Z" fill="url(#a)"/><path d="M96.6,379.6a15.46,15.46,0,0,1-2.1-5.9c-.2-3,3-7.6,3-9.5s-2.9-6.5-3-9.3c-.1-3,2.8-4.6,3-6.9s-2.8-6.1-2.4-9.5,2.8-5.3,3.7-7c0,0-.8,5.6-.5,7.4.4,2.1,3.2,6.6,2.8,9.3s-2.8,3.6-2.6,6.3,3.3,6.8,3,10.6-3.4,6.3-2.8,8.6a59.49,59.49,0,0,0,2.2,5.9Z" fill="url(#b)"/><path d="M26.1,371.1a15.46,15.46,0,0,0,2.1-5.9c.2-3-3-7.6-3-9.5s2.9-6.5,3-9.3c.1-3-2.8-4.6-3-6.9s2.8-6.1,2.4-9.5-2.8-5.3-3.7-7c0,0,.8,5.6.5,7.4-.5,2.1-3.2,6.6-2.8,9.3s2.8,3.6,2.6,6.2-3.3,6.8-3,10.6,3.5,6.3,2.8,8.6a59.49,59.49,0,0,1-2.2,5.9Z" fill="url(#c)"/><path d="M131.3,371.1a15.46,15.46,0,0,0,2.1-5.9c.2-3-3-7.6-3-9.5s2.9-6.5,3-9.3c.1-3-2.8-4.6-3-6.9s2.8-6.1,2.4-9.5-2.8-5.3-3.8-7c0,0,.9,5.6.5,7.4-.4,2.1-3.2,6.6-2.8,9.3s2.8,3.6,2.6,6.2-3.3,6.8-3,10.6,3.4,6.3,2.8,8.6a59.49,59.49,0,0,1-2.2,5.9Z" fill="url(#d)"/><path d="M112.1,355.5a15.46,15.46,0,0,0,2.1-5.9c.2-3-3-7.6-3-9.5s2.9-6.5,3-9.3c.1-3-2.8-4.6-3-6.9s2.8-6.1,2.3-9.5-2.8-5.3-3.7-7c0,0,.8,5.6.5,7.4-.4,2.1-3.2,6.6-2.8,9.3s2.8,3.6,2.6,6.2-3.3,6.8-3,10.6,3.4,6.3,2.8,8.6a59.49,59.49,0,0,1-2.2,5.9Z" opacity="0.2" fill="url(#e)" style="isolation:isolate"/><path d="M61.4,364.3a51.16,51.16,0,0,1-3.8-15.4C57.2,341,63,329,63,324.1s-5.3-17-5.5-24.3c-.2-7.8,5-12,5.5-18s-5.1-16-4.3-24.8,5-13.8,6.8-18.3c0,0-1.5,14.6-.8,19.2.8,5.5,5.9,17.2,5,24.3s-5,9.3-4.7,16.3,5.9,17.8,5.4,27.8-6.2,16.4-5,22.6,4,15.4,4,15.4Z" opacity="0.2" fill="url(#f)" style="isolation:isolate"/><path d="M83.3,372.4a38.4,38.4,0,0,0,3-12.1c.3-6.3-4.3-15.7-4.3-19.5s4.1-13.4,4.3-19.1c.2-6.1-4-9.4-4.3-14.2s4-12.6,3.3-19.5-4-10.8-5.3-14.4c0,0,1.2,11.5.7,15.1-.6,4.4-4.6,13.5-3.9,19.1s3.9,7.3,3.7,12.8-4.6,14-4.2,21.8,4.9,12.9,4,17.7-3.1,12.1-3.1,12.1Z" fill="url(#g)"/><path d="M7.1,399.2a38.4,38.4,0,0,0,3-12.1c.3-6.2-4.3-15.7-4.3-19.5s4.1-13.4,4.3-19.1c.2-6.1-3.9-9.4-4.3-14.2s4-12.6,3.3-19.5-4-10.8-5.3-14.4c0,0,1.2,11.5.7,15.1C3.9,319.9-.1,329,.6,334.6s3.9,7.3,3.7,12.8-4.6,14-4.2,21.8,4.9,12.9,4,17.7S.9,399,.9,399H7.1Z" opacity="0.2" fill="url(#h)" style="isolation:isolate"/><path d="M1653.7,191.9a23.48,23.48,0,0,0,3.5-10c.4-5.1-5.1-13-5.1-16.1s4.9-11.1,5.1-15.8c.2-5-4.7-7.8-5.1-11.7s4.8-10.4,4-16.1-4.7-9-6.3-11.9c0,0,1.4,9.5.8,12.5-.8,3.6-5.5,11.2-4.7,15.8s4.7,6.1,4.4,10.6-5.5,11.6-5,18.1,5.9,10.6,4.7,14.7a93.24,93.24,0,0,1-3.8,10h7.5Z" fill="url(#i)"/><path d="M1693.3,252.3a24,24,0,0,0,3.5-10c.4-5.1-5.1-13-5.1-16.1s5-11,5.1-15.8c.2-5-4.7-7.8-5.1-11.7s4.8-10.4,4-16.1-4.7-9-6.3-11.9c0,0,1.4,9.5.8,12.5-.8,3.6-5.5,11.2-4.7,15.8s4.7,6.1,4.4,10.6-5.5,11.6-5,18.1,5.9,10.6,4.7,14.7c-1.1,3.4-2.3,6.7-3.7,10Z" opacity="0.5" fill="url(#j)" style="isolation:isolate"/><path d="M1538.3,130.2a23.48,23.48,0,0,0,3.5-10c.4-5.1-5.1-13-5.1-16.1s5-11.1,5.1-15.8c.2-5-4.7-7.8-5.1-11.7s4.8-10.4,4-16.1-4.7-9-6.3-11.9c0,0,1.4,9.5.8,12.5-.8,3.6-5.5,11.2-4.7,15.8s4.7,6.1,4.4,10.6-5.5,11.6-5,18.1,5.9,10.6,4.7,14.7c-1.1,3.4-2.3,6.7-3.7,10l7.4-.1Z" fill="url(#k)"/><path d="M1600.2,159.6a14.07,14.07,0,0,0,2-5.5c.2-2.8-2.8-7.2-2.8-8.9s2.7-6.1,2.8-8.8-2.6-4.3-2.8-6.5,2.7-5.8,2.2-8.9-2.6-5-3.5-6.6c0,0,.8,5.2.4,6.9-.4,2-3,6.2-2.6,8.7s2.6,3.4,2.4,5.9-3.1,6.4-2.8,10,3.2,5.9,2.6,8.1a52,52,0,0,1-2.1,5.5Z" fill="url(#l)"/><path d="M1716.9,275.4a14.07,14.07,0,0,0,2-5.5c.2-2.8-2.8-7.2-2.8-8.9s2.7-6.1,2.8-8.8-2.6-4.3-2.8-6.5,2.7-5.8,2.2-8.9-2.6-4.9-3.5-6.6c0,0,.8,5.2.4,6.9-.4,2-3,6.2-2.6,8.7s2.6,3.4,2.4,5.9-3.1,6.4-2.8,10,3.2,5.9,2.6,8.1a52,52,0,0,1-2.1,5.5Z" fill="url(#m)"/><path d="M1498.5,160.3a14.07,14.07,0,0,0,2-5.5c.2-2.8-2.8-7.2-2.8-8.9s2.7-6.1,2.8-8.8-2.6-4.3-2.8-6.5,2.7-5.8,2.2-8.9-2.6-4.9-3.5-6.6c0,0,.8,5.2.4,6.9-.4,2-3,6.2-2.6,8.7s2.6,3.4,2.4,5.9-3.1,6.4-2.8,10,3.2,5.9,2.6,8.1a52,52,0,0,1-2.1,5.5Z" fill="url(#n)"/><path d="M1666.2,211.8a14.07,14.07,0,0,1-2-5.5c-.2-2.8,2.8-7.2,2.8-8.9s-2.7-6.1-2.8-8.8,2.6-4.3,2.8-6.5-2.7-5.8-2.2-8.9,2.6-5,3.5-6.6c0,0-.8,5.2-.4,6.9.4,2,3,6.2,2.6,8.7s-2.6,3.4-2.4,5.9,3.1,6.4,2.8,10-3.2,5.9-2.6,8.1a52,52,0,0,0,2.1,5.5Z" fill="url(#o)"/><path d="M1514.3,136a13.81,13.81,0,0,1-1.9-5.6c-.2-2.8,2.8-7.2,2.8-8.9s-2.7-6.1-2.8-8.8,2.6-4.3,2.8-6.5-2.7-5.8-2.2-8.9,2.6-5,3.5-6.6c0,0-.8,5.2-.4,6.9.4,2,3,6.2,2.6,8.7s-2.6,3.3-2.4,5.9,3.1,6.4,2.8,10-3.2,5.9-2.6,8.1c.6,1.9,1.3,3.7,2.1,5.6Z" fill="url(#p)"/><path d="M1633.1,184.2a45.28,45.28,0,0,0,3.5-14.5c.4-7.4-5.1-18.7-5.1-23.3s4.9-16,5.1-22.8c.2-7.3-4.7-11.3-5.1-16.9s4.8-15,4-23.3-4.7-12.9-6.3-17.2c0,0,1.4,13.7.8,18.1-.8,5.2-5.5,16.2-4.7,22.8s4.7,8.8,4.4,15.3-5.5,16.7-5,26.1,5.9,15.4,4.7,21.2-3.7,14.5-3.7,14.5Z" opacity="0.2" fill="url(#q)" style="isolation:isolate"/><path d="M1582.9,127.2a48.08,48.08,0,0,0,3.5-14.5c.4-7.4-5.1-18.7-5.1-23.3s4.9-16,5.1-22.9c.2-7.3-4.7-11.3-5.1-16.9s4.8-15,4-23.3-4.7-12.9-6.3-17.2c0,0,1.4,13.7.8,18.1-.8,5.2-5.5,16.2-4.7,22.8s4.7,8.8,4.4,15.3-5.5,16.7-5,26.1,5.8,15.4,4.7,21.2-3.8,14.5-3.8,14.5h7.5Z" fill="url(#r)"/><path d="M1612.5,154.8a37.37,37.37,0,0,1-2.8-11.4c-.3-5.8,4-14.7,4-18.3s-3.9-12.6-4-18c-.2-5.7,3.7-8.9,4-13.3s-3.8-11.8-3.1-18.3,3.7-10.2,5-13.5c0,0-1.1,10.8-.6,14.2.6,4.1,4.3,12.7,3.7,17.9s-3.7,6.9-3.4,12,4.3,13.1,4,20.5-4.6,12.1-3.7,16.7,2.9,11.4,2.9,11.4Z" fill="url(#s)"/><path d="M1555.1,137.6a37.37,37.37,0,0,1-2.8-11.4c-.3-5.8,4-14.7,4-18.3s-3.9-12.6-4-18c-.2-5.7,3.7-8.9,4-13.3s-3.8-11.8-3.1-18.3,3.7-10.2,5-13.5c0,0-1.1,10.8-.6,14.2.6,4.1,4.3,12.7,3.7,17.9s-3.7,6.9-3.4,12,4.3,13.1,4,20.5-4.6,12.1-3.7,16.7,2.9,11.4,2.9,11.4Z" opacity="0.2" fill="url(#t)" style="isolation:isolate"/><g opacity="0.2"><path d="M1187,1044.6s-7.4-11.5-8.3-23.6,12-30.5,12-37.9-11.7-26-12.1-37.3c-.4-11.9,11.2-18.4,12.1-27.6s-11.3-24.5-9.4-37.9,11.1-21.1,14.9-28c0,0-3.4,22.3-1.9,29.5,1.8,8.5,13,26.4,11.1,37.1s-11.1,14.3-10.3,25,13,27.2,11.9,42.5-13.8,25.1-11.1,34.6,8.8,23.6,8.8,23.6Z" fill="url(#u)"/><path d="M1086.4,977.7s-7.4-11.5-8.3-23.6,12-30.5,12-37.9-11.7-26-12.1-37.3c-.4-11.9,11.2-18.4,12.1-27.6s-11.3-24.5-9.4-37.9,11.1-21.1,14.9-28c0,0-3.4,22.3-1.9,29.5,1.8,8.5,13,26.4,11.1,37.1s-11.1,14.3-10.3,25,13,27.2,11.9,42.5-13.8,25.1-11.1,34.6,8.8,23.6,8.8,23.6Z" fill="url(#v)"/><path d="M1313.3,1054.8s-4.1-6.4-4.6-13.1,6.7-16.9,6.7-21-6.4-14.4-6.7-20.6c-.2-6.6,6.2-10.2,6.7-15.3s-6.3-13.6-5.2-21,6.2-11.7,8.3-15.5c0,0-1.9,12.4-1,16.3,1,4.7,7.2,14.6,6.1,20.5s-6.1,7.9-5.7,13.8,7.2,15,6.6,23.5-7.6,13.9-6.2,19.1a129.64,129.64,0,0,0,4.9,13.1Z" fill="url(#w)"/><path d="M1105.7,1039.3s-4.1-6.4-4.6-13.1,6.7-16.9,6.7-21-6.4-14.4-6.7-20.6c-.2-6.6,6.2-10.2,6.7-15.3s-6.3-13.6-5.2-21,6.2-11.7,8.3-15.5c0,0-1.9,12.4-1,16.3,1,4.7,7.2,14.6,6.1,20.5s-6.1,7.9-5.7,13.8,7.2,15.1,6.6,23.5-7.6,13.9-6.2,19.1a129.64,129.64,0,0,0,4.9,13.1Z" fill="url(#x)"/><path d="M1157.5,1036.1s4.1-6.4,4.6-13.1-6.7-16.9-6.7-21,6.4-14.4,6.7-20.6c.2-6.6-6.2-10.2-6.7-15.3s6.3-13.6,5.2-21-6.2-11.7-8.3-15.5c0,0,1.9,12.4,1,16.3-1,4.7-7.2,14.6-6.1,20.5s6.1,7.9,5.7,13.8-7.2,15.1-6.6,23.5,7.6,13.9,6.2,19.1a129.64,129.64,0,0,1-4.9,13.1Z" fill="url(#y)"/><path d="M1223,939s4.1-6.4,4.6-13.1-6.7-16.9-6.7-21,6.4-14.4,6.7-20.6c.2-6.6-6.2-10.2-6.7-15.3s6.3-13.6,5.2-21-6.2-11.7-8.3-15.5c0,0,1.9,12.4,1,16.3-1,4.7-7.2,14.6-6.1,20.5s6.1,7.9,5.7,13.8-7.2,15-6.6,23.5,7.6,13.9,6.2,19.1a129.64,129.64,0,0,1-4.9,13.1h9.9v.2Z" fill="url(#z)"/><path d="M1063.8,984.3s4.1-6.4,4.6-13.1-6.7-16.9-6.7-21,6.4-14.4,6.7-20.6c.2-6.6-6.2-10.2-6.7-15.3s6.3-13.6,5.2-21-6.2-11.7-8.3-15.5c0,0,1.9,12.4,1,16.3-1,4.7-7.2,14.6-6.1,20.5s6.1,7.9,5.7,13.8-7.2,15.1-6.6,23.5,7.6,13.9,6.2,19.1a129.64,129.64,0,0,1-4.9,13.1Z" fill="url(#aa)"/><path d="M1390.2,1036.1s4.1-6.4,4.6-13.1-6.7-16.9-6.7-21,6.4-14.4,6.7-20.6c.2-6.6-6.2-10.2-6.7-15.3s6.3-13.6,5.2-21-6.2-11.7-8.3-15.5c0,0,1.9,12.4,1,16.3-1,4.7-7.2,14.6-6.1,20.5s6.1,7.9,5.7,13.8-7.2,15.1-6.6,23.5,7.6,13.9,6.2,19.1a129.64,129.64,0,0,1-4.9,13.1Z" fill="url(#ab)"/><path d="M1347.6,1001.6s4.1-6.4,4.6-13.1-6.7-16.9-6.7-21,6.4-14.4,6.7-20.6c.2-6.6-6.2-10.2-6.7-15.3s6.3-13.6,5.2-21-6.2-11.7-8.3-15.5c0,0,1.9,12.4,1,16.3-1,4.7-7.2,14.6-6.1,20.5s6.1,7.9,5.7,13.8-7.2,15.1-6.6,23.5,7.6,13.9,6.2,19.1a129.64,129.64,0,0,1-4.9,13.1Z" opacity="0.2" fill="url(#ac)" style="isolation:isolate"/><path d="M1315.8,963.7s4.1-6.4,4.6-13.1-6.7-16.9-6.7-21,6.4-14.4,6.7-20.6c.2-6.6-6.2-10.2-6.7-15.3s6.3-13.6,5.2-21-6.2-11.7-8.3-15.5c0,0,1.9,12.4,1,16.3-1,4.7-7.2,14.6-6.1,20.5s6.1,7.9,5.7,13.8-7.2,15.1-6.6,23.5,7.6,13.9,6.2,19.1a129.64,129.64,0,0,1-4.9,13.1Z" opacity="0.2" fill="url(#ad)" style="isolation:isolate"/><path d="M1031.3,1022.3s4.1-6.4,4.6-13.1-6.7-16.9-6.7-21,6.4-14.4,6.7-20.6c.2-6.6-6.2-10.2-6.7-15.3s6.3-13.6,5.2-21-6.2-11.7-8.3-15.5c0,0,1.9,12.4,1,16.3-1,4.7-7.2,14.6-6.1,20.5s6.1,7.9,5.7,13.8-7.2,15-6.6,23.5,7.6,13.9,6.1,19.1a129.64,129.64,0,0,1-4.9,13.1Z" opacity="0.2" fill="url(#ae)" style="isolation:isolate"/><path d="M1235.5,1021.1s-7.4-16.6-8.3-34.1,12-44.1,12-54.8-11.7-37.6-12.1-53.8c-.4-17.2,11.2-26.6,12.1-39.9s-11.3-35.4-9.4-54.8,11.1-30.5,15-40.4c0,0-3.4,32.3-1.9,42.6,1.8,12.3,13,38.2,11.1,53.7s-11.1,20.6-10.3,36.1,13,39.3,11.9,61.5-13.8,36.2-11.1,50,8.8,34.1,8.8,34.1Z" opacity="0.6" fill="url(#af)" style="isolation:isolate"/><path d="M1284.1,1038.9s5.8-13.1,6.6-26.8-9.4-34.7-9.4-43.1,9.2-29.6,9.5-42.3c.3-13.5-8.8-20.9-9.5-31.3s8.9-27.8,7.4-43.1-8.7-23.9-11.7-31.8c0,0,2.7,25.4,1.5,33.5-1.4,9.6-10.2,30-8.7,42.2s8.7,16.2,8.1,28.4-10.2,30.9-9.3,48.3,10.8,28.5,8.7,39.2-6.9,26.8-6.9,26.8Z" fill="url(#ag)"/><path d="M1124.1,1057.6s5.8-13.1,6.6-26.8-9.4-34.7-9.4-43.1,9.2-29.6,9.5-42.3c.3-13.5-8.8-20.9-9.5-31.3s8.9-27.8,7.4-43.1-8.7-23.9-11.7-31.8c0,0,2.7,25.4,1.5,33.5-1.4,9.6-10.2,30-8.7,42.2s8.7,16.2,8.1,28.4-10.2,30.9-9.3,48.3,10.8,28.5,8.7,39.2-6.9,26.8-6.9,26.8Z" opacity="0.4" fill="url(#ah)" style="isolation:isolate"/><path d="M1163.7,997s5.8-13.1,6.6-26.8-9.4-34.7-9.4-43.1,9.2-29.6,9.5-42.3c.3-13.5-8.8-20.9-9.5-31.3s8.9-27.8,7.4-43.1-8.7-23.9-11.7-31.8c0,0,2.7,25.4,1.5,33.5-1.4,9.6-10.2,30-8.7,42.2s8.7,16.2,8.1,28.4-10.2,30.9-9.3,48.3,10.8,28.5,8.7,39.2S1150,997,1150,997Z" opacity="0.4" fill="url(#ai)" style="isolation:isolate"/></g></svg>