<svg xmlns="http://www.w3.org/2000/svg" xmlns:xlink="http://www.w3.org/1999/xlink" width="1718.8" height="1057.6" viewBox="0 0 1718.8 1057.6"><defs><linearGradient id="a" x1="794.41" y1="70.01" x2="794.41" y2="33.77" gradientTransform="translate(0 472.09)" gradientUnits="userSpaceOnUse"><stop offset="0" stop-color="#0b6640" stop-opacity="0"/><stop offset="0.15" stop-color="#0b6640" stop-opacity="0.24"/><stop offset="0.43" stop-color="#0b6640" stop-opacity="0.65"/><stop offset="0.66" stop-color="#0b6640" stop-opacity="0.91"/><stop offset="0.79" stop-color="#0b6640"/></linearGradient><linearGradient id="b" x1="776.86" y1="73.98" x2="776.86" y2="37.73" xlink:href="#a"/><linearGradient id="c" x1="817.71" y1="71.96" x2="817.71" y2="51.9" xlink:href="#a"/><linearGradient id="d" x1="766.01" y1="71.96" x2="766.01" y2="51.9" xlink:href="#a"/><linearGradient id="e" x1="5274.25" y1="68.41" x2="5274.25" y2="48.35" gradientTransform="matrix(-1, 0, 0, 1, 6061.59, 472.09)" xlink:href="#a"/><linearGradient id="f" x1="803.51" y1="77.05" x2="803.51" y2="24.68" xlink:href="#a"/><linearGradient id="g" x1="825.91" y1="59.91" x2="825.91" y2="7.54" xlink:href="#a"/><linearGradient id="h" x1="5301.26" y1="68.96" x2="5301.26" y2="27.86" gradientTransform="matrix(-1, 0, 0, 1, 6112.06, 472.09)" xlink:href="#a"/><linearGradient id="i" x1="5275.76" y1="59.96" x2="5275.76" y2="18.86" gradientTransform="matrix(-1, 0, 0, 1, 6112.06, 472.09)" xlink:href="#a"/><linearGradient id="j" x1="6915.93" y1="260.01" x2="6915.93" y2="122.91" gradientTransform="matrix(-1, 0, 0, 1, 7400.47, 472.09)" xlink:href="#a"/><linearGradient id="k" x1="6849.43" y1="274.91" x2="6849.43" y2="137.71" gradientTransform="matrix(-1, 0, 0, 1, 7400.47, 472.09)" xlink:href="#a"/><linearGradient id="l" x1="7109.63" y1="246.71" x2="7109.63" y2="109.61" gradientTransform="matrix(-1, 0, 0, 1, 7400.47, 472.09)" xlink:href="#a"/><linearGradient id="m" x1="7003.93" y1="267.31" x2="7003.93" y2="191.41" gradientTransform="matrix(-1, 0, 0, 1, 7400.47, 472.09)" xlink:href="#a"/><linearGradient id="n" x1="6807.73" y1="267.31" x2="6807.73" y2="191.41" gradientTransform="matrix(-1, 0, 0, 1, 7400.47, 472.09)" xlink:href="#a"/><linearGradient id="o" x1="-826.72" y1="253.91" x2="-826.72" y2="178.01" gradientTransform="translate(1338.88 472.09)" xlink:href="#a"/><linearGradient id="p" x1="6950.43" y1="286.71" x2="6950.43" y2="88.51" gradientTransform="matrix(-1, 0, 0, 1, 7400.47, 472.09)" xlink:href="#a"/><linearGradient id="q" x1="7034.73" y1="222.01" x2="7034.73" y2="23.81" gradientTransform="matrix(-1, 0, 0, 1, 7400.47, 472.09)" xlink:href="#a"/><linearGradient id="r" x1="-865.49" y1="255.91" x2="-865.49" y2="100.21" gradientTransform="translate(1288.41 472.09)" xlink:href="#a"/><linearGradient id="s" x1="-961.99" y1="221.91" x2="-961.99" y2="66.21" gradientTransform="translate(1288.41 472.09)" xlink:href="#a"/><linearGradient id="t" x1="1444.18" y1="305.21" x2="1444.18" y2="112.91" xlink:href="#a"/><linearGradient id="u" x1="1343.58" y1="238.41" x2="1343.58" y2="46.11" xlink:href="#a"/><linearGradient id="v" x1="1567.91" y1="315.51" x2="1567.91" y2="209.11" xlink:href="#a"/><linearGradient id="w" x1="1360.31" y1="299.91" x2="1360.31" y2="193.41" xlink:href="#a"/><linearGradient id="x" x1="4656.1" y1="296.81" x2="4656.1" y2="190.31" gradientTransform="matrix(-1, 0, 0, 1, 6061.59, 472.09)" xlink:href="#a"/><linearGradient id="y" x1="4590.6" y1="199.71" x2="4590.6" y2="93.21" gradientTransform="matrix(-1, 0, 0, 1, 6061.59, 472.09)" xlink:href="#a"/><linearGradient id="z" x1="4749.9" y1="244.91" x2="4749.9" y2="138.41" gradientTransform="matrix(-1, 0, 0, 1, 6061.59, 472.09)" xlink:href="#a"/><linearGradient id="aa" x1="4423.4" y1="296.81" x2="4423.4" y2="190.31" gradientTransform="matrix(-1, 0, 0, 1, 6061.59, 472.09)" xlink:href="#a"/><linearGradient id="ab" x1="4466.1" y1="262.31" x2="4466.1" y2="155.81" gradientTransform="matrix(-1, 0, 0, 1, 6061.59, 472.09)" xlink:href="#a"/><linearGradient id="ac" x1="4497.9" y1="224.41" x2="4497.9" y2="117.91" gradientTransform="matrix(-1, 0, 0, 1, 6061.59, 472.09)" xlink:href="#a"/><linearGradient id="ad" x1="4782.3" y1="283.01" x2="4782.3" y2="176.51" gradientTransform="matrix(-1, 0, 0, 1, 6061.59, 472.09)" xlink:href="#a"/><linearGradient id="ae" x1="1492.68" y1="281.91" x2="1492.68" y2="4.01" xlink:href="#a"/><linearGradient id="af" x1="4581.24" y1="299.51" x2="4581.24" y2="81.11" gradientTransform="matrix(-1, 0, 0, 1, 6112.06, 472.09)" xlink:href="#a"/><linearGradient id="ag" x1="4741.24" y1="318.31" x2="4741.24" y2="99.91" gradientTransform="matrix(-1, 0, 0, 1, 6112.06, 472.09)" xlink:href="#a"/><linearGradient id="ah" x1="4701.64" y1="257.71" x2="4701.64" y2="39.31" gradientTransform="matrix(-1, 0, 0, 1, 6112.06, 472.09)" xlink:href="#a"/><linearGradient id="ai" x1="580.11" y1="-25.09" x2="580.11" y2="-80.57" xlink:href="#a"/><linearGradient id="aj" x1="615.85" y1="-22.13" x2="615.85" y2="-52.83" xlink:href="#a"/><linearGradient id="ak" x1="5492.65" y1="-27.53" x2="5492.65" y2="-58.24" gradientTransform="matrix(-1, 0, 0, 1, 6061.59, 472.09)" xlink:href="#a"/><linearGradient id="al" x1="594.11" y1="-14.29" x2="594.11" y2="-94.39" xlink:href="#a"/><linearGradient id="am" x1="5507.02" y1="-26.71" x2="5507.02" y2="-89.7" gradientTransform="matrix(-1, 0, 0, 1, 6112.06, 472.09)" xlink:href="#a"/></defs><path d="M793.4,542.1a11.68,11.68,0,0,1-1.6-4.4c-.2-2.3,2.3-5.8,2.3-7.2s-2.2-4.9-2.3-7,2.1-3.5,2.3-5.2-2.1-4.6-1.8-7.1,2.1-4,2.8-5.3a34,34,0,0,0-.4,5.6c.3,1.6,2.5,5,2.1,7s-2.1,2.7-2,4.7,2.5,5.1,2.2,8-2.6,4.7-2.1,6.5a33.36,33.36,0,0,0,1.7,4.4Z" fill="url(#a)"/><path d="M775.8,546a12.14,12.14,0,0,1-1.6-4.5c-.2-2.3,2.3-5.8,2.3-7.2s-2.2-4.9-2.3-7,2.1-3.5,2.3-5.2-2.1-4.6-1.8-7.2,2.1-4,2.8-5.3c0,0-.6,4.2-.3,5.6.3,1.6,2.4,5,2.1,7s-2.1,2.7-2,4.7,2.5,5.1,2.2,8-2.6,4.7-2.1,6.5a41.26,41.26,0,0,0,1.7,4.5Z" fill="url(#b)"/><path d="M817.2,544a5.38,5.38,0,0,1-.9-2.5c-.1-1.3,1.2-3.2,1.2-4s-1.2-2.7-1.3-3.9,1.2-1.9,1.3-2.9-1.2-2.6-1-4,1.2-2.2,1.6-2.9a16.15,16.15,0,0,0-.2,3.1c.2.9,1.4,2.8,1.2,3.9s-1.2,1.5-1.1,2.6,1.4,2.8,1.2,4.4-1.4,2.6-1.2,3.6a24.13,24.13,0,0,0,.8,2.5h-1.6Z" fill="url(#c)"/><path d="M765.4,544a5.38,5.38,0,0,1-.9-2.5c-.1-1.3,1.3-3.2,1.3-4s-1.2-2.7-1.3-3.9,1.2-1.9,1.3-2.9-1.2-2.6-1-4,1.2-2.2,1.6-2.9a15.64,15.64,0,0,0-.2,3.1c.2.9,1.3,2.8,1.2,3.9s-1.2,1.5-1.1,2.6,1.4,2.8,1.2,4.4-1.4,2.6-1.2,3.6c.3.8.6,1.7.9,2.5Z" fill="url(#d)"/><path d="M787.9,540.5a5.38,5.38,0,0,0,.9-2.5c.1-1.3-1.2-3.2-1.2-4s1.2-2.7,1.2-3.9-1.2-1.9-1.2-2.9,1.2-2.6,1-4-1.2-2.2-1.6-2.9a15.64,15.64,0,0,1,.2,3.1c-.2.9-1.4,2.8-1.2,3.9s1.2,1.5,1.1,2.6-1.4,2.8-1.2,4.4,1.4,2.6,1.2,3.6c-.3.8-.6,1.7-.9,2.5Z" opacity="0.2" fill="url(#e)" style="isolation:isolate"/><path d="M802.5,549.1a20.07,20.07,0,0,1-1.6-6.4c-.2-3.3,2.3-8.3,2.3-10.3s-2.2-7.1-2.3-10.1c-.1-3.2,2.1-5,2.3-7.5s-2.1-6.7-1.8-10.3,2.1-5.7,2.8-7.6a70.38,70.38,0,0,0-.4,8c.3,2.3,2.5,7.2,2.1,10.1s-2.1,3.9-2,6.8,2.5,7.4,2.2,11.6-2.6,6.8-2.1,9.4,1.7,6.4,1.7,6.4Z" opacity="0.2" fill="url(#f)" style="isolation:isolate"/><path d="M824.8,532a20.07,20.07,0,0,1-1.6-6.4c-.2-3.3,2.3-8.3,2.3-10.3s-2.2-7.1-2.3-10.1c-.1-3.2,2.1-5,2.3-7.5s-2.1-6.7-1.8-10.3,2.1-5.7,2.8-7.6c0,0-.6,6.1-.3,8,.3,2.3,2.5,7.2,2.1,10.1s-2.1,3.9-1.9,6.8,2.5,7.4,2.2,11.6-2.6,6.8-2.1,9.4,1.7,6.4,1.7,6.4Z" fill="url(#g)"/><path d="M811.7,541a14.64,14.64,0,0,0,1.2-5c.1-2.6-1.8-6.5-1.8-8.1s1.7-5.6,1.8-8-1.7-3.9-1.8-5.9,1.7-5.2,1.4-8.1-1.7-4.5-2.2-6q.3,3.15.3,6.3c-.3,1.8-1.9,5.6-1.6,7.9s1.6,3,1.5,5.3-1.9,5.8-1.8,9.1,2,5.4,1.6,7.4a40.71,40.71,0,0,1-1.3,5Z" fill="url(#h)"/><path d="M837.2,532a14.64,14.64,0,0,0,1.2-5c.1-2.6-1.8-6.5-1.8-8.1s1.7-5.6,1.8-8-1.7-3.9-1.8-5.9,1.7-5.2,1.4-8.1-1.7-4.5-2.2-6q.3,3.15.3,6.3c-.3,1.8-1.9,5.6-1.6,7.9s1.7,3,1.5,5.4-1.9,5.8-1.8,9.1,2,5.4,1.6,7.4a40.71,40.71,0,0,1-1.3,5Z" opacity="0.2" fill="url(#i)" style="isolation:isolate"/><g opacity="0.2"><path d="M488.8,732.1s5.3-8.2,5.9-16.8-8.6-21.8-8.6-27,8.3-18.6,8.6-26.6c.3-8.5-7.9-13.1-8.6-19.7s8.1-17.5,6.7-27-7.9-15-10.7-20c0,0,2.4,15.9,1.3,21-1.3,6.1-9.3,18.8-7.9,26.5s7.9,10.2,7.4,17.8-9.3,19.4-8.5,30.3,9.8,17.9,7.9,24.6A169.91,169.91,0,0,1,476,732Z" fill="url(#j)"/><path d="M555.3,747s5.3-8.2,5.9-16.8-8.6-21.8-8.6-27,8.3-18.6,8.6-26.6c.3-8.5-8-13.1-8.6-19.7s8.1-17.5,6.7-27.1-7.9-15-10.7-20c0,0,2.4,15.9,1.3,21-1.3,6.1-9.2,18.8-7.9,26.5s7.9,10.2,7.4,17.8-9.3,19.4-8.5,30.3,9.9,17.9,7.9,24.7c-1.8,5.7-3.9,11.3-6.2,16.8l12.7.1Z" opacity="0.5" fill="url(#k)" style="isolation:isolate"/><path d="M295.1,718.8s5.3-8.2,5.9-16.8-8.6-21.8-8.6-27,8.3-18.6,8.6-26.6c.3-8.5-8-13.1-8.6-19.7s8.1-17.5,6.7-27-7.9-15-10.7-20c0,0,2.4,15.9,1.3,21-1.3,6-9.2,18.8-7.9,26.5s7.9,10.2,7.4,17.8-9.3,19.4-8.5,30.3,9.8,17.9,7.9,24.7a169.91,169.91,0,0,1-6.3,16.8Z" fill="url(#l)"/><path d="M398.8,739.4a22.11,22.11,0,0,0,3.3-9.3c.4-4.8-4.7-12-4.7-15s4.6-10.3,4.8-14.7c.2-4.7-4.4-7.3-4.8-10.9s4.5-9.7,3.7-15-4.4-8.3-5.9-11c0,0,1.3,8.8.7,11.6-.7,3.3-5.1,10.4-4.4,14.6s4.4,5.6,4.1,9.9-5.1,10.7-4.7,16.8,5.4,9.9,4.4,13.6a93.77,93.77,0,0,1-3.5,9.3Z" fill="url(#m)"/><path d="M595,739.4a22.11,22.11,0,0,0,3.3-9.3c.3-4.8-4.7-12-4.7-15s4.6-10.3,4.8-14.7c.2-4.7-4.4-7.3-4.8-10.9s4.5-9.7,3.7-15-4.4-8.3-5.9-11c0,0,1.3,8.8.7,11.6-.7,3.3-5.1,10.4-4.4,14.6s4.4,5.6,4.1,9.9-5.1,10.7-4.7,16.8,5.4,9.9,4.4,13.6a93.77,93.77,0,0,1-3.5,9.3Z" fill="url(#n)"/><path d="M509.9,726a22.11,22.11,0,0,1-3.3-9.3c-.4-4.8,4.7-12,4.7-15s-4.6-10.3-4.8-14.7c-.2-4.7,4.4-7.2,4.8-10.9s-4.5-9.7-3.7-15,4.4-8.3,5.9-11c0,0-1.3,8.8-.7,11.6.7,3.3,5.1,10.4,4.4,14.7s-4.4,5.6-4.1,9.9,5.1,10.7,4.7,16.8-5.5,9.9-4.4,13.6a93.77,93.77,0,0,0,3.5,9.3Z" fill="url(#o)"/><path d="M454.3,758.7s5.3-11.9,5.9-24.3-8.6-31.5-8.6-39.1,8.3-26.8,8.6-38.4c.3-12.2-8-19-8.6-28.4s8.1-25.3,6.7-39.1-7.9-21.7-10.7-28.8c0,0,2.4,23,1.3,30.4-1.3,8.8-9.2,27.2-7.9,38.3s7.9,14.7,7.4,25.8-9.3,28-8.5,43.8,9.8,25.8,7.9,35.6-6.3,24.3-6.3,24.3Z" opacity="0.2" fill="url(#p)" style="isolation:isolate"/><path d="M370,694s5.3-11.9,5.9-24.3-8.6-31.5-8.6-39.1,8.3-26.8,8.6-38.4c.3-12.2-8-19-8.6-28.4s8.1-25.3,6.7-39.1-7.9-21.7-10.7-28.8c0,0,2.4,23,1.3,30.4-1.3,8.8-9.2,27.2-7.9,38.3s7.9,14.7,7.4,25.8-9.3,28-8.5,43.8,9.8,25.8,7.9,35.6-6.3,24.3-6.3,24.3L370,694Z" fill="url(#q)"/><path d="M419.6,728a60,60,0,0,1-4.6-19.1c-.5-9.8,6.7-24.7,6.7-30.7s-6.5-21.1-6.8-30.2c-.2-9.6,6.2-14.9,6.8-22.3s-6.4-19.8-5.3-30.7,6.2-17.1,8.4-22.7c0,0-1.9,18.1-1,23.8,1,6.9,7.3,21.4,6.2,30.1s-6.2,11.5-5.8,20.2,7.3,22,6.7,34.4-7.7,20.3-6.2,28,4.9,19.1,4.9,19.1Z" fill="url(#r)"/><path d="M323.2,694a62.94,62.94,0,0,1-4.7-19.1c-.5-9.8,6.7-24.7,6.7-30.7s-6.5-21.1-6.8-30.2c-.2-9.6,6.2-14.9,6.8-22.3S319,571.9,320,561s6.2-17.1,8.4-22.7c0,0-1.9,18.1-1,23.8,1,6.9,7.3,21.4,6.2,30.1s-6.2,11.5-5.8,20.2,7.3,22,6.6,34.4-7.7,20.3-6.2,28,4.9,19.1,4.9,19.1Z" opacity="0.2" fill="url(#s)" style="isolation:isolate"/></g><g opacity="0.2"><path d="M1438.3,777.3s-7.4-11.5-8.3-23.6,12-30.5,12-37.9-11.7-26-12.1-37.3c-.4-11.9,11.1-18.4,12.1-27.6s-11.3-24.5-9.4-37.9,11.1-21.1,15-28c0,0-3.4,22.3-1.9,29.5,1.8,8.5,13,26.4,11.1,37.1s-11.1,14.3-10.3,25,13,27.2,11.9,42.5-13.8,25.1-11.1,34.6,8.8,23.6,8.8,23.6Z" fill="url(#t)"/><path d="M1337.7,710.5s-7.4-11.5-8.3-23.6,12-30.5,12-37.9-11.7-26-12.1-37.3c-.4-11.9,11.1-18.4,12.1-27.6s-11.3-24.5-9.4-37.9,11.1-21.1,15-28c0,0-3.4,22.3-1.9,29.5,1.8,8.5,13,26.4,11.1,37.1s-11.1,14.3-10.3,25,13,27.2,11.9,42.5-13.8,25.1-11.1,34.6,8.8,23.6,8.8,23.6Z" fill="url(#u)"/><path d="M1564.6,787.6s-4.1-6.4-4.6-13,6.7-16.9,6.7-21-6.4-14.4-6.7-20.6c-.2-6.6,6.2-10.2,6.7-15.3s-6.3-13.6-5.2-21,6.1-11.7,8.3-15.5c0,0-1.9,12.4-1,16.3,1,4.7,7.2,14.6,6.1,20.5s-6.1,7.9-5.7,13.8,7.2,15.1,6.6,23.5-7.6,13.9-6.2,19.1a119.6,119.6,0,0,0,4.9,13Z" fill="url(#v)"/><path d="M1357,772s-4.1-6.4-4.6-13.1,6.7-16.9,6.7-21-6.4-14.4-6.7-20.6c-.2-6.6,6.2-10.2,6.7-15.3s-6.3-13.6-5.2-21,6.2-11.7,8.3-15.5c0,0-1.9,12.4-1,16.3,1,4.7,7.2,14.6,6.1,20.5s-6.1,7.9-5.7,13.8,7.2,15,6.6,23.5-7.6,13.9-6.2,19.1a129.64,129.64,0,0,0,4.9,13.1H1357v.2Z" fill="url(#w)"/><path d="M1408.8,768.9s4.1-6.4,4.6-13.1-6.7-16.9-6.7-21,6.4-14.4,6.7-20.6c.2-6.6-6.2-10.2-6.7-15.3s6.3-13.6,5.2-21-6.2-11.7-8.3-15.5c0,0,1.9,12.4,1,16.3-1,4.7-7.2,14.6-6.1,20.5s6.1,7.9,5.7,13.8-7.2,15-6.6,23.5,7.6,13.9,6.2,19.1a129.64,129.64,0,0,1-4.9,13.1Z" fill="url(#x)"/><path d="M1474.3,671.8s4.1-6.4,4.6-13.1-6.7-16.9-6.7-21,6.4-14.4,6.7-20.6c.2-6.6-6.2-10.2-6.7-15.3s6.3-13.6,5.2-21-6.2-11.7-8.3-15.5c0,0,1.9,12.4,1,16.3-1,4.7-7.2,14.6-6.1,20.5s6.1,7.9,5.7,13.8-7.2,15.1-6.6,23.5,7.6,13.9,6.2,19.1a129.64,129.64,0,0,1-4.9,13.1Z" fill="url(#y)"/><path d="M1315,717s4.1-6.4,4.6-13.1-6.7-16.9-6.7-21,6.4-14.4,6.7-20.6c.2-6.6-6.2-10.2-6.7-15.3s6.3-13.6,5.2-21-6.2-11.7-8.3-15.5c0,0,1.9,12.4,1,16.3-1,4.7-7.2,14.6-6.1,20.5s6.1,7.9,5.7,13.8-7.2,15-6.6,23.5,7.6,13.9,6.2,19.1a129.64,129.64,0,0,1-4.9,13.1h9.9v.2Z" fill="url(#z)"/><path d="M1641.5,768.9s4.1-6.4,4.6-13.1-6.7-16.9-6.7-21,6.4-14.4,6.7-20.6c.2-6.6-6.2-10.2-6.7-15.3s6.3-13.6,5.2-21-6.2-11.7-8.3-15.5c0,0,1.9,12.4,1,16.3-1,4.7-7.2,14.6-6.1,20.5s6.1,7.9,5.7,13.8-7.2,15-6.6,23.5,7.6,13.9,6.2,19.1a129.64,129.64,0,0,1-4.9,13.1Z" fill="url(#aa)"/><path d="M1598.8,734.4s4.1-6.4,4.6-13.1-6.7-16.9-6.7-21,6.4-14.4,6.7-20.6c.2-6.6-6.2-10.2-6.7-15.3s6.3-13.6,5.2-21-6.2-11.7-8.3-15.5c0,0,1.9,12.4,1,16.3-1,4.7-7.2,14.6-6.1,20.5s6.2,7.9,5.7,13.8-7.2,15.1-6.6,23.5,7.6,13.9,6.2,19.1a129.64,129.64,0,0,1-4.9,13.1Z" opacity="0.2" fill="url(#ab)" style="isolation:isolate"/><path d="M1567,696.5s4.1-6.4,4.6-13.1-6.7-16.9-6.7-21,6.4-14.4,6.7-20.6c.2-6.6-6.2-10.2-6.7-15.3s6.3-13.6,5.2-21-6.2-11.7-8.3-15.5c0,0,1.9,12.4,1,16.3-1,4.7-7.2,14.6-6.1,20.5s6.1,7.9,5.7,13.8-7.2,15-6.6,23.5,7.6,13.9,6.2,19.1a129.64,129.64,0,0,1-4.9,13.1Z" opacity="0.2" fill="url(#ac)" style="isolation:isolate"/><path d="M1282.6,755.1s4.1-6.4,4.6-13.1-6.7-16.9-6.7-21,6.4-14.4,6.7-20.6c.2-6.6-6.2-10.2-6.7-15.3s6.3-13.6,5.2-21-6.2-11.7-8.3-15.5c0,0,1.9,12.4,1,16.3-1,4.7-7.2,14.6-6.1,20.5s6.1,7.9,5.7,13.8-7.2,15.1-6.6,23.5,7.6,13.9,6.2,19.1a129.64,129.64,0,0,1-4.9,13.1Z" opacity="0.2" fill="url(#ad)" style="isolation:isolate"/><path d="M1486.8,753.9s-7.4-16.6-8.3-34.1,12-44.1,12-54.8-11.7-37.6-12.1-53.8c-.4-17.2,11.1-26.6,12.1-39.9s-11.3-35.4-9.4-54.8,11.1-30.4,15-40.4c0,0-3.4,32.3-1.9,42.6,1.8,12.3,13,38.1,11.1,53.7s-11.1,20.6-10.3,36.1,13,39.3,11.9,61.5-13.8,36.2-11.1,49.9,8.8,34.1,8.8,34.1Z" opacity="0.6" fill="url(#ae)" style="isolation:isolate"/><path d="M1535.4,771.6s5.8-13.1,6.5-26.8-9.4-34.7-9.4-43.1,9.2-29.6,9.5-42.3c.3-13.5-8.8-20.9-9.5-31.3s8.9-27.8,7.4-43.1-8.7-23.9-11.8-31.8c0,0,2.7,25.4,1.5,33.5-1.4,9.6-10.2,30-8.7,42.2s8.7,16.2,8.1,28.4-10.2,30.9-9.3,48.3,10.8,28.5,8.7,39.2-6.9,26.8-6.9,26.8Z" fill="url(#af)"/><path d="M1375.4,790.4s5.8-13.1,6.5-26.8-9.4-34.7-9.4-43.1,9.2-29.6,9.5-42.3c.3-13.5-8.8-20.9-9.5-31.3s8.9-27.8,7.4-43.1-8.7-23.9-11.8-31.8c0,0,2.7,25.4,1.5,33.5-1.4,9.6-10.2,30-8.7,42.2s8.7,16.2,8.1,28.4-10.2,30.9-9.3,48.3,10.8,28.5,8.7,39.2-6.9,26.8-6.9,26.8Z" opacity="0.4" fill="url(#ag)" style="isolation:isolate"/><path d="M1415,729.8s5.8-13.1,6.5-26.8-9.4-34.7-9.4-43.1,9.2-29.6,9.5-42.3c.3-13.5-8.8-20.9-9.5-31.3s8.9-27.8,7.4-43.1-8.7-23.9-11.8-31.8c0,0,2.7,25.4,1.5,33.5-1.4,9.6-10.2,30-8.7,42.2s8.7,16.2,8.1,28.4-10.2,30.9-9.3,48.3,10.8,28.5,8.7,39.2-6.9,26.8-6.9,26.8Z" opacity="0.4" fill="url(#ah)" style="isolation:isolate"/></g><path d="M578.4,447a16.82,16.82,0,0,1-2.4-6.8c-.3-3.5,3.5-8.8,3.5-10.9s-3.4-7.5-3.5-10.8,3.2-5.3,3.5-8-3.3-7.1-2.7-11,3.2-6.1,4.3-8.1c0,0-1,6.4-.5,8.5.5,2.5,3.7,7.6,3.2,10.7s-3.2,4.1-3,7.2,3.8,7.9,3.4,12.3-4,7.2-3.2,10c.7,2.3,1.6,4.6,2.5,6.9Z" opacity="0.2" fill="url(#ai)" style="isolation:isolate"/><path d="M614.9,450a8.21,8.21,0,0,1-1.3-3.8c-.2-1.9,1.9-4.9,1.9-6s-1.9-4.2-1.9-6,1.8-2.9,1.9-4.4-1.8-3.9-1.5-6,1.8-3.4,2.4-4.5a18.6,18.6,0,0,0-.3,4.7c.3,1.4,2.1,4.2,1.8,5.9s-1.8,2.3-1.7,4,2.1,4.4,1.9,6.8-2.2,4-1.8,5.5c.4,1.3.9,2.5,1.4,3.8Z" opacity="0.2" fill="url(#aj)" style="isolation:isolate"/><path d="M569.9,444.5a8.21,8.21,0,0,0,1.3-3.8c.1-1.9-1.9-4.9-1.9-6.1s1.9-4.1,1.9-5.9-1.8-2.9-1.9-4.4,1.8-3.9,1.5-6.1-1.8-3.4-2.4-4.5a18.6,18.6,0,0,1,.3,4.7c-.3,1.4-2.1,4.2-1.8,5.9s1.8,2.3,1.7,4-2.1,4.3-1.9,6.8,2.2,4,1.8,5.5c-.4,1.3-.9,2.5-1.4,3.8Z" fill="url(#ak)"/><path d="M592.4,457.8A33.5,33.5,0,0,1,590,448c-.3-5,3.5-12.7,3.5-15.8s-3.4-10.9-3.5-15.5c-.1-5,3.2-7.7,3.5-11.5s-3.3-10.2-2.7-15.8,3.2-8.8,4.3-11.7c0,0-1,9.3-.5,12.3.5,3.5,3.8,11,3.2,15.5s-3.2,6-3,10.4,3.8,11.3,3.4,17.7-4,10.5-3.2,14.4,2.5,9.8,2.5,9.8Z" fill="url(#al)"/><path d="M606.4,445.3a26.33,26.33,0,0,0,1.9-7.7c.2-4-2.7-10-2.7-12.4s2.6-8.5,2.7-12.2c.1-3.9-2.5-6-2.7-9s2.6-8,2.1-12.4-2.5-6.9-3.4-9.2c0,0,.8,7.3.4,9.6-.4,2.8-2.9,8.6-2.5,12.2s2.5,4.7,2.3,8.2-3,8.9-2.7,13.9,3.1,8.2,2.5,11.3-2,7.7-2,7.7Z" fill="url(#am)"/></svg>