<svg xmlns="http://www.w3.org/2000/svg" xmlns:xlink="http://www.w3.org/1999/xlink" width="1718.8" height="1057.6" viewBox="0 0 1718.8 1057.6"><defs><linearGradient id="a" x1="1584.95" y1="513.91" x2="1584.95" y2="376.81" gradientTransform="translate(-731.49 472.09)" gradientUnits="userSpaceOnUse"><stop offset="0" stop-color="#0b6640" stop-opacity="0"/><stop offset="0.15" stop-color="#0b6640" stop-opacity="0.24"/><stop offset="0.43" stop-color="#0b6640" stop-opacity="0.65"/><stop offset="0.66" stop-color="#0b6640" stop-opacity="0.91"/><stop offset="0.79" stop-color="#0b6640"/></linearGradient><linearGradient id="b" x1="1518.45" y1="528.81" x2="1518.45" y2="391.71" xlink:href="#a"/><linearGradient id="c" x1="1778.65" y1="500.61" x2="1778.65" y2="363.51" xlink:href="#a"/><linearGradient id="d" x1="1673.15" y1="521.21" x2="1673.15" y2="445.31" xlink:href="#a"/><linearGradient id="e" x1="1476.95" y1="521.21" x2="1476.95" y2="445.31" xlink:href="#a"/><linearGradient id="f" x1="4504.16" y1="507.91" x2="4504.16" y2="432.01" gradientTransform="matrix(-1, 0, 0, 1, 5330.1, 472.09)" xlink:href="#a"/><linearGradient id="g" x1="1619.55" y1="540.51" x2="1619.55" y2="342.41" xlink:href="#a"/><linearGradient id="h" x1="1703.85" y1="475.91" x2="1703.85" y2="277.81" xlink:href="#a"/><linearGradient id="i" x1="4465.38" y1="509.81" x2="4465.38" y2="354.11" gradientTransform="matrix(-1, 0, 0, 1, 5380.56, 472.09)" xlink:href="#a"/><linearGradient id="j" x1="4368.98" y1="475.91" x2="4368.98" y2="320.21" gradientTransform="matrix(-1, 0, 0, 1, 5380.56, 472.09)" xlink:href="#a"/><linearGradient id="k" x1="1510.82" y1="439.91" x2="1510.82" y2="327.31" gradientTransform="translate(0 472.09)" xlink:href="#a"/><linearGradient id="l" x1="1451.86" y1="400.71" x2="1451.86" y2="288.21" gradientTransform="translate(0 472.09)" xlink:href="#a"/><linearGradient id="m" x1="1583.11" y1="445.91" x2="1583.11" y2="383.61" gradientTransform="translate(0 472.09)" xlink:href="#a"/><linearGradient id="n" x1="1461.66" y1="436.81" x2="1461.66" y2="374.51" gradientTransform="translate(0 472.09)" xlink:href="#a"/><linearGradient id="o" x1="4573.35" y1="434.91" x2="4573.35" y2="372.61" gradientTransform="matrix(-1, 0, 0, 1, 6061.59, 472.09)" xlink:href="#a"/><linearGradient id="p" x1="4535.1" y1="378.11" x2="4535.1" y2="315.81" gradientTransform="matrix(-1, 0, 0, 1, 6061.59, 472.09)" xlink:href="#a"/><linearGradient id="q" x1="4628.25" y1="404.61" x2="4628.25" y2="342.41" gradientTransform="matrix(-1, 0, 0, 1, 6061.59, 472.09)" xlink:href="#a"/><linearGradient id="r" x1="4437.3" y1="434.91" x2="4437.3" y2="372.61" gradientTransform="matrix(-1, 0, 0, 1, 6061.59, 472.09)" xlink:href="#a"/><linearGradient id="s" x1="4462.15" y1="414.71" x2="4462.15" y2="352.41" gradientTransform="matrix(-1, 0, 0, 1, 6061.59, 472.09)" xlink:href="#a"/><linearGradient id="t" x1="4480.8" y1="392.61" x2="4480.8" y2="330.31" gradientTransform="matrix(-1, 0, 0, 1, 6061.59, 472.09)" xlink:href="#a"/><linearGradient id="u" x1="4647.3" y1="426.88" x2="4647.3" y2="364.68" gradientTransform="matrix(-1, 0, 0, 1, 6061.59, 472.09)" xlink:href="#a"/><linearGradient id="v" x1="1539.12" y1="426.11" x2="1539.12" y2="263.41" gradientTransform="translate(0 472.09)" xlink:href="#a"/><linearGradient id="w" x1="4550.52" y1="436.71" x2="4550.52" y2="308.81" gradientTransform="matrix(-1, 0, 0, 1, 6112.06, 472.09)" xlink:href="#a"/><linearGradient id="x" x1="4644.27" y1="447.61" x2="4644.27" y2="319.71" gradientTransform="matrix(-1, 0, 0, 1, 6112.06, 472.09)" xlink:href="#a"/><linearGradient id="y" x1="4621.02" y1="412.11" x2="4621.02" y2="284.21" gradientTransform="matrix(-1, 0, 0, 1, 6112.06, 472.09)" xlink:href="#a"/><linearGradient id="z" x1="218.98" y1="559.11" x2="218.98" y2="366.71" gradientTransform="translate(0 472.09)" xlink:href="#a"/><linearGradient id="aa" x1="118.38" y1="492.11" x2="118.38" y2="299.81" gradientTransform="translate(0 472.09)" xlink:href="#a"/><linearGradient id="ab" x1="342.62" y1="569.31" x2="342.62" y2="462.91" gradientTransform="translate(0 472.09)" xlink:href="#a"/><linearGradient id="ac" x1="134.92" y1="553.81" x2="134.92" y2="447.31" gradientTransform="translate(0 472.09)" xlink:href="#a"/><linearGradient id="ad" x1="5881.21" y1="550.61" x2="5881.21" y2="444.11" gradientTransform="matrix(-1, 0, 0, 1, 6061.59, 472.09)" xlink:href="#a"/><linearGradient id="ae" x1="5815.66" y1="453.51" x2="5815.66" y2="347.11" gradientTransform="matrix(-1, 0, 0, 1, 6061.59, 472.09)" xlink:href="#a"/><linearGradient id="af" x1="5975.1" y1="498.71" x2="5975.1" y2="392.21" gradientTransform="matrix(-1, 0, 0, 1, 6061.59, 472.09)" xlink:href="#a"/><linearGradient id="ag" x1="5648.61" y1="550.61" x2="5648.61" y2="444.11" gradientTransform="matrix(-1, 0, 0, 1, 6061.59, 472.09)" xlink:href="#a"/><linearGradient id="ah" x1="5691.21" y1="516.11" x2="5691.21" y2="409.61" gradientTransform="matrix(-1, 0, 0, 1, 6061.59, 472.09)" xlink:href="#a"/><linearGradient id="ai" x1="5723.01" y1="478.21" x2="5723.01" y2="371.71" gradientTransform="matrix(-1, 0, 0, 1, 6061.59, 472.09)" xlink:href="#a"/><linearGradient id="aj" x1="6007.5" y1="536.81" x2="6007.5" y2="430.41" gradientTransform="matrix(-1, 0, 0, 1, 6061.59, 472.09)" xlink:href="#a"/><linearGradient id="ak" x1="267.38" y1="535.81" x2="267.38" y2="257.81" gradientTransform="translate(0 472.09)" xlink:href="#a"/><linearGradient id="al" x1="5806.49" y1="553.31" x2="5806.49" y2="334.91" gradientTransform="matrix(-1, 0, 0, 1, 6112.06, 472.09)" xlink:href="#a"/><linearGradient id="am" x1="5966.44" y1="572.11" x2="5966.44" y2="353.71" gradientTransform="matrix(-1, 0, 0, 1, 6112.06, 472.09)" xlink:href="#a"/><linearGradient id="an" x1="5926.79" y1="511.51" x2="5926.79" y2="293.11" gradientTransform="matrix(-1, 0, 0, 1, 6112.06, 472.09)" xlink:href="#a"/></defs><g opacity="0.2"><path d="M849.2,986s-5.3-8.2-5.9-16.8,8.6-21.8,8.6-27-8.3-18.6-8.6-26.6c-.3-8.5,8-13.1,8.6-19.7s-8.1-17.5-6.7-27,7.9-15,10.7-20c0,0-2.4,15.9-1.3,21,1.3,6,9.2,18.8,7.9,26.5s-7.9,10.2-7.4,17.8,9.3,19.4,8.5,30.3-9.8,17.9-7.9,24.7A169.91,169.91,0,0,0,862,986Z" fill="url(#a)"/><path d="M782.7,1000.9s-5.3-8.2-5.9-16.8,8.6-21.8,8.6-27-8.3-18.6-8.6-26.6c-.3-8.5,8-13.1,8.6-19.7s-8.1-17.5-6.7-27,7.9-15,10.7-20c0,0-2.4,15.9-1.3,21,1.3,6,9.2,18.8,7.9,26.5s-7.9,10.2-7.4,17.8,9.3,19.4,8.5,30.3-9.8,17.9-7.9,24.7a169.91,169.91,0,0,0,6.3,16.8Z" opacity="0.5" fill="url(#b)" style="isolation:isolate"/><path d="M1042.9,972.7s-5.3-8.2-5.9-16.8,8.6-21.8,8.6-27-8.3-18.6-8.6-26.6c-.3-8.5,8-13.1,8.6-19.7s-8.1-17.5-6.7-27.1,7.9-15,10.7-19.9c0,0-2.4,15.9-1.3,21,1.3,6.1,9.2,18.8,7.9,26.5s-7.9,10.2-7.4,17.8,9.3,19.4,8.5,30.3-9.8,17.9-7.9,24.7a169.91,169.91,0,0,0,6.3,16.8Z" fill="url(#c)"/><path d="M939.3,993.3A22.11,22.11,0,0,1,936,984c-.3-4.8,4.8-12,4.8-15s-4.6-10.3-4.8-14.7c-.2-4.7,4.4-7.3,4.8-10.9s-4.5-9.7-3.7-15,4.4-8.3,5.9-11c0,0-1.3,8.8-.7,11.6.7,3.3,5.1,10.4,4.4,14.7s-4.4,5.6-4.1,9.9,5.1,10.7,4.7,16.8-5.5,9.9-4.4,13.6a93.77,93.77,0,0,0,3.5,9.3Z" fill="url(#d)"/><path d="M743.1,993.3a22.11,22.11,0,0,1-3.3-9.3c-.3-4.8,4.8-12,4.8-15s-4.6-10.3-4.8-14.7c-.2-4.7,4.4-7.3,4.8-10.9s-4.5-9.7-3.7-15,4.4-8.3,5.9-11c0,0-1.3,8.8-.7,11.6.7,3.3,5.1,10.4,4.4,14.7s-4.4,5.6-4.1,9.9,5.1,10.7,4.7,16.8-5.5,9.9-4.4,13.6a93.77,93.77,0,0,0,3.5,9.3Z" fill="url(#e)"/><path d="M828.2,980a22.11,22.11,0,0,0,3.3-9.3c.3-4.8-4.7-12.1-4.7-15s4.6-10.3,4.8-14.7c.2-4.7-4.4-7.3-4.8-10.9s4.5-9.7,3.7-15-4.4-8.3-5.9-11c0,0,1.3,8.8.7,11.6-.7,3.3-5.1,10.4-4.4,14.7s4.4,5.6,4.1,9.9-5.1,10.8-4.7,16.8,5.4,9.9,4.4,13.6a93.77,93.77,0,0,1-3.5,9.3Z" fill="url(#f)"/><path d="M883.8,1012.6s-5.3-11.9-5.9-24.3,8.6-31.5,8.6-39.1-8.3-26.8-8.6-38.4c-.3-12.2,8-19,8.6-28.4s-8.1-25.3-6.7-39.1,7.9-21.7,10.7-28.8c0,0-2.4,23-1.3,30.4,1.3,8.8,9.2,27.2,7.9,38.2s-7.9,14.7-7.4,25.8,9.3,28,8.5,43.8-9.8,25.8-7.9,35.6,6.3,24.3,6.3,24.3Z" opacity="0.2" fill="url(#g)" style="isolation:isolate"/><path d="M968.1,948s-5.3-11.9-5.9-24.3,8.6-31.5,8.6-39.1-8.3-26.8-8.6-38.4c-.3-12.2,8-19,8.6-28.4s-8.1-25.3-6.7-39.1,7.9-21.7,10.7-28.8c0,0-2.4,23-1.3,30.4,1.3,8.8,9.2,27.2,7.9,38.2s-7.9,14.7-7.4,25.8,9.3,28,8.5,43.8-9.8,25.8-7.9,35.6,6.3,24.3,6.3,24.3Z" fill="url(#h)"/><path d="M918.4,981.9a62.94,62.94,0,0,0,4.7-19.1c.5-9.8-6.7-24.7-6.7-30.7s6.5-21.1,6.8-30.2c.2-9.6-6.2-14.9-6.8-22.3s6.3-19.9,5.3-30.7-6.2-17.1-8.4-22.7c0,0,1.9,18.1,1,23.8-1,6.9-7.3,21.4-6.2,30.1s6.2,11.5,5.8,20.2-7.3,22-6.7,34.4,7.7,20.3,6.2,28-4.9,19.1-4.9,19.1Z" fill="url(#i)"/><path d="M1014.8,948a62.94,62.94,0,0,0,4.7-19.1c.5-9.8-6.7-24.7-6.7-30.7s6.5-21.1,6.8-30.2c.2-9.6-6.2-14.9-6.8-22.3s6.4-19.8,5.3-30.7-6.2-17.1-8.4-22.7c0,0,1.9,18.1,1,23.8-1,6.9-7.3,21.4-6.2,30.1s6.2,11.5,5.8,20.2-7.3,22-6.7,34.4,7.7,20.3,6.2,28S1005,948,1005,948Z" opacity="0.2" fill="url(#j)" style="isolation:isolate"/></g><g opacity="0.5"><path d="M1507.4,912s-4.3-6.7-4.9-13.8,7-17.9,7-22.2-6.8-15.2-7.1-21.8c-.2-7,6.5-10.8,7.1-16.2s-6.6-14.3-5.5-22.2,6.5-12.3,8.8-16.4c0,0-2,13.1-1.1,17.2,1,5,7.6,15.5,6.5,21.7s-6.5,8.3-6,14.6,7.6,15.9,7,24.9-8.1,14.7-6.5,20.2a134.74,134.74,0,0,0,5.2,13.8Z" fill="url(#k)"/><path d="M1448.5,872.8s-4.3-6.7-4.9-13.8,7-17.9,7-22.2-6.8-15.2-7.1-21.8c-.3-7,6.5-10.8,7.1-16.1s-6.6-14.3-5.5-22.2,6.5-12.3,8.7-16.4c0,0-2,13.1-1.1,17.2,1,5,7.6,15.4,6.5,21.7s-6.5,8.3-6,14.6,7.6,15.9,7,24.9-8.1,14.7-6.5,20.2a134.74,134.74,0,0,0,5.2,13.8Z" fill="url(#l)"/><path d="M1581.2,918a18.75,18.75,0,0,1-2.7-7.6c-.3-3.9,3.9-9.9,3.9-12.3s-3.8-8.4-3.9-12.1,3.6-6,3.9-8.9-3.7-7.9-3-12.3,3.6-6.8,4.8-9.1c0,0-1.1,7.2-.6,9.5.6,2.8,4.2,8.5,3.6,12s-3.6,4.6-3.3,8.1,4.2,8.8,3.8,13.8-4.5,8.1-3.6,11.2a69.87,69.87,0,0,0,2.9,7.6Z" fill="url(#m)"/><path d="M1459.8,908.9a18.75,18.75,0,0,1-2.7-7.6c-.3-3.9,3.9-9.9,3.9-12.3s-3.8-8.4-3.9-12.1,3.6-6,3.9-8.9-3.7-7.9-3.1-12.3,3.6-6.8,4.8-9.1c0,0-1.1,7.2-.6,9.5.6,2.8,4.2,8.5,3.6,12s-3.6,4.6-3.3,8.1,4.2,8.8,3.8,13.8-4.5,8.1-3.6,11.2c.8,2.6,1.8,5.1,2.8,7.6Z" fill="url(#n)"/><path d="M1490.1,907a18.75,18.75,0,0,0,2.7-7.6c.3-3.9-3.9-9.9-3.9-12.3s3.8-8.4,3.9-12.1-3.6-6-3.9-8.9,3.7-7.9,3.1-12.3-3.6-6.8-4.8-9.1c0,0,1.1,7.2.6,9.5-.6,2.8-4.2,8.5-3.6,12s3.6,4.6,3.3,8.1-4.2,8.8-3.8,13.8,4.5,8.1,3.6,11.2c-.8,2.6-1.8,5.1-2.8,7.6Z" fill="url(#o)"/><path d="M1528.4,850.2a18.75,18.75,0,0,0,2.7-7.6c.3-3.9-3.9-9.9-3.9-12.3s3.8-8.4,3.9-12.1-3.6-6-3.9-8.9,3.7-7.9,3-12.3-3.6-6.8-4.8-9.1c0,0,1.1,7.2.6,9.5-.6,2.8-4.2,8.5-3.6,12s3.6,4.6,3.3,8.1-4.2,8.8-3.8,13.8,4.5,8.1,3.6,11.2a69.87,69.87,0,0,1-2.9,7.6Z" fill="url(#p)"/><path d="M1435.2,876.7a18.75,18.75,0,0,0,2.7-7.6c.3-3.9-3.9-9.9-3.9-12.3s3.8-8.4,3.9-12.1-3.6-6-3.9-8.9,3.7-7.9,3.1-12.3-3.6-6.8-4.8-9c0,0,1.1,7.2.6,9.5-.6,2.8-4.2,8.5-3.6,12s3.6,4.6,3.3,8.1-4.2,8.8-3.8,13.8,4.5,8.1,3.6,11.2c-.8,2.6-1.8,5.1-2.8,7.6Z" fill="url(#q)"/><path d="M1626.2,907a18.75,18.75,0,0,0,2.7-7.6c.3-3.9-3.9-9.9-3.9-12.3s3.8-8.4,3.9-12.1-3.6-6-3.9-8.9,3.7-7.9,3-12.3-3.6-6.8-4.8-9.1c0,0,1.1,7.2.6,9.5-.6,2.8-4.2,8.5-3.6,12s3.6,4.6,3.3,8.1-4.2,8.8-3.8,13.8,4.5,8.1,3.6,11.2c-.8,2.6-1.8,5.1-2.8,7.6Z" fill="url(#r)"/><path d="M1601.3,886.8a18.75,18.75,0,0,0,2.7-7.6c.3-3.9-3.9-9.9-3.9-12.3s3.8-8.4,3.9-12.1-3.6-6-3.9-8.9,3.7-8,3.1-12.3-3.6-6.8-4.8-9.1c0,0,1.1,7.2.6,9.5-.6,2.8-4.2,8.5-3.6,12s3.6,4.6,3.3,8.1-4.2,8.8-3.8,13.8,4.5,8.1,3.6,11.2c-.8,2.6-1.8,5.1-2.8,7.6Z" opacity="0.2" fill="url(#s)" style="isolation:isolate"/><path d="M1582.7,864.7a18.75,18.75,0,0,0,2.7-7.6c.3-3.9-3.9-9.9-3.9-12.3s3.8-8.4,3.9-12.1-3.6-6-3.9-8.9,3.7-7.9,3-12.3-3.6-6.8-4.8-9.1c0,0,1.1,7.2.6,9.5-.6,2.8-4.2,8.5-3.6,12s3.6,4.6,3.3,8.1-4.2,8.8-3.8,13.8,4.5,8.1,3.6,11.2a69.87,69.87,0,0,1-2.9,7.6Z" opacity="0.2" fill="url(#t)" style="isolation:isolate"/><path d="M1416.2,898.9a18.75,18.75,0,0,0,2.7-7.6c.3-3.9-3.9-9.9-3.9-12.3s3.8-8.4,3.9-12.1-3.6-6-3.9-8.9,3.7-7.9,3-12.3-3.6-6.8-4.8-9c0,0,1.1,7.2.6,9.5-.6,2.7-4.2,8.5-3.6,12s3.6,4.6,3.3,8.1-4.2,8.8-3.8,13.8,4.5,8.1,3.6,11.2c-.8,2.6-1.8,5.1-2.8,7.6Z" opacity="0.2" fill="url(#u)" style="isolation:isolate"/><path d="M1535.7,898.2a65.88,65.88,0,0,1-4.9-20c-.5-10.2,7-25.8,7-32.1s-6.8-22-7.1-31.5c-.2-10,6.5-15.5,7.1-23.3s-6.6-20.7-5.5-32.1,6.5-17.8,8.8-23.7c0,0-2,18.9-1.1,24.9,1,7.2,7.6,22.3,6.5,31.4s-6.5,12.1-6,21.1,7.6,23,7,36-8.1,21.2-6.5,29.2,5.2,20,5.2,20Z" opacity="0.6" fill="url(#v)" style="isolation:isolate"/><path d="M1564.2,908.6A49.53,49.53,0,0,0,1568,893c.4-8-5.5-20.3-5.5-25.2s5.4-17.3,5.6-24.8c.2-7.9-5.1-12.2-5.6-18.3s5.2-16.3,4.3-25.2-5.1-14-6.9-18.6c0,0,1.6,14.8.9,19.6-.8,5.6-6,17.5-5.1,24.7s5.1,9.5,4.8,16.6-6,18.1-5.5,28.3,6.3,16.7,5.1,23-4,15.7-4,15.7Z" fill="url(#w)"/><path d="M1470.5,919.6a50.13,50.13,0,0,0,3.8-15.7c.4-8-5.5-20.3-5.5-25.2s5.3-17.3,5.5-24.8c.2-7.9-5.1-12.2-5.5-18.3s5.2-16.3,4.3-25.2-5.1-14-6.9-18.6c0,0,1.6,14.8.9,19.6-.8,5.6-6,17.5-5.1,24.7s5.1,9.5,4.8,16.6-6,18.1-5.5,28.3,6.3,16.7,5.1,23-4.1,15.7-4.1,15.7Z" opacity="0.4" fill="url(#x)" style="isolation:isolate"/><path d="M1493.7,884.1a50.13,50.13,0,0,0,3.8-15.7c.4-8-5.5-20.3-5.5-25.2s5.4-17.3,5.6-24.8c.2-7.9-5.1-12.2-5.6-18.3s5.2-16.3,4.3-25.2-5.1-14-6.9-18.6c0,0,1.6,14.8.9,19.6-.8,5.6-6,17.5-5.1,24.7s5.1,9.5,4.8,16.6-6,18.1-5.5,28.3,6.3,16.7,5.1,23-4.1,15.7-4.1,15.7Z" opacity="0.4" fill="url(#y)" style="isolation:isolate"/></g><g opacity="0.2"><path d="M213.1,1031.2s-7.4-11.5-8.3-23.6,12-30.5,12-37.9-11.6-26-12.1-37.3c-.4-11.9,11.1-18.4,12.1-27.6s-11.3-24.5-9.4-38,11.1-21.1,15-28c0,0-3.4,22.3-1.9,29.5,1.8,8.5,13,26.4,11.1,37.1s-11.1,14.3-10.3,25,13,27.2,11.9,42.5-13.8,25.1-11.1,34.6,8.8,23.6,8.8,23.6Z" fill="url(#z)"/><path d="M112.5,964.2s-7.4-11.5-8.3-23.6,12-30.5,12-37.9-11.7-26-12.1-37.3c-.4-11.9,11.1-18.4,12.1-27.6s-11.3-24.5-9.4-37.9,11.1-21.1,15-28c0,0-3.4,22.3-1.9,29.5,1.8,8.5,13,26.4,11.1,37.1s-11.1,14.3-10.3,25,13,27.2,11.9,42.5-13.8,25.1-11.1,34.6,8.8,23.6,8.8,23.6Z" fill="url(#aa)"/><path d="M339.4,1041.4s-4.1-6.4-4.6-13,6.6-16.9,6.6-21-6.5-14.4-6.7-20.6c-.2-6.6,6.2-10.2,6.7-15.3s-6.3-13.6-5.2-21,6.1-11.7,8.3-15.5c0,0-1.9,12.4-1,16.3,1,4.7,7.2,14.6,6.1,20.5s-6.1,7.9-5.7,13.8,7.2,15.1,6.6,23.5-7.6,13.9-6.1,19.1a119.6,119.6,0,0,0,4.9,13Z" fill="url(#ab)"/><path d="M131.7,1025.9s-4.1-6.4-4.6-13.1,6.6-16.9,6.6-21-6.4-14.4-6.7-20.6c-.2-6.6,6.2-10.2,6.7-15.3s-6.3-13.6-5.2-21,6.1-11.7,8.3-15.5c0,0-1.9,12.4-1,16.3,1,4.7,7.2,14.6,6.1,20.5s-6.1,7.9-5.7,13.8,7.2,15.1,6.6,23.5-7.6,13.9-6.1,19.1a129.64,129.64,0,0,0,4.9,13.1Z" fill="url(#ac)"/><path d="M183.6,1022.7s4.1-6.4,4.6-13.1-6.6-16.9-6.6-21,6.5-14.4,6.7-20.6c.2-6.6-6.2-10.2-6.7-15.3s6.3-13.6,5.2-21-6.1-11.7-8.3-15.5c0,0,1.9,12.4,1,16.3-1,4.7-7.2,14.6-6.1,20.5s6.1,7.9,5.7,13.8-7.2,15.1-6.6,23.5,7.6,13.9,6.1,19.1a129.64,129.64,0,0,1-4.9,13.1Z" fill="url(#ad)"/><path d="M249.1,925.6s4.1-6.4,4.6-13-6.6-16.9-6.6-21,6.4-14.4,6.7-20.6c.2-6.6-6.2-10.2-6.7-15.3s6.3-13.6,5.2-21-6.2-11.7-8.2-15.5c0,0,1.9,12.4,1,16.3-1,4.7-7.2,14.6-6.1,20.5s6.1,7.9,5.7,13.8-7.2,15.1-6.6,23.5,7.6,13.9,6.1,19.1a119.6,119.6,0,0,1-4.9,13Z" fill="url(#ae)"/><path d="M89.8,970.8s4.1-6.4,4.6-13.1-6.7-16.9-6.7-21,6.4-14.4,6.7-20.6c.2-6.6-6.2-10.2-6.7-15.3s6.3-13.6,5.2-21-6.2-11.7-8.3-15.5c0,0,1.9,12.4,1,16.3-1,4.7-7.2,14.6-6.1,20.5s6.2,7.9,5.7,13.8S78,930,78.6,938.4s7.6,13.9,6.2,19.1a129.64,129.64,0,0,1-4.9,13.1h9.9Z" fill="url(#af)"/><path d="M416.2,1022.7s4.1-6.4,4.6-13.1-6.6-16.9-6.6-21,6.5-14.4,6.7-20.6c.2-6.6-6.2-10.2-6.7-15.3s6.3-13.6,5.2-21-6.1-11.7-8.3-15.5c0,0,1.9,12.4,1,16.3-1,4.7-7.2,14.6-6.1,20.5s6.1,7.9,5.7,13.8-7.2,15.1-6.6,23.5,7.6,13.9,6.1,19.1a129.64,129.64,0,0,1-4.9,13.1Z" fill="url(#ag)"/><path d="M373.6,988.2s4.1-6.4,4.6-13.1-6.6-16.9-6.6-21,6.5-14.4,6.7-20.6c.2-6.6-6.2-10.2-6.7-15.3s6.3-13.6,5.2-21-6.1-11.7-8.3-15.5c0,0,1.9,12.4,1,16.3-1,4.7-7.2,14.6-6.1,20.5s6.1,7.9,5.7,13.8-7.2,15-6.6,23.5,7.6,13.9,6.1,19.1a129.64,129.64,0,0,1-4.9,13.1Z" opacity="0.2" fill="url(#ah)" style="isolation:isolate"/><path d="M341.8,950.3s4.1-6.4,4.6-13.1-6.6-16.9-6.6-21,6.5-14.4,6.7-20.6c.2-6.6-6.2-10.2-6.7-15.3s6.3-13.6,5.2-21-6.1-11.7-8.3-15.5c0,0,1.9,12.4,1,16.3-1,4.7-7.2,14.6-6.1,20.5s6.1,7.9,5.7,13.8-7.2,15.1-6.6,23.5,7.6,13.9,6.1,19.1a129.64,129.64,0,0,1-4.9,13.1Z" opacity="0.2" fill="url(#ai)" style="isolation:isolate"/><path d="M57.4,1008.9s4.1-6.4,4.6-13-6.7-16.9-6.7-21,6.4-14.4,6.7-20.6c.2-6.6-6.2-10.2-6.7-15.3s6.3-13.6,5.2-21-6.2-11.7-8.3-15.5c0,0,1.9,12.4,1,16.3-1,4.7-7.2,14.6-6.1,20.5s6.1,7.9,5.7,13.8-7.2,15.1-6.6,23.5,7.7,13.9,6.2,19.1a119.6,119.6,0,0,1-4.9,13Z" opacity="0.2" fill="url(#aj)" style="isolation:isolate"/><path d="M261.5,1007.7s-7.4-16.6-8.3-34.1,12-44.1,12-54.8-11.6-37.6-12.1-53.8c-.4-17.2,11.1-26.6,12.1-39.9s-11.3-35.4-9.4-54.8,11.1-30.5,15-40.4c0,0-3.4,32.3-1.9,42.6,1.8,12.3,13,38.1,11.1,53.7s-11.1,20.6-10.3,36.1,13,39.3,11.9,61.5-13.8,36.2-11.1,50,8.8,34.1,8.8,34.1Z" opacity="0.6" fill="url(#ak)" style="isolation:isolate"/><path d="M310.1,1025.4s5.8-13.1,6.5-26.8-9.4-34.7-9.4-43.1,9.2-29.6,9.5-42.3c.3-13.5-8.8-20.9-9.5-31.3s8.9-27.8,7.4-43.1-8.7-23.9-11.7-31.8c0,0,2.6,25.4,1.5,33.5-1.4,9.6-10.2,30-8.7,42.2s8.7,16.2,8.1,28.4-10.2,30.9-9.3,48.3,10.8,28.5,8.7,39.2-6.9,26.8-6.9,26.8Z" fill="url(#al)"/><path d="M150.2,1044.2s5.8-13.1,6.5-26.8-9.4-34.7-9.4-43.1,9.2-29.6,9.5-42.3c.3-13.5-8.8-20.9-9.5-31.3s8.9-27.8,7.4-43.1-8.7-23.9-11.8-31.8c0,0,2.7,25.4,1.5,33.5-1.4,9.6-10.2,30-8.7,42.2s8.7,16.2,8.1,28.4-10.2,30.9-9.3,48.3,10.8,28.5,8.7,39.2-6.9,26.8-6.9,26.8Z" opacity="0.4" fill="url(#am)" style="isolation:isolate"/><path d="M189.8,983.6s5.8-13.1,6.5-26.8-9.4-34.7-9.4-43.1,9.2-29.6,9.5-42.3c.3-13.5-8.8-20.9-9.5-31.3s8.9-27.8,7.4-43.1-8.7-23.9-11.7-31.8c0,0,2.6,25.4,1.5,33.5-1.4,9.6-10.2,30-8.7,42.2s8.7,16.2,8.1,28.4-10.2,30.9-9.3,48.3,10.8,28.5,8.7,39.2-6.9,26.8-6.9,26.8Z" opacity="0.4" fill="url(#an)" style="isolation:isolate"/></g></svg>