<svg xmlns="http://www.w3.org/2000/svg" xmlns:xlink="http://www.w3.org/1999/xlink" width="657.2" height="368.1" viewBox="0 0 657.2 368.1"><defs><linearGradient id="a" x1="210.05" y1="-233.52" x2="231.32" y2="22.59" gradientTransform="matrix(1, 0, 0, -1, 0, 110)" gradientUnits="userSpaceOnUse"><stop offset="0.15" stop-color="#27182a" stop-opacity="0"/><stop offset="0.39" stop-color="#27182a" stop-opacity="0.1"/><stop offset="0.63" stop-color="#27182a" stop-opacity="0.39"/><stop offset="0.8" stop-color="#27182a" stop-opacity="0.7"/></linearGradient><linearGradient id="b" x1="434.53" y1="-189.2" x2="455.6" y2="64.54" gradientTransform="matrix(0.99, -0.17, -0.17, -0.99, 45.41, 245.21)" gradientUnits="userSpaceOnUse"><stop offset="0.15" stop-color="#0b6640" stop-opacity="0"/><stop offset="0.39" stop-color="#0f5b3d" stop-opacity="0.1"/><stop offset="0.63" stop-color="#1b3a34" stop-opacity="0.39"/><stop offset="0.8" stop-color="#27182a" stop-opacity="0.7"/></linearGradient></defs><path d="M257.5,88.9s-14.9,8.2-24.4,8.1-25.4-10.3-40.8-1.4-14.6,34.2-50.2,44.6c-28.7,8.4-7.6,37.3-26.5,47.6-4.5,2.5-51.1,36.6-71.2,42.4C19.1,237.6,0,329.9,0,329.9l422.5-1.6s-13.6-96.1-56.5-96.1c-27.9,0-40.6-22.6-37.6-31.2,6.8-19.8-24.5-33.3-27.9-47.9s-.1-42.6-15.5-46.4-17.6-16.5-17.6-16.5Z" fill="url(#a)"/><path d="M454.5,105.5s-13.9,12.3-23.3,13.8,10.4,25.3-3.4,36.7,48,61.8,14.6,78.1c-26.9,13.1-56.1,36.8-72.9,50.1-4,3.2,7,50.1-11.8,59.3C334,355.1,425,368.2,425,368.2l232-53s-29.7-92.4-72-85.1c-27.5,4.7-43.8-15.4-42.4-24.4,3.4-20.7-29.8-28.6-35.7-42.4s-7.4-42-23.1-43.1S464,106.8,464,106.8Z" fill="url(#b)"/></svg>