<svg xmlns="http://www.w3.org/2000/svg" xmlns:xlink="http://www.w3.org/1999/xlink" width="657.2" height="368.1" viewBox="0 0 657.2 368.1"><defs><linearGradient id="a" x1="264.6" y1="41.14" x2="323.36" y2="41.14" gradientTransform="matrix(1, 0, 0, -1, 0, 110)" gradientUnits="userSpaceOnUse"><stop offset="0" stop-color="#27182a" stop-opacity="0.91"/><stop offset="0.04" stop-color="#3b2e3e" stop-opacity="0.92"/><stop offset="0.13" stop-color="#6f6771" stop-opacity="0.94"/><stop offset="0.25" stop-color="#c2c1c3" stop-opacity="0.98"/><stop offset="0.3" stop-color="#e5e8e6"/><stop offset="0.36" stop-color="#cfd0d0" stop-opacity="0.96"/><stop offset="0.53" stop-color="#948f96" stop-opacity="0.87"/><stop offset="0.69" stop-color="#655c67" stop-opacity="0.8"/><stop offset="0.83" stop-color="#433746" stop-opacity="0.74"/><stop offset="0.93" stop-color="#2f2032" stop-opacity="0.71"/><stop offset="1" stop-color="#27182a" stop-opacity="0.7"/></linearGradient><linearGradient id="b" x1="1691.71" y1="275.32" x2="1752.2" y2="275.32" gradientTransform="matrix(-0.39, 0.39, 0.61, 0.61, 959.54, -758.38)" xlink:href="#a"/></defs><path d="M323.3,45.5s-8.9-2.7-22.9-2.4c-18.2.4-40.6,22.3-42.9,45.8l9.9,1.3s3.8-14.4,9.3-20.5,14-15.5,27.5-15.6c16.4,0,19.1,3.5,19.1,3.5" fill="#27182a"/><path d="M323.3,54.6s-16.6-8.7-26.4-6.4-23.6,6.2-32.3,41.7h0s5.6-28.5,27-36.7c14.8-5.8,23.1-1.7,31.7,1.4Z" opacity="0.2" fill="url(#a)" style="isolation:isolate"/><path d="M450.6,54.8s1.8-4.3,5.8-4.1,5.5,4.1,5.5,4.1S473,69,470.6,84.7s-6.6,22.1-6.6,22.1l-9.4-1.3s7.4-21,6.2-26.7S451.1,61.5,450.6,54.8Z" fill="#27182a"/><path d="M460.8,106.3s6.2-15.2,7.1-20.8c1-6.2,4.4-7.7-13.8-32.6h0s14.4,17.2,11.1,30.5a225.92,225.92,0,0,0-4.4,22.9Z" opacity="0.2" fill="url(#b)" style="isolation:isolate"/></svg>