<svg xmlns="http://www.w3.org/2000/svg" xmlns:xlink="http://www.w3.org/1999/xlink" width="657.2" height="368.1" viewBox="0 0 657.2 368.1"><defs><linearGradient id="a" x1="210.05" y1="-233.52" x2="231.32" y2="22.59" gradientTransform="matrix(1, 0, 0, -1, 0, 110)" gradientUnits="userSpaceOnUse"><stop offset="0.18" stop-color="#0b6640" stop-opacity="0"/><stop offset="0.35" stop-color="#0b6640" stop-opacity="0.04"/><stop offset="0.52" stop-color="#0b6640" stop-opacity="0.16"/><stop offset="0.7" stop-color="#0b6640" stop-opacity="0.36"/><stop offset="0.87" stop-color="#0b6640" stop-opacity="0.65"/><stop offset="0.9" stop-color="#0b6640" stop-opacity="0.7"/></linearGradient><linearGradient id="b" x1="448.11" y1="-168.51" x2="467.38" y2="63.62" gradientTransform="matrix(0.99, -0.17, -0.17, -0.99, 45.41, 245.21)" xlink:href="#a"/></defs><path d="M257.5,88.9s-14.9,8.2-24.4,8.1-20.4,13.6-35.9,22.5-10.8,22-46.4,32.3c-28.7,8.4-37.3,16.6-56.1,26.8-4.5,2.5-30.2,45.7-50.3,51.6C19.1,237.6,0,329.9,0,329.9l422.5-1.6s-2.4-53.5-45.3-53.5c-27.9,0-64.2-45.6-61.2-54.2,6.8-19.8,2.1-52.4-1.4-67s-15.7-22.9-29.6-28.8c-14.5-6.2-17.6-34.6-17.6-34.6Z" fill="url(#a)"/><path d="M454.5,105.5s-13.9,12.3-23.3,13.8,6.8,17.5-7,28.9,33.4,64,0,80.3c-26.9,13.1,10,49-6.8,62.3-4,3.2-19.2,30.1-38,39.3-23.7,11.5,92.5,11.9,92.5,11.9l185.2-26.8s-11.4-52.3-53.7-45c-27.5,4.7-71-34-69.5-43,3.4-20.7-6.9-52-12.7-65.9s-19.3-19.8-34.1-23.4c-15.4-3.7-23.2-31.1-23.2-31.1Z" fill="url(#b)"/></svg>