<svg xmlns="http://www.w3.org/2000/svg" xmlns:xlink="http://www.w3.org/1999/xlink" width="380.47" height="201.94" viewBox="0 0 380.47 201.94"><defs><linearGradient id="a" x1="158.2" y1="145.85" x2="-16.29" y2="-16.97" gradientTransform="matrix(1, 0, 0, -1, 0, 204)" gradientUnits="userSpaceOnUse"><stop offset="0.17" stop-color="#75b0b7"/><stop offset="0.22" stop-color="#84b8be"/><stop offset="0.38" stop-color="#aaced0"/><stop offset="0.54" stop-color="#c9dedf"/><stop offset="0.7" stop-color="#dfeae9"/><stop offset="0.85" stop-color="#ecf2ef"/><stop offset="0.98" stop-color="#f0f4f1"/></linearGradient><linearGradient id="b" x1="181.41" y1="158.07" x2="73.76" y2="57.62" xlink:href="#a"/><linearGradient id="c" x1="154.52" y1="133.3" x2="66.86" y2="51.51" xlink:href="#a"/><linearGradient id="d" x1="139.16" y1="116.26" x2="62.48" y2="44.72" xlink:href="#a"/></defs><g opacity="0.8"><path d="M100.13,96.56C94,104.42,79.6,125.34,81.28,152.43c.33,5.41,1.1,15.81,7.55,26.6,9.38,15.67,26,22,30.55,22.84,3.29.59,5.51-2.94,2.17-5.08-5.41-3.45-12.32-13.3-13.1-25.4-.61-9.58,4.43-20.93,4.45-29.11,0-6.36-1.21-10.21-.26-19.55a84.05,84.05,0,0,1,2.09-11.89" fill="#27182a"/><path d="M0,104.17C-.09,107,4.53,109.29,5.93,110c18.88,9.57,27.38,26.82,54.56,40.92,11.24,5.84,45.7,23.07,83.79,9.08,16.75-6.16,37.31-15.24,61.18-45.32C229.61,84.25,228.92,76,245.14,60,269,36.6,285.88,34.25,284.73,29.83c-1-3.77-5.82.86-23.93,5.52C219.08,46.1,219.1,73.53,183.44,91.1c-46.17,22.75-116.56,11.42-136,5.65C46,96.33,27.89,92.35,11.57,96,9.07,96.57.15,99.43,0,104.17Z" fill="url(#a)"/><path d="M0,104.17a13,13,0,0,1,5.42-5.42c4-1.88,7.13.41,13.08,1.36,9.09,1.44,10.41-2.55,19.86-1.81a38.62,38.62,0,0,1,16.24,5.42c9.32,5.12,13.55,11.5,17.15,15.34,12.51,13.34,33.86,13.47,45.12,13.53,28,.17,39.89-7.28,55.44-18.77C192.73,98.71,195,88.62,218.85,69c31.53-26,60.06-36.23,75.36-31.13,1.17.39,5.58,2,9.92,3.61,16.13,6,18.54,7.9,23.47,9.47,23.79,7.58,47.14-10.15,51-15.79.55-.82,2.47-3.64,1.7-4.53-.43-.51-1.55-.21-3.12.22-4.43,1.24-6.64,1.85-7.31,2.14-6.25,2.65-17.38-2.41-22.47-4.72C340.27,25,330.55,23,326.67,23a2.64,2.64,0,0,1-2.13-.69c-.49-.66-.21-1.64.23-2.89,1.33-3.76,2.55-9.78,3.43-11.42,1.56-2.93,4.82-6.76,4.64-6.93-3.28-3.24-13.59,1.92-16.6,3.42-6.7,3.35-8.6,5.66-14.24,9.29a90,90,0,0,1-19,8.84c-14.85,4.77-24.77-1.25-37.93-2.37-37.09-.08-58.82,24.63-69.83,30.53-1,.53-4.08,2.15-5.31,1.06-1.45-1.28,1-5.21,0-6.1-1.81-1.64-12.83,8-17.58,12.09-7.67,6.56-19.69,16.82-30.46,22.6-11.27,6-21.32,7-41.42,8.9-4,.38-16.62.19-41.76,0-13.4-.11-28,1.44-35.83,9.24C0,101.43,0,104.16,0,104.17Z" fill="#27182a"/><path d="M109.74,144.84c-25,0-44.27-14-55.1-24.31A89.18,89.18,0,0,0,39,109.13s9.59,4,16.45,10.5c14.66,14,45.05,34.78,84,17.29,55.85-25.08,73.28-56.35,73.45-56.66l1.09.59c-.17.31-17.76,31.92-74,57.2A73.19,73.19,0,0,1,109.74,144.84Z" fill="url(#b)"/><path d="M106.45,152.57c-20.36,0-35.21-7.77-58.18-29.19a77.93,77.93,0,0,0-21.82-14.21,62.72,62.72,0,0,1,22.66,13.31c25.8,24,41.19,30.7,65.9,28.44,41.3-3.76,78.71-37.46,79.08-37.8l.83.91c-.38.34-38.08,34.32-79.8,38.12C112.1,152.43,109.22,152.57,106.45,152.57Z" fill="url(#c)"/><path d="M112.62,159.49c-14.58,0-33.62-4.21-47.81-13.06-5.89-3.66-10.12-7.93-14.22-12.05a79.85,79.85,0,0,0-9.81-8.84,156.36,156.36,0,0,0-22-13.09,101.54,101.54,0,0,1,22.75,12.09,78.34,78.34,0,0,1,10,9c4,4.07,8.24,8.28,14,11.87,17.56,10.94,43.58,14.73,57.63,12,41.09-8.07,58.69-23.59,58.86-23.74l.83.91c-.18.16-18,15.9-59.45,24A56.53,56.53,0,0,1,112.62,159.49Z" fill="url(#d)"/><path d="M110.24,117.3c2.21,9.7,9.2,34.14,31.2,50,4.38,3.17,12.91,9.19,25.34,11,18.06,2.7,33.5-6.07,37.05-9.1,2.54-2.17,1.22-6.13-2.55-4.9-6.1,2-18.1,1.08-27.94-6-7.79-5.61-13.36-16.71-19.67-21.91-4.91-4-8.66-5.55-15.27-12.22a83.55,83.55,0,0,1-7.85-9.16" fill="#27182a"/></g></svg>