<svg xmlns="http://www.w3.org/2000/svg" xmlns:xlink="http://www.w3.org/1999/xlink" viewBox="0 0 6.86 13.16"><defs><style>.cls-1{fill:#f0f4f1;}.cls-2{fill:url(#Unbenannter_Verlauf_142);}.cls-3{fill:url(#Unbenannter_Verlauf_145);}.cls-4{fill:url(#Unbenannter_Verlauf_137);}</style><radialGradient id="Unbenannter_Verlauf_142" cx="3.42" cy="4.88" r="3.46" gradientTransform="matrix(0.99, 0.12, -0.07, 0.62, 0.25, 1.46)" gradientUnits="userSpaceOnUse"><stop offset="0" stop-color="#2168b6"/><stop offset="0.1" stop-color="#286db8"/><stop offset="0.25" stop-color="#3b7abd"/><stop offset="0.42" stop-color="#5a8fc6"/><stop offset="0.62" stop-color="#86acd3"/><stop offset="0.83" stop-color="#bdd2e3"/><stop offset="1" stop-color="#f0f4f1"/></radialGradient><radialGradient id="Unbenannter_Verlauf_145" cx="27.18" cy="47.99" r="3.46" gradientTransform="matrix(0.99, 0.12, -0.1, 0.82, -19.45, -38.2)" gradientUnits="userSpaceOnUse"><stop offset="0" stop-color="#2168b6"/><stop offset="0.11" stop-color="#2f72ba"/><stop offset="0.32" stop-color="#558bc5"/><stop offset="0.6" stop-color="#91b4d6"/><stop offset="0.95" stop-color="#e4eced"/><stop offset="1" stop-color="#f0f4f1"/></radialGradient><radialGradient id="Unbenannter_Verlauf_137" cx="3.71" cy="9.03" r="4.51" gradientTransform="translate(0 1.55) scale(1 0.83)" gradientUnits="userSpaceOnUse"><stop offset="0" stop-color="#f0f4f1"/><stop offset="0.13" stop-color="#ecf1f0"/><stop offset="0.26" stop-color="#e0e9ed"/><stop offset="0.39" stop-color="#cddce7"/><stop offset="0.52" stop-color="#b1cadf"/><stop offset="0.64" stop-color="#8eb2d5"/><stop offset="0.77" stop-color="#6394c9"/><stop offset="0.89" stop-color="#3072ba"/><stop offset="0.93" stop-color="#2168b6"/></radialGradient></defs><g id="Ebene_2" data-name="Ebene 2"><g id="Müllteppich"><path class="cls-1" d="M0,4.14l.46,8.65a14,14,0,0,0,3.28.37,8.66,8.66,0,0,0,3.1-.64L6.7,3.4Z"/><ellipse class="cls-2" cx="3.35" cy="3.76" rx="3.37" ry="1.26" transform="translate(-0.42 0.42) rotate(-6.78)"/><ellipse class="cls-3" cx="2.8" cy="2.28" rx="3.37" ry="1.26" transform="translate(-0.81 2.17) rotate(-37.43)"/><path class="cls-4" d="M.19,7.43a8,8,0,0,0,3.31.44A7.94,7.94,0,0,0,6.76,6.62L6.82,10a12.45,12.45,0,0,1-3.17.87,7.24,7.24,0,0,1-3.3-.53Z"/></g></g></svg>