<svg xmlns="http://www.w3.org/2000/svg" xmlns:xlink="http://www.w3.org/1999/xlink" viewBox="0 0 15.53 7.05"><defs><style>.cls-1{fill:#f0f4f1;}.cls-2{fill:url(#Unbenannter_Verlauf_3);}</style><linearGradient id="Unbenannter_Verlauf_3" x1="105.05" y1="86.59" x2="115.66" y2="91.33" gradientTransform="matrix(-0.08, -0.35, 1.09, -0.27, -75.1, 67.89)" gradientUnits="userSpaceOnUse"><stop offset="0" stop-color="#2168b6"/><stop offset="0.14" stop-color="#6495c9"/><stop offset="0.28" stop-color="#9ebdd9"/><stop offset="0.4" stop-color="#c8dae5"/><stop offset="0.49" stop-color="#e2ebec"/><stop offset="0.55" stop-color="#ecf2ef"/></linearGradient></defs><g id="Ebene_2" data-name="Ebene 2"><g id="Müllteppich"><path class="cls-1" d="M15.53,6.36c.11.83-1.59,1-4.94,0a31.82,31.82,0,0,1-6.3-2.51,3,3,0,0,1-2.2.91C.93,4.58.06,4.58,0,4.2s2.33-.36,2.75-.55-.58-.8-1.21-1A4.94,4.94,0,0,1,.29,2c-.18-.19,1-.17,1.88.08s1.11.26,1.19.15-.67-1-1-1.37S1.43.12,1.47.05A2.53,2.53,0,0,1,3.63.68,3.64,3.64,0,0,1,4.78,2.4a23,23,0,0,0,4.6,2C11.89,5.16,15.44,5.74,15.53,6.36Z"/><path class="cls-2" d="M9.65,5.14a13.52,13.52,0,0,0,1.77,1.08,6.81,6.81,0,0,0,2.32.44,4.35,4.35,0,0,0,1.08,0c.31-.1.32-.36.19-.38A11.06,11.06,0,0,1,13.24,6c-.42-.12-.65-.15-1-.23s-.8-.11-1.35-.23S9.6,5.13,9.65,5.14Z"/></g></g></svg>