<svg xmlns="http://www.w3.org/2000/svg" xmlns:xlink="http://www.w3.org/1999/xlink" width="38.02" height="57.91" viewBox="0 0 38.02 57.91"><defs><linearGradient id="a" x1="-48.34" y1="525.49" x2="-48.34" y2="522.49" gradientTransform="translate(-46.95 -474.7) rotate(-13.53)" gradientUnits="userSpaceOnUse"><stop offset="0.21" stop-color="#f0f4f1"/><stop offset="0.24" stop-color="#e6efed"/><stop offset="0.4" stop-color="#bed8d9"/><stop offset="0.56" stop-color="#9ec7ca"/><stop offset="0.71" stop-color="#87bac0"/><stop offset="0.85" stop-color="#7ab3b9"/><stop offset="0.97" stop-color="#75b0b7"/></linearGradient><linearGradient id="b" x1="-57.75" y1="522.44" x2="-46.15" y2="515.17" gradientTransform="translate(-46.95 -474.7) rotate(-13.53)" gradientUnits="userSpaceOnUse"><stop offset="0.21" stop-color="#0b6640"/><stop offset="0.97" stop-color="#27182a"/></linearGradient><linearGradient id="c" x1="-39.34" y1="526.25" x2="-44.51" y2="510.74" gradientTransform="translate(-46.95 -474.7) rotate(-13.53)" gradientUnits="userSpaceOnUse"><stop offset="0" stop-color="#0b6640"/><stop offset="0.2" stop-color="#0d603e"/><stop offset="0.46" stop-color="#134f39"/><stop offset="0.76" stop-color="#1d3332"/><stop offset="1" stop-color="#27182a"/></linearGradient><linearGradient id="d" x1="0.28" y1="13.54" x2="15.01" y2="16.45" gradientUnits="userSpaceOnUse"><stop offset="0.21" stop-color="#75b0b7"/><stop offset="0.67" stop-color="#475664"/><stop offset="0.97" stop-color="#27182a"/></linearGradient><linearGradient id="e" x1="12.31" y1="3.48" x2="25.16" y2="9.24" xlink:href="#d"/></defs><polygon points="32.5 32.75 33.55 33.73 34.4 34.1 35.97 33.42 36.93 26.97 33.6 26.06 32.5 32.75" fill="#27182a"/><polygon points="25.91 45.71 26.03 47.12 27.8 46.85 28.68 46.13 29.62 46.23 31.24 45.12 30.34 44.15 25.91 45.71" fill="url(#a)"/><polygon points="20.72 30.11 27.11 43.76 34.12 29.43 20.72 30.11" fill="#0b6640"/><path d="M10.89,20.77,15,14.51s7.52,3.51,8,5,3.56,6.87,3.56,6.87.5-4.53.15-6-6.58-7.19-6.58-7.19l5.26-4.65s6.56,7.69,7,10,1.72,10.79,1.72,10.79l-13.4.69s-2.43-4.43-3.09-5.34S10.89,20.77,10.89,20.77Z" fill="#0b6640"/><polyline points="29.27 44.77 29.11 47.25 27.67 45.83" fill="#f0f4f1"/><polygon points="27.58 45.93 29.22 47.56 29.41 44.78 29.13 44.76 28.99 46.94 27.77 45.73 27.58 45.93" fill="#27182a"/><circle cx="27.51" cy="42.53" r="3.56" fill="#f0f4f1"/><circle cx="31.24" cy="41.98" r="1.18" fill="#f0f4f1"/><polygon points="31.17 42.32 31.81 41.64 30.95 41.43 30.88 41.7 31.28 41.8 30.97 42.13 31.17 42.32" fill="#27182a"/><circle cx="24" cy="43.72" r="1.18" fill="#f0f4f1"/><polygon points="23.91 43.3 23.49 44.12 24.37 44.08 24.36 43.8 23.95 43.82 24.16 43.42 23.91 43.3" fill="#27182a"/><polygon points="25.82 46.82 28.07 46.73 27.94 46.94 25.93 47.3 25.82 46.82" fill="#75b0b7"/><polygon points="29.45 46.26 31.21 44.99 31.41 45.25 29.65 46.35 29.45 46.26" fill="#75b0b7"/><circle cx="27.77" cy="43.48" r="0.99" fill="#27182a"/><path d="M23.22,35.43s-5.69,4.63-6,6.4,1.48,10.06,1.48,10.06L22.39,51s-2-7.36-2-8.17,4.9-3.06,4.9-3.06Z" fill="url(#b)"/><path d="M34.11,47.23s-1,2-1.41,2.86,0,.81.13.79.32-.38.43-.63a6.31,6.31,0,0,1,.35-.63l-.53,2.6c-.06.29-.06.63.19.7s.34-.24.41-.5.54-1.61.54-1.61-.33,2-.37,2.3,0,.62.24.64.39-.16.41-.47.41-2.22.41-2.22S35,53,35,53.2s0,.82.33.83.38-.38.38-.65.38-2.5.38-2.5,0,1.53,0,1.88,0,.51.33.51.23-.45.27-.69,1.09-4.37,1.09-4.37Z" fill="#f0f4f1"/><path d="M22.39,51s.85,2.35,1.17,3.22-.1.8-.2.78-.29-.41-.37-.67a7.17,7.17,0,0,0-.29-.66S23,56,23,56.31s0,.63-.25.68-.32-.28-.36-.54S22,54.8,22,54.8s.15,2.05.16,2.33-.05.61-.29.62-.37-.2-.36-.51S21.27,55,21.27,55,21,56.86,21,57.12s-.07.81-.4.79-.34-.41-.32-.68-.15-2.52-.15-2.52-.12,1.52-.19,1.86-.09.52-.38.48-.19-.46-.2-.7-.71-4.45-.71-4.45Z" fill="#f0f4f1"/><path d="M27.63,42.9s3-2.66,3.67-3.36,2.25-5.82,2.25-5.82l.85.38s-1.48,4.77-2.46,5.75-4.17,3.63-4.17,3.63Z" fill="#27182a"/><path d="M31.82,34.14,29.94,38a10.81,10.81,0,0,1,3.22,1.57c1,.9,1,7.68,1,7.68l3.69,1s.52-7.91,0-9.38S31.82,34.14,31.82,34.14Z" fill="url(#c)"/><path d="M10.89,20.77A13,13,0,0,0,7,18.42C5.36,18,0,16.08,0,16.08l3.68-.41L2.31,12.78l3.47.56L4.27,9.2s4.54,3.25,6.05,4A22.92,22.92,0,0,0,15,14.51Z" fill="url(#d)"/><path d="M20.18,13.26a21.33,21.33,0,0,0-2.41-2.51c-1.17-1-6.47-5-6.47-5l4.09.8-1-4.07,4.28,2.17L18.5,0a56.75,56.75,0,0,0,3.86,6.19,20.6,20.6,0,0,0,3.08,2.42Z" fill="url(#e)"/><polygon points="20.49 29.69 20.88 30.45 33.97 29.74 34.12 29.43 34.04 28.92 20.49 29.69" fill="#27182a"/></svg>