<?xml version="1.0" encoding="UTF-8"?>
<svg width="1408px" height="1203px" viewBox="0 0 1408 1203" version="1.1" xmlns="http://www.w3.org/2000/svg" xmlns:xlink="http://www.w3.org/1999/xlink">
    <!-- Generator: Sketch 59.1 (86144) - https://sketch.com -->
    <title>shipwrecks-top</title>
    <desc>Created with Sketch.</desc>
    <defs>
        <linearGradient x1="49.9873684%" y1="99.8571645%" x2="49.9873684%" y2="0.0962629154%" id="linearGradient-1">
            <stop stop-color="#27182A" offset="0%"></stop>
            <stop stop-color="#1E3131" offset="36.51%"></stop>
            <stop stop-color="#0B6640" offset="100%"></stop>
        </linearGradient>
        <linearGradient x1="50.1109215%" y1="99.6588145%" x2="50.1109215%" y2="-0.23677717%" id="linearGradient-2">
            <stop stop-color="#27182A" offset="0%"></stop>
            <stop stop-color="#1E3131" offset="36.51%"></stop>
            <stop stop-color="#0B6640" offset="100%"></stop>
        </linearGradient>
        <linearGradient x1="50.0527363%" y1="99.8863256%" x2="50.0527363%" y2="0.00215726554%" id="linearGradient-3">
            <stop stop-color="#27182A" offset="0%"></stop>
            <stop stop-color="#1E3131" offset="36.51%"></stop>
            <stop stop-color="#0B6640" offset="100%"></stop>
        </linearGradient>
        <linearGradient x1="49.9908676%" y1="100.139028%" x2="49.9908676%" y2="0.171038019%" id="linearGradient-4">
            <stop stop-color="#27182A" offset="0%"></stop>
            <stop stop-color="#1E3131" offset="36.51%"></stop>
            <stop stop-color="#0B6640" offset="100%"></stop>
        </linearGradient>
        <linearGradient x1="49.995438%" y1="100.304892%" x2="49.995438%" y2="0.131388177%" id="linearGradient-5">
            <stop stop-color="#27182A" offset="0%"></stop>
            <stop stop-color="#1E3131" offset="36.51%"></stop>
            <stop stop-color="#0B6640" offset="100%"></stop>
        </linearGradient>
        <linearGradient x1="49.8742788%" y1="99.1568244%" x2="49.8742788%" y2="-1.30194921%" id="linearGradient-6">
            <stop stop-color="#27182A" offset="0%"></stop>
            <stop stop-color="#1E3131" offset="36.51%"></stop>
            <stop stop-color="#0B6640" offset="100%"></stop>
        </linearGradient>
        <linearGradient x1="50.0125763%" y1="99.9850674%" x2="50.0125763%" y2="0.096655221%" id="linearGradient-7">
            <stop stop-color="#27182A" offset="0%"></stop>
            <stop stop-color="#1E3131" offset="36.51%"></stop>
            <stop stop-color="#0B6640" offset="100%"></stop>
        </linearGradient>
        <linearGradient x1="50.0296046%" y1="100.266521%" x2="50.0296046%" y2="0.323046412%" id="linearGradient-8">
            <stop stop-color="#27182A" offset="0%"></stop>
            <stop stop-color="#1E3131" offset="36.51%"></stop>
            <stop stop-color="#0B6640" offset="100%"></stop>
        </linearGradient>
        <linearGradient x1="49.8965328%" y1="100.108134%" x2="49.8965328%" y2="0.218426513%" id="linearGradient-9">
            <stop stop-color="#27182A" offset="0%"></stop>
            <stop stop-color="#1E3131" offset="36.51%"></stop>
            <stop stop-color="#0B6640" offset="100%"></stop>
        </linearGradient>
    </defs>
    <g id="Page-1" stroke="none" stroke-width="1" fill="none" fill-rule="evenodd">
        <g id="shipwrecks-top" fill-rule="nonzero">
            <g id="Group" transform="translate(177.000000, 1015.000000)">
                <path d="M0.2,6.3 L0.2,26.2 L18.5,18 C18.5,18 36.5,32.6 58.7,31.6 C80.9,30.6 104.7,18 104.7,18 C104.7,18 81,0.9 61,0.9 C41,0.9 19.8,12.4 19.8,12.4 L0.2,6.3 Z" id="Path" fill="url(#linearGradient-1)"></path>
                <polygon id="Path" fill="#27182A" points="70.8 2.1 70.8 30 72 29.7 72.8 2.6"></polygon>
                <ellipse id="Oval" fill="#27182A" cx="79.3" cy="12.2" rx="1.8" ry="1.6"></ellipse>
            </g>
            <g id="Group" transform="translate(207.000000, 1185.000000)">
                <path d="M0.7,2 L0.7,7.6 L5.8,5.3 C5.8,5.3 10.8,9.4 17.1,9.1 C23.3,8.8 30,5.3 30,5.3 C30,5.3 23.3,0.5 17.7,0.5 C12.1,0.5 6.2,3.7 6.2,3.7 L0.7,2 Z" id="Path" fill="url(#linearGradient-2)"></path>
                <polygon id="Path" fill="#27182A" points="20.5 0.8 20.5 8.6 20.9 8.6 21.1 0.9"></polygon>
                <ellipse id="Oval" fill="#27182A" cx="22.9" cy="3.7" rx="1" ry="1"></ellipse>
            </g>
            <g id="Group" transform="translate(459.000000, 473.000000)">
                <path d="M0.5,0.5 L0.5,32.9 L24.7,19.1 C24.7,19.1 42.9,33.9 65.5,32.9 C88.1,31.9 101,19.1 101,19.1 C101,19.1 88.1,1.8 67.8,1.8 C47.6,1.8 26,13.5 26,13.5 L0.5,0.5 Z" id="Path" fill="url(#linearGradient-3)"></path>
                <polygon id="Path" fill="#27182A" points="77.9 3.2 77.9 31 79.1 30.7 79.9 3.8"></polygon>
                <ellipse id="Oval" fill="#27182A" cx="86.5" cy="13.2" rx="1.8" ry="1.6"></ellipse>
            </g>
            <g id="Group" transform="translate(1212.000000, 196.000000)">
                <path d="M109.8,6.6 L109.8,27.4 L90.6,18.8 C90.6,18.8 71.8,34.1 48.5,33 C25.2,31.9 0.3,18.8 0.3,18.8 C0.3,18.8 25.2,0.9 46.1,0.9 C67,0.9 89.2,13 89.2,13 L109.8,6.6 Z" id="Path" fill="url(#linearGradient-4)"></path>
                <polygon id="Path" fill="#27182A" points="35.8 2.2 35.8 31.4 34.5 31.2 33.7 2.7"></polygon>
                <ellipse id="Oval" fill="#27182A" cx="26.9" cy="12.8" rx="1.8" ry="1.7"></ellipse>
            </g>
            <g id="Group" transform="translate(772.000000, 1167.000000)">
                <path d="M41.2,15.3 C41.2,15.3 50.2,4.1 41.2,1.2 C32.2,-1.6 0.5,20 0.5,20 C0.5,20 27.8,37.7 33.9,35.7 C40.1,33.7 42.6,26.4 40.1,23.1 L55.3,27.9 L55.3,11.3 L41.2,15.3 Z" id="Path" fill="url(#linearGradient-5)"></path>
                <polygon id="Path" fill="#27182A" points="20.4 8 20.4 31.6 18.9 30.8 19 8.8"></polygon>
                <circle id="Oval" fill="#27182A" cx="14" cy="16" r="1.2"></circle>
            </g>
            <g id="Group" transform="translate(563.000000, 1103.000000)">
                <path d="M42.3,2.5 L42.3,8.1 L37.2,5.8 C37.2,5.8 34.1,8.3 29.8,9.3 C29.1,9.4 24.6,10.4 20.5,10.5 C17.2,10.5 14.2,9.7 13.6,9.7 C7.4,9.4 0.7,5.9 0.7,5.9 C0.7,5.9 7.4,1.1 13,1.1 C13.6,1.1 17,0.4 20.5,0.5 C24.5,0.6 28.7,1.4 29.4,1.6 C33.5,2.5 36.9,4.3 36.9,4.3 L42.3,2.5 Z" id="Path" fill="url(#linearGradient-6)"></path>
                <polygon id="Path" fill="#27182A" points="10.1 1.3 10.1 9.1 9.8 9.1 9.6 1.5"></polygon>
                <ellipse id="Oval" fill="#27182A" cx="7.7" cy="4.2" rx="1" ry="1"></ellipse>
            </g>
            <g id="Group" transform="translate(0.000000, 583.000000)">
                <path d="M0.9,1.7 L0.9,41.5 L24,26.8 C24,26.8 32,49.3 53.6,47.7 C75.2,46.1 82.8,26.8 82.8,26.8 C82.8,26.8 75.1,0.5 55.8,0.5 C36.5,0.5 25.3,18.2 25.3,18.2 L0.9,1.7 Z" id="Path" fill="url(#linearGradient-7)"></path>
                <polygon id="Path" fill="#27182A" points="60.7 1.1 60.7 46.5 61.8 46.1 62.4 1.6"></polygon>
                <circle id="Oval" fill="#27182A" cx="69.7" cy="18" r="2.4"></circle>
            </g>
            <g id="Group" transform="translate(1303.000000, 0.000000)">
                <path d="M0.8,4.6 L0.8,18.5 L13.6,12.8 C13.6,12.8 21.3,19.1 32.1,21.4 C35.1,22 69,22.4 72.4,22.2 C87.9,21.5 104.5,12.7 104.5,12.7 C104.5,12.7 87.9,0.8 74,0.8 C70.6,0.8 36.4,1.3 33.1,2 C22.9,4.2 14.5,8.8 14.5,8.8 L0.8,4.6 Z" id="Path" fill="url(#linearGradient-8)"></path>
                <polygon id="Path" fill="#27182A" points="80.9 1.7 80.9 21.2 81.7 21 82.3 2"></polygon>
                <ellipse id="Oval" fill="#27182A" cx="86.9" cy="8.8" rx="1.2" ry="1.1"></ellipse>
            </g>
            <g id="Group" transform="translate(543.000000, 549.000000)">
                <path d="M41.5,14.5 C41.5,14.5 50.5,3.3 41.5,0.4 C32.5,-2.4 0.8,19.2 0.8,19.2 C0.8,19.2 28,37 34.2,35 C40.4,33 42.9,25.7 40.4,22.4 L55.6,27.2 L55.6,10.6 L41.5,14.5 Z" id="Path" fill="url(#linearGradient-9)"></path>
                <polygon id="Path" fill="#27182A" points="20.6 7.3 20.6 30.8 19.2 30 19.3 8"></polygon>
                <circle id="Oval" fill="#27182A" cx="14.2" cy="15.2" r="1.2"></circle>
            </g>
        </g>
    </g>
</svg>