<?xml version="1.0" encoding="utf-8"?>
<!-- Generator: Adobe Illustrator 25.3.0, SVG Export Plug-In . SVG Version: 6.00 Build 0)  -->
<svg version="1.1" id="Ebene_1" xmlns="http://www.w3.org/2000/svg" xmlns:xlink="http://www.w3.org/1999/xlink" x="0px" y="0px"
	 viewBox="0 0 430 380" style="enable-background:new 0 0 430 380;" xml:space="preserve">
<style type="text/css">
	.st0{opacity:0.8;clip-path:url(#SVGID_2_);}
	.st1{fill:#27182A;}
	.st2{fill:url(#SVGID_3_);}
	.st3{fill:url(#SVGID_4_);}
	.st4{fill:url(#SVGID_5_);}
	.st5{fill:url(#SVGID_6_);}
</style>
<g>
	<g>
		<defs>
			<rect id="SVGID_1_" x="0" y="0" width="430" height="380"/>
		</defs>
		<clipPath id="SVGID_2_">
			<use xlink:href="#SVGID_1_"  style="overflow:visible;"/>
		</clipPath>
		<g class="st0">
			<path class="st1" d="M214.2,208.6c1.8,7.4,3.1,14.9,3.9,22.4c1.8,17.6-0.5,24.8-0.5,36.8c0.1,15.3,9.5,36.7,8.4,54.7
				c-1.4,22.8-14.4,41.3-24.6,47.8c-6.3,4.1-2.1,10.7,4.1,9.6c8.6-1.6,39.9-13.5,57.5-43c12.1-20.3,13.6-39.8,14.2-50
				c3.1-51-24-90.3-35.5-105.1"/>
			
				<linearGradient id="SVGID_3_" gradientUnits="userSpaceOnUse" x1="297.5448" y1="-23.6455" x2="-30.6119" y2="-329.8549" gradientTransform="matrix(-1 0 0 -1 430 86)">
				<stop  offset="0.17" style="stop-color:#75B0B7"/>
				<stop  offset="0.22" style="stop-color:#84B8BE"/>
				<stop  offset="0.38" style="stop-color:#AACED0"/>
				<stop  offset="0.54" style="stop-color:#C9DEDF"/>
				<stop  offset="0.7" style="stop-color:#DFEAE9"/>
				<stop  offset="0.85" style="stop-color:#ECF2EF"/>
				<stop  offset="0.98" style="stop-color:#F0F4F1"/>
			</linearGradient>
			<path class="st2" d="M408.3,180.8c-30.7-6.9-64.8,0.6-67.5,1.4c-36.6,10.9-169,32.2-255.8-10.6C18,138.5,18,86.9-60.6,66.9
				c-34.1-8.8-43.1-17.5-45-10.4c-2.1,8.3,29.6,12.7,74.5,56.7C-0.6,143.3-1.9,158.8,43.5,216c44.9,56.5,83.6,73.6,115.1,85.2
				c71.7,26.3,136.5-6.1,157.6-17.1c51.1-26.6,67.1-59,102.6-77c2.7-1.4,11.4-5.7,11.2-11C429.7,187.2,413,181.9,408.3,180.8z"/>
			<path class="st1" d="M424.6,185.4c-14.7-14.7-42.2-17.6-67.4-17.4c-47.2,0.4-71,0.7-78.5,0c-37.8-3.5-56.7-5.4-77.9-16.7
				c-20.3-10.9-42.9-30.2-57.3-42.5c-9-7.7-29.7-25.8-33.1-22.7c-1.9,1.7,2.7,9.1,0,11.5c-2.3,2-8.1-1-10-2
				C79.7,84.5,38.9,38-30.9,38.2c-24.7,2.1-43.4,13.5-71.3,4.5c-12.5-4.1-24.5-9.7-35.7-16.6c-10.6-6.9-14.2-11.2-26.8-17.5
				c-5.6-2.8-25-12.5-31.2-6.4c-0.4,0.3,5.8,7.5,8.7,13c1.7,3.1,4,14.4,6.5,21.5c0.8,2.3,1.3,4.2,0.4,5.4c-1.1,1-2.5,1.5-4,1.3
				c-7.3,0-25.6,3.8-39,9.9c-9.6,4.4-30.5,13.9-42.3,8.9c-1.2-0.5-5.4-1.7-13.7-4c-3-0.8-5.1-1.4-5.9-0.4c-1.4,1.7,2.2,7,3.2,8.5
				c7.2,10.6,51.2,44,95.9,29.7c9.2-2.9,13.8-6.5,44.1-17.8c8.2-3,16.5-6.1,18.7-6.8c28.7-9.6,82.4,9.6,141.7,58.5
				c44.8,36.9,49.1,55.9,87.5,84.3c29.3,21.6,51.6,35.6,104.3,35.3c21.2-0.1,61.4-0.3,84.9-25.4c6.8-7.2,14.8-19.2,32.3-28.8
				c9.2-5.6,19.7-9.1,30.5-10.2c17.7-1.4,20.2,6.1,37.3,3.4c11.2-1.8,17.1-6.1,24.6-2.6c4.4,2.3,7.9,5.9,10.2,10.2
				C430,196.1,430,191,424.6,185.4z"/>
			
				<linearGradient id="SVGID_4_" gradientUnits="userSpaceOnUse" x1="341.1765" y1="-0.5882" x2="138.7208" y2="-189.5029" gradientTransform="matrix(-1 0 0 -1 430 86)">
				<stop  offset="0.17" style="stop-color:#75B0B7"/>
				<stop  offset="0.22" style="stop-color:#84B8BE"/>
				<stop  offset="0.38" style="stop-color:#AACED0"/>
				<stop  offset="0.54" style="stop-color:#C9DEDF"/>
				<stop  offset="0.7" style="stop-color:#DFEAE9"/>
				<stop  offset="0.85" style="stop-color:#ECF2EF"/>
				<stop  offset="0.98" style="stop-color:#F0F4F1"/>
			</linearGradient>
			<path class="st3" d="M166.8,259.8C61,212.2,27.9,152.8,27.6,152.2l2-1.1c0.3,0.6,33.1,59.4,138.1,106.6
				c73.3,32.9,130.4-6.2,158-32.5c12.9-12.2,30.9-19.7,30.9-19.7c-10.5,6-20.4,13.2-29.4,21.4c-20.3,19.4-56.6,45.7-103.6,45.7
				C204,272.5,184.6,268.1,166.8,259.8z"/>
			
				<linearGradient id="SVGID_5_" gradientUnits="userSpaceOnUse" x1="290.611" y1="-47.2574" x2="125.789" y2="-201.0426" gradientTransform="matrix(-1 0 0 -1 430 86)">
				<stop  offset="0.17" style="stop-color:#75B0B7"/>
				<stop  offset="0.22" style="stop-color:#84B8BE"/>
				<stop  offset="0.38" style="stop-color:#AACED0"/>
				<stop  offset="0.54" style="stop-color:#C9DEDF"/>
				<stop  offset="0.7" style="stop-color:#DFEAE9"/>
				<stop  offset="0.85" style="stop-color:#ECF2EF"/>
				<stop  offset="0.98" style="stop-color:#F0F4F1"/>
			</linearGradient>
			<path class="st4" d="M213.5,286.4c-78.5-7.2-149.4-71.1-150.1-71.7L65,213c0.7,0.7,71,64,148.7,71.1
				c46.4,4.2,75.4-8.4,123.9-53.5c12.3-11.2,26.8-19.8,42.6-25c-15,6.5-28.9,15.6-41,26.7c-43.2,40.3-71.1,54.9-109.4,54.9
				C224.6,287.2,219.2,286.9,213.5,286.4z"/>
			
				<linearGradient id="SVGID_6_" gradientUnits="userSpaceOnUse" x1="261.8195" y1="-79.2149" x2="117.5806" y2="-213.7852" gradientTransform="matrix(-1 0 0 -1 430 86)">
				<stop  offset="0.17" style="stop-color:#75B0B7"/>
				<stop  offset="0.22" style="stop-color:#84B8BE"/>
				<stop  offset="0.38" style="stop-color:#AACED0"/>
				<stop  offset="0.54" style="stop-color:#C9DEDF"/>
				<stop  offset="0.7" style="stop-color:#DFEAE9"/>
				<stop  offset="0.85" style="stop-color:#ECF2EF"/>
				<stop  offset="0.98" style="stop-color:#F0F4F1"/>
			</linearGradient>
			<path class="st5" d="M197.8,298.4C119.9,283.2,86.3,253.6,86,253.3l1.6-1.7c0.3,0.2,33.4,29.4,110.7,44.6
				c26.4,5.1,75.4-2,108.4-22.6c10.8-6.7,18.8-14.6,26.3-22.3c5.8-6.1,12.1-11.8,18.8-16.9c13.3-9.3,27.6-17,42.8-22.7
				c-14.5,7-28.3,15.3-41.4,24.6c-6.5,5-12.7,10.6-18.4,16.6c-7.7,7.8-15.6,15.8-26.7,22.7c-26.7,16.7-62.5,24.6-89.9,24.6
				C211.4,300.3,204.6,299.7,197.8,298.4z"/>
			<path class="st1" d="M184.4,216.5c-4.5,6.1-9.5,11.8-14.8,17.2c-12.4,12.6-19.5,15.5-28.7,23c-11.9,9.8-22.3,30.6-37,41.2
				c-18.5,13.3-41,15.1-52.5,11.3c-7.1-2.3-9.6,5.1-4.8,9.2c6.7,5.7,35.7,22.2,69.7,17.1c23.4-3.4,39.5-14.7,47.7-20.7
				c41.4-29.8,54.5-75.8,58.7-94"/>
		</g>
	</g>
</g>
</svg>
