<?xml version="1.0" encoding="utf-8"?>
<!-- Generator: Adobe Illustrator 25.3.0, SVG Export Plug-In . SVG Version: 6.00 Build 0)  -->
<svg version="1.1" id="Ebene_1" xmlns="http://www.w3.org/2000/svg" xmlns:xlink="http://www.w3.org/1999/xlink" x="0px" y="0px"
	 viewBox="0 0 430 598" style="enable-background:new 0 0 430 598;" xml:space="preserve">
<style type="text/css">
	.st0{clip-path:url(#SVGID_2_);}
	.st1{fill:#0B6640;}
	.st2{fill:#75B0B7;}
	.st3{fill:#F0F4F1;}
	.st4{fill:#27182A;}
</style>
<g>
	<defs>
		<rect id="SVGID_1_" width="430" height="598"/>
	</defs>
	<clipPath id="SVGID_2_">
		<use xlink:href="#SVGID_1_"  style="overflow:visible;"/>
	</clipPath>
	<g class="st0">
		<polygon class="st1" points="145,503.9 141.9,510.2 149.3,510.2 		"/>
		<polygon class="st2" points="158.3,560.4 155.2,568.3 161.8,568.3 		"/>
		<polygon class="st3" points="94.1,559.5 90.9,551.3 87.2,559.5 		"/>
		<polygon class="st3" points="120.9,492 115.8,497.9 120.9,503.9 		"/>
		<polygon class="st4" points="115.8,592 125.9,592 120.9,598 		"/>
		<polygon class="st3" points="203.9,520.8 206.6,530.5 209.5,520.8 		"/>
		<polygon class="st2" points="198.3,457.8 198.3,464.5 206.7,459 		"/>
		<g>
			<polygon class="st1" points="155.2,457.8 158.5,461.1 161.8,457.8 			"/>
		</g>
		<polygon class="st4" points="62.2,459 62.2,464.5 69.8,461.1 		"/>
		<g>
			<polygon class="st1" points="53.8,492 55.9,500 59.4,492 			"/>
		</g>
		<polygon class="st1" points="113.6,475.7 118.4,468.7 118.4,474.2 		"/>
		<polygon class="st4" points="195.6,484.5 192.6,488.8 194.1,493.7 		"/>
		<polygon class="st3" points="243,508 240.2,512.7 246.2,514.3 		"/>
		<polygon class="st4" points="231,547.4 229.4,551.3 236.2,553.7 		"/>
		<g>
			<polygon class="st1" points="206.7,574.3 206.7,582.4 212.4,580.2 			"/>
		</g>
		<polygon class="st1" points="80.7,369.1 83.9,362.8 76.4,362.8 		"/>
		<polygon class="st2" points="67.4,312.6 70.6,304.6 63.9,304.6 		"/>
		<polygon class="st3" points="131.7,313.4 134.8,321.6 138.6,313.4 		"/>
		<polygon class="st3" points="104.8,381 109.9,375 104.8,369.1 		"/>
		<polygon class="st4" points="109.9,280.9 99.8,280.9 104.8,275 		"/>
		<polygon class="st3" points="21.8,352.1 19.1,342.5 16.2,352.1 		"/>
		<polygon class="st2" points="27.5,415.2 27.5,408.4 19,413.9 		"/>
		<g>
			<polygon class="st1" points="70.6,415.2 67.2,411.8 63.9,415.2 			"/>
		</g>
		<polygon class="st3" points="163.5,413.9 163.5,408.4 155.9,411.8 		"/>
		<g>
			<polygon class="st1" points="171.9,381 169.9,373 166.3,381 			"/>
		</g>
		<polygon class="st4" points="112.1,397.2 107.3,404.3 107.3,398.8 		"/>
		<polygon class="st4" points="30.1,388.5 33.1,384.1 31.6,379.3 		"/>
		<polygon class="st3" points="-17.3,364.9 -14.5,360.3 -20.5,358.7 		"/>
		<polygon class="st4" points="-5.3,325.6 -3.7,321.6 -10.5,319.2 		"/>
		<polygon class="st1" points="19,298.7 19,290.6 13.3,292.8 		"/>
		<polygon class="st1" points="306.6,413.7 309.8,407.3 302.3,407.3 		"/>
		<polygon class="st2" points="293.3,357.1 296.5,349.2 289.8,349.2 		"/>
		<polygon class="st3" points="357.6,358 360.7,366.2 364.5,358 		"/>
		<polygon class="st3" points="330.7,425.5 335.8,419.6 330.7,413.7 		"/>
		<polygon class="st3" points="335.8,325.5 325.7,325.5 330.7,319.5 		"/>
		<polygon class="st4" points="247.8,396.7 245,387 242.1,396.7 		"/>
		<polygon class="st2" points="253.4,459.7 253.4,453 244.9,458.5 		"/>
		<g>
			<polygon class="st1" points="296.5,459.7 293.1,456.4 289.8,459.7 			"/>
		</g>
		<polygon class="st4" points="389.4,458.5 389.4,453 381.8,456.4 		"/>
		<g>
			<polygon class="st1" points="397.9,425.5 395.8,417.5 392.2,425.5 			"/>
		</g>
		<polygon class="st4" points="338,441.8 333.2,448.9 333.2,443.3 		"/>
		<polygon class="st4" points="256,433.1 259,428.7 257.5,423.9 		"/>
		<polygon class="st3" points="208.7,409.5 211.4,404.8 205.5,403.2 		"/>
		<polygon class="st1" points="220.6,370.2 222.2,366.2 215.4,363.8 		"/>
		<g>
			<polygon class="st1" points="244.9,343.3 244.9,335.1 239.3,337.3 			"/>
		</g>
		<polygon class="st1" points="241.7,207.8 238.5,214.2 245.9,214.2 		"/>
		<polygon class="st2" points="255,264.4 251.8,272.3 258.5,272.3 		"/>
		<polygon class="st3" points="190.7,263.5 187.5,255.3 183.8,263.5 		"/>
		<polygon class="st3" points="217.6,195.9 212.5,201.9 217.6,207.8 		"/>
		<polygon class="st4" points="212.5,296 222.6,296 217.6,301.9 		"/>
		<polygon class="st3" points="300.5,224.8 303.3,234.5 306.2,224.8 		"/>
		<polygon class="st2" points="294.9,161.7 294.9,168.5 303.4,163 		"/>
		<g>
			<polygon class="st1" points="251.8,161.7 255.1,165.1 258.5,161.7 			"/>
		</g>
		<polygon class="st3" points="158.9,163 158.9,168.5 166.4,165.1 		"/>
		<g>
			<polygon class="st1" points="150.4,195.9 152.5,204 156.1,195.9 			"/>
		</g>
		<polygon class="st4" points="210.2,179.7 215,172.6 215,178.2 		"/>
		<polygon class="st4" points="292.3,188.4 289.3,192.8 290.8,197.6 		"/>
		<polygon class="st3" points="339.6,212 336.9,216.6 342.8,218.3 		"/>
		<polygon class="st4" points="327.7,251.3 326.1,255.3 332.9,257.7 		"/>
		<polygon class="st1" points="303.4,278.2 303.4,286.4 309,284.2 		"/>
		<polygon class="st2" points="306.6,553.8 314.6,557 314.6,550.2 		"/>
		<polygon class="st3" points="242.8,471.9 252.5,469.2 242.8,466.2 		"/>
		<polygon class="st2" points="179.8,477.5 186.5,477.5 181,469.1 		"/>
		<g>
			<polygon class="st1" points="179.8,520.6 183.2,517.2 179.8,513.9 			"/>
		</g>
		<polygon class="st4" points="206.4,480.2 210.8,483.1 215.7,481.7 		"/>
		<polygon class="st3" points="230,432.8 234.7,435.6 236.3,429.6 		"/>
		<polygon class="st4" points="269.3,444.7 273.3,446.3 275.7,439.6 		"/>
		<g>
			<polygon class="st1" points="320.5,505.4 328.6,505.4 326.4,499.7 			"/>
		</g>
		<polygon class="st3" points="135.9,512.2 130.4,512.2 133.8,519.8 		"/>
		<g>
			<polygon class="st1" points="103,503.8 95,505.9 103,509.5 			"/>
		</g>
		<polygon class="st1" points="217.5,125.7 222.4,120.5 215.2,118.4 		"/>
		<polygon class="st2" points="220.5,67.7 225.8,61 219.3,59.1 		"/>
		<polygon class="st3" points="282,86.5 282.8,95.2 288.6,88.4 		"/>
		<polygon class="st3" points="237.4,143.8 243.9,139.5 240.7,132.4 		"/>
		<polygon class="st4" points="270.1,49.1 260.5,46.3 266.9,42 		"/>
		<polygon class="st3" points="165.7,93 165.8,83 160.3,91.4 		"/>
		<polygon class="st1" points="239.9,161.4 233.3,166.9 234.9,161.6 		"/>
		<polygon class="st4" points="163.6,130.3 167.6,126.9 167.6,121.8 		"/>
		<polygon class="st3" points="124.6,94.4 128.6,90.7 123.3,87.5 		"/>
		<polygon class="st4" points="147,60 149.7,56.6 143.8,52.4 		"/>
		<g>
			<polygon class="st1" points="177.9,40.9 180.2,33.1 174.1,33.6 			"/>
		</g>
		<polygon class="st2" points="89.4,5.7 82.7,0.5 80.8,6.9 		"/>
		<polygon class="st2" points="176.8,141.3 170.3,139.5 173.3,149.1 		"/>
		<g>
			<polygon class="st1" points="188.8,99.9 184.6,102.2 187,106.4 			"/>
		</g>
		<polygon class="st4" points="151.9,131.4 148.6,127.3 143.5,127.4 		"/>
		<polygon class="st3" points="228.6,120.2 233.9,121.7 232.8,113.5 		"/>
		<g>
			<polygon class="st1" points="257.9,137.5 266.2,137.7 259.5,132 			"/>
		</g>
		<polygon class="st1" points="135.7,369.2 129.3,366 129.3,373.4 		"/>
		<polygon class="st2" points="79.1,382.5 71.2,379.3 71.2,386 		"/>
		<polygon class="st3" points="80,318.2 88.2,315 80,311.3 		"/>
		<polygon class="st3" points="147.5,345.1 141.6,340 135.7,345.1 		"/>
		<polygon class="st3" points="47.5,340 47.5,350.1 41.6,345.1 		"/>
		<polygon class="st4" points="118.7,428 109,430.8 118.7,433.7 		"/>
		<polygon class="st2" points="181.8,422.4 175,422.4 180.5,430.8 		"/>
		<g>
			<polygon class="st1" points="181.8,379.3 178.4,382.6 181.8,386 			"/>
		</g>
		<polygon class="st4" points="180.5,286.4 175,286.4 178.4,293.9 		"/>
		<g>
			<polygon class="st1" points="147.5,277.9 139.6,280 147.5,283.5 			"/>
		</g>
		<polygon class="st4" points="163.8,337.7 170.8,342.5 165.3,342.5 		"/>
		<polygon class="st4" points="155.1,419.7 150.7,416.8 145.8,418.2 		"/>
		<polygon class="st3" points="131.5,467.1 126.9,464.3 125.2,470.3 		"/>
		<polygon class="st1" points="-89,364.1 -92.2,370.5 -84.8,370.5 		"/>
		<polygon class="st3" points="-30.2,381.1 -27.4,390.7 -24.5,381.1 		"/>
		<polygon class="st2" points="-35.8,318 -35.8,324.8 -27.4,319.3 		"/>
		<g>
			<polygon class="st1" points="-78.9,318 -75.6,321.4 -72.2,318 			"/>
		</g>
		<polygon class="st4" points="-38.5,344.7 -41.4,349.1 -40,353.9 		"/>
		<polygon class="st3" points="8.9,368.3 6.1,372.9 12.1,374.6 		"/>
		<polygon class="st3" points="-138.7,121.2 -135.6,129.4 -131.8,121.2 		"/>
		<polygon class="st3" points="-70.6,274.2 -70.6,268.7 -78.1,272 		"/>
		<g>
			<polygon class="st1" points="-62.1,241.2 -64.2,233.2 -67.7,241.2 			"/>
		</g>
		<polygon class="st1" points="72.5,273.9 75.7,267.6 68.3,267.6 		"/>
		<polygon class="st2" points="59.3,217.4 62.4,209.5 55.7,209.5 		"/>
		<polygon class="st3" points="123.5,218.3 126.7,226.4 130.4,218.3 		"/>
		<polygon class="st3" points="96.6,285.8 101.7,279.9 96.6,273.9 		"/>
		<polygon class="st3" points="101.7,185.7 91.6,185.7 96.6,179.8 		"/>
		<polygon class="st4" points="13.7,256.9 11,247.3 8,256.9 		"/>
		<polygon class="st2" points="19.3,320 19.3,313.2 10.9,318.7 		"/>
		<g>
			<polygon class="st1" points="62.4,320 59,316.6 55.7,320 			"/>
		</g>
		<polygon class="st4" points="155.3,318.7 155.3,313.2 147.8,316.6 		"/>
		<g>
			<polygon class="st1" points="163.8,285.8 161.7,277.8 158.2,285.8 			"/>
		</g>
		<polygon class="st4" points="104,302 99.2,309.1 99.2,303.6 		"/>
		<polygon class="st4" points="22,293.3 24.9,288.9 23.4,284.1 		"/>
		<polygon class="st3" points="-25.4,269.7 -22.6,265.1 -28.6,263.5 		"/>
		<polygon class="st1" points="-13.5,230.4 -11.9,226.4 -18.6,224 		"/>
		<g>
			<polygon class="st1" points="10.9,203.5 10.9,195.4 5.2,197.6 			"/>
		</g>
		<polygon class="st2" points="20.9,56 17.8,63.8 24.4,63.8 		"/>
		<polygon class="st4" points="-21.6,136 -11.5,136 -16.5,142 		"/>
		<polygon class="st1" points="69.3,69.8 69.3,78 75,75.7 		"/>
		<polygon class="st2" points="48.3,377.7 56.3,380.9 56.3,374.2 		"/>
		<polygon class="st3" points="8.8,332.1 18.4,329.4 8.8,326.5 		"/>
		<polygon class="st2" points="-54.3,337.8 -47.5,337.8 -53.1,329.3 		"/>
		<g>
			<polygon class="st1" points="-54.3,380.9 -50.9,377.5 -54.3,374.2 			"/>
		</g>
		<polygon class="st4" points="-27.6,340.4 -23.2,343.4 -18.4,341.9 		"/>
		<polygon class="st3" points="-4,293 0.6,295.8 2.2,289.9 		"/>
		<polygon class="st4" points="35.3,305 39.3,306.6 41.7,299.8 		"/>
		<g>
			<polygon class="st1" points="62.2,329.3 70.3,329.3 68.1,323.7 			"/>
		</g>
		<polygon class="st3" points="-98.1,372.5 -103.6,372.5 -100.3,380.1 		"/>
		<polygon class="st1" points="-98.4,229.4 -104.7,226.2 -104.7,233.7 		"/>
		<polygon class="st3" points="-86.5,205.3 -92.5,200.2 -98.4,205.3 		"/>
		<polygon class="st2" points="-52.3,282.6 -59.1,282.6 -53.5,291.1 		"/>
		<g>
			<polygon class="st1" points="-52.3,239.6 -55.7,242.9 -52.3,246.2 			"/>
		</g>
		<polygon class="st4" points="-61.6,142.5 -67.2,142.5 -63.8,150.1 		"/>
		<g>
			<polygon class="st1" points="-122.9,85.7 -130.9,87.7 -122.9,91.3 			"/>
		</g>
		<polygon class="st4" points="-70.3,198 -63.2,202.8 -68.7,202.8 		"/>
		<polygon class="st4" points="-79,280 -83.4,277 -88.2,278.5 		"/>
		<polygon class="st3" points="-102.6,327.4 -107.2,324.6 -108.8,330.6 		"/>
		<polygon class="st1" points="92.2,455.2 88.2,453.6 85.8,460.4 		"/>
		<g>
			<polygon class="st1" points="65.3,430.8 57.1,430.8 59.3,436.5 			"/>
		</g>
		<polygon class="st1" points="-70.2,434.1 -63.9,437.3 -63.9,429.8 		"/>
		<polygon class="st2" points="-13.6,420.8 -5.7,423.9 -5.7,417.3 		"/>
		<polygon class="st3" points="-14.5,485 -22.7,488.2 -14.5,491.9 		"/>
		<polygon class="st3" points="-82,458.2 -76.1,463.3 -70.2,458.2 		"/>
		<polygon class="st4" points="18,463.3 18,453.2 23.9,458.2 		"/>
		<polygon class="st3" points="-53.2,375.2 -43.5,372.5 -53.2,369.6 		"/>
		<polygon class="st2" points="-116.3,380.9 -109.5,380.9 -115,372.4 		"/>
		<g>
			<polygon class="st1" points="-116.3,423.9 -112.9,420.6 -116.3,417.3 			"/>
		</g>
		<polygon class="st3" points="-115,516.9 -109.5,516.9 -112.9,509.3 		"/>
		<polygon class="st4" points="-98.3,465.5 -105.3,460.7 -99.8,460.7 		"/>
		<polygon class="st4" points="-89.6,383.5 -85.2,386.5 -80.4,385 		"/>
		<polygon class="st3" points="-66,336.1 -61.4,338.9 -59.7,332.9 		"/>
		<polygon class="st4" points="-26.7,348.1 -22.7,349.7 -20.3,342.9 		"/>
		<polygon class="st1" points="0.2,372.4 8.3,372.4 6.1,366.7 		"/>
		<polygon class="st1" points="211.7,361.3 208.5,367.6 215.9,367.6 		"/>
		<polygon class="st2" points="225,417.8 221.8,425.7 228.5,425.7 		"/>
		<polygon class="st3" points="160.7,416.9 157.5,408.7 153.8,416.9 		"/>
		<polygon class="st3" points="187.6,349.4 182.5,355.3 187.6,361.3 		"/>
		<polygon class="st4" points="182.5,449.4 192.6,449.4 187.6,455.4 		"/>
		<polygon class="st3" points="270.5,378.2 273.3,387.9 276.2,378.2 		"/>
		<polygon class="st2" points="264.9,315.2 264.9,321.9 273.4,316.4 		"/>
		<g>
			<polygon class="st1" points="221.8,315.2 225.2,318.5 228.5,315.2 			"/>
		</g>
		<polygon class="st4" points="128.9,316.4 128.9,321.9 136.4,318.5 		"/>
		<g>
			<polygon class="st1" points="120.4,349.4 122.5,357.4 126.1,349.4 			"/>
		</g>
		<polygon class="st1" points="180.2,333.1 185,326.1 185,331.6 		"/>
		<polygon class="st4" points="262.3,341.8 259.3,346.2 260.8,351.1 		"/>
		<polygon class="st3" points="309.6,365.4 306.9,370.1 312.8,371.7 		"/>
		<polygon class="st4" points="297.7,404.7 296.1,408.7 302.9,411.1 		"/>
		<g>
			<polygon class="st1" points="273.4,431.6 273.4,439.8 279,437.6 			"/>
		</g>
		<polygon class="st1" points="147.3,226.5 150.5,220.1 143.1,220.1 		"/>
		<polygon class="st3" points="171.4,238.4 176.5,232.4 171.4,226.5 		"/>
		<polygon class="st3" points="88.5,209.5 85.8,199.8 82.8,209.5 		"/>
		<polygon class="st2" points="94.1,272.6 94.1,265.8 85.7,271.3 		"/>
		<g>
			<polygon class="st1" points="137.2,272.6 133.8,269.2 130.5,272.6 			"/>
		</g>
		<polygon class="st3" points="230.2,271.3 230.2,265.8 222.6,269.2 		"/>
		<g>
			<polygon class="st1" points="238.6,238.4 236.5,230.4 233,238.4 			"/>
		</g>
		<polygon class="st4" points="178.8,254.6 174,261.7 174,256.2 		"/>
		<polygon class="st4" points="96.8,245.9 99.7,241.5 98.3,236.7 		"/>
		<polygon class="st3" points="49.4,222.3 52.2,217.7 46.2,216 		"/>
		<polygon class="st4" points="61.3,183 62.9,179 56.2,176.6 		"/>
		<polygon class="st1" points="425.8,271.1 429,264.7 421.5,264.7 		"/>
		<polygon class="st2" points="360,214.5 363.1,206.6 356.4,206.6 		"/>
		<polygon class="st4" points="314.4,254.1 311.7,244.4 308.8,254.1 		"/>
		<polygon class="st2" points="320,317.2 320,310.4 311.6,315.9 		"/>
		<g>
			<polygon class="st1" points="415.6,317.2 412.3,313.7 408.9,317.2 			"/>
		</g>
		<polygon class="st4" points="322.7,290.5 325.7,286.1 324.2,281.2 		"/>
		<polygon class="st3" points="275.3,266.9 278.1,262.3 272.1,260.6 		"/>
		<polygon class="st1" points="287.3,227.6 288.9,223.6 282.1,221.2 		"/>
		<g>
			<polygon class="st1" points="311.6,200.7 311.6,192.5 305.9,194.7 			"/>
		</g>
		<polygon class="st2" points="349.1,374.8 357,378 357,371.3 		"/>
		<polygon class="st3" points="309.5,329.3 319.2,326.5 309.5,323.6 		"/>
		<polygon class="st2" points="246.4,334.9 253.2,334.9 247.7,326.4 		"/>
		<g>
			<polygon class="st1" points="246.4,378 249.8,374.7 246.4,371.3 			"/>
		</g>
		<polygon class="st4" points="273.1,337.5 277.5,340.5 282.3,339.1 		"/>
		<polygon class="st3" points="296.7,290.2 301.3,293 303,287 		"/>
		<polygon class="st4" points="336,302.1 340,303.7 342.4,296.9 		"/>
		<g>
			<polygon class="st1" points="362.9,326.4 371,326.4 368.8,320.8 			"/>
		</g>
		<polygon class="st3" points="-195.1,278.3 -198.2,270.1 -202,278.3 		"/>
		<polygon class="st3" points="-148,210.7 -153.1,216.7 -148,222.6 		"/>
		<polygon class="st3" points="-153.1,310.8 -143,310.8 -148,316.7 		"/>
		<polygon class="st4" points="-226.9,177.8 -226.9,183.3 -219.4,179.9 		"/>
		<g>
			<polygon class="st1" points="-235.4,210.7 -233.3,218.7 -229.7,210.7 			"/>
		</g>
		<polygon class="st4" points="-155.4,194.5 -150.6,187.4 -150.6,192.9 		"/>
		<polygon class="st3" points="-157,424.3 -154.2,419.7 -160.1,418 		"/>
		<polygon class="st1" points="-210.8,365.2 -214,371.6 -206.5,371.6 		"/>
		<polygon class="st2" points="-197.5,421.8 -200.6,429.7 -193.9,429.7 		"/>
		<g>
			<polygon class="st1" points="-200.6,319.1 -197.3,322.5 -193.9,319.1 			"/>
		</g>
		<polygon class="st2" points="-166.4,261.4 -174.3,258.3 -174.3,265 		"/>
		<polygon class="st4" points="-153.3,334.1 -157.3,332.5 -159.7,339.3 		"/>
		<g>
			<polygon class="st1" points="-200.4,309.8 -208.6,309.8 -206.3,315.5 			"/>
		</g>
		<polygon class="st3" points="202.6,369.7 197.1,369.7 200.5,377.2 		"/>
		<g>
			<polygon class="st1" points="169.6,361.2 161.6,363.3 169.6,366.8 			"/>
		</g>
		<polygon class="st1" points="202.3,226.6 196,223.4 196,230.8 		"/>
		<polygon class="st2" points="145.7,239.8 137.9,236.7 137.9,243.4 		"/>
		<polygon class="st3" points="214.2,202.5 208.3,197.4 202.3,202.5 		"/>
		<polygon class="st3" points="114.2,197.4 114.2,207.4 108.2,202.5 		"/>
		<polygon class="st4" points="185.3,285.4 175.7,288.1 185.3,291.1 		"/>
		<polygon class="st2" points="248.4,279.8 241.7,279.8 247.2,288.2 		"/>
		<g>
			<polygon class="st1" points="248.4,236.7 245,240 248.4,243.4 			"/>
		</g>
		<polygon class="st4" points="230.4,195.1 237.5,199.9 232,199.9 		"/>
		<polygon class="st4" points="221.7,277.1 217.4,274.2 212.5,275.7 		"/>
		<polygon class="st3" points="198.2,324.5 193.5,321.7 191.9,327.7 		"/>
		<polygon class="st3" points="36.5,238.5 39.2,248.1 42.1,238.5 		"/>
		<polygon class="st3" points="75.6,225.7 72.8,230.3 78.8,232 		"/>
		<polygon class="st2" points="115,235.1 122.9,238.2 122.9,231.6 		"/>
		<polygon class="st3" points="75.4,189.5 85.1,186.8 75.4,183.9 		"/>
		<polygon class="st4" points="39,197.8 43.4,200.8 48.2,199.3 		"/>
		<g>
			<polygon class="st1" points="128.8,186.7 137,186.7 134.8,181 			"/>
		</g>
		<polygon class="st1" points="158.8,312.6 154.8,311 152.5,317.7 		"/>
		<g>
			<polygon class="st1" points="131.9,288.2 123.8,288.2 126,293.9 			"/>
		</g>
		<polygon class="st2" points="53,278.2 60.9,281.3 60.9,274.6 		"/>
		<polygon class="st3" points="52.1,342.4 44,345.6 52.1,349.3 		"/>
		<polygon class="st4" points="84.7,320.7 84.7,310.6 90.6,315.6 		"/>
		<polygon class="st4" points="40,205.5 44,207 46.3,200.3 		"/>
		<polygon class="st1" points="66.9,229.8 75,229.8 72.8,224.1 		"/>
		<polygon class="st1" points="15.8,143.1 12.6,149.4 20,149.4 		"/>
		<polygon class="st2" points="29,219.8 25.9,227.7 32.6,227.7 		"/>
		<polygon class="st3" points="-35.2,218.9 -38.4,210.7 -42.1,218.9 		"/>
		<polygon class="st3" points="-8.3,131.2 -13.4,137.1 -8.3,143.1 		"/>
		<polygon class="st3" points="-13.4,251.4 -3.3,251.4 -8.3,257.4 		"/>
		<polygon class="st4" points="74.6,180.2 77.4,189.9 80.3,180.2 		"/>
		<g>
			<polygon class="st1" points="-83.5,147.3 -81.5,155.3 -77.9,147.3 			"/>
		</g>
		<polygon class="st4" points="-15.7,66.5 -10.9,59.4 -10.9,65 		"/>
		<polygon class="st4" points="66.3,75.2 63.4,79.6 64.9,84.4 		"/>
		<polygon class="st3" points="113.7,167.4 110.9,172.1 116.9,173.7 		"/>
		<polygon class="st1" points="101.8,206.7 100.2,210.7 106.9,213.1 		"/>
		<g>
			<polygon class="st1" points="77.4,233.6 77.4,241.8 83.1,239.6 			"/>
		</g>
	</g>
</g>
</svg>
