<svg xmlns="http://www.w3.org/2000/svg" viewBox="0 0 2.75 6.87"><defs><style>.cls-1,.cls-2,.cls-3{fill:#f0f4f1;}.cls-1{opacity:0.5;}.cls-2{opacity:0.7;}.cls-3{opacity:0.3;}</style></defs><g id="Ebene_2" data-name="Ebene 2"><g id="Müllteppich"><path class="cls-1" d="M1.11,6.28a.54.54,0,0,1-.52.59A.59.59,0,0,1,0,6.28a.58.58,0,0,1,.59-.59A.54.54,0,0,1,1.11,6.28Z"/><path class="cls-2" d="M2.75,4.44a.45.45,0,0,1-.44.49.5.5,0,0,1,0-1A.45.45,0,0,1,2.75,4.44Z"/><path class="cls-3" d="M1.82.8a.74.74,0,0,1-.72.81A.8.8,0,0,1,.3.8.8.8,0,0,1,1.1,0,.74.74,0,0,1,1.82.8Z"/></g></g></svg>