<svg xmlns="http://www.w3.org/2000/svg" xmlns:xlink="http://www.w3.org/1999/xlink" viewBox="0 0 33.53 52.37"><defs><style>.cls-1{isolation:isolate;}.cls-2,.cls-3{opacity:0.2;}.cls-2,.cls-3,.cls-4,.cls-5,.cls-6{mix-blend-mode:screen;}.cls-2{fill:url(#Unbenannter_Verlauf_203);}.cls-3{fill:url(#Unbenannter_Verlauf_203-2);}.cls-4{fill:url(#Unbenannter_Verlauf_203-3);}.cls-5{fill:url(#Unbenannter_Verlauf_203-4);}.cls-6{fill:url(#Unbenannter_Verlauf_203-5);}</style><linearGradient id="Unbenannter_Verlauf_203" x1="8.75" y1="45.34" x2="8.75" y2="9.1" gradientUnits="userSpaceOnUse"><stop offset="0" stop-color="#0b6640" stop-opacity="0"/><stop offset="0.15" stop-color="#0b6640" stop-opacity="0.24"/><stop offset="0.43" stop-color="#0b6640" stop-opacity="0.65"/><stop offset="0.66" stop-color="#0b6640" stop-opacity="0.91"/><stop offset="0.79" stop-color="#0b6640"/></linearGradient><linearGradient id="Unbenannter_Verlauf_203-2" x1="32.05" y1="47.27" x2="32.05" y2="27.22" xlink:href="#Unbenannter_Verlauf_203"/><linearGradient id="Unbenannter_Verlauf_203-3" x1="-0.13" y1="43.75" x2="-0.13" y2="23.69" gradientTransform="matrix(-1, 0, 0, 1, 1.35, 0)" xlink:href="#Unbenannter_Verlauf_203"/><linearGradient id="Unbenannter_Verlauf_203-4" x1="17.87" y1="52.37" x2="17.87" y2="0" xlink:href="#Unbenannter_Verlauf_203"/><linearGradient id="Unbenannter_Verlauf_203-5" x1="26.74" y1="44.27" x2="26.74" y2="3.12" gradientTransform="matrix(-1, 0, 0, 1, 51.82, 0)" xlink:href="#Unbenannter_Verlauf_203"/></defs><g class="cls-1"><g id="Ebene_2" data-name="Ebene 2"><g id="Boden"><path class="cls-2" d="M7.65,45.34a11,11,0,0,1-1.57-4.45c-.17-2.27,2.27-5.75,2.27-7.14s-2.2-4.91-2.28-7,2.1-3.46,2.28-5.2S6.21,16.9,6.57,14.37s2.09-4,2.82-5.27c0,0-.64,4.21-.36,5.55.34,1.6,2.45,5,2.09,7S9,24.34,9.17,26.36s2.45,5.13,2.24,8-2.6,4.72-2.1,6.51A45.43,45.43,0,0,0,11,45.34Z"/><path class="cls-3" d="M31.44,47.27a6.08,6.08,0,0,1-.86-2.46c-.1-1.26,1.25-3.18,1.25-4S30.61,38.14,30.57,37s1.16-1.92,1.26-2.87-1.18-2.56-1-4,1.16-2.2,1.55-2.92a14.91,14.91,0,0,0-.19,3.07c.19.89,1.35,2.76,1.15,3.88s-1.15,1.48-1.07,2.6,1.35,2.84,1.23,4.44-1.43,2.61-1.16,3.6a23.86,23.86,0,0,0,.92,2.46Z"/><path class="cls-4" d="M2.09,43.75A6.19,6.19,0,0,0,3,41.28c.09-1.26-1.26-3.18-1.26-4S2.92,34.61,3,33.44,1.8,31.53,1.7,30.57s1.19-2.56,1-4-1.16-2.2-1.56-2.92a15,15,0,0,1,.19,3.08C1.14,27.65,0,29.52.17,30.64s1.16,1.49,1.08,2.6S-.11,36.08,0,37.68s1.44,2.61,1.16,3.6a24.43,24.43,0,0,1-.92,2.47Z"/><path class="cls-5" d="M16.78,52.37a20.69,20.69,0,0,1-1.57-6.43c-.17-3.29,2.26-8.32,2.26-10.33s-2.19-7.09-2.27-10.15c-.08-3.23,2.1-5,2.27-7.51S15.33,11.27,15.7,7.62,17.79,1.88,18.51,0c0,0-.63,6.08-.35,8,.34,2.32,2.44,7.19,2.08,10.11S18.15,22,18.3,24.94s2.45,7.41,2.23,11.59-2.6,6.82-2.09,9.41,1.66,6.43,1.66,6.43Z"/><path class="cls-6" d="M25.94,44.27a16.22,16.22,0,0,0,1.23-5.05c.13-2.59-1.78-6.54-1.78-8.12s1.73-5.57,1.79-8-1.65-3.94-1.79-5.91,1.68-5.24,1.4-8.11-1.65-4.51-2.22-6a44.72,44.72,0,0,1,.28,6.3c-.26,1.82-1.92,5.65-1.64,8s1.65,3.05,1.53,5.35-1.92,5.82-1.75,9.1,2,5.36,1.64,7.4-1.3,5.05-1.3,5.05Z"/></g></g></g></svg>