<svg xmlns="http://www.w3.org/2000/svg" xmlns:xlink="http://www.w3.org/1999/xlink" viewBox="0 0 1620.33 973.74"><defs><style>.cls-1{fill:none;}.cls-2{fill:#2168b6;}.cls-3{fill:url(#Unbenannter_Verlauf_170);}.cls-4{fill:url(#Unbenannter_Verlauf_170-2);}.cls-5{fill:url(#Unbenannter_Verlauf_170-3);}.cls-6{fill:url(#Unbenannter_Verlauf_170-4);}.cls-7{fill:url(#Unbenannter_Verlauf_170-5);}.cls-8{fill:url(#Unbenannter_Verlauf_170-6);}.cls-9{fill:url(#Unbenannter_Verlauf_170-7);}.cls-10{fill:url(#Unbenannter_Verlauf_170-8);}.cls-11{opacity:0.6;}.cls-12{clip-path:url(#clip-path);}.cls-13{fill:#27182a;}</style><linearGradient id="Unbenannter_Verlauf_170" x1="597.9" y1="-1164.34" x2="633.3" y2="-1260.26" gradientTransform="matrix(0.95, 0.31, -0.31, 0.95, -247.82, 1091)" gradientUnits="userSpaceOnUse"><stop offset="0.11" stop-color="#2168b6"/><stop offset="0.25" stop-color="#6495c9"/><stop offset="0.38" stop-color="#9ebdd9"/><stop offset="0.5" stop-color="#c8dae5"/><stop offset="0.59" stop-color="#e2ebec"/><stop offset="0.64" stop-color="#ecf2ef"/></linearGradient><linearGradient id="Unbenannter_Verlauf_170-2" x1="319.34" y1="-1847.02" x2="354.74" y2="-1942.94" gradientTransform="matrix(0.82, 0.43, -0.39, 0.75, -442.32, 1322.99)" xlink:href="#Unbenannter_Verlauf_170"/><linearGradient id="Unbenannter_Verlauf_170-3" x1="-890.65" y1="2922.12" x2="-833.55" y2="2767.42" gradientTransform="matrix(0.48, 0.79, 0.72, -0.44, -1283.65, 2181.09)" xlink:href="#Unbenannter_Verlauf_170"/><linearGradient id="Unbenannter_Verlauf_170-4" x1="357.64" y1="2870.02" x2="413.86" y2="2717.69" gradientTransform="matrix(0.81, 0.46, 0.31, -0.54, -655.2, 1684.68)" xlink:href="#Unbenannter_Verlauf_170"/><linearGradient id="Unbenannter_Verlauf_170-5" x1="823.23" y1="2420.02" x2="887.65" y2="2245.47" gradientTransform="matrix(0.86, 0.34, 0.23, -0.58, -538.13, 1507.39)" xlink:href="#Unbenannter_Verlauf_170"/><linearGradient id="Unbenannter_Verlauf_170-6" x1="612.21" y1="796.1" x2="651.24" y2="690.35" gradientTransform="matrix(1.3, -0.03, -0.01, -0.7, 195.58, 997.41)" xlink:href="#Unbenannter_Verlauf_170"/><linearGradient id="Unbenannter_Verlauf_170-7" x1="794.32" y1="-1149.54" x2="827.07" y2="-1238.31" xlink:href="#Unbenannter_Verlauf_170"/><linearGradient id="Unbenannter_Verlauf_170-8" x1="995.12" y1="-1135.32" x2="1027.88" y2="-1224.08" xlink:href="#Unbenannter_Verlauf_170"/><clipPath id="clip-path" transform="translate(57.89 196.68)"><path class="cls-1" d="M506.62,8.67s43.32,64.34,67.25,72,43.35-.5,71.71,15.8,53.88,67.67,84.65,72.74,54.41-12.54,85.69,5.9,58.46,57.14,86,64.77S974.83,233.3,1010,247s47.27,58.35,74.46,67.08,109.32,18.26,93.62,67.22-36.91,103.56-97.36,93.77-114.53-13-162-22.19-84.48-58.29-178.94-40.6-118.3-46.34-147.37-60.47-103-30.62-135.24-42.18S415.06,254.1,394,241.33s-107.27-63.1-100.41-121.67c1.89-16.1,7-23.63,18.77-36.12,14.25-15.11,37.49-31.42,63-47.53C422,6.57,488-8.1,506.62,8.67Z"/></clipPath></defs><g id="Ebene_2" data-name="Ebene 2"><g id="Netze"><path class="cls-2" d="M506.07,10.38s43.32,64.35,67.25,72,43.35-.49,71.71,15.81,53.88,67.67,84.65,72.74,54.41-12.54,85.69,5.89,58.46,57.15,86,64.78,72.91-6.61,108.11,7.09,47.27,58.35,74.46,67.07,109.32,18.27,93.62,67.22-36.36,101.85-96.81,92.06-115.08-11.25-162.51-20.47S833.76,396.3,739.3,414,621,367.64,591.93,353.52,489,322.9,456.69,311.34s-42.18-55.52-63.28-68.29S286.14,180,293,121.38c1.89-16.1,7-23.63,18.77-36.13,14.25-15.1,37.48-31.42,63-47.52C421.41,8.29,487.45-6.39,506.07,10.38Z" transform="translate(57.89 196.68)"/><path class="cls-3" d="M650.9,102.09A105.54,105.54,0,0,1,660,109.8a255.71,255.71,0,0,1,18.38,19.75c13,15.25,95.27,97.49,95.27,97.49l-89.8-55-90.07-86s14.62,1.07,20.31,1.67a105.93,105.93,0,0,1,14.45,3.14s8,2.57,12.53,5.13A57.73,57.73,0,0,1,650.9,102.09Z" transform="translate(57.89 196.68)"/><path class="cls-4" d="M522,20.24a101.14,101.14,0,0,1,7.28,8.14,243.37,243.37,0,0,1,14.26,20c10,15.2,74.49,99.33,74.49,99.33L543.4,85.15,469.85,3.79S485.32,0,490.39,1.53a109.6,109.6,0,0,1,12.68,5.25,87.81,87.81,0,0,1,10.71,6.58A58.4,58.4,0,0,1,522,20.24Z" transform="translate(57.89 196.68)"/><path class="cls-5" d="M349.1,219.36c14.56,10.89,117.74,59.13,117.74,59.13L380,183.08l-86.23-67.76s-2.3,11.29-1.95,16.58C292.41,141.48,307.54,188.29,349.1,219.36Z" transform="translate(57.89 196.68)"/><path class="cls-6" d="M481.35,321.37c17.12,4.1,155.76,21.28,155.76,21.28L518.31,295l-103.2-26.8s4.41,9.26,7.56,13.17C428.39,288.48,432.48,309.66,481.35,321.37Z" transform="translate(57.89 196.68)"/><path class="cls-7" d="M693.3,417.91c17.54,1.55,149.55-8.1,149.55-8.1L718.35,380.1l-106-11.37s5.71,8.51,9.41,11.92C628.44,386.84,643.24,413.5,693.3,417.91Z" transform="translate(57.89 196.68)"/><path class="cls-8" d="M966.07,453c14.25-3.69,114.68-44.84,114.68-44.84l-107.26,14.4-86.84,21s7.24,3.83,11.24,5C905.14,450.69,925.37,463.52,966.07,453Z" transform="translate(57.89 196.68)"/><path class="cls-9" d="M836.57,181.79a91.72,91.72,0,0,1,8.09,7A231.56,231.56,0,0,1,861,206.7c11.6,13.85,84.86,88.47,84.86,88.47L865.68,245.5l-80.27-78s13.11.9,18.21,1.41a92.75,92.75,0,0,1,12.93,2.79,74,74,0,0,1,11.21,4.61A50.68,50.68,0,0,1,836.57,181.79Z" transform="translate(57.89 196.68)"/><path class="cls-10" d="M1023.43,256.67a90,90,0,0,1,8.09,7,227.71,227.71,0,0,1,16.37,17.92c11.6,13.85,84.86,88.46,84.86,88.46l-80.21-49.67-80.27-78s13.12.89,18.21,1.4a94.62,94.62,0,0,1,12.94,2.79,75.17,75.17,0,0,1,11.2,4.61A50.69,50.69,0,0,1,1023.43,256.67Z" transform="translate(57.89 196.68)"/><g class="cls-11"><g class="cls-12"><image width="1236" height="429" transform="translate(162.33) rotate(17.78) scale(1.24)" xlink:href="../../../Gitter.png"/></g></g><path class="cls-13" d="M380.45,30.53c-60,31.48-99.66,74-88.66,94.93s68.52,12.41,128.48-19.06,99.66-74,88.66-94.92S440.41-.94,380.45,30.53Zm36.34,69.52c-57.77,30.33-112.12,40.6-121.38,23s30-56.55,87.82-86.87,112.12-40.6,121.39-23S474.56,69.73,416.79,100.05Z" transform="translate(57.89 196.68)"/><polygon class="cls-13" points="351.63 319.05 57.89 486.25 61.99 492.81 354.04 322.42 351.63 319.05"/></g></g></svg>