<?xml version="1.0" encoding="utf-8"?>
<!-- Generator: Adobe Illustrator 25.3.0, SVG Export Plug-In . SVG Version: 6.00 Build 0)  -->
<svg version="1.1" id="Ebene_1" xmlns="http://www.w3.org/2000/svg" xmlns:xlink="http://www.w3.org/1999/xlink" x="0px" y="0px"
	 viewBox="0 0 713 550" style="enable-background:new 0 0 713 550;" xml:space="preserve">
<style type="text/css">
	.st0{clip-path:url(#SVGID_2_);}
	.st1{fill:#0B6640;}
	.st2{opacity:0.14;fill:#27182A;}
</style>
<g>
	<defs>
		<rect id="SVGID_1_" x="0" y="0.6" width="713" height="549.4"/>
	</defs>
	<clipPath id="SVGID_2_">
		<use xlink:href="#SVGID_1_"  style="overflow:visible;"/>
	</clipPath>
	<g class="st0">
		<path class="st1" d="M600.7,223.6H0c0,0,10-14.7,18.7-23.4c8.7-8.7,45.2-36.7,96.5-37.4c26.9-0.4,53-51.2,94.6-51.2
			s56.8,40.5,81.1,40.5c10.6,0,55.3-151.6,100.4-151.6s86.9,141.9,99.4,141.9s16.1-62.7,51.1-62.7c28.6,0,44.1,77.2,58.8,77.2
			s38.9-130,103-131.4c33.9-0.8,66.7,142.6,117.7,142.6c51,0,89.6,38.5,92.9,41.9s5.5,13.6,5.5,13.6H600.7z"/>
		<path class="st2" d="M0,222.5c0,0,83.6,213,220.7,248.3s135.2,207.7,252.7,203.8c117.6-3.9,137.1-319.2,233.1-319.2
			s213.1-132.8,213.1-132.8H0z"/>
	</g>
</g>
</svg>
