<svg xmlns="http://www.w3.org/2000/svg" xmlns:xlink="http://www.w3.org/1999/xlink" viewBox="0 0 2042.02 1492.5"><defs><style>.cls-1{fill:none;}.cls-2{fill:#2168b6;}.cls-3{fill:url(#Unbenannter_Verlauf_170);}.cls-4{fill:url(#Unbenannter_Verlauf_170-2);}.cls-5{fill:url(#Unbenannter_Verlauf_170-3);}.cls-6{fill:url(#Unbenannter_Verlauf_170-4);}.cls-7{fill:url(#Unbenannter_Verlauf_170-5);}.cls-8{fill:url(#Unbenannter_Verlauf_170-6);}.cls-9{fill:url(#Unbenannter_Verlauf_170-7);}.cls-10{opacity:0.6;}.cls-11{clip-path:url(#clip-path);}.cls-12{fill:#27182a;}</style><linearGradient id="Unbenannter_Verlauf_170" x1="-7556.54" y1="-1089.03" x2="-7511.49" y2="-1211.09" gradientTransform="translate(-6621.53 2833.47) rotate(152.78)" gradientUnits="userSpaceOnUse"><stop offset="0.11" stop-color="#2168b6"/><stop offset="0.25" stop-color="#6495c9"/><stop offset="0.38" stop-color="#9ebdd9"/><stop offset="0.5" stop-color="#c8dae5"/><stop offset="0.59" stop-color="#e2ebec"/><stop offset="0.64" stop-color="#ecf2ef"/></linearGradient><linearGradient id="Unbenannter_Verlauf_170-2" x1="-8520.77" y1="-203.76" x2="-8475.73" y2="-325.82" gradientTransform="matrix(-0.89, 0.28, -0.25, -0.8, -6804, 2515.37)" xlink:href="#Unbenannter_Verlauf_170"/><linearGradient id="Unbenannter_Verlauf_170-3" x1="-8008.71" y1="-2315.47" x2="-7936.06" y2="-2512.33" gradientTransform="matrix(-0.9, -0.22, -0.2, 0.82, -6853.76, 215.22)" xlink:href="#Unbenannter_Verlauf_170"/><linearGradient id="Unbenannter_Verlauf_170-4" x1="-8411.52" y1="1776.45" x2="-8339.98" y2="1582.6" gradientTransform="matrix(-0.9, 0.24, 0.16, 0.6, -7222.09, 1050.38)" xlink:href="#Unbenannter_Verlauf_170"/><linearGradient id="Unbenannter_Verlauf_170-5" x1="-7966.96" y1="3319.47" x2="-7884.98" y2="3097.35" gradientTransform="matrix(-0.85, 0.37, 0.25, 0.57, -7257.65, 1246.41)" xlink:href="#Unbenannter_Verlauf_170"/><linearGradient id="Unbenannter_Verlauf_170-6" x1="-5008.48" y1="6261.18" x2="-4958.82" y2="6126.62" gradientTransform="matrix(-0.9, 0.94, 0.51, 0.49, -7598.45, 2035.64)" xlink:href="#Unbenannter_Verlauf_170"/><linearGradient id="Unbenannter_Verlauf_170-7" x1="-7306.6" y1="-1070.2" x2="-7264.91" y2="-1183.15" xlink:href="#Unbenannter_Verlauf_170"/><clipPath id="clip-path" transform="translate(604.82 445.31)"><path class="cls-1" d="M890.54,333.21s-96.87-18.92-125.31-4.29-38.57,39.45-78.76,50.31S577.1,366.82,544.86,389.94s-37.68,60.24-82.41,71.8-104,1.18-135.67,19.1-59.66,71.54-103.65,90.9-91.53,68-124.7,47.41c-30.9-19.14-39.56-7.82-69.48-66s-51.1-69.87,12.1-115.45S69,338.77,120,304.39s128.47-23.57,197.54-124.48,148.16-64.75,187-78.19S624.72,36.64,664.17,18s87.91,12,118.38,4.51,153.3-39.74,199.84,19.14C995.17,57.81,997.37,69.17,998,91c.77,26.41-5.45,62-13.93,99.46C968.6,258.92,922.38,331.55,890.54,333.21Z"/></clipPath></defs><g id="Ebene_2" data-name="Ebene 2"><g id="Netze"><path class="cls-2" d="M889.49,331.17s-96.87-18.92-125.31-4.29-38.57,39.45-78.76,50.31S576.05,364.77,543.81,387.9s-37.68,60.24-82.41,71.8-104,1.18-135.67,19.1-59.65,71.54-103.65,90.9-47.72,31.46-80,48.08S58.87,611.33,29,553.16s-47.67-77.5,15.53-123.08S68,336.73,118.92,302.34s128.47-23.56,197.54-124.47,148.16-64.75,187-78.19S623.67,34.59,663.12,15.94,751,28,781.5,20.45,934.8-19.29,981.34,39.59C994.12,55.77,996.32,67.13,997,89c.77,26.41-5.45,62-13.93,99.45C967.55,256.88,921.33,329.51,889.49,331.17Z" transform="translate(604.82 445.31)"/><path class="cls-3" d="M676.65,379a130.7,130.7,0,0,1-15.1,1.23A329.37,329.37,0,0,1,627.24,379c-25.45-2-173.44-2-173.44-2l130.27-31.34,158.4-3.69s-14.13,12.19-19.78,16.78-15.83,10.16-15.83,10.16-9.51,4.89-15.89,6.66C685.38,377.8,676.65,379,676.65,379Z" transform="translate(604.82 445.31)"/><path class="cls-4" d="M866.31,336.62a132.55,132.55,0,0,1-13.87-.77c-7.83-.81-18.05-2.48-30.78-5.13C799,326,665.26,308.37,665.26,308.37l123.37-10.88,139.38,7S917.5,321.85,911.56,325s-16.13,6.67-16.13,6.67-9.48,3-15.56,3.72A74,74,0,0,1,866.31,336.62Z" transform="translate(604.82 445.31)"/><path class="cls-5" d="M842.69,1.89C819.8,5.2,683.54,54.63,683.54,54.63l164,7.69L986.12,45.7S978,33.47,973,29C963.78,21,908.05-7.55,842.69,1.89Z" transform="translate(604.82 445.31)"/><path class="cls-6" d="M631.91,29.11c-19.1,11.71-159.3,121-159.3,121l149.76-64,117-68.75S727.05,13,720.69,12.29C709.15,11.05,686.42-4.33,631.91,29.11Z" transform="translate(604.82 445.31)"/><path class="cls-7" d="M354.32,133c-17.17,14.39-127.27,141.86-127.27,141.86l138.75-85.3,105.63-85.16s-12.8-2.51-19.19-2.26C440.64,102.55,403.34,91.87,354.32,133Z" transform="translate(604.82 445.31)"/><path class="cls-8" d="M77.32,346.82C67.81,363,14.47,490.35,14.47,490.35L98,380.88l59.22-97.05s-9.95,3.07-14.6,5.62C134.22,294.07,104.47,300.73,77.32,346.82Z" transform="translate(604.82 445.31)"/><path class="cls-9" d="M437.87,474.32a116.79,116.79,0,0,1-13.57,1,293.2,293.2,0,0,1-30.85-1.39c-22.9-2-156-3.25-156-3.25l116.87-27.48,142.38-2.06s-12.6,11-17.64,15.12S465,465.38,465,465.38s-8.51,4.38-14.23,5.93C445.71,473.33,437.87,474.32,437.87,474.32Z" transform="translate(604.82 445.31)"/><g class="cls-10"><g class="cls-11"><image width="1236" height="429" transform="translate(2042.02 601.41) rotate(152.78) scale(1.58)" xlink:href="../../../Gitter.png"/></g></g><path class="cls-12" d="M984.39,200c25.63-82.27,23.11-156.23-5.64-165.19S905.93,85.3,880.29,167.58s-23.11,156.23,5.64,165.19S958.76,282.29,984.39,200Zm-95.25-29.85c24.69-79.27,64.35-137.42,88.57-129.87s23.84,77.92-.86,157.19S912.5,334.9,888.28,327.35,864.44,249.43,889.14,170.16Z" transform="translate(604.82 445.31)"/><polygon class="cls-12" points="1472.54 746.34 991.67 1020.04 998.39 1030.79 1476.49 751.85 1472.54 746.34"/></g></g></svg>