<svg xmlns="http://www.w3.org/2000/svg" xmlns:xlink="http://www.w3.org/1999/xlink" viewBox="0 0 1729.39 2032.03"><defs><style>.cls-1{fill:none;}.cls-2{fill:#2168b6;}.cls-3{fill:url(#Unbenannter_Verlauf_170);}.cls-4{fill:url(#Unbenannter_Verlauf_170-2);}.cls-5{fill:url(#Unbenannter_Verlauf_170-3);}.cls-6{fill:url(#Unbenannter_Verlauf_170-4);}.cls-7{fill:url(#Unbenannter_Verlauf_170-5);}.cls-8{fill:url(#Unbenannter_Verlauf_170-6);}.cls-9{fill:url(#Unbenannter_Verlauf_170-7);}.cls-10{fill:url(#Unbenannter_Verlauf_170-8);}.cls-11{clip-path:url(#clip-path);}.cls-12{fill:#27182a;}</style><linearGradient id="Unbenannter_Verlauf_170" x1="-3871.06" y1="-2634.1" x2="-3818.06" y2="-2777.72" gradientTransform="matrix(0.9, 0.43, -0.43, 0.9, 2914.67, 5117.52)" gradientUnits="userSpaceOnUse"><stop offset="0.11" stop-color="#2168b6"/><stop offset="0.25" stop-color="#6495c9"/><stop offset="0.38" stop-color="#9ebdd9"/><stop offset="0.5" stop-color="#c8dae5"/><stop offset="0.59" stop-color="#e2ebec"/><stop offset="0.64" stop-color="#ecf2ef"/></linearGradient><linearGradient id="Unbenannter_Verlauf_170-2" x1="-4929.41" y1="-2640.67" x2="-4876.4" y2="-2784.29" gradientTransform="matrix(0.76, 0.54, -0.49, 0.69, 2825.02, 5377.68)" xlink:href="#Unbenannter_Verlauf_170"/><linearGradient id="Unbenannter_Verlauf_170-3" x1="-5936.21" y1="1239.74" x2="-5850.72" y2="1008.1" gradientTransform="matrix(0.37, 0.85, 0.77, -0.34, 1376.83, 6517.17)" xlink:href="#Unbenannter_Verlauf_170"/><linearGradient id="Unbenannter_Verlauf_170-4" x1="-4887.37" y1="4841.5" x2="-4803.19" y2="4613.41" gradientTransform="matrix(0.73, 0.57, 0.38, -0.49, 2050.37, 6404.68)" xlink:href="#Unbenannter_Verlauf_170"/><linearGradient id="Unbenannter_Verlauf_170-5" x1="-4106.95" y1="5672.34" x2="-4010.49" y2="5410.99" gradientTransform="matrix(0.81, 0.46, 0.31, -0.54, 2184.06, 6356.11)" xlink:href="#Unbenannter_Verlauf_170"/><linearGradient id="Unbenannter_Verlauf_170-6" x1="-1812.43" y1="6403.53" x2="-1754" y2="6245.2" gradientTransform="matrix(1.29, 0.15, 0.08, -0.7, 2777.47, 6258.62)" xlink:href="#Unbenannter_Verlauf_170"/><linearGradient id="Unbenannter_Verlauf_170-7" x1="-3576.97" y1="-2611.94" x2="-3527.92" y2="-2744.84" xlink:href="#Unbenannter_Verlauf_170"/><linearGradient id="Unbenannter_Verlauf_170-8" x1="-3276.31" y1="-2590.65" x2="-3227.26" y2="-2723.55" xlink:href="#Unbenannter_Verlauf_170"/><clipPath id="clip-path" transform="translate(191.53)"><path class="cls-1" d="M342.77,803.34s51.07,104.31,85,120.59,64.4,8.15,103.14,38.13,66.06,111.4,110.65,125.22,83.27-7.46,125.9,26.28,75,96.73,114.29,113.69,109.49,5.13,158.9,32.64,58.16,96.23,96.71,114.74,158.4,49.47,125.09,118.87S1158.18,1629,1070.53,1602.13s-138.9-32.16-207.37-55.54-113.37-103.76-257.09-96.86-166-93-206.21-119.86-146.43-66.5-192-90.25-51.19-91-79.88-114.25-146.18-115.55-124-201c6.09-23.48,15.19-33.61,35.23-49.73,24.23-19.49,62-38.93,103.18-57.6C217.63,782.91,318.59,774.66,342.77,803.34Z"/></clipPath></defs><g id="Ebene_2" data-name="Ebene 2"><g id="Netze"><path class="cls-2" d="M342.77,803.34s51.07,104.31,85,120.59,64.4,8.15,103.14,38.13,66.06,111.4,110.65,125.22,83.27-7.46,125.9,26.28,75,96.73,114.29,113.69,109.49,5.13,158.9,32.64,58.16,96.23,96.71,114.74,158.4,49.47,125.09,118.87S1158.18,1629,1070.53,1602.13s-138.9-32.16-207.37-55.54-113.37-103.76-257.09-96.86-166-93-206.21-119.86-146.43-66.5-192-90.25-51.19-91-79.88-114.25-146.18-115.55-124-201c6.09-23.48,15.19-33.61,35.23-49.73,24.23-19.49,62-38.93,103.18-57.6C217.63,782.91,318.59,774.66,342.77,803.34Z" transform="translate(191.53)"/><path class="cls-3" d="M538.81,969a154,154,0,0,1,11.87,13.29,385,385,0,0,1,23.22,33.05c16.22,25.29,121.35,164.1,121.35,164.1l-121.94-99.92-116-145.95s21.48,4.59,29.79,6.64,20.78,7.62,20.78,7.62,11.35,5.45,17.53,10.17C531.51,961.67,538.81,969,538.81,969Z" transform="translate(191.53)"/><path class="cls-4" d="M364.34,821.22a152.52,152.52,0,0,1,9.13,13.55c4.8,7.92,10.51,18.69,17.06,32.51,11.67,24.59,90.14,162.58,90.14,162.58l-97.85-108L290.39,786.15s23.73-2.46,30.94.85,17.73,10.39,17.73,10.39,9.53,6.76,14.53,12C358.63,813.58,364.34,821.22,364.34,821.22Z" transform="translate(191.53)"/><path class="cls-5" d="M67.16,1081.17C86.53,1100.29,229.69,1193,229.69,1193L120.38,1033.67,6.36,915.51S.63,931.79.06,939.7C-1,954,11.87,1026.57,67.16,1081.17Z" transform="translate(191.53)"/><path class="cls-6" d="M242.44,1259.54C267,1269.13,469.1,1323,469.1,1323l-166.45-95-147.58-60.88s4.64,14.63,8.52,21.09C170.61,1199.92,172.34,1232.17,242.44,1259.54Z" transform="translate(191.53)"/><path class="cls-7" d="M537,1446.13c25.7,5.88,223.48,18.6,223.48,18.6l-178.58-69.55L427,1356.61s6.73,13.78,11.51,19.6C447.2,1386.77,463.68,1429.34,537,1446.13Z" transform="translate(191.53)"/><path class="cls-8" d="M934.42,1554c21.9-2.55,179.29-43,179.29-43l-162.05-.6-133.1,13.39s10,7.17,15.64,9.71C844.53,1538.12,871.91,1561.29,934.42,1554Z" transform="translate(191.53)"/><path class="cls-9" d="M797.88,1125.24a138.72,138.72,0,0,1,10.56,12,343.45,343.45,0,0,1,20.61,29.93c14.37,22.92,107.76,148.59,107.76,148.59L828,1225.69,724.92,1093.61s19.26,4,26.72,5.81,18.61,6.78,18.61,6.78,10.15,4.88,15.68,9.13C791.38,1118.6,797.88,1125.24,797.88,1125.24Z" transform="translate(191.53)"/><path class="cls-10" d="M1059.71,1274.56a138.36,138.36,0,0,1,10.57,12,343.71,343.71,0,0,1,20.6,29.93c14.37,22.92,107.76,148.59,107.76,148.59L1089.84,1375,986.75,1242.92s19.26,4,26.72,5.81,18.61,6.79,18.61,6.79,10.16,4.87,15.68,9.13C1053.21,1267.92,1059.71,1274.56,1059.71,1274.56Z" transform="translate(191.53)"/><g class="cls-11"><image width="1236" height="429" transform="translate(1379.51 2032.03) rotate(-143.84) scale(1.38)" xlink:href="../../../Gitter.png"/></g><path class="cls-12" d="M152.32,807.51c-95.38,34.41-163,89.31-150.94,122.64s99.09,32.45,194.47-2,163-89.32,150.94-122.64S247.7,773.1,152.32,807.51ZM192,918.06c-91.9,33.15-174.61,37.26-184.74,9.18S63.41,849.52,155.3,816.37,329.91,779.11,340,807.19,283.89,884.91,192,918.06Z" transform="translate(191.53)"/><polygon class="cls-12" points="192.91 930.15 272.29 0 273.07 4.93 199.1 927.98 192.91 930.15"/><polygon class="cls-12" points="526.45 799.8 532.59 798.85 272.29 0 272.29 3.93 526.45 799.8"/></g></g></svg>