<svg xmlns="http://www.w3.org/2000/svg" xmlns:xlink="http://www.w3.org/1999/xlink" width="63.44" height="83.66" viewBox="0 0 63.44 83.66"><defs><linearGradient id="a" x1="95.89" y1="188.4" x2="127.64" y2="163.19" gradientTransform="matrix(0.91, 0.42, 0.42, -0.91, -134.23, 139.91)" gradientUnits="userSpaceOnUse"><stop offset="0" stop-color="#0b6640"/><stop offset="0.23" stop-color="#174537"/><stop offset="0.46" stop-color="#202c30"/><stop offset="0.67" stop-color="#251d2b"/><stop offset="0.84" stop-color="#27182a"/></linearGradient><linearGradient id="b" x1="122" y1="171.58" x2="60.18" y2="122.5" gradientTransform="matrix(0.91, 0.42, 0.42, -0.91, -134.23, 139.91)" gradientUnits="userSpaceOnUse"><stop offset="0.18" stop-color="#0b6640"/><stop offset="0.28" stop-color="#10593c"/><stop offset="0.47" stop-color="#1c3632"/><stop offset="0.6" stop-color="#27182a"/></linearGradient><linearGradient id="c" x1="122.82" y1="170.57" x2="61.01" y2="121.49" gradientTransform="matrix(0.91, 0.42, 0.42, -0.91, -134.23, 139.91)" gradientUnits="userSpaceOnUse"><stop offset="0.18" stop-color="#0b6640"/><stop offset="0.37" stop-color="#10593c"/><stop offset="0.73" stop-color="#1c3632"/><stop offset="1" stop-color="#27182a"/></linearGradient><linearGradient id="d" x1="145.02" y1="188.2" x2="51.57" y2="113.99" xlink:href="#c"/><linearGradient id="e" x1="841.89" y1="155.11" x2="829.92" y2="145.6" gradientTransform="translate(744.83 552.79) rotate(-155.22)" gradientUnits="userSpaceOnUse"><stop offset="0" stop-color="#0b6640"/><stop offset="0.16" stop-color="#10593c"/><stop offset="0.44" stop-color="#1c3632"/><stop offset="0.66" stop-color="#27182a"/></linearGradient><linearGradient id="f" x1="111.25" y1="196.61" x2="92.93" y2="182.06" gradientTransform="matrix(0.91, 0.42, 0.42, -0.91, -134.23, 139.91)" gradientUnits="userSpaceOnUse"><stop offset="0.18" stop-color="#0b6640"/><stop offset="0.28" stop-color="#10593c"/><stop offset="0.46" stop-color="#1c3632"/><stop offset="0.6" stop-color="#27182a"/></linearGradient><linearGradient id="g" x1="94.6" y1="157.21" x2="77.73" y2="143.8" gradientTransform="matrix(0.91, 0.42, 0.42, -0.91, -134.23, 139.91)" gradientUnits="userSpaceOnUse"><stop offset="0.18" stop-color="#0b6640"/><stop offset="0.34" stop-color="#10593c"/><stop offset="0.63" stop-color="#1c3632"/><stop offset="0.85" stop-color="#27182a"/></linearGradient><linearGradient id="h" x1="428.76" y1="-200.48" x2="410.44" y2="-215.03" gradientTransform="matrix(0.4, -0.05, 0.05, -0.48, -113.06, -71.13)" xlink:href="#f"/><linearGradient id="i" x1="588.88" y1="180.8" x2="570.56" y2="166.26" gradientTransform="matrix(0.34, 0.22, 0.34, -0.34, -209.44, -64.91)" xlink:href="#f"/><linearGradient id="j" x1="681.65" y1="18.03" x2="663.33" y2="3.48" gradientTransform="matrix(0.34, 0.22, 0.34, -0.34, -209.44, -64.91)" xlink:href="#f"/><linearGradient id="k" x1="593.35" y1="303.42" x2="575.03" y2="288.87" gradientTransform="matrix(0.29, 0.28, 0.4, -0.27, -237.05, -81.11)" xlink:href="#f"/><linearGradient id="l" x1="474.97" y1="568.8" x2="456.65" y2="554.25" gradientTransform="matrix(0.15, 0.37, 0.48, -0.08, -283.82, -125.19)" xlink:href="#f"/><linearGradient id="m" x1="-25.44" y1="912.68" x2="-43.76" y2="898.14" gradientTransform="matrix(-0.16, 0.37, 0.39, 0.28, -298.8, -236.7)" xlink:href="#f"/><linearGradient id="n" x1="653.14" y1="469" x2="634.82" y2="454.46" gradientTransform="matrix(0.15, 0.37, 0.48, -0.08, -283.82, -125.19)" xlink:href="#f"/><linearGradient id="o" x1="157.65" y1="933.96" x2="139.33" y2="919.42" gradientTransform="matrix(-0.16, 0.37, 0.39, 0.28, -298.8, -236.7)" xlink:href="#f"/></defs><path d="M26.75,12.7l-2.2,4.7a66.5,66.5,0,0,0,11.72,7.4,77.2,77.2,0,0,0,12.52,4.41l2.38-5.09s-8.24-4.51-12-6.25S26.75,12.7,26.75,12.7Z" fill="url(#a)"/><path d="M39.54,12.25s-15.3,32-17,34.57S18.12,56,12.84,54s-7.13-5.7-7.16-9.13l-3.28-.2s-.22,3.9,1,6,7.53,9.9,8.36,11.62S15,70.4,15,70.4L41.87,12.83A8.94,8.94,0,0,0,39.54,12.25Z" fill="url(#b)"/><path d="M37.51,66.56c2.39-.36,5.24-3,5.24-3l-2.26-2.39c-2.65,2.17-6.65,3.12-11.59.36s-1.68-9.09-.74-12.06S43.77,14.33,43.77,14.33a7.67,7.67,0,0,0-1.9-1.5L15,70.4s6.43-2.33,8.28-2.8S35.11,66.93,37.51,66.56Z" fill="url(#c)"/><path d="M37.51,66.56c2.39-.36,5.24-3,5.24-3l-2.26-2.39c-2.65,2.17-6.65,3.12-11.59.36s-1.68-9.09-.74-12.06S43.77,14.33,43.77,14.33a7.67,7.67,0,0,0-1.9-1.5L15,70.4s6.43-2.33,8.28-2.8S35.11,66.93,37.51,66.56Z" fill="url(#d)"/><path d="M43.44,66.4a9.72,9.72,0,0,0-1.76-3.52C40.55,61.68,37.46,59,37.46,59s10.11-2.87,11-4.86S47.56,63.36,43.44,66.4Z" fill="url(#e)"/><path d="M45.93,4.15a7.1,7.1,0,1,0,3.41,9.44h0A7.09,7.09,0,0,0,45.93,4.15Zm-4.68,10a3.93,3.93,0,1,1,5.23-1.9,3.93,3.93,0,0,1-5.23,1.9Z" fill="url(#f)"/><path d="M0,46.1a9.93,9.93,0,0,1,3.83-.92c1.65.1,5.67.77,5.67.77s-4.28-9.6-3.35-11.59S-.3,41,0,46.1Z" fill="url(#g)"/><path d="M47.47,2.84c-1.34-.63-3.1.31-3.94,2.1s-.43,3.74.92,4.37,3.1-.32,3.94-2.1S48.81,3.46,47.47,2.84Zm-2.35,5a1.79,1.79,0,0,1-.51-2.42A1.8,1.8,0,0,1,46.8,4.28a1.78,1.78,0,0,1,.5,2.42,1.78,1.78,0,0,1-2.18,1.16Z" fill="url(#h)"/><path d="M52.05,1.9C51.41.56,49.45.16,47.67,1S45,3.62,45.59,5s2.6,1.74,4.38.89S52.68,3.24,52.05,1.9ZM47,4.28a1.79,1.79,0,0,1,1.15-2.19,1.79,1.79,0,0,1,2.43.49,1.79,1.79,0,0,1-1.15,2.19A1.79,1.79,0,0,1,47,4.28Z" fill="url(#i)"/><path d="M27.55,77.69C26.92,76.35,25,76,23.18,76.8s-2.71,2.61-2.08,4,2.59,1.74,4.37.89S28.19,79,27.55,77.69Zm-5,2.38a1.79,1.79,0,0,1,1.15-2.19,1.54,1.54,0,0,1,2,2.34,1.62,1.62,0,0,1-.71.34,1.78,1.78,0,0,1-2.46-.49Z" fill="url(#j)"/><path d="M56.5,1.87C56.14.43,54.29-.34,52.38.14s-3.17,2-2.81,3.47,2.21,2.21,4.12,1.73S56.86,3.31,56.5,1.87ZM51.12,3.23c-.2-.8.49-1.66,1.55-1.93A1.79,1.79,0,0,1,55,2.3c.2.79-.49,1.66-1.55,1.92A1.79,1.79,0,0,1,51.12,3.23Z" fill="url(#k)"/><path d="M61.16,4.07c.26-1.46-1.1-2.92-3-3.28s-3.73.55-4,2,1.09,2.93,3,3.28S60.89,5.53,61.16,4.07Zm-5.46-1A1.78,1.78,0,0,1,57.91,2c1.07.2,1.83,1,1.68,1.82a1.79,1.79,0,0,1-2.21,1.1c-1.08-.22-1.83-1-1.68-1.84Z" fill="url(#l)"/><path d="M62.5,9.21c1.2-.86,1.26-2.86.12-4.47s-3-2.21-4.26-1.36-1.26,2.86-.12,4.47S61.29,10.07,62.5,9.21ZM59.28,4.68a1.8,1.8,0,0,1,2.36.76,1.78,1.78,0,0,1-.07,2.47,1.78,1.78,0,0,1-2.35-.75A1.81,1.81,0,0,1,59.28,4.68Z" fill="url(#m)"/><path d="M40.25,78.14c.26-1.46-1.09-2.93-3-3.28s-3.72.54-4,2,1.09,2.92,3,3.27S40,79.59,40.25,78.14Zm-5.46-1A1.79,1.79,0,0,1,37,76c1.08.2,1.83,1,1.68,1.82A1.79,1.79,0,0,1,36.47,79C35.39,78.76,34.64,78,34.79,77.14Z" fill="url(#n)"/><path d="M41.59,83.27c1.21-.85,1.26-2.85.12-4.46s-3.05-2.22-4.26-1.36-1.26,2.85-.12,4.46S40.38,84.13,41.59,83.27Zm-3.22-4.52A2.06,2.06,0,0,1,40.67,82a2.06,2.06,0,0,1-2.3-3.22Z" fill="url(#o)"/></svg>