<svg xmlns="http://www.w3.org/2000/svg" xmlns:xlink="http://www.w3.org/1999/xlink" width="2662.05" height="948.67" viewBox="0 0 2662.05 948.67"><defs><linearGradient id="a" x1="2023.42" y1="-0.67" x2="2023.42" y2="948" gradientTransform="matrix(1, 0, 0, -1, 0, 948)" gradientUnits="userSpaceOnUse"><stop offset="0" stop-color="#452e42" stop-opacity="0"/><stop offset="0.18" stop-color="#715f6e" stop-opacity="0.16"/><stop offset="0.46" stop-color="#ada3ac" stop-opacity="0.39"/><stop offset="0.7" stop-color="#dad5d9" stop-opacity="0.56"/><stop offset="0.89" stop-color="#f5f4f5" stop-opacity="0.66"/><stop offset="1" stop-color="#fff" stop-opacity="0.7"/></linearGradient><linearGradient id="b" x1="2122.05" y1="95.95" x2="2122.05" y2="626.9" xlink:href="#a"/><linearGradient id="c" x1="935.85" y1="73" x2="935.85" y2="908.46" xlink:href="#a"/><linearGradient id="d" x1="540" y1="96" x2="540" y2="626.9" xlink:href="#a"/><linearGradient id="e" x1="1274.45" y1="6.47" x2="1274.45" y2="367.19" xlink:href="#a"/></defs><path d="M2571,948.62s-113.25-667.85-274.3-709.26S2137.93-4.52,1999.88.08,1838.83,375,1726.09,375s-250.24,573.67-250.24,573.67Z" transform="translate(0 0)" opacity="0.14" fill="url(#a)" style="isolation:isolate"/><path d="M2662.05,852s-98.12-250.13-259.18-291.54-158.75-243.88-296.79-239.28S1945,696.05,1832.29,696.05s-250.24,156-250.24,156Z" transform="translate(0 0)" opacity="0.14" fill="url(#b)" style="isolation:isolate"/><path d="M1475.85,875s-86.39-362.2-247.44-403.61S1050.8,35,912.75,39.58s-164.3,506.12-277,506.12S395.85,875,395.85,875Z" transform="translate(0 0)" opacity="0.14" fill="url(#c)" style="isolation:isolate"/><path d="M1080,852S981.88,601.87,820.83,560.46,662.07,316.58,524,321.18,363,696.05,250.24,696.05,0,852,0,852Z" transform="translate(0 0)" opacity="0.14" fill="url(#d)" style="isolation:isolate"/><path d="M1698.67,941.53S1675.86,761.14,1612,764.9s-99.77-184.09-151.65-184.09-35.92,154.09-95.78,160.77-143.67-103.23-215.5-100.91S1049.31,829.6,997.43,829.6,850.22,941.53,850.22,941.53Z" transform="translate(0 0)" opacity="0.14" fill="url(#e)" style="isolation:isolate"/></svg>