<svg xmlns="http://www.w3.org/2000/svg" xmlns:xlink="http://www.w3.org/1999/xlink" width="21.94" height="24.48" viewBox="0 0 21.94 24.48"><defs><linearGradient id="a" x1="-1017.52" y1="203.97" x2="-993.45" y2="199.25" gradientTransform="matrix(-1, 0, 0, 1, -999.03, -189.34)" gradientUnits="userSpaceOnUse"><stop offset="0.22" stop-color="#ecf2ef"/><stop offset="0.56" stop-color="#eaf1ee"/><stop offset="0.68" stop-color="#e3edeb"/><stop offset="0.77" stop-color="#d8e7e5"/><stop offset="0.84" stop-color="#c7dddd"/><stop offset="0.9" stop-color="#b1d1d3"/><stop offset="0.95" stop-color="#96c2c7"/><stop offset="1" stop-color="#77b1b8"/><stop offset="1" stop-color="#75b0b7"/></linearGradient><linearGradient id="b" x1="-195.72" y1="530.83" x2="-186.19" y2="526.56" gradientTransform="matrix(0, 1, 1, 0, -516.59, 202.14)" gradientUnits="userSpaceOnUse"><stop offset="0.55" stop-color="#ecf2ef"/><stop offset="0.57" stop-color="#e4eded"/><stop offset="0.6" stop-color="#cfdee7"/><stop offset="0.64" stop-color="#abc6dd"/><stop offset="0.69" stop-color="#7ba5cf"/><stop offset="0.74" stop-color="#3d7bbe"/><stop offset="0.76" stop-color="#2168b6"/></linearGradient><linearGradient id="c" x1="-189.86" y1="529.72" x2="-182.19" y2="526.87" gradientTransform="matrix(0, 1, 1, 0, -516.59, 202.14)" gradientUnits="userSpaceOnUse"><stop offset="0.51" stop-color="#ecf2ef"/><stop offset="0.54" stop-color="#e4eded"/><stop offset="0.57" stop-color="#cfdee7"/><stop offset="0.61" stop-color="#abc6dd"/><stop offset="0.65" stop-color="#7ba5cf"/><stop offset="0.7" stop-color="#3d7bbe"/><stop offset="0.73" stop-color="#2168b6"/></linearGradient><linearGradient id="d" x1="-196.7" y1="528.47" x2="-175.88" y2="519.16" gradientTransform="matrix(0, 1, 1, 0, -516.59, 202.14)" gradientUnits="userSpaceOnUse"><stop offset="0.56" stop-color="#ecf2ef"/><stop offset="0.58" stop-color="#e4eded"/><stop offset="0.6" stop-color="#cfdee7"/><stop offset="0.64" stop-color="#abc6dd"/><stop offset="0.68" stop-color="#7ba5cf"/><stop offset="0.72" stop-color="#3d7bbe"/><stop offset="0.74" stop-color="#2168b6"/></linearGradient><linearGradient id="e" x1="-199.99" y1="521.15" x2="-192.74" y2="517.91" gradientTransform="matrix(0, 1, 1, 0, -516.59, 202.14)" gradientUnits="userSpaceOnUse"><stop offset="0" stop-color="#2168b6"/><stop offset="0.14" stop-color="#6495c9"/><stop offset="0.28" stop-color="#9ebdd9"/><stop offset="0.4" stop-color="#c8dae5"/><stop offset="0.49" stop-color="#e2ebec"/><stop offset="0.55" stop-color="#ecf2ef"/></linearGradient><linearGradient id="f" x1="962.13" y1="754.61" x2="970.3" y2="750.97" gradientTransform="matrix(0.07, 0.36, 0.55, -0.11, -474.83, -263.1)" xlink:href="#e"/></defs><path d="M16.19,20.2c2.17-.45,5.75-3.39,5.75-3.39s-6.22-5.69-7.63-7.24S7.94,1,7.64.78s-1.43-1-1.82-.7S5.19.57,5.7,2A19.6,19.6,0,0,0,8.39,6a9.75,9.75,0,0,0-1.85.29A4,4,0,0,0,4.81,7.47S2.44,3.12,1.61,2.8.14,3.51,0,4A18.81,18.81,0,0,0,1,7.54s1,2.94,2.24,7.67A67.48,67.48,0,0,0,6.5,24.48C8.13,22.56,14,20.64,16.19,20.2ZM5.78,1c0-.3.34-.54,1-.2s2.5,3.29,2.67,3.63a5.55,5.55,0,0,0-.8.73C8.34,5.54,5.78,1.26,5.78,1ZM1,4.25s.15-.26.36,0A19.85,19.85,0,0,1,3.57,7.63a2.4,2.4,0,0,0-1,.55C2.13,8.59,1,4.25,1,4.25Z" fill="url(#a)"/><path d="M20.78,17.7S5.83,9.93,3.57,7.63L2.3,5.49,3.3,5,4.81,7.47A3.59,3.59,0,0,1,6.54,6.23c1-.31,15.4,10.58,15.4,10.58Z" fill="url(#b)"/><path d="M18.69,19.09s-1,.57-1.45.76-12-8.1-12-8.1Z" fill="url(#c)"/><path d="M13,21.1s-2.63,1-3.5,1.4-4.1-3.72-5.08-6.7S2.54,8.18,2.54,8.18,9.36,19,13,21.1Z" fill="url(#d)"/><path d="M4.8,8.61s-1-2.39-1.35-3A6.55,6.55,0,0,0,1.88,3.39c-.43-.38-1.13-.1-1,.12s.39-.27,1,.77c.28.5.57,1,.8,1.39s.64,1.27,1,1.84A3.46,3.46,0,0,0,4.8,8.61Z" fill="url(#e)"/><path d="M8.35,2A11.07,11.07,0,0,0,7.53.88a2.59,2.59,0,0,0-1-.62C6.24.16,5.87.34,6,.4a1.38,1.38,0,0,1,.86.23,1.7,1.7,0,0,0,.3.23c.16.12.41.51.65.67A4.78,4.78,0,0,1,8.35,2Z" fill="url(#f)"/></svg>