<svg xmlns="http://www.w3.org/2000/svg" xmlns:xlink="http://www.w3.org/1999/xlink" width="285.12" height="158.56" viewBox="0 0 285.12 158.56"><defs><linearGradient id="a" x1="300.18" y1="30.86" x2="15.06" y2="30.86" gradientTransform="matrix(1, 0, 0, -1, 0, 160)" gradientUnits="userSpaceOnUse"><stop offset="0" stop-color="#f0f4f1"/><stop offset="0.14" stop-color="#cccacc"/><stop offset="0.45" stop-color="#726270"/><stop offset="0.6" stop-color="#452e42"/></linearGradient><linearGradient id="b" x1="194.65" y1="115.69" x2="194.76" y2="60.19" gradientTransform="matrix(1, 0, 0, -1, 0, 160)" gradientUnits="userSpaceOnUse"><stop offset="0" stop-color="#f0f4f1"/><stop offset="0.27" stop-color="#eef2ef"/><stop offset="0.42" stop-color="#e8eae9" stop-opacity="0.99"/><stop offset="0.53" stop-color="#dddedd" stop-opacity="0.97"/><stop offset="0.63" stop-color="#cdcccd" stop-opacity="0.94"/><stop offset="0.72" stop-color="#b9b4b9" stop-opacity="0.9"/><stop offset="0.8" stop-color="#a0989f" stop-opacity="0.86"/><stop offset="0.88" stop-color="#837581" stop-opacity="0.81"/><stop offset="0.95" stop-color="#614f5f" stop-opacity="0.75"/><stop offset="1" stop-color="#452e42" stop-opacity="0.7"/></linearGradient></defs><polygon points="0 99.72 54.56 158.56 255.16 150.48 285.12 99.72 0 99.72" fill="url(#a)"/><ellipse cx="77.35" cy="124.68" rx="7.07" ry="7.61" fill="#f0f4f1"/><circle cx="108.51" cy="124.68" r="7.61" fill="#f0f4f1"/><ellipse cx="139.84" cy="124.68" rx="7.23" ry="7.61" fill="#f0f4f1"/><ellipse cx="171.16" cy="124.47" rx="7.61" ry="7.4" fill="#f0f4f1"/><polygon points="150.16 99.72 150.16 49.75 239.24 44.22 239.24 99.72 150.16 99.72" fill="url(#b)"/><polygon points="23.13 99.72 23.13 92.01 266.35 92.01 266.35 99.72 263.94 99.72 263.67 94.06 24.64 93.44 24.89 99.72 23.13 99.72" fill="#f0f4f1"/><ellipse cx="166.27" cy="75.18" rx="7.07" ry="7.61" fill="#27182a"/><circle cx="195.76" cy="71.82" r="7.61" fill="#27182a"/><ellipse cx="223.14" cy="70.14" rx="7.07" ry="7.61" fill="#27182a"/><polygon points="144.58 46.86 143.98 54.86 249.27 48.18 244.66 38.35 144.58 46.86" fill="#27182a"/><polygon points="118.84 99.72 120.49 0 117.28 0 115.14 99.72 118.84 99.72" fill="#27182a"/><polygon points="61.78 99.72 63.42 44.22 60.22 44.22 58.08 99.72 61.78 99.72" fill="#27182a"/><polygon points="60.22 44.22 117.28 0 117.28 3.92 63.42 44.22 60.22 44.22" fill="#27182a"/><polygon points="63.42 44.22 117.28 66.27 117.28 68.69 60.75 46.6 63.42 44.22" fill="#27182a"/></svg>