<svg xmlns="http://www.w3.org/2000/svg" xmlns:xlink="http://www.w3.org/1999/xlink" width="9.07" height="19.37" viewBox="0 0 9.07 19.37"><defs><radialGradient id="a" cx="-403.34" cy="-649.12" r="15.36" gradientTransform="matrix(0.27, -0.96, -0.32, -0.09, -93.69, -436.76)" gradientUnits="userSpaceOnUse"><stop offset="0.45" stop-color="#f0f4f1"/><stop offset="0.51" stop-color="#eaf0ef"/><stop offset="0.59" stop-color="#dae5eb"/><stop offset="0.67" stop-color="#bed2e3"/><stop offset="0.77" stop-color="#98b9d8"/><stop offset="0.87" stop-color="#6798ca"/><stop offset="0.98" stop-color="#2d70b9"/><stop offset="1" stop-color="#2168b6"/></radialGradient><radialGradient id="b" cx="-605.92" cy="714.68" r="1.51" gradientTransform="matrix(0, 1, 1, 0, -707.3, 607.65)" gradientUnits="userSpaceOnUse"><stop offset="0" stop-color="#2168b6"/><stop offset="0.13" stop-color="#256bb7"/><stop offset="0.27" stop-color="#3273bb"/><stop offset="0.41" stop-color="#4681c1"/><stop offset="0.56" stop-color="#6395c9"/><stop offset="0.7" stop-color="#89aed4"/><stop offset="0.85" stop-color="#b7cde1"/><stop offset="0.99" stop-color="#ecf1f0"/><stop offset="1" stop-color="#f0f4f1"/></radialGradient></defs><path d="M6,1.25a8.84,8.84,0,0,1-.91,2.6C4.6,4.41,1.72,5.4,1.3,7.29s.63,3,.42,3.8S.9,13.66.48,14.87s-.83,3.27,0,3.35.92-.82.92-1.07.29-.42.37-.18-.2,1.51.35,1.71c.25.09.94.15,1.11-.25s.09-1.08.56-1c.21,0,.24.33.25.47,0,.49-.16.69-.15,1.07,0,.55,1.29.61,1.56.09.15-.27.93-3.62,1.15-4.51A13.15,13.15,0,0,1,7.72,11.4,4.84,4.84,0,0,0,9.07,8.5a31.3,31.3,0,0,0-.51-3.34c0-.53.21-2.92.24-3.42S8.67.19,7.93.06,6.18-.14,6,1.25Z" fill="url(#a)"/><path d="M8.45,1.41c0,.59-.59.74-1.11.74a1,1,0,0,1-1-1C6.34.54,6.8.31,7.4.31S8.45.57,8.45,1.41Z" fill="url(#b)"/></svg>