<svg xmlns="http://www.w3.org/2000/svg" width="4.83" height="7.54" viewBox="0 0 4.83 7.54"><path d="M1.11,3.13a.54.54,0,0,1-.49.59h0a.59.59,0,0,1-.66-.51.59.59,0,0,1,.51-.66H.59a.52.52,0,0,1,.52.54Z" fill="#f0f4f1" opacity="0.5" style="isolation:isolate"/><path d="M2.07,7a.45.45,0,0,1-.4.5h0a.5.5,0,1,1,0-1A.44.44,0,0,1,2.07,7Z" fill="#f0f4f1" opacity="0.7" style="isolation:isolate"/><path d="M4.83.8a.74.74,0,0,1-.67.81h0a.8.8,0,0,1-.8-.8h0a.8.8,0,0,1,.8-.8h0a.74.74,0,0,1,.72.76Z" fill="#f0f4f1" opacity="0.3" style="isolation:isolate"/></svg>