<svg xmlns="http://www.w3.org/2000/svg" width="5.89" height="9.27" viewBox="0 0 5.89 9.27"><path d="M2.17,4.87a.54.54,0,0,1-.48.58h0A.59.59,0,0,1,1,4.94a.59.59,0,0,1,.51-.66.38.38,0,0,1,.15,0,.54.54,0,0,1,.52.56Z" fill="#f0f4f1" opacity="0.5" style="isolation:isolate"/><path d="M3.13,8.77a.45.45,0,0,1-.4.5h0a.5.5,0,1,1,0-1,.44.44,0,0,1,.44.46Z" fill="#f0f4f1" opacity="0.7" style="isolation:isolate"/><path d="M.93.49A.46.46,0,0,1,.54,1H.49A.49.49,0,0,1,0,.51v0A.49.49,0,0,1,.49,0,.44.44,0,0,1,.93.44Z" fill="#f0f4f1" opacity="0.7" style="isolation:isolate"/><path d="M5.89,2.53a.74.74,0,0,1-.67.81h0A.81.81,0,0,1,5,1.73a.54.54,0,0,1,.18,0,.74.74,0,0,1,.72.76Z" fill="#f0f4f1" opacity="0.3" style="isolation:isolate"/></svg>