<svg xmlns="http://www.w3.org/2000/svg" width="2.75" height="6.87" viewBox="0 0 2.75 6.87"><path d="M1.11,6.28a.54.54,0,0,1-.49.59h0A.58.58,0,0,1,0,6.28H0a.58.58,0,0,1,.57-.59h0a.54.54,0,0,1,.52.56Z" fill="#f0f4f1" opacity="0.5" style="isolation:isolate"/><path d="M2.75,4.44a.45.45,0,0,1-.41.49h0a.5.5,0,0,1,0-1,.44.44,0,0,1,.44.46Z" fill="#f0f4f1" opacity="0.7" style="isolation:isolate"/><path d="M1.82.8a.74.74,0,0,1-.67.81h0A.8.8,0,0,1,.3.81h0A.8.8,0,0,1,1.1,0a.74.74,0,0,1,.72.76Z" fill="#f0f4f1" opacity="0.3" style="isolation:isolate"/></svg>