<svg xmlns="http://www.w3.org/2000/svg" xmlns:xlink="http://www.w3.org/1999/xlink" width="50.6" height="29.36" viewBox="0 0 50.6 29.36"><defs><linearGradient id="a" x1="7.68" y1="8.38" x2="43.07" y2="8.38" gradientTransform="matrix(1, 0, 0, -1, -0.45, 15.68)" gradientUnits="userSpaceOnUse"><stop offset="0" stop-color="#f0f4f1"/><stop offset="0.2" stop-color="#edf2ef"/><stop offset="0.38" stop-color="#e2ecea"/><stop offset="0.55" stop-color="#d0e2e2"/><stop offset="0.71" stop-color="#b7d4d6"/><stop offset="0.87" stop-color="#97c3c7"/><stop offset="1" stop-color="#75b0b7"/></linearGradient><linearGradient id="b" x1="0.45" y1="-4.82" x2="30.51" y2="-4.82" xlink:href="#a"/><linearGradient id="c" x1="14.18" y1="-5.52" x2="16.79" y2="-5.52" gradientTransform="matrix(1, 0, 0, -1, 0, 16)" xlink:href="#a"/></defs><polygon points="10.47 2.91 7.23 11.7 39.38 11.7 42.62 2.91 10.47 2.91" fill="url(#a)"/><path d="M5.24,11.9a10.11,10.11,0,0,1,7.35-4.37c5-.47,6.65,1.79,9.7,2.18S24.83,12,24.83,12H19.57Z" transform="translate(-0.45 -0.32)" fill="#e0c86f"/><path d="M34.34,12S32.4,6.38,29.91,6.37,23.67,12.15,21.59,12,34.34,12,34.34,12Z" transform="translate(-0.45 -0.32)" fill="#d19c4f"/><circle cx="18" cy="7.11" r="7.11" fill="#e0c86f"/><circle cx="18" cy="7.11" r="6.24" fill="#d19c4f"/><path d="M20.83,8.14h0a1.62,1.62,0,0,0-.17-.35l-.21-.27a2.14,2.14,0,0,0-.32-.2l-.3-.22-.32-.16-.31-.12-.32-.11L18.3,6.5,18,6.37a.9.9,0,0,1-.19-.15A.46.46,0,0,1,17.7,6a.55.55,0,0,1,.1-.62,1,1,0,0,1,.73-.25,1.24,1.24,0,0,1,1,.52l.14.23,1.16-.6-.19-.27a2.52,2.52,0,0,0-1.58-1V3.32H17.94V4a2.18,2.18,0,0,0-.51.17,2.11,2.11,0,0,0-.8.65,1.64,1.64,0,0,0-.33,1,1.84,1.84,0,0,0,.12.66,1.49,1.49,0,0,0,.29.5,2,2,0,0,0,.44.37,3.58,3.58,0,0,0,.48.24c.13.06.3.12.5.19l.58.2a2.26,2.26,0,0,1,.33.13l.27.16a.46.46,0,0,1,.16.18.58.58,0,0,1,.06.26.75.75,0,0,1-.05.26,1,1,0,0,1-.27.33,1.1,1.1,0,0,1-.69.25,1.88,1.88,0,0,1-.93-.25,4.28,4.28,0,0,1-.51-.77l-1.15.57.11.24a2.37,2.37,0,0,0,.83,1,2.42,2.42,0,0,0,1.07.41v.55h1.15v-.56a3.69,3.69,0,0,0,.56-.19,3.21,3.21,0,0,0,.46-.29,2.4,2.4,0,0,0,.38-.4,1.53,1.53,0,0,0,.34-.56,2.31,2.31,0,0,0,.1-.64A2,2,0,0,0,20.83,8.14Z" transform="translate(-0.45 -0.32)" fill="#e0c86f"/><rect y="11.64" width="30.06" height="17.72" fill="url(#b)"/><rect x="39.23" y="5.91" width="9.36" height="5.24" transform="translate(20.27 46.46) rotate(-69.77)" fill="#27182a"/><circle cx="45.92" cy="9.12" r="4.68" fill="#27182a"/><rect x="30.06" y="11.64" width="9.29" height="17.72" fill="#27182a"/><rect x="11.63" y="16.02" width="6.8" height="10.24" fill="#27182a"/><rect y="17.37" width="30.06" height="0.65" fill="#27182a"/><rect y="24.53" width="30.06" height="0.65" fill="#27182a"/><path d="M16.83,20.32a1.31,1.31,0,0,0-2.61,0,1.3,1.3,0,0,0,.7,1.15l-.7,2.44h2.61l-.7-2.44A1.32,1.32,0,0,0,16.83,20.32Z" transform="translate(-0.45 -0.32)" fill="url(#c)"/></svg>