<svg xmlns="http://www.w3.org/2000/svg" xmlns:xlink="http://www.w3.org/1999/xlink" width="1796.22" height="248.34" viewBox="0 0 1796.22 248.34"><defs><linearGradient id="a" x1="214.47" y1="53.33" x2="457.06" y2="132.07" gradientTransform="matrix(1, 0, 0, -1, 0, 250)" gradientUnits="userSpaceOnUse"><stop offset="0" stop-color="#452e42" stop-opacity="0"/><stop offset="0.18" stop-color="#715f6e" stop-opacity="0.16"/><stop offset="0.46" stop-color="#ada3ac" stop-opacity="0.39"/><stop offset="0.7" stop-color="#dad5d9" stop-opacity="0.56"/><stop offset="0.89" stop-color="#f5f4f5" stop-opacity="0.66"/><stop offset="1" stop-color="#fff" stop-opacity="0.7"/></linearGradient><linearGradient id="b" x1="2165.91" y1="-14.03" x2="2228.67" y2="187.11" gradientTransform="translate(3159.92 250) rotate(180)" xlink:href="#a"/><linearGradient id="c" x1="1998.39" y1="46.29" x2="2119.69" y2="85.66" gradientTransform="translate(2634.53 250) rotate(180)" xlink:href="#a"/><linearGradient id="d" x1="1328.54" y1="12.17" x2="1378.36" y2="129.78" gradientTransform="translate(2634.53 250) rotate(180)" gradientUnits="userSpaceOnUse"><stop offset="0" stop-color="#452e42" stop-opacity="0"/><stop offset="0.06" stop-color="#655262" stop-opacity="0.12"/><stop offset="0.16" stop-color="#8e808c" stop-opacity="0.27"/><stop offset="0.26" stop-color="#b1a7af" stop-opacity="0.41"/><stop offset="0.37" stop-color="#cdc7cc" stop-opacity="0.51"/><stop offset="0.49" stop-color="#e3e0e3" stop-opacity="0.6"/><stop offset="0.62" stop-color="#f3f2f3" stop-opacity="0.65"/><stop offset="0.77" stop-color="#fcfcfc" stop-opacity="0.69"/><stop offset="1" stop-color="#fff" stop-opacity="0.7"/></linearGradient><linearGradient id="e" x1="858.43" y1="68.77" x2="880.85" y2="121.68" xlink:href="#d"/><linearGradient id="f" x1="2597.27" y1="-11.72" x2="2619.69" y2="41.19" xlink:href="#d"/><linearGradient id="g" x1="435.03" y1="66.7" x2="457.44" y2="119.61" gradientTransform="matrix(1, 0, 0, -1, 451.33, 250)" xlink:href="#d"/><linearGradient id="h" x1="1376.53" y1="53.33" x2="1619.12" y2="132.07" xlink:href="#a"/></defs><path d="M306.13,128.36s-8.8-30.87,14.63-36.75,37.39-5.38,49.58,8.62c0,0-2.64-36,54.71-27.15,36.23,5.12,36.2,31.35,36.2,31.35S488,95,500.57,95.56c28.42,1.27,39,32.25,39,45.29s-14.36,34.46-54.28,33c-22.39-.83-143.76,6.3-184.92-3.82-17.34-4.26-19-24.08-11.9-32.88C294.56,129.6,306.13,128.36,306.13,128.36Z" opacity="0.2" fill="url(#a)" style="isolation:isolate"/><path d="M1114.17,89s13.81-48.46-23-57.69-58.69-8.44-77.83,13.53c0,0,4.14-56.47-85.89-42.62-56.88,8-56.82,49.22-56.82,49.22s-10-25.64-39.71-18.95c-45.16,10.16-34.8,44.65-34.8,44.65S755,51.23,747.76,108.59c-2.56,20.3,22.55,54.09,85.21,51.78,35.15-1.3,225.69,9.9,290.31-6,27.21-6.69,29.89-37.8,18.67-51.61C1132.33,90.92,1114.17,89,1114.17,89Z" opacity="0.2" fill="url(#b)" style="isolation:isolate"/><path d="M590.31,169.56s4.4-15.44-7.32-18.38-18.69-2.68-24.78,4.31c0,0,1.32-18-27.36-13.57-18.11,2.56-18.1,15.67-18.1,15.67s-13.36-4.71-19.66-4.43c-14.21.64-19.48,16.13-19.48,22.65s7.18,17.22,27.14,16.49c11.2-.42,71.88,3.15,92.46-1.91,8.67-2.13,9.52-12,5.95-16.44C596.1,170.18,590.31,169.56,590.31,169.56Z" opacity="0.5" fill="url(#c)" style="isolation:isolate"/><path d="M1339.85,184.5s4.4-15.43-7.31-18.37-18.7-2.69-24.79,4.31c0,0,1.32-18-27.36-13.58-18.11,2.56-18.09,15.68-18.09,15.68s-13.37-4.72-19.66-4.43c-14.22.63-19.48,16.12-19.48,22.64s7.18,17.23,27.13,16.49c11.2-.41,71.89,3.16,92.46-1.91,8.67-2.13,9.53-12,6-16.43C1345.64,185.12,1339.85,184.5,1339.85,184.5Z" opacity="0.5" fill="url(#d)" style="isolation:isolate"/><path d="M1791.35,157.24s2-7-3.29-8.27-8.41-1.21-11.16,1.94c0,0,.6-8.09-12.3-6.11-8.15,1.15-8.15,7.06-8.15,7.06s-6-2.13-8.84-2c-6.4.29-8.77,7.26-8.77,10.19s3.23,7.75,12.21,7.42c5-.19,32.34,1.42,41.6-.86a4.75,4.75,0,0,0,3.43-5.79,4.56,4.56,0,0,0-.75-1.61A6.67,6.67,0,0,0,1791.35,157.24Z" opacity="0.5" fill="url(#e)" style="isolation:isolate"/><path d="M52.5,237.73s2-6.94-3.29-8.27-8.41-1.21-11.15,1.94c0,0,.59-8.09-12.31-6.11-8.15,1.16-8.14,7.06-8.14,7.06s-6-2.13-8.85-2C2.37,230.64,0,237.61,0,240.54s3.23,7.75,12.21,7.42c5-.19,32.34,1.42,41.6-.86a4.75,4.75,0,0,0,3.43-5.79,4.56,4.56,0,0,0-.75-1.61A6.69,6.69,0,0,0,52.5,237.73Z" opacity="0.5" fill="url(#f)" style="isolation:isolate"/><path d="M871.12,159.31s-2-6.95,3.29-8.27,8.41-1.21,11.15,1.94c0,0-.59-8.09,12.31-6.11C906,148,906,153.93,906,153.93s6-2.13,8.85-2c6.39.29,8.76,7.26,8.76,10.19s-3.23,7.75-12.21,7.42c-5-.19-32.34,1.42-41.6-.86a4.75,4.75,0,0,1-3.43-5.77,4.51,4.51,0,0,1,.76-1.63A6.69,6.69,0,0,1,871.12,159.31Z" opacity="0.5" fill="url(#g)" style="isolation:isolate"/><path d="M1468.19,128.36s-8.8-30.87,14.63-36.75,37.39-5.38,49.58,8.62c0,0-2.64-36,54.71-27.15,36.23,5.12,36.2,31.35,36.2,31.35S1650,95,1662.63,95.56c28.42,1.27,39,32.25,39,45.29s-14.36,34.46-54.28,33c-22.39-.83-143.76,6.3-184.92-3.82-17.34-4.26-19-24.08-11.9-32.88C1456.62,129.6,1468.19,128.36,1468.19,128.36Z" opacity="0.2" fill="url(#h)" style="isolation:isolate"/></svg>