<svg xmlns="http://www.w3.org/2000/svg" xmlns:xlink="http://www.w3.org/1999/xlink" width="5.62" height="7.74" viewBox="0 0 5.62 7.74"><defs><radialGradient id="a" cx="2.8" cy="-488.98" r="3.24" gradientTransform="matrix(1, 0, 0, -0.33, 0, -159.81)" gradientUnits="userSpaceOnUse"><stop offset="0" stop-color="#2168b6"/><stop offset="0.1" stop-color="#286db8"/><stop offset="0.25" stop-color="#3b7abd"/><stop offset="0.42" stop-color="#5a8fc6"/><stop offset="0.62" stop-color="#86acd3"/><stop offset="0.83" stop-color="#bdd2e3"/><stop offset="1" stop-color="#f0f4f1"/></radialGradient><radialGradient id="b" cx="-6.9" cy="-353.62" r="2.97" gradientTransform="matrix(1, -0.04, -0.02, -0.42, 3.96, -145.83)" gradientUnits="userSpaceOnUse"><stop offset="0" stop-color="#f0f4f1"/><stop offset="1" stop-color="#2168b6"/></radialGradient></defs><path d="M5.61,1.08a.24.24,0,0,1,0,.12c-.18.8-1.68.8-2.8.8,0,0-2.68-.16-2.81-.91L.9,7.34a4,4,0,0,0,2.27.39,10.34,10.34,0,0,0,2-.35l.41-6.29Z" fill="#f0f4f1"/><path d="M4.44.22A5.4,5.4,0,0,0,3,0H2.08C1.23.07.21.25,0,.9v.16C.13,1.82,2.81,2,2.81,2c1.12,0,2.62,0,2.8-.78a.24.24,0,0,0,0-.12C5.6.68,5.07.39,4.44.22Z" fill="url(#a)"/><path d="M.18,2.4A7.21,7.21,0,0,0,2.81,3a7.36,7.36,0,0,0,2.73-.63v.38a6.86,6.86,0,0,1-2.7.65A6.54,6.54,0,0,1,.26,2.84Z" fill="url(#b)"/></svg>