<svg xmlns="http://www.w3.org/2000/svg" xmlns:xlink="http://www.w3.org/1999/xlink" width="585.92" height="508.08" viewBox="0 0 585.92 508.08"><defs><linearGradient id="a" x1="418.56" y1="137.09" x2="467.18" y2="137.09" gradientTransform="matrix(1, 0, 0, -1, 0, 510)" gradientUnits="userSpaceOnUse"><stop offset="0" stop-color="#27182a"/><stop offset="0.2" stop-color="#24202c"/><stop offset="0.5" stop-color="#1d3532"/><stop offset="0.86" stop-color="#10573c"/><stop offset="1" stop-color="#0b6640"/></linearGradient><linearGradient id="b" x1="513.01" y1="52.21" x2="544.09" y2="52.21" xlink:href="#a"/><linearGradient id="c" x1="11.15" y1="385" x2="314.85" y2="263.1" gradientTransform="matrix(1, 0, 0, -1, 0, 510)" gradientUnits="userSpaceOnUse"><stop offset="0.32" stop-color="#27182a"/><stop offset="0.41" stop-color="#2a1d2f"/><stop offset="0.53" stop-color="#312c3c"/><stop offset="0.65" stop-color="#3d4452"/><stop offset="0.78" stop-color="#4f6572"/><stop offset="0.91" stop-color="#659099"/><stop offset="1" stop-color="#75b0b7"/></linearGradient><linearGradient id="d" x1="305.98" y1="239.95" x2="315.85" y2="233.77" gradientTransform="matrix(1, 0, 0, -1, 0, 510)" gradientUnits="userSpaceOnUse"><stop offset="0" stop-color="#27182a"/><stop offset="0.14" stop-color="#2a1d2f"/><stop offset="0.31" stop-color="#312c3c"/><stop offset="0.49" stop-color="#3d4452"/><stop offset="0.68" stop-color="#4f6572"/><stop offset="0.87" stop-color="#659099"/><stop offset="1" stop-color="#75b0b7"/></linearGradient><linearGradient id="e" x1="360.92" y1="215.09" x2="309.21" y2="191.12" gradientTransform="matrix(1, 0, 0, -1, 0, 510)" gradientUnits="userSpaceOnUse"><stop offset="0.19" stop-color="#27182a"/><stop offset="0.72" stop-color="#134f39"/><stop offset="1" stop-color="#0b6640"/></linearGradient><linearGradient id="f" x1="328.11" y1="198.77" x2="345.8" y2="198.77" xlink:href="#d"/><linearGradient id="g" x1="669.95" y1="100.63" x2="245.86" y2="143.09" gradientTransform="matrix(1, 0, 0, -1, 0, 510)" gradientUnits="userSpaceOnUse"><stop offset="0.27" stop-color="#27182a"/><stop offset="0.4" stop-color="#24202c"/><stop offset="0.59" stop-color="#1d3532"/><stop offset="0.83" stop-color="#10573c"/><stop offset="0.93" stop-color="#0b6640"/></linearGradient></defs><polygon points="440.78 366.02 418.56 372.9 427.43 379.8 447.12 372.91 440.78 366.02" fill="url(#a)"/><polygon points="520.62 446.51 529.22 455.7 519.24 469.07 513.01 463.43 520.62 446.51" fill="url(#b)"/><polygon points="306.9 279.56 314.63 267.11 160.73 0 0 305.56 306.9 279.56" opacity="0.6" fill="url(#c)" style="isolation:isolate"/><polygon points="317.62 263.96 306.17 283.49 301.92 280.89 313.67 261.85 317.62 263.96" fill="url(#d)"/><polygon points="316.88 285.36 325.89 306.95 328.98 306.37 325.89 281.73 316.88 285.36" fill="#27182a"/><polygon points="355.08 291.35 356.5 298.15 338.18 311.72 336.3 305.56 355.08 291.35" fill="url(#e)"/><path d="M295.88,298l23-38.56L478,322.25,460,335l-83.4-34.1-17.92,20.89-5.44-3.12h0s5.55-24.33-12.42-31.76c-17.63-7.29-38.39,14.17-38.39,14.17Z" fill="#27182a"/><polygon points="316.06 306.3 311.97 300.14 320.14 300.12 323.86 290.33 331.59 295.44 338.88 291.72 340.63 300.28 350.86 304.19 346.14 311.34 352.52 321.51 342.76 320.76 338.6 332.24 331.26 327.4 322.66 333.1 323.28 324.4 311.31 319.67 316.78 314.42 308.45 308.92 316.06 306.3" fill="#0b6640"/><path d="M434.48,379.94a3.12,3.12,0,0,0,.91,2.35c.4.4,1.57.12,2.1.64s-.07,1.29.43,1.79c.26.26,1.48.12,1.76.4s-.46,1.68,0,2.1c.58.59,2.46.32,3.12,1s.31,2.27.94,2.9,1.85-.11,2.36.39,0,1.85.55,2.39,1.9.06,2.35.5c.21.21-.67,1.36-.46,1.57.49.49,2.07,0,2.58.54s-.08,1.7.41,2.19,2,.21,2.48.7c.31.3-.34,1.41,0,1.72s1.7-.06,2.08.32c.57.57.36,2,.94,2.62.4.39,1.59-.1,2,.3.57.57.33,2.14.91,2.72.42.42,1.66-.15,2.09.28s-.28,1.88.17,2.33c.61.61,2.39.22,3,.83s.06,2.29.69,2.91c.37.38,1.94-.29,2.32.09s-.53,1.8-.2,2.12c.51.51,2.2-.13,2.7.37s-.12,2,.35,2.44,1.82-.28,2.2.1-.18,1.7.17,2.05c.51.51,1.9,0,2.41.52s-.65,2.32-.23,2.74,2.36-.62,2.79-.19.07,2,.53,2.48,1.76-.2,2.22.25-.23,1.45.15,1.83,1.76.07,2.14.45-.49,1.63-.07,2,2.36.23,2.87.73.11,1.63.56,2.08,1.66.13,2.09.56c.59.58.21,1.82.79,2.4s2,.37,2.51.88-.29,1.34.1,1.73,1.85.2,2.23.58,0,1.17.33,1.5,1.31.13,1.63.45.19,1.45.58,1.84,1.32,0,1.67.39c.15.15-.28.94-.13,1.09s1-.21,1.23,0,0,1.08.3,1.4,1.42.31,1.78.67-.1,1.11.19,1.41,1.45.21,1.81.56.1.87.43,1.19,1.25.48,1.59.81.12,1.36.51,1.75,1.47.21,1.85.59,0,1.15.3,1.48,1.32.12,1.6.4.09,1.13.37,1.41,1.16.1,1.47.41.38,1.09.71,1.42,1.12.38,1.5.75c2.22,2.19,3.86,3.79,4.74,4.63,8.45,8.06,17.58,30.78,6.52,39.15s-22.76,7.29-39-9L475.69,483c-.74-.75-.69-2.36-1.47-3.15-.62-.63-2.06-.44-2.71-1.1-.49-.5-.25-2-.76-2.47s-1.86-.19-2.43-.77.07-2.14-.57-2.79c-.4-.41-2.13,0-2.54-.38s-.26-1.55-.7-2-1.55-.29-2-.78c-.28-.28.13-1.23-.15-1.52s-1.51-.17-1.92-.59-.2-1.65-.75-2.22c-.28-.28-1.47,0-1.75-.32-.46-.47-.09-1.83-.55-2.3s-1.8-.1-2.3-.6.81-1.95.45-2.31c-.52-.53-2.57.14-3.09-.39s.15-1.73-.28-2.16-2-.17-2.51-.68-.23-2.05-.74-2.57-2.53-.76-2.83-1.07.12-1.34-.25-1.72-1.7-.27-2.12-.7.13-1.45-.34-1.93-2.07-.53-2.57-1,.31-1.38-.19-1.89-2.15-.5-2.57-.93-.32-1.41-.8-1.9-1.66-.61-2.17-1.13-.12-1.2-.54-1.63-1.44-.39-1.8-.76,0-1.12-.42-1.54-1.36-.28-1.63-.56c-.42-.42-.09-1.11-.5-1.53s-1.58-.59-2-1,0-1.08-.39-1.49-1.58-.51-2-.9-.11-1.17-.58-1.65-1.67-.66-2.08-1.08-.32-1.76-.8-2.25-1.65-.25-2.15-.75,0-1.28-.36-1.67c-.55-.56-1.9-.65-2.44-1.2s-.31-1.66-.89-2.25-1.93-.63-2.44-1.15c-.91-.93-.9-2.13-1.75-3-.44-.46-1.76-.59-2.19-1s-.34-1.62-.81-2.09c-.7-.72-2-.79-2.65-1.45L405,410.87c-2.54-2.6-4.44-4.55-5.51-5.66-8.64-8.9-15.29-25.51-4.08-36.51S420.09,365.59,434.48,379.94Z" fill="#27182a"/><circle cx="414.1" cy="388.2" r="9.19" fill="#0b6640"/><circle cx="433.58" cy="410.96" r="9.19" fill="#0b6640"/><circle cx="456.31" cy="432.39" r="9.19" fill="#0b6640"/><circle cx="478.47" cy="455.7" r="9.19" fill="#0b6640"/><circle cx="503.82" cy="480.66" r="9.19" fill="#0b6640"/><ellipse cx="332.71" cy="311.55" rx="6.43" ry="5.99" fill="#27182a"/><ellipse cx="332.71" cy="311.23" rx="4.6" ry="4.29" fill="url(#f)"/><polygon points="485 312.97 425.71 354.24 545.32 474.77 585.92 412.61 485 312.97" fill="url(#g)"/><polygon points="487.69 389.5 479.74 399.42 543.7 461.99 550.06 452.33 487.69 389.5" fill="#0b6640"/><polygon points="497.06 379.8 491.93 384.54 553.72 448.21 560.17 437.64 497.06 379.8" fill="#0b6640"/><polygon points="506.49 372.47 500.72 377.81 562.5 432.83 568.76 424.38 506.49 372.47" fill="#0b6640"/></svg>