<svg xmlns="http://www.w3.org/2000/svg" xmlns:xlink="http://www.w3.org/1999/xlink" width="15.53" height="7.05" viewBox="0 0 15.53 7.05"><defs><linearGradient id="a" x1="-1004.06" y1="-391.86" x2="-993.45" y2="-396.6" gradientTransform="matrix(-0.08, -0.35, -1.09, 0.27, -495.22, -239.66)" gradientUnits="userSpaceOnUse"><stop offset="0" stop-color="#2168b6"/><stop offset="0.14" stop-color="#6495c9"/><stop offset="0.28" stop-color="#9ebdd9"/><stop offset="0.4" stop-color="#c8dae5"/><stop offset="0.49" stop-color="#e2ebec"/><stop offset="0.55" stop-color="#ecf2ef"/></linearGradient></defs><path d="M15.53,6.36c.11.83-1.59,1-4.94,0a31.72,31.72,0,0,1-6.3-2.51,3,3,0,0,1-2.2.91C.93,4.58.06,4.58,0,4.2s2.33-.36,2.75-.55-.58-.8-1.21-1A4.79,4.79,0,0,1,.29,2c-.18-.19,1-.17,1.88.08s1.11.26,1.19.15-.67-1-1-1.37S1.43.12,1.47.05A2.51,2.51,0,0,1,3.63.68,3.67,3.67,0,0,1,4.78,2.4a23.46,23.46,0,0,0,4.6,2C11.89,5.16,15.44,5.74,15.53,6.36Z" fill="#f0f4f1"/><path d="M9.65,5.14a13.28,13.28,0,0,0,1.77,1.08,6.82,6.82,0,0,0,2.32.44,4.88,4.88,0,0,0,1.08,0c.31-.1.32-.36.19-.38A11.65,11.65,0,0,1,13.24,6c-.42-.12-.65-.15-1-.23s-.8-.11-1.35-.23A8.21,8.21,0,0,1,9.65,5.14Z" fill="url(#a)"/></svg>