<svg xmlns="http://www.w3.org/2000/svg" xmlns:xlink="http://www.w3.org/1999/xlink" width="45.07" height="44.35" viewBox="0 0 45.07 44.35"><defs><linearGradient id="a" x1="8.49" y1="23.15" x2="23.58" y2="23.15" gradientTransform="matrix(1, 0, 0, -1, 0, 46)" gradientUnits="userSpaceOnUse"><stop offset="0.28" stop-color="#0b6640"/><stop offset="0.75" stop-color="#1d3432"/><stop offset="1" stop-color="#27182a"/></linearGradient><linearGradient id="b" x1="26.74" y1="26.12" x2="18.53" y2="1.33" gradientTransform="matrix(1, 0, 0, -1, 0, 46)" gradientUnits="userSpaceOnUse"><stop offset="0" stop-color="#fff"/><stop offset="0.02" stop-color="#f2f2f2"/><stop offset="0.14" stop-color="#bababa"/><stop offset="0.25" stop-color="#888"/><stop offset="0.37" stop-color="#5e5e5e"/><stop offset="0.49" stop-color="#3c3c3c"/><stop offset="0.61" stop-color="#222"/><stop offset="0.74" stop-color="#0f0f0f"/><stop offset="0.86" stop-color="#040404"/><stop offset="1"/></linearGradient><linearGradient id="c" x1="24.24" y1="28.21" x2="40.2" y2="36.71" gradientTransform="matrix(1, 0, 0, -1, 0, 46)" gradientUnits="userSpaceOnUse"><stop offset="0" stop-color="#27182a"/><stop offset="0.12" stop-color="#212a2f"/><stop offset="0.33" stop-color="#174436"/><stop offset="0.54" stop-color="#10573c"/><stop offset="0.76" stop-color="#0c623f"/><stop offset="1" stop-color="#0b6640"/></linearGradient></defs><polygon points="24.14 12.97 30.99 15.1 25.91 20.05 24.14 16.71 24.14 12.97" fill="#27182a"/><path d="M23.58,16,13.2,24.59l-.41-3.24-4.2.89S7.85,27,10.4,28.46s2.24,1.22,2.24,1.22L23.58,16" fill="url(#a)"/><path d="M15.85,24.74,9.17,31.92v8.81s6.22-5.57,7.52-6.94,5.66-8.3,5.66-8.3A29.7,29.7,0,0,0,23,35.3c1.28,5.43,2.34,5.68,3.21,5.93s7.38-1,7.38-1l1.65-7.73-5.93,3.11L26.8,24.26l-7.18-.12-3.77.6" fill="url(#b)"/><polygon points="9.17 31.92 9.17 40.73 5.71 44.28 0.27 33.79 5.71 36.25 9.17 31.92" fill="#fff"/><polygon points="33.63 40.25 39.37 38.1 44.92 41.26 40.39 29.86 35.28 32.52 33.63 40.25" fill="#fff"/><ellipse cx="2.9" cy="39.07" rx="1.08" ry="5.93" transform="translate(-17.71 5.75) rotate(-27.49)" fill="#27182a"/><ellipse cx="42.63" cy="35.57" rx="0.93" ry="6.13" transform="translate(-10.18 18.43) rotate(-21.86)" fill="#27182a"/><path d="M30.8,12.89c1.28-1.91,2.35-6.61,2.35-6.61l4.69,1.4s-1.67,7.19-3.7,9.42-4.34,4.5-4.34,4.5l-4.07-3.69A27.08,27.08,0,0,0,30.8,12.89Z" fill="url(#c)"/><path d="M23.58,16l-7.73,8.79s2.5,1.79,8,2a36.53,36.53,0,0,0,10.3-1.2L25.74,18Z" fill="#0b6640"/><polyline points="22.32 13.48 22.85 11.78 23.61 13.01" fill="#f0f4f1"/><polygon points="23.7 12.96 22.82 11.54 22.22 13.45 22.41 13.51 22.88 12.02 23.53 13.06 23.7 12.96" fill="#27182a"/><circle cx="23.17" cy="15.35" r="2.56" fill="#f0f4f1"/><circle cx="20.47" cy="15.1" r="0.85" fill="#f0f4f1"/><polygon points="20.58 14.88 20.02 15.24 20.58 15.54 20.68 15.36 20.42 15.22 20.69 15.05 20.58 14.88" fill="#27182a"/><circle cx="26.12" cy="15.1" r="0.85" fill="#f0f4f1"/><polygon points="26.14 15.41 26.57 14.9 25.95 14.79 25.91 14.98 26.2 15.04 25.99 15.29 26.14 15.41" fill="#27182a"/><path d="M23.17,15.78a1.36,1.36,0,0,0,1.37-1.35H21.81a1.36,1.36,0,0,0,1.36,1.36Z" fill="#27182a"/><path d="M33.15,6.28s.08-1.95.05-3,.41-.84.51-.78a1.91,1.91,0,0,1,.16.88,7.53,7.53,0,0,0,.08.83l.65-3c.07-.34.23-.69.53-.66s.25.43.2.73-.18,2-.18,2,.6-2.31.69-2.63.29-.65.55-.57.34.36.21.7S36,3.26,36,3.26,37,1.31,37.1,1s.38-.87.74-.73.22.58.09.87S37.17,4,37.17,4s.7-1.63.9-2,.29-.53.59-.39,0,.58,0,.85-1.44,5-1.44,5Z" fill="#f0f4f1"/><path d="M12.79,21.35s.25-1.58.4-2.65-.31-.89-.4-.84a1.85,1.85,0,0,0-.27.85,7.45,7.45,0,0,1-.17.82s-.27-2.73-.3-3.07-.15-.71-.45-.71-.3.39-.28.7-.05,2-.05,2-.34-2.36-.39-2.69-.2-.68-.48-.62-.37.31-.29.66.3,2.6.3,2.6-.77-2.08-.83-2.4-.27-.91-.65-.81-.28.56-.19.85.43,2.9.43,2.9-.51-1.69-.67-2.07-.22-.56-.54-.45-.1.57-.06.84l.69,4.95Z" fill="#f0f4f1"/></svg>