<svg xmlns="http://www.w3.org/2000/svg" xmlns:xlink="http://www.w3.org/1999/xlink" width="249.12" height="350.58" viewBox="0 0 249.12 350.58"><defs><linearGradient id="a" x1="76.01" y1="191.38" x2="76.01" y2="194.38" gradientTransform="matrix(0.97, -0.23, -0.23, -0.97, 59.14, 307.03)" gradientUnits="userSpaceOnUse"><stop offset="0.21" stop-color="#f0f4f1"/><stop offset="0.24" stop-color="#e6efed"/><stop offset="0.4" stop-color="#bed8d9"/><stop offset="0.56" stop-color="#9ec7ca"/><stop offset="0.71" stop-color="#87bac0"/><stop offset="0.85" stop-color="#7ab3b9"/><stop offset="0.97" stop-color="#75b0b7"/></linearGradient><linearGradient id="b" x1="66.61" y1="194.42" x2="78.21" y2="201.69" gradientTransform="matrix(0.97, -0.23, -0.23, -0.97, 59.14, 307.03)" gradientUnits="userSpaceOnUse"><stop offset="0.21" stop-color="#0b6640"/><stop offset="0.97" stop-color="#27182a"/></linearGradient><linearGradient id="c" x1="85.06" y1="190.64" x2="79.9" y2="206.15" gradientTransform="matrix(0.97, -0.23, -0.23, -0.97, 59.14, 307.03)" gradientUnits="userSpaceOnUse"><stop offset="0" stop-color="#0b6640"/><stop offset="0.2" stop-color="#0d603e"/><stop offset="0.46" stop-color="#134f39"/><stop offset="0.76" stop-color="#1d3332"/><stop offset="1" stop-color="#27182a"/></linearGradient><linearGradient id="d" x1="59.59" y1="282.8" x2="74.31" y2="279.89" gradientTransform="matrix(1, 0, 0, -1, 0, 352)" gradientUnits="userSpaceOnUse"><stop offset="0.21" stop-color="#75b0b7"/><stop offset="0.67" stop-color="#475664"/><stop offset="0.97" stop-color="#27182a"/></linearGradient><linearGradient id="e" x1="71.61" y1="292.86" x2="84.46" y2="287.11" xlink:href="#d"/><linearGradient id="f" x1="71.56" y1="190.24" x2="71.56" y2="192.01" gradientTransform="matrix(1, 0, 0, -1, 0, 352)" gradientUnits="userSpaceOnUse"><stop offset="0" stop-color="#27182a"/><stop offset="0.37" stop-color="#1e3131"/><stop offset="1" stop-color="#0b6640"/></linearGradient><linearGradient id="g" x1="240.71" y1="1.42" x2="240.71" y2="11.12" xlink:href="#f"/><linearGradient id="h" x1="72.62" y1="223.45" x2="72.62" y2="230.11" xlink:href="#f"/><linearGradient id="i" x1="135.69" y1="345.34" x2="135.69" y2="352" xlink:href="#f"/><linearGradient id="j" x1="2857.45" y1="326.51" x2="2857.45" y2="333.69" gradientTransform="matrix(1, 0, 0, -1, -2710.3, 352)" xlink:href="#f"/><linearGradient id="k" x1="1292.7" y1="248.26" x2="1292.7" y2="250.03" gradientTransform="translate(1295.7 352) rotate(180)" xlink:href="#f"/><linearGradient id="l" x1="1141.98" y1="139.22" x2="1141.98" y2="140.98" gradientTransform="translate(1295.7 352) rotate(180)" xlink:href="#f"/><linearGradient id="m" x1="1144.91" y1="208.21" x2="1144.91" y2="210.27" gradientTransform="translate(1295.7 352) rotate(180)" xlink:href="#f"/><linearGradient id="n" x1="28.85" y1="317.23" x2="28.85" y2="326.93" xlink:href="#f"/><linearGradient id="o" x1="2910.33" y1="188.54" x2="2910.33" y2="195.73" gradientTransform="matrix(1, 0, 0, -1, -2710.3, 352)" xlink:href="#f"/></defs><polygon points="91.8 88.41 92.86 89.38 93.71 89.75 95.27 89.08 96.23 82.63 92.9 81.71 91.8 88.41" fill="#27182a"/><polygon points="85.22 101.37 85.33 102.78 87.1 102.51 87.98 101.79 88.93 101.89 90.54 100.78 89.64 99.81 85.22 101.37" fill="url(#a)"/><polygon points="80.02 85.76 86.42 99.41 93.43 85.08 80.02 85.76" fill="#0b6640"/><path d="M70.2,76.43l4.11-6.27s7.53,3.51,8,5A72.38,72.38,0,0,0,85.87,82s.49-4.52.15-6-6.59-7.18-6.59-7.18l5.26-4.65s6.56,7.69,7,10S93.41,85,93.41,85L80,85.76s-2.43-4.43-3.09-5.33S70.2,76.43,70.2,76.43Z" fill="#0b6640"/><polyline points="88.57 100.42 88.41 102.91 86.98 101.49" fill="#f0f4f1"/><polygon points="86.88 101.58 88.53 103.22 88.71 100.43 88.44 100.42 88.29 102.59 87.08 101.39 86.88 101.58" fill="#27182a"/><circle cx="86.81" cy="98.18" r="3.56" fill="#f0f4f1"/><circle cx="90.55" cy="97.64" r="1.18" fill="#f0f4f1"/><polygon points="90.47 97.97 91.11 97.3 90.25 97.08 90.19 97.35 90.58 97.45 90.27 97.78 90.47 97.97" fill="#27182a"/><circle cx="83.3" cy="99.38" r="1.18" fill="#f0f4f1"/><polygon points="83.21 98.95 82.8 99.78 83.68 99.74 83.66 99.46 83.26 99.48 83.46 99.07 83.21 98.95" fill="#27182a"/><polygon points="85.12 102.48 87.37 102.38 87.25 102.6 85.23 102.95 85.12 102.48" fill="#75b0b7"/><polygon points="88.76 101.92 90.51 100.64 90.72 100.91 88.95 102 88.76 101.92" fill="#75b0b7"/><circle cx="87.07" cy="99.13" r="0.99" fill="#27182a"/><path d="M82.52,91.09s-5.69,4.62-6,6.4S78,107.55,78,107.55l3.71-.9s-2-7.35-2-8.17,4.89-3,4.89-3Z" fill="url(#b)"/><path d="M93.41,102.89s-1,2-1.41,2.86,0,.81.13.79a1.84,1.84,0,0,0,.44-.63,5.62,5.62,0,0,1,.34-.64l-.53,2.61c-.06.29-.06.62.19.7s.35-.25.41-.51.54-1.61.54-1.61-.32,2-.36,2.31,0,.62.23.64.39-.17.41-.47.41-2.23.41-2.23.12,1.89.09,2.15,0,.81.33.83.38-.39.38-.66.38-2.49.38-2.49v1.87c0,.35,0,.52.33.51s.23-.45.27-.68,1.09-4.37,1.09-4.37Z" fill="#f0f4f1"/><path d="M81.69,106.65l1.17,3.23c.32.87-.1.8-.19.77a1.7,1.7,0,0,1-.38-.67c-.09-.22-.18-.45-.29-.66,0,0,.26,2.35.3,2.64s0,.63-.25.69-.33-.28-.36-.54-.4-1.66-.4-1.66l.16,2.34c0,.28,0,.61-.3.61s-.37-.2-.36-.51-.21-2.25-.21-2.25-.29,1.88-.28,2.13-.07.81-.41.8-.34-.42-.31-.68-.16-2.53-.16-2.53-.12,1.52-.19,1.87-.09.51-.37.48-.19-.47-.21-.7-.7-4.46-.7-4.46Z" fill="#f0f4f1"/><path d="M86.94,98.56s3-2.67,3.67-3.36,2.25-5.82,2.25-5.82l.85.37s-1.49,4.78-2.46,5.76-4.18,3.62-4.18,3.62Z" fill="#27182a"/><path d="M91.12,89.8l-1.88,3.83a10.5,10.5,0,0,1,3.22,1.58c1,.9,1,7.68,1,7.68l3.69,1s.52-7.91,0-9.38S91.12,89.8,91.12,89.8Z" fill="url(#c)"/><path d="M70.2,76.43a13.1,13.1,0,0,0-3.86-2.36c-1.68-.45-7-2.33-7-2.33L63,71.33l-1.36-2.9,3.47.57L63.6,64.85s4.53,3.25,6,4a22.43,22.43,0,0,0,4.68,1.3Z" fill="url(#d)"/><path d="M79.48,68.92a21.16,21.16,0,0,0-2.41-2.51c-1.17-1-6.46-5-6.46-5l4.08.8-1-4.07L78,60.27l-.19-4.62a61,61,0,0,0,3.86,6.2,21.17,21.17,0,0,0,3.08,2.42Z" fill="url(#e)"/><polygon points="79.8 85.34 80.19 86.11 93.27 85.4 93.43 85.08 93.35 84.57 79.8 85.34" fill="#27182a"/><path d="M68.55,160.3v1.15l1.06-.48a3.79,3.79,0,0,0,2.31.78,7.24,7.24,0,0,0,2.65-.78,5.46,5.46,0,0,0-2.51-1,6,6,0,0,0-2.38.66Z" fill="url(#f)"/><polygon points="72.62 160.06 72.62 161.66 72.69 161.65 72.74 160.09 72.62 160.06" fill="#27182a"/><ellipse cx="73.11" cy="160.64" rx="0.1" ry="0.09" fill="#27182a"/><path d="M232.3,341.12v8.17l4.75-3s1.65,4.62,6.07,4.29a7.25,7.25,0,0,0,6-4.29s-1.58-5.39-5.54-5.39-6.27,3.64-6.27,3.64Z" fill="url(#g)"/><polygon points="244.57 341 244.57 350.31 244.81 350.24 244.92 341.1 244.57 341" fill="#27182a"/><circle cx="246.42" cy="344.46" r="0.5" fill="#27182a"/><path d="M62.28,121.89v6.64l5-2.83a13.82,13.82,0,0,0,8.39,2.83A11.71,11.71,0,0,0,83,125.7s-2.66-3.55-6.82-3.55-8.58,2.4-8.58,2.4Z" fill="url(#h)"/><polygon points="78.17 122.44 78.17 128.16 78.42 128.09 78.58 122.57 78.17 122.44" fill="#27182a"/><ellipse cx="79.94" cy="124.51" rx="0.37" ry="0.33" fill="#27182a"/><path d="M125.37,0V6.65l5-2.83a13.86,13.86,0,0,0,8.38,2.83A11.8,11.8,0,0,0,146,3.82S143.36.26,139.2.26s-8.59,2.4-8.59,2.4Z" fill="url(#i)"/><polygon points="141.25 0.55 141.25 6.27 141.51 6.21 141.67 0.68 141.25 0.55" fill="#27182a"/><ellipse cx="143.03" cy="2.62" rx="0.37" ry="0.33" fill="#27182a"/><path d="M149.89,21.25s1.85-2.31,0-2.89-8.37,3.87-8.37,3.87,5.6,3.63,6.87,3.23,1.79-1.9,1.27-2.6l3.12,1v-3.4Z" fill="url(#j)"/><polygon points="145.61 19.75 145.61 24.59 145.31 24.43 145.33 19.91 145.61 19.75" fill="#27182a"/><circle cx="144.3" cy="21.38" r="0.24" fill="#27182a"/><path d="M6,102.28v1.15L5,103a3.79,3.79,0,0,1-2.31.78A7.25,7.25,0,0,1,0,103a5.39,5.39,0,0,1,2.52-1,6,6,0,0,1,2.37.66Z" fill="url(#k)"/><polygon points="1.95 102.04 1.95 103.64 1.88 103.63 1.83 102.07 1.95 102.04" fill="#27182a"/><ellipse cx="1.46" cy="102.62" rx="0.1" ry="0.09" fill="#27182a"/><path d="M158,211.33v1.14l-1.06-.47a3.9,3.9,0,0,1-1.53.71c-.24,0-3,.08-3.32.07a7.5,7.5,0,0,1-2.65-.78,5.39,5.39,0,0,1,2.52-1c.28,0,3.1,0,3.37.1a6.61,6.61,0,0,1,1.54.56Z" fill="url(#l)"/><polygon points="151.38 211.09 151.38 212.69 151.31 212.68 151.27 211.11 151.38 211.09" fill="#27182a"/><ellipse cx="150.89" cy="211.67" rx="0.1" ry="0.09" fill="#27182a"/><path d="M155.07,142.17v1.14l-1.06-.47a3.9,3.9,0,0,1-1.53.71,10.08,10.08,0,0,1-1.9.24,12.56,12.56,0,0,1-4.07-.95,5.39,5.39,0,0,1,2.52-1,11.29,11.29,0,0,1,1.54-.13,10.18,10.18,0,0,1,1.83.23,6.45,6.45,0,0,1,1.54.56Z" fill="url(#m)"/><polygon points="148.46 141.93 148.46 143.53 148.39 143.52 148.35 141.95 148.46 141.93" fill="#27182a"/><ellipse cx="147.97" cy="142.51" rx="0.1" ry="0.09" fill="#27182a"/><path d="M20.44,25.31v8.18l4.74-3s1.65,4.62,6.07,4.29a7.25,7.25,0,0,0,6-4.29s-1.58-5.39-5.54-5.39-6.27,3.64-6.27,3.64Z" fill="url(#n)"/><polygon points="32.71 25.19 32.71 34.5 32.94 34.43 33.05 25.29 32.71 25.19" fill="#27182a"/><circle cx="34.55" cy="28.65" r="0.5" fill="#27182a"/><path d="M202.77,159.21s1.85-2.31,0-2.88-8.37,3.86-8.37,3.86,5.6,3.64,6.87,3.24,1.79-1.91,1.27-2.6l3.12,1V158.4Z" fill="url(#o)"/><polygon points="198.49 157.72 198.49 162.55 198.19 162.4 198.21 157.87 198.49 157.72" fill="#27182a"/><circle cx="197.17" cy="159.35" r="0.24" fill="#27182a"/></svg>