<svg xmlns="http://www.w3.org/2000/svg" width="273.72" height="200.61" viewBox="0 0 273.72 200.61"><path d="M178.78,66.37H0a59.6,59.6,0,0,1,5.57-7C8.15,56.83,19,48.48,34.29,48.27,42.28,48.16,50.07,33,62.45,33S79.36,45.11,86.58,45.11C89.73,45.11,103.05,0,116.46,0s25.88,42.24,29.6,42.24,4.8-18.68,15.22-18.68c8.52,0,13.12,23,17.5,23s11.58-38.7,30.65-39.12c10.09-.23,19.84,42.43,35,42.43s26.66,11.47,27.63,12.47,1.64,4,1.64,4Z" fill="#0b6640"/><path d="M0,66.05s24.87,63.4,65.69,73.9,40.23,61.81,75.22,60.64,40.82-95,69.39-95,63.42-39.53,63.42-39.53Z" fill="#27182a" opacity="0.14" style="isolation:isolate"/></svg>