<svg xmlns="http://www.w3.org/2000/svg" xmlns:xlink="http://www.w3.org/1999/xlink" width="296.56" height="397.59" viewBox="0 0 296.56 397.59"><defs><linearGradient id="a" x1="149.75" y1="153.78" x2="141.59" y2="146.15" gradientTransform="matrix(1, 0, 0, -1, 0, 400)" gradientUnits="userSpaceOnUse"><stop offset="0.17" stop-color="#75b0b7"/><stop offset="0.22" stop-color="#84b8be"/><stop offset="0.38" stop-color="#aaced0"/><stop offset="0.54" stop-color="#c9dedf"/><stop offset="0.7" stop-color="#dfeae9"/><stop offset="0.85" stop-color="#ecf2ef"/><stop offset="0.98" stop-color="#f0f4f1"/></linearGradient><linearGradient id="b" x1="301.28" y1="155.55" x2="293.11" y2="147.92" gradientTransform="translate(444.85 400) rotate(180)" xlink:href="#a"/><linearGradient id="c" x1="144.7" y1="155.56" x2="139.33" y2="150.55" xlink:href="#a"/><linearGradient id="d" x1="297.66" y1="156.57" x2="292.29" y2="151.56" gradientTransform="translate(444.72 400) rotate(180)" xlink:href="#a"/><linearGradient id="e" x1="140.13" y1="151.97" x2="147.27" y2="145.31" xlink:href="#a"/><linearGradient id="f" x1="302.14" y1="154.49" x2="307.64" y2="149.34" gradientTransform="translate(454.24 400) rotate(180)" xlink:href="#a"/><linearGradient id="g" x1="150.1" y1="160.97" x2="143.41" y2="154.74" xlink:href="#a"/><linearGradient id="h" x1="201.41" y1="273.13" x2="195.7" y2="267.8" xlink:href="#a"/><linearGradient id="i" x1="247.8" y1="274.37" x2="242.07" y2="269.04" gradientTransform="translate(444.85 400) rotate(180)" xlink:href="#a"/><linearGradient id="j" x1="197.86" y1="274.4" x2="194.1" y2="270.9" xlink:href="#a"/><linearGradient id="k" x1="245.21" y1="275.12" x2="241.45" y2="271.62" gradientTransform="translate(444.72 400) rotate(180)" xlink:href="#a"/><linearGradient id="l" x1="194.64" y1="271.87" x2="199.64" y2="267.21" xlink:href="#a"/><linearGradient id="m" x1="251.2" y1="273.65" x2="255.05" y2="270.06" gradientTransform="translate(454.24 400) rotate(180)" xlink:href="#a"/><linearGradient id="n" x1="201.65" y1="278.17" x2="196.98" y2="273.8" xlink:href="#a"/><linearGradient id="o" x1="115.28" y1="263.6" x2="107.11" y2="255.98" gradientTransform="matrix(0.97, -0.23, -0.23, -0.97, 120.3, 440.87)" xlink:href="#a"/><linearGradient id="p" x1="336.67" y1="265.17" x2="328.51" y2="257.55" gradientTransform="translate(554.03 339.27) rotate(166.66)" xlink:href="#a"/><linearGradient id="q" x1="110.2" y1="265.4" x2="104.83" y2="260.39" gradientTransform="matrix(0.97, -0.23, -0.23, -0.97, 120.3, 440.87)" xlink:href="#a"/><linearGradient id="r" x1="333.01" y1="266.26" x2="327.64" y2="261.24" gradientTransform="translate(553.9 339.3) rotate(166.66)" xlink:href="#a"/><linearGradient id="s" x1="105.03" y1="261.93" x2="112.17" y2="255.27" gradientTransform="matrix(0.97, -0.23, -0.23, -0.97, 120.3, 440.87)" xlink:href="#a"/><linearGradient id="t" x1="338.17" y1="265.97" x2="343.67" y2="260.84" gradientTransform="translate(563.18 337.12) rotate(166.66)" xlink:href="#a"/><linearGradient id="u" x1="115.61" y1="270.81" x2="108.91" y2="264.56" gradientTransform="matrix(0.97, -0.23, -0.23, -0.97, 120.3, 440.87)" xlink:href="#a"/><linearGradient id="v" x1="226.82" y1="183.76" x2="222.66" y2="179.88" gradientTransform="matrix(0.98, 0.21, 0.21, -0.98, -92.88, 339.15)" xlink:href="#a"/><linearGradient id="w" x1="220.66" y1="185.5" x2="216.5" y2="181.62" gradientTransform="matrix(-0.98, -0.21, 0.21, -0.98, 341.86, 433.69)" xlink:href="#a"/><linearGradient id="x" x1="224.24" y1="184.68" x2="221.5" y2="182.13" gradientTransform="matrix(0.98, 0.21, 0.21, -0.98, -92.88, 339.15)" xlink:href="#a"/><linearGradient id="y" x1="218.74" y1="186.05" x2="216" y2="183.5" gradientTransform="matrix(-0.98, -0.21, 0.21, -0.98, 341.73, 433.67)" xlink:href="#a"/><linearGradient id="z" x1="221.9" y1="182.83" x2="225.53" y2="179.44" gradientTransform="matrix(0.98, 0.21, 0.21, -0.98, -92.88, 339.15)" xlink:href="#a"/><linearGradient id="aa" x1="226.53" y1="184.17" x2="229.33" y2="181.55" gradientTransform="matrix(-0.98, -0.21, 0.21, -0.98, 351.04, 435.67)" xlink:href="#a"/><linearGradient id="ab" x1="227" y1="187.42" x2="223.59" y2="184.25" gradientTransform="matrix(0.98, 0.21, 0.21, -0.98, -92.88, 339.15)" xlink:href="#a"/><linearGradient id="ac" x1="212.59" y1="124.65" x2="208.43" y2="120.76" xlink:href="#a"/><linearGradient id="ad" x1="235.4" y1="125.55" x2="231.24" y2="121.66" gradientTransform="translate(444.85 400) rotate(180)" xlink:href="#a"/><linearGradient id="ae" x1="210.01" y1="125.55" x2="207.27" y2="123" xlink:href="#a"/><linearGradient id="af" x1="233.48" y1="126.08" x2="230.74" y2="123.53" gradientTransform="translate(444.72 400) rotate(180)" xlink:href="#a"/><linearGradient id="ag" x1="207.68" y1="123.71" x2="211.31" y2="120.32" xlink:href="#a"/><linearGradient id="ah" x1="240.45" y1="125" x2="243.25" y2="122.39" gradientTransform="translate(454.24 400) rotate(180)" xlink:href="#a"/><linearGradient id="ai" x1="212.77" y1="128.32" x2="209.36" y2="125.14" xlink:href="#a"/><linearGradient id="aj" x1="191.05" y1="9.24" x2="186.89" y2="5.36" xlink:href="#a"/><linearGradient id="ak" x1="256.95" y1="10.15" x2="252.79" y2="6.26" gradientTransform="translate(444.85 400) rotate(180)" xlink:href="#a"/><linearGradient id="al" x1="188.47" y1="10.15" x2="185.74" y2="7.6" xlink:href="#a"/><linearGradient id="am" x1="255.02" y1="10.69" x2="252.29" y2="8.14" gradientTransform="translate(444.72 400) rotate(180)" xlink:href="#a"/><linearGradient id="an" x1="186.13" y1="8.31" x2="189.77" y2="4.92" xlink:href="#a"/><linearGradient id="ao" x1="261.96" y1="9.57" x2="264.76" y2="6.96" gradientTransform="translate(454.24 400) rotate(180)" xlink:href="#a"/><linearGradient id="ap" x1="191.22" y1="12.91" x2="187.82" y2="9.73" xlink:href="#a"/><linearGradient id="aq" x1="64.32" y1="128.98" x2="60.16" y2="125.1" gradientTransform="matrix(0.98, -0.18, -0.18, -0.98, 72.1, 426.96)" xlink:href="#a"/><linearGradient id="ar" x1="384.63" y1="128.21" x2="380.47" y2="124.33" gradientTransform="translate(510.43 345.54) rotate(169.59)" xlink:href="#a"/><linearGradient id="as" x1="61.72" y1="129.92" x2="58.98" y2="127.37" gradientTransform="matrix(0.98, -0.18, -0.18, -0.98, 72.1, 426.96)" xlink:href="#a"/><linearGradient id="at" x1="382.69" y1="128.79" x2="379.95" y2="126.24" gradientTransform="translate(510.3 345.57) rotate(169.59)" xlink:href="#a"/><linearGradient id="au" x1="59.43" y1="128.05" x2="63.06" y2="124.65" gradientTransform="matrix(0.98, -0.18, -0.18, -0.98, 72.1, 426.96)" xlink:href="#a"/><linearGradient id="av" x1="389.57" y1="130.13" x2="392.37" y2="127.51" gradientTransform="translate(519.67 343.86) rotate(169.59)" xlink:href="#a"/><linearGradient id="aw" x1="64.45" y1="132.7" x2="61.04" y2="129.52" gradientTransform="matrix(0.98, -0.18, -0.18, -0.98, 72.1, 426.96)" xlink:href="#a"/><linearGradient id="ax" x1="304.76" y1="193.27" x2="299.11" y2="188" gradientTransform="translate(450.71 400) rotate(180)" gradientUnits="userSpaceOnUse"><stop offset="0.17" stop-color="#0b6640"/><stop offset="0.2" stop-color="#1c704d"/><stop offset="0.32" stop-color="#539378"/><stop offset="0.44" stop-color="#83b19d"/><stop offset="0.55" stop-color="#aac9bb"/><stop offset="0.67" stop-color="#c9dcd3"/><stop offset="0.78" stop-color="#dfe9e3"/><stop offset="0.88" stop-color="#ecf1ee"/><stop offset="0.98" stop-color="#f0f4f1"/></linearGradient><linearGradient id="ay" x1="144.36" y1="194.49" x2="138.71" y2="189.22" gradientTransform="matrix(1, 0, 0, -1, 5.86, 400)" gradientUnits="userSpaceOnUse"><stop offset="0.08" stop-color="#0b6640"/><stop offset="0.17" stop-color="#0b6640"/><stop offset="0.2" stop-color="#1c704d"/><stop offset="0.32" stop-color="#539378"/><stop offset="0.44" stop-color="#83b19d"/><stop offset="0.55" stop-color="#aac9bb"/><stop offset="0.67" stop-color="#c9dcd3"/><stop offset="0.78" stop-color="#dfe9e3"/><stop offset="0.88" stop-color="#ecf1ee"/><stop offset="0.98" stop-color="#f0f4f1"/></linearGradient><linearGradient id="az" x1="301.27" y1="194.5" x2="297.55" y2="191.04" gradientTransform="translate(450.71 400) rotate(180)" xlink:href="#a"/><linearGradient id="ba" x1="141.81" y1="195.23" x2="138.09" y2="191.76" gradientTransform="matrix(1, 0, 0, -1, 5.99, 400)" xlink:href="#a"/><linearGradient id="bb" x1="298.1" y1="192.01" x2="303.04" y2="187.41" gradientTransform="translate(450.71 400) rotate(180)" xlink:href="#a"/><linearGradient id="bc" x1="147.86" y1="193.77" x2="151.67" y2="190.22" gradientTransform="matrix(1, 0, 0, -1, -3.53, 400)" xlink:href="#a"/><linearGradient id="bd" x1="305" y1="198.24" x2="300.38" y2="193.93" xlink:href="#ax"/><linearGradient id="be" x1="429.31" y1="171.36" x2="423.66" y2="166.08" xlink:href="#ax"/><linearGradient id="bf" x1="19.82" y1="172.58" x2="14.17" y2="167.31" xlink:href="#ay"/><linearGradient id="bg" x1="425.83" y1="172.57" x2="422.12" y2="169.1" gradientTransform="translate(450.71 400) rotate(180)" xlink:href="#a"/><linearGradient id="bh" x1="17.26" y1="173.3" x2="13.54" y2="169.84" gradientTransform="matrix(1, 0, 0, -1, 5.99, 400)" xlink:href="#a"/><linearGradient id="bi" x1="422.64" y1="170.09" x2="427.57" y2="165.48" gradientTransform="translate(450.71 400) rotate(180)" xlink:href="#a"/><linearGradient id="bj" x1="23.31" y1="171.84" x2="27.11" y2="168.29" gradientTransform="matrix(1, 0, 0, -1, -3.53, 400)" xlink:href="#a"/><linearGradient id="bk" x1="429.56" y1="176.33" x2="424.93" y2="172.02" xlink:href="#ax"/><linearGradient id="bl" x1="181.55" y1="195.44" x2="175.89" y2="190.17" xlink:href="#ax"/><linearGradient id="bm" x1="267.56" y1="196.68" x2="261.91" y2="191.41" xlink:href="#ay"/><linearGradient id="bn" x1="178.05" y1="196.68" x2="174.34" y2="193.2" gradientTransform="translate(450.71 400) rotate(180)" xlink:href="#a"/><linearGradient id="bo" x1="265.02" y1="197.4" x2="261.3" y2="193.93" gradientTransform="matrix(1, 0, 0, -1, 5.99, 400)" xlink:href="#a"/><linearGradient id="bp" x1="174.9" y1="194.19" x2="179.83" y2="189.59" gradientTransform="translate(450.71 400) rotate(180)" xlink:href="#a"/><linearGradient id="bq" x1="271.08" y1="195.94" x2="274.88" y2="192.39" gradientTransform="matrix(1, 0, 0, -1, -3.53, 400)" xlink:href="#a"/><linearGradient id="br" x1="181.8" y1="200.42" x2="177.17" y2="196.1" xlink:href="#ax"/><linearGradient id="bs" x1="272.79" y1="251.16" x2="267.14" y2="245.89" gradientTransform="matrix(-0.99, 0.17, -0.17, -0.99, 534.18, 369.23)" xlink:href="#ax"/><linearGradient id="bt" x1="175.46" y1="250.76" x2="169.81" y2="245.49" gradientTransform="matrix(0.99, -0.17, -0.17, -0.99, 95.82, 442.46)" xlink:href="#ay"/><linearGradient id="bu" x1="269.36" y1="252.34" x2="265.63" y2="248.87" gradientTransform="matrix(-0.99, 0.17, -0.17, -0.99, 534.18, 369.23)" xlink:href="#a"/><linearGradient id="bv" x1="172.9" y1="251.49" x2="169.19" y2="248.02" gradientTransform="matrix(0.99, -0.17, -0.17, -0.99, 95.95, 442.44)" xlink:href="#a"/><linearGradient id="bw" x1="266.72" y1="247.83" x2="271.66" y2="243.22" gradientTransform="matrix(-0.99, 0.17, -0.17, -0.99, 534.18, 369.23)" xlink:href="#a"/><linearGradient id="bx" x1="179.01" y1="250.04" x2="182.81" y2="246.49" gradientTransform="matrix(0.99, -0.17, -0.17, -0.99, 86.56, 444.05)" xlink:href="#a"/><linearGradient id="by" x1="273.02" y1="256.14" x2="268.4" y2="251.82" gradientTransform="matrix(-0.99, 0.17, -0.17, -0.99, 534.18, 369.23)" xlink:href="#ax"/><linearGradient id="bz" x1="400.38" y1="267.21" x2="394.73" y2="261.94" gradientTransform="translate(576.23 313.02) rotate(164.85) scale(0.99)" xlink:href="#ax"/><linearGradient id="ca" x1="50.46" y1="271.16" x2="44.81" y2="265.89" gradientTransform="matrix(0.96, -0.26, -0.26, -0.96, 148.41, 432.81)" xlink:href="#ay"/><linearGradient id="cb" x1="396.86" y1="268.47" x2="393.14" y2="265.01" gradientTransform="translate(576.23 313.02) rotate(164.85) scale(0.99)" xlink:href="#a"/><linearGradient id="cc" x1="47.89" y1="271.92" x2="44.17" y2="268.45" gradientTransform="matrix(0.96, -0.26, -0.26, -0.96, 148.54, 432.78)" xlink:href="#a"/><linearGradient id="cd" x1="391.65" y1="268.81" x2="396.59" y2="264.21" gradientTransform="translate(576.23 313.02) rotate(164.85) scale(0.99)" xlink:href="#a"/><linearGradient id="ce" x1="53.96" y1="270.45" x2="57.77" y2="266.9" gradientTransform="matrix(0.96, -0.26, -0.26, -0.96, 139.35, 435.29)" xlink:href="#a"/><linearGradient id="cf" x1="400.59" y1="272.23" x2="395.97" y2="267.91" gradientTransform="translate(576.23 313.02) rotate(164.85) scale(0.99)" xlink:href="#ax"/><linearGradient id="cg" x1="475.19" y1="447.23" x2="469.54" y2="441.96" gradientTransform="translate(576.23 313.02) rotate(164.85) scale(0.99)" xlink:href="#ax"/><linearGradient id="ch" x1="-24.35" y1="451.19" x2="-30" y2="445.91" gradientTransform="matrix(0.96, -0.26, -0.26, -0.96, 148.41, 432.81)" xlink:href="#ay"/><linearGradient id="ci" x1="471.68" y1="448.5" x2="467.96" y2="445.03" gradientTransform="translate(576.23 313.02) rotate(164.85) scale(0.99)" xlink:href="#a"/><linearGradient id="cj" x1="-26.9" y1="451.91" x2="-30.61" y2="448.44" gradientTransform="matrix(0.96, -0.26, -0.26, -0.96, 148.54, 432.78)" xlink:href="#a"/><linearGradient id="ck" x1="467.26" y1="449.7" x2="472.2" y2="445.09" gradientTransform="translate(576.23 313.02) rotate(164.85) scale(0.99)" xlink:href="#a"/><linearGradient id="cl" x1="-20.84" y1="450.47" x2="-17.04" y2="446.92" gradientTransform="matrix(0.96, -0.26, -0.26, -0.96, 139.35, 435.29)" xlink:href="#a"/><linearGradient id="cm" x1="475.43" y1="452.22" x2="470.81" y2="447.9" gradientTransform="translate(576.23 313.02) rotate(164.85) scale(0.99)" xlink:href="#ax"/><linearGradient id="cn" x1="269.74" y1="181.57" x2="260.52" y2="172.97" xlink:href="#ax"/><linearGradient id="co" x1="182.08" y1="183.57" x2="172.85" y2="174.96" xlink:href="#ay"/><linearGradient id="cp" x1="264.04" y1="183.58" x2="257.98" y2="177.92" gradientTransform="translate(450.71 400) rotate(180)" xlink:href="#a"/><linearGradient id="cq" x1="177.99" y1="184.75" x2="171.92" y2="179.09" gradientTransform="matrix(1, 0, 0, -1, 5.99, 400)" xlink:href="#a"/><linearGradient id="cr" x1="258.88" y1="179.51" x2="266.93" y2="171.99" gradientTransform="translate(450.71 400) rotate(180)" xlink:href="#a"/><linearGradient id="cs" x1="181.86" y1="182.39" x2="188.07" y2="176.59" gradientTransform="matrix(1, 0, 0, -1, -3.53, 400)" xlink:href="#a"/><linearGradient id="ct" x1="270.14" y1="189.69" x2="262.59" y2="182.64" xlink:href="#ax"/><linearGradient id="cu" x1="288.75" y1="210.63" x2="279.53" y2="202.02" xlink:href="#ax"/><linearGradient id="cv" x1="163.07" y1="212.62" x2="153.84" y2="204.01" xlink:href="#ay"/><linearGradient id="cw" x1="283.05" y1="212.64" x2="276.98" y2="206.98" gradientTransform="translate(450.71 400) rotate(180)" xlink:href="#a"/><linearGradient id="cx" x1="158.98" y1="213.83" x2="152.91" y2="208.17" gradientTransform="matrix(1, 0, 0, -1, 5.99, 400)" xlink:href="#a"/><linearGradient id="cy" x1="277.88" y1="208.57" x2="285.94" y2="201.06" gradientTransform="translate(450.71 400) rotate(180)" xlink:href="#a"/><linearGradient id="cz" x1="162.85" y1="211.44" x2="169.06" y2="205.65" gradientTransform="matrix(1, 0, 0, -1, -3.53, 400)" xlink:href="#a"/><linearGradient id="da" x1="289.15" y1="218.76" x2="281.61" y2="211.7" xlink:href="#ax"/><linearGradient id="db" x1="348.07" y1="306.65" x2="338.85" y2="298.05" xlink:href="#ax"/><linearGradient id="dc" x1="103.77" y1="308.65" x2="94.54" y2="300.04" xlink:href="#ay"/><linearGradient id="dd" x1="342.34" y1="308.68" x2="336.28" y2="303.02" gradientTransform="translate(450.71 400) rotate(180)" xlink:href="#a"/><linearGradient id="de" x1="99.67" y1="309.84" x2="93.6" y2="304.18" gradientTransform="matrix(1, 0, 0, -1, 5.99, 400)" xlink:href="#a"/><linearGradient id="df" x1="337.19" y1="304.59" x2="345.25" y2="297.07" gradientTransform="translate(450.71 400) rotate(180)" xlink:href="#a"/><linearGradient id="dg" x1="103.54" y1="307.47" x2="109.74" y2="301.67" gradientTransform="matrix(1, 0, 0, -1, -3.53, 400)" xlink:href="#a"/><linearGradient id="dh" x1="348.46" y1="314.77" x2="340.9" y2="307.72" xlink:href="#ax"/><linearGradient id="di" x1="308.64" y1="182.46" x2="299.42" y2="173.86" gradientTransform="matrix(-0.99, -0.15, 0.15, -0.99, 377.88, 437.51)" xlink:href="#ax"/><linearGradient id="dj" x1="142.43" y1="183.79" x2="133.22" y2="175.19" gradientTransform="matrix(0.99, 0.15, 0.15, -0.99, -62.89, 368.31)" xlink:href="#ay"/><linearGradient id="dk" x1="302.96" y1="184.46" x2="296.89" y2="178.8" gradientTransform="matrix(-0.99, -0.15, 0.15, -0.99, 377.88, 437.51)" xlink:href="#a"/><linearGradient id="dl" x1="138.35" y1="184.98" x2="132.29" y2="179.32" gradientTransform="matrix(0.99, 0.15, 0.15, -0.99, -62.76, 368.33)" xlink:href="#a"/><linearGradient id="dm" x1="299.79" y1="180.53" x2="307.84" y2="173.01" gradientTransform="matrix(-0.99, -0.15, 0.15, -0.99, 377.88, 437.51)" xlink:href="#a"/><linearGradient id="dn" x1="142.25" y1="182.56" x2="148.46" y2="176.76" gradientTransform="matrix(0.99, 0.15, 0.15, -0.99, -72.18, 366.87)" xlink:href="#a"/><linearGradient id="do" x1="309.03" y1="190.59" x2="301.48" y2="183.55" gradientTransform="matrix(-0.99, -0.15, 0.15, -0.99, 377.88, 437.51)" xlink:href="#ax"/><linearGradient id="dp" x1="290.4" y1="173.91" x2="284.75" y2="168.64" xlink:href="#ax"/><linearGradient id="dq" x1="159.21" y1="172.82" x2="153.56" y2="167.55" xlink:href="#ay"/><linearGradient id="dr" x1="288.04" y1="174.13" x2="284.32" y2="170.66" gradientTransform="translate(450.71 400) rotate(180)" xlink:href="#a"/><linearGradient id="ds" x1="156.65" y1="173.55" x2="152.93" y2="170.08" gradientTransform="matrix(1, 0, 0, -1, 5.99, 400)" xlink:href="#a"/><linearGradient id="dt" x1="284.16" y1="172.9" x2="289.1" y2="168.29" gradientTransform="translate(450.71 400) rotate(180)" xlink:href="#a"/><linearGradient id="du" x1="162.71" y1="172.09" x2="166.51" y2="168.54" gradientTransform="matrix(1, 0, 0, -1, -3.53, 400)" xlink:href="#a"/><linearGradient id="dv" x1="290.15" y1="176.57" x2="285.53" y2="172.26" gradientTransform="translate(450.71 400) rotate(180)" gradientUnits="userSpaceOnUse"><stop offset="0.19" stop-color="#27182a"/><stop offset="0.2" stop-color="#2e2031"/><stop offset="0.32" stop-color="#615763"/><stop offset="0.44" stop-color="#8d878f"/><stop offset="0.55" stop-color="#b0aeb2"/><stop offset="0.67" stop-color="#cccdce"/><stop offset="0.78" stop-color="#e0e3e1"/><stop offset="0.88" stop-color="#ecf0ed"/><stop offset="0.98" stop-color="#f0f4f1"/></linearGradient><linearGradient id="dw" x1="325.52" y1="232.8" x2="319.87" y2="227.53" xlink:href="#ax"/><linearGradient id="dx" x1="124.08" y1="231.7" x2="118.43" y2="226.43" xlink:href="#ay"/><linearGradient id="dy" x1="323.17" y1="233.01" x2="319.45" y2="229.54" gradientTransform="translate(450.71 400) rotate(180)" xlink:href="#a"/><linearGradient id="dz" x1="121.52" y1="232.43" x2="117.81" y2="228.97" gradientTransform="matrix(1, 0, 0, -1, 5.99, 400)" xlink:href="#a"/><linearGradient id="ea" x1="319.32" y1="231.81" x2="324.26" y2="227.2" gradientTransform="translate(450.71 400) rotate(180)" xlink:href="#a"/><linearGradient id="eb" x1="127.58" y1="230.97" x2="131.38" y2="227.42" gradientTransform="matrix(1, 0, 0, -1, -3.53, 400)" xlink:href="#a"/><linearGradient id="ec" x1="325.29" y1="235.44" x2="320.67" y2="231.13" xlink:href="#dv"/><linearGradient id="ed" x1="255.67" y1="145.07" x2="245.97" y2="136.03" gradientTransform="translate(407.77 416.74) rotate(-174.23)" xlink:href="#ax"/><linearGradient id="ee" x1="198.43" y1="145.2" x2="188.74" y2="136.16" gradientTransform="matrix(0.99, 0.1, 0.1, -0.99, -36.18, 373.23)" xlink:href="#ay"/><linearGradient id="ef" x1="251.62" y1="145.43" x2="245.24" y2="139.48" gradientTransform="translate(407.77 416.74) rotate(-174.23)" xlink:href="#a"/><linearGradient id="eg" x1="194.11" y1="146.5" x2="187.73" y2="140.55" gradientTransform="matrix(0.99, 0.1, 0.1, -0.99, -36.05, 373.25)" xlink:href="#a"/><linearGradient id="eh" x1="244.47" y1="146.1" x2="252.94" y2="138.19" gradientTransform="translate(407.77 416.74) rotate(-174.23)" xlink:href="#a"/><linearGradient id="ei" x1="197.69" y1="143.97" x2="204.22" y2="137.88" gradientTransform="matrix(0.99, 0.1, 0.1, -0.99, -45.52, 372.27)" xlink:href="#a"/><linearGradient id="ej" x1="255.25" y1="149.64" x2="247.32" y2="142.24" gradientTransform="translate(407.77 416.74) rotate(-174.23)" xlink:href="#dv"/><linearGradient id="ek" x1="296.14" y1="213.53" x2="290.49" y2="208.25" xlink:href="#ax"/><linearGradient id="el" x1="153.44" y1="212.4" x2="147.79" y2="207.13" xlink:href="#ay"/><linearGradient id="em" x1="293.81" y1="213.71" x2="290.09" y2="210.24" gradientTransform="translate(450.71 400) rotate(180)" xlink:href="#a"/><linearGradient id="en" x1="150.89" y1="213.12" x2="147.18" y2="209.65" gradientTransform="matrix(1, 0, 0, -1, 5.99, 400)" xlink:href="#a"/><linearGradient id="eo" x1="289.96" y1="212.51" x2="294.9" y2="207.91" gradientTransform="translate(450.71 400) rotate(180)" xlink:href="#a"/><linearGradient id="ep" x1="156.91" y1="211.65" x2="160.71" y2="208.1" gradientTransform="matrix(1, 0, 0, -1, -3.53, 400)" xlink:href="#a"/><linearGradient id="eq" x1="295.94" y1="216.14" x2="291.32" y2="211.83" xlink:href="#dv"/><linearGradient id="er" x1="160.5" y1="269.11" x2="154.85" y2="263.84" xlink:href="#ax"/><linearGradient id="es" x1="289.11" y1="267.99" x2="283.46" y2="262.72" xlink:href="#ay"/><linearGradient id="et" x1="158.15" y1="269.31" x2="154.43" y2="265.84" gradientTransform="translate(450.71 400) rotate(180)" xlink:href="#a"/><linearGradient id="eu" x1="286.54" y1="268.74" x2="282.82" y2="265.27" gradientTransform="matrix(1, 0, 0, -1, 5.99, 400)" xlink:href="#a"/><linearGradient id="ev" x1="154.3" y1="268.12" x2="159.24" y2="263.51" gradientTransform="translate(450.71 400) rotate(180)" xlink:href="#a"/><linearGradient id="ew" x1="292.59" y1="267.27" x2="296.39" y2="263.72" gradientTransform="matrix(1, 0, 0, -1, -3.53, 400)" xlink:href="#a"/><linearGradient id="ex" x1="160.28" y1="271.76" x2="155.65" y2="267.44" xlink:href="#dv"/><linearGradient id="ey" x1="257.59" y1="242.97" x2="251.94" y2="237.7" xlink:href="#ax"/><linearGradient id="ez" x1="192" y1="241.87" x2="186.35" y2="236.6" xlink:href="#ay"/><linearGradient id="fa" x1="255.24" y1="243.18" x2="251.53" y2="239.71" gradientTransform="translate(450.71 400) rotate(180)" xlink:href="#a"/><linearGradient id="fb" x1="189.45" y1="242.61" x2="185.73" y2="239.14" gradientTransform="matrix(1, 0, 0, -1, 5.99, 400)" xlink:href="#a"/><linearGradient id="fc" x1="251.41" y1="242" x2="256.35" y2="237.39" gradientTransform="translate(450.71 400) rotate(180)" xlink:href="#a"/><linearGradient id="fd" x1="195.5" y1="241.15" x2="199.31" y2="237.6" gradientTransform="matrix(1, 0, 0, -1, -3.53, 400)" xlink:href="#a"/><linearGradient id="fe" x1="257.36" y1="245.62" x2="252.73" y2="241.31" xlink:href="#dv"/><linearGradient id="ff" x1="196.87" y1="363.26" x2="191.22" y2="357.99" xlink:href="#ax"/><linearGradient id="fg" x1="252.73" y1="362.16" x2="247.08" y2="356.89" xlink:href="#ay"/><linearGradient id="fh" x1="194.53" y1="363.46" x2="190.81" y2="359.99" gradientTransform="translate(450.71 400) rotate(180)" xlink:href="#a"/><linearGradient id="fi" x1="250.19" y1="362.88" x2="246.47" y2="359.41" gradientTransform="matrix(1, 0, 0, -1, 5.99, 400)" xlink:href="#a"/><linearGradient id="fj" x1="190.67" y1="362.27" x2="195.61" y2="357.67" gradientTransform="translate(450.71 400) rotate(180)" xlink:href="#a"/><linearGradient id="fk" x1="256.23" y1="361.44" x2="260.03" y2="357.89" gradientTransform="matrix(1, 0, 0, -1, -3.53, 400)" xlink:href="#a"/><linearGradient id="fl" x1="196.64" y1="365.92" x2="192" y2="361.6" xlink:href="#dv"/><linearGradient id="fm" x1="368.58" y1="260.46" x2="362.93" y2="255.2" xlink:href="#ax"/><linearGradient id="fn" x1="81.02" y1="259.37" x2="75.37" y2="254.1" xlink:href="#ay"/><linearGradient id="fo" x1="366.22" y1="260.68" x2="362.5" y2="257.21" gradientTransform="translate(450.71 400) rotate(180)" xlink:href="#a"/><linearGradient id="fp" x1="78.47" y1="260.11" x2="74.75" y2="256.64" gradientTransform="matrix(1, 0, 0, -1, 5.99, 400)" xlink:href="#a"/><linearGradient id="fq" x1="362.37" y1="259.48" x2="367.31" y2="254.88" gradientTransform="translate(450.71 400) rotate(180)" xlink:href="#a"/><linearGradient id="fr" x1="84.52" y1="258.64" x2="88.32" y2="255.09" gradientTransform="matrix(1, 0, 0, -1, -3.53, 400)" xlink:href="#a"/><linearGradient id="fs" x1="368.35" y1="263.11" x2="363.72" y2="258.8" xlink:href="#dv"/></defs><g opacity="0.6"><path d="M144.82,243.3a4.36,4.36,0,0,1-.43,2.79c-.75,1.5-2.14,3.48-1.77,5.68A21.31,21.31,0,0,0,144.7,257s.28.9.9.59.22-1,0-1.4a12.21,12.21,0,0,1-1.6-5.29c0-1.7,1.14-3.07,1.56-4s1.27-3.85,1.27-3.85Z" fill="url(#a)"/><path d="M148.5,241.53a4.36,4.36,0,0,0,.43,2.79c.75,1.5,2.15,3.48,1.77,5.68a20.9,20.9,0,0,1-2.07,5.23s-.28.9-.9.59-.23-1,0-1.4a12.19,12.19,0,0,0,1.65-5.28c0-1.71-1.15-3.08-1.57-4s-1.26-3.85-1.26-3.85Z" opacity="0.5" fill="url(#b)" style="isolation:isolate"/><path d="M140.75,250a1.9,1.9,0,0,1-1.27-.43,1.8,1.8,0,0,1-.56-1.27,1.59,1.59,0,0,1,1.52-1.66h.17a.2.2,0,0,1,0,.4,1.22,1.22,0,0,0-1.29,1.15v.11a1.38,1.38,0,0,0,.42,1,1.67,1.67,0,0,0,1.35.31c1.51-.18,2-4.6,2.11-6.29a.21.21,0,0,1,.21-.19.19.19,0,0,1,.19.19h0c0,.66-.34,6.42-2.46,6.67Z" opacity="0.6" fill="url(#c)" style="isolation:isolate"/><path d="M151,249h-.38c-2.12-.26-2.44-6-2.47-6.67a.2.2,0,0,1,.19-.21h0a.21.21,0,0,1,.21.19c.07,1.69.59,6.11,2.11,6.29a1.69,1.69,0,0,0,1.34-.31,1.38,1.38,0,0,0,.42-1,1.22,1.22,0,0,0-1.18-1.26h-.11a.2.2,0,0,1,0-.4h0a1.59,1.59,0,0,1,1.69,1.49v.17a1.8,1.8,0,0,1-.56,1.27A1.89,1.89,0,0,1,151,249Z" fill="url(#d)"/><path d="M142.56,259.65a.2.2,0,0,1-.2-.17v-.06a6.34,6.34,0,0,1,.87-4.61A6.11,6.11,0,0,1,145,253a4.74,4.74,0,0,0,2.24-3.21c.53-3-2.52-6.33-2.55-6.37a.19.19,0,0,1,0-.27h0a.23.23,0,0,1,.29,0c.13.14,3.21,3.48,2.66,6.71a5.15,5.15,0,0,1-2.4,3.46,5.74,5.74,0,0,0-1.66,1.67,6,6,0,0,0-.83,4.35v.06a.2.2,0,0,1-.17.23h0Z" opacity="0.6" fill="url(#e)" style="isolation:isolate"/><path d="M150.15,254a.22.22,0,0,1-.18-.1,5.66,5.66,0,0,0-1.66-1.68,5.09,5.09,0,0,1-2.39-3.45c-.56-3.24,2.53-6.57,2.66-6.71a.19.19,0,0,1,.27,0h0a.19.19,0,0,1,0,.28s-3.08,3.33-2.56,6.37a4.71,4.71,0,0,0,2.25,3.21,6.25,6.25,0,0,1,1.76,1.79.22.22,0,0,1-.07.28Z" fill="url(#f)"/><path d="M146.87,237.69a5.07,5.07,0,0,0-4.34,2.49c-.74,1.26-1.08,3.19-.32,3.78.29.23.89.16,2.09,0a24.94,24.94,0,0,1,2.57-.4,10.46,10.46,0,0,1,2.42.4c1.22.3,1.45.49,1.77.33.68-.36.76-1.84.48-2.9A5.1,5.1,0,0,0,146.87,237.69Z" fill="url(#g)"/></g><g opacity="0.6"><path d="M197.94,124.8a3,3,0,0,1-.3,2c-.52,1-1.5,2.44-1.24,4a14.66,14.66,0,0,0,1.46,3.66s.19.63.62.41.16-.73,0-1a8.66,8.66,0,0,1-1.15-3.7,6.56,6.56,0,0,1,1.1-2.82c.29-.66.88-2.69.88-2.69Z" fill="url(#h)"/><path d="M200.52,123.56a3,3,0,0,0,.3,2c.52,1,1.5,2.44,1.24,4a14.66,14.66,0,0,1-1.46,3.66s-.19.63-.62.41-.16-.72,0-1a8.66,8.66,0,0,0,1.15-3.7,6.52,6.52,0,0,0-1.1-2.81c-.29-.67-.88-2.69-.88-2.69Z" opacity="0.5" fill="url(#i)" style="isolation:isolate"/><path d="M195.1,129.52a1.33,1.33,0,0,1-.9-.31,1.23,1.23,0,0,1-.38-.88,1.11,1.11,0,0,1,1.06-1.16H195a.14.14,0,1,1,0,.28.84.84,0,0,0-.9.78v.1a.94.94,0,0,0,.29.67,1.13,1.13,0,0,0,.94.22c1.06-.12,1.42-3.22,1.48-4.4a.13.13,0,0,1,.13-.13h0a.14.14,0,0,1,.14.14c0,.46-.24,4.49-1.73,4.67Z" opacity="0.6" fill="url(#j)" style="isolation:isolate"/><path d="M202.29,128.77H202c-1.49-.18-1.71-4.21-1.73-4.67a.14.14,0,0,1,.14-.14.13.13,0,0,1,.14.12h0c0,1.18.42,4.27,1.48,4.4a1.13,1.13,0,0,0,.94-.22.94.94,0,0,0,.29-.67.84.84,0,0,0-.8-.88h-.1a.14.14,0,1,1,0-.28,1.11,1.11,0,0,1,1.18,1v.12a1.18,1.18,0,0,1-.39.88A1.28,1.28,0,0,1,202.29,128.77Z" fill="url(#k)"/><path d="M196.36,136.24a.14.14,0,0,1-.14-.12h0a4.42,4.42,0,0,1,.61-3.23,4.51,4.51,0,0,1,1.24-1.26,3.33,3.33,0,0,0,1.57-2.24c.37-2.13-1.77-4.43-1.79-4.46a.13.13,0,0,1,0-.19.12.12,0,0,1,.16,0c.1.1,2.25,2.43,1.87,4.7a3.6,3.6,0,0,1-1.68,2.42,3.81,3.81,0,0,0-1.16,1.17,4.16,4.16,0,0,0-.58,3h0a.15.15,0,0,1-.12.17Z" opacity="0.6" fill="url(#l)" style="isolation:isolate"/><path d="M201.67,132.28a.12.12,0,0,1-.12-.07,4.08,4.08,0,0,0-1.17-1.17,3.55,3.55,0,0,1-1.67-2.42c-.39-2.26,1.77-4.6,1.86-4.7a.14.14,0,1,1,.2.2s-2.15,2.33-1.79,4.45a3.33,3.33,0,0,0,1.57,2.24,4.25,4.25,0,0,1,1.24,1.26.14.14,0,0,1,0,.19A.11.11,0,0,1,201.67,132.28Z" fill="url(#m)"/><path d="M199.38,120.88a3.51,3.51,0,0,0-3,1.74c-.52.88-.76,2.23-.23,2.65.21.15.63.1,1.47,0a15.34,15.34,0,0,1,1.8-.29,7.48,7.48,0,0,1,1.69.29c.85.2,1,.34,1.23.22.48-.25.54-1.29.34-2A3.56,3.56,0,0,0,199.38,120.88Z" fill="url(#n)"/></g><g opacity="0.6"><path d="M165.88,157.18a4.4,4.4,0,0,1,.22,2.82c-.39,1.63-1.29,3.88-.42,5.94a21.32,21.32,0,0,0,3.22,4.61s.48.81,1,.37,0-1.06-.32-1.36a12.44,12.44,0,0,1-2.82-4.77c-.39-1.66.41-3.26.6-4.28s.35-4,.35-4Z" fill="url(#o)"/><path d="M169.06,154.62a4.36,4.36,0,0,0,1.06,2.62c1.07,1.29,2.89,2.9,3,5.13a21,21,0,0,1-.82,5.56s-.07.94-.74.78-.46-1-.32-1.36a12.18,12.18,0,0,0,.39-5.53c-.39-1.65-1.81-2.73-2.44-3.56s-2.11-3.45-2.11-3.45Z" opacity="0.5" fill="url(#p)" style="isolation:isolate"/><path d="M163.47,164.68a1.89,1.89,0,0,1-1.34-.13,1.75,1.75,0,0,1-.84-1.11,1.61,1.61,0,0,1,1.12-2l.15,0a.2.2,0,0,1,.24.15h0a.2.2,0,0,1-.13.24h0a1.21,1.21,0,0,0-1,1.36l0,.16a1.37,1.37,0,0,0,.64.85,1.64,1.64,0,0,0,1.37,0c1.44-.52.93-4.94.62-6.61a.21.21,0,0,1,.16-.23.2.2,0,0,1,.23.16c.12.64,1.14,6.33-.87,7.06Z" opacity="0.6" fill="url(#q)" style="isolation:isolate"/><path d="M173.23,161.29a2.38,2.38,0,0,1-.37.06c-2.12.25-3.75-5.29-3.93-5.92a.2.2,0,0,1,.14-.25.22.22,0,0,1,.25.14c.46,1.62,2,5.81,3.49,5.64a1.67,1.67,0,0,0,1.24-.61,1.35,1.35,0,0,0,.19-1,1.2,1.2,0,0,0-1.41-1,.58.58,0,0,0-.14,0,.2.2,0,0,1-.24-.15h0a.21.21,0,0,1,.15-.24,1.6,1.6,0,0,1,2,1.11l0,.12a1.81,1.81,0,0,1-.25,1.36A1.87,1.87,0,0,1,173.23,161.29Z" fill="url(#r)"/><path d="M167.42,173.62a.2.2,0,0,1-.23-.12v-.06a6.29,6.29,0,0,1-.21-4.69,6.1,6.1,0,0,1,1.31-2.15,4.7,4.7,0,0,0,1.45-3.64c-.19-3.08-3.91-5.59-4-5.61a.2.2,0,0,1,0-.28h0a.19.19,0,0,1,.25,0l0,0c.16.1,3.93,2.64,4.13,5.92a5.12,5.12,0,0,1-1.54,3.91,5.7,5.7,0,0,0-1.24,2,6,6,0,0,0,.19,4.41v.06a.22.22,0,0,1-.11.27Z" opacity="0.6" fill="url(#s)" style="isolation:isolate"/><path d="M173.51,166.38a.22.22,0,0,1-.19-.06,5.52,5.52,0,0,0-2-1.26,5.08,5.08,0,0,1-3.12-2.81c-1.29-3,1-7,1.05-7.14a.2.2,0,0,1,.28-.05.19.19,0,0,1,.07.24s-2.24,3.95-1,6.79a4.71,4.71,0,0,0,2.91,2.61,6,6,0,0,1,2.13,1.34.21.21,0,0,1,0,.29A.21.21,0,0,1,173.51,166.38Z" fill="url(#t)"/><path d="M166.6,151.26a5,5,0,0,0-3.66,3.42c-.44,1.39-.32,3.34.55,3.75.33.16.91-.05,2-.48a23.07,23.07,0,0,1,2.41-1,10.48,10.48,0,0,1,2.44-.16c1.26,0,1.53.14,1.8-.09.58-.5.32-2-.2-2.93A5.08,5.08,0,0,0,166.6,151.26Z" fill="url(#u)"/></g><g opacity="0.6"><path d="M165.34,205.16a2.27,2.27,0,0,1-.51,1.34,4.84,4.84,0,0,0-1.49,2.65,10.74,10.74,0,0,0,.47,2.82s.05.48.39.39.22-.49.15-.7a5.92,5.92,0,0,1-.26-2.8A4.8,4.8,0,0,1,165.3,207c.31-.43,1-1.78,1-1.78Z" fill="url(#v)"/><path d="M167.36,204.67a2.16,2.16,0,0,0-.08,1.44,4.83,4.83,0,0,1,.27,3,10.52,10.52,0,0,1-1.59,2.38s-.24.42-.51.2,0-.54.15-.7a6.27,6.27,0,0,0,1.38-2.45,4.79,4.79,0,0,0-.34-2.18c-.11-.52-.22-2-.22-2Z" opacity="0.5" fill="url(#w)" style="isolation:isolate"/><path d="M162.59,208.08a.93.93,0,0,1-.59-.35.89.89,0,0,1-.14-.69.81.81,0,0,1,.94-.65h.06a.1.1,0,0,1,.08.12h0a.11.11,0,0,1-.12.08.63.63,0,0,0-.77.43.43.43,0,0,0,0,.05.72.72,0,0,0,.11.53.83.83,0,0,0,.63.3c.78.07,1.51-2.07,1.73-2.91a.1.1,0,0,1,.2.05h0c-.09.33-.86,3.16-2,3.06A.51.51,0,0,1,162.59,208.08Z" opacity="0.6" fill="url(#x)" style="isolation:isolate"/><path d="M167.83,208.66l-.19-.06c-1-.35-.57-3.25-.51-3.58a.1.1,0,0,1,.12-.09.13.13,0,0,1,.08.12c-.15.85-.36,3.11.38,3.36a.85.85,0,0,0,.7,0,.7.7,0,0,0,.31-.44.61.61,0,0,0-.43-.75h-.08a.08.08,0,0,1-.07-.1v0a.1.1,0,0,1,.12-.08h0a.82.82,0,0,1,.68.93s0,.05,0,.07a.88.88,0,0,1-.41.57A1,1,0,0,1,167.83,208.66Z" fill="url(#y)"/><path d="M162.46,213.06a.1.1,0,0,1-.08-.1h0a3.25,3.25,0,0,1,.93-2.2,3.33,3.33,0,0,1,1.07-.71,2.41,2.41,0,0,0,1.46-1.35c.59-1.46-.58-3.43-.59-3.45a.1.1,0,0,1,.18-.1h0c0,.08,1.23,2.07.6,3.63a2.61,2.61,0,0,1-1.56,1.46,3,3,0,0,0-1,.66,3,3,0,0,0-.87,2.07h0a.11.11,0,0,1-.11.1Z" opacity="0.6" fill="url(#z)" style="isolation:isolate"/><path d="M166.85,211.06a.1.1,0,0,1-.08-.07,2.66,2.66,0,0,0-.65-1,2.61,2.61,0,0,1-.82-2c.07-1.67,2-3,2-3.06a.11.11,0,0,1,.15,0,.1.1,0,0,1,0,.14s-1.89,1.33-2,2.9a2.44,2.44,0,0,0,.78,1.83,3.09,3.09,0,0,1,.68,1.09.09.09,0,0,1,0,.12h0Z" fill="url(#aa)"/><path d="M167,202.59a2.58,2.58,0,0,0-2.43.78c-.5.54-.88,1.46-.56,1.84.12.15.43.18,1,.23.82.07.88,0,1.32.07a5.5,5.5,0,0,1,1.16.46c.58.28.67.4.85.35.38-.1.57-.83.55-1.39A2.61,2.61,0,0,0,167,202.59Z" fill="url(#ab)"/></g><g opacity="0.6"><path d="M210.08,273.86a2.26,2.26,0,0,1-.22,1.42,4.86,4.86,0,0,0-.9,2.9,10.56,10.56,0,0,0,1.06,2.66s.14.46.46.3.11-.52,0-.71a6.1,6.1,0,0,1-.84-2.69,4.72,4.72,0,0,1,.79-2.05c.22-.49.65-2,.65-2Z" fill="url(#ac)"/><path d="M212,273a2.19,2.19,0,0,0,.21,1.42,4.78,4.78,0,0,1,.91,2.9,10.56,10.56,0,0,1-1.06,2.66s-.14.46-.46.3-.11-.53,0-.71a6.24,6.24,0,0,0,.84-2.69,4.72,4.72,0,0,0-.8-2c-.21-.49-.64-2-.64-2Z" opacity="0.5" fill="url(#ad)" style="isolation:isolate"/><path d="M208,277.3a1,1,0,0,1-.65-.22.88.88,0,0,1-.28-.65.81.81,0,0,1,.78-.84h.08a.1.1,0,0,1,0,.2.62.62,0,0,0-.66.58v.06a.71.71,0,0,0,.21.5.85.85,0,0,0,.69.15c.77-.09,1-2.34,1.07-3.2a.14.14,0,0,1,.11-.1.09.09,0,0,1,.1.1h0c0,.33-.18,3.27-1.26,3.4Z" opacity="0.6" fill="url(#ae)" style="isolation:isolate"/><path d="M213.25,276.76h-.2c-1.08-.13-1.24-3.07-1.25-3.4a.1.1,0,0,1,.09-.11h0a.1.1,0,0,1,.1.1c0,.86.31,3.11,1.08,3.2a.82.82,0,0,0,.68-.15.68.68,0,0,0,.22-.5.62.62,0,0,0-.6-.64h-.06a.1.1,0,0,1,0-.2.81.81,0,0,1,.86.76v.08a.88.88,0,0,1-.28.65A1,1,0,0,1,213.25,276.76Z" fill="url(#af)"/><path d="M208.93,282.19a.1.1,0,0,1-.1-.08h0a3.16,3.16,0,0,1,.45-2.34,3,3,0,0,1,.9-.92,2.4,2.4,0,0,0,1.14-1.63c.27-1.55-1.29-3.23-1.3-3.25a.1.1,0,0,1,.12-.16l0,0c.07.08,1.64,1.77,1.36,3.42A2.57,2.57,0,0,1,210.3,279a2.9,2.9,0,0,0-.85.86A3.13,3.13,0,0,0,209,282h0a.1.1,0,0,1-.08.12h0Z" opacity="0.6" fill="url(#ag)" style="isolation:isolate"/><path d="M212.79,279.31a.11.11,0,0,1-.09-.05,2.87,2.87,0,0,0-.84-.86,2.57,2.57,0,0,1-1.22-1.76c-.29-1.64,1.29-3.34,1.35-3.41a.11.11,0,0,1,.15,0,.1.1,0,0,1,0,.14h0s-1.57,1.69-1.3,3.24a2.4,2.4,0,0,0,1.14,1.63,3,3,0,0,1,.9.92.1.1,0,0,1,0,.14Z" fill="url(#ah)"/><path d="M211.13,271a2.57,2.57,0,0,0-2.22,1.27c-.38.64-.55,1.62-.16,1.92.15.12.45.08,1.06,0a12,12,0,0,1,1.32-.2,4.64,4.64,0,0,1,1.22.2c.63.15.75.25.91.17.35-.18.38-.94.24-1.48A2.59,2.59,0,0,0,211.13,271Z" fill="url(#ai)"/></g><g opacity="0.6"><path d="M188.54,389.27a2.26,2.26,0,0,1-.22,1.42,4.68,4.68,0,0,0-.9,2.89,10.75,10.75,0,0,0,1.05,2.67s.15.45.46.3.12-.53,0-.72a6.24,6.24,0,0,1-.84-2.69,4.62,4.62,0,0,1,.8-2.05c.21-.49.64-2,.64-2Z" fill="url(#aj)"/><path d="M190.41,388.36a2.28,2.28,0,0,0,.22,1.43,4.81,4.81,0,0,1,.9,2.89,10.56,10.56,0,0,1-1.06,2.66s-.14.46-.45.3-.12-.52,0-.71a6.24,6.24,0,0,0,.84-2.69,4.74,4.74,0,0,0-.8-2.05c-.21-.49-.64-2-.64-2Z" opacity="0.5" fill="url(#ak)" style="isolation:isolate"/><path d="M186.46,392.7a1,1,0,0,1-.65-.22,1,1,0,0,1-.28-.65.81.81,0,0,1,.78-.84h.08a.1.1,0,1,1,0,.2.61.61,0,0,0-.65.57v.07a.71.71,0,0,0,.21.5.82.82,0,0,0,.68.15c.77-.09,1-2.34,1.08-3.2,0-.06,0-.09.11-.1a.09.09,0,0,1,.09.11h0c0,.33-.17,3.27-1.25,3.4Z" opacity="0.6" fill="url(#al)" style="isolation:isolate"/><path d="M191.7,392.16h-.19c-1.08-.13-1.24-3.07-1.26-3.4a.12.12,0,0,1,.1-.11c.06,0,.11,0,.11.1,0,.86.3,3.11,1.07,3.21a.86.86,0,0,0,.69-.16.71.71,0,0,0,.21-.5.62.62,0,0,0-.6-.64h-.06a.09.09,0,0,1-.1-.1h0a.11.11,0,0,1,.1-.1.83.83,0,0,1,.87.77v.07a.87.87,0,0,1-.87.87h-.07Z" fill="url(#am)"/><path d="M187.38,397.59a.1.1,0,0,1-.1-.08h0a3.24,3.24,0,0,1,.44-2.35,3,3,0,0,1,.9-.92,2.4,2.4,0,0,0,1.14-1.63c.27-1.55-1.28-3.23-1.3-3.25a.11.11,0,0,1,0-.14.1.1,0,0,1,.14,0l0,0c.07.07,1.64,1.77,1.36,3.41a2.64,2.64,0,0,1-1.22,1.76,2.9,2.9,0,0,0-.85.86,3,3,0,0,0-.42,2.21h0a.1.1,0,0,1-.08.12h0Z" opacity="0.6" fill="url(#an)" style="isolation:isolate"/><path d="M191.25,394.71a.14.14,0,0,1-.09,0,2.87,2.87,0,0,0-.85-.85,2.64,2.64,0,0,1-1.22-1.76c-.28-1.65,1.29-3.35,1.36-3.42a.1.1,0,0,1,.14,0,.11.11,0,0,1,0,.15s-1.57,1.69-1.31,3.24a2.42,2.42,0,0,0,1.15,1.63,3.29,3.29,0,0,1,.9.92.12.12,0,0,1,0,.14Z" fill="url(#ao)"/><path d="M189.58,386.41a2.55,2.55,0,0,0-2.21,1.27c-.38.64-.55,1.62-.16,1.93.14.11.45.07,1.06,0a9.66,9.66,0,0,1,1.31-.21,5.11,5.11,0,0,1,1.23.21c.62.15.74.24.9.16.35-.18.39-.94.25-1.48A2.61,2.61,0,0,0,189.58,386.41Z" fill="url(#ap)"/></g><g opacity="0.6"><path d="M109.52,287.52a2.22,2.22,0,0,1,0,1.44,4.85,4.85,0,0,0-.37,3,10.77,10.77,0,0,0,1.52,2.43s.23.42.51.21,0-.54-.13-.7a6,6,0,0,1-1.31-2.5,4.74,4.74,0,0,1,.42-2.16c.12-.51.28-2,.28-2Z" fill="url(#aq)"/><path d="M111.21,286.3a2.18,2.18,0,0,0,.47,1.36,4.76,4.76,0,0,1,1.4,2.69,10.78,10.78,0,0,1-.56,2.81s-.06.47-.4.37-.2-.5-.12-.7a6.35,6.35,0,0,0,.34-2.8,5,5,0,0,0-1.15-1.87c-.3-.44-1-1.81-1-1.81Z" opacity="0.5" fill="url(#ar)" style="isolation:isolate"/><path d="M108.1,291.27a.9.9,0,0,1-.68-.1.84.84,0,0,1-.39-.58.81.81,0,0,1,.59-1l.1,0a.1.1,0,0,1,0,.2.62.62,0,0,0-.54.69s0,0,0,.06a.65.65,0,0,0,.3.45.85.85,0,0,0,.7,0c.74-.23.6-2.49.48-3.34,0-.06,0-.1.09-.12a.09.09,0,0,1,.11.07v0c0,.33.42,3.24-.62,3.56Z" opacity="0.6" fill="url(#as)" style="isolation:isolate"/><path d="M113.16,289.8H113c-1.08.07-1.77-2.79-1.84-3.11a.11.11,0,0,1,.08-.13.13.13,0,0,1,.12.08c.19.84.86,3,1.63,3a.85.85,0,0,0,.65-.28.69.69,0,0,0,.12-.52.6.6,0,0,0-.68-.52H113a.1.1,0,0,1-.12-.08h0a.09.09,0,0,1,.07-.11h0a.8.8,0,0,1,1,.57.36.36,0,0,1,0,.1.94.94,0,0,1-.16.69A1,1,0,0,1,113.16,289.8Z" fill="url(#at)"/><path d="M109.88,295.92a.1.1,0,0,1-.11-.06h0a3.16,3.16,0,0,1,0-2.38,3.11,3.11,0,0,1,.72-1.07,2.37,2.37,0,0,0,.84-1.81c0-1.57-1.85-2.94-1.87-3a.1.1,0,1,1,.14-.14c.08.06,1.93,1.45,2,3.12a2.6,2.6,0,0,1-.89,1.95,2.84,2.84,0,0,0-.67,1,3,3,0,0,0,0,2.25h0a.1.1,0,0,1-.06.13h-.1Z" opacity="0.6" fill="url(#au)" style="isolation:isolate"/><path d="M113.17,292.39a.09.09,0,0,1-.1,0,3,3,0,0,0-1-.69,2.58,2.58,0,0,1-1.52-1.51c-.57-1.57.67-3.53.72-3.61a.1.1,0,0,1,.17.11s-1.24,1.95-.7,3.43a2.42,2.42,0,0,0,1.42,1.4,3.18,3.18,0,0,1,1,.74.1.1,0,0,1,0,.14Z" fill="url(#av)"/><path d="M110,284.53a2.57,2.57,0,0,0-2,1.64c-.26.7-.25,1.69.18,1.92.17.09.47,0,1-.19a9.35,9.35,0,0,1,1.26-.43,5.14,5.14,0,0,1,1.24,0c.64,0,.77.11.92,0,.31-.24.21-1,0-1.5A2.6,2.6,0,0,0,110,284.53Z" fill="url(#aw)"/></g><g opacity="0.6"><path d="M149.36,204.71a3,3,0,0,0,.3,1.93c.52,1,1.48,2.41,1.22,3.93a14.71,14.71,0,0,1-1.44,3.62s-.19.62-.62.4-.15-.71,0-1A8.33,8.33,0,0,0,150,210a6.54,6.54,0,0,0-1.08-2.79c-.29-.66-.87-2.66-.87-2.66Z" opacity="0.7" fill="url(#ax)" style="isolation:isolate"/><path d="M146.81,203.48a3,3,0,0,1-.29,1.93c-.52,1-1.49,2.41-1.23,3.94a14.26,14.26,0,0,0,1.44,3.61s.19.62.62.41.15-.72,0-1a8.31,8.31,0,0,1-1.14-3.66,6.5,6.5,0,0,1,1.08-2.78c.29-.66.87-2.66.87-2.66Z" opacity="0.5" fill="url(#ay)" style="isolation:isolate"/><path d="M152.17,209.37a1.23,1.23,0,0,0,.88-.3,1.18,1.18,0,0,0,.39-.88,1.1,1.1,0,0,0-1.06-1.14h-.11a.14.14,0,0,0-.14.14.13.13,0,0,0,.13.13h0a.84.84,0,0,1,.89.79v.08a.9.9,0,0,1-.29.67,1.11,1.11,0,0,1-.93.22c-1-.13-1.41-3.18-1.46-4.35a.13.13,0,0,0-.13-.13h0a.12.12,0,0,0-.13.11v0c0,.45.23,4.44,1.7,4.61Z" opacity="0.5" fill="url(#az)" style="isolation:isolate"/><path d="M145.06,208.64h.26c1.47-.17,1.69-4.16,1.71-4.61a.15.15,0,0,0-.14-.15.15.15,0,0,0-.14.13c-.05,1.17-.41,4.23-1.46,4.36a1.19,1.19,0,0,1-.93-.22.94.94,0,0,1-.29-.67.84.84,0,0,1,.81-.87H145a.14.14,0,1,0,0-.28,1.12,1.12,0,0,0-1.17,1v.1a1.18,1.18,0,0,0,.39.88A1.27,1.27,0,0,0,145.06,208.64Z" opacity="0.8" fill="url(#ba)" style="isolation:isolate"/><path d="M150.92,216a.12.12,0,0,0,.14-.11h0a4.42,4.42,0,0,0-.61-3.19,4.15,4.15,0,0,0-1.22-1.25,3.25,3.25,0,0,1-1.55-2.21c-.36-2.11,1.75-4.39,1.77-4.41a.13.13,0,0,0,0-.19.12.12,0,0,0-.16,0c-.09.1-2.23,2.41-1.84,4.64a3.52,3.52,0,0,0,1.66,2.39,4.07,4.07,0,0,1,1.72,4.16h0a.15.15,0,0,0,.11.16Z" opacity="0.5" fill="url(#bb)" style="isolation:isolate"/><path d="M145.68,212.1a.14.14,0,0,0,.12-.07,4,4,0,0,1,1.15-1.16,3.5,3.5,0,0,0,1.65-2.39c.39-2.23-1.75-4.54-1.84-4.64a.14.14,0,0,0-.2,0,.15.15,0,0,0,0,.16s2.13,2.31,1.77,4.41a3.25,3.25,0,0,1-1.55,2.21,4.28,4.28,0,0,0-1.22,1.25.13.13,0,0,0,.05.19Z" opacity="0.5" fill="url(#bc)" style="isolation:isolate"/><path d="M147.94,200.83a3.49,3.49,0,0,1,3,1.72c.52.87.75,2.2.23,2.62-.2.16-.62.11-1.45,0a17.8,17.8,0,0,0-1.78-.28,6.71,6.71,0,0,0-1.67.28c-.84.2-1,.33-1.22.22-.48-.24-.53-1.27-.34-2A3.54,3.54,0,0,1,147.94,200.83Z" fill="url(#bd)"/></g><g opacity="0.6"><path d="M24.81,226.62a3,3,0,0,0,.3,1.93c.52,1,1.49,2.41,1.23,3.93a14.71,14.71,0,0,1-1.44,3.62s-.19.62-.62.41-.16-.72,0-1a8.62,8.62,0,0,0,1.14-3.66,6.54,6.54,0,0,0-1.08-2.79c-.29-.65-.88-2.65-.88-2.65Z" opacity="0.7" fill="url(#be)" style="isolation:isolate"/><path d="M22.27,225.4a3,3,0,0,1-.3,1.93c-.52,1-1.48,2.41-1.22,3.93a14.45,14.45,0,0,0,1.43,3.62s.2.62.62.4.16-.72,0-1a8.53,8.53,0,0,1-1.14-3.65,6.43,6.43,0,0,1,1.09-2.79c.29-.66.87-2.66.87-2.66Z" opacity="0.5" fill="url(#bf)" style="isolation:isolate"/><path d="M27.63,231.28a1.27,1.27,0,0,0,.88-.3,1.19,1.19,0,0,0,.38-.87A1.09,1.09,0,0,0,27.8,229h-.08a.14.14,0,0,0,0,.28.85.85,0,0,1,.9.78v.09a1,1,0,0,1-.29.67,1.15,1.15,0,0,1-.93.21c-1-.12-1.41-3.18-1.46-4.35a.16.16,0,0,0-.15-.13.15.15,0,0,0-.13.14c0,.46.24,4.44,1.7,4.62Z" opacity="0.5" fill="url(#bg)" style="isolation:isolate"/><path d="M20.51,230.55h.27c1.47-.17,1.68-4.16,1.7-4.61a.12.12,0,0,0-.1-.14h0a.14.14,0,0,0-.15.13h0c-.05,1.17-.41,4.22-1.45,4.35a1.11,1.11,0,0,1-.93-.22.89.89,0,0,1-.3-.67.85.85,0,0,1,.83-.87h.07a.15.15,0,0,0,.14-.13.14.14,0,0,0-.14-.14,1.1,1.1,0,0,0-1.17,1v.11a1.23,1.23,0,0,0,.38.88A1.27,1.27,0,0,0,20.51,230.55Z" opacity="0.8" fill="url(#bh)" style="isolation:isolate"/><path d="M26.38,237.93a.14.14,0,0,0,.14-.12h0a4.31,4.31,0,0,0-.6-3.19,4,4,0,0,0-1.22-1.24,3.24,3.24,0,0,1-1.55-2.22c-.37-2.1,1.74-4.38,1.77-4.41a.13.13,0,0,0,0-.18h0a.13.13,0,0,0-.2,0h0c-.09.09-2.22,2.4-1.84,4.64a3.55,3.55,0,0,0,1.66,2.39,4,4,0,0,1,1.15,1.16,4.11,4.11,0,0,1,.57,3v.05a.15.15,0,0,0,.12.16Z" opacity="0.5" fill="url(#bi)" style="isolation:isolate"/><path d="M21.13,234a.14.14,0,0,0,.12-.07,4,4,0,0,1,1.15-1.16,3.52,3.52,0,0,0,1.66-2.39c.38-2.24-1.75-4.55-1.84-4.65a.15.15,0,0,0-.2,0,.13.13,0,0,0,0,.18h0s2.13,2.31,1.76,4.41a3.24,3.24,0,0,1-1.55,2.22A4.11,4.11,0,0,0,21,233.81a.14.14,0,0,0,0,.19Z" opacity="0.5" fill="url(#bj)" style="isolation:isolate"/><path d="M23.39,222.74a3.53,3.53,0,0,1,3,1.73c.51.87.75,2.2.22,2.61-.2.16-.62.11-1.44,0a18,18,0,0,0-1.79-.28,7.21,7.21,0,0,0-1.66.28c-.85.21-1,.34-1.23.22-.47-.24-.52-1.27-.33-2A3.54,3.54,0,0,1,23.39,222.74Z" fill="url(#bk)"/></g><g opacity="0.6"><path d="M272.57,202.53a3,3,0,0,0,.3,1.93c.52,1,1.48,2.42,1.22,3.94a14.24,14.24,0,0,1-1.43,3.61s-.2.62-.62.41-.16-.72,0-1a8.53,8.53,0,0,0,1.14-3.65A6.51,6.51,0,0,0,272.1,205c-.3-.66-.88-2.66-.88-2.66Z" opacity="0.7" fill="url(#bl)" style="isolation:isolate"/><path d="M270,201.31a3,3,0,0,1-.3,1.93c-.52,1-1.48,2.41-1.22,3.93a14.3,14.3,0,0,0,1.43,3.62s.2.62.62.41.16-.72,0-1a8.62,8.62,0,0,1-1.14-3.66,6.5,6.5,0,0,1,1.08-2.78c.3-.66.88-2.66.88-2.66Z" opacity="0.5" fill="url(#bm)" style="isolation:isolate"/><path d="M275.39,207.2a1.27,1.27,0,0,0,.88-.3,1.23,1.23,0,0,0,.38-.88,1.1,1.1,0,0,0-1.06-1.14h-.11a.13.13,0,0,0-.13.13h0a.13.13,0,0,0,.12.14h0a.85.85,0,0,1,.9.78V206a1,1,0,0,1-.3.67,1.17,1.17,0,0,1-.92.22c-1.05-.13-1.41-3.19-1.46-4.35a.17.17,0,0,0-.15-.14.15.15,0,0,0-.13.15c0,.45.24,4.44,1.7,4.61Z" opacity="0.5" fill="url(#bn)" style="isolation:isolate"/><path d="M268.27,206.46h.27c1.46-.18,1.68-4.16,1.7-4.62a.15.15,0,0,0-.13-.14.16.16,0,0,0-.15.13c0,1.17-.41,4.23-1.46,4.35a1.13,1.13,0,0,1-.92-.21,1,1,0,0,1-.3-.67.84.84,0,0,1,.81-.87h.09a.14.14,0,1,0,0-.28h0a1.1,1.1,0,0,0-1.17,1v.12a1.23,1.23,0,0,0,.38.88A1.33,1.33,0,0,0,268.27,206.46Z" opacity="0.8" fill="url(#bo)" style="isolation:isolate"/><path d="M274.14,213.84a.14.14,0,0,0,.13-.11h0a4.33,4.33,0,0,0-.6-3.18,4.15,4.15,0,0,0-1.22-1.25,3.28,3.28,0,0,1-1.55-2.3c-.36-2.1,1.75-4.38,1.77-4.4a.15.15,0,0,0,0-.2.14.14,0,0,0-.2,0l0,0c-.09.1-2.22,2.4-1.84,4.64a3.52,3.52,0,0,0,1.66,2.39,4,4,0,0,1,1.15,1.16,4.11,4.11,0,0,1,.57,3v.05a.15.15,0,0,0,.11.16Z" opacity="0.5" fill="url(#bp)" style="isolation:isolate"/><path d="M268.89,209.93a.12.12,0,0,0,.12-.07,4,4,0,0,1,1.15-1.16,3.55,3.55,0,0,0,1.66-2.39c.38-2.24-1.75-4.54-1.84-4.64a.14.14,0,0,0-.21.19h0s2.13,2.3,1.77,4.4a3.24,3.24,0,0,1-1.55,2.22,4.24,4.24,0,0,0-1.22,1.24.13.13,0,0,0,.05.19A.08.08,0,0,0,268.89,209.93Z" opacity="0.5" fill="url(#bq)" style="isolation:isolate"/><path d="M271.15,198.66a3.52,3.52,0,0,1,3,1.72c.51.87.74,2.2.22,2.62-.2.15-.62.1-1.45,0a13.45,13.45,0,0,0-1.78-.28,6.27,6.27,0,0,0-1.66.28c-.85.2-1,.33-1.23.22-.47-.25-.52-1.27-.33-2A3.52,3.52,0,0,1,271.15,198.66Z" fill="url(#br)"/></g><g opacity="0.6"><path d="M225.37,165a3,3,0,0,0,.62,1.85c.69.93,1.87,2.12,1.87,3.67a14.22,14.22,0,0,1-.8,3.81s-.09.64-.54.5-.28-.68-.17-1a8.48,8.48,0,0,0,.51-3.8,6.47,6.47,0,0,0-1.54-2.56c-.4-.6-1.31-2.47-1.31-2.47Z" opacity="0.7" fill="url(#bs)" style="isolation:isolate"/><path d="M222.66,164.21a3,3,0,0,1,0,1.95c-.34,1.12-1.06,2.63-.54,4.09a14.38,14.38,0,0,0,2,3.32s.29.58.68.3,0-.74-.17-1A8.39,8.39,0,0,1,223,169.5a6.45,6.45,0,0,1,.6-2.93c.17-.7.41-2.77.41-2.77Z" opacity="0.5" fill="url(#bt)" style="isolation:isolate"/><path d="M228.93,169.11a1.25,1.25,0,0,0,.82-.45,1.15,1.15,0,0,0,.23-.93,1.1,1.1,0,0,0-1.23-.95l-.11,0a.14.14,0,0,0,0,.28h0a.83.83,0,0,1,1,.63s0,0,0,.07a.94.94,0,0,1-.17.71,1.18,1.18,0,0,1-.88.37c-1,0-1.93-2.9-2.18-4a.15.15,0,0,0-.16-.11.15.15,0,0,0-.11.17c.1.44,1,4.33,2.46,4.26Z" opacity="0.5" fill="url(#bu)" style="isolation:isolate"/><path d="M221.8,169.59l.26-.06c1.41-.42.95-4.39.9-4.84a.14.14,0,1,0-.28,0c.15,1.16.31,4.23-.7,4.53a1.13,1.13,0,0,1-.95,0,.91.91,0,0,1-.4-.61.83.83,0,0,1,.64-1h.09a.15.15,0,0,0,.11-.16.13.13,0,0,0-.15-.11h0a1.09,1.09,0,0,0-1,1.15.88.88,0,0,0,0,.17,1.2,1.2,0,0,0,.53.8A1.24,1.24,0,0,0,221.8,169.59Z" opacity="0.8" fill="url(#bv)" style="isolation:isolate"/><path d="M228.83,175.87a.13.13,0,0,0,.11-.14h0a4.32,4.32,0,0,0-1.13-3,4.22,4.22,0,0,0-1.41-1,3.29,3.29,0,0,1-1.91-1.92c-.71-2,1-4.62,1-4.65a.14.14,0,0,0-.2-.2l0,0c-.08.11-1.79,2.75-1,4.89a3.52,3.52,0,0,0,2,2.07,4,4,0,0,1,2.4,3.82h0a.14.14,0,0,0,.14.14Z" opacity="0.5" fill="url(#bw)" style="isolation:isolate"/><path d="M223,172.9a.14.14,0,0,0,.11-.09,4.06,4.06,0,0,1,.94-1.34,3.55,3.55,0,0,0,1.23-2.63c0-2.27-2.5-4.18-2.6-4.27a.14.14,0,1,0-.17.23h0s2.49,1.91,2.49,4a3.26,3.26,0,0,1-1.16,2.45,4.2,4.2,0,0,0-1,1.43.13.13,0,0,0,.07.17h0Z" opacity="0.5" fill="url(#bx)" style="isolation:isolate"/><path d="M223.32,161.41a3.49,3.49,0,0,1,3.25,1.19c.66.77,1.11,2,.66,2.54-.17.19-.59.21-1.42.24a13.67,13.67,0,0,0-1.81,0,6.4,6.4,0,0,0-1.59.56c-.8.34-.94.5-1.17.42-.51-.16-.74-1.16-.67-1.92A3.53,3.53,0,0,1,223.32,161.41Z" fill="url(#by)"/></g><g opacity="0.6"><path d="M124.49,157.4a3.05,3.05,0,0,0,.79,1.79c.78.86,2.07,1.93,2.22,3.47a14.34,14.34,0,0,1-.43,3.86s0,.65-.49.56-.34-.65-.26-.94a8.5,8.5,0,0,0,.14-3.82,6.5,6.5,0,0,0-1.78-2.4c-.46-.56-1.55-2.34-1.55-2.34Z" opacity="0.7" fill="url(#bz)" style="isolation:isolate"/><path d="M121.71,156.89a3,3,0,0,1,.22,1.94c-.23,1.14-.8,2.72-.14,4.12a14.49,14.49,0,0,0,2.34,3.11s.35.55.7.23,0-.73-.25-.94a8.34,8.34,0,0,1-2.07-3.22,6.5,6.5,0,0,1,.31-3c.11-.72.14-2.8.14-2.8Z" opacity="0.5" fill="url(#ca)" style="isolation:isolate"/><path d="M128.43,161.16a1.29,1.29,0,0,0,.77-.52,1.18,1.18,0,0,0,.14-.95,1.09,1.09,0,0,0-1.31-.83l-.12,0a.16.16,0,0,0-.1.17.15.15,0,0,0,.17.1.84.84,0,0,1,1.07.52l0,.08a1,1,0,0,1-.1.73,1.16,1.16,0,0,1-.84.45c-1,.15-2.2-2.7-2.56-3.81a.13.13,0,0,0-.15-.13.14.14,0,0,0-.13.15.14.14,0,0,0,0,.06c.14.43,1.4,4.22,2.86,4Z" opacity="0.5" fill="url(#cb)" style="isolation:isolate"/><path d="M121.37,162.33a1.06,1.06,0,0,0,.25-.09c1.37-.55.53-4.45.43-4.9a.12.12,0,0,0-.15-.1h0a.13.13,0,0,0-.11.16c.26,1.14.72,4.19-.26,4.59a1.1,1.1,0,0,1-1,0,1,1,0,0,1-.46-.56.84.84,0,0,1,.56-1.06l.07,0a.15.15,0,0,0,.1-.17.16.16,0,0,0-.17-.1,1.11,1.11,0,0,0-.86,1.31l0,.11a1.19,1.19,0,0,0,.61.74A1.26,1.26,0,0,0,121.37,162.33Z" opacity="0.8" fill="url(#cc)" style="isolation:isolate"/><path d="M129,167.9a.13.13,0,0,0,.1-.15h0a4.44,4.44,0,0,0-1.43-2.92,4,4,0,0,0-1.5-.88,3.31,3.31,0,0,1-2.09-1.73c-.9-1.93.53-4.69.55-4.71a.15.15,0,0,0-.06-.19.14.14,0,0,0-.19.06h0c-.06.12-1.51,2.9-.55,5a3.56,3.56,0,0,0,2.23,1.87,4.1,4.1,0,0,1,1.42.81,4.15,4.15,0,0,1,1.34,2.75v.05a.15.15,0,0,0,.16.12Z" opacity="0.5" fill="url(#cd)" style="isolation:isolate"/><path d="M122.89,165.51a.12.12,0,0,0,.09-.1,3.71,3.71,0,0,1,.8-1.42,3.54,3.54,0,0,0,1-2.74c-.22-2.27-2.88-3.93-3-4a.14.14,0,0,0-.18.07.14.14,0,0,0,0,.17s2.66,1.66,2.87,3.78a3.31,3.31,0,0,1-.92,2.55,4.38,4.38,0,0,0-.85,1.52.16.16,0,0,0,.1.17Z" opacity="0.5" fill="url(#ce)" style="isolation:isolate"/><path d="M122.09,154a3.52,3.52,0,0,1,3.36.87c.72.7,1.3,1.92.9,2.46-.15.21-.57.27-1.39.38a17.81,17.81,0,0,0-1.79.2,7.17,7.17,0,0,0-1.54.71c-.76.42-.88.59-1.12.54-.53-.11-.85-1.09-.85-1.84A3.51,3.51,0,0,1,122.09,154Z" fill="url(#cf)"/></g><g opacity="0.6"><path d="M4.83,3.5a3.05,3.05,0,0,0,.79,1.78c.78.86,2.07,1.93,2.22,3.47a14.41,14.41,0,0,1-.43,3.87s0,.65-.49.55-.34-.65-.26-.93A8.27,8.27,0,0,0,6.8,8.41,6.48,6.48,0,0,0,5,6c-.45-.56-1.54-2.33-1.54-2.33Z" opacity="0.7" fill="url(#cg)" style="isolation:isolate"/><path d="M2.05,3a3,3,0,0,1,.22,1.94C2.05,6.07,1.48,7.65,2.13,9a14.49,14.49,0,0,0,2.34,3.11s.35.55.71.23,0-.73-.26-.93A8.32,8.32,0,0,1,2.86,8.22a6.5,6.5,0,0,1,.3-3c.11-.71.15-2.8.15-2.8Z" opacity="0.5" fill="url(#ch)" style="isolation:isolate"/><path d="M8.77,7.25a1.29,1.29,0,0,0,.77-.52,1.22,1.22,0,0,0,.14-1A1.09,1.09,0,0,0,8.34,5L8.25,5a.13.13,0,0,0-.13.15.14.14,0,0,0,.15.13l.06,0a.85.85,0,0,1,1.07.52s0,.06,0,.09a.87.87,0,0,1-.11.72A1.14,1.14,0,0,1,8.47,7c-1,.16-2.19-2.7-2.55-3.81a.17.17,0,0,0-.18-.09.14.14,0,0,0-.09.17c.14.44,1.4,4.22,2.86,4Z" opacity="0.5" fill="url(#ci)" style="isolation:isolate"/><path d="M1.72,8.42,2,8.34c1.37-.56.52-4.46.42-4.9a.15.15,0,0,0-.16-.11.16.16,0,0,0-.11.17c.26,1.14.72,4.18-.26,4.58a1.21,1.21,0,0,1-.95,0,1,1,0,0,1-.46-.57.85.85,0,0,1,.57-1.06l.07,0a.13.13,0,0,0,.13-.15.13.13,0,0,0-.14-.13A.14.14,0,0,0,1,6.21,1.08,1.08,0,0,0,.16,7.5l0,.12a1.25,1.25,0,0,0,.6.75A1.3,1.3,0,0,0,1.72,8.42Z" opacity="0.8" fill="url(#cj)" style="isolation:isolate"/><path d="M9.32,14a.13.13,0,0,0,.1-.15h0A4.3,4.3,0,0,0,6.49,10,3.26,3.26,0,0,1,4.41,8.28C3.5,6.34,4.94,3.59,5,3.56a.14.14,0,0,0-.06-.19h0a.14.14,0,0,0-.18,0h0c-.06.12-1.51,2.91-.55,5A3.5,3.5,0,0,0,6.44,10.3a3.93,3.93,0,0,1,1.41.82,4.13,4.13,0,0,1,1.34,2.74h0A.12.12,0,0,0,9.3,14Z" opacity="0.5" fill="url(#ck)" style="isolation:isolate"/><path d="M3.23,11.6a.17.17,0,0,0,.1-.1,4.07,4.07,0,0,1,.8-1.42,3.54,3.54,0,0,0,1-2.74c-.22-2.26-2.89-3.92-3-4a.14.14,0,0,0-.17.1.13.13,0,0,0,0,.14S4.61,5.24,4.82,7.36a3.26,3.26,0,0,1-.91,2.55,4.08,4.08,0,0,0-.85,1.52.14.14,0,0,0,.08.17h.09Z" opacity="0.5" fill="url(#cl)" style="isolation:isolate"/><path d="M2.44.13A3.48,3.48,0,0,1,5.79,1c.73.71,1.3,1.93.9,2.46-.15.21-.56.27-1.39.39a13.43,13.43,0,0,0-1.79.2A6.51,6.51,0,0,0,2,4.76c-.76.42-.88.58-1.12.53C.33,5.18,0,4.2,0,3.45A3.54,3.54,0,0,1,2.44.13Z" fill="url(#cm)"/></g><g opacity="0.6"><path d="M186.53,215.13a5,5,0,0,0,.48,3.15c.85,1.7,2.43,3.94,2,6.42a23.66,23.66,0,0,1-2.34,5.9s-.32,1-1,.67-.25-1.17,0-1.59a13.7,13.7,0,0,0,1.87-6c0-1.92-1.3-3.47-1.77-4.55s-1.43-4.34-1.43-4.34Z" opacity="0.7" fill="url(#cn)" style="isolation:isolate"/><path d="M182.37,213.14a4.82,4.82,0,0,1-.48,3.14c-.85,1.7-2.42,3.94-2,6.42a23.73,23.73,0,0,0,2.34,5.91s.32,1,1,.66.25-1.17,0-1.58a13.68,13.68,0,0,1-1.86-6c0-1.92,1.29-3.47,1.76-4.54s1.43-4.34,1.43-4.34Z" opacity="0.5" fill="url(#co)" style="isolation:isolate"/><path d="M191.12,222.74a2.15,2.15,0,0,0,1.44-.48,2,2,0,0,0,.63-1.44,1.8,1.8,0,0,0-1.73-1.87h-.18a.23.23,0,0,0,0,.46,1.36,1.36,0,0,1,1.46,1.26v.15a1.57,1.57,0,0,1-.48,1.1,1.92,1.92,0,0,1-1.52.35c-1.7-.21-2.3-5.2-2.38-7.1a.24.24,0,0,0-.23-.22.23.23,0,0,0-.22.24h0c0,.74.39,7.24,2.78,7.52Z" opacity="0.5" fill="url(#cp)" style="isolation:isolate"/><path d="M179.51,221.55h.43c2.4-.28,2.75-6.79,2.78-7.53a.22.22,0,0,0-.21-.23h0a.25.25,0,0,0-.24.21c-.08,1.91-.67,6.9-2.38,7.1a1.88,1.88,0,0,1-1.52-.35,1.5,1.5,0,0,1-.47-1.09,1.36,1.36,0,0,1,1.3-1.42h.15a.22.22,0,0,0,.27-.18.23.23,0,0,0-.17-.27h-.1a1.8,1.8,0,0,0-1.91,1.69v.18a2,2,0,0,0,.63,1.43A2.15,2.15,0,0,0,179.51,221.55Z" opacity="0.8" fill="url(#cq)" style="isolation:isolate"/><path d="M189.08,233.59a.24.24,0,0,0,.23-.19v-.07a7.13,7.13,0,0,0-1-5.21,6.81,6.81,0,0,0-2-2,5.31,5.31,0,0,1-2.53-3.61c-.59-3.44,2.85-7.16,2.88-7.19a.22.22,0,0,0,0-.31h0a.21.21,0,0,0-.3,0h0c-.15.16-3.64,3.92-3,7.57a5.68,5.68,0,0,0,2.71,3.9,6.51,6.51,0,0,1,1.87,1.9,6.66,6.66,0,0,1,.93,4.9v.07a.23.23,0,0,0,.18.26Z" opacity="0.5" fill="url(#cr)" style="isolation:isolate"/><path d="M180.52,227.2a.23.23,0,0,0,.2-.11,6.24,6.24,0,0,1,1.87-1.89,5.75,5.75,0,0,0,2.7-3.9c.63-3.66-2.85-7.42-3-7.58a.23.23,0,0,0-.33.31s3.48,3.76,2.89,7.19a5.32,5.32,0,0,1-2.53,3.62,6.81,6.81,0,0,0-2,2,.22.22,0,0,0,.09.3h0A.24.24,0,0,0,180.52,227.2Z" opacity="0.5" fill="url(#cs)" style="isolation:isolate"/><path d="M184.21,208.81a5.68,5.68,0,0,1,4.9,2.81c.85,1.42,1.22,3.59.37,4.27-.33.25-1,.17-2.36,0a25.91,25.91,0,0,0-2.91-.46,11.39,11.39,0,0,0-2.72.46c-1.38.33-1.64.54-2,.36-.77-.4-.86-2.08-.54-3.27A5.73,5.73,0,0,1,184.21,208.81Z" fill="url(#ct)"/></g><g opacity="0.6"><path d="M167.52,186.07a5,5,0,0,0,.49,3.15c.85,1.69,2.42,3.93,2,6.42a24.08,24.08,0,0,1-2.35,5.9s-.31,1-1,.66-.25-1.17,0-1.58a13.82,13.82,0,0,0,1.86-6c0-1.93-1.29-3.47-1.77-4.55s-1.42-4.34-1.42-4.34Z" opacity="0.7" fill="url(#cu)" style="isolation:isolate"/><path d="M163.37,184.07a5,5,0,0,1-.49,3.15c-.84,1.7-2.42,3.94-2,6.42a24.08,24.08,0,0,0,2.35,5.9s.32,1,1,.67.26-1.17,0-1.59a13.82,13.82,0,0,1-1.86-6c0-1.92,1.29-3.47,1.77-4.55s1.42-4.33,1.42-4.33Z" opacity="0.5" fill="url(#cv)" style="isolation:isolate"/><path d="M172.11,193.68a2,2,0,0,0,1.44-.49,2,2,0,0,0,.63-1.43,1.8,1.8,0,0,0-1.73-1.87h-.18a.22.22,0,0,0-.22.22h0a.22.22,0,0,0,.22.22h0a1.37,1.37,0,0,1,1.46,1.28v.14a1.51,1.51,0,0,1-.48,1.09,1.86,1.86,0,0,1-1.51.35c-1.71-.2-2.3-5.19-2.38-7.1a.25.25,0,0,0-.24-.21.22.22,0,0,0-.21.23h0c0,.74.38,7.25,2.77,7.53Z" opacity="0.5" fill="url(#cw)" style="isolation:isolate"/><path d="M160.51,192.48h.43c2.39-.29,2.74-6.79,2.78-7.53a.23.23,0,0,0-.22-.24h0a.22.22,0,0,0-.23.22c-.09,1.9-.68,6.9-2.39,7.1a1.86,1.86,0,0,1-1.51-.35,1.51,1.51,0,0,1-.48-1.09,1.37,1.37,0,0,1,1.32-1.42h.14a.23.23,0,1,0,0-.46,1.8,1.8,0,0,0-1.91,1.68v.2a2,2,0,0,0,.63,1.43A2.09,2.09,0,0,0,160.51,192.48Z" opacity="0.8" fill="url(#cx)" style="isolation:isolate"/><path d="M170.08,204.52a.22.22,0,0,0,.22-.18v-.08a7.1,7.1,0,0,0-1-5.2,6.81,6.81,0,0,0-2-2,5.3,5.3,0,0,1-2.53-3.62c-.59-3.43,2.85-7.15,2.89-7.19a.21.21,0,0,0,0-.31.22.22,0,0,0-.31,0h0c-.15.15-3.63,3.92-3,7.57a5.75,5.75,0,0,0,2.7,3.9,6.36,6.36,0,0,1,1.87,1.89,6.73,6.73,0,0,1,.94,4.91v.07a.22.22,0,0,0,.17.26h0Z" opacity="0.5" fill="url(#cy)" style="isolation:isolate"/><path d="M161.51,198.14a.23.23,0,0,0,.2-.11,6.51,6.51,0,0,1,1.87-1.9,5.76,5.76,0,0,0,2.71-3.9c.63-3.65-2.86-7.41-3-7.57a.21.21,0,0,0-.3,0h0a.22.22,0,0,0,0,.31h0s3.47,3.76,2.88,7.19a5.31,5.31,0,0,1-2.53,3.61,6.81,6.81,0,0,0-2,2,.23.23,0,0,0,.08.31Z" opacity="0.5" fill="url(#cz)" style="isolation:isolate"/><path d="M165.21,179.74a5.71,5.71,0,0,1,4.9,2.82c.84,1.42,1.22,3.59.36,4.26-.32.26-1,.18-2.36,0a23.92,23.92,0,0,0-2.9-.45,12.07,12.07,0,0,0-2.73.45c-1.38.34-1.64.55-2,.37-.78-.4-.86-2.08-.55-3.27A5.78,5.78,0,0,1,165.21,179.74Z" fill="url(#da)"/></g><g opacity="0.6"><path d="M108.21,90.05a5,5,0,0,0,.49,3.15c.84,1.7,2.42,3.94,2,6.42a24.08,24.08,0,0,1-2.35,5.9s-.32,1-1,.67-.26-1.17,0-1.59a13.82,13.82,0,0,0,1.86-6c0-1.92-1.29-3.47-1.77-4.55s-1.44-4.3-1.44-4.3Z" opacity="0.7" fill="url(#db)" style="isolation:isolate"/><path d="M104.06,88.06a5,5,0,0,1-.49,3.15c-.85,1.69-2.42,3.93-2,6.41a24.15,24.15,0,0,0,2.35,5.91s.31,1,1,.66.25-1.17,0-1.58a13.82,13.82,0,0,1-1.86-6c0-1.92,1.29-3.47,1.77-4.54s1.42-4.34,1.42-4.34Z" opacity="0.5" fill="url(#dc)" style="isolation:isolate"/><path d="M112.8,97.66a2.1,2.1,0,0,0,1.44-.48,2,2,0,0,0,.63-1.44,1.8,1.8,0,0,0-1.73-1.87H113a.22.22,0,0,0-.22.22h0a.24.24,0,0,0,.22.23,1.36,1.36,0,0,1,1.46,1.26v.15a1.48,1.48,0,0,1-.48,1.1,1.86,1.86,0,0,1-1.51.35c-1.71-.21-2.3-5.2-2.38-7.1a.27.27,0,0,0-.24-.22.24.24,0,0,0-.22.24c0,.74.39,7.24,2.78,7.53Z" opacity="0.5" fill="url(#dd)" style="isolation:isolate"/><path d="M101.19,96.47a3.09,3.09,0,0,0,.43,0c2.4-.28,2.75-6.79,2.79-7.53a.24.24,0,0,0-.22-.23.25.25,0,0,0-.24.21c-.08,1.91-.67,6.9-2.38,7.1a1.86,1.86,0,0,1-1.51-.35,1.51,1.51,0,0,1-.48-1.09,1.37,1.37,0,0,1,1.29-1.45H101a.22.22,0,0,0,.22-.22h0a.22.22,0,0,0-.22-.22h0a1.79,1.79,0,0,0-1.91,1.66v.21A1.92,1.92,0,0,0,99.76,96,2.06,2.06,0,0,0,101.19,96.47Z" opacity="0.8" fill="url(#de)" style="isolation:isolate"/><path d="M110.77,108.51a.22.22,0,0,0,.22-.19v-.07a7.13,7.13,0,0,0-1-5.21,6.81,6.81,0,0,0-2-2,5.31,5.31,0,0,1-2.53-3.61c-.59-3.44,2.85-7.16,2.89-7.19a.22.22,0,0,0,0-.32.22.22,0,0,0-.31,0h0c-.15.16-3.63,3.92-3,7.57a5.76,5.76,0,0,0,2.71,3.9,6.28,6.28,0,0,1,1.87,1.9,6.71,6.71,0,0,1,.94,4.9v.07a.23.23,0,0,0,.17.26h0Z" opacity="0.5" fill="url(#df)" style="isolation:isolate"/><path d="M102.2,102.12a.23.23,0,0,0,.2-.11,6.48,6.48,0,0,1,1.87-1.89,5.8,5.8,0,0,0,2.71-3.9c.63-3.66-2.86-7.42-3-7.58a.23.23,0,0,0-.33.31s3.48,3.76,2.89,7.19A5.32,5.32,0,0,1,104,99.76a6.81,6.81,0,0,0-2,2,.22.22,0,0,0,.06.29h0A.23.23,0,0,0,102.2,102.12Z" opacity="0.5" fill="url(#dg)" style="isolation:isolate"/><path d="M105.9,83.73a5.68,5.68,0,0,1,4.9,2.81c.84,1.42,1.22,3.59.36,4.27-.32.25-1,.17-2.36,0a26.1,26.1,0,0,0-2.9-.46,11.47,11.47,0,0,0-2.73.46c-1.38.33-1.64.54-2,.36-.77-.4-.85-2.08-.54-3.27A5.75,5.75,0,0,1,105.9,83.73Z" fill="url(#dh)"/></g><g opacity="0.6"><path d="M104.81,207a5,5,0,0,0,0,3.19c.58,1.8,1.79,4.26,1,6.65a23.69,23.69,0,0,1-3.22,5.47s-.47.95-1.11.5-.07-1.19.24-1.56a13.73,13.73,0,0,0,2.76-5.61c.29-1.9-.75-3.63-1-4.77s-.75-4.5-.75-4.5Z" opacity="0.7" fill="url(#di)" style="isolation:isolate"/><path d="M101,204.42a4.92,4.92,0,0,1-1,3c-1.09,1.55-3,3.52-3,6a23.48,23.48,0,0,0,1.41,6.19s.16,1,.9.81.43-1.12.24-1.56a13.73,13.73,0,0,1-.92-6.18c.29-1.9,1.8-3.23,2.44-4.23s2.07-4.06,2.07-4.06Z" opacity="0.5" fill="url(#dj)" style="isolation:isolate"/><path d="M108.18,215.25a2.08,2.08,0,0,0,1.5-.26,2,2,0,0,0,.84-1.31,1.82,1.82,0,0,0-1.45-2.13l-.15,0a.25.25,0,0,0-.26.19.23.23,0,0,0,.17.26h0a1.37,1.37,0,0,1,1.24,1.49.68.68,0,0,1,0,.14,1.51,1.51,0,0,1-.64,1,1.83,1.83,0,0,1-1.55.12c-1.66-.46-1.48-5.49-1.27-7.38a.24.24,0,0,0-.2-.25.22.22,0,0,0-.25.19h0c-.08.73-.72,7.22,1.6,7.86Z" opacity="0.5" fill="url(#dk)" style="isolation:isolate"/><path d="M96.89,212.3h.43c2.41.08,3.75-6.29,3.9-7A.23.23,0,0,0,101,205a.22.22,0,0,0-.26.17c-.38,1.87-1.73,6.72-3.44,6.65a1.88,1.88,0,0,1-1.45-.57,1.55,1.55,0,0,1-.3-1.16A1.39,1.39,0,0,1,97.17,209l.08,0a.22.22,0,0,0,.25-.18.23.23,0,0,0-.17-.26h0a1.8,1.8,0,0,0-2.14,1.38l0,.17a2,2,0,0,0,.4,1.51A2.12,2.12,0,0,0,96.89,212.3Z" opacity="0.8" fill="url(#dl)" style="isolation:isolate"/><path d="M104.51,225.66a.22.22,0,0,0,.24-.15v-.07a7.12,7.12,0,0,0-.18-5.29,6.69,6.69,0,0,0-1.66-2.31,5.35,5.35,0,0,1-2-4c-.06-3.48,3.92-6.63,4-6.66a.22.22,0,0,0,0-.32.23.23,0,0,0-.31,0c-.17.14-4.19,3.33-4.13,7a5.75,5.75,0,0,0,2.08,4.27,6.3,6.3,0,0,1,1.56,2.16,6.7,6.7,0,0,1,.17,5v.07a.23.23,0,0,0,.14.29Z" opacity="0.5" fill="url(#dm)" style="isolation:isolate"/><path d="M97,218a.24.24,0,0,0,.21-.08,6.34,6.34,0,0,1,2.14-1.59,5.7,5.7,0,0,0,3.27-3.44c1.18-3.51-1.68-7.76-1.81-7.94a.22.22,0,1,0-.37.25s2.86,4.25,1.75,7.55a5.34,5.34,0,0,1-3,3.19,6.82,6.82,0,0,0-2.28,1.7.22.22,0,0,0,0,.32Z" opacity="0.5" fill="url(#dn)" style="isolation:isolate"/><path d="M103.49,200.42A5.72,5.72,0,0,1,107.9,204c.61,1.53.65,3.73-.29,4.27-.36.2-1,0-2.34-.36a27.64,27.64,0,0,0-2.8-.9,11.58,11.58,0,0,0-2.76,0c-1.41.12-1.7.28-2,.05-.7-.51-.53-2.19,0-3.31A5.77,5.77,0,0,1,103.49,200.42Z" fill="url(#do)"/></g><g opacity="0.6"><path d="M163.73,224.06A3,3,0,0,0,164,226c.52,1,1.49,2.41,1.23,3.93a14.71,14.71,0,0,1-1.44,3.62s-.19.62-.62.4-.16-.72,0-1a8.53,8.53,0,0,0,1.14-3.65,6.54,6.54,0,0,0-1.08-2.79c-.29-.66-.88-2.66-.88-2.66Z" opacity="0.5" fill="url(#dp)" style="isolation:isolate"/><path d="M161.66,225.16a3,3,0,0,1-.3,1.93c-.52,1-1.48,2.41-1.22,3.93a14.71,14.71,0,0,0,1.44,3.62s.19.62.62.4.15-.71,0-1a8.27,8.27,0,0,1-1.14-3.65,6.54,6.54,0,0,1,1.08-2.79c.29-.66.87-2.65.87-2.65Z" opacity="0.8" fill="url(#dq)" style="isolation:isolate"/><path d="M165.4,229.75a1.32,1.32,0,0,0,.89-.3,1.23,1.23,0,0,0,.38-.88,1.1,1.1,0,0,0-1.06-1.14h-.11a.14.14,0,0,0-.14.14.13.13,0,0,0,.13.13h0a.84.84,0,0,1,.89.79v.08a.9.9,0,0,1-.29.67,1.11,1.11,0,0,1-.93.22c-1-.13-1.41-3.18-1.46-4.35a.13.13,0,0,0-.13-.13h0a.12.12,0,0,0-.13.11v0c0,.45.23,4.44,1.7,4.61Z" opacity="0.5" fill="url(#dr)" style="isolation:isolate"/><path d="M159.91,230.31h.26c1.47-.17,1.68-4.15,1.71-4.61a.14.14,0,0,0-.14-.14.13.13,0,0,0-.14.13c0,1.17-.41,4.23-1.46,4.35a1.14,1.14,0,0,1-.93-.21.94.94,0,0,1-.29-.67.83.83,0,0,1,.79-.87h.1a.14.14,0,1,0,0-.28,1.1,1.1,0,0,0-1.17,1v.12a1.16,1.16,0,0,0,.39.87A1.27,1.27,0,0,0,159.91,230.31Z" opacity="0.5" fill="url(#ds)" style="isolation:isolate"/><path d="M164.83,235.09A.14.14,0,0,0,165,235h0a4.37,4.37,0,0,0-.6-3.19,4.16,4.16,0,0,0-1.23-1.24,3.3,3.3,0,0,1-1.55-2.22c-.36-2.1,1.75-4.38,1.77-4.4a.15.15,0,0,0,0-.2.13.13,0,0,0-.2,0h0c-.09.09-2.22,2.4-1.84,4.64a3.52,3.52,0,0,0,1.66,2.39,4,4,0,0,1,1.72,4.16V235a.15.15,0,0,0,.11.16Z" opacity="0.5" fill="url(#dt)" style="isolation:isolate"/><path d="M160.52,233.78a.17.17,0,0,0,.13-.07,3.94,3.94,0,0,1,1.14-1.16,3.52,3.52,0,0,0,1.66-2.39c.39-2.24-1.75-4.55-1.84-4.64a.13.13,0,0,0-.18,0h0a.13.13,0,0,0,0,.2h0s2.13,2.3,1.77,4.4a3.3,3.3,0,0,1-1.55,2.22,4.16,4.16,0,0,0-1.23,1.24.15.15,0,0,0,.06.19Z" opacity="0.5" fill="url(#du)" style="isolation:isolate"/><path d="M162.79,222.5a3.49,3.49,0,0,1,3,1.73c.52.87.75,2.2.22,2.61-.19.16-.61.11-1.44,0a13.42,13.42,0,0,0-1.78-.27,6.7,6.7,0,0,0-1.67.27c-.85.21-1,.34-1.22.23-.48-.25-.53-1.28-.34-2A3.54,3.54,0,0,1,162.79,222.5Z" fill="url(#dv)"/></g><g opacity="0.6"><path d="M128.6,165.17a3,3,0,0,0,.3,1.93c.52,1,1.48,2.42,1.22,3.94a14.24,14.24,0,0,1-1.43,3.61s-.2.62-.62.41-.16-.72,0-1a8.53,8.53,0,0,0,1.14-3.65,6.54,6.54,0,0,0-1.08-2.79c-.3-.66-.88-2.66-.88-2.66Z" opacity="0.5" fill="url(#dw)" style="isolation:isolate"/><path d="M126.53,166.28a3,3,0,0,1-.3,1.93c-.52,1-1.48,2.41-1.22,3.93a14.71,14.71,0,0,0,1.44,3.62s.19.62.62.4.15-.72,0-1a8.27,8.27,0,0,1-1.14-3.65,6.54,6.54,0,0,1,1.08-2.79c.29-.66.87-2.66.87-2.66Z" opacity="0.8" fill="url(#dx)" style="isolation:isolate"/><path d="M130.27,170.87a1.23,1.23,0,0,0,.88-.3,1.18,1.18,0,0,0,.39-.88,1.1,1.1,0,0,0-1.06-1.14h-.11a.13.13,0,0,0-.14.12h0a.14.14,0,0,0,.14.14.83.83,0,0,1,.89.77v.1a.9.9,0,0,1-.29.67,1.18,1.18,0,0,1-.93.22c-1-.13-1.41-3.19-1.46-4.35a.14.14,0,1,0-.27,0h0c0,.45.23,4.44,1.7,4.61Z" opacity="0.5" fill="url(#dy)" style="isolation:isolate"/><path d="M124.78,171.43H125c1.47-.17,1.68-4.16,1.7-4.61a.12.12,0,0,0-.1-.14h0a.13.13,0,0,0-.14.12h0c0,1.17-.42,4.22-1.46,4.35a1.11,1.11,0,0,1-.93-.22.9.9,0,0,1-.29-.67.84.84,0,0,1,.81-.87h.08a.13.13,0,0,0,.14-.12h0a.14.14,0,0,0-.14-.14,1.1,1.1,0,0,0-1.17,1v.11a1.18,1.18,0,0,0,.39.88A1.27,1.27,0,0,0,124.78,171.43Z" opacity="0.5" fill="url(#dz)" style="isolation:isolate"/><path d="M129.69,176.21a.14.14,0,0,0,.14-.12h0a4.42,4.42,0,0,0-.61-3.19,4,4,0,0,0-1.22-1.24,3.27,3.27,0,0,1-1.55-2.22c-.36-2.1,1.75-4.38,1.77-4.41a.13.13,0,0,0,0-.18h0a.14.14,0,0,0-.19,0c-.09.1-2.23,2.41-1.84,4.65a3.52,3.52,0,0,0,1.66,2.39A3.84,3.84,0,0,1,129,173a4.16,4.16,0,0,1,.58,3v.05A.15.15,0,0,0,129.69,176.21Z" opacity="0.5" fill="url(#ea)" style="isolation:isolate"/><path d="M125.39,174.9a.14.14,0,0,0,.12-.07,4.1,4.1,0,0,1,1.15-1.16,3.52,3.52,0,0,0,1.66-2.39c.38-2.24-1.75-4.55-1.84-4.65a.15.15,0,0,0-.2,0,.14.14,0,0,0,0,.19s2.13,2.31,1.77,4.41a3.28,3.28,0,0,1-1.56,2.22,4.24,4.24,0,0,0-1.22,1.24.15.15,0,0,0,.06.19Z" opacity="0.5" fill="url(#eb)" style="isolation:isolate"/><path d="M127.66,163.62a3.49,3.49,0,0,1,3,1.73c.52.87.75,2.2.22,2.61-.2.16-.61.11-1.44,0a17.8,17.8,0,0,0-1.78-.28A7.27,7.27,0,0,0,126,168c-.85.21-1,.34-1.23.22-.47-.24-.52-1.27-.33-2A3.53,3.53,0,0,1,127.66,163.62Z" fill="url(#ec)"/></g><g opacity="0.6"><path d="M174.29,243.47a5.2,5.2,0,0,0,.16,3.35c.71,1.86,2.11,4.37,1.4,6.92a25.07,25.07,0,0,1-3.08,5.92s-.44,1-1.13.59-.14-1.25.17-1.66a14.42,14.42,0,0,0,2.58-6c.21-2-1-3.77-1.35-5s-1-4.69-1-4.69Z" opacity="0.5" fill="url(#ed)" style="isolation:isolate"/><path d="M170.55,245a5.17,5.17,0,0,1-.84,3.24c-1.07,1.68-3,3.86-2.78,6.5a25.18,25.18,0,0,0,1.82,6.42s.22,1.1,1,.81.39-1.2.17-1.66a14.31,14.31,0,0,1-1.31-6.44c.21-2,1.72-3.49,2.33-4.56s2-4.39,2-4.39Z" opacity="0.8" fill="url(#ee)" style="isolation:isolate"/><path d="M176.14,253.48a2.18,2.18,0,0,0,1.55-.35,2,2,0,0,0,.81-1.43,1.89,1.89,0,0,0-1.59-2.15l-.2,0a.24.24,0,0,0-.26.21.23.23,0,0,0,.21.27,1.42,1.42,0,0,1,1.38,1.47,1,1,0,0,1,0,.17,1.63,1.63,0,0,1-.61,1.09,2,2,0,0,1-1.63.2c-1.76-.39-1.84-5.68-1.72-7.68a.28.28,0,0,0-.23-.25.24.24,0,0,0-.25.22c0,.78-.37,7.62,2.1,8.18Z" opacity="0.5" fill="url(#ef)" style="isolation:isolate"/><path d="M166.66,253.48a3.38,3.38,0,0,0,.45,0c2.53,0,3.6-6.8,3.72-7.57a.24.24,0,0,0-.2-.27c-.14,0-.26.07-.27.2-.3,2-1.45,7.14-3.26,7.17a2,2,0,0,1-1.55-.53,1.61,1.61,0,0,1-.38-1.19,1.46,1.46,0,0,1,1.55-1.35l.13,0a.24.24,0,0,0,.22-.26.22.22,0,0,0-.17-.21,1.9,1.9,0,0,0-2.18,1.55,1.36,1.36,0,0,0,0,.2,2.1,2.1,0,0,0,.5,1.56A2.27,2.27,0,0,0,166.66,253.48Z" opacity="0.5" fill="url(#eg)" style="isolation:isolate"/><path d="M174.21,262.49a.25.25,0,0,0,.26-.17v-.07a7.52,7.52,0,0,0-.47-5.55,7.33,7.33,0,0,0-1.87-2.34,5.61,5.61,0,0,1-2.26-4.05c-.25-3.66,3.75-7.18,3.79-7.21a.25.25,0,0,0,0-.34h0a.24.24,0,0,0-.33,0h0c-.17.15-4.22,3.71-4,7.6a6.08,6.08,0,0,0,2.41,4.37,6.52,6.52,0,0,1,1.76,2.18,7,7,0,0,1,.45,5.23v.07a.24.24,0,0,0,.16.3h0Z" opacity="0.5" fill="url(#eh)" style="isolation:isolate"/><path d="M167.1,259.5a.23.23,0,0,0,.22-.1,7,7,0,0,1,2.16-1.78,6,6,0,0,0,3.25-3.78c1.05-3.76-2.19-8.07-2.33-8.25a.24.24,0,1,0-.43.21.24.24,0,0,0,.06.08s3.23,4.3,2.24,7.83a5.58,5.58,0,0,1-3,3.51,7.23,7.23,0,0,0-2.31,1.91.24.24,0,0,0,.06.33A.2.2,0,0,0,167.1,259.5Z" opacity="0.5" fill="url(#ei)" style="isolation:isolate"/><path d="M172.94,240.66a6,6,0,0,1,4.83,3.47c.72,1.57.88,3.88-.08,4.5-.37.23-1.07.07-2.47-.26a25.92,25.92,0,0,0-3-.78,11.76,11.76,0,0,0-2.9.18c-1.48.2-1.77.39-2.12.16-.77-.5-.68-2.26-.22-3.47A6,6,0,0,1,172.94,240.66Z" fill="url(#ej)"/></g><g opacity="0.6"><path d="M158,184.47a3,3,0,0,0,.3,1.93c.52,1,1.49,2.41,1.23,3.93a14.71,14.71,0,0,1-1.44,3.62s-.2.62-.62.41-.16-.72,0-1a8.62,8.62,0,0,0,1.14-3.66,6.54,6.54,0,0,0-1.08-2.79c-.3-.66-.88-2.65-.88-2.65Z" opacity="0.5" fill="url(#ek)" style="isolation:isolate"/><path d="M155.89,185.57a3,3,0,0,1-.3,1.93c-.52,1-1.48,2.41-1.22,3.93a14.71,14.71,0,0,0,1.44,3.62s.19.62.62.41.15-.72,0-1a8.35,8.35,0,0,1-1.14-3.66,6.5,6.5,0,0,1,1.08-2.78c.29-.66.87-2.66.87-2.66Z" opacity="0.8" fill="url(#el)" style="isolation:isolate"/><path d="M159.63,190.16a1.32,1.32,0,0,0,.89-.3,1.19,1.19,0,0,0,.38-.87,1.1,1.1,0,0,0-1.05-1.15h-.12a.14.14,0,0,0,0,.28.83.83,0,0,1,.89.77v.1a.94.94,0,0,1-.29.67,1.14,1.14,0,0,1-.93.21c-1-.12-1.41-3.18-1.46-4.35,0-.08-.07-.12-.14-.13a.13.13,0,0,0-.13.13h0c0,.46.23,4.44,1.7,4.62Z" opacity="0.5" fill="url(#em)" style="isolation:isolate"/><path d="M154.14,190.72h.26c1.47-.18,1.68-4.16,1.7-4.62a.13.13,0,0,0-.1-.1.15.15,0,0,0-.14.13c-.05,1.17-.42,4.23-1.46,4.35a1.14,1.14,0,0,1-.93-.21.94.94,0,0,1-.29-.67.83.83,0,0,1,.79-.87h.1a.14.14,0,0,0,0-.28,1.1,1.1,0,0,0-1.17,1v.12a1.2,1.2,0,0,0,.39.88A1.3,1.3,0,0,0,154.14,190.72Z" opacity="0.5" fill="url(#en)" style="isolation:isolate"/><path d="M159.06,195.5a.14.14,0,0,0,.13-.11h0a4.42,4.42,0,0,0-.6-3.19,4.27,4.27,0,0,0-1.23-1.24,3.3,3.3,0,0,1-1.55-2.22c-.36-2.1,1.75-4.38,1.77-4.4a.13.13,0,0,0,0-.2h0a.13.13,0,0,0-.18,0h0c-.09.1-2.23,2.4-1.84,4.64a3.52,3.52,0,0,0,1.66,2.39,3.94,3.94,0,0,1,1.14,1.16,4.16,4.16,0,0,1,.58,3v0a.15.15,0,0,0,.11.16Z" opacity="0.5" fill="url(#eo)" style="isolation:isolate"/><path d="M154.75,194.19a.12.12,0,0,0,.12-.07A4.15,4.15,0,0,1,156,193a3.52,3.52,0,0,0,1.66-2.39c.38-2.24-1.75-4.54-1.84-4.64a.13.13,0,0,0-.2,0h0a.15.15,0,0,0,0,.2s2.13,2.3,1.77,4.4a3.28,3.28,0,0,1-1.56,2.22,4.37,4.37,0,0,0-1.22,1.24.14.14,0,0,0,.06.19h0A.07.07,0,0,0,154.75,194.19Z" opacity="0.5" fill="url(#ep)" style="isolation:isolate"/><path d="M157,182.92a3.5,3.5,0,0,1,3,1.72c.52.87.75,2.2.22,2.62-.19.15-.61.1-1.44,0A13.4,13.4,0,0,0,157,187a6.28,6.28,0,0,0-1.67.28c-.85.2-1,.33-1.23.22-.47-.25-.52-1.27-.33-2A3.52,3.52,0,0,1,157,182.92Z" fill="url(#eq)"/></g><g opacity="0.6"><path d="M293.62,128.87a3,3,0,0,0,.3,1.93c.52,1,1.48,2.41,1.22,3.93a14.45,14.45,0,0,1-1.43,3.62s-.2.62-.62.4-.16-.71,0-1a8.53,8.53,0,0,0,1.14-3.65,6.55,6.55,0,0,0-1.09-2.79c-.29-.66-.87-2.66-.87-2.66Z" opacity="0.5" fill="url(#er)" style="isolation:isolate"/><path d="M291.55,130a3,3,0,0,1-.3,1.93c-.52,1-1.48,2.41-1.22,3.93a14.45,14.45,0,0,0,1.43,3.62s.2.62.62.41.16-.72,0-1a8.62,8.62,0,0,1-1.14-3.66,6.43,6.43,0,0,1,1.09-2.79c.29-.66.87-2.65.87-2.65Z" opacity="0.8" fill="url(#es)" style="isolation:isolate"/><path d="M295.29,134.56a1.27,1.27,0,0,0,.88-.3,1.16,1.16,0,0,0,.39-.87,1.1,1.1,0,0,0-1.05-1.15h-.12a.14.14,0,0,0-.14.14h0a.14.14,0,0,0,.14.14h0a.83.83,0,0,1,.89.77v.1a.94.94,0,0,1-.29.67,1.14,1.14,0,0,1-.93.21c-1.05-.12-1.41-3.18-1.46-4.35a.13.13,0,0,0-.13-.13h0a.14.14,0,0,0-.14.14h0c0,.45.24,4.44,1.71,4.61Z" opacity="0.5" fill="url(#et)" style="isolation:isolate"/><path d="M289.79,135.12h.27c1.47-.18,1.68-4.16,1.7-4.62a.13.13,0,0,0-.12-.14h0a.15.15,0,0,0-.15.13c-.05,1.17-.41,4.23-1.45,4.35a1.14,1.14,0,0,1-.93-.21,1,1,0,0,1-.3-.67.84.84,0,0,1,.81-.87h.09a.14.14,0,0,0,0-.28,1.1,1.1,0,0,0-1.17,1V134a1.19,1.19,0,0,0,.38.87A1.28,1.28,0,0,0,289.79,135.12Z" opacity="0.5" fill="url(#eu)" style="isolation:isolate"/><path d="M294.71,139.9a.14.14,0,0,0,.14-.12h0a4.42,4.42,0,0,0-.61-3.19,4,4,0,0,0-1.22-1.24,3.27,3.27,0,0,1-1.55-2.22c-.36-2.1,1.75-4.38,1.77-4.4a.13.13,0,0,0,0-.2h0a.13.13,0,0,0-.18,0h0c-.09.09-2.23,2.4-1.84,4.64a3.5,3.5,0,0,0,1.65,2.39,4,4,0,0,1,1.15,1.16,4.11,4.11,0,0,1,.57,3v.05a.13.13,0,0,0,.1.16h0Z" opacity="0.5" fill="url(#ev)" style="isolation:isolate"/><path d="M290.41,138.59a.14.14,0,0,0,.12-.07,4,4,0,0,1,1.15-1.16,3.52,3.52,0,0,0,1.66-2.39c.38-2.24-1.75-4.55-1.84-4.64a.14.14,0,0,0-.19,0,.14.14,0,0,0,0,.2l0,0s2.13,2.3,1.76,4.4a3.24,3.24,0,0,1-1.55,2.22,4,4,0,0,0-1.22,1.24.14.14,0,0,0,0,.19Z" opacity="0.5" fill="url(#ew)" style="isolation:isolate"/><path d="M292.67,127.32a3.52,3.52,0,0,1,3,1.72c.51.87.75,2.2.22,2.61-.2.16-.62.11-1.44,0a13.57,13.57,0,0,0-1.79-.27,6.69,6.69,0,0,0-1.66.27c-.85.21-1,.34-1.23.23-.47-.25-.52-1.28-.33-2A3.52,3.52,0,0,1,292.67,127.32Z" fill="url(#ex)"/></g><g opacity="0.6"><path d="M196.53,155a3,3,0,0,0,.3,1.93c.52,1,1.48,2.41,1.22,3.93a14.33,14.33,0,0,1-1.44,3.62s-.19.62-.62.41-.15-.72,0-1a8.31,8.31,0,0,0,1.14-3.66,6.5,6.5,0,0,0-1.08-2.78c-.29-.66-.87-2.66-.87-2.66Z" opacity="0.5" fill="url(#ey)" style="isolation:isolate"/><path d="M194.46,156.1a3,3,0,0,1-.3,1.93c-.52,1-1.49,2.42-1.23,3.94a14.26,14.26,0,0,0,1.44,3.61s.19.62.62.41.16-.72,0-1a8.53,8.53,0,0,1-1.14-3.65,6.54,6.54,0,0,1,1.08-2.79c.29-.66.88-2.66.88-2.66Z" opacity="0.8" fill="url(#ez)" style="isolation:isolate"/><path d="M198.2,160.7a1.18,1.18,0,0,0,1.27-1.18,1.1,1.1,0,0,0-1.05-1.15h-.12a.14.14,0,1,0,0,.28.84.84,0,0,1,.89.79v.08a1,1,0,0,1-.29.67,1.15,1.15,0,0,1-.93.21c-1.05-.12-1.41-3.18-1.46-4.35,0-.07-.08-.12-.15-.13a.14.14,0,0,0-.13.15h0c0,.45.24,4.44,1.7,4.61Z" opacity="0.5" fill="url(#fa)" style="isolation:isolate"/><path d="M192.7,161.26H193c1.46-.17,1.68-4.16,1.7-4.61a.14.14,0,1,0-.28,0c0,1.16-.41,4.22-1.46,4.35a1.14,1.14,0,0,1-.93-.22,1,1,0,0,1-.29-.67.84.84,0,0,1,.81-.87h.09a.13.13,0,0,0,.13-.13h0a.13.13,0,0,0-.13-.13h0a1.1,1.1,0,0,0-1.17,1v.11a1.23,1.23,0,0,0,.38.88A1.27,1.27,0,0,0,192.7,161.26Z" opacity="0.5" fill="url(#fb)" style="isolation:isolate"/><path d="M197.62,166a.14.14,0,0,0,.14-.12h0a4.33,4.33,0,0,0-1.82-4.44,3.25,3.25,0,0,1-1.55-2.21c-.36-2.11,1.75-4.39,1.77-4.41a.13.13,0,0,0,0-.18h0a.13.13,0,0,0-.2,0h0c-.09.1-2.22,2.41-1.84,4.64a3.55,3.55,0,0,0,1.66,2.39,4,4,0,0,1,1.15,1.16,4.11,4.11,0,0,1,.57,3h0a.14.14,0,0,0,.12.16h0Z" opacity="0.5" fill="url(#fc)" style="isolation:isolate"/><path d="M193.32,164.72a.14.14,0,0,0,.12-.07,4,4,0,0,1,1.15-1.16,3.55,3.55,0,0,0,1.66-2.39c.38-2.23-1.75-4.54-1.85-4.64a.14.14,0,0,0-.2,0,.15.15,0,0,0,0,.16s2.13,2.31,1.77,4.41a3.25,3.25,0,0,1-1.55,2.21,4.28,4.28,0,0,0-1.22,1.25.15.15,0,0,0,.05.19Z" opacity="0.5" fill="url(#fd)" style="isolation:isolate"/><path d="M195.58,153.45a3.52,3.52,0,0,1,3,1.72c.51.88.74,2.21.22,2.62-.2.16-.62.11-1.45,0a17.8,17.8,0,0,0-1.78-.28,7.2,7.2,0,0,0-1.67.28c-.84.2-1,.33-1.22.22-.47-.24-.53-1.27-.33-2A3.52,3.52,0,0,1,195.58,153.45Z" fill="url(#fe)"/></g><g opacity="0.6"><path d="M257.25,34.71a3,3,0,0,0,.3,1.93c.52,1,1.48,2.41,1.22,3.93a14.3,14.3,0,0,1-1.43,3.62s-.2.62-.62.41-.16-.72,0-1a8.36,8.36,0,0,0,1.14-3.6,6.39,6.39,0,0,0-1.09-2.78c-.29-.66-.87-2.66-.87-2.66Z" opacity="0.5" fill="url(#ff)" style="isolation:isolate"/><path d="M255.18,35.81a3,3,0,0,1-.3,1.93c-.52,1-1.48,2.42-1.22,3.94a14.24,14.24,0,0,0,1.43,3.61s.2.62.62.41.16-.72,0-1a8.53,8.53,0,0,1-1.14-3.65,6.55,6.55,0,0,1,1.09-2.79c.29-.66.87-2.66.87-2.66Z" opacity="0.8" fill="url(#fg)" style="isolation:isolate"/><path d="M258.92,40.4a1.24,1.24,0,0,0,.88-.29,1.2,1.2,0,0,0,.39-.88,1.1,1.1,0,0,0-1-1.15H259a.14.14,0,0,0-.14.14h0a.14.14,0,0,0,.14.14h0a.83.83,0,0,1,.89.77v.1a.94.94,0,0,1-.29.67,1.14,1.14,0,0,1-.93.21c-1.05-.12-1.41-3.18-1.46-4.35a.15.15,0,0,0-.14-.13.15.15,0,0,0-.14.15c0,.45.24,4.44,1.71,4.61Z" opacity="0.5" fill="url(#fh)" style="isolation:isolate"/><path d="M253.43,41h.26c1.47-.17,1.68-4.16,1.7-4.61a.14.14,0,0,0-.13-.15h0a.14.14,0,0,0-.14.14c-.05,1.16-.42,4.22-1.46,4.35a1.18,1.18,0,0,1-.93-.22.9.9,0,0,1-.29-.67.83.83,0,0,1,.79-.87h.1a.14.14,0,0,0,.14-.14.13.13,0,0,0-.13-.13h0a1.1,1.1,0,0,0-1.17,1v.11a1.23,1.23,0,0,0,.38.88A1.3,1.3,0,0,0,253.43,41Z" opacity="0.5" fill="url(#fi)" style="isolation:isolate"/><path d="M258.34,45.74a.12.12,0,0,0,.14-.11h0a4.42,4.42,0,0,0-.61-3.19,4.28,4.28,0,0,0-1.22-1.25A3.25,3.25,0,0,1,255.1,39c-.36-2.11,1.75-4.39,1.77-4.41a.13.13,0,0,0,0-.19.12.12,0,0,0-.16,0c-.09.1-2.23,2.41-1.84,4.64a3.5,3.5,0,0,0,1.65,2.39,4,4,0,0,1,1.15,1.16,4.21,4.21,0,0,1,.58,3h0a.13.13,0,0,0,.1.16h0Z" opacity="0.5" fill="url(#fj)" style="isolation:isolate"/><path d="M254,44.43a.12.12,0,0,0,.12-.07,4.1,4.1,0,0,1,1.15-1.16A3.51,3.51,0,0,0,257,40.81c.38-2.23-1.75-4.54-1.84-4.64a.13.13,0,0,0-.2,0h0a.13.13,0,0,0,0,.18h0s2.13,2.31,1.77,4.41A3.29,3.29,0,0,1,255.14,43a4.4,4.4,0,0,0-1.22,1.25.15.15,0,0,0,.05.19Z" opacity="0.5" fill="url(#fk)" style="isolation:isolate"/><path d="M256.31,33.16a3.5,3.5,0,0,1,3,1.72c.52.87.75,2.21.22,2.62-.2.16-.61.11-1.44,0a17.8,17.8,0,0,0-1.78-.28,6.71,6.71,0,0,0-1.67.28c-.85.2-1,.33-1.23.22-.47-.24-.52-1.27-.33-2A3.52,3.52,0,0,1,256.31,33.16Z" fill="url(#fl)"/></g><g opacity="0.6"><path d="M85.55,137.5a3,3,0,0,0,.3,1.93c.52,1,1.48,2.41,1.22,3.93A14.47,14.47,0,0,1,85.63,147s-.19.62-.62.41-.15-.72,0-1a8.35,8.35,0,0,0,1.14-3.66A6.38,6.38,0,0,0,85.07,140c-.29-.66-.87-2.66-.87-2.66Z" opacity="0.5" fill="url(#fm)" style="isolation:isolate"/><path d="M83.48,138.6a3,3,0,0,1-.3,1.93c-.52,1-1.49,2.41-1.23,3.94a14.26,14.26,0,0,0,1.44,3.61s.2.62.62.41.16-.72,0-1a8.62,8.62,0,0,1-1.14-3.66A6.59,6.59,0,0,1,84,141.08c.29-.66.88-2.66.88-2.66Z" opacity="0.8" fill="url(#fn)" style="isolation:isolate"/><path d="M87.22,143.19a1.33,1.33,0,0,0,.88-.29,1.28,1.28,0,0,0,.39-.88,1.1,1.1,0,0,0-1-1.15h-.12a.14.14,0,1,0,0,.28h0a.84.84,0,0,1,.89.79V142a1,1,0,0,1-.29.67,1.15,1.15,0,0,1-.93.21c-1-.12-1.41-3.18-1.46-4.35,0-.07-.08-.12-.15-.13a.15.15,0,0,0-.13.14c0,.46.24,4.44,1.71,4.62Z" opacity="0.5" fill="url(#fo)" style="isolation:isolate"/><path d="M81.72,143.76H82c1.46-.17,1.68-4.16,1.7-4.61a.15.15,0,0,0-.13-.15.16.16,0,0,0-.15.13c0,1.17-.41,4.23-1.46,4.36a1.19,1.19,0,0,1-.93-.22,1,1,0,0,1-.29-.67.84.84,0,0,1,.81-.87h.09a.13.13,0,0,0,.13-.13h0a.15.15,0,0,0-.13-.14,1.1,1.1,0,0,0-1.17,1v.12a1.23,1.23,0,0,0,.38.88A1.27,1.27,0,0,0,81.72,143.76Z" opacity="0.5" fill="url(#fp)" style="isolation:isolate"/><path d="M86.64,148.53a.12.12,0,0,0,.14-.11h0a4.29,4.29,0,0,0-.6-3.18,4.2,4.2,0,0,0-1.18-1.3,3.25,3.25,0,0,1-1.55-2.21c-.36-2.11,1.75-4.39,1.77-4.41a.13.13,0,0,0,0-.19.12.12,0,0,0-.16,0c-.1.1-2.23,2.4-1.85,4.64a3.55,3.55,0,0,0,1.66,2.39A4,4,0,0,1,86,145.32a4.11,4.11,0,0,1,.57,3h0a.14.14,0,0,0,.12.16h0Z" opacity="0.5" fill="url(#fq)" style="isolation:isolate"/><path d="M82.34,147.22a.12.12,0,0,0,.12-.07A3.94,3.94,0,0,1,83.61,146a3.55,3.55,0,0,0,1.66-2.39c.38-2.24-1.75-4.54-1.84-4.64a.13.13,0,0,0-.2,0h0a.13.13,0,0,0,0,.18h0s2.13,2.3,1.77,4.41a3.25,3.25,0,0,1-1.55,2.21A4.21,4.21,0,0,0,82.22,147a.13.13,0,0,0,0,.18A.1.1,0,0,0,82.34,147.22Z" opacity="0.5" fill="url(#fr)" style="isolation:isolate"/><path d="M84.6,136a3.52,3.52,0,0,1,3,1.72c.51.87.74,2.2.22,2.62-.2.16-.62.1-1.45,0A15,15,0,0,0,84.6,140a7.2,7.2,0,0,0-1.67.28c-.84.2-1,.33-1.22.22-.47-.24-.53-1.27-.33-2A3.51,3.51,0,0,1,84.6,136Z" fill="url(#fs)"/></g></svg>