<svg xmlns="http://www.w3.org/2000/svg" xmlns:xlink="http://www.w3.org/1999/xlink" width="25.49" height="4.07" viewBox="0 0 25.49 4.07"><defs><linearGradient id="a" x1="12.74" y1="1.93" x2="12.74" y2="6" gradientTransform="matrix(1, 0, 0, -1, 0, 6)" gradientUnits="userSpaceOnUse"><stop offset="0" stop-color="#27182a"/><stop offset="0.37" stop-color="#1e3131"/><stop offset="1" stop-color="#0b6640"/></linearGradient></defs><path d="M.11,0,3.36,1.9,0,3.74,5.66,2.35A6.4,6.4,0,0,0,8.08,3.48a25.41,25.41,0,0,0,6.39.59c1.07,0,6.65-.47,6.85-.48a11.76,11.76,0,0,0,4.17-1.24,8.56,8.56,0,0,0-4-1.55C21.32.8,16.17.58,15,.6S8.4.91,8.18,1a10.58,10.58,0,0,0-2.43.89Z" fill="url(#a)"/><polygon points="22.42 0.91 22.42 3.45 22.53 3.42 22.6 0.96 22.42 0.91" fill="#27182a"/><ellipse cx="23.19" cy="1.83" rx="0.16" ry="0.14" fill="#27182a"/></svg>