<svg xmlns="http://www.w3.org/2000/svg" xmlns:xlink="http://www.w3.org/1999/xlink" width="493.48" height="493.48" viewBox="0 0 493.48 493.48"><defs><radialGradient id="a" cx="246.74" cy="249.26" r="246.74" gradientTransform="matrix(1, 0, 0, -1, 0, 496)" gradientUnits="userSpaceOnUse"><stop offset="0" stop-color="#75b0b7" stop-opacity="0.7"/><stop offset="0.22" stop-color="#73aeb7" stop-opacity="0.68"/><stop offset="0.36" stop-color="#70abb7" stop-opacity="0.65"/><stop offset="0.45" stop-color="#6ba7b7" stop-opacity="0.62"/><stop offset="0.59" stop-color="#5e9cb7" stop-opacity="0.51"/><stop offset="0.76" stop-color="#498ab7" stop-opacity="0.33"/><stop offset="0.94" stop-color="#2b71b6" stop-opacity="0.09"/><stop offset="1" stop-color="#2168b6" stop-opacity="0"/></radialGradient></defs><circle cx="246.74" cy="246.74" r="246.74" fill="url(#a)"/><polygon points="281.16 320.1 280.12 322.16 282.54 322.16 281.16 320.1" fill="#0b6640"/><polygon points="285.48 338.54 284.46 341.11 286.64 341.11 285.48 338.54" fill="#75b0b7"/><polygon points="264.54 338.24 263.5 335.58 262.29 338.24 264.54 338.24" fill="#f0f4f1"/><polygon points="273.3 316.23 271.64 318.16 273.3 320.1 273.3 316.23" fill="#f0f4f1"/><polygon points="271.64 348.85 274.93 348.85 273.3 350.78 271.64 348.85" fill="#27182a"/><polygon points="300.35 325.63 301.24 328.78 302.19 325.63 300.35 325.63" fill="#f0f4f1"/><polygon points="298.51 305.07 298.51 307.27 301.27 305.47 298.51 305.07" fill="#75b0b7"/><polygon points="284.46 305.07 285.55 306.17 286.64 305.07 284.46 305.07" fill="#0b6640"/><polygon points="254.15 305.47 254.15 307.27 256.62 306.17 254.15 305.47" fill="#27182a"/><polygon points="251.4 316.23 252.08 318.83 253.24 316.23 251.4 316.23" fill="#0b6640"/><polygon points="270.9 310.93 272.47 308.63 272.47 310.43 270.9 310.93" fill="#0b6640"/><polygon points="297.64 313.77 296.68 315.19 297.16 316.77 297.64 313.77" fill="#27182a"/><polygon points="313.09 321.45 312.18 322.97 314.13 323.5 313.09 321.45" fill="#f0f4f1"/><polygon points="309.2 334.28 308.68 335.58 310.88 336.36 309.2 334.28" fill="#27182a"/><polygon points="301.27 343.05 301.27 345.7 303.11 344.98 301.27 343.05" fill="#0b6640"/><polygon points="260.18 276.16 261.22 274.09 258.79 274.09 260.18 276.16" fill="#0b6640"/><polygon points="255.85 257.72 256.88 255.14 254.69 255.14 255.85 257.72" fill="#75b0b7"/><polygon points="276.8 258.01 277.83 260.68 279.05 258.01 276.8 258.01" fill="#f0f4f1"/><polygon points="268.03 280.03 269.7 278.09 268.03 276.16 268.03 280.03" fill="#f0f4f1"/><polygon points="269.7 247.41 266.41 247.41 268.03 245.47 269.7 247.41" fill="#27182a"/><polygon points="240.99 270.62 240.1 267.47 239.15 270.62 240.99 270.62" fill="#f0f4f1"/><polygon points="242.82 291.19 242.82 288.98 240.07 290.78 242.82 291.19" fill="#75b0b7"/><polygon points="256.88 291.19 255.78 290.08 254.69 291.19 256.88 291.19" fill="#0b6640"/><polygon points="287.18 290.78 287.18 288.98 284.71 290.08 287.18 290.78" fill="#f0f4f1"/><polygon points="289.93 280.03 289.26 277.42 288.1 280.03 289.93 280.03" fill="#0b6640"/><polygon points="270.43 285.32 268.87 287.63 268.87 285.83 270.43 285.32" fill="#27182a"/><polygon points="243.69 282.49 244.66 281.06 244.18 279.48 243.69 282.49" fill="#27182a"/><polygon points="228.24 274.8 229.15 273.28 227.2 272.75 228.24 274.8" fill="#f0f4f1"/><polygon points="232.14 261.98 232.66 260.68 230.45 259.9 232.14 261.98" fill="#27182a"/><polygon points="240.07 253.21 240.07 250.55 238.22 251.27 240.07 253.21" fill="#0b6640"/><polygon points="333.83 290.69 334.87 288.62 332.45 288.62 333.83 290.69" fill="#0b6640"/><polygon points="329.51 272.25 330.53 269.67 328.35 269.67 329.51 272.25" fill="#75b0b7"/><polygon points="350.45 272.55 351.49 275.21 352.7 272.55 350.45 272.55" fill="#f0f4f1"/><polygon points="341.69 294.56 343.36 292.62 341.69 290.69 341.69 294.56" fill="#f0f4f1"/><polygon points="343.36 261.94 340.07 261.94 341.69 260 343.36 261.94" fill="#f0f4f1"/><polygon points="314.65 285.15 313.76 282 312.8 285.15 314.65 285.15" fill="#27182a"/><polygon points="316.48 305.71 316.48 303.51 313.73 305.31 316.48 305.71" fill="#75b0b7"/><polygon points="330.53 305.71 329.44 304.61 328.35 305.71 330.53 305.71" fill="#0b6640"/><polygon points="360.84 305.31 360.84 303.51 358.37 304.61 360.84 305.31" fill="#27182a"/><polygon points="363.59 294.56 362.92 291.95 361.75 294.56 363.59 294.56" fill="#0b6640"/><polygon points="344.09 299.85 342.52 302.16 342.52 300.36 344.09 299.85" fill="#27182a"/><polygon points="317.35 297.02 318.32 295.59 317.83 294.01 317.35 297.02" fill="#27182a"/><polygon points="301.9 289.33 302.81 287.81 300.86 287.28 301.9 289.33" fill="#f0f4f1"/><polygon points="305.79 276.5 306.31 275.21 304.11 274.43 305.79 276.5" fill="#0b6640"/><polygon points="313.73 267.74 313.73 265.08 311.88 265.8 313.73 267.74" fill="#0b6640"/><polygon points="312.67 223.57 311.63 225.64 314.06 225.64 312.67 223.57" fill="#0b6640"/><polygon points="317 242.01 315.97 244.59 318.16 244.59 317 242.01" fill="#75b0b7"/><polygon points="296.05 241.71 295.01 239.05 293.8 241.71 296.05 241.71" fill="#f0f4f1"/><polygon points="304.82 219.7 303.15 221.64 304.82 223.57 304.82 219.7" fill="#f0f4f1"/><polygon points="303.15 252.32 306.44 252.32 304.82 254.26 303.15 252.32" fill="#27182a"/><polygon points="331.86 229.1 332.75 232.26 333.7 229.1 331.86 229.1" fill="#f0f4f1"/><polygon points="330.02 208.54 330.02 210.75 332.78 208.95 330.02 208.54" fill="#75b0b7"/><polygon points="315.97 208.54 317.06 209.65 318.16 208.54 315.97 208.54" fill="#0b6640"/><polygon points="285.67 208.95 285.67 210.75 288.13 209.65 285.67 208.95" fill="#f0f4f1"/><polygon points="282.92 219.7 283.59 222.31 284.75 219.7 282.92 219.7" fill="#0b6640"/><polygon points="302.41 214.41 303.98 212.1 303.98 213.9 302.41 214.41" fill="#27182a"/><polygon points="329.16 217.24 328.19 218.67 328.67 220.25 329.16 217.24" fill="#27182a"/><polygon points="344.61 224.93 343.7 226.44 345.64 226.98 344.61 224.93" fill="#f0f4f1"/><polygon points="340.71 237.75 340.19 239.05 342.4 239.83 340.71 237.75" fill="#27182a"/><polygon points="332.78 246.52 332.78 249.18 334.62 248.46 332.78 246.52" fill="#0b6640"/><polygon points="333.85 336.38 336.43 337.41 336.43 335.22 333.85 336.38" fill="#75b0b7"/><polygon points="313.05 309.67 316.2 308.78 313.05 307.83 313.05 309.67" fill="#f0f4f1"/><polygon points="292.48 311.5 294.69 311.5 292.89 308.75 292.48 311.5" fill="#75b0b7"/><polygon points="292.48 325.56 293.59 324.46 292.48 323.37 292.48 325.56" fill="#0b6640"/><polygon points="301.18 312.37 302.61 313.34 304.19 312.86 301.18 312.37" fill="#27182a"/><polygon points="308.87 296.92 310.38 297.83 310.92 295.88 308.87 296.92" fill="#f0f4f1"/><polygon points="321.69 300.82 322.99 301.34 323.77 299.13 321.69 300.82" fill="#27182a"/><polygon points="338.36 320.6 341.02 320.6 340.3 318.75 338.36 320.6" fill="#0b6640"/><polygon points="278.19 322.83 276.39 322.83 277.5 325.3 278.19 322.83" fill="#f0f4f1"/><polygon points="267.44 320.08 264.84 320.76 267.44 321.92 267.44 320.08" fill="#0b6640"/><polygon points="304.8 196.79 306.37 195.1 304.04 194.43 304.8 196.79" fill="#0b6640"/><polygon points="305.77 177.88 307.48 175.69 305.38 175.09 305.77 177.88" fill="#75b0b7"/><polygon points="325.81 184 326.06 186.84 327.97 184.63 325.81 184" fill="#f0f4f1"/><polygon points="311.26 202.7 313.4 201.31 312.34 198.98 311.26 202.7" fill="#f0f4f1"/><polygon points="321.94 171.83 318.79 170.92 320.88 169.51 321.94 171.83" fill="#27182a"/><polygon points="287.91 186.14 287.93 182.86 286.14 185.62 287.91 186.14" fill="#f0f4f1"/><polygon points="312.09 208.45 309.95 210.23 310.45 208.5 312.09 208.45" fill="#0b6640"/><polygon points="287.2 198.28 288.53 197.18 288.5 195.53 287.2 198.28" fill="#27182a"/><polygon points="274.5 186.6 275.8 185.4 274.07 184.34 274.5 186.6" fill="#f0f4f1"/><polygon points="281.81 175.37 282.67 174.26 280.77 172.9 281.81 175.37" fill="#27182a"/><polygon points="291.87 169.15 292.61 166.6 290.64 166.78 291.87 169.15" fill="#0b6640"/><polygon points="263.01 157.68 260.82 155.98 260.21 158.07 263.01 157.68" fill="#75b0b7"/><polygon points="291.52 201.89 289.4 201.28 290.37 204.43 291.52 201.89" fill="#75b0b7"/><polygon points="295.44 188.4 294.07 189.14 294.83 190.5 295.44 188.4" fill="#0b6640"/><polygon points="283.41 198.64 282.31 197.31 280.66 197.34 283.41 198.64" fill="#27182a"/><polygon points="308.4 194.99 310.13 195.49 309.76 192.81 308.4 194.99" fill="#f0f4f1"/><polygon points="317.96 200.63 320.65 200.7 318.47 198.86 317.96 200.63" fill="#0b6640"/><polygon points="278.1 276.18 276.04 275.14 276.04 277.56 278.1 276.18" fill="#0b6640"/><polygon points="259.66 280.51 257.09 279.48 257.09 281.67 259.66 280.51" fill="#75b0b7"/><polygon points="259.96 259.56 262.62 258.52 259.96 257.31 259.96 259.56" fill="#f0f4f1"/><polygon points="281.97 268.32 280.04 266.66 278.1 268.32 281.97 268.32" fill="#f0f4f1"/><polygon points="249.35 266.66 249.35 269.95 247.42 268.32 249.35 266.66" fill="#f0f4f1"/><polygon points="272.57 295.37 269.42 296.26 272.57 297.21 272.57 295.37" fill="#27182a"/><polygon points="293.13 293.53 290.92 293.53 292.73 296.29 293.13 293.53" fill="#75b0b7"/><polygon points="293.13 279.48 292.03 280.57 293.13 281.67 293.13 279.48" fill="#0b6640"/><polygon points="292.73 249.18 290.92 249.18 292.03 251.64 292.73 249.18" fill="#27182a"/><polygon points="281.97 246.43 279.37 247.1 281.97 248.26 281.97 246.43" fill="#0b6640"/><polygon points="287.27 265.92 289.57 267.49 287.77 267.49 287.27 265.92" fill="#27182a"/><polygon points="284.43 292.67 283 291.7 281.42 292.18 284.43 292.67" fill="#27182a"/><polygon points="276.75 308.12 275.23 307.21 274.7 309.15 276.75 308.12" fill="#f0f4f1"/><polygon points="204.84 274.53 203.8 276.6 206.22 276.6 204.84 274.53" fill="#0b6640"/><polygon points="224.03 280.06 224.92 283.21 225.87 280.06 224.03 280.06" fill="#f0f4f1"/><polygon points="222.19 259.5 222.19 261.71 224.95 259.91 222.19 259.5" fill="#75b0b7"/><polygon points="208.14 259.5 209.23 260.61 210.32 259.5 208.14 259.5" fill="#0b6640"/><polygon points="221.33 268.2 220.36 269.63 220.84 271.21 221.33 268.2" fill="#27182a"/><polygon points="236.77 275.89 235.87 277.4 237.81 277.94 236.77 275.89" fill="#f0f4f1"/><polygon points="188.63 195.33 189.66 197.99 190.88 195.33 188.63 195.33" fill="#f0f4f1"/><polygon points="210.86 245.21 210.86 243.41 208.4 244.51 210.86 245.21" fill="#f0f4f1"/><polygon points="213.61 234.46 212.94 231.86 211.78 234.46 213.61 234.46" fill="#0b6640"/><polygon points="257.52 245.12 258.56 243.06 256.13 243.06 257.52 245.12" fill="#0b6640"/><polygon points="253.19 226.68 254.21 224.11 252.03 224.11 253.19 226.68" fill="#75b0b7"/><polygon points="274.13 226.98 275.17 229.64 276.38 226.98 274.13 226.98" fill="#f0f4f1"/><polygon points="265.37 248.99 267.04 247.06 265.37 245.12 265.37 248.99" fill="#f0f4f1"/><polygon points="267.04 216.37 263.75 216.37 265.37 214.44 267.04 216.37" fill="#f0f4f1"/><polygon points="238.33 239.59 237.44 236.44 236.49 239.59 238.33 239.59" fill="#27182a"/><polygon points="240.16 260.15 240.16 257.94 237.41 259.74 240.16 260.15" fill="#75b0b7"/><polygon points="254.21 260.15 253.12 259.05 252.03 260.15 254.21 260.15" fill="#0b6640"/><polygon points="284.52 259.74 284.52 257.94 282.05 259.05 284.52 259.74" fill="#27182a"/><polygon points="287.27 248.99 286.6 246.39 285.44 248.99 287.27 248.99" fill="#0b6640"/><polygon points="267.77 254.29 266.2 256.59 266.2 254.79 267.77 254.29" fill="#27182a"/><polygon points="241.03 251.45 242 250.02 241.51 248.44 241.03 251.45" fill="#27182a"/><polygon points="225.58 243.76 226.49 242.25 224.54 241.71 225.58 243.76" fill="#f0f4f1"/><polygon points="229.47 230.94 230 229.64 227.79 228.86 229.47 230.94" fill="#0b6640"/><polygon points="237.41 222.17 237.41 219.51 235.56 220.24 237.41 222.17" fill="#0b6640"/><polygon points="240.68 174.06 239.66 176.63 241.84 176.63 240.68 174.06" fill="#75b0b7"/><polygon points="226.83 200.17 230.12 200.17 228.5 202.11 226.83 200.17" fill="#27182a"/><polygon points="256.46 178.57 256.46 181.23 258.31 180.5 256.46 178.57" fill="#0b6640"/><polygon points="249.63 278.96 252.21 279.99 252.21 277.81 249.63 278.96" fill="#75b0b7"/><polygon points="236.73 264.1 239.88 263.21 236.73 262.26 236.73 264.1" fill="#f0f4f1"/><polygon points="216.17 265.94 218.37 265.94 216.57 263.18 216.17 265.94" fill="#75b0b7"/><polygon points="216.17 279.99 217.27 278.9 216.17 277.81 216.17 279.99" fill="#0b6640"/><polygon points="224.86 266.81 226.29 267.77 227.87 267.29 224.86 266.81" fill="#27182a"/><polygon points="232.55 251.36 234.07 252.26 234.6 250.32 232.55 251.36" fill="#f0f4f1"/><polygon points="245.38 255.25 246.68 255.77 247.45 253.56 245.38 255.25" fill="#27182a"/><polygon points="254.14 263.18 256.8 263.18 256.08 261.34 254.14 263.18" fill="#0b6640"/><polygon points="201.88 277.27 200.08 277.27 201.18 279.73 201.88 277.27" fill="#f0f4f1"/><polygon points="201.78 230.61 199.72 229.57 199.72 232 201.78 230.61" fill="#0b6640"/><polygon points="205.66 222.76 203.72 221.09 201.78 222.76 205.66 222.76" fill="#f0f4f1"/><polygon points="216.81 247.97 214.61 247.97 216.41 250.72 216.81 247.97" fill="#75b0b7"/><polygon points="216.81 233.92 215.71 235.01 216.81 236.1 216.81 233.92" fill="#0b6640"/><polygon points="213.77 202.29 211.97 202.29 213.07 204.76 213.77 202.29" fill="#27182a"/><polygon points="193.8 183.74 191.2 184.41 193.8 185.58 193.8 183.74" fill="#0b6640"/><polygon points="210.95 220.36 213.25 221.93 211.46 221.93 210.95 220.36" fill="#27182a"/><polygon points="208.12 247.1 206.69 246.13 205.11 246.62 208.12 247.1" fill="#27182a"/><polygon points="200.43 262.55 198.91 261.64 198.38 263.59 200.43 262.55" fill="#f0f4f1"/><polygon points="263.92 304.22 262.62 303.7 261.84 305.91 263.92 304.22" fill="#0b6640"/><polygon points="255.15 296.29 252.5 296.29 253.22 298.13 255.15 296.29" fill="#0b6640"/><polygon points="210.99 297.34 213.05 298.38 213.05 295.96 210.99 297.34" fill="#0b6640"/><polygon points="229.43 293.02 232 294.04 232 291.86 229.43 293.02" fill="#75b0b7"/><polygon points="229.13 313.96 226.47 315 229.13 316.21 229.13 313.96" fill="#f0f4f1"/><polygon points="207.12 305.2 209.05 306.86 210.99 305.2 207.12 305.2" fill="#f0f4f1"/><polygon points="239.74 306.86 239.74 303.58 241.67 305.2 239.74 306.86" fill="#27182a"/><polygon points="216.52 278.16 219.67 277.26 216.52 276.31 216.52 278.16" fill="#f0f4f1"/><polygon points="195.96 279.99 198.17 279.99 196.37 277.23 195.96 279.99" fill="#75b0b7"/><polygon points="195.96 294.04 197.06 292.95 195.96 291.86 195.96 294.04" fill="#0b6640"/><polygon points="196.37 324.35 198.17 324.35 197.06 321.88 196.37 324.35" fill="#f0f4f1"/><polygon points="201.82 307.6 199.52 306.03 201.32 306.03 201.82 307.6" fill="#27182a"/><polygon points="204.66 280.86 206.09 281.82 207.67 281.34 204.66 280.86" fill="#27182a"/><polygon points="212.35 265.41 213.86 266.32 214.4 264.37 212.35 265.41" fill="#f0f4f1"/><polygon points="225.17 269.3 226.47 269.82 227.25 267.62 225.17 269.3" fill="#27182a"/><polygon points="233.94 277.23 236.59 277.23 235.87 275.39 233.94 277.23" fill="#0b6640"/><polygon points="302.89 273.6 301.85 275.66 304.27 275.66 302.89 273.6" fill="#0b6640"/><polygon points="307.22 292.04 306.19 294.61 308.38 294.61 307.22 292.04" fill="#75b0b7"/><polygon points="286.27 291.74 285.23 289.08 284.02 291.74 286.27 291.74" fill="#f0f4f1"/><polygon points="295.03 269.73 293.37 271.66 295.03 273.6 295.03 269.73" fill="#f0f4f1"/><polygon points="293.37 302.35 296.66 302.35 295.03 304.28 293.37 302.35" fill="#27182a"/><polygon points="322.08 279.13 322.97 282.28 323.92 279.13 322.08 279.13" fill="#f0f4f1"/><polygon points="320.24 258.57 320.24 260.78 323 258.98 320.24 258.57" fill="#75b0b7"/><polygon points="306.19 258.57 307.28 259.67 308.38 258.57 306.19 258.57" fill="#0b6640"/><polygon points="275.89 258.98 275.89 260.78 278.35 259.67 275.89 258.98" fill="#27182a"/><polygon points="273.13 269.73 273.81 272.33 274.97 269.73 273.13 269.73" fill="#0b6640"/><polygon points="292.63 264.43 294.2 262.13 294.2 263.93 292.63 264.43" fill="#0b6640"/><polygon points="319.38 267.27 318.41 268.7 318.89 270.28 319.38 267.27" fill="#27182a"/><polygon points="334.82 274.96 333.92 276.47 335.86 277 334.82 274.96" fill="#f0f4f1"/><polygon points="330.93 287.78 330.41 289.08 332.62 289.86 330.93 287.78" fill="#27182a"/><polygon points="323 296.55 323 299.2 324.84 298.48 323 296.55" fill="#0b6640"/><polygon points="281.91 229.66 282.95 227.59 280.52 227.59 281.91 229.66" fill="#0b6640"/><polygon points="289.76 233.53 291.43 231.59 289.76 229.66 289.76 233.53" fill="#f0f4f1"/><polygon points="262.72 224.13 261.83 220.97 260.88 224.13 262.72 224.13" fill="#f0f4f1"/><polygon points="264.56 244.69 264.56 242.48 261.8 244.28 264.56 244.69" fill="#75b0b7"/><polygon points="278.61 244.69 277.51 243.58 276.42 244.69 278.61 244.69" fill="#0b6640"/><polygon points="308.91 244.28 308.91 242.48 306.45 243.58 308.91 244.28" fill="#f0f4f1"/><polygon points="311.66 233.53 310.99 230.93 309.83 233.53 311.66 233.53" fill="#0b6640"/><polygon points="292.17 238.82 290.6 241.13 290.6 239.33 292.17 238.82" fill="#27182a"/><polygon points="265.42 235.99 266.39 234.56 265.91 232.98 265.42 235.99" fill="#27182a"/><polygon points="249.97 228.3 250.88 226.79 248.94 226.25 249.97 228.3" fill="#f0f4f1"/><polygon points="253.87 215.48 254.39 214.18 252.18 213.4 253.87 215.48" fill="#27182a"/><polygon points="372.69 244.19 373.73 242.12 371.3 242.12 372.69 244.19" fill="#0b6640"/><polygon points="351.24 225.75 352.26 223.18 350.08 223.18 351.24 225.75" fill="#75b0b7"/><polygon points="336.38 238.66 335.49 235.5 334.54 238.66 336.38 238.66" fill="#27182a"/><polygon points="338.21 259.22 338.21 257.01 335.46 258.81 338.21 259.22" fill="#75b0b7"/><polygon points="369.38 259.22 368.29 258.11 367.2 259.22 369.38 259.22" fill="#0b6640"/><polygon points="339.08 250.52 340.05 249.09 339.56 247.51 339.08 250.52" fill="#27182a"/><polygon points="323.63 242.83 324.54 241.32 322.59 240.78 323.63 242.83" fill="#f0f4f1"/><polygon points="327.53 230.01 328.05 228.71 325.84 227.93 327.53 230.01" fill="#0b6640"/><polygon points="335.46 221.24 335.46 218.58 333.61 219.3 335.46 221.24" fill="#0b6640"/><polygon points="347.69 278.03 350.26 279.06 350.26 276.87 347.69 278.03" fill="#75b0b7"/><polygon points="334.78 263.17 337.93 262.28 334.78 261.33 334.78 263.17" fill="#f0f4f1"/><polygon points="314.22 265.01 316.42 265.01 314.62 262.25 314.22 265.01" fill="#75b0b7"/><polygon points="314.22 279.06 315.32 277.97 314.22 276.87 314.22 279.06" fill="#0b6640"/><polygon points="322.91 265.87 324.34 266.84 325.92 266.36 322.91 265.87" fill="#27182a"/><polygon points="330.6 250.43 332.12 251.33 332.65 249.39 330.6 250.43" fill="#f0f4f1"/><polygon points="343.43 254.32 344.73 254.84 345.5 252.63 343.43 254.32" fill="#27182a"/><polygon points="352.19 262.25 354.85 262.25 354.13 260.41 352.19 262.25" fill="#0b6640"/><polygon points="170.26 246.54 169.23 243.88 168.01 246.54 170.26 246.54" fill="#f0f4f1"/><polygon points="185.61 224.52 183.94 226.46 185.61 228.4 185.61 224.52" fill="#f0f4f1"/><polygon points="183.94 257.14 187.23 257.14 185.61 259.08 183.94 257.14" fill="#f0f4f1"/><polygon points="159.88 213.77 159.88 215.57 162.34 214.47 159.88 213.77" fill="#27182a"/><polygon points="157.13 224.52 157.8 227.13 158.96 224.52 157.13 224.52" fill="#0b6640"/><polygon points="183.21 219.23 184.78 216.92 184.78 218.72 183.21 219.23" fill="#27182a"/><polygon points="182.69 294.15 183.6 292.64 181.66 292.1 182.69 294.15" fill="#f0f4f1"/><polygon points="165.15 274.89 164.11 276.96 166.53 276.96 165.15 274.89" fill="#0b6640"/><polygon points="169.48 293.33 168.45 295.9 170.64 295.9 169.48 293.33" fill="#75b0b7"/><polygon points="168.45 259.86 169.54 260.97 170.64 259.86 168.45 259.86" fill="#0b6640"/><polygon points="179.62 241.05 177.04 240.02 177.04 242.21 179.62 241.05" fill="#75b0b7"/><polygon points="183.87 264.76 182.57 264.24 181.8 266.45 183.87 264.76" fill="#27182a"/><polygon points="168.52 256.83 165.87 256.83 166.59 258.67 168.52 256.83" fill="#0b6640"/><polygon points="299.93 276.34 298.13 276.34 299.23 278.8 299.93 276.34" fill="#f0f4f1"/><polygon points="289.18 273.58 286.57 274.26 289.18 275.42 289.18 273.58" fill="#0b6640"/><polygon points="299.83 229.68 297.77 228.64 297.77 231.07 299.83 229.68" fill="#0b6640"/><polygon points="281.39 234.01 278.82 232.99 278.82 235.17 281.39 234.01" fill="#75b0b7"/><polygon points="303.71 221.83 301.77 220.16 299.83 221.83 303.71 221.83" fill="#f0f4f1"/><polygon points="271.09 220.16 271.09 223.45 269.15 221.83 271.09 220.16" fill="#f0f4f1"/><polygon points="294.3 248.87 291.15 249.76 294.3 250.71 294.3 248.87" fill="#27182a"/><polygon points="314.86 247.04 312.66 247.04 314.46 249.79 314.86 247.04" fill="#75b0b7"/><polygon points="314.86 232.99 313.76 234.08 314.86 235.17 314.86 232.99" fill="#0b6640"/><polygon points="309 219.43 311.31 221 309.5 221 309 219.43" fill="#27182a"/><polygon points="306.17 246.17 304.74 245.2 303.16 245.69 306.17 246.17" fill="#27182a"/><polygon points="298.48 261.62 296.96 260.71 296.43 262.66 298.48 261.62" fill="#f0f4f1"/><polygon points="245.76 233.57 246.65 236.72 247.6 233.57 245.76 233.57" fill="#f0f4f1"/><polygon points="258.51 229.39 257.6 230.91 259.55 231.44 258.51 229.39" fill="#f0f4f1"/><polygon points="271.37 232.47 273.94 233.49 273.94 231.31 271.37 232.47" fill="#75b0b7"/><polygon points="258.46 217.61 261.61 216.72 258.46 215.76 258.46 217.61" fill="#f0f4f1"/><polygon points="246.6 220.31 248.02 221.28 249.6 220.79 246.6 220.31" fill="#27182a"/><polygon points="275.88 216.69 278.53 216.69 277.81 214.84 275.88 216.69" fill="#0b6640"/><polygon points="285.65 257.72 284.35 257.2 283.58 259.41 285.65 257.72" fill="#0b6640"/><polygon points="276.89 249.79 274.23 249.79 274.95 251.64 276.89 249.79" fill="#0b6640"/><polygon points="251.16 246.52 253.73 247.54 253.73 245.36 251.16 246.52" fill="#75b0b7"/><polygon points="250.86 267.46 248.2 268.5 250.86 269.71 250.86 267.46" fill="#f0f4f1"/><polygon points="261.47 260.37 261.47 257.08 263.4 258.7 261.47 260.37" fill="#27182a"/><polygon points="246.9 222.81 248.2 223.32 248.98 221.12 246.9 222.81" fill="#27182a"/><polygon points="255.67 230.74 258.33 230.74 257.61 228.89 255.67 230.74" fill="#0b6640"/><polygon points="239.01 202.46 237.97 204.52 240.4 204.52 239.01 202.46" fill="#0b6640"/><polygon points="243.34 227.48 242.32 230.06 244.5 230.06 243.34 227.48" fill="#75b0b7"/><polygon points="222.4 227.18 221.36 224.52 220.15 227.18 222.4 227.18" fill="#f0f4f1"/><polygon points="231.16 198.59 229.49 200.52 231.16 202.46 231.16 198.59" fill="#f0f4f1"/><polygon points="229.49 237.79 232.78 237.79 231.16 239.73 229.49 237.79" fill="#f0f4f1"/><polygon points="258.2 214.57 259.09 217.73 260.04 214.57 258.2 214.57" fill="#27182a"/><polygon points="206.63 203.85 207.3 206.46 208.46 203.85 206.63 203.85" fill="#0b6640"/><polygon points="228.76 177.49 230.33 175.19 230.33 176.99 228.76 177.49" fill="#27182a"/><polygon points="255.5 180.33 254.53 181.75 255.02 183.33 255.5 180.33" fill="#27182a"/><polygon points="270.95 210.4 270.04 211.91 271.99 212.45 270.95 210.4" fill="#f0f4f1"/><polygon points="267.05 223.22 266.54 224.52 268.74 225.3 267.05 223.22" fill="#0b6640"/><polygon points="259.12 231.99 259.12 234.65 260.97 233.93 259.12 231.99" fill="#0b6640"/></svg>