<svg xmlns="http://www.w3.org/2000/svg" xmlns:xlink="http://www.w3.org/1999/xlink" width="1179.53" height="476.24" viewBox="0 0 1179.53 476.24"><defs><linearGradient id="a" x1="611.8" y1="1539.57" x2="647.2" y2="1635.49" gradientTransform="matrix(0.95, 0.31, 0.31, -0.95, -382.41, 1439.15)" gradientUnits="userSpaceOnUse"><stop offset="0.11" stop-color="#2168b6"/><stop offset="0.25" stop-color="#6495c9"/><stop offset="0.38" stop-color="#9ebdd9"/><stop offset="0.5" stop-color="#c8dae5"/><stop offset="0.59" stop-color="#e2ebec"/><stop offset="0.64" stop-color="#ecf2ef"/></linearGradient><linearGradient id="b" x1="342.28" y1="2136.51" x2="377.68" y2="2232.43" gradientTransform="matrix(0.82, 0.43, 0.39, -0.75, -571.83, 1532.54)" xlink:href="#a"/><linearGradient id="c" x1="-739.41" y1="-2079.36" x2="-682.31" y2="-1924.66" gradientTransform="matrix(0.48, 0.79, -0.72, 0.44, -754.77, 1686.33)" xlink:href="#a"/><linearGradient id="d" x1="389.13" y1="-2096.8" x2="445.35" y2="-1944.47" gradientTransform="matrix(0.81, 0.46, -0.31, 0.54, -439.01, 1253.22)" xlink:href="#a"/><linearGradient id="e" x1="826.34" y1="-1714.46" x2="890.76" y2="-1539.91" gradientTransform="matrix(0.86, 0.34, -0.23, 0.58, -378.06, 1097.17)" xlink:href="#a"/><linearGradient id="f" x1="688.84" y1="-301.93" x2="727.87" y2="-196.18" gradientTransform="matrix(1.3, -0.03, 0.01, 0.7, 88.69, 654.31)" xlink:href="#a"/><linearGradient id="g" x1="808.06" y1="1524.82" x2="840.81" y2="1613.59" xlink:href="#a"/><linearGradient id="h" x1="1008.73" y1="1510.65" x2="1041.49" y2="1599.41" xlink:href="#a"/></defs><path d="M506.07,10.38s43.32,64.35,67.25,72,43.35-.49,71.71,15.81,53.88,67.67,84.65,72.74,54.41-12.54,85.69,5.89,58.46,57.15,86,64.78,72.91-6.61,108.11,7.09,47.27,58.35,74.46,67.07S1193.26,334,1177.56,383,1141.2,484.83,1080.75,475s-115.08-11.25-162.51-20.47S833.76,396.3,739.3,414,621,367.64,591.93,353.52,489,322.9,456.69,311.34s-42.18-55.52-63.28-68.29S286.14,180,293,121.38c1.89-16.1,7-23.63,18.77-36.13,14.25-15.1,37.48-31.42,63-47.52C421.41,8.29,487.45-6.39,506.07,10.38Z" fill="#2168b6"/><path d="M650.9,102.09a106.19,106.19,0,0,1,9.1,7.71,256,256,0,0,1,18.38,19.75c13,15.25,95.27,97.49,95.27,97.49l-89.8-55L593.78,86s14.62,1.07,20.31,1.67a106.62,106.62,0,0,1,14.45,3.14s8,2.57,12.53,5.13A57.62,57.62,0,0,1,650.9,102.09Z" fill="url(#a)"/><path d="M522,20.24a102.14,102.14,0,0,1,7.28,8.14,241.78,241.78,0,0,1,14.26,20c10,15.2,74.49,99.33,74.49,99.33L543.4,85.15,469.85,3.79S485.32,0,490.39,1.53a109.51,109.51,0,0,1,12.68,5.25,87.12,87.12,0,0,1,10.71,6.58A58.21,58.21,0,0,1,522,20.24Z" fill="url(#b)"/><path d="M349.1,219.36c14.56,10.89,117.74,59.13,117.74,59.13L380,183.08l-86.23-67.76s-2.3,11.29-1.95,16.58C292.41,141.48,307.54,188.29,349.1,219.36Z" fill="url(#c)"/><path d="M481.35,321.37c17.12,4.1,155.76,21.28,155.76,21.28L518.31,295l-103.2-26.8s4.41,9.26,7.56,13.17C428.39,288.48,432.48,309.66,481.35,321.37Z" fill="url(#d)"/><path d="M693.3,417.91c17.54,1.55,149.55-8.1,149.55-8.1L718.35,380.1l-106-11.37s5.71,8.51,9.41,11.92C628.44,386.84,643.24,413.5,693.3,417.91Z" fill="url(#e)"/><path d="M966.07,453c14.25-3.69,114.68-44.84,114.68-44.84l-107.26,14.4-86.84,21s7.24,3.83,11.24,5C905.14,450.69,925.37,463.52,966.07,453Z" fill="url(#f)"/><path d="M836.57,181.79a91.2,91.2,0,0,1,8.09,7A230.77,230.77,0,0,1,861,206.7c11.6,13.85,84.86,88.47,84.86,88.47L865.68,245.5l-80.27-78s13.11.9,18.21,1.41a92.19,92.19,0,0,1,12.93,2.79,74,74,0,0,1,11.21,4.61A50.66,50.66,0,0,1,836.57,181.79Z" fill="url(#g)"/><path d="M1023.43,256.67a91.2,91.2,0,0,1,8.09,7,227.52,227.52,0,0,1,16.37,17.92c11.6,13.85,84.86,88.46,84.86,88.46l-80.21-49.67-80.27-78s13.12.89,18.21,1.4a95.26,95.26,0,0,1,12.94,2.79,74.3,74.3,0,0,1,11.2,4.61A50.11,50.11,0,0,1,1023.43,256.67Z" fill="url(#h)"/><path d="M380.45,30.53c-60,31.48-99.66,74-88.66,94.93s68.52,12.41,128.48-19.06,99.66-74,88.66-94.92S440.41-.94,380.45,30.53Zm36.34,69.52c-57.77,30.33-112.12,40.6-121.38,23s30-56.55,87.82-86.87,112.12-40.6,121.39-23S474.56,69.73,416.79,100.05Z" fill="#27182a"/><polygon points="293.74 122.37 0 289.56 4.1 296.13 296.15 125.74 293.74 122.37" fill="#27182a"/></svg>