<svg xmlns="http://www.w3.org/2000/svg" xmlns:xlink="http://www.w3.org/1999/xlink" width="1000.29" height="623.04" viewBox="0 0 1000.29 623.04"><defs><linearGradient id="a" x1="-7112.69" y1="1481.58" x2="-7067.65" y2="1603.64" gradientTransform="matrix(-0.89, 0.46, 0.46, 0.89, -6408.07, 2281.36)" gradientUnits="userSpaceOnUse"><stop offset="0.11" stop-color="#2168b6"/><stop offset="0.25" stop-color="#6495c9"/><stop offset="0.38" stop-color="#9ebdd9"/><stop offset="0.5" stop-color="#c8dae5"/><stop offset="0.59" stop-color="#e2ebec"/><stop offset="0.64" stop-color="#ecf2ef"/></linearGradient><linearGradient id="b" x1="-8001.71" y1="593.46" x2="-7956.67" y2="715.52" gradientTransform="matrix(-0.89, 0.28, 0.25, 0.8, -6473.79, 2057.77)" xlink:href="#a"/><linearGradient id="c" x1="-7502.82" y1="2886.65" x2="-7430.17" y2="3083.51" gradientTransform="matrix(-0.9, -0.22, 0.2, -0.82, -6492.95, 793.06)" xlink:href="#a"/><linearGradient id="d" x1="-7908.99" y1="-1018.06" x2="-7837.45" y2="-824.21" gradientTransform="matrix(-0.9, 0.24, -0.16, -0.6, -6658.96, 1389.58)" xlink:href="#a"/><linearGradient id="e" x1="-7501.18" y1="-2504.23" x2="-7419.2" y2="-2282.11" gradientTransform="matrix(-0.85, 0.37, -0.25, -0.57, -6656.44, 1536.25)" xlink:href="#a"/><linearGradient id="f" x1="-4664.37" y1="-5381.52" x2="-4614.71" y2="-5246.96" gradientTransform="matrix(-0.9, 0.94, -0.51, -0.49, -6838.62, 2138.02)" xlink:href="#a"/><linearGradient id="g" x1="-6862.71" y1="1462.74" x2="-6821.02" y2="1575.69" xlink:href="#a"/></defs><path d="M887.7,331.17s-96.87-18.92-125.31-4.29-38.57,39.45-78.76,50.31S574.26,364.77,542,387.9s-37.68,60.24-82.41,71.8-104,1.18-135.67,19.1-59.65,71.54-103.65,90.9-47.72,31.46-80,48.08-83.21-6.45-113.08-64.62-47.67-77.5,15.53-123.08,23.47-93.35,74.39-127.74S245.6,278.78,314.67,177.87s148.16-64.75,187-78.19S621.88,34.59,661.33,15.94,749.21,28,779.71,20.45,933-19.29,979.55,39.59c12.78,16.18,15,27.54,15.66,49.41.77,26.41-5.45,62-13.93,99.45C965.76,256.88,919.54,329.51,887.7,331.17Z" fill="#2168b6"/><path d="M674.86,379a131.72,131.72,0,0,1-15.1,1.23A327.46,327.46,0,0,1,625.45,379C600,377,452,377,452,377l130.27-31.34L740.68,342s-14.13,12.19-19.78,16.78-15.83,10.16-15.83,10.16-9.51,4.89-15.89,6.66C683.59,377.8,674.86,379,674.86,379Z" fill="url(#a)"/><path d="M864.52,336.62a131.27,131.27,0,0,1-13.87-.77c-7.83-.81-18-2.48-30.78-5.13-22.66-4.72-156.4-22.35-156.4-22.35l123.37-10.88,139.38,7S915.71,321.85,909.77,325a145.46,145.46,0,0,1-16.13,6.67s-9.48,3-15.56,3.72A73.39,73.39,0,0,1,864.52,336.62Z" fill="url(#b)"/><path d="M840.9,1.89C818,5.2,681.75,54.63,681.75,54.63l164,7.69L984.33,45.7S976.21,33.47,971.21,29C962,21,906.26-7.55,840.9,1.89Z" fill="url(#c)"/><path d="M630.12,29.11c-19.1,11.71-159.3,121-159.3,121l149.76-64,117-68.75S725.26,13,718.9,12.29C707.36,11.05,684.63-4.33,630.12,29.11Z" fill="url(#d)"/><path d="M352.53,133c-17.17,14.39-127.27,141.86-127.27,141.86L364,189.56,469.64,104.4s-12.8-2.51-19.19-2.26C438.85,102.55,401.55,91.87,352.53,133Z" fill="url(#e)"/><path d="M75.53,346.82C66,363,12.68,490.35,12.68,490.35L96.21,380.88l59.22-97.05s-10,3.07-14.6,5.62C132.43,294.07,102.68,300.73,75.53,346.82Z" fill="url(#f)"/><path d="M436.08,474.32a116.21,116.21,0,0,1-13.57,1,294.23,294.23,0,0,1-30.85-1.39c-22.9-2-156-3.25-156-3.25L352.53,443.2l142.38-2.06s-12.6,11-17.64,15.12-14.06,9.12-14.06,9.12-8.51,4.38-14.23,5.93C443.92,473.33,436.08,474.32,436.08,474.32Z" fill="url(#g)"/><path d="M982.6,200c25.63-82.27,23.11-156.23-5.64-165.19S904.14,85.3,878.5,167.58s-23.11,156.23,5.64,165.19S957,282.29,982.6,200Zm-95.25-29.85C912,90.88,951.7,32.73,975.92,40.28s23.84,77.92-.86,157.19S910.71,334.9,886.49,327.35s-23.84-77.92.86-157.19Z" fill="#27182a"/><polygon points="865.93 301.04 385.06 574.73 391.77 585.48 869.87 306.55 865.93 301.04" fill="#27182a"/></svg>