<svg xmlns="http://www.w3.org/2000/svg" xmlns:xlink="http://www.w3.org/1999/xlink" width="1268.22" height="1608.27" viewBox="0 0 1268.22 1608.27"><defs><linearGradient id="a" x1="-4082.79" y1="4026.58" x2="-4029.79" y2="4170.2" gradientTransform="matrix(0.9, 0.43, 0.43, -0.9, 2499.85, 6455)" gradientUnits="userSpaceOnUse"><stop offset="0.11" stop-color="#2168b6"/><stop offset="0.25" stop-color="#6495c9"/><stop offset="0.38" stop-color="#9ebdd9"/><stop offset="0.5" stop-color="#c8dae5"/><stop offset="0.59" stop-color="#e2ebec"/><stop offset="0.64" stop-color="#ecf2ef"/></linearGradient><linearGradient id="b" x1="-5205.94" y1="3958.35" x2="-5152.93" y2="4101.97" gradientTransform="matrix(0.76, 0.54, 0.49, -0.69, 2400.72, 6451.58)" xlink:href="#a"/><linearGradient id="c" x1="-6275.63" y1="-26.65" x2="-6190.14" y2="204.99" gradientTransform="matrix(0.37, 0.85, -0.77, 0.34, 2430.33, 6386.41)" xlink:href="#a"/><linearGradient id="d" x1="-5208.85" y1="-4106.41" x2="-5124.67" y2="-3878.32" gradientTransform="matrix(0.73, 0.57, -0.38, 0.49, 2554.57, 6223.34)" xlink:href="#a"/><linearGradient id="e" x1="-4400.28" y1="-5078.73" x2="-4303.82" y2="-4817.38" gradientTransform="matrix(0.81, 0.46, -0.31, 0.54, 2583.76, 6164.31)" xlink:href="#a"/><linearGradient id="f" x1="-1765.16" y1="-6069.65" x2="-1706.73" y2="-5911.32" gradientTransform="matrix(1.29, 0.15, -0.08, 0.7, 2750.43, 6017.22)" xlink:href="#a"/><linearGradient id="g" x1="-3787.87" y1="4004.11" x2="-3738.82" y2="4137.01" xlink:href="#a"/><linearGradient id="h" x1="-3486.37" y1="3982.51" x2="-3437.32" y2="4115.41" xlink:href="#a"/></defs><path d="M342.77,803.34s51.07,104.31,85,120.59,64.4,8.15,103.14,38.13,66.06,111.4,110.65,125.22,83.27-7.46,125.9,26.28,75,96.73,114.29,113.69,109.49,5.13,158.9,32.64,58.16,96.23,96.71,114.74,158.4,49.47,125.09,118.87-104.27,135.5-191.92,108.63-138.9-32.16-207.37-55.54-113.37-103.76-257.09-96.86-166-93-206.21-119.86-146.43-66.5-192-90.25-51.19-91-79.88-114.25S-18.2,1009.82,4,924.37c6.09-23.48,15.19-33.61,35.23-49.73,24.23-19.49,62-38.93,103.18-57.6C217.63,782.91,318.59,774.66,342.77,803.34Z" fill="#2168b6"/><path d="M538.81,969a154.24,154.24,0,0,1,11.87,13.29,385.31,385.31,0,0,1,23.22,33.05c16.22,25.29,121.35,164.1,121.35,164.1l-121.94-99.92-116-145.95s21.48,4.59,29.79,6.64,20.78,7.62,20.78,7.62,11.35,5.45,17.53,10.17C531.51,961.67,538.81,969,538.81,969Z" fill="url(#a)"/><path d="M364.34,821.22a152.88,152.88,0,0,1,9.13,13.55c4.8,7.92,10.51,18.69,17.06,32.51,11.67,24.59,90.14,162.58,90.14,162.58l-97.85-108L290.39,786.15s23.73-2.46,30.94.85,17.73,10.39,17.73,10.39,9.53,6.76,14.53,12C358.63,813.58,364.34,821.22,364.34,821.22Z" fill="url(#b)"/><path d="M67.16,1081.17C86.53,1100.29,229.69,1193,229.69,1193L120.38,1033.67,6.36,915.51S.63,931.79.06,939.7C-1,954,11.87,1026.57,67.16,1081.17Z" fill="url(#c)"/><path d="M242.44,1259.54C267,1269.13,469.1,1323,469.1,1323l-166.45-95-147.58-60.88s4.64,14.63,8.52,21.09C170.61,1199.92,172.34,1232.17,242.44,1259.54Z" fill="url(#d)"/><path d="M537,1446.13c25.7,5.88,223.48,18.6,223.48,18.6L581.9,1395.18,427,1356.61s6.73,13.78,11.51,19.6C447.2,1386.77,463.68,1429.34,537,1446.13Z" fill="url(#e)"/><path d="M934.42,1554c21.9-2.55,179.29-43,179.29-43l-162.05-.6-133.1,13.39s10,7.17,15.64,9.71C844.53,1538.12,871.91,1561.29,934.42,1554Z" fill="url(#f)"/><path d="M797.88,1125.24a138.34,138.34,0,0,1,10.56,12,346,346,0,0,1,20.61,29.93c14.37,22.92,107.76,148.59,107.76,148.59L828,1225.69,724.92,1093.61s19.26,4,26.72,5.81,18.61,6.78,18.61,6.78,10.15,4.88,15.68,9.13C791.38,1118.6,797.88,1125.24,797.88,1125.24Z" fill="url(#g)"/><path d="M1059.71,1274.56a138.45,138.45,0,0,1,10.57,12,343.66,343.66,0,0,1,20.6,29.93c14.37,22.92,107.76,148.59,107.76,148.59L1089.84,1375,986.75,1242.92s19.26,4,26.72,5.81,18.61,6.79,18.61,6.79,10.16,4.87,15.68,9.13C1053.21,1267.92,1059.71,1274.56,1059.71,1274.56Z" fill="url(#h)"/><path d="M152.32,807.51c-95.38,34.41-163,89.31-150.94,122.64s99.09,32.45,194.47-2,163-89.32,150.94-122.64S247.7,773.1,152.32,807.51ZM192,918.06c-91.9,33.15-174.61,37.26-184.74,9.18s56.15-77.72,148-110.87,174.61-37.26,184.7-9.18S283.89,884.91,192,918.06Z" fill="#27182a"/><polygon points="1.39 930.15 80.77 0 81.55 4.93 7.57 927.98 1.39 930.15" fill="#27182a"/><polygon points="334.92 799.8 341.06 798.85 80.77 0 80.77 3.93 334.92 799.8" fill="#27182a"/></svg>