<svg xmlns="http://www.w3.org/2000/svg" xmlns:xlink="http://www.w3.org/1999/xlink" width="657.2" height="368.11" viewBox="0 0 657.2 368.11"><defs><linearGradient id="a" x1="210.07" y1="26.48" x2="231.34" y2="282.59" gradientTransform="matrix(1, 0, 0, -1, 0, 370)" gradientUnits="userSpaceOnUse"><stop offset="0.15" stop-color="#27182a" stop-opacity="0"/><stop offset="0.39" stop-color="#27182a" stop-opacity="0.1"/><stop offset="0.63" stop-color="#27182a" stop-opacity="0.39"/><stop offset="0.8" stop-color="#27182a" stop-opacity="0.7"/></linearGradient><linearGradient id="b" x1="210.07" y1="26.48" x2="231.34" y2="282.59" gradientTransform="matrix(1, 0, 0, -1, 0, 370)" gradientUnits="userSpaceOnUse"><stop offset="0.18" stop-color="#0b6640" stop-opacity="0"/><stop offset="0.35" stop-color="#0b6640" stop-opacity="0.04"/><stop offset="0.52" stop-color="#0b6640" stop-opacity="0.16"/><stop offset="0.7" stop-color="#0b6640" stop-opacity="0.36"/><stop offset="0.87" stop-color="#0b6640" stop-opacity="0.65"/><stop offset="0.9" stop-color="#0b6640" stop-opacity="0.7"/></linearGradient><linearGradient id="c" x1="441.87" y1="-57.61" x2="462.94" y2="196.13" gradientTransform="matrix(0.99, -0.17, -0.17, -0.99, 60.71, 376.71)" gradientUnits="userSpaceOnUse"><stop offset="0.15" stop-color="#0b6640" stop-opacity="0"/><stop offset="0.39" stop-color="#0f5b3d" stop-opacity="0.1"/><stop offset="0.63" stop-color="#1b3a34" stop-opacity="0.39"/><stop offset="0.8" stop-color="#27182a" stop-opacity="0.7"/></linearGradient><linearGradient id="d" x1="455.29" y1="-36.92" x2="474.56" y2="195.21" gradientTransform="matrix(0.99, -0.17, -0.17, -0.99, 60.71, 376.71)" xlink:href="#b"/><linearGradient id="e" x1="264.58" y1="301.16" x2="323.34" y2="301.16" gradientTransform="matrix(1, 0, 0, -1, 0, 370)" gradientUnits="userSpaceOnUse"><stop offset="0" stop-color="#27182a" stop-opacity="0.91"/><stop offset="0.04" stop-color="#3b2e3e" stop-opacity="0.92"/><stop offset="0.13" stop-color="#6f6771" stop-opacity="0.94"/><stop offset="0.25" stop-color="#c2c1c3" stop-opacity="0.98"/><stop offset="0.3" stop-color="#e5e8e6"/><stop offset="0.36" stop-color="#cfd0d0" stop-opacity="0.96"/><stop offset="0.53" stop-color="#948f96" stop-opacity="0.87"/><stop offset="0.69" stop-color="#655c67" stop-opacity="0.8"/><stop offset="0.83" stop-color="#433746" stop-opacity="0.74"/><stop offset="0.93" stop-color="#2f2032" stop-opacity="0.71"/><stop offset="1" stop-color="#27182a" stop-opacity="0.7"/></linearGradient><linearGradient id="f" x1="-176.81" y1="919.11" x2="-116.32" y2="919.11" gradientTransform="matrix(-0.39, 0.39, 0.61, 0.61, -161.92, -422.4)" xlink:href="#e"/></defs><path d="M481.51,4.88h-5.3V0h5.3Z" fill="#261528"/><path d="M257.5,88.91s-14.88,8.24-24.43,8.1-25.35-10.33-40.83-1.42-14.57,34.25-50.19,44.61c-28.73,8.36-7.64,37.32-26.46,47.6-4.5,2.46-51.14,36.6-71.21,42.43C19.08,237.57,0,329.94,0,329.94l422.53-1.62s-13.61-96.1-56.53-96.1c-27.86,0-40.58-22.59-37.62-31.19,6.83-19.84-24.53-33.28-27.94-47.88s-.13-42.6-15.45-46.42-17.58-16.48-17.58-16.48Z" fill="url(#a)"/><path d="M257.5,88.91s-14.88,8.24-24.43,8.1-20.37,13.59-35.86,22.5-10.76,22-46.38,32.33c-28.73,8.35-37.32,16.56-56.14,26.84-4.5,2.46-30.24,45.72-50.31,51.55C19.08,237.57,0,329.94,0,329.94l422.53-1.62s-2.38-53.49-45.3-53.49c-27.86,0-64.2-45.58-61.24-54.19,6.83-19.84,2.06-52.45-1.35-67S298.94,130.77,285,124.8c-14.52-6.21-17.58-34.55-17.58-34.55Z" fill="url(#b)"/><path d="M454.53,105.46s-13.86,12.27-23.29,13.75,10.39,25.35-3.36,36.75,48,61.81,14.65,78.06c-26.9,13.11-56.08,36.82-72.88,50.15-4,3.18,7,50.11-11.78,59.26C334.18,355,425.2,368.11,425.2,368.11l232-53s-29.69-92.4-72-85.13c-27.46,4.72-43.82-15.38-42.36-24.37C546.21,184.9,513,177,507.19,163.16s-7.35-42-23.1-43.13S464,106.77,464,106.77Z" fill="url(#c)"/><path d="M454.53,105.46s-13.86,12.27-23.29,13.75,6.79,17.48-7,28.88,33.35,64,0,80.28c-26.9,13.1,10,49-6.8,62.29-4,3.18-19.21,30.13-38,39.28-23.69,11.52,92.5,11.93,92.5,11.93l185.18-26.8s-11.41-52.31-53.71-45c-27.45,4.72-71-34-69.53-43,3.37-20.71-6.86-52-12.7-65.85s-19.33-19.83-34.1-23.35c-15.36-3.66-23.17-31.07-23.17-31.07Z" fill="url(#d)"/><path d="M323.29,45.48s-8.92-2.72-22.85-2.39c-18.21.43-40.57,22.26-42.94,45.82l9.91,1.34s3.77-14.44,9.31-20.47,14-15.55,27.45-15.57c16.41,0,19.12,3.53,19.12,3.53" fill="#27182a"/><path d="M323.3,54.57s-16.6-8.68-26.38-6.37-23.58,6.24-32.34,41.67h0s5.62-28.49,27-36.7c14.85-5.72,23.08-1.62,31.76,1.4Z" opacity="0.2" fill="url(#e)" style="isolation:isolate"/><path d="M450.6,54.83s1.81-4.31,5.79-4.1,5.46,4.1,5.46,4.1S473,69,470.59,84.67,464,106.73,464,106.73l-9.44-1.27s7.37-21,6.23-26.73S451.12,61.47,450.6,54.83Z" fill="#27182a"/><path d="M460.76,106.3s6.16-15.22,7.06-20.85c1-6.2,4.4-7.66-13.78-32.6h0S468.4,70.1,465.15,83.34c-2.25,9.22-3.79,18.51-4.39,23Z" opacity="0.2" fill="url(#f)" style="isolation:isolate"/></svg>