<svg xmlns="http://www.w3.org/2000/svg" xmlns:xlink="http://www.w3.org/1999/xlink" width="332.57" height="252.23" viewBox="0 0 332.57 252.23"><defs><linearGradient id="a" x1="145.42" y1="211.47" x2="202.27" y2="211.47" gradientTransform="matrix(1, 0, 0, -1, 0, 254)" gradientUnits="userSpaceOnUse"><stop offset="0.18" stop-color="#f0f4f1"/><stop offset="0.19" stop-color="#ecf2ef"/><stop offset="0.3" stop-color="#c7dede"/><stop offset="0.42" stop-color="#a9cdd0"/><stop offset="0.54" stop-color="#92c0c5"/><stop offset="0.67" stop-color="#82b7bd"/><stop offset="0.81" stop-color="#78b2b8"/><stop offset="1" stop-color="#75b0b7"/></linearGradient><linearGradient id="b" x1="154.54" y1="152.55" x2="202.27" y2="152.55" gradientTransform="matrix(1, 0, 0, -1, 0, 254)" gradientUnits="userSpaceOnUse"><stop offset="0" stop-color="#2168b6" stop-opacity="0.91"/><stop offset="0.47" stop-color="#4587b6" stop-opacity="0.82"/><stop offset="1" stop-color="#75b0b7" stop-opacity="0.7"/></linearGradient><linearGradient id="c" x1="230.91" y1="154.01" x2="282.43" y2="154.01" gradientTransform="matrix(1, 0, 0, -1, 0, 254)" gradientUnits="userSpaceOnUse"><stop offset="0.18" stop-color="#f0f4f1" stop-opacity="0.5"/><stop offset="0.24" stop-color="#dce9e7" stop-opacity="0.58"/><stop offset="0.4" stop-color="#afd0d2" stop-opacity="0.77"/><stop offset="0.57" stop-color="#8ebec3" stop-opacity="0.9"/><stop offset="0.76" stop-color="#7bb3ba" stop-opacity="0.98"/><stop offset="1" stop-color="#75b0b7"/></linearGradient></defs><path d="M217.21,129.56H0a73.37,73.37,0,0,1,6.77-8.46c3.13-3.1,16.34-13.28,34.89-13.54,9.71-.13,19.18-18.5,34.21-18.5s20.55,14.67,29.32,14.67c3.83,0,20-54.81,36.31-54.81s31.43,51.31,35.95,51.31,5.84-22.69,18.5-22.69c10.35,0,15.93,27.93,21.26,27.93s14.07-47,37.23-47.51c12.27-.27,24.11,51.55,42.55,51.55s32.4,13.93,33.58,15.15,2,4.9,2,4.9Z" fill="#0b6640"/><path d="M0,129.24S14.78,172.11,44.32,175s74.38,77.23,102.82,77.23,58.91-54.72,79.23-54.16,23.6-29.26,38.92-29.26,67.27-39.53,67.27-39.53Z" fill="#27182a" opacity="0.05" style="isolation:isolate"/><path d="M297,109.59a39,39,0,0,1,11.25,1.69l.87-81.61H272.25V81.41C279.36,95.05,287.27,109.59,297,109.59ZM285.7,36.67l5.31.27v4.24l-5.31.63Zm0,9.81,5.31-.32V51H285.7Zm0,10H291v4.88h-5.3Zm.34,9.68h5V71H285.7ZM281.79,81.4l-5.3-.26V76.87l5.3-.64Zm0-10.29-5.3.32V66.52h5.3Zm0-9.75h-5.3V56.45h5.3Zm0-10.87-5.3,1.06V46.64h5.3Zm0-8.91h-5.3V37l5.3-.35Zm3.91,34.94H291V81l-5.31.34Z" fill="#261528"/><polygon points="276.49 41.55 281.79 41.55 281.79 36.67 276.49 37.02 276.49 41.55" fill="#6bb8bd"/><polygon points="276.49 51.52 281.79 50.46 281.79 46.64 276.49 46.64 276.49 51.52" fill="#6bb8bd"/><rect x="276.49" y="56.45" width="5.3" height="4.88" fill="#6bb8bd"/><polygon points="276.49 71.4 281.79 71.08 281.79 66.52 276.49 66.52 276.49 71.4" fill="#6bb8bd"/><polygon points="276.49 81.11 281.79 81.37 281.79 76.23 276.49 76.87 276.49 81.11" fill="#6bb8bd"/><polygon points="291.01 76.5 285.7 76.5 285.7 81.37 291.01 81.03 291.01 76.5" fill="#6bb8bd"/><polygon points="291.01 66.13 286.04 66.13 285.7 71 291.01 71 291.01 66.13" fill="#6bb8bd"/><rect x="285.7" y="56.45" width="5.3" height="4.88" fill="#6bb8bd"/><polygon points="291.01 46.16 285.7 46.48 285.7 51.04 291.01 51.04 291.01 46.16" fill="#6bb8bd"/><polygon points="291.01 36.94 285.7 36.67 285.7 41.81 291.01 41.18 291.01 36.94" fill="#6bb8bd"/><path d="M251.7,38.08l14.63,2.33V94.93h-6.15L260,48.05l-8.27-3.4" fill="#2168b6"/><rect x="217.76" y="68.28" width="2.12" height="48.49" fill="#27182a"/><rect x="247.03" y="68.28" width="2.12" height="48.49" fill="#27182a"/><polygon points="128.66 46.35 128.66 90.22 158.15 90.22 158.15 48.05 128.66 46.35" fill="#2168b6"/><polygon points="174.8 46.35 174.8 90.22 204.29 90.22 204.29 48.05 174.8 46.35" fill="#2168b6"/><polygon points="123.57 81.99 123.57 125.67 215 127.67 215 86.58 208.46 83.68 208.46 71.38 135.43 71.38 134.53 80.67 123.57 81.99" fill="#f0f4f1"/><rect x="148.82" y="44.65" width="49.21" height="26.73" fill="#27182a"/><polygon points="145.42 40.41 145.42 44.65 201.64 44.65 202.27 40.41 145.42 40.41" fill="url(#a)"/><polygon points="165.68 23.97 148.82 40.41 198.03 40.41 182.76 24.61 165.68 23.97" fill="#27182a"/><polygon points="169.98 24.13 169.98 1.43 230.91 0 232.89 15.64 224.14 15.92 222.96 7.8 179.52 8.59 178.89 24.46 169.98 24.13" fill="#2168b6"/><polygon points="226.24 92.53 226.24 127.33 289.88 127.33 289.88 94.75 226.24 92.53" fill="#2168b6"/><polygon points="218.82 88.46 248.09 88.03 248.09 86.12 218.82 87.29 218.82 88.46" fill="#27182a"/><polygon points="220.97 67.35 248.09 86.12 246.29 87.29 218.82 67.35 220.97 67.35" fill="#27182a"/><polygon points="243.74 68.28 218.82 85.54 218.82 87.29 245.44 68.28 243.74 68.28" fill="#27182a"/><polygon points="154.54 88.46 154.54 115.45 202.27 116.78 201.43 86.12 154.54 88.46" fill="url(#b)"/><polygon points="148.82 90.22 148.82 94.08 138.42 94.93 138.42 90.22 148.82 90.22" fill="#2168b6"/><rect x="138.42" y="99.2" width="10.39" height="5.45" fill="#2168b6"/><polygon points="215 14.32 251.7 14.32 251.7 69.26 216 68.28 215 14.32" fill="#f0f4f1"/><polygon points="138.42 77.11 138.42 83.47 201.43 80.29 201.43 75.83 138.42 77.11" fill="#2168b6"/><polygon points="231.32 96.73 230.91 103.08 282.14 103.25 282.43 98.81 231.32 96.73" fill="url(#c)"/><polygon points="227.55 14.32 229.17 68.64 230.79 68.69 229.17 14.32 227.55 14.32" fill="#75b0b7"/><polygon points="217.76 14.32 219.88 68.39 220.99 68.42 219.88 14.32 217.76 14.32" fill="#75b0b7"/><polygon points="223.33 14.32 224.59 68.52 225.79 68.52 224.9 14.32 223.33 14.32" fill="#75b0b7"/><polygon points="231.73 14.32 233.87 68.77 234.9 68.8 234.2 14.32 231.73 14.32" fill="#75b0b7"/><polygon points="236.99 14.32 237.53 68.87 239.13 68.92 239.11 14.32 236.99 14.32" fill="#75b0b7"/><polygon points="242.15 14.32 242.22 69 243.54 69.04 243.55 14.32 242.15 14.32" fill="#75b0b7"/><polygon points="246.86 14.32 246.89 69.13 248.02 69.16 248.98 14.32 246.86 14.32" fill="#75b0b7"/><path d="M109.43,129.56s29-23.88,46.29-23.87c17.1,0,24.51,19.14,35.67,20.59s21-18.23,32.81-19.3,19.62,18,29,19.38,21.06-9.9,28.76-10.26,12.82,10.39,21.58,13.87Z" fill="#0b6640"/></svg>