<svg xmlns="http://www.w3.org/2000/svg" xmlns:xlink="http://www.w3.org/1999/xlink" width="265.48" height="217.59" viewBox="0 0 265.48 217.59"><defs><radialGradient id="a" cx="133.9" cy="132.71" fy="183.635637634303" r="97.58" gradientTransform="matrix(1, 0, 0, -1, 0, 220)" gradientUnits="userSpaceOnUse"><stop offset="0" stop-color="#2168b6"/><stop offset="1" stop-color="#75b0b7"/></radialGradient><linearGradient id="b" x1="38.43" y1="92.17" x2="110.77" y2="92.17" gradientTransform="matrix(1, 0, 0, -1, 0, 220)" gradientUnits="userSpaceOnUse"><stop offset="0" stop-color="#75b0b7"/><stop offset="1" stop-color="#2168b6"/></linearGradient><linearGradient id="c" x1="34.66" y1="111.19" x2="121.41" y2="111.19" xlink:href="#b"/><linearGradient id="d" x1="47.18" y1="130.29" x2="128.55" y2="130.29" xlink:href="#b"/><linearGradient id="e" x1="76.2" y1="142.63" x2="133.73" y2="142.63" xlink:href="#b"/><linearGradient id="f" x1="162" y1="91.6" x2="228.81" y2="91.6" gradientTransform="matrix(1, 0, 0, -1, 0, 220)" xlink:href="#a"/><linearGradient id="g" x1="155.6" y1="111.13" x2="232.43" y2="111.13" gradientTransform="matrix(1, 0, 0, -1, 0, 220)" xlink:href="#a"/><linearGradient id="h" x1="149.32" y1="127.94" x2="219.84" y2="127.94" gradientTransform="matrix(1, 0, 0, -1, 0, 220)" xlink:href="#a"/><linearGradient id="i" x1="141.25" y1="142.34" x2="191.74" y2="142.34" gradientTransform="matrix(1, 0, 0, -1, 0, 220)" xlink:href="#a"/><linearGradient id="j" x1="136.71" y1="148.33" x2="153.65" y2="148.33" gradientTransform="matrix(1, 0, 0, -1, 0, 220)" xlink:href="#a"/><linearGradient id="k" x1="111.39" y1="162.6" x2="135.39" y2="162.6" xlink:href="#b"/><radialGradient id="l" cx="121.12" cy="86.09" fx="111.35937442909233" r="69.19" gradientTransform="matrix(1, 0, 0, -1, 0, 220.02)" gradientUnits="userSpaceOnUse"><stop offset="0" stop-color="#f0f4f1"/><stop offset="0.2" stop-color="#edf2ef"/><stop offset="0.38" stop-color="#e2ecea"/><stop offset="0.55" stop-color="#d0e2e2"/><stop offset="0.71" stop-color="#b7d4d6"/><stop offset="0.87" stop-color="#97c3c7"/><stop offset="1" stop-color="#75b0b7"/></radialGradient></defs><path d="M123.72,147.35c-5.73.45-7,1.17-40.44,7-10.71,1.87-12.27,2.09-15.06,2.16-15.64.37-18.84-5.35-30.71-3.23-1.27.22-6.77,2.12-17.78,5.92-8.74,3-8.94-.18-12.25.79C1.86,161.62,1,164.85.87,165.67c-.47,2.64,13.39,9.4,28,9.7,11.21.22,12.72-5.29,21.55-4.31C62.72,172.42,63,182,74,184c15.28,2.79,21.34-14.65,39.53-12.56,8.89,1,10.53,5.54,21.06,5.54,10,0,11.14-4,19.95-4.8,16.72-1.44,20.72,12.42,35.83,11.08,12.33-1.09,13.5-10.65,25.86-10,9.39.51,11.76,6.19,20,4.43,6.67-1.44,7.64-5.75,15.89-7.39,7.25-1.44,11.9.62,12.56-.37,3.57-5.37-5.41-9.3-14.13-9.78-11.4-.62-23-3.73-25.4-3.89-39-2.5-47-1.7-64.28-3.69C136.14,149.75,137.11,146.29,123.72,147.35Z" transform="translate(0 0.02)" fill="#75b0b7"/><path d="M135.74,174.6c-28.3-28-63.86-30.71-63.86-30.71s-27.64-6.17-31.25-18.32c-1.28-4.29.26-6.93-2.16-12.93-3.77-9.39-10.2-9.65-11.31-16.17-1.14-6.7,5.41-8,7.54-18.32,2.27-11-4.08-14.91-.54-22.63,3.08-6.7,8.33-4.76,13.47-12.39,6.24-9.25,1.36-16.32,7.19-21.22,5.16-4.33,9.83.51,18.68-3.56,9.14-4.22,7.59-11,15.62-14,8.2-3.12,11.45,3.28,23.71,1.61,10.34-1.41,10.91-6.36,18.86-6,9.21.48,9.82,7.19,20.48,9.16,10,1.85,12.4-3.56,21-1.08,8,2.31,7.09,7.34,17.24,13.47,12.3,7.43,18.85,3.16,23.71,9.7C219.55,38.56,213,46,219,53.37c5.05,6.25,11.81,3.37,15.09,9.16,3.49,6.16-3.45,10.71-2.16,21.55,1.39,11.66,10.36,14.34,8.62,22.09-1.21,5.43-5.72,4.67-11.85,13.47-5.78,8.31-4.25,12.55-8.62,16.17-3.35,2.77-13,.54-23.17.54S135.74,174.6,135.74,174.6Z" transform="translate(0 0.02)" fill="url(#a)"/><path d="M108.07,144.57c-.16-.32-16.08-31.92-69.55-30.43l-.09-3c28.94-.81,47,7.9,57.1,15.35,11,8.14,15.07,16.43,15.24,16.78Z" transform="translate(0 0.02)" fill="url(#b)"/><path d="M118.65,141A129.88,129.88,0,0,0,98,109.58C85.37,95.46,64.14,78.82,34.75,79.65l-.09-3c24.23-.7,46.91,10,65.62,31a130,130,0,0,1,21.13,32.16Z" transform="translate(0 0.02)" fill="url(#c)"/><path d="M125.6,137.73c0-.18-.76-17.53-10.79-37.59C105.58,81.68,86.35,57,47.18,44.56l.91-2.86c40.23,12.82,60,38.19,69.46,57.22,10.28,20.63,11,38,11,38.7Z" transform="translate(0 0.02)" fill="url(#d)"/><path d="M133.65,137.75l-3-.15C133.12,89,76.77,19.55,76.2,18.86L78.53,17A373,373,0,0,1,107,58.39C125.74,90.14,134.71,116.84,133.65,137.75Z" transform="translate(0 0.02)" fill="url(#e)"/><path d="M164,138.79l-2-2.23c12.28-11,29.81-15.47,42.36-17.22a129.82,129.82,0,0,1,24.45-1.19l-.2,3C228.16,121.11,186.46,118.56,164,138.79Z" transform="translate(0 0.02)" fill="url(#f)"/><path d="M158.21,135.07l-2.61-1.5c7.48-13,22.53-25.56,44.74-37.25a241.43,241.43,0,0,1,31.09-13.66l1,2.84C231.82,85.69,175.4,105.1,158.21,135.07Z" transform="translate(0 0.02)" fill="url(#g)"/><path d="M152.32,132l-3-.49c2.15-13.11,14.4-30.47,36.41-51.61A408.63,408.63,0,0,1,218,52.13l1.8,2.4C219.26,55,157.22,102.17,152.32,132Z" transform="translate(0 0.02)" fill="url(#h)"/><path d="M144.25,134.48l-3-.32c1.48-13.79,10-37.06,25.29-69.17C177.92,41.14,189,21.05,189.11,20.85l2.63,1.45C191.3,23.1,147.72,102.32,144.25,134.48Z" transform="translate(0 0.02)" fill="url(#i)"/><path d="M139.71,134.34h-3c.51-31.56,13.84-124.4,14-125.33l3,.43C153.52,10.33,140.21,103,139.71,134.34Z" transform="translate(0 0.02)" fill="url(#j)"/><path d="M135.39,109.26h-3c.22-33-20.78-102.15-21-102.85l2.87-.88c0,.18,5.39,17.7,10.63,39.11C132,73.43,135.48,95.18,135.39,109.26Z" transform="translate(0 0.02)" fill="url(#k)"/><ellipse cx="133.13" cy="133.93" rx="50.62" ry="47.6" fill="url(#l)"/><path d="M1,165c3.62-2.81,13.38,9.92,28,9.69a34.64,34.64,0,0,0,6.42-.61c5.88-1.36,8.34-4.45,15.13-3.7,12.28,1.36,12.59,11,23.54,13,15.27,2.79,21.33-14.66,39.52-12.56,8.89,1,10.54,5.54,21.06,5.54,10,0,11.14-4.05,20-4.81,16.72-1.43,20.72,12.42,35.83,11.09,12.33-1.09,13.5-10.65,25.86-10,9.4.52,11.76,6.2,19.95,4.44,6.67-1.44,7.64-5.75,15.89-7.39,5-1,11.92-2.09,12.56-.37,1,2.75-14.61,11-20,13.8A133.12,133.12,0,0,1,229,190.4c-12.86,4.93-17.32,4.22-32.07,7.88-22.23,5.52-25.46,4.7-40,11.38-3.49,1.61-11.73,6.58-17.74,7.56-8.21,1.35-18.12-1.47-25.16-4.41-1.79-.75-16-6.16-38.07-11.28-27-6.3-42.69-13.83-56.81-19.53C10.78,178.57,2.22,176.89.4,170.6.35,170.42-.78,166.38,1,165Z" transform="translate(0 0.02)" fill="#27182a"/></svg>