<svg xmlns="http://www.w3.org/2000/svg" xmlns:xlink="http://www.w3.org/1999/xlink" width="13.49" height="3.26" viewBox="0 0 13.49 3.26"><defs><linearGradient id="a" x1="6.74" y1="2.74" x2="6.74" y2="6" gradientTransform="matrix(1, 0, 0, -1, 0, 6)" gradientUnits="userSpaceOnUse"><stop offset="0" stop-color="#27182a"/><stop offset="0.37" stop-color="#1e3131"/><stop offset="1" stop-color="#0b6640"/></linearGradient></defs><path d="M0,.69V2.5l1.66-.75A6.4,6.4,0,0,0,4.08,2.88a17.84,17.84,0,0,0,3,.38A14.11,14.11,0,0,0,9.32,3a11.76,11.76,0,0,0,4.17-1.24A8.57,8.57,0,0,0,9.52.2,18,18,0,0,0,7.09,0,17.44,17.44,0,0,0,4.21.36a10.58,10.58,0,0,0-2.43.89Z" fill="url(#a)"/><polygon points="10.42 0.31 10.42 2.84 10.53 2.82 10.6 0.35 10.42 0.31" fill="#27182a"/><ellipse cx="11.19" cy="1.23" rx="0.16" ry="0.14" fill="#27182a"/></svg>