<svg xmlns="http://www.w3.org/2000/svg" xmlns:xlink="http://www.w3.org/1999/xlink" width="997.48" height="378.17" viewBox="0 0 997.48 378.17"><defs><linearGradient id="a" x1="713.64" y1="200.15" x2="756.55" y2="320" gradientTransform="matrix(1, 0, 0, -1, 0, 380)" gradientUnits="userSpaceOnUse"><stop offset="0" stop-color="#27182a" stop-opacity="0"/><stop offset="0.06" stop-color="#27182a" stop-opacity="0.21"/><stop offset="0.18" stop-color="#27182a" stop-opacity="0.43"/><stop offset="0.34" stop-color="#27182a" stop-opacity="0.5"/><stop offset="0.37" stop-color="#291e33" stop-opacity="0.56"/><stop offset="0.48" stop-color="#2f2f4b" stop-opacity="0.72"/><stop offset="0.58" stop-color="#333b5d" stop-opacity="0.84"/><stop offset="0.7" stop-color="#37446a" stop-opacity="0.93"/><stop offset="0.82" stop-color="#384972" stop-opacity="0.98"/><stop offset="0.98" stop-color="#394b74"/></linearGradient><linearGradient id="b" x1="354.39" y1="-48.3" x2="761.47" y2="507.48" gradientTransform="matrix(1, 0, 0, -1, 0, 380)" gradientUnits="userSpaceOnUse"><stop offset="0.09" stop-color="#27182a" stop-opacity="0.5"/><stop offset="0.62" stop-color="#27182a" stop-opacity="0.75"/><stop offset="1" stop-color="#27182a"/></linearGradient><linearGradient id="c" x1="527.1" y1="252.35" x2="527.1" y2="278.71" gradientTransform="matrix(1, 0, 0, -1, 0, 380)" gradientUnits="userSpaceOnUse"><stop offset="0" stop-color="#0b6640" stop-opacity="0"/><stop offset="0.15" stop-color="#0b6640" stop-opacity="0.24"/><stop offset="0.43" stop-color="#0b6640" stop-opacity="0.65"/><stop offset="0.66" stop-color="#0b6640" stop-opacity="0.91"/><stop offset="0.79" stop-color="#0b6640"/></linearGradient><linearGradient id="d" x1="514.29" y1="257.04" x2="514.29" y2="283.4" xlink:href="#c"/><linearGradient id="e" x1="544.05" y1="250.94" x2="544.05" y2="265.53" xlink:href="#c"/><linearGradient id="f" x1="506.34" y1="250.94" x2="506.34" y2="265.53" xlink:href="#c"/><linearGradient id="g" x1="-552.48" y1="253.51" x2="-552.48" y2="268.1" gradientTransform="translate(-30.66 380) rotate(180)" xlink:href="#c"/><linearGradient id="h" x1="533.72" y1="247.24" x2="533.72" y2="285.33" xlink:href="#c"/><linearGradient id="i" x1="549.92" y1="241.76" x2="549.92" y2="279.85" xlink:href="#c"/><linearGradient id="j" x1="-519.17" y1="253.13" x2="-519.17" y2="283.06" gradientTransform="translate(19.81 380) rotate(180)" xlink:href="#c"/><linearGradient id="k" x1="-537.7" y1="248.78" x2="-537.7" y2="278.71" gradientTransform="translate(19.81 380) rotate(180)" xlink:href="#c"/><linearGradient id="l" x1="489.17" y1="163.7" x2="489.17" y2="281.2" gradientTransform="translate(1308.22 380) rotate(180)" xlink:href="#c"/><linearGradient id="m" x1="409.72" y1="171.41" x2="409.72" y2="288.89" gradientTransform="translate(1308.22 380) rotate(180)" xlink:href="#c"/><linearGradient id="n" x1="432.21" y1="150.94" x2="432.21" y2="268.42" gradientTransform="translate(1308.22 380) rotate(180)" xlink:href="#c"/><linearGradient id="o" x1="655.14" y1="175.15" x2="655.14" y2="292.64" gradientTransform="translate(1308.22 380) rotate(180)" xlink:href="#c"/><linearGradient id="p" x1="564.72" y1="157.4" x2="564.72" y2="222.46" gradientTransform="translate(1308.22 380) rotate(180)" xlink:href="#c"/><linearGradient id="q" x1="681.78" y1="166.89" x2="681.78" y2="231.95" gradientTransform="translate(1308.22 380) rotate(180)" xlink:href="#c"/><linearGradient id="r" x1="396.64" y1="157.42" x2="396.64" y2="222.48" gradientTransform="translate(1308.22 380) rotate(180)" xlink:href="#c"/><linearGradient id="s" x1="370.67" y1="179.05" x2="370.67" y2="244.05" gradientTransform="translate(1308.22 380) rotate(180)" xlink:href="#c"/><linearGradient id="t" x1="-496.3" y1="168.86" x2="-496.3" y2="233.86" gradientTransform="matrix(1, 0, 0, -1, 1338.88, 380)" xlink:href="#c"/><linearGradient id="u" x1="-741.13" y1="146.51" x2="-741.13" y2="211.57" gradientTransform="matrix(1, 0, 0, -1, 1338.88, 380)" xlink:href="#c"/><linearGradient id="v" x1="518.78" y1="140.95" x2="518.78" y2="310.7" gradientTransform="translate(1308.22 380) rotate(180)" xlink:href="#c"/><linearGradient id="w" x1="590.99" y1="196.32" x2="590.99" y2="366.07" gradientTransform="translate(1308.22 380) rotate(180)" xlink:href="#c"/><linearGradient id="x" x1="-522.33" y1="167.18" x2="-522.33" y2="300.58" gradientTransform="matrix(1, 0, 0, -1, 1288.41, 380)" xlink:href="#c"/><linearGradient id="y" x1="-585.2" y1="167.29" x2="-585.2" y2="300.69" gradientTransform="matrix(1, 0, 0, -1, 1288.41, 380)" xlink:href="#c"/><linearGradient id="z" x1="-604.91" y1="196.29" x2="-604.91" y2="329.69" gradientTransform="matrix(1, 0, 0, -1, 1288.41, 380)" xlink:href="#c"/></defs><path d="M862.8,180.57S818.45,64.77,801.54,66.31s-16.68-13-30.41-13-17.75,30-33.6,32.72-38.8-29.41-57.82-28.46-27.16,35.29-40.9,35.29S568.48,168,568.48,168Z" transform="translate(0 0.01)" fill="url(#a)"/><path d="M439.85,95.34c-10.59,0-3.37-40.54-20.28-39s-19.35-35.42-33.09-35.42-17.74,30-33.6,32.72S312.33-.94,293.31,0s-39.14,49.46-52.88,49.46S220.54,78,220.54,78s-6.23,4-17.62,4-16.3-12-37.65,4.9c-6.44,5.09-13.64,34.87-28.69,34.87s-21.11-41.66-37.11-43.3-70.71,45.35-72.3,58.73C24.82,157,0,284.05,0,284.05l151.2,44.24,331.23,20.06,322.69,29.81S965.56,353.84,972.66,323c3-13.09,33.39-181.08,22.45-215.8-8.12-25.78-33.31,32.13-46.56,37.4s-29.25-24.31-33.39-25.28c-14.78-3.49-34,37.24-42.6,37.24s-20.82-25-23-30C838,100.06,771.19,181.47,757.25,151c-6.41-14-32.73-39-42.76-37.18-19.55,3.53-38.53,10.88-41.37,8C661.28,110,651.29,94.7,637.57,94.7S616.87,116,601.74,116s-28.55-23.37-43.32-23.37S531.25,121.76,517,121.76s-24.61-49.29-35-49.29S450.43,95.34,439.85,95.34Z" transform="translate(0 0.01)" fill="url(#b)"/><path d="M526.3,127.65a8.22,8.22,0,0,1-1.14-3.23c-.12-1.66,1.65-4.19,1.65-5.2s-1.6-3.57-1.65-5.11,1.52-2.52,1.65-3.78-1.56-3.37-1.29-5.2,1.52-2.89,2.05-3.84a19.83,19.83,0,0,0-.26,4c.24,1.16,1.78,3.62,1.51,5.09s-1.52,2-1.41,3.43,1.78,3.73,1.63,5.83-1.89,3.43-1.53,4.74a32.92,32.92,0,0,0,1.21,3.23Z" transform="translate(0 0.01)" fill="url(#c)"/><path d="M513.52,123a7.92,7.92,0,0,1-1.14-3.23c-.13-1.66,1.65-4.19,1.65-5.2s-1.6-3.57-1.66-5.11,1.53-2.52,1.66-3.78-1.56-3.36-1.3-5.2,1.53-2.89,2-3.84a19.83,19.83,0,0,0-.26,4c.25,1.17,1.78,3.62,1.52,5.09s-1.52,2-1.42,3.43,1.79,3.73,1.63,5.83-1.89,3.43-1.52,4.74a32.92,32.92,0,0,0,1.21,3.23Z" transform="translate(0 0.01)" fill="url(#d)"/><path d="M543.61,129.06a4.62,4.62,0,0,1-.63-1.79c-.07-.92.91-2.32.91-2.88s-.88-2-.91-2.83.84-1.39.91-2.09-.86-1.86-.71-2.88a5.38,5.38,0,0,1,1.13-2.12,10.5,10.5,0,0,0-.14,2.24c.13.64,1,2,.84,2.81s-.85,1.08-.79,1.9,1,2.06.9,3.22-1,1.9-.84,2.63a16,16,0,0,0,.67,1.79Z" transform="translate(0 0.01)" fill="url(#e)"/><path d="M505.9,129.06a4.38,4.38,0,0,1-.64-1.79c-.06-.92.92-2.32.92-2.88s-.89-2-.92-2.83.85-1.39.92-2.09-.87-1.86-.72-2.88a5.38,5.38,0,0,1,1.13-2.12,11.2,11.2,0,0,0-.14,2.24c.14.64,1,2,.84,2.81s-.84,1.08-.78,1.9,1,2.06.9,3.22-1.05,1.9-.85,2.63a16.21,16.21,0,0,0,.67,1.79Z" transform="translate(0 0.01)" fill="url(#f)"/><path d="M522.26,126.49a4.36,4.36,0,0,0,.63-1.79c.07-.92-.91-2.32-.91-2.88s.88-2,.91-2.82-.84-1.4-.91-2.1.86-1.86.71-2.87a5.35,5.35,0,0,0-1.13-2.13,10.5,10.5,0,0,1,.14,2.24c-.13.64-1,2-.84,2.81s.84,1.09.79,1.9-1,2.06-.9,3.23,1,1.9.84,2.62a16,16,0,0,1-.67,1.79Z" transform="translate(0 0.01)" opacity="0.2" fill="url(#g)" style="isolation:isolate"/><path d="M532.94,132.76a14.86,14.86,0,0,1-1.14-4.68c-.12-2.39,1.65-6.05,1.65-7.51s-1.6-5.16-1.66-7.38,1.53-3.64,1.66-5.46-1.56-4.86-1.29-7.52,1.52-4.17,2-5.54a40.7,40.7,0,0,0-.25,5.84c.24,1.68,1.78,5.23,1.51,7.35s-1.52,2.83-1.41,5,1.78,5.39,1.63,8.43-1.9,5-1.53,6.84,1.21,4.68,1.21,4.68Z" transform="translate(0 0.01)" opacity="0.2" fill="url(#h)" style="isolation:isolate"/><path d="M549.15,138.24a15.09,15.09,0,0,1-1.15-4.67c-.12-2.4,1.65-6,1.65-7.52s-1.6-5.15-1.65-7.38,1.53-3.64,1.65-5.46-1.55-4.86-1.29-7.52,1.52-4.17,2-5.54a40.71,40.71,0,0,0-.26,5.84c.25,1.68,1.78,5.23,1.52,7.35s-1.53,2.83-1.42,5,1.79,5.39,1.63,8.43-1.89,5-1.53,6.85,1.21,4.67,1.21,4.67Z" transform="translate(0 0.01)" fill="url(#i)"/><path d="M539.6,126.87a11.68,11.68,0,0,0,.9-3.68c.1-1.88-1.29-4.75-1.29-5.9s1.25-4.05,1.3-5.8-1.2-2.86-1.3-4.29,1.22-3.82,1-5.91S539,98,538.61,96.94a32,32,0,0,1,.21,4.59c-.2,1.32-1.4,4.1-1.2,5.77s1.2,2.23,1.12,3.89-1.41,4.24-1.28,6.62,1.48,3.9,1.19,5.38-.94,3.68-.94,3.68Z" transform="translate(0 0.01)" fill="url(#j)"/><path d="M558.13,131.22a11.68,11.68,0,0,0,.9-3.68c.1-1.88-1.29-4.75-1.29-5.9s1.25-4,1.3-5.8-1.2-2.86-1.3-4.29,1.22-3.82,1-5.9-1.19-3.29-1.61-4.36a32,32,0,0,1,.21,4.59c-.2,1.32-1.4,4.1-1.2,5.77s1.2,2.23,1.12,3.9-1.41,4.23-1.28,6.62,1.48,3.9,1.19,5.37-.94,3.68-.94,3.68Z" transform="translate(0 0.01)" opacity="0.2" fill="url(#k)" style="isolation:isolate"/><g opacity="0.6"><path d="M822.59,216.28s4.53-7,5.08-14.42-7.34-18.66-7.34-23.17,7.12-15.91,7.37-22.76c.27-7.26-6.81-11.24-7.37-16.86s6.93-15,5.76-23.18S819.3,103,817,98.8c0,0,2.07,13.65,1.15,18-1.09,5.19-7.93,16.13-6.76,22.68s6.78,8.72,6.31,15.28-8,16.62-7.25,26,8.42,15.31,6.79,21.12a145.25,145.25,0,0,1-5.39,14.42Z" transform="translate(0 0.01)" fill="url(#l)"/><path d="M902.05,208.59s4.54-7,5.09-14.41S899.8,175.52,899.8,171s7.12-15.91,7.37-22.77c.26-7.25-6.81-11.23-7.37-16.85s6.93-15,5.76-23.18-6.79-12.88-9.13-17.09c0,0,2.06,13.65,1.15,18-1.1,5.19-7.93,16.12-6.76,22.68s6.78,8.72,6.31,15.27-8,16.63-7.26,26,8.43,15.31,6.79,21.12a148.51,148.51,0,0,1-5.38,14.41Z" transform="translate(0 0.01)" fill="url(#m)"/><path d="M879.56,229.05s4.54-7,5.09-14.41-7.34-18.66-7.34-23.17,7.12-15.91,7.37-22.77c.26-7.25-6.81-11.23-7.37-16.85s6.93-15,5.76-23.18-6.79-12.88-9.13-17.09c0,0,2.06,13.65,1.15,18-1.1,5.19-7.93,16.12-6.76,22.68s6.78,8.72,6.31,15.27-8,16.62-7.26,26,8.43,15.31,6.79,21.12a148.51,148.51,0,0,1-5.38,14.41Z" transform="translate(0 0.01)" opacity="0.5" fill="url(#n)" style="isolation:isolate"/><path d="M656.64,204.84s4.53-7,5.08-14.42-7.34-18.66-7.34-23.17,7.12-15.91,7.37-22.76c.27-7.26-6.81-11.24-7.37-16.86s6.93-15,5.76-23.17-6.79-12.88-9.13-17.1c0,0,2.07,13.65,1.15,18-1.09,5.19-7.93,16.13-6.76,22.68s6.78,8.72,6.32,15.28-8,16.62-7.26,26,8.43,15.3,6.79,21.11a145.25,145.25,0,0,1-5.39,14.42Z" transform="translate(0 0.01)" fill="url(#o)"/><path d="M745.46,222.54a19.71,19.71,0,0,0,2.81-8c.31-4.08-4.06-10.32-4.06-12.82s3.94-8.8,4.08-12.59c.14-4-3.77-6.22-4.08-9.33s3.79-8.27,3.19-12.8-3.76-7.13-5.06-9.46c0,0,1.15,7.55.64,10-.61,2.87-4.39,8.92-3.74,12.55s3.75,4.82,3.49,8.45-4.4,9.2-4,14.38,4.66,8.47,3.75,11.68a76.22,76.22,0,0,1-3,8Z" transform="translate(0 0.01)" fill="url(#p)"/><path d="M628.4,213.07a19.72,19.72,0,0,0,2.82-8c.3-4.09-4.07-10.32-4.07-12.82s3.94-8.8,4.08-12.6c.15-4-3.77-6.21-4.08-9.32S631,162,630.34,157.5s-3.76-7.12-5.05-9.45c0,0,1.14,7.55.63,10-.6,2.87-4.38,8.92-3.73,12.54s3.75,4.83,3.49,8.46-4.41,9.19-4,14.38,4.67,8.47,3.76,11.68a81,81,0,0,1-3,8Z" transform="translate(0 0.01)" fill="url(#q)"/><path d="M913.54,222.54a19.72,19.72,0,0,0,2.82-8c.3-4.08-4.06-10.32-4.06-12.82s3.94-8.8,4.07-12.59c.15-4-3.76-6.22-4.07-9.33s3.83-8.29,3.18-12.82-3.75-7.13-5.05-9.46c0,0,1.14,7.55.64,10-.61,2.87-4.39,8.92-3.74,12.55s3.75,4.82,3.49,8.45-4.4,9.2-4,14.38,4.67,8.47,3.76,11.68a81,81,0,0,1-3,8Z" transform="translate(0 0.01)" fill="url(#r)"/><path d="M939.51,201a19.87,19.87,0,0,0,2.82-8c.3-4.09-4.06-10.32-4.06-12.82s3.94-8.8,4.07-12.6c.15-4-3.76-6.21-4.07-9.32s3.83-8.29,3.18-12.83-3.75-7.12-5.05-9.45c0,0,1.14,7.55.64,10-.61,2.88-4.39,8.93-3.74,12.55s3.75,4.83,3.49,8.46-4.4,9.19-4,14.38,4.67,8.47,3.76,11.68a81,81,0,0,1-3,8Z" transform="translate(0 0.01)" fill="url(#s)"/><path d="M840.62,211.1a19.72,19.72,0,0,1-2.82-8c-.3-4.09,4.07-10.33,4.07-12.82s-3.94-8.81-4.08-12.6c-.15-4,3.77-6.22,4.08-9.33s-3.84-8.29-3.19-12.82,3.76-7.13,5.05-9.46c0,0-1.14,7.55-.63,10,.6,2.87,4.38,8.92,3.73,12.55s-3.75,4.82-3.49,8.45,4.41,9.2,4,14.38-4.67,8.47-3.76,11.69a81,81,0,0,0,3,8Z" transform="translate(0 0.01)" fill="url(#t)"/><path d="M595.82,233.45a19.72,19.72,0,0,1-2.82-8c-.3-4.09,4.07-10.32,4.07-12.82s-3.94-8.8-4.08-12.6c-.15-4,3.77-6.21,4.08-9.32s-3.84-8.29-3.19-12.83,3.76-7.12,5-9.45c0,0-1.14,7.55-.63,10,.6,2.87,4.38,8.92,3.73,12.54s-3.75,4.83-3.49,8.46,4.41,9.19,4,14.38-4.67,8.47-3.76,11.68a81,81,0,0,0,3,8Z" transform="translate(0 0.01)" opacity="0.5" fill="url(#u)" style="isolation:isolate"/><path d="M793,239.05s4.54-10.17,5.09-20.84-7.34-27-7.34-33.47,7.12-23,7.36-32.9c.27-10.48-6.8-16.23-7.36-24.35s6.93-21.65,5.76-33.49-6.79-18.61-9.13-24.7c0,0,2.06,19.72,1.14,26-1.09,7.49-7.93,23.3-6.75,32.77s6.78,12.6,6.31,22.07-8,24-7.26,37.55,8.43,22.12,6.79,30.51S782.22,239,782.22,239Z" transform="translate(0 0.01)" opacity="0.2" fill="url(#v)" style="isolation:isolate"/><path d="M720.79,183.68s4.53-10.17,5.08-20.83-7.34-27-7.34-33.48,7.12-23,7.37-32.9c.27-10.48-6.81-16.23-7.37-24.35s6.93-21.65,5.76-33.49S717.5,20,715.16,13.93c0,0,2.07,19.72,1.15,26-1.09,7.5-7.93,23.3-6.76,32.77s6.78,12.6,6.31,22.07-8,24-7.25,37.55,8.43,22.13,6.79,30.52-5.4,20.84-5.4,20.84Z" transform="translate(0 0.01)" opacity="0.3" fill="url(#w)" style="isolation:isolate"/><path d="M763.31,212.79a52.31,52.31,0,0,1-4-16.37c-.43-8.38,5.77-21.18,5.77-26.3s-5.6-18.07-5.79-25.85c-.21-8.24,5.35-12.76,5.79-19.14s-5.45-17-4.53-26.31,5.34-14.62,7.18-19.4c0,0-1.63,15.49-.9,20.43.85,5.89,6.22,18.31,5.3,25.75s-5.32,9.9-5,17.34,6.26,18.87,5.71,29.51-6.62,17.38-5.34,24,4.23,16.37,4.23,16.37Z" transform="translate(0 0.01)" fill="url(#x)"/><path d="M700.44,212.68a52.31,52.31,0,0,1-4-16.37c-.43-8.38,5.77-21.18,5.77-26.3s-5.59-18.06-5.79-25.85c-.21-8.24,5.35-12.75,5.79-19.13s-5.45-17-4.53-26.32,5.34-14.62,7.18-19.4c0,0-1.62,15.49-.9,20.43.86,5.89,6.23,18.31,5.31,25.75s-5.33,9.9-5,17.34,6.25,18.88,5.7,29.51-6.62,17.38-5.34,24,4.23,16.37,4.23,16.37Z" transform="translate(0 0.01)" fill="url(#y)"/><path d="M680.72,183.68a52.87,52.87,0,0,1-4-16.37c-.44-8.38,5.76-21.18,5.76-26.31s-5.59-18.06-5.79-25.84c-.2-8.24,5.35-12.76,5.79-19.14S677.05,79,678,69.71s5.33-14.62,7.17-19.4c0,0-1.62,15.49-.9,20.43.86,5.89,6.23,18.31,5.31,25.75s-5.33,9.9-5,17.34,6.26,18.87,5.7,29.51-6.62,17.38-5.33,24,4.23,16.37,4.23,16.37Z" transform="translate(0 0.01)" opacity="0.2" fill="url(#z)" style="isolation:isolate"/></g></svg>