<svg xmlns="http://www.w3.org/2000/svg" xmlns:xlink="http://www.w3.org/1999/xlink" width="302.82" height="184.15" viewBox="0 0 302.82 184.15"><defs><linearGradient id="a" x1="364.94" y1="281.12" x2="334.18" y2="281.12" gradientTransform="matrix(0.94, 0.33, 0.33, -0.94, -139.06, 296.11)" gradientUnits="userSpaceOnUse"><stop offset="0.29" stop-color="#75b0b7"/><stop offset="0.42" stop-color="#638e97"/><stop offset="0.66" stop-color="#434e5d"/><stop offset="0.85" stop-color="#2f2738"/><stop offset="0.94" stop-color="#27182a"/></linearGradient><linearGradient id="b" x1="364.94" y1="280.98" x2="334.18" y2="280.98" xlink:href="#a"/><linearGradient id="c" x1="312.78" y1="313.75" x2="344.94" y2="313.75" gradientTransform="matrix(0.94, 0.33, 0.33, -0.94, -139.1, 296.11)" gradientUnits="userSpaceOnUse"><stop offset="0" stop-color="#27182a"/><stop offset="0.07" stop-color="#241f2c"/><stop offset="0.47" stop-color="#174637"/><stop offset="0.8" stop-color="#0e5d3e"/><stop offset="1" stop-color="#0b6640"/></linearGradient><linearGradient id="d" x1="309.91" y1="256.31" x2="342.37" y2="256.31" xlink:href="#c"/><linearGradient id="e" x1="364.94" y1="281.14" x2="334.18" y2="281.14" gradientTransform="matrix(0, 1, 1, 0, -4.28, -196.29)" xlink:href="#a"/><linearGradient id="f" x1="375.71" y1="430.63" x2="312.24" y2="152.07" gradientTransform="matrix(0, 1, 1, 0, -4.28, -196.29)" gradientUnits="userSpaceOnUse"><stop offset="0.11" stop-color="#75b0b7"/><stop offset="0.19" stop-color="#618992"/><stop offset="0.27" stop-color="#4f6672"/><stop offset="0.36" stop-color="#404a58"/><stop offset="0.46" stop-color="#353444"/><stop offset="0.56" stop-color="#2d2435"/><stop offset="0.68" stop-color="#281b2d"/><stop offset="0.85" stop-color="#27182a"/></linearGradient><linearGradient id="g" x1="312.78" y1="304.66" x2="344.94" y2="304.66" xlink:href="#c"/><linearGradient id="h" x1="334.45" y1="439.98" x2="270.99" y2="161.48" gradientTransform="matrix(0.94, 0.33, 0.33, -0.94, -139.1, 296.11)" xlink:href="#f"/><linearGradient id="i" x1="354.73" y1="435.4" x2="291.26" y2="156.84" gradientTransform="matrix(0.94, 0.33, 0.33, -0.94, -139.1, 296.11)" xlink:href="#f"/><linearGradient id="j" x1="309.91" y1="267.56" x2="342.37" y2="267.56" xlink:href="#c"/><linearGradient id="k" x1="350.33" y1="436.41" x2="286.86" y2="157.85" gradientTransform="matrix(0.94, 0.33, 0.33, -0.94, -139.1, 296.11)" xlink:href="#f"/><linearGradient id="l" x1="86.98" y1="29.27" x2="86.98" y2="107.7" gradientTransform="matrix(0.99, -0.11, -0.11, -0.99, 27.76, 124.85)" xlink:href="#c"/><linearGradient id="m" x1="82.5" y1="29.27" x2="82.5" y2="107.7" gradientTransform="matrix(0.99, -0.11, -0.11, -0.99, 27.76, 124.85)" xlink:href="#c"/><linearGradient id="n" x1="110.82" y1="166" x2="47.35" y2="-112.54" gradientTransform="matrix(0.99, -0.11, -0.11, -0.99, 27.76, 124.85)" xlink:href="#f"/><linearGradient id="o" x1="84.58" y1="171.98" x2="21.11" y2="-106.58" gradientTransform="matrix(0.99, -0.11, -0.11, -0.99, 27.76, 124.85)" xlink:href="#f"/><linearGradient id="p" x1="88.18" y1="29.27" x2="88.18" y2="107.7" gradientTransform="matrix(0.99, -0.11, -0.11, -0.99, 27.76, 124.85)" xlink:href="#c"/><linearGradient id="q" x1="118.62" y1="164.23" x2="55.15" y2="-114.33" gradientTransform="matrix(0.99, -0.11, -0.11, -0.99, 27.76, 124.85)" xlink:href="#f"/><linearGradient id="r" x1="65.34" y1="176.37" x2="1.87" y2="-102.19" gradientTransform="matrix(0.99, -0.11, -0.11, -0.99, 27.76, 124.85)" xlink:href="#f"/><linearGradient id="s" x1="-1968.95" y1="666.88" x2="-1823.68" y2="693.23" gradientTransform="matrix(-0.99, 0.11, 0.11, 0.99, -1833.34, -350.23)" gradientUnits="userSpaceOnUse"><stop offset="0" stop-color="#0b6640" stop-opacity="0"/><stop offset="0.13" stop-color="#0b6640" stop-opacity="0.08"/><stop offset="0.34" stop-color="#0b6640" stop-opacity="0.3"/><stop offset="0.59" stop-color="#0b6640" stop-opacity="0.66"/><stop offset="0.79" stop-color="#0b6640"/></linearGradient><linearGradient id="t" x1="66.85" y1="176.02" x2="3.38" y2="-102.54" gradientTransform="matrix(0.99, -0.11, -0.11, -0.99, 27.76, 124.85)" xlink:href="#f"/><linearGradient id="u" x1="-1968.2" y1="662.71" x2="-1822.92" y2="689.06" xlink:href="#s"/><linearGradient id="v" x1="107.96" y1="166.66" x2="44.49" y2="-111.9" gradientTransform="matrix(0.99, -0.11, -0.11, -0.99, 27.76, 124.85)" xlink:href="#f"/><linearGradient id="w" x1="-1973.11" y1="672.57" x2="-1827.83" y2="698.92" gradientTransform="matrix(-0.99, 0.11, 0.11, 0.99, -1833.34, -350.23)" gradientUnits="userSpaceOnUse"><stop offset="0" stop-color="#0b6640" stop-opacity="0"/><stop offset="0.13" stop-color="#0b6640" stop-opacity="0.08"/><stop offset="0.34" stop-color="#0b6640" stop-opacity="0.31"/><stop offset="0.59" stop-color="#0b6640" stop-opacity="0.67"/><stop offset="0.79" stop-color="#0b6640"/></linearGradient><linearGradient id="x" x1="122.02" y1="163.45" x2="58.55" y2="-115.11" gradientTransform="matrix(0.99, -0.11, -0.11, -0.99, 27.76, 124.85)" xlink:href="#f"/><linearGradient id="y" x1="-1973.61" y1="675.4" x2="-1828.34" y2="701.75" xlink:href="#w"/><linearGradient id="z" x1="92.17" y1="56.39" x2="76.66" y2="-11.72" gradientTransform="matrix(0.99, -0.11, -0.11, -0.99, 27.76, 124.85)" xlink:href="#f"/><linearGradient id="aa" x1="-1970.66" y1="659.09" x2="-1825.39" y2="685.44" xlink:href="#w"/><linearGradient id="ab" x1="163.74" y1="153.94" x2="100.27" y2="-124.62" gradientTransform="matrix(0.99, -0.11, -0.11, -0.99, 27.76, 124.85)" xlink:href="#f"/><linearGradient id="ac" x1="-1996.56" y1="677.37" x2="-1851.28" y2="703.72" gradientTransform="matrix(-0.99, 0.11, 0.11, 0.99, -1833.34, -350.23)" gradientUnits="userSpaceOnUse"><stop offset="0" stop-color="#0b6640" stop-opacity="0"/><stop offset="0.16" stop-color="#0b6640" stop-opacity="0.07"/><stop offset="0.21" stop-color="#0b6640" stop-opacity="0.09"/><stop offset="0.32" stop-color="#0b6640" stop-opacity="0.2"/><stop offset="0.51" stop-color="#0b6640" stop-opacity="0.48"/><stop offset="0.76" stop-color="#0b6640" stop-opacity="0.94"/><stop offset="0.79" stop-color="#0b6640"/></linearGradient><linearGradient id="ad" x1="-1997.88" y1="684.69" x2="-1852.61" y2="711.04" xlink:href="#ac"/><linearGradient id="ae" x1="40.42" y1="60.7" x2="96.76" y2="60.7" gradientTransform="matrix(0.99, -0.11, -0.11, -0.99, 27.8, 124.85)" gradientUnits="userSpaceOnUse"><stop offset="0" stop-color="#75b0b7"/><stop offset="1" stop-color="#27182a"/></linearGradient><linearGradient id="af" x1="70.52" y1="29.27" x2="70.52" y2="107.7" gradientTransform="matrix(0.99, -0.11, -0.11, -0.99, 27.8, 124.85)" xlink:href="#c"/><linearGradient id="ag" x1="40.42" y1="60.03" x2="96.76" y2="60.03" xlink:href="#ae"/><linearGradient id="ah" x1="113.65" y1="165.35" x2="50.19" y2="-113.2" gradientTransform="matrix(0.99, -0.11, -0.11, -0.99, 27.76, 124.85)" xlink:href="#f"/><linearGradient id="ai" x1="118.87" y1="164.17" x2="55.41" y2="-114.39" gradientTransform="matrix(0.99, -0.11, -0.11, -0.99, 27.76, 124.85)" xlink:href="#f"/><linearGradient id="aj" x1="115" y1="165.05" x2="51.53" y2="-113.51" gradientTransform="matrix(0.99, -0.11, -0.11, -0.99, 27.76, 124.85)" xlink:href="#f"/><linearGradient id="ak" x1="-1973.13" y1="672.69" x2="-1827.86" y2="699.04" xlink:href="#w"/></defs><path d="M173.9,73.05l49.4,8.18s3.52,82.93-6.86,84.26-22.65,1.93-22.65,1.93l-29.95-17.58Z" transform="translate(0.04)" fill="#004536"/><path d="M294.08,148.83c2-2.37,5.94-7.42,7.7-12.4a34,34,0,0,0,1-5l-7.37,7.75,7.2-14.18-.82-4.68a23.39,23.39,0,0,0-10,11.87,49.63,49.63,0,0,0-2.64,14.33l2.38,2.77Z" transform="translate(0.04)" fill="#0b6640"/><path d="M286.8,153.36c-2.28,2.84-6.21,8.23-8.18,13.77-2.86,8.09,1.88,13.22,1.88,13.22l3-7.89s.78,5.16,1.74,4.18c.47-.47,1.42-1.57,1.42-1.57l.82-5.37,1.62,1.78s1-1.95,1.37-3a38.13,38.13,0,0,0,2-13.15l-2.34-2Z" transform="translate(0.04)" fill="#0b6640"/><path d="M286.8,153.36c1.05-1.3,1.75-2.08,1.75-2.08l3.75,1.34a26.65,26.65,0,0,1,.16,2.67l1.07.94,2.77-7.81-2.22.41c-.74.88-1.22,1.4-1.22,1.4l-1.83.31-1.9-2.5v-1.5L286,142.9l-3.76,10.62Z" transform="translate(0.04)" fill="#27182a"/><path d="M291,150.54l1.83-.31s.48-.52,1.22-1.4l-2.56.48-2.38-2.77V148Z" transform="translate(0.04)" fill="#27182a"/><path d="M288.55,151.28s-.7.78-1.75,2.08l3.32-.11,2.34,2a18.86,18.86,0,0,0-.16-2.67Z" transform="translate(0.04)" fill="#27182a"/><polygon points="281.18 156.66 282.3 153.52 281.04 153.56 285.18 141.88 286.06 142.9 287.34 139.3 280.66 136.93 274.5 154.29 281.18 156.66" fill="#0b6640"/><polygon points="281.18 156.66 282.3 153.52 281.04 153.56 285.18 141.88 286.06 142.9 287.34 139.3 280.66 136.93 274.5 154.29 281.18 156.66" fill="url(#a)"/><polygon points="281.04 153.56 282.3 153.52 286.06 142.9 285.18 141.88 281.04 153.56" fill="#27182a"/><polygon points="281.04 153.56 282.3 153.52 286.06 142.9 285.18 141.88 281.04 153.56" fill="url(#b)"/><path d="M285.28,127l11.09-26.77-2.73-1c-1.91-.66-7.52-.74-7.52-.74l-4.89-3s-6.58-1.37-7.7-.83A19,19,0,0,0,271,96.27l-2.72,5.23-3,.84-2.85,2.86a191.73,191.73,0,0,1,15.25,23.31Z" transform="translate(0.04)" fill="url(#c)"/><path d="M242.28,149l-2.84,15.56a8.24,8.24,0,0,0,.38,4.26c.24.5,5.56,2.39,5.56,2.39l3.63-.35,7,3.51,5,.17,5.4,2.59,5.87-16.54-26.76-7.72.06-2.82a15.93,15.93,0,0,1-1.66-.66A3.13,3.13,0,0,0,242.28,149Z" transform="translate(0.04)" fill="url(#d)"/><rect x="267.64" y="144.64" width="18.42" height="1.44" transform="translate(47.35 357.69) rotate(-70.47)" fill="#0b6640"/><rect x="267.64" y="144.64" width="18.42" height="1.44" transform="translate(47.35 357.69) rotate(-70.47)" fill="url(#e)"/><rect x="267.64" y="144.64" width="18.42" height="1.44" transform="translate(47.35 357.69) rotate(-70.47)" fill="url(#f)"/><path d="M273.64,129.31l4-.8a191.73,191.73,0,0,0-15.25-23.31l-3,3Z" transform="translate(0.04)" fill="#0b6640"/><path d="M273.64,129.31l4-.8a191.73,191.73,0,0,0-15.25-23.31l-3,3Z" transform="translate(0.04)" fill="url(#g)"/><path d="M235.93,159.11c2-4.83,3.42-10,6.35-10.14l.38-2.1,2.93.32-.05,2.83c7,2.4,27.94,7.06,27.94,7.06l1-2.79-1.36-.48,6.16-17.36,1.35.48.57-1.61s-1.2-2.6-3.53-6.81l-4,.8-14.21-21.12,3-3c-3.7-4.83-16.08-11.28-16.08-11.28l-3.28-9.66-9.3.89s-2.74-10.08-4.91-11.4c-2.34-1.42-5-2.92-8-4.48l-4.15,26.47L199,108.08a16,16,0,0,1-2.64,3.58L204,140.59l-5.17,22.32C225.66,168.47,233.72,164.48,235.93,159.11Z" transform="translate(0.04)" fill="url(#h)"/><path d="M273.64,129.31l4-.8a191.73,191.73,0,0,0-15.25-23.31l-3,3Z" transform="translate(0.04)" fill="url(#i)"/><path d="M242.66,146.87l-.38,2.1a3.19,3.19,0,0,1,1.6.39,15.93,15.93,0,0,0,1.66.66l.05-2.83Z" transform="translate(0.04)" fill="#0b6640"/><path d="M242.66,146.87l-.38,2.1a3.19,3.19,0,0,1,1.6.39,15.93,15.93,0,0,0,1.66.66l.05-2.83Z" transform="translate(0.04)" fill="url(#j)"/><path d="M242.66,146.87l-.38,2.1a3.19,3.19,0,0,1,1.6.39,15.93,15.93,0,0,0,1.66.66l.05-2.83Z" transform="translate(0.04)" fill="url(#k)"/><path d="M101.19,7.28C100.55,1.75,98.76,1,95.89.52,94,.24,89.05.88,85.51,1.41l.82,7.18c2.81-.47,6.33-.72,7.46.76s2.53,19.22,3.06,26.9l7.58-.88-1.37-11.9a22.15,22.15,0,0,0-.84-3.58l.07-3.1L100.84,13A37.79,37.79,0,0,0,101.19,7.28Z" transform="translate(0.04)" fill="#27182a"/><path d="M124.37,38.76l-7.08-1.32-5.59-2.91-7.27.84.4,3.51-7.75.89s-.08-1.37-.23-3.52c-4.57.52-8.21,1.72-12,2.16a49.41,49.41,0,0,1-8.16.16l.62,8.31h25.82l2.31,20.39-26.37,3L79,69l.71,9.59c18.6-1.82,40.33-3.7,60-4.76C134.81,60.39,124.37,38.76,124.37,38.76Z" transform="translate(0.04)" fill="url(#l)"/><path d="M104.83,38.88l-.4-3.51-7.58.88c.15,2.15.23,3.52.23,3.52Z" transform="translate(0.04)" fill="#27182a"/><path d="M104.83,38.88l-.4-3.51-7.58.88c.15,2.15.23,3.52.23,3.52Z" transform="translate(0.04)" fill="url(#m)"/><path d="M170.5,121.94a17.06,17.06,0,1,1,.8-4.38l10.53-18.91-7.93-25.6c-6.05-.15-12.43,2-20,2.31-4.38.14-9.56-1.77-14.25-1.51,2.72,7.57,4.67,13.35,4.67,13.35L80.89,94.51l-4.54,14.85,11,48.83L66.45,138a16.41,16.41,0,0,1-28.06-16.85l-2.52-13.86L20.66,94.65l.4-8.32c-6.59,2-13.83,5.19-17.1,10.24-3.13,4.84-4,18.58-4,18.58l2.27,6.17-.84,8.08a95.42,95.42,0,0,1,3.35,10.27C7.68,154,8.65,186.15,42,184.05c1.79-.11,5.78-4.2,5.78-4.2L57.2,183l11-12.23,11.1,10.49,20.7-1.71,14.94-3.42,4.56,1.58,5.69-5.51,10.64,3.8L147,173.5s34.12-3.24,44.09-5.6c1.47-.35,2.87-.7,4.23-1l-5.18-22.32Zm-65.69,17.19a16.42,16.42,0,0,1-3.76-32.62s1-.68,5.13.21l1.31.32h.08a10,10,0,0,1,4,1.77h0a16.41,16.41,0,0,1-6.71,30.29Z" transform="translate(0.04)" fill="url(#n)"/><path d="M79.7,78.61l-7.7.77,8.9,15.13Z" transform="translate(0.04)" fill="url(#o)"/><path d="M35.89,107.32l2.52,13.86a16.41,16.41,0,0,1,29.41,14.57A16,16,0,0,1,66.47,138l20.91,20.16-11-48.84,4.54-14.84L72,79.38l-8,.83c-3,.32-7.87,2.63-7.87,2.63l-4.69-1.28-5.09,3.27-12-1.3a84.87,84.87,0,0,0-13.29,2.8l-.4,8.31Z" transform="translate(0.04)" fill="#27182a"/><path d="M144.32,87.2s-1.95-5.78-4.67-13.35C120,74.91,98.3,76.79,79.7,78.61l1.19,15.9Z" transform="translate(0.04)" fill="url(#p)"/><path d="M144.32,87.2s-1.95-5.78-4.67-13.35C120,74.91,98.3,76.79,79.7,78.61l1.19,15.9Z" transform="translate(0.04)" fill="url(#q)"/><path d="M39.9,129.46l-1.51-8.28A16.41,16.41,0,0,0,66.45,138l-5-4.79Z" transform="translate(0.04)" fill="url(#r)"/><path d="M39.9,129.46l-1.51-8.28A16.41,16.41,0,0,0,66.45,138l-5-4.79Z" transform="translate(0.04)" fill="url(#s)"/><path d="M51.17,112.26a16.43,16.43,0,0,0-12.78,8.92l1.51,8.28,21.58,3.78,5,4.79A16.4,16.4,0,0,0,51.2,112.26Z" transform="translate(0.04)" fill="#0b6640"/><path d="M51.17,112.26a16.43,16.43,0,0,0-12.78,8.92l1.51,8.28,21.58,3.78,5,4.79A16.4,16.4,0,0,0,51.2,112.26Z" transform="translate(0.04)" fill="url(#t)"/><path d="M51.17,112.26a16.43,16.43,0,0,0-12.78,8.92l1.51,8.28,21.58,3.78,5,4.79A16.4,16.4,0,0,0,51.2,112.26Z" transform="translate(0.04)" fill="url(#u)"/><path d="M100.86,126.77l-3-4,3-7.51.19-8.75a16.42,16.42,0,0,0,3.76,32.62l-4.2-4.63Z" transform="translate(0.04)" fill="url(#v)"/><path d="M100.86,126.77l-3-4,3-7.51.19-8.75a16.42,16.42,0,0,0,3.76,32.62l-4.2-4.63Z" transform="translate(0.04)" fill="url(#w)"/><path d="M111.52,108.84l-8.63,13.61,2,2.81-3.24,8.28,3.16,5.59a16.41,16.41,0,0,0,6.71-30.29Z" transform="translate(0.04)" fill="url(#x)"/><path d="M111.52,108.84l-8.63,13.61,2,2.81-3.24,8.28,3.16,5.59a16.41,16.41,0,0,0,6.71-30.29Z" transform="translate(0.04)" fill="url(#y)"/><path d="M107.49,107h0Z" transform="translate(0.04)" fill="url(#z)"/><path d="M107.49,107h0Z" transform="translate(0.04)" fill="url(#aa)"/><path d="M153,100.52a16.42,16.42,0,1,0,17.47,21.42l-1-1.15,1.8-3.23a16.29,16.29,0,0,0-15.44-17.1,15.76,15.76,0,0,0-2.83.1Z" transform="translate(0.04)" fill="url(#ab)"/><path d="M150.05,100.86a16.42,16.42,0,1,0,17.47,21.43l-1-1.16,1.8-3.22a16.3,16.3,0,0,0-15.46-17.1,16.47,16.47,0,0,0-2.81.1Z" transform="translate(0.04)" fill="url(#ac)"/><path d="M167.52,122.29a16.75,16.75,0,0,0,.8-4.38l-1.8,3.22Z" transform="translate(0.04)" fill="url(#ad)"/><polygon points="77.3 46.88 79.03 69.02 77.37 46.88 77.3 46.88" fill="url(#ae)"/><polygon points="105.5 67.3 103.19 46.91 77.37 46.88 79.03 69.02 79.13 70.34 105.5 67.3" fill="url(#af)"/><polygon points="105.5 67.3 103.19 46.91 97.95 46.91 91.89 48.11 83.87 46.89 77.37 46.88 79.03 69.02 79.13 70.34 83.09 69.88 86.04 69.54 89.11 68.23 91.82 68.87 95.5 68.45 99.62 67.02 105.5 67.3" fill="url(#ag)"/><path d="M81.68,2s1.64-.28,3.83-.61L85.34,0,80,.61l.56,10.05,5.9-.68L86.3,8.59c-2.1.36-3.8.84-3.8.84Z" transform="translate(0.04)" fill="#0b6640"/><path d="M81.68,2l.85,7.41s1.7-.48,3.8-.84l-.82-7.18Z" transform="translate(0.04)" fill="#0b6640"/><path d="M106.18,106.72c-4.08-.89-5.13-.21-5.13-.21a16.48,16.48,0,0,1,6.44.53Z" transform="translate(0.04)" fill="url(#ah)"/><path d="M106.18,106.72c-4.08-.89-5.13-.21-5.13-.21a16.48,16.48,0,0,1,6.44.53Z" transform="translate(0.04)" fill="#004f36"/><path d="M111.53,108.84a10,10,0,0,0-4-1.77A16.26,16.26,0,0,1,111.53,108.84Z" transform="translate(0.04)" fill="url(#ai)"/><path d="M111.53,108.84a10,10,0,0,0-4-1.77A16.26,16.26,0,0,1,111.53,108.84Z" transform="translate(0.04)" fill="#004f36"/><path d="M104.89,125.26l-2-2.81,8.63-13.61a16.26,16.26,0,0,0-4-1.77h-.08a16.48,16.48,0,0,0-6.44-.53l-.19,8.75-3,7.51,3,4-.25,7.73,4.2,4.63-3.16-5.59Z" transform="translate(0.04)" fill="url(#aj)"/><path d="M104.89,125.26l-2-2.81,8.63-13.61a16.26,16.26,0,0,0-4-1.77h-.08a16.48,16.48,0,0,0-6.44-.53l-.19,8.75-3,7.51,3,4-.25,7.73,4.2,4.63-3.16-5.59Z" transform="translate(0.04)" fill="url(#ak)"/><path d="M104,117.29l-1.86-1.55,9.4-6.9c-1.3-1.14-6.19-3-10.47-2.33l-.61,5.13-3.32,4.53,2.78,2.2-.63,4.53,4,2.51-2.88-3.12Z" transform="translate(0.04)" fill="#004f36"/></svg>